<?xml version="1.0" encoding="UTF-8"?>
<svg width="380px" height="86px" viewBox="0 0 380 86" version="1.1" xmlns="http://www.w3.org/2000/svg" xmlns:xlink="http://www.w3.org/1999/xlink">
    <title>admin-digital</title>
    <defs>
        <path d="M26.368,85.816 C31.808,85.816 35.684,83.3 36.976,78.948 L37.316,78.948 C37.724,82.688 40.104,85 44.32,85 L49.42,85 L49.42,78.472 L45.272,78.472 L45.272,61.948 C45.272,53.516 39.696,49.096 30.516,49.096 C22.9,49.096 18.004,52.156 15.828,56.032 L20.792,60.248 C22.696,57.528 25.212,55.624 29.632,55.624 C34.46,55.624 36.568,57.936 36.568,62.356 L36.568,64.668 L30.38,64.668 C20.044,64.668 14.808,68.204 14.808,75.276 C14.808,81.872 19.364,85.816 26.368,85.816 Z M29.292,79.832 C25.688,79.832 23.444,78.336 23.444,75.548 L23.444,74.188 C23.444,71.264 25.824,69.7 30.584,69.7 L36.568,69.7 L36.568,74.392 C36.568,77.724 33.44,79.832 29.292,79.832 Z M68.256,85.816 C73.628,85.816 76.824,83.028 78.728,78.812 L79.204,78.812 L79.204,85 L87.908,85 L87.908,34.68 L79.204,34.68 L79.204,56.1 L78.728,56.1 C76.824,51.884 73.628,49.096 68.256,49.096 C60.232,49.096 54.86,55.08 54.86,67.456 C54.86,79.832 60.232,85.816 68.256,85.816 Z M71.928,78.88 C66.896,78.88 63.972,75.548 63.972,70.244 L63.972,64.668 C63.972,59.364 66.896,56.032 71.928,56.032 C75.872,56.032 79.204,57.936 79.204,61.948 L79.204,72.964 C79.204,76.976 75.872,78.88 71.928,78.88 Z M102.324,85 L102.324,59.772 C102.324,56.984 103.888,55.624 106.064,55.624 C108.308,55.624 109.396,57.052 109.396,61.132 L109.396,85 L116.604,85 L116.604,59.772 C116.604,56.984 118.168,55.624 120.276,55.624 C122.52,55.624 123.676,57.052 123.676,61.132 L123.676,85 L130.816,85 L130.816,60.112 C130.816,52.904 128.64,49.096 123.54,49.096 C119.256,49.096 117.216,51.748 115.992,54.944 L115.652,54.944 C115.04,51.272 112.932,49.096 109.396,49.096 C105.656,49.096 103.82,51.612 102.732,54.74 L102.324,54.74 L102.324,49.912 L95.116,49.912 L95.116,85 L102.324,85 Z M155.976,44.472 C160.056,44.472 161.552,42.5 161.552,40.052 L161.552,38.42 C161.552,35.972 160.056,34 155.976,34 C151.896,34 150.4,35.972 150.4,38.42 L150.4,40.052 C150.4,42.5 151.896,44.472 155.976,44.472 Z M171.072,85 L171.072,78.132 L160.328,78.132 L160.328,49.912 L140.064,49.912 L140.064,56.78 L151.624,56.78 L151.624,78.132 L140.064,78.132 L140.064,85 L171.072,85 Z M188.004,85 L188.004,61.54 C188.004,57.8 191.404,55.964 194.94,55.964 C199.292,55.964 201.536,58.548 201.536,63.58 L201.536,85 L210.24,85 L210.24,62.356 C210.24,53.856 205.48,49.096 198.612,49.096 C192.9,49.096 189.908,52.292 188.344,56.1 L188.004,56.1 L188.004,49.912 L179.3,49.912 L179.3,85 L188.004,85 Z M224.3,85.279 C225.974,85.279 226.594,84.473 226.594,83.419 L226.594,82.861 C226.594,81.807 225.974,81.001 224.3,81.001 C222.626,81.001 222.006,81.807 222.006,82.861 L222.006,83.419 C222.006,84.473 222.626,85.279 224.3,85.279 Z M241.722,85.372 C243.954,85.372 245.628,84.349 246.651,82.396 L246.775,82.396 L246.775,85 L249.255,85 L249.255,62.06 L246.775,62.06 L246.775,71.608 L246.651,71.608 C245.628,69.655 243.954,68.632 241.722,68.632 C237.816,68.632 235.46,71.763 235.46,77.002 C235.46,82.241 237.816,85.372 241.722,85.372 Z M242.683,83.171 C239.8,83.171 238.126,81.249 238.126,78.366 L238.126,75.638 C238.126,72.755 239.8,70.833 242.683,70.833 C244.884,70.833 246.775,71.98 246.775,74.119 L246.775,79.885 C246.775,82.024 244.884,83.171 242.683,83.171 Z M262.492,65.47 C263.918,65.47 264.445,64.788 264.445,63.889 L264.445,63.393 C264.445,62.494 263.918,61.812 262.492,61.812 C261.066,61.812 260.539,62.494 260.539,63.393 L260.539,63.889 C260.539,64.788 261.066,65.47 262.492,65.47 Z M269.126,85 L269.126,82.892 L263.732,82.892 L263.732,69.004 L255.486,69.004 L255.486,71.112 L261.252,71.112 L261.252,82.892 L255.486,82.892 L255.486,85 L269.126,85 Z M280.131,91.572 C285.463,91.572 288.191,90.053 288.191,86.829 C288.191,84.225 286.424,82.551 282.301,82.551 L278.767,82.551 C277.248,82.551 276.194,82.334 276.194,81.373 C276.194,80.288 277.527,79.73 278.488,79.544 C278.984,79.637 279.48,79.668 280.007,79.668 C283.758,79.668 286.238,77.405 286.238,74.15 C286.238,72.476 285.587,71.081 284.44,70.089 L284.44,69.004 L288.036,69.004 L288.036,66.834 L285.091,66.834 C283.696,66.834 283.169,67.764 283.169,69.004 L283.169,69.283 C282.27,68.849 281.216,68.632 280.007,68.632 C276.256,68.632 273.807,70.895 273.807,74.15 C273.807,76.413 274.985,78.18 276.938,79.048 L276.938,79.172 C275.295,79.575 274.055,80.319 274.055,81.962 C274.055,83.047 274.582,83.729 275.481,84.163 L275.481,84.535 C273.838,84.969 272.877,85.899 272.877,87.604 C272.877,90.146 274.985,91.572 280.131,91.572 Z M280.007,77.746 C277.558,77.746 276.411,76.475 276.411,74.584 L276.411,73.685 C276.411,71.794 277.558,70.554 280.007,70.554 C282.487,70.554 283.634,71.794 283.634,73.685 L283.634,74.584 C283.634,76.475 282.487,77.746 280.007,77.746 Z M281.278,89.588 L278.86,89.588 C276.256,89.588 275.233,88.41 275.233,87.015 C275.233,85.992 275.791,85.279 276.845,84.845 L282.394,84.845 C284.967,84.845 285.866,85.682 285.866,86.953 C285.866,88.689 284.161,89.588 281.278,89.588 Z M299.692,65.47 C301.118,65.47 301.645,64.788 301.645,63.889 L301.645,63.393 C301.645,62.494 301.118,61.812 299.692,61.812 C298.266,61.812 297.739,62.494 297.739,63.393 L297.739,63.889 C297.739,64.788 298.266,65.47 299.692,65.47 Z M306.326,85 L306.326,82.892 L300.932,82.892 L300.932,69.004 L292.686,69.004 L292.686,71.112 L298.452,71.112 L298.452,82.892 L292.686,82.892 L292.686,85 L306.326,85 Z M324.306,85 L324.306,82.892 L317.021,82.892 L317.021,71.112 L324.306,71.112 L324.306,69.004 L317.021,69.004 L317.021,63.362 L314.634,63.362 L314.634,67.547 C314.634,68.632 314.231,69.004 313.177,69.004 L309.209,69.004 L309.209,71.112 L314.541,71.112 L314.541,81.342 C314.541,83.481 315.657,85 318.075,85 L324.306,85 Z M334.133,85.372 C336.737,85.372 338.256,84.225 338.938,82.396 L339.093,82.396 C339.279,83.884 340.023,85 341.945,85 L343.65,85 L343.65,82.83 L341.418,82.83 L341.418,74.026 C341.418,70.647 339.031,68.632 335.28,68.632 C332.025,68.632 329.979,70.182 329.173,71.856 L330.847,73.096 C331.684,71.639 332.986,70.74 335.125,70.74 C337.543,70.74 338.938,71.949 338.938,74.274 L338.938,75.855 L335.528,75.855 C330.723,75.855 328.646,77.56 328.646,80.505 C328.646,83.512 330.785,85.372 334.133,85.372 Z M334.567,83.295 C332.521,83.295 331.25,82.427 331.25,80.784 L331.25,80.133 C331.25,78.583 332.583,77.715 335.528,77.715 L338.938,77.715 L338.938,80.35 C338.938,81.993 337.109,83.295 334.567,83.295 Z M361.32,85 L361.32,82.892 L355.74,82.892 L355.74,62.06 L347.68,62.06 L347.68,64.168 L353.26,64.168 L353.26,82.892 L347.68,82.892 L347.68,85 L361.32,85 Z" id="path-1"></path>
    </defs>
    <g id="admin-digital" stroke="none" stroke-width="1" fill="none" fill-rule="evenodd">
        <g id="Group-2" transform="translate(0.000000, -20.000000)" fill="#FFFFFF" fill-rule="nonzero">
            <g id="admin.digital">
                <use xlink:href="#path-1"></use>
                <use xlink:href="#path-1"></use>
            </g>
        </g>
    </g>
</svg>