<?xml version="1.0" encoding="UTF-8" standalone="no"?>
<svg width="100px" height="100px" viewBox="0 0 100 100" version="1.1" xmlns="http://www.w3.org/2000/svg" xmlns:xlink="http://www.w3.org/1999/xlink">
    <!-- Generator: Sketch 3.6.1 (26313) - http://www.bohemiancoding.com/sketch -->
    <title>Untitled</title>
    <desc>Created with Sketch.</desc>
    <defs>
        <path id="path-1" d="M0,99.9735683 L99.8991189,99.9735683 L99.8991189,0.100881057 L0,0.100881057 L0,99.9735683 L0,99.9735683 Z"></path>
    </defs>
    <g id="Page-1" stroke="none" stroke-width="1" fill="none" fill-rule="evenodd">
        <g id="2016_pa_b">
            <g id="Group-3">
                <mask id="mask-2" fill="white">
                    <use xlink:href="#path-1"></use>
                </mask>
                <g id="Clip-2"></g>
                <path d="M0,100 L99.8991189,100 L99.8991189,0.100881057 L0,0.100881057 L0,100 Z" id="Fill-1" fill="#1A1918" mask="url(#mask-2)"></path>
            </g>
            <path d="M54.0629956,46.5687225 L57.00837,46.5687225 L59.3400881,37.1427313 L59.3889868,37.1427313 L61.745815,46.5687225 L64.6176211,46.5687225 L68.5947137,33.8779736 L65.7471366,33.8779736 L63.1696035,43.353304 L63.1202643,43.353304 L60.8378855,33.8779736 L58.0145374,33.8779736 L55.6334802,43.353304 L55.5845815,43.353304 L53.1048458,33.8779736 L50.1348018,33.8779736 L54.0629956,46.5687225" id="Fill-4" fill="#FFFFFF"></path>
            <path d="M54.0629956,46.5687225 L57.00837,46.5687225 L59.3400881,37.1427313 L59.3889868,37.1427313 L61.745815,46.5687225 L64.6176211,46.5687225 L68.5947137,33.8779736 L65.7471366,33.8779736 L63.1696035,43.353304 L63.1202643,43.353304 L60.8378855,33.8779736 L58.0145374,33.8779736 L55.6334802,43.353304 L55.5845815,43.353304 L53.1048458,33.8779736 L50.1348018,33.8779736 L54.0629956,46.5687225 L54.0629956,46.5687225 Z" id="Stroke-5" stroke="#FFFFFF" stroke-width="0.697"></path>
            <path d="M71.8334802,39.1066079 C71.9066079,37.2162996 73.2317181,35.7436123 75.1713656,35.7436123 C77.061674,35.7436123 78.2643172,37.339207 78.3625551,39.1066079 L71.8334802,39.1066079 L71.8334802,39.1066079 Z M81.1612335,40.9475771 C81.6277533,37.1427313 79.1731278,33.5343612 75.1713656,33.5343612 C71.3911894,33.5343612 69.0343612,36.6273128 69.0343612,40.2356828 C69.0343612,44.1387665 71.2682819,46.9127753 75.2453744,46.9127753 C78.0193833,46.9127753 80.3748899,45.3660793 80.9894273,42.592511 L78.3378855,42.592511 C77.8471366,43.99163 76.8651982,44.7030837 75.2453744,44.7030837 C72.9132159,44.7030837 71.8334802,42.9361233 71.8334802,40.9475771 L81.1612335,40.9475771 L81.1612335,40.9475771 Z" id="Fill-6" fill="#FFFFFF"></path>
            <path d="M71.8334802,39.1066079 C71.9066079,37.2162996 73.2317181,35.7436123 75.1713656,35.7436123 C77.061674,35.7436123 78.2643172,37.339207 78.3625551,39.1066079 L71.8334802,39.1066079 L71.8334802,39.1066079 Z M81.1612335,40.9475771 C81.6277533,37.1427313 79.1731278,33.5343612 75.1713656,33.5343612 C71.3911894,33.5343612 69.0343612,36.6273128 69.0343612,40.2356828 C69.0343612,44.1387665 71.2682819,46.9127753 75.2453744,46.9127753 C78.0193833,46.9127753 80.3748899,45.3660793 80.9894273,42.592511 L78.3378855,42.592511 C77.8471366,43.99163 76.8651982,44.7030837 75.2453744,44.7030837 C72.9132159,44.7030837 71.8334802,42.9361233 71.8334802,40.9475771 L81.1612335,40.9475771 L81.1612335,40.9475771 Z" id="Stroke-7" stroke="#FFFFFF" stroke-width="0.697"></path>
            <path d="M83.122467,46.5687225 L85.7726872,46.5687225 L85.7726872,44.8259912 L85.8220264,44.8259912 C86.6568282,46.4951542 88.4982379,46.9127753 90.2162996,46.9127753 C93.9718062,46.9127753 95.6903084,43.6969163 95.6903084,40.285022 C95.6903084,36.5784141 93.7506608,33.5343612 89.7493392,33.5343612 C88.3259912,33.5343612 86.730837,34.2951542 85.969163,35.5229075 L85.9202643,35.5229075 L85.9202643,29.0422907 L83.122467,29.0422907 L83.122467,46.5687225 L83.122467,46.5687225 Z M92.8920705,40.2356828 C92.8920705,42.4449339 91.9343612,44.7030837 89.3810573,44.7030837 C87.123348,44.7030837 85.8220264,42.7885463 85.8220264,40.2356828 C85.8220264,37.5356828 87.0246696,35.7436123 89.3810573,35.7436123 C91.6894273,35.7436123 92.8920705,37.9281938 92.8920705,40.2356828 L92.8920705,40.2356828 Z" id="Fill-8" fill="#FFFFFF"></path>
            <path d="M83.122467,46.5687225 L85.7726872,46.5687225 L85.7726872,44.8259912 L85.8220264,44.8259912 C86.6568282,46.4951542 88.4982379,46.9127753 90.2162996,46.9127753 C93.9718062,46.9127753 95.6903084,43.6969163 95.6903084,40.285022 C95.6903084,36.5784141 93.7506608,33.5343612 89.7493392,33.5343612 C88.3259912,33.5343612 86.730837,34.2951542 85.969163,35.5229075 L85.9202643,35.5229075 L85.9202643,29.0422907 L83.122467,29.0422907 L83.122467,46.5687225 L83.122467,46.5687225 Z M92.8920705,40.2356828 C92.8920705,42.4449339 91.9343612,44.7030837 89.3810573,44.7030837 C87.123348,44.7030837 85.8220264,42.7885463 85.8220264,40.2356828 C85.8220264,37.5356828 87.0246696,35.7436123 89.3810573,35.7436123 C91.6894273,35.7436123 92.8920705,37.9281938 92.8920705,40.2356828 L92.8920705,40.2356828 Z" id="Stroke-9" stroke="#FFFFFF" stroke-width="0.697"></path>
            <path d="M50.3321586,25.1687225 C50.4387665,27.6066079 52.5207048,28.4079295 54.6563877,28.4079295 C56.7568282,28.4079295 58.8563877,27.6246696 58.8563877,25.2039648 C58.8563877,23.4955947 57.414978,22.961674 55.9378855,22.623348 C54.4964758,22.2854626 53.0726872,22.160793 53.0726872,21.253304 C53.0726872,20.5057269 53.9092511,20.3991189 54.4788546,20.3991189 C55.3863436,20.3991189 56.1339207,20.6660793 56.2044053,21.6449339 L58.6079295,21.6449339 C58.4118943,19.3845815 56.560793,18.7079295 54.5497797,18.7079295 C52.5740088,18.7079295 50.5453744,19.3136564 50.5453744,21.6625551 C50.5453744,23.2819383 52.0048458,23.7982379 53.4638767,24.1185022 C55.2797357,24.5101322 56.3290749,24.7770925 56.3290749,25.5422907 C56.3290749,26.4321586 55.4039648,26.7167401 54.6735683,26.7167401 C53.6779736,26.7167401 52.7519824,26.2718062 52.7348018,25.1687225 L50.3321586,25.1687225" id="Fill-10" fill="#D9222A"></path>
            <path d="M73.3938326,18.9577093 L70.7951542,18.9577093 L69.1044053,25.1863436 L69.069163,25.1863436 L67.5030837,18.9577093 L65.0471366,18.9577093 L63.5167401,25.2039648 L63.4810573,25.2039648 L61.7903084,18.9577093 L59.1202643,18.9577093 L62.039207,28.1585903 L64.6555066,28.1585903 L66.2211454,21.9828194 L66.2572687,21.9828194 L67.8938326,28.1585903 L70.492511,28.1585903 L73.3938326,18.9577093" id="Fill-11" fill="#D9222A"></path>
            <path d="M74.1779736,17.5339207 L76.7048458,17.5339207 L76.7048458,15.4515419 L74.1779736,15.4515419 L74.1779736,17.5339207 Z M74.1779736,28.1585903 L76.7048458,28.1585903 L76.7048458,18.9577093 L74.1779736,18.9577093 L74.1779736,28.1585903 Z" id="Fill-12" fill="#D9222A"></path>
            <path d="M77.8942731,25.1687225 C78.0013216,27.6066079 80.0832599,28.4079295 82.2193833,28.4079295 C84.3189427,28.4079295 86.4189427,27.6246696 86.4189427,25.2039648 C86.4189427,23.4955947 84.977533,22.961674 83.5004405,22.623348 C82.0590308,22.2854626 80.6352423,22.160793 80.6352423,21.253304 C80.6352423,20.5057269 81.4709251,20.3991189 82.0409692,20.3991189 C82.9484581,20.3991189 83.6955947,20.6660793 83.7669604,21.6449339 L86.1696035,21.6449339 C85.9744493,19.3845815 84.1229075,18.7079295 82.1123348,18.7079295 C80.1365639,18.7079295 78.1079295,19.3136564 78.1079295,21.6625551 C78.1079295,23.2819383 79.5669604,23.7982379 81.0264317,24.1185022 C82.8418502,24.5101322 83.8920705,24.7770925 83.8920705,25.5422907 C83.8920705,26.4321586 82.9665198,26.7167401 82.2365639,26.7167401 C81.2396476,26.7167401 80.3140969,26.2718062 80.2969163,25.1687225 L77.8942731,25.1687225" id="Fill-13" fill="#D9222A"></path>
            <path d="M87.2700441,25.1687225 C87.377533,27.6066079 89.4590308,28.4079295 91.5947137,28.4079295 C93.6951542,28.4079295 95.7951542,27.6246696 95.7951542,25.2039648 C95.7951542,23.4955947 94.353304,22.961674 92.8757709,22.623348 C91.4348018,22.2854626 90.0105727,22.160793 90.0105727,21.253304 C90.0105727,20.5057269 90.8475771,20.3991189 91.4167401,20.3991189 C92.3246696,20.3991189 93.0718062,20.6660793 93.1431718,21.6449339 L95.545815,21.6449339 C95.3497797,19.3845815 93.4991189,18.7079295 91.4881057,18.7079295 C89.5123348,18.7079295 87.484141,19.3136564 87.484141,21.6625551 C87.484141,23.2819383 88.9431718,23.7982379 90.4026432,24.1185022 C92.2180617,24.5101322 93.2678414,24.7770925 93.2678414,25.5422907 C93.2678414,26.4321586 92.3418502,26.7167401 91.6127753,26.7167401 C90.615859,26.7167401 89.6907489,26.2718062 89.6726872,25.1687225 L87.2700441,25.1687225" id="Fill-14" fill="#D9222A"></path>
            <path d="M56.4585903,10.392511 C56.4585903,11.7118943 55.8911894,12.923348 54.6026432,12.923348 C53.3132159,12.923348 52.745815,11.7118943 52.745815,10.392511 C52.745815,9.05770925 53.3132159,7.84537445 54.6026432,7.84537445 C55.8911894,7.84537445 56.4585903,9.05770925 56.4585903,10.392511 L56.4585903,10.392511 Z M50.6444934,14.3506608 L52.7154185,14.3506608 L52.7154185,13.3378855 L52.745815,13.3378855 C53.2215859,14.2123348 54.1885463,14.5656388 55.354185,14.5656388 C56.9343612,14.5656388 58.6374449,13.2920705 58.6374449,10.3770925 C58.6374449,7.47753304 56.9343612,6.20396476 55.354185,6.20396476 C54.3726872,6.20396476 53.3903084,6.57180617 52.8537445,7.38546256 L52.822467,7.38546256 L52.822467,3.39603524 L50.6444934,3.39603524 L50.6444934,14.3506608 L50.6444934,14.3506608 Z" id="Fill-15" fill="#FFFFFF"></path>
            <path d="M61.3515419,9.53303965 C61.3828194,8.91938326 61.7810573,7.84537445 63.1621145,7.84537445 C64.2207048,7.84537445 64.6960352,8.42819383 64.8955947,9.53303965 L61.3515419,9.53303965 L61.3515419,9.53303965 Z M67.0744493,10.9136564 C67.2273128,8.47444934 65.923348,6.20396476 63.223348,6.20396476 C60.8145374,6.20396476 59.1726872,8.01409692 59.1726872,10.392511 C59.1726872,12.8471366 60.7229075,14.5656388 63.223348,14.5656388 C65.0185022,14.5656388 66.3229075,13.7674009 66.9361233,11.8955947 L65.0185022,11.8955947 C64.8801762,12.3867841 64.1748899,12.923348 63.3,12.923348 C62.0876652,12.923348 61.4132159,12.2947137 61.3515419,10.9136564 L67.0744493,10.9136564 L67.0744493,10.9136564 Z" id="Fill-16" fill="#FFFFFF"></path>
            <path d="M67.5189427,11.7731278 C67.6105727,13.8748899 69.4052863,14.5656388 71.2462555,14.5656388 C73.0568282,14.5656388 74.8674009,13.8903084 74.8674009,11.8035242 C74.8674009,10.3312775 73.6246696,9.87048458 72.3506608,9.57929515 C71.1088106,9.2876652 69.8814978,9.18017621 69.8814978,8.39779736 C69.8814978,7.75330396 70.6022026,7.66123348 71.0929515,7.66123348 C71.8757709,7.66123348 72.5198238,7.89162996 72.5810573,8.73524229 L74.6524229,8.73524229 C74.4837004,6.78678414 72.8881057,6.20396476 71.1546256,6.20396476 C69.4515419,6.20396476 67.7030837,6.72555066 67.7030837,8.75066079 C67.7030837,10.146696 68.960793,10.59163 70.2185022,10.8678414 C71.784141,11.2052863 72.6889868,11.4356828 72.6889868,12.0951542 C72.6889868,12.8625551 71.8907489,13.1079295 71.2621145,13.1079295 C70.4026432,13.1079295 69.6048458,12.7242291 69.5894273,11.7731278 L67.5189427,11.7731278" id="Fill-17" fill="#FFFFFF"></path>
            <path d="M78.4396476,4.04052863 L76.260793,4.04052863 L76.260793,6.4185022 L74.9418502,6.4185022 L74.9418502,7.87621145 L76.260793,7.87621145 L76.260793,12.5555066 C76.260793,14.1356828 77.4273128,14.4427313 78.761674,14.4427313 C79.19163,14.4427313 79.6665198,14.4273128 80.0352423,14.3660793 L80.0352423,12.6629956 C79.8048458,12.7092511 79.5907489,12.7242291 79.3603524,12.7242291 C78.6242291,12.7242291 78.4396476,12.5400881 78.4396476,11.8035242 L78.4396476,7.87621145 L80.0352423,7.87621145 L80.0352423,6.4185022 L78.4396476,6.4185022 L78.4396476,4.04052863" id="Fill-18" fill="#FFFFFF"></path>
            <path d="M84.7876652,10.392511 C84.7876652,8.45903084 85.892511,7.38546256 87.2572687,7.38546256 C88.623348,7.38546256 89.7277533,8.45903084 89.7277533,10.392511 C89.7277533,12.3101322 88.623348,13.3837004 87.2572687,13.3837004 C85.892511,13.3837004 84.7876652,12.3101322 84.7876652,10.392511 L84.7876652,10.392511 Z M83.4070485,10.392511 C83.4070485,12.7092511 84.7414097,14.5343612 87.2572687,14.5343612 C89.7740088,14.5343612 91.10837,12.7092511 91.10837,10.392511 C91.10837,8.05991189 89.7740088,6.23436123 87.2572687,6.23436123 C84.7414097,6.23436123 83.4070485,8.05991189 83.4070485,10.392511 L83.4070485,10.392511 Z" id="Fill-19" fill="#FFFFFF"></path>
            <path d="M92.7189427,14.3506608 L94.0229075,14.3506608 L94.0229075,7.569163 L95.5572687,7.569163 L95.5572687,6.4185022 L94.0229075,6.4185022 L94.0229075,5.31409692 C94.0229075,4.62378855 94.3911894,4.42422907 95.0202643,4.42422907 C95.2502203,4.42422907 95.5268722,4.45462555 95.7568282,4.53171806 L95.7568282,3.39603524 C95.5110132,3.31982379 95.1581498,3.27356828 94.9127753,3.27356828 C93.4859031,3.27356828 92.7189427,3.94845815 92.7189427,5.23744493 L92.7189427,6.4185022 L91.3832599,6.4185022 L91.3832599,7.569163 L92.7189427,7.569163 L92.7189427,14.3506608" id="Fill-20" fill="#FFFFFF"></path>
            <path d="M50.6559471,83.3951542 C50.8819383,82.6674009 51.2215859,82.0317181 51.6735683,81.4876652 C52.1255507,80.9436123 52.6942731,80.5198238 53.3797357,80.215859 C54.0651982,79.9118943 54.8528634,79.7599119 55.7431718,79.7599119 C56.4215859,79.7599119 57.0682819,79.8660793 57.6828194,80.0779736 C58.2977974,80.2898678 58.8378855,80.5938326 59.3044053,80.9894273 C59.7704846,81.3854626 60.1418502,81.8726872 60.4171806,82.4519824 C60.692511,83.0317181 60.8303965,83.6814978 60.8303965,84.4017621 C60.8303965,85.1511013 60.7105727,85.7938326 60.4700441,86.330837 C60.2295154,86.8678414 59.9114537,87.3449339 59.5162996,87.761674 C59.1202643,88.1788546 58.6718062,88.5563877 58.1704846,88.8955947 C57.6682819,89.2348018 57.1634361,89.5704846 56.6546256,89.9026432 C56.1462555,90.2348018 55.6511013,90.59163 55.1709251,90.9726872 C54.6903084,91.354185 54.2665198,91.7995595 53.8991189,92.30837 L60.9154185,92.30837 L60.9154185,94.8942731 L50.0202643,94.8942731 C50.0202643,94.0325991 50.1436123,93.2832599 50.3911894,92.6475771 C50.638326,92.0114537 50.9740088,91.4427313 51.3977974,90.9414097 C51.8220264,90.4396476 52.3202643,89.976652 52.892511,89.5528634 C53.4647577,89.1286344 54.0687225,88.6982379 54.7048458,88.2599119 C55.0295154,88.0339207 55.3757709,87.8039648 55.7431718,87.5709251 C56.1105727,87.3378855 56.4462555,87.0801762 56.7502203,86.7973568 C57.0537445,86.514978 57.30837,86.1969163 57.5132159,85.8431718 C57.7180617,85.4903084 57.8207048,85.0876652 57.8207048,84.6352423 C57.8207048,83.9145374 57.6118943,83.3528634 57.1951542,82.9497797 C56.7784141,82.5471366 56.2444934,82.345815 55.5947137,82.345815 C55.1568282,82.345815 54.7859031,82.4484581 54.4823789,82.653304 C54.1779736,82.8581498 53.9343612,83.1268722 53.7511013,83.4590308 C53.5669604,83.7911894 53.4361233,84.1581498 53.3590308,84.560793 C53.2810573,84.9634361 53.2418502,85.3634361 53.2418502,85.7585903 L50.3594714,85.7585903 C50.330837,84.9105727 50.4299559,84.123348 50.6559471,83.3951542" id="Fill-21" fill="#D9222A"></path>
            <path d="M65.2471366,88.9484581 C65.2753304,89.5493392 65.3638767,90.1286344 65.5123348,90.6867841 C65.660793,91.2449339 65.8969163,91.7220264 66.2220264,92.1176211 C66.5471366,92.5132159 67.0136564,92.7110132 67.6211454,92.7110132 C68.2427313,92.7110132 68.7198238,92.5132159 69.0519824,92.1176211 C69.3837004,91.7220264 69.6242291,91.2449339 69.7726872,90.6867841 C69.9211454,90.1286344 70.0092511,89.5493392 70.0378855,88.9484581 C70.0660793,88.3484581 70.0801762,87.8361233 70.0801762,87.4118943 C70.0801762,87.1572687 70.0762115,86.8502203 70.0696035,86.4898678 C70.0625551,86.1295154 70.0339207,85.7585903 69.9845815,85.3770925 C69.9352423,84.9955947 69.8643172,84.6176211 69.7726872,84.2431718 C69.6806167,83.8687225 69.5431718,83.5330396 69.3594714,83.2361233 C69.1757709,82.9396476 68.9422907,82.6995595 68.6599119,82.5154185 C68.3770925,82.3321586 68.030837,82.2400881 67.6211454,82.2400881 C67.2114537,82.2400881 66.8687225,82.3321586 66.5933921,82.5154185 C66.3176211,82.6995595 66.09163,82.9396476 65.914978,83.2361233 C65.738326,83.5330396 65.6004405,83.8687225 65.5017621,84.2431718 C65.4026432,84.6176211 65.3321586,84.9955947 65.2898678,85.3770925 C65.2471366,85.7585903 65.222467,86.1295154 65.2154185,86.4898678 C65.20837,86.8502203 65.2048458,87.1572687 65.2048458,87.4118943 C65.2048458,87.8361233 65.2189427,88.3484581 65.2471366,88.9484581 L65.2471366,88.9484581 Z M62.6295154,83.776652 C62.9189427,82.7947137 63.3110132,82.0070485 63.8057269,81.4132159 C64.3004405,80.8198238 64.876652,80.3960352 65.5334802,80.1414097 C66.1907489,79.8872247 66.8863436,79.7599119 67.6211454,79.7599119 C68.3700441,79.7599119 69.0731278,79.8872247 69.7303965,80.1414097 C70.3872247,80.3960352 70.9665198,80.8198238 71.4682819,81.4132159 C71.9700441,82.0070485 72.3656388,82.7947137 72.6555066,83.776652 C72.9449339,84.7590308 73.0898678,85.9704846 73.0898678,87.4118943 C73.0898678,88.8955947 72.9449339,90.1356828 72.6555066,91.1317181 C72.3656388,92.1281938 71.9700441,92.9229075 71.4682819,93.5162996 C70.9665198,94.1101322 70.3872247,94.5339207 69.7303965,94.7881057 C69.0731278,95.0422907 68.3700441,95.1696035 67.6211454,95.1696035 C66.8863436,95.1696035 66.1907489,95.0422907 65.5334802,94.7881057 C64.876652,94.5339207 64.3004405,94.1101322 63.8057269,93.5162996 C63.3110132,92.9229075 62.9189427,92.1281938 62.6295154,91.1317181 C62.3396476,90.1356828 62.1951542,88.8955947 62.1951542,87.4118943 C62.1951542,85.9704846 62.3396476,84.7590308 62.6295154,83.776652 L62.6295154,83.776652 Z" id="Fill-22" fill="#D9222A"></path>
            <path d="M81.9859031,94.9229075 L78.954185,94.9229075 L78.954185,85.2295154 L75.1960352,85.2295154 L75.1960352,82.9449339 C77.3101322,82.9876652 79.2528634,82.261674 79.5731278,79.9770925 L81.9859031,79.9770925 L81.9859031,94.9229075" id="Fill-23" fill="#D9222A"></path>
            <path d="M89.1198238,87.5568282 C88.8101322,87.707489 88.5550661,87.9127753 88.3537445,88.1713656 C88.1524229,88.4299559 88.0013216,88.7286344 87.9013216,89.0665198 C87.8,89.4044053 87.7502203,89.7603524 87.7502203,90.1339207 C87.7502203,90.4788546 87.8039648,90.8207048 87.9118943,91.1585903 C88.0193833,91.4964758 88.1779736,91.7982379 88.3863436,92.0643172 C88.5947137,92.3303965 88.8497797,92.5422907 89.1519824,92.7004405 C89.454185,92.8590308 89.7986784,92.9378855 90.1872247,92.9378855 C90.560793,92.9378855 90.8881057,92.8590308 91.1687225,92.7004405 C91.4488987,92.5422907 91.6894273,92.3339207 91.8911894,92.0753304 C92.0920705,91.8162996 92.2431718,91.5215859 92.3440529,91.1907489 C92.4444934,90.8603524 92.4947137,90.522467 92.4947137,90.1770925 C92.4947137,89.8176211 92.4480176,89.469163 92.3546256,89.1312775 C92.260793,88.7933921 92.1211454,88.49163 91.9343612,88.2251101 C91.7471366,87.9594714 91.5061674,87.7436123 91.2114537,87.5784141 C90.9167401,87.4132159 90.5753304,87.3303965 90.1872247,87.3303965 C89.7845815,87.3303965 89.4286344,87.4057269 89.1198238,87.5568282 L89.1198238,87.5568282 Z M91.6969163,82.6286344 C91.3374449,82.2546256 90.89163,82.0678414 90.3594714,82.0678414 C89.8132159,82.0678414 89.3568282,82.2295154 88.9903084,82.5528634 C88.6237885,82.876652 88.3325991,83.2722467 88.1167401,83.739207 C87.9013216,84.2066079 87.7427313,84.7061674 87.6422907,85.238326 C87.5414097,85.7704846 87.4837004,86.2449339 87.4696035,86.661674 L87.5127753,86.7048458 C87.9295154,86.1008811 88.4185022,85.6696035 88.9792952,85.4110132 C89.5400881,85.1519824 90.1872247,85.022467 90.9202643,85.022467 C91.5674009,85.022467 92.2,85.1625551 92.8185022,85.4431718 C93.4365639,85.723348 93.961674,86.1008811 94.3929515,86.5753304 C94.7951542,87.0356828 95.0898678,87.5603524 95.2770925,88.1497797 C95.4638767,88.7396476 95.5577093,89.3361233 95.5577093,89.9396476 C95.5577093,90.7162996 95.4312775,91.4387665 95.1801762,92.107489 C94.9281938,92.7757709 94.5687225,93.3585903 94.1017621,93.8546256 C93.6343612,94.3506608 93.0770925,94.7387665 92.4303965,95.0189427 C91.7832599,95.2995595 91.0643172,95.4396476 90.2735683,95.4396476 C89.1374449,95.4396476 88.1955947,95.2132159 87.4480176,94.7599119 C86.7004405,94.307489 86.1035242,93.7140969 85.6581498,92.9806167 C85.2123348,92.2475771 84.9030837,91.4171806 84.730837,90.4898678 C84.5581498,89.5625551 84.4718062,88.6171806 84.4718062,87.6537445 C84.4718062,86.7193833 84.5797357,85.785022 84.7951542,84.8502203 C85.0110132,83.9154185 85.3559471,83.0709251 85.830837,82.315859 C86.3048458,81.560793 86.915859,80.9462555 87.6638767,80.4718062 C88.4110132,79.9973568 89.3246696,79.7599119 90.4030837,79.7599119 C91.0497797,79.7599119 91.6537445,79.8537445 92.2145374,80.0405286 C92.7753304,80.2273128 93.2713656,80.4969163 93.7026432,80.8493392 C94.1339207,81.2017621 94.4863436,81.6361233 94.7594714,82.154185 C95.0325991,82.6718062 95.2123348,83.2682819 95.2986784,83.9440529 L92.3872247,83.9440529 C92.2863436,83.4409692 92.0563877,83.0026432 91.6969163,82.6286344 L91.6969163,82.6286344 Z" id="Fill-24" fill="#D9222A"></path>
            <path d="M6.64008811,75.5770925 C5.4246696,75.5770925 5.00176211,74.5207048 5.00176211,73.4105727 C5.00176211,72.3008811 5.39823789,71.2044053 6.62687225,71.2044053 C7.82863436,71.2044053 8.26519824,72.3273128 8.26519824,73.4105727 C8.26519824,74.5207048 7.86872247,75.5770925 6.64008811,75.5770925 L6.64008811,75.5770925 Z M3.19207048,79.2101322 L5.06784141,79.2101322 L5.06784141,75.9603524 L5.09427313,75.9603524 C5.54317181,76.6334802 6.32290749,76.9907489 7.14185022,76.9907489 C9.13700441,76.9907489 10.1409692,75.2863436 10.1409692,73.4629956 C10.1409692,71.5215859 9.17665198,69.7907489 7.03656388,69.7907489 C6.1907489,69.7907489 5.45110132,70.1211454 5.00176211,70.8475771 L4.9753304,70.8475771 L4.9753304,69.9757709 L3.19207048,69.9757709 L3.19207048,79.2101322 L3.19207048,79.2101322 Z" id="Fill-25" fill="#FFFFFF"></path>
            <path d="M17.4057269,69.9757709 L15.5299559,69.9757709 L15.5299559,73.5555066 C15.5299559,74.9431718 15.0938326,75.5110132 14.076652,75.5110132 C13.2044053,75.5110132 12.8744493,74.9563877 12.8744493,73.8334802 L12.8744493,69.9757709 L10.9982379,69.9757709 L10.9982379,74.176652 C10.9982379,75.8678414 11.5,76.9907489 13.4951542,76.9907489 C14.2876652,76.9907489 15.1070485,76.6202643 15.5828194,75.8546256 L15.6220264,75.8546256 L15.6220264,76.8057269 L17.4057269,76.8057269 L17.4057269,69.9757709" id="Fill-26" fill="#FFFFFF"></path>
            <path d="M23.5726872,73.3973568 C23.5726872,74.5334802 23.0837004,75.5770925 21.9744493,75.5770925 C20.8647577,75.5770925 20.3757709,74.5334802 20.3757709,73.3973568 C20.3757709,72.2475771 20.8647577,71.2044053 21.9744493,71.2044053 C23.0837004,71.2044053 23.5726872,72.2475771 23.5726872,73.3973568 L23.5726872,73.3973568 Z M18.5660793,76.8057269 L20.3493392,76.8057269 L20.3493392,75.9339207 L20.3757709,75.9339207 C20.7854626,76.6872247 21.6176211,76.9907489 22.6215859,76.9907489 C23.9823789,76.9907489 25.4488987,75.8942731 25.4488987,73.384141 C25.4488987,70.8867841 23.9823789,69.7907489 22.6215859,69.7907489 C21.7762115,69.7907489 20.930837,70.107489 20.4682819,70.80837 L20.4418502,70.80837 L20.4418502,67.3731278 L18.5660793,67.3731278 L18.5660793,76.8057269 L18.5660793,76.8057269 Z" id="Fill-27" fill="#FFFFFF"></path>
            <path d="M26.4251101,76.8057269 L28.3008811,76.8057269 L28.3008811,67.3731278 L26.4251101,67.3731278 L26.4251101,76.8057269 Z" id="Fill-28" fill="#FFFFFF"></path>
            <path d="M29.5669604,68.9189427 L31.4431718,68.9189427 L31.4431718,67.3731278 L29.5669604,67.3731278 L29.5669604,68.9189427 Z M29.5669604,76.8057269 L31.4431718,76.8057269 L31.4431718,69.9757709 L29.5669604,69.9757709 L29.5669604,76.8057269 Z" id="Fill-29" fill="#FFFFFF"></path>
            <path d="M39.1431718,72.3797357 C39.0242291,70.6361233 37.5444934,69.7907489 35.9325991,69.7907489 C33.7132159,69.7907489 32.4449339,71.3629956 32.4449339,73.4898678 C32.4449339,75.5374449 33.8321586,76.9907489 35.8929515,76.9907489 C37.6898678,76.9907489 38.9449339,76 39.1828194,74.1903084 L37.3726872,74.1903084 C37.2537445,75.022467 36.7515419,75.5770925 35.8797357,75.5770925 C34.7039648,75.5770925 34.3207048,74.4013216 34.3207048,73.4237885 C34.3207048,72.4198238 34.7176211,71.2044053 35.9193833,71.2044053 C36.6991189,71.2044053 37.1876652,71.6136564 37.3066079,72.3797357 L39.1431718,72.3797357" id="Fill-30" fill="#FFFFFF"></path>
            <path d="M43.8546256,72.076652 C43.9207048,71.3361233 44.3828194,71.045815 45.0964758,71.045815 C45.7568282,71.045815 46.3118943,71.1647577 46.3118943,71.9704846 C46.3118943,72.7374449 45.2418502,72.6969163 44.092511,72.869163 C42.9299559,73.0273128 41.7674009,73.3973568 41.7674009,74.9431718 C41.7674009,76.3431718 42.7977974,76.9907489 44.092511,76.9907489 C44.9246696,76.9907489 45.7969163,76.7656388 46.3911894,76.1449339 C46.4044053,76.3700441 46.4572687,76.5942731 46.523348,76.8057269 L48.4255507,76.8057269 C48.2537445,76.5281938 48.1881057,75.907489 48.1881057,75.2863436 L48.1881057,71.7325991 C48.1881057,70.0947137 46.5497797,69.7907489 45.1889868,69.7907489 C43.6568282,69.7907489 42.0845815,70.3189427 41.9788546,72.076652 L43.8546256,72.076652 L43.8546256,72.076652 Z M46.3118943,74.1638767 C46.3118943,74.5731278 46.2590308,75.7356828 44.792511,75.7356828 C44.185022,75.7356828 43.6431718,75.5643172 43.6431718,74.8638767 C43.6431718,74.176652 44.1718062,73.9784141 44.7528634,73.8599119 C45.3343612,73.7537445 45.9947137,73.7409692 46.3118943,73.4629956 L46.3118943,74.1638767 L46.3118943,74.1638767 Z" id="Fill-31" fill="#FFFFFF"></path>
            <path d="M49.7859031,76.8057269 L51.6621145,76.8057269 L51.6621145,71.2312775 L52.9563877,71.2312775 L52.9563877,69.9757709 L51.6621145,69.9757709 L51.6621145,69.5660793 C51.6621145,68.9977974 51.8735683,68.7867841 52.3753304,68.7867841 C52.6132159,68.7867841 52.8378855,68.7995595 53.0621145,68.8264317 L53.0621145,67.4259912 C52.7449339,67.4127753 52.4013216,67.3731278 52.0713656,67.3731278 C50.5387665,67.3731278 49.7859031,68.2449339 49.7859031,69.4471366 L49.7859031,69.9757709 L48.6625551,69.9757709 L48.6625551,71.2312775 L49.7859031,71.2312775 L49.7859031,76.8057269" id="Fill-32" fill="#FFFFFF"></path>
            <path d="M53.6797357,76.8057269 L55.5555066,76.8057269 L55.5555066,71.2312775 L56.8502203,71.2312775 L56.8502203,69.9757709 L55.5555066,69.9757709 L55.5555066,69.5660793 C55.5555066,68.9977974 55.7665198,68.7867841 56.2682819,68.7867841 C56.5066079,68.7867841 56.730837,68.7995595 56.9559471,68.8264317 L56.9559471,67.4259912 C56.6387665,67.4127753 56.2951542,67.3731278 55.9647577,67.3731278 C54.4325991,67.3731278 53.6797357,68.2449339 53.6797357,69.4471366 L53.6797357,69.9757709 L52.5563877,69.9757709 L52.5563877,71.2312775 L53.6797357,71.2312775 L53.6797357,76.8057269" id="Fill-33" fill="#FFFFFF"></path>
            <path d="M59.1977974,72.076652 C59.2634361,71.3361233 59.7259912,71.045815 60.439207,71.045815 C61.1,71.045815 61.6555066,71.1647577 61.6555066,71.9704846 C61.6555066,72.7374449 60.5845815,72.6969163 59.4356828,72.869163 C58.2731278,73.0273128 57.1101322,73.3973568 57.1101322,74.9431718 C57.1101322,76.3431718 58.1405286,76.9907489 59.4356828,76.9907489 C60.2678414,76.9907489 61.1396476,76.7656388 61.7348018,76.1449339 C61.7475771,76.3700441 61.8004405,76.5942731 61.8665198,76.8057269 L63.7687225,76.8057269 C63.5969163,76.5281938 63.530837,75.907489 63.530837,75.2863436 L63.530837,71.7325991 C63.530837,70.0947137 61.892511,69.7907489 60.5321586,69.7907489 C59,69.7907489 57.4273128,70.3189427 57.322467,72.076652 L59.1977974,72.076652 L59.1977974,72.076652 Z M61.6555066,74.1638767 C61.6555066,74.5731278 61.6022026,75.7356828 60.1361233,75.7356828 C59.5281938,75.7356828 58.9859031,75.5643172 58.9859031,74.8638767 C58.9859031,74.176652 59.514978,73.9784141 60.0964758,73.8599119 C60.677533,73.7537445 61.3378855,73.7409692 61.6555066,73.4629956 L61.6555066,74.1638767 L61.6555066,74.1638767 Z" id="Fill-34" fill="#FFFFFF"></path>
            <path d="M64.7722467,68.9189427 L66.6484581,68.9189427 L66.6484581,67.3731278 L64.7722467,67.3731278 L64.7722467,68.9189427 Z M64.7722467,76.8057269 L66.6484581,76.8057269 L66.6484581,69.9757709 L64.7722467,69.9757709 L64.7722467,76.8057269 Z" id="Fill-35" fill="#FFFFFF"></path>
            <path d="M67.8612335,76.8057269 L69.7374449,76.8057269 L69.7374449,73.7277533 C69.7374449,72.5251101 70.2127753,71.5343612 71.5867841,71.5343612 C71.8114537,71.5343612 72.0889868,71.5612335 72.2603524,71.6004405 L72.2603524,69.8572687 C72.1422907,69.8171806 71.9828194,69.7907489 71.8515419,69.7907489 C70.9396476,69.7907489 70.014978,70.385022 69.6713656,71.2436123 L69.6449339,71.2436123 L69.6449339,69.9757709 L67.8612335,69.9757709 L67.8612335,76.8057269" id="Fill-36" fill="#FFFFFF"></path>
            <path d="M72.4039648,74.5863436 C72.4832599,76.3960352 74.0286344,76.9907489 75.6145374,76.9907489 C77.1740088,76.9907489 78.7321586,76.4096916 78.7321586,74.6127753 C78.7321586,73.3449339 77.6621145,72.9480176 76.5656388,72.6969163 C75.4951542,72.4462555 74.439207,72.3537445 74.439207,71.6797357 C74.439207,71.1251101 75.0594714,71.045815 75.4828194,71.045815 C76.1559471,71.045815 76.7114537,71.2436123 76.7634361,71.9704846 L78.5471366,71.9704846 C78.4026432,70.2929515 77.0281938,69.7907489 75.5352423,69.7907489 C74.0687225,69.7907489 72.5625551,70.2400881 72.5625551,71.9837004 C72.5625551,73.1859031 73.645815,73.5687225 74.7295154,73.8070485 C76.0770925,74.0977974 76.8559471,74.2955947 76.8559471,74.8638767 C76.8559471,75.5242291 76.169163,75.7356828 75.6277533,75.7356828 C74.8872247,75.7356828 74.2013216,75.4052863 74.1876652,74.5863436 L72.4039648,74.5863436" id="Fill-37" fill="#FFFFFF"></path>
            <path d="M8.2215859,83.6427313 C8.2215859,84.7845815 7.730837,85.8325991 6.6154185,85.8325991 C5.50132159,85.8325991 5.00969163,84.7845815 5.00969163,83.6427313 C5.00969163,82.4876652 5.50132159,81.4400881 6.6154185,81.4400881 C7.730837,81.4400881 8.2215859,82.4876652 8.2215859,83.6427313 L8.2215859,83.6427313 Z M3.19207048,87.0674009 L4.98325991,87.0674009 L4.98325991,86.19163 L5.00969163,86.19163 C5.4215859,86.9475771 6.25770925,87.2524229 7.2660793,87.2524229 C8.63348018,87.2524229 10.1061674,86.1511013 10.1061674,83.6299559 C10.1061674,81.1215859 8.63348018,80.0202643 7.2660793,80.0202643 C6.41674009,80.0202643 5.56740088,80.3387665 5.1030837,81.0422907 L5.07621145,81.0422907 L5.07621145,77.5911894 L3.19207048,77.5911894 L3.19207048,87.0674009 L3.19207048,87.0674009 Z" id="Fill-38" fill="#D9222A"></path>
            <path d="M11.0339207,87.0674009 L12.9185022,87.0674009 L12.9185022,83.9744493 C12.9185022,82.7669604 13.3964758,81.7718062 14.7762115,81.7718062 C15.0017621,81.7718062 15.2806167,81.7977974 15.453304,81.838326 L15.453304,80.0859031 C15.3339207,80.0462555 15.1744493,80.0202643 15.0418502,80.0202643 C14.1259912,80.0202643 13.1973568,80.6167401 12.8519824,81.4792952 L12.8255507,81.4792952 L12.8255507,80.2061674 L11.0339207,80.2061674 L11.0339207,87.0674009" id="Fill-39" fill="#D9222A"></path>
            <path d="M17.3625551,83.6427313 C17.3625551,82.5418502 17.7475771,81.4400881 19.0215859,81.4400881 C20.3088106,81.4400881 20.6942731,82.5418502 20.6942731,83.6427313 C20.6942731,84.7317181 20.3088106,85.8325991 19.0215859,85.8325991 C17.7475771,85.8325991 17.3625551,84.7317181 17.3625551,83.6427313 L17.3625551,83.6427313 Z M15.4779736,83.6427313 C15.4779736,85.8198238 16.8722467,87.2524229 19.0215859,87.2524229 C21.1845815,87.2524229 22.5779736,85.8198238 22.5779736,83.6427313 C22.5779736,81.4537445 21.1845815,80.0202643 19.0215859,80.0202643 C16.8722467,80.0202643 15.4779736,81.4537445 15.4779736,83.6427313 L15.4779736,83.6427313 Z" id="Fill-40" fill="#D9222A"></path>
            <path d="M23.5325991,87.0674009 L25.4171806,87.0674009 L25.4171806,83.4709251 C25.4171806,82.077533 25.8550661,81.5066079 26.8770925,81.5066079 C27.7528634,81.5066079 28.0845815,82.0638767 28.0845815,83.1911894 L28.0845815,87.0674009 L29.969163,87.0674009 L29.969163,82.8471366 C29.969163,81.1475771 29.4647577,80.0202643 27.4612335,80.0202643 C26.6647577,80.0202643 25.8418502,80.3911894 25.3643172,81.160793 L25.3242291,81.160793 L25.3242291,80.2061674 L23.5325991,80.2061674 L23.5325991,87.0674009" id="Fill-41" fill="#D9222A"></path>
            <path d="M30.7110132,87.0674009 L37.0145374,87.0674009 L37.0145374,85.646696 L33.1920705,85.646696 L36.761674,81.6255507 L36.761674,80.2061674 L30.9757709,80.2061674 L30.9757709,81.6255507 L34.2801762,81.6255507 L30.7110132,85.646696 L30.7110132,87.0674009" id="Fill-42" fill="#D9222A"></path>
            <path d="M39.3070485,82.9 C39.3339207,82.3696035 39.6792952,81.4400881 40.8731278,81.4400881 C41.7885463,81.4400881 42.2,81.9436123 42.3731278,82.9 L39.3070485,82.9 L39.3070485,82.9 Z M44.2572687,84.0942731 C44.3898678,81.984141 43.261674,80.0202643 40.9264317,80.0202643 C38.8422907,80.0202643 37.4229075,81.5863436 37.4229075,83.6427313 C37.4229075,85.7660793 38.7625551,87.2524229 40.9264317,87.2524229 C42.4788546,87.2524229 43.6066079,86.5625551 44.138326,84.9440529 L42.4788546,84.9440529 C42.3590308,85.3682819 41.7493392,85.8325991 40.9920705,85.8325991 C39.9440529,85.8325991 39.360793,85.2885463 39.3070485,84.0942731 L44.2572687,84.0942731 L44.2572687,84.0942731 Z" id="Fill-43" fill="#D9222A"></path>
        </g>
    </g>
</svg>