<?xml version="1.0" encoding="UTF-8"?>
<svg width="380px" height="86px" viewBox="0 0 380 86" version="1.1" xmlns="http://www.w3.org/2000/svg" xmlns:xlink="http://www.w3.org/1999/xlink">
    <!-- Generator: Sketch 41.2 (35397) - http://www.bohemiancoding.com/sketch -->
    <title>Path</title>
    <desc>Created with Sketch.</desc>
    <defs></defs>
    <g id="Page-1" stroke="none" stroke-width="1" fill="none" fill-rule="evenodd">
        <g id="Path">
            <path d="M29.183,1.596 C30.646,1.596 31.831,2.782 31.831,4.244 C31.831,5.707 30.646,6.892 29.183,6.892 C27.72,6.892 26.535,5.707 26.535,4.244 C26.535,2.782 27.72,1.596 29.183,1.596" id="Fill-3" fill="#1A1918"></path>
            <path d="M42.423,0.272 C44.617,0.272 46.395,2.05 46.395,4.244 C46.395,6.438 44.617,8.217 42.423,8.217 C40.229,8.217 38.451,6.438 38.451,4.244 C38.451,2.05 40.229,0.272 42.423,0.272" id="Fill-4" fill="#1A1918"></path>
            <path d="M55.664,1.596 C57.126,1.596 58.312,2.782 58.312,4.244 C58.312,5.707 57.126,6.892 55.664,6.892 C54.201,6.892 53.015,5.707 53.015,4.244 C53.015,2.782 54.201,1.596 55.664,1.596" id="Fill-5" fill="#1A1918"></path>
            <path d="M2.702,14.714 C4.165,14.714 5.35,15.9 5.35,17.363 C5.35,18.825 4.165,20.011 2.702,20.011 C1.24,20.011 0.054,18.825 0.054,17.363 C0.054,15.9 1.24,14.714 2.702,14.714" id="Fill-6" fill="#1A1918"></path>
            <path d="M15.943,13.39 C18.137,13.39 19.915,15.169 19.915,17.362 C19.915,19.556 18.137,21.335 15.943,21.335 C13.749,21.335 11.97,19.556 11.97,17.362 C11.97,15.169 13.749,13.39 15.943,13.39" id="Fill-7" fill="#1A1918"></path>
            <path d="M29.183,12.066 C32.108,12.066 34.479,14.437 34.479,17.362 C34.479,20.287 32.108,22.659 29.183,22.659 C26.258,22.659 23.887,20.287 23.887,17.362 C23.887,14.437 26.258,12.066 29.183,12.066" id="Fill-8" fill="#1A1918"></path>
            <path d="M42.423,12.066 C45.348,12.066 47.719,14.437 47.719,17.362 C47.719,20.287 45.348,22.659 42.423,22.659 C39.498,22.659 37.127,20.287 37.127,17.362 C37.127,14.437 39.498,12.066 42.423,12.066" id="Fill-9" fill="#1A1918"></path>
            <path d="M55.664,12.066 C58.589,12.066 60.96,14.437 60.96,17.362 C60.96,20.287 58.589,22.659 55.664,22.659 C52.738,22.659 50.367,20.287 50.367,17.362 C50.367,14.437 52.738,12.066 55.664,12.066" id="Fill-10" fill="#1A1918"></path>
            <path d="M68.904,13.39 C71.098,13.39 72.876,15.169 72.876,17.362 C72.876,19.556 71.098,21.335 68.904,21.335 C66.71,21.335 64.932,19.556 64.932,17.362 C64.932,15.169 66.71,13.39 68.904,13.39" id="Fill-11" fill="#1A1918"></path>
            <path d="M82.144,14.714 C83.607,14.714 84.792,15.9 84.792,17.363 C84.792,18.825 83.607,20.011 82.144,20.011 C80.682,20.011 79.496,18.825 79.496,17.363 C79.496,15.9 80.682,14.714 82.144,14.714" id="Fill-12" fill="#1A1918"></path>
            <path d="M2.702,27.832 C4.165,27.832 5.35,29.018 5.35,30.48 C5.35,31.943 4.165,33.129 2.702,33.129 C1.24,33.129 0.054,31.943 0.054,30.48 C0.054,29.018 1.24,27.832 2.702,27.832" id="Fill-13" fill="#1A1918"></path>
            <path d="M15.943,25.184 C18.868,25.184 21.239,27.556 21.239,30.48 C21.239,33.406 18.868,35.777 15.943,35.777 C13.017,35.777 10.647,33.406 10.647,30.48 C10.647,27.556 13.017,25.184 15.943,25.184" id="Fill-14" fill="#1A1918"></path>
            <path d="M29.183,25.184 C32.108,25.184 34.479,27.556 34.479,30.48 C34.479,33.406 32.108,35.777 29.183,35.777 C26.258,35.777 23.887,33.406 23.887,30.48 C23.887,27.556 26.258,25.184 29.183,25.184" id="Fill-15" fill="#1A1918"></path>
            <path d="M42.423,25.184 C45.348,25.184 47.719,27.556 47.719,30.48 C47.719,33.406 45.348,35.777 42.423,35.777 C39.498,35.777 37.127,33.406 37.127,30.48 C37.127,27.556 39.498,25.184 42.423,25.184" id="Fill-16" fill="#1A1918"></path>
            <path d="M55.664,25.184 C58.589,25.184 60.96,27.556 60.96,30.48 C60.96,33.406 58.589,35.777 55.664,35.777 C52.738,35.777 50.367,33.406 50.367,30.48 C50.367,27.556 52.738,25.184 55.664,25.184" id="Fill-17" fill="#1A1918"></path>
            <path d="M68.904,25.184 C71.829,25.184 74.2,27.556 74.2,30.48 C74.2,33.406 71.829,35.777 68.904,35.777 C65.979,35.777 63.608,33.406 63.608,30.48 C63.608,27.556 65.979,25.184 68.904,25.184" id="Fill-18" fill="#1A1918"></path>
            <path d="M82.144,26.508 C84.338,26.508 86.116,28.287 86.116,30.48 C86.116,32.674 84.338,34.453 82.144,34.453 C79.95,34.453 78.172,32.674 78.172,30.48 C78.172,28.287 79.95,26.508 82.144,26.508" id="Fill-19" fill="#1A1918"></path>
            <path d="M15.943,40.951 C17.405,40.951 18.591,42.136 18.591,43.599 C18.591,45.061 17.405,46.247 15.943,46.247 C14.48,46.247 13.294,45.061 13.294,43.599 C13.294,42.136 14.48,40.951 15.943,40.951" id="Fill-20" fill="#1A1918"></path>
            <path d="M29.183,39.626 C31.377,39.626 33.155,41.405 33.155,43.599 C33.155,45.793 31.377,47.571 29.183,47.571 C26.989,47.571 25.211,45.793 25.211,43.599 C25.211,41.405 26.989,39.626 29.183,39.626" id="Fill-21" fill="#1A1918"></path>
            <path d="M42.423,38.303 C45.348,38.303 47.719,40.674 47.719,43.599 C47.719,46.524 45.348,48.895 42.423,48.895 C39.498,48.895 37.127,46.524 37.127,43.599 C37.127,40.674 39.498,38.303 42.423,38.303" id="Fill-22" fill="#1A1918"></path>
            <path d="M55.664,38.303 C58.589,38.303 60.96,40.674 60.96,43.599 C60.96,46.524 58.589,48.895 55.664,48.895 C52.738,48.895 50.367,46.524 50.367,43.599 C50.367,40.674 52.738,38.303 55.664,38.303" id="Fill-23" fill="#1A1918"></path>
            <path d="M68.904,38.303 C71.829,38.303 74.2,40.674 74.2,43.599 C74.2,46.524 71.829,48.895 68.904,48.895 C65.979,48.895 63.608,46.524 63.608,43.599 C63.608,40.674 65.979,38.303 68.904,38.303" id="Fill-24" fill="#1A1918"></path>
            <path d="M82.144,40.951 C83.607,40.951 84.792,42.136 84.792,43.599 C84.792,45.061 83.607,46.247 82.144,46.247 C80.682,46.247 79.496,45.061 79.496,43.599 C79.496,42.136 80.682,40.951 82.144,40.951" id="Fill-25" fill="#1A1918"></path>
            <path d="M29.183,54.069 C30.646,54.069 31.831,55.254 31.831,56.717 C31.831,58.179 30.646,59.365 29.183,59.365 C27.72,59.365 26.535,58.179 26.535,56.717 C26.535,55.254 27.72,54.069 29.183,54.069" id="Fill-26" fill="#1A1918"></path>
            <path d="M42.423,51.421 C45.348,51.421 47.719,53.792 47.719,56.717 C47.719,59.642 45.348,62.013 42.423,62.013 C39.498,62.013 37.127,59.642 37.127,56.717 C37.127,53.792 39.498,51.421 42.423,51.421" id="Fill-27" fill="#1A1918"></path>
            <path d="M55.664,52.745 C57.857,52.745 59.636,54.523 59.636,56.717 C59.636,58.911 57.857,60.689 55.664,60.689 C53.47,60.689 51.691,58.911 51.691,56.717 C51.691,54.523 53.47,52.745 55.664,52.745" id="Fill-28" fill="#1A1918"></path>
            <path d="M42.423,65.863 C44.617,65.863 46.395,67.641 46.395,69.835 C46.395,72.029 44.617,73.807 42.423,73.807 C40.229,73.807 38.451,72.029 38.451,69.835 C38.451,67.641 40.229,65.863 42.423,65.863" id="Fill-29" fill="#1A1918"></path>
            <path d="M68.904,54.069 C70.366,54.069 71.552,55.254 71.552,56.717 C71.552,58.179 70.366,59.365 68.904,59.365 C67.441,59.365 66.256,58.179 66.256,56.717 C66.256,55.254 67.441,54.069 68.904,54.069" id="Fill-30" fill="#1A1918"></path>
            <path d="M55.664,67.187 C57.126,67.187 58.312,68.373 58.312,69.835 C58.312,71.298 57.126,72.483 55.664,72.483 C54.201,72.483 53.015,71.298 53.015,69.835 C53.015,68.373 54.201,67.187 55.664,67.187" id="Fill-31" fill="#1A1918"></path>
            <path d="M42.423,80.305 C43.886,80.305 45.071,81.491 45.071,82.953 C45.071,84.416 43.886,85.601 42.423,85.601 C40.961,85.601 39.775,84.416 39.775,82.953 C39.775,81.491 40.961,80.305 42.423,80.305" id="Fill-32" fill="#1A1918"></path>
            <path d="M21.203,44.417 C18.074,43.662 15.122,42.832 12.583,41.899 C8.789,40.506 5.849,38.844 4.457,36.799 C4.296,36.708 4.141,36.608 3.991,36.498 L3.992,36.496 C2.474,35.385 1.625,33.373 1.412,31.135 C1.21,29.024 1.565,26.668 2.452,24.711 C2.697,24.169 2.989,23.648 3.328,23.162 C5.638,16.738 7.025,16.079 8.411,15.421 C8.844,15.216 9.278,15.01 9.796,14.301 L9.806,14.286 C11.902,11.516 14.452,9.213 17.726,7.658 C20.898,6.15 24.724,5.362 29.443,5.553 C31.618,4.411 33.591,3.559 35.276,3.173 C36.987,2.782 38.452,2.852 39.605,3.537 C41.987,2.665 44.339,2.026 46.615,1.987 C48.964,1.947 51.181,2.538 53.189,4.138 C54.347,3.64 55.552,3.332 56.878,3.531 C58.319,3.748 59.801,4.556 61.354,6.363 C62.804,6.125 64.351,6.332 66.007,7.036 C67.799,7.799 69.727,9.155 71.807,11.175 C72.939,11.671 73.926,12.311 74.732,13.127 C75.516,13.921 76.121,14.869 76.512,15.997 C78.12,17.127 79.513,18.39 80.482,19.917 C81.525,21.559 82.071,23.468 81.868,25.777 C83.422,29.972 83.998,35.224 83.871,39.802 C83.745,44.331 82.86,48.305 81.488,50.178 C81.724,50.763 81.773,51.38 81.629,52.029 C81.431,52.916 80.858,53.796 79.891,54.666 L79.619,54.854 C79.086,55.125 78.602,55.555 78.166,56.138 C77.683,56.782 77.257,57.609 76.885,58.612 L76.416,59.214 C74.468,60.548 72.501,60.059 70.529,59.12 C70.776,60.255 70.865,61.29 70.811,62.219 C70.708,63.987 70.1,65.397 69.072,66.431 C68.053,67.454 66.657,68.069 64.965,68.257 C63.23,68.449 61.161,68.187 58.858,67.45 C57.508,67.618 56.147,67.282 54.775,66.401 C53.916,65.85 53.05,65.077 52.179,64.071 C51.853,65.647 51.815,67.477 51.778,69.284 C51.716,72.319 51.654,75.298 50.321,77.514 L49.808,78.366 L44.924,76.84 L42.164,61.357 C40.77,60.629 40.265,59.742 39.675,58.707 C39.604,58.582 39.531,58.454 39.45,58.318 C39.328,58.275 39.211,58.225 39.1,58.169 L39.031,58.134 C38.786,58.213 38.537,58.282 38.285,58.34 C37.817,58.448 37.332,58.522 36.838,58.573 L36.214,58.638 L35.787,58.178 C35.135,57.476 35.003,56.776 34.934,56.077 C34.003,55.434 32.904,55.062 31.796,54.688 C30.128,54.123 28.442,53.552 26.891,52.089 L26.876,52.074 C26.351,51.565 26.068,51.044 25.983,50.515 C25.624,50.46 25.272,50.33 24.925,50.14 C24.406,49.855 23.926,49.428 23.465,48.935 C22.128,48.824 21.229,48.26 20.76,47.557 C20.381,46.988 20.275,46.336 20.425,45.706 L20.42,45.705 C20.534,45.23 20.797,44.782 21.203,44.417 Z M13.451,39.531 C17.133,40.884 21.733,42.018 26.474,43.021 L28.095,43.364 L26.319,46.799 L25.272,46.403 C24.074,45.949 23.307,45.994 22.94,46.244 C23.104,46.365 23.453,46.448 24.025,46.438 L24.614,46.428 L24.997,46.872 C25.401,47.34 25.79,47.738 26.139,47.929 C26.263,47.998 26.375,48.022 26.464,47.971 L27.2,47.552 L29.405,49.285 L28.555,50.202 C28.572,50.215 28.593,50.232 28.617,50.254 C29.769,51.34 31.195,51.823 32.606,52.3 C34.092,52.803 35.565,53.301 36.946,54.448 L37.395,55.287 L37.424,55.573 C37.435,55.698 37.446,55.822 37.461,55.938 C37.549,55.921 37.636,55.903 37.723,55.883 C38.072,55.803 38.404,55.699 38.713,55.564 L39.489,55.225 L40.094,55.816 C40.138,55.859 40.185,55.895 40.234,55.919 C40.283,55.944 40.342,55.962 40.414,55.972 L40.991,56.046 L41.307,56.529 C41.506,56.832 41.69,57.155 41.866,57.464 C42.306,58.237 42.674,58.884 43.766,59.33 L44.414,59.595 L47.141,74.891 L48.575,75.339 C49.17,73.708 49.216,71.489 49.262,69.234 C49.323,66.269 49.385,63.25 50.627,60.866 L51.592,59.012 L52.782,60.733 C53.955,62.427 55.072,63.597 56.137,64.28 C57.055,64.87 57.921,65.074 58.737,64.921 L59.364,64.966 C61.428,65.657 63.233,65.911 64.689,65.75 C65.802,65.627 66.686,65.258 67.286,64.654 C67.877,64.06 68.23,63.2 68.295,62.081 C68.374,60.73 68.05,59.044 67.252,57.033 L69.018,55.459 C69.32,55.622 69.558,55.753 69.796,55.884 C71.597,56.878 73.398,57.87 74.695,57.299 C75.113,56.261 75.599,55.368 76.153,54.628 C76.787,53.781 77.508,53.131 78.317,52.688 C78.816,52.22 79.097,51.82 79.172,51.486 C79.221,51.264 79.141,51.028 78.939,50.78 L78.003,49.635 L79.289,48.896 C80.433,48.239 81.225,44.418 81.355,39.733 C81.477,35.335 80.92,30.306 79.41,26.393 L79.331,25.797 C79.539,23.985 79.142,22.515 78.351,21.268 C77.512,19.949 76.228,18.838 74.733,17.825 L74.225,17.129 C73.966,16.226 73.526,15.49 72.936,14.893 C72.324,14.273 71.539,13.786 70.616,13.403 L70.211,13.137 C68.299,11.254 66.576,10.017 65.02,9.355 C63.603,8.752 62.342,8.644 61.219,8.97 L60.397,9.21 L59.872,8.531 C58.591,6.872 57.494,6.176 56.504,6.028 C55.535,5.883 54.541,6.256 53.54,6.753 L52.762,7.139 L52.125,6.546 C50.487,5.021 48.635,4.469 46.655,4.503 C44.548,4.54 42.24,5.228 39.865,6.134 L39.144,6.409 L38.568,5.882 C38.026,5.387 37.083,5.346 35.838,5.63 C34.303,5.982 32.424,6.814 30.318,7.936 L29.666,8.084 C25.232,7.862 21.691,8.563 18.801,9.937 C15.937,11.298 13.685,13.339 11.819,15.806 C10.93,17.016 10.208,17.358 9.486,17.701 C8.566,18.137 7.646,18.574 5.652,24.159 L5.48,24.474 C5.207,24.848 4.963,25.277 4.751,25.746 C4.041,27.314 3.756,29.204 3.918,30.898 C4.067,32.463 4.582,33.813 5.476,34.466 L5.48,34.466 C5.595,34.549 5.718,34.622 5.85,34.681 L6.417,35.194 C7.371,36.82 9.966,38.251 13.451,39.531 L13.451,39.531 Z" id="Fill-33" fill="#FFFFFF"></path>
            <path d="M122.964,63.243 L122.964,48.799 L112.476,48.799 L112.476,63.243 L105.116,63.243 L105.116,28.743 L112.476,28.743 L112.476,42.083 L122.964,42.083 L122.964,28.743 L130.324,28.743 L130.324,63.243 L122.964,63.243 Z M141.488,54.181 C141.396,55.6836742 141.748663,56.7033306 142.546,57.24 C143.343337,57.7766693 144.646658,58.045 146.456,58.045 C148.204009,58.045 149.714327,57.8993348 150.987,57.608 C152.259673,57.3166652 153.309996,56.9563355 154.138,56.527 L154.138,62.277 C152.78866,62.8290028 151.355008,63.235332 149.837,63.496 C148.318992,63.756668 146.870007,63.887 145.49,63.887 C141.656647,63.887 138.820009,62.9056765 136.98,60.943 C135.139991,58.9803235 134.22,55.9136875 134.22,51.743 C134.22,47.5723125 135.116991,44.5056765 136.911,42.543 C138.705009,40.5803235 141.395982,39.599 144.984,39.599 C147.437346,39.599 149.36166,40.0206624 150.757,40.864 C152.15234,41.7073375 153.18733,42.8113265 153.862,44.176 C154.53667,45.5406735 154.92,47.0969913 155.012,48.845 C155.104,50.5930087 155.073334,52.3716576 154.92,54.181 L141.488,54.181 Z M145.076,45.119 C143.81866,45.119 142.906336,45.5099961 142.339,46.292 C141.771664,47.0740039 141.488,48.2009926 141.488,49.673 L148.02,49.673 C148.234668,48.4156604 148.150335,47.3423378 147.767,46.453 C147.383665,45.5636622 146.486674,45.119 145.076,45.119 Z M171.052,47.143 C171.052,46.6216641 170.845002,46.2230014 170.431,45.947 C170.016998,45.6709986 169.319338,45.533 168.338,45.533 C166.865993,45.533 165.371008,45.7169982 163.853,46.085 C162.334992,46.4530018 161.070005,46.8516645 160.058,47.281 L160.058,41.117 C160.456669,40.9329991 160.954997,40.7566675 161.553,40.588 C162.151003,40.4193325 162.817996,40.2583341 163.554,40.105 C164.290004,39.9516659 165.064329,39.8290005 165.877,39.737 C166.689671,39.6449995 167.509996,39.599 168.338,39.599 C170.423344,39.599 172.102327,39.8136645 173.375,40.243 C174.647673,40.6723355 175.64433,41.2626629 176.365,42.014 C177.08567,42.7653371 177.568665,43.6776613 177.814,44.751 C178.059335,45.8243387 178.182,47.0049936 178.182,48.293 L178.182,63.243 L173.766,63.243 L172.754,61.495 C171.925996,62.2310037 170.937006,62.8136645 169.787,63.243 C168.636994,63.6723355 167.372007,63.887 165.992,63.887 C164.519993,63.887 163.285672,63.6646689 162.289,63.22 C161.292328,62.7753311 160.487336,62.2080034 159.874,61.518 C159.260664,60.8279965 158.823668,60.0460044 158.563,59.172 C158.302332,58.2979956 158.172,57.431671 158.172,56.573 C158.172,55.0089922 158.432664,53.759338 158.954,52.824 C159.475336,51.888662 160.149996,51.1526693 160.978,50.616 C161.806004,50.0793306 162.733662,49.7036677 163.761,49.489 C164.788338,49.2743323 165.823328,49.1210005 166.866,49.029 L171.052,48.615 L171.052,47.143 Z M167.97,53.031 C166.927328,53.1843341 166.183669,53.5139975 165.739,54.02 C165.294331,54.5260025 165.072,55.2236622 165.072,56.113 C165.072,56.971671 165.317331,57.6386643 165.808,58.114 C166.298669,58.5893357 166.942663,58.827 167.74,58.827 C168.41467,58.827 169.04333,58.7350009 169.626,58.551 C170.20867,58.3669991 170.683998,58.0910018 171.052,57.723 L171.052,52.617 L167.97,53.031 Z M192.152,63.427 C191.967999,63.4576668 191.753335,63.4883332 191.508,63.519 C191.323999,63.5496668 191.101668,63.5726666 190.841,63.588 C190.580332,63.6033334 190.312001,63.611 190.036,63.611 C189.054662,63.611 188.134671,63.480668 187.276,63.22 C186.417329,62.959332 185.666003,62.5683359 185.022,62.047 C184.377997,61.5256641 183.872002,60.8510041 183.504,60.023 C183.135998,59.1949959 182.952,58.2290055 182.952,57.125 L182.952,28.743 L190.266,28.743 L190.266,56.113 C190.266,56.5423355 190.396332,56.8796654 190.657,57.125 C190.917668,57.3703346 191.415996,57.493 192.152,57.493 L192.152,63.427 Z M210.538,63.427 C210.016664,63.5803341 209.388004,63.6953329 208.652,63.772 C207.915996,63.848667 207.287336,63.887 206.766,63.887 C203.545984,63.887 201.26134,63.2046735 199.912,61.84 C198.56266,60.4753265 197.888,58.4436802 197.888,55.745 L197.888,46.361 L194.162,46.361 L194.162,41.485 L197.888,40.473 L197.888,35.735 L205.248,33.757 L205.248,40.243 L210.952,40.243 L210.952,46.361 L205.248,46.361 L205.248,55.147 C205.248,56.0363378 205.462665,56.7263309 205.892,57.217 C206.321335,57.7076691 207.118661,57.953 208.284,57.953 C208.774669,57.953 209.226998,57.9223336 209.641,57.861 C210.055002,57.7996664 210.353999,57.7383336 210.538,57.677 L210.538,63.427 Z M221.932,28.743 L221.932,41.071 C222.729337,40.6416645 223.603329,40.2890014 224.554,40.013 C225.504671,39.7369986 226.623994,39.599 227.912,39.599 C229.476008,39.599 230.771662,39.7906647 231.799,40.174 C232.826338,40.5573352 233.65433,41.0939965 234.283,41.784 C234.91167,42.4740034 235.348665,43.2943286 235.594,44.245 C235.839335,45.1956714 235.962,46.2229945 235.962,47.327 L235.962,63.243 L228.602,63.243 L228.602,48.431 C228.602,47.572329 228.418002,46.8823359 228.05,46.361 C227.681998,45.8396641 227.007338,45.579 226.026,45.579 C225.136662,45.579 224.316337,45.7169986 223.565,45.993 C222.813663,46.2690014 222.269335,46.5296654 221.932,46.775 L221.932,63.243 L214.572,63.243 L214.572,28.743 L221.932,28.743 Z M240.548,63.243 L240.548,28.743 L251.726,28.743 C254.639348,28.743 257.046657,29.1799956 258.948,30.054 C260.849343,30.9280044 262.351994,32.1393256 263.456,33.688 C264.560006,35.2366744 265.334331,37.0613228 265.779,39.162 C266.223669,41.2626772 266.446,43.5396544 266.446,45.993 C266.446,48.4463456 266.223669,50.7233228 265.779,52.824 C265.334331,54.9246772 264.560006,56.7493256 263.456,58.298 C262.351994,59.8466744 260.849343,61.0579956 258.948,61.932 C257.046657,62.8060044 254.639348,63.243 251.726,63.243 L240.548,63.243 Z M247.908,56.527 L251.864,56.527 C253.21334,56.527 254.332662,56.2893357 255.222,55.814 C256.111338,55.3386643 256.824331,54.6563378 257.361,53.767 C257.897669,52.8776622 258.273332,51.7736733 258.488,50.455 C258.702668,49.1363267 258.81,47.6490083 258.81,45.993 C258.81,44.3369917 258.702668,42.8573398 258.488,41.554 C258.273332,40.2506601 257.897669,39.1466712 257.361,38.242 C256.824331,37.3373288 256.111338,36.6473357 255.222,36.172 C254.332662,35.6966643 253.21334,35.459 251.864,35.459 L247.908,35.459 L247.908,56.527 Z M282.67,47.143 C282.67,46.6216641 282.463002,46.2230014 282.049,45.947 C281.634998,45.6709986 280.937338,45.533 279.956,45.533 C278.483993,45.533 276.989008,45.7169982 275.471,46.085 C273.952992,46.4530018 272.688005,46.8516645 271.676,47.281 L271.676,41.117 C272.074669,40.9329991 272.572997,40.7566675 273.171,40.588 C273.769003,40.4193325 274.435996,40.2583341 275.172,40.105 C275.908004,39.9516659 276.682329,39.8290005 277.495,39.737 C278.307671,39.6449995 279.127996,39.599 279.956,39.599 C282.041344,39.599 283.720327,39.8136645 284.993,40.243 C286.265673,40.6723355 287.26233,41.2626629 287.983,42.014 C288.70367,42.7653371 289.186665,43.6776613 289.432,44.751 C289.677335,45.8243387 289.8,47.0049936 289.8,48.293 L289.8,63.243 L285.384,63.243 L284.372,61.495 C283.543996,62.2310037 282.555006,62.8136645 281.405,63.243 C280.254994,63.6723355 278.990007,63.887 277.61,63.887 C276.137993,63.887 274.903672,63.6646689 273.907,63.22 C272.910328,62.7753311 272.105336,62.2080034 271.492,61.518 C270.878664,60.8279965 270.441668,60.0460044 270.181,59.172 C269.920332,58.2979956 269.79,57.431671 269.79,56.573 C269.79,55.0089922 270.050664,53.759338 270.572,52.824 C271.093336,51.888662 271.767996,51.1526693 272.596,50.616 C273.424004,50.0793306 274.351662,49.7036677 275.379,49.489 C276.406338,49.2743323 277.441328,49.1210005 278.484,49.029 L282.67,48.615 L282.67,47.143 Z M279.588,53.031 C278.545328,53.1843341 277.801669,53.5139975 277.357,54.02 C276.912331,54.5260025 276.69,55.2236622 276.69,56.113 C276.69,56.971671 276.935331,57.6386643 277.426,58.114 C277.916669,58.5893357 278.560663,58.827 279.358,58.827 C280.03267,58.827 280.66133,58.7350009 281.244,58.551 C281.82667,58.3669991 282.301998,58.0910018 282.67,57.723 L282.67,52.617 L279.588,53.031 Z M308.876,63.427 C308.354664,63.5803341 307.726004,63.6953329 306.99,63.772 C306.253996,63.848667 305.625336,63.887 305.104,63.887 C301.883984,63.887 299.59934,63.2046735 298.25,61.84 C296.90066,60.4753265 296.226,58.4436802 296.226,55.745 L296.226,46.361 L292.5,46.361 L292.5,41.485 L296.226,40.473 L296.226,35.735 L303.586,33.757 L303.586,40.243 L309.29,40.243 L309.29,46.361 L303.586,46.361 L303.586,55.147 C303.586,56.0363378 303.800665,56.7263309 304.23,57.217 C304.659335,57.7076691 305.456661,57.953 306.622,57.953 C307.112669,57.953 307.564998,57.9223336 307.979,57.861 C308.393002,57.7996664 308.691999,57.7383336 308.876,57.677 L308.876,63.427 Z M324.778,47.143 C324.778,46.6216641 324.571002,46.2230014 324.157,45.947 C323.742998,45.6709986 323.045338,45.533 322.064,45.533 C320.591993,45.533 319.097008,45.7169982 317.579,46.085 C316.060992,46.4530018 314.796005,46.8516645 313.784,47.281 L313.784,41.117 C314.182669,40.9329991 314.680997,40.7566675 315.279,40.588 C315.877003,40.4193325 316.543996,40.2583341 317.28,40.105 C318.016004,39.9516659 318.790329,39.8290005 319.603,39.737 C320.415671,39.6449995 321.235996,39.599 322.064,39.599 C324.149344,39.599 325.828327,39.8136645 327.101,40.243 C328.373673,40.6723355 329.37033,41.2626629 330.091,42.014 C330.81167,42.7653371 331.294665,43.6776613 331.54,44.751 C331.785335,45.8243387 331.908,47.0049936 331.908,48.293 L331.908,63.243 L327.492,63.243 L326.48,61.495 C325.651996,62.2310037 324.663006,62.8136645 323.513,63.243 C322.362994,63.6723355 321.098007,63.887 319.718,63.887 C318.245993,63.887 317.011672,63.6646689 316.015,63.22 C315.018328,62.7753311 314.213336,62.2080034 313.6,61.518 C312.986664,60.8279965 312.549668,60.0460044 312.289,59.172 C312.028332,58.2979956 311.898,57.431671 311.898,56.573 C311.898,55.0089922 312.158664,53.759338 312.68,52.824 C313.201336,51.888662 313.875996,51.1526693 314.704,50.616 C315.532004,50.0793306 316.459662,49.7036677 317.487,49.489 C318.514338,49.2743323 319.549328,49.1210005 320.592,49.029 L324.778,48.615 L324.778,47.143 Z M321.696,53.031 C320.653328,53.1843341 319.909669,53.5139975 319.465,54.02 C319.020331,54.5260025 318.798,55.2236622 318.798,56.113 C318.798,56.971671 319.043331,57.6386643 319.534,58.114 C320.024669,58.5893357 320.668663,58.827 321.466,58.827 C322.14067,58.827 322.76933,58.7350009 323.352,58.551 C323.93467,58.3669991 324.409998,58.0910018 324.778,57.723 L324.778,52.617 L321.696,53.031 Z" id="HealthData" fill="#FFFFFF"></path>
            <path d="M336.15,60.274 C336.15,59.0473272 336.563996,58.0123375 337.392,57.169 C338.220004,56.3256624 339.26266,55.904 340.52,55.904 C341.746673,55.904 342.781662,56.3256624 343.625,57.169 C344.468338,58.0123375 344.89,59.0473272 344.89,60.274 C344.89,61.5313396 344.468338,62.5739959 343.625,63.402 C342.781662,64.2300041 341.746673,64.644 340.52,64.644 C339.26266,64.644 338.220004,64.2300041 337.392,63.402 C336.563996,62.5739959 336.15,61.5313396 336.15,60.274 Z M359.978,47.9 C359.978,47.3786641 359.771002,46.9800014 359.357,46.704 C358.942998,46.4279986 358.245338,46.29 357.264,46.29 C355.791993,46.29 354.297008,46.4739982 352.779,46.842 C351.260992,47.2100018 349.996005,47.6086645 348.984,48.038 L348.984,41.874 C349.382669,41.6899991 349.880997,41.5136675 350.479,41.345 C351.077003,41.1763325 351.743996,41.0153341 352.48,40.862 C353.216004,40.7086659 353.990329,40.5860005 354.803,40.494 C355.615671,40.4019995 356.435996,40.356 357.264,40.356 C359.349344,40.356 361.028327,40.5706645 362.301,41 C363.573673,41.4293355 364.57033,42.0196629 365.291,42.771 C366.01167,43.5223371 366.494665,44.4346613 366.74,45.508 C366.985335,46.5813387 367.108,47.7619936 367.108,49.05 L367.108,64 L362.692,64 L361.68,62.252 C360.851996,62.9880037 359.863006,63.5706645 358.713,64 C357.562994,64.4293355 356.298007,64.644 354.918,64.644 C353.445993,64.644 352.211672,64.4216689 351.215,63.977 C350.218328,63.5323311 349.413336,62.9650035 348.8,62.275 C348.186664,61.5849965 347.749668,60.8030044 347.489,59.929 C347.228332,59.0549956 347.098,58.188671 347.098,57.33 C347.098,55.7659922 347.358664,54.516338 347.88,53.581 C348.401336,52.645662 349.075996,51.9096694 349.904,51.373 C350.732004,50.8363307 351.659662,50.4606677 352.687,50.246 C353.714338,50.0313323 354.749328,49.8780005 355.792,49.786 L359.978,49.372 L359.978,47.9 Z M356.896,53.788 C355.853328,53.9413341 355.109669,54.2709975 354.665,54.777 C354.220331,55.2830025 353.998,55.9806622 353.998,56.87 C353.998,57.728671 354.243331,58.3956643 354.734,58.871 C355.224669,59.3463357 355.868663,59.584 356.666,59.584 C357.34067,59.584 357.96933,59.4920009 358.552,59.308 C359.13467,59.1239991 359.609998,58.8480018 359.978,58.48 L359.978,53.374 L356.896,53.788 Z M379.818,64.184 C379.633999,64.2146668 379.419335,64.2453332 379.174,64.276 C378.989999,64.3066668 378.767668,64.3296666 378.507,64.345 C378.246332,64.3603334 377.978001,64.368 377.702,64.368 C376.720662,64.368 375.800671,64.237668 374.942,63.977 C374.083329,63.716332 373.332003,63.3253359 372.688,62.804 C372.043997,62.2826641 371.538002,61.6080041 371.17,60.78 C370.801998,59.9519959 370.618,58.9860055 370.618,57.882 L370.618,41 L377.932,41 L377.932,56.87 C377.932,57.2993355 378.062332,57.6366654 378.323,57.882 C378.583668,58.1273346 379.081996,58.25 379.818,58.25 L379.818,64.184 Z M369.928,34.33 C369.928,33.1033272 370.341996,32.0683376 371.17,31.225 C371.998004,30.3816625 373.04066,29.96 374.298,29.96 C375.524673,29.96 376.559662,30.3816625 377.403,31.225 C378.246338,32.0683376 378.668,33.1033272 378.668,34.33 C378.668,35.5873396 378.246338,36.6299959 377.403,37.458 C376.559662,38.2860041 375.524673,38.7 374.298,38.7 C373.04066,38.7 371.998004,38.2860041 371.17,37.458 C370.341996,36.6299959 369.928,35.5873396 369.928,34.33 Z" id=".ai" fill="#1A1918"></path>
        </g>
    </g>
</svg>