<?xml version="1.0" encoding="UTF-8"?>
<svg width="1680px" height="295px" viewBox="0 0 1680 295" version="1.1" xmlns="http://www.w3.org/2000/svg" xmlns:xlink="http://www.w3.org/1999/xlink">
    <!-- Generator: Sketch 51.1 (57501) - http://www.bohemiancoding.com/sketch -->
    <title>mycontrol</title>
    <desc>Created with Sketch.</desc>
    <defs></defs>
    <g id="mycontrol" stroke="none" stroke-width="1" fill="none" fill-rule="evenodd">
        <g id="logo" transform="translate(40.000000, 14.000000)" fill="#FFFFFF" fill-rule="nonzero">
            <path d="M145.356849,247.598585 C127.094349,233.337057 104.766346,212.235159 91.5373273,196.682995 C59.9167453,159.641742 37.1370199,120.083748 19.5843703,71.8784938 C12.4213405,52.131763 3.5159521,20.188522 2.0962525,9.2826478 C1.7735935,6.636844 1.3218709,3.6038494 1.0637437,2.6358724 L0.6765529,0.828982 L1.7735935,2.3777452 C2.4189115,3.1521268 4.4193973,7.4112256 6.2908195,11.7348562 C29.0060131,64.1346778 55.7221783,109.113342 88.1171419,149.445717 C94.4412583,157.318597 96.8934667,159.899869 97.9905073,159.899869 C98.7648889,159.899869 104.121028,158.738297 109.864359,157.254065 C166.329684,143.121601 226.989576,106.080348 276.227339,55.7455438 C281.970669,49.87315 287.004149,45.033265 287.39134,45.033265 C287.713999,45.033265 288.488381,46.1303056 289.069167,47.4209416 C289.843549,49.227832 290.23074,52.5834856 290.424335,60.2627698 L290.682462,70.6523896 L282.099733,78.4607374 C243.057994,113.6951 200.660601,141.121115 160.844481,156.866874 C145.744039,162.8038 126.900754,168.353535 114.252521,170.418552 C111.735781,170.870275 109.541699,171.515593 109.412636,171.902784 C109.283572,172.289975 109.735295,173.257952 110.380613,174.096865 L111.606717,175.581096 L117.995365,174.419524 C146.84108,169.25698 178.203535,157.512192 207.952695,140.733924 C227.312235,129.763518 242.348144,119.567494 265.579592,101.49859 C267.709141,99.885295 269.709627,98.7882544 270.032286,98.9818498 C271.000263,99.6271678 270.225882,113.566037 268.935246,118.276858 C268.354459,120.406407 267.257419,122.794084 266.483037,123.632997 C264.482551,125.762547 240.992976,141.314711 230.216166,147.638827 C211.566475,158.544701 186.463605,170.031362 167.620319,176.355478 C157.746954,179.6466 140.000709,184.034762 130.901725,185.454462 L123.222441,186.616034 L125.739181,188.810115 C128.514049,191.197792 127.933263,191.197792 141.48494,188.810115 C170.395187,183.776635 202.854682,171.580125 234.991519,153.640284 C244.800352,148.155081 245.44567,148.155081 244.284098,153.640284 C243.251589,158.544701 239.960467,166.804772 237.508259,170.547616 C235.05605,174.225929 232.216651,175.839224 216.019169,182.550531 C195.756184,190.939665 171.169568,198.102695 151.100179,201.458348 C146.13123,202.361793 141.936663,203.136175 141.8076,203.265239 C141.678536,203.394302 142.90464,204.620406 144.582467,205.975574 L147.615461,208.427783 L152.455346,207.97606 C165.555302,206.814488 187.431582,202.168198 204.080787,196.941122 C213.696025,193.972659 214.470406,194.295318 210.856626,199.71599 C209.501458,201.781007 206.597527,205.781979 204.403446,208.621378 L200.337942,213.848454 L187.883305,215.913471 C180.978402,217.075044 172.524736,218.301148 169.104551,218.752871 C165.619834,219.140061 162.97403,219.656316 163.103094,219.914443 C163.296689,220.17257 167.168597,222.947438 171.814887,226.109496 C177.041962,229.658745 180.204021,232.175485 180.204021,232.885335 C180.204021,234.563162 175.17054,240.306492 170.007996,244.371995 C165.039048,248.308435 155.940064,253.470979 154.00411,253.470979 C153.29426,253.406447 149.422352,250.825175 145.356849,247.598585 Z" id="path6"></path>
        </g>
        <path d="M426.34,146.22 C427.953341,138.88663 431.069977,132.910023 435.69,128.29 C440.310023,123.669977 446.28663,121.36 453.62,121.36 C457.58002,121.36 460.989986,122.05666 463.85,123.45 C466.710014,124.84334 469.12999,126.676655 471.11,128.95 C473.09001,131.223345 474.629995,133.899985 475.73,136.98 C476.830005,140.060015 477.67333,143.213317 478.26,146.44 L478.7,146.44 C479.580004,143.213317 480.826659,140.096682 482.44,137.09 C484.053341,134.083318 486.069988,131.406678 488.49,129.06 C490.910012,126.713322 493.696651,124.84334 496.85,123.45 C500.003349,122.05666 503.55998,121.36 507.52,121.36 C513.386696,121.36 518.079982,122.606654 521.6,125.1 C525.120018,127.593346 527.86999,130.856646 529.85,134.89 C531.83001,138.923353 533.149997,143.469975 533.81,148.53 C534.470003,153.590025 534.8,158.613308 534.8,163.6 L534.8,234 L520.06,234 L520.06,163.6 C520.06,160.22665 519.876669,156.816684 519.51,153.37 C519.143331,149.923316 518.373339,146.770014 517.2,143.91 C516.026661,141.049986 514.303345,138.703342 512.03,136.87 C509.756655,135.036657 506.713352,134.12 502.9,134.12 C499.379982,134.12 496.190014,135.10999 493.33,137.09 C490.469986,139.07001 488.086676,141.783316 486.18,145.23 C484.273324,148.676684 482.806672,152.636644 481.78,157.11 C480.753328,161.583356 480.24,166.239976 480.24,171.08 L480.24,234 L465.72,234 L465.72,163.6 C465.72,160.22665 465.536669,156.780018 465.17,153.26 C464.803332,149.739982 464.070005,146.550014 462.97,143.69 C461.869995,140.829986 460.183345,138.520009 457.91,136.76 C455.636655,134.999991 452.666685,134.12 449,134.12 C445.333315,134.12 442.106681,135.10999 439.32,137.09 C436.533319,139.07001 434.15001,141.783316 432.17,145.23 C430.18999,148.676684 428.686672,152.636644 427.66,157.11 C426.633328,161.583356 426.12,166.239976 426.12,171.08 L426.12,234 L411.82,234 L411.82,152.38 C411.82,150.033322 411.783334,147.503347 411.71,144.79 C411.636666,142.076653 411.563334,139.436679 411.49,136.87 C411.416666,134.30332 411.343334,131.956677 411.27,129.83 C411.196666,127.703323 411.086667,126.053339 410.94,124.88 L425.02,124.88 C425.313335,127.666681 425.533333,131.03998 425.68,135 C425.826667,138.96002 425.9,142.699982 425.9,146.22 L426.34,146.22 Z M595.3,257.1 C594.126661,261.793357 592.770008,265.973315 591.23,269.64 C589.689992,273.306685 587.820011,276.386654 585.62,278.88 C583.419989,281.373346 580.890014,283.31666 578.03,284.71 C575.169986,286.10334 571.76002,286.8 567.8,286.8 C565.746656,286.8 563.693344,286.616669 561.64,286.25 C559.586656,285.883331 557.900007,285.480002 556.58,285.04 L558.56,272.06 C559.586672,272.353335 560.833326,272.646665 562.3,272.94 C563.766674,273.233335 565.233326,273.38 566.7,273.38 C570.953355,273.38 574.143323,271.913348 576.27,268.98 C578.396677,266.046652 580.119993,262.013359 581.44,256.88 L586.28,237.96 L554.6,124.88 L570,124.88 L593.54,217.06 L593.98,217.06 L614.88,124.88 L629.62,124.88 L595.3,257.1 Z M734.78,216.4 C730.673313,223.293368 725.466698,228.573315 719.16,232.24 C712.853302,235.906685 705.74004,237.74 697.82,237.74 C689.313291,237.74 681.760033,235.650021 675.16,231.47 C668.559967,227.289979 662.986689,221.570036 658.44,214.31 C653.893311,207.049964 650.410012,198.433383 647.99,188.46 C645.569988,178.486617 644.36,167.706725 644.36,156.12 C644.36,144.386608 645.569988,133.533383 647.99,123.56 C650.410012,113.586617 653.929977,104.970036 658.55,97.71 C663.170023,90.4499637 668.779967,84.7666872 675.38,80.66 C681.980033,76.5533128 689.459958,74.5 697.82,74.5 C705.15337,74.5 712.009968,76.0399846 718.39,79.12 C724.770032,82.2000154 730.086645,87.039967 734.34,93.64 L724.44,103.76 C721.06665,98.626641 717.143356,94.8133458 712.67,92.32 C708.196644,89.8266542 703.466692,88.58 698.48,88.58 C692.026634,88.58 686.41669,90.3399824 681.65,93.86 C676.883309,97.3800176 672.923349,102.219969 669.77,108.38 C666.616651,114.540031 664.270008,121.726626 662.73,129.94 C661.189992,138.153374 660.42,146.879954 660.42,156.12 C660.42,165.360046 661.226659,174.049959 662.84,182.19 C664.453341,190.330041 666.836651,197.479969 669.99,203.64 C673.143349,209.800031 677.10331,214.676649 681.87,218.27 C686.63669,221.863351 692.246634,223.66 698.7,223.66 C704.273361,223.66 709.333311,222.083349 713.88,218.93 C718.426689,215.776651 722.166652,211.633359 725.1,206.5 L734.78,216.4 Z M822.56,179.66 C822.56,188.313377 821.680009,196.159965 819.92,203.2 C818.159991,210.240035 815.666683,216.326641 812.44,221.46 C809.213317,226.593359 805.216691,230.553319 800.45,233.34 C795.683309,236.126681 790.366696,237.52 784.5,237.52 C778.633304,237.52 773.353357,236.126681 768.66,233.34 C763.966643,230.553319 759.970016,226.593359 756.67,221.46 C753.369983,216.326641 750.840009,210.240035 749.08,203.2 C747.319991,196.159965 746.44,188.313377 746.44,179.66 C746.44,171.006623 747.283325,163.086703 748.97,155.9 C750.656675,148.713297 753.113317,142.553359 756.34,137.42 C759.566683,132.286641 763.56331,128.326681 768.33,125.54 C773.096691,122.753319 778.486637,121.36 784.5,121.36 C790.366696,121.36 795.683309,122.753319 800.45,125.54 C805.216691,128.326681 809.213317,132.286641 812.44,137.42 C815.666683,142.553359 818.159991,148.713297 819.92,155.9 C821.680009,163.086703 822.56,171.006623 822.56,179.66 Z M807.6,179.44 C807.6,172.986634 807.123338,166.973361 806.17,161.4 C805.216662,155.826639 803.786676,151.023354 801.88,146.99 C799.973324,142.956647 797.590014,139.766678 794.73,137.42 C791.869986,135.073322 788.46002,133.9 784.5,133.9 C780.53998,133.9 777.093348,135.073322 774.16,137.42 C771.226652,139.766678 768.843343,142.956647 767.01,146.99 C765.176658,151.023354 763.783338,155.826639 762.83,161.4 C761.876662,166.973361 761.4,172.986634 761.4,179.44 C761.4,185.893366 761.876662,191.833306 762.83,197.26 C763.783338,202.686694 765.176658,207.453313 767.01,211.56 C768.843343,215.666687 771.226652,218.856655 774.16,221.13 C777.093348,223.403345 780.53998,224.54 784.5,224.54 C788.46002,224.54 791.906652,223.403345 794.84,221.13 C797.773348,218.856655 800.156657,215.666687 801.99,211.56 C803.823343,207.453313 805.216662,202.686694 806.17,197.26 C807.123338,191.833306 807.6,185.893366 807.6,179.44 Z M905.72,234 L905.72,163.6 C905.72,160.22665 905.536669,156.816684 905.17,153.37 C904.803332,149.923316 903.996673,146.770014 902.75,143.91 C901.503327,141.049986 899.743345,138.703342 897.47,136.87 C895.196655,135.036657 892.226685,134.12 888.56,134.12 C884.893315,134.12 881.630014,135.10999 878.77,137.09 C875.909986,139.07001 873.49001,141.783316 871.51,145.23 C869.52999,148.676684 867.990006,152.636644 866.89,157.11 C865.789995,161.583356 865.24,166.239976 865.24,171.08 L865.24,234 L850.72,234 L850.72,152.38 C850.72,150.033322 850.683334,147.503347 850.61,144.79 C850.536666,142.076653 850.463334,139.436679 850.39,136.87 C850.316666,134.30332 850.243334,131.956677 850.17,129.83 C850.096666,127.703323 849.986667,126.053339 849.84,124.88 L863.92,124.88 C864.213335,127.666681 864.433333,131.03998 864.58,135 C864.726667,138.96002 864.8,142.699982 864.8,146.22 L865.24,146.22 C867.293344,138.88663 870.666643,132.910023 875.36,128.29 C880.053357,123.669977 885.919965,121.36 892.96,121.36 C898.826696,121.36 903.556649,122.606654 907.15,125.1 C910.743351,127.593346 913.493324,130.856646 915.4,134.89 C917.306676,138.923353 918.589997,143.469975 919.25,148.53 C919.910003,153.590025 920.24,158.613308 920.24,163.6 L920.24,234 L905.72,234 Z M988.66,234 C987.046659,234.733337 985.066678,235.39333 982.72,235.98 C980.373322,236.56667 977.953346,236.86 975.46,236.86 C967.833295,236.86 962.443349,234.220026 959.29,228.94 C956.136651,223.659974 954.56,216.620044 954.56,207.82 L954.56,136.76 L940.26,136.76 L940.26,124.88 L954.34,124.88 L954.34,94.74 L968.64,94.74 L968.64,124.88 L988,124.88 L988,136.76 L968.64,136.76 L968.64,205.18 C968.64,211.780033 969.593324,216.583318 971.5,219.59 C973.406676,222.596682 976.266648,224.1 980.08,224.1 C981.400007,224.1 982.793326,223.916668 984.26,223.55 C985.726674,223.183332 986.973328,222.780002 988,222.34 L988.66,234 Z M1023.64,148.64 C1025.69334,139.106619 1028.84665,132.213355 1033.1,127.96 C1037.35335,123.706645 1042.19331,121.58 1047.62,121.58 C1048.79334,121.58 1049.67333,121.653333 1050.26,121.8 L1049.82,136.76 C1049.23333,136.613333 1048.68334,136.503334 1048.17,136.43 C1047.65666,136.356666 1047.03334,136.32 1046.3,136.32 C1042.63332,136.32 1039.37001,137.566654 1036.51,140.06 C1033.64999,142.553346 1031.26668,145.77998 1029.36,149.74 C1027.45332,153.70002 1026.02334,158.209975 1025.07,163.27 C1024.11666,168.330025 1023.64,173.353308 1023.64,178.34 L1023.64,234 L1009.12,234 L1009.12,152.38 C1009.12,150.033322 1009.08333,147.503347 1009.01,144.79 C1008.93667,142.076653 1008.86333,139.436679 1008.79,136.87 C1008.71667,134.30332 1008.64333,131.956677 1008.57,129.83 C1008.49667,127.703323 1008.38667,126.053339 1008.24,124.88 L1022.32,124.88 C1022.61333,127.666681 1022.83333,131.149979 1022.98,135.33 C1023.12667,139.510021 1023.2,143.946643 1023.2,148.64 L1023.64,148.64 Z M1136.72,179.66 C1136.72,188.313377 1135.84001,196.159965 1134.08,203.2 C1132.31999,210.240035 1129.82668,216.326641 1126.6,221.46 C1123.37332,226.593359 1119.37669,230.553319 1114.61,233.34 C1109.84331,236.126681 1104.5267,237.52 1098.66,237.52 C1092.7933,237.52 1087.51336,236.126681 1082.82,233.34 C1078.12664,230.553319 1074.13002,226.593359 1070.83,221.46 C1067.52998,216.326641 1065.00001,210.240035 1063.24,203.2 C1061.47999,196.159965 1060.6,188.313377 1060.6,179.66 C1060.6,171.006623 1061.44332,163.086703 1063.13,155.9 C1064.81668,148.713297 1067.27332,142.553359 1070.5,137.42 C1073.72668,132.286641 1077.72331,128.326681 1082.49,125.54 C1087.25669,122.753319 1092.64664,121.36 1098.66,121.36 C1104.5267,121.36 1109.84331,122.753319 1114.61,125.54 C1119.37669,128.326681 1123.37332,132.286641 1126.6,137.42 C1129.82668,142.553359 1132.31999,148.713297 1134.08,155.9 C1135.84001,163.086703 1136.72,171.006623 1136.72,179.66 Z M1121.76,179.44 C1121.76,172.986634 1121.28334,166.973361 1120.33,161.4 C1119.37666,155.826639 1117.94668,151.023354 1116.04,146.99 C1114.13332,142.956647 1111.75001,139.766678 1108.89,137.42 C1106.02999,135.073322 1102.62002,133.9 1098.66,133.9 C1094.69998,133.9 1091.25335,135.073322 1088.32,137.42 C1085.38665,139.766678 1083.00334,142.956647 1081.17,146.99 C1079.33666,151.023354 1077.94334,155.826639 1076.99,161.4 C1076.03666,166.973361 1075.56,172.986634 1075.56,179.44 C1075.56,185.893366 1076.03666,191.833306 1076.99,197.26 C1077.94334,202.686694 1079.33666,207.453313 1081.17,211.56 C1083.00334,215.666687 1085.38665,218.856655 1088.32,221.13 C1091.25335,223.403345 1094.69998,224.54 1098.66,224.54 C1102.62002,224.54 1106.06665,223.403345 1109,221.13 C1111.93335,218.856655 1114.31666,215.666687 1116.15,211.56 C1117.98334,207.453313 1119.37666,202.686694 1120.33,197.26 C1121.28334,191.833306 1121.76,185.893366 1121.76,179.44 Z M1164,234 L1164,67.68 L1178.52,67.68 L1178.52,234 L1164,234 Z M1229.56,224.54 C1229.56,227.766683 1228.57001,230.406656 1226.59,232.46 C1224.60999,234.513344 1222.15335,235.54 1219.22,235.54 C1216.28665,235.54 1213.86668,234.513344 1211.96,232.46 C1210.05332,230.406656 1209.1,227.766683 1209.1,224.54 C1209.1,221.606652 1210.05332,219.040011 1211.96,216.84 C1213.86668,214.639989 1216.28665,213.54 1219.22,213.54 C1222.15335,213.54 1224.60999,214.639989 1226.59,216.84 C1228.57001,219.040011 1229.56,221.606652 1229.56,224.54 Z M1305.9,234 C1305.75333,232.826661 1305.64333,231.360009 1305.57,229.6 C1305.49667,227.839991 1305.42333,225.97001 1305.35,223.99 C1305.27667,222.00999 1305.24,220.103342 1305.24,218.27 L1305.24,213.54 L1304.8,213.54 C1301.13332,229.086744 1292.3334,236.86 1278.4,236.86 C1275.31998,236.86 1272.24002,236.273339 1269.16,235.1 C1266.07998,233.926661 1263.29335,232.020013 1260.8,229.38 C1258.30665,226.739987 1256.25334,223.403354 1254.64,219.37 C1253.02666,215.336647 1252.22,210.460029 1252.22,204.74 C1252.22,196.81996 1253.61332,190.440024 1256.4,185.6 C1259.18668,180.759976 1262.70665,176.946681 1266.96,174.16 C1271.21335,171.373319 1275.86997,169.503338 1280.93,168.55 C1285.99003,167.596662 1290.79331,167.12 1295.34,167.12 L1303.92,167.12 L1303.92,161.4 C1303.92,151.866619 1302.16002,144.900022 1298.64,140.5 C1295.11998,136.099978 1290.35336,133.9 1284.34,133.9 C1280.23331,133.9 1276.42002,134.999989 1272.9,137.2 C1269.37998,139.400011 1266.37335,142.18665 1263.88,145.56 L1256.18,136.54 C1259.55335,131.699976 1263.95331,127.960013 1269.38,125.32 C1274.80669,122.679987 1280.23331,121.36 1285.66,121.36 C1297.10006,121.36 1305.23998,125.099963 1310.08,132.58 C1314.92002,140.060037 1317.34,150.986595 1317.34,165.36 L1317.34,210.68 C1317.34,212.146674 1317.37667,213.979989 1317.45,216.18 C1317.52333,218.380011 1317.59667,220.616655 1317.67,222.89 C1317.74333,225.163345 1317.85333,227.28999 1318,229.27 C1318.14667,231.25001 1318.29333,232.826661 1318.44,234 L1305.9,234 Z M1304.14,178.56 L1295.34,178.56 C1291.81998,178.56 1288.30002,178.889997 1284.78,179.55 C1281.25998,180.210003 1278.14335,181.456657 1275.43,183.29 C1272.71665,185.123342 1270.48001,187.653317 1268.72,190.88 C1266.95999,194.106683 1266.08,198.286641 1266.08,203.42 C1266.08,211.046705 1267.76665,216.54665 1271.14,219.92 C1274.51335,223.29335 1278.17998,224.98 1282.14,224.98 C1286.24669,224.98 1289.72999,223.733346 1292.59,221.24 C1295.45001,218.746654 1297.72332,215.593352 1299.41,211.78 C1301.09668,207.966648 1302.30666,203.786689 1303.04,199.24 C1303.77334,194.693311 1304.14,190.293355 1304.14,186.04 L1304.14,178.56 Z M1357.16,182.52 C1357.16,188.533363 1357.67333,194.069975 1358.7,199.13 C1359.72667,204.190025 1361.22999,208.589981 1363.21,212.33 C1365.19001,216.070019 1367.68332,219.003323 1370.69,221.13 C1373.69668,223.256677 1377.25331,224.32 1381.36,224.32 C1386.64003,224.32 1390.89332,222.706683 1394.12,219.48 C1397.34668,216.253317 1399.83999,212.366689 1401.6,207.82 L1412.6,214.2 C1409.95999,220.800033 1406.03669,226.336644 1400.83,230.81 C1395.62331,235.283356 1388.98671,237.52 1380.92,237.52 C1368.74661,237.52 1359.2867,232.386718 1352.54,222.12 C1345.7933,211.853282 1342.42,197.70009 1342.42,179.66 C1342.42,171.153291 1343.29999,163.306703 1345.06,156.12 C1346.82001,148.933297 1349.34998,142.773359 1352.65,137.64 C1355.95002,132.506641 1359.98331,128.510014 1364.75,125.65 C1369.51669,122.789986 1374.8333,121.36 1380.7,121.36 C1387.15337,121.36 1392.61664,122.753319 1397.09,125.54 C1401.56336,128.326681 1405.19332,132.139976 1407.98,136.98 C1410.76668,141.820024 1412.78333,147.466634 1414.03,153.92 C1415.27667,160.373366 1415.9,167.26663 1415.9,174.6 L1415.9,182.52 L1357.16,182.52 Z M1401.16,170.42 C1401.16,159.419945 1399.47335,150.583367 1396.1,143.91 C1392.72665,137.236633 1387.4467,133.9 1380.26,133.9 C1376.00665,133.9 1372.45001,135.183321 1369.59,137.75 C1366.72999,140.316679 1364.38334,143.469981 1362.55,147.21 C1360.71666,150.950019 1359.39667,154.946645 1358.59,159.2 C1357.78333,163.453355 1357.38,167.193317 1357.38,170.42 L1401.16,170.42 Z M1457.48,148.64 C1459.53334,139.106619 1462.68665,132.213355 1466.94,127.96 C1471.19335,123.706645 1476.03331,121.58 1481.46,121.58 C1482.63334,121.58 1483.51333,121.653333 1484.1,121.8 L1483.66,136.76 C1483.07333,136.613333 1482.52334,136.503334 1482.01,136.43 C1481.49666,136.356666 1480.87334,136.32 1480.14,136.32 C1476.47332,136.32 1473.21001,137.566654 1470.35,140.06 C1467.48999,142.553346 1465.10668,145.77998 1463.2,149.74 C1461.29332,153.70002 1459.86334,158.209975 1458.91,163.27 C1457.95666,168.330025 1457.48,173.353308 1457.48,178.34 L1457.48,234 L1442.96,234 L1442.96,152.38 C1442.96,150.033322 1442.92333,147.503347 1442.85,144.79 C1442.77667,142.076653 1442.70333,139.436679 1442.63,136.87 C1442.55667,134.30332 1442.48333,131.956677 1442.41,129.83 C1442.33667,127.703323 1442.22667,126.053339 1442.08,124.88 L1456.16,124.88 C1456.45333,127.666681 1456.67333,131.149979 1456.82,135.33 C1456.96667,139.510021 1457.04,143.946643 1457.04,148.64 L1457.48,148.64 Z M1570.56,179.66 C1570.56,188.313377 1569.68001,196.159965 1567.92,203.2 C1566.15999,210.240035 1563.66668,216.326641 1560.44,221.46 C1557.21332,226.593359 1553.21669,230.553319 1548.45,233.34 C1543.68331,236.126681 1538.3667,237.52 1532.5,237.52 C1526.6333,237.52 1521.35336,236.126681 1516.66,233.34 C1511.96664,230.553319 1507.97002,226.593359 1504.67,221.46 C1501.36998,216.326641 1498.84001,210.240035 1497.08,203.2 C1495.31999,196.159965 1494.44,188.313377 1494.44,179.66 C1494.44,171.006623 1495.28332,163.086703 1496.97,155.9 C1498.65668,148.713297 1501.11332,142.553359 1504.34,137.42 C1507.56668,132.286641 1511.56331,128.326681 1516.33,125.54 C1521.09669,122.753319 1526.48664,121.36 1532.5,121.36 C1538.3667,121.36 1543.68331,122.753319 1548.45,125.54 C1553.21669,128.326681 1557.21332,132.286641 1560.44,137.42 C1563.66668,142.553359 1566.15999,148.713297 1567.92,155.9 C1569.68001,163.086703 1570.56,171.006623 1570.56,179.66 Z M1555.6,179.44 C1555.6,172.986634 1555.12334,166.973361 1554.17,161.4 C1553.21666,155.826639 1551.78668,151.023354 1549.88,146.99 C1547.97332,142.956647 1545.59001,139.766678 1542.73,137.42 C1539.86999,135.073322 1536.46002,133.9 1532.5,133.9 C1528.53998,133.9 1525.09335,135.073322 1522.16,137.42 C1519.22665,139.766678 1516.84334,142.956647 1515.01,146.99 C1513.17666,151.023354 1511.78334,155.826639 1510.83,161.4 C1509.87666,166.973361 1509.4,172.986634 1509.4,179.44 C1509.4,185.893366 1509.87666,191.833306 1510.83,197.26 C1511.78334,202.686694 1513.17666,207.453313 1515.01,211.56 C1516.84334,215.666687 1519.22665,218.856655 1522.16,221.13 C1525.09335,223.403345 1528.53998,224.54 1532.5,224.54 C1536.46002,224.54 1539.90665,223.403345 1542.84,221.13 C1545.77335,218.856655 1548.15666,215.666687 1549.99,211.56 C1551.82334,207.453313 1553.21666,202.686694 1554.17,197.26 C1555.12334,191.833306 1555.6,185.893366 1555.6,179.44 Z" id="myControl.aero" fill="#FFFFFF"></path>
    </g>
</svg>