<?xml version="1.0" encoding="UTF-8"?>
<svg width="1680px" height="295px" viewBox="0 0 1680 295" version="1.1" xmlns="http://www.w3.org/2000/svg" xmlns:xlink="http://www.w3.org/1999/xlink">
    <!-- Generator: Sketch 51.1 (57501) - http://www.bohemiancoding.com/sketch -->
    <title>onegovcloud</title>
    <desc>Created with Sketch.</desc>
    <defs></defs>
    <g id="onegovcloud" stroke="none" stroke-width="1" fill="none" fill-rule="evenodd">
        <path d="M352.12,151.26 C352.12,129.406557 351.240009,115.180033 349.48,108.58 C346.546652,98.1666146 340.093383,92.96 330.12,92.96 C319.999949,92.96 313.546681,98.3132798 310.76,109.02 C308.999991,115.913368 308.12,130.286557 308.12,152.14 C308.12,175.166782 308.999991,190.0533 310.76,196.8 C313.546681,206.920051 319.999949,211.98 330.12,211.98 C339.946716,211.98 346.326652,206.773385 349.26,196.36 C351.166676,189.759967 352.12,174.726784 352.12,151.26 Z M386.22,154.56 C386.22,183.453478 383.213363,203.326612 377.2,214.18 C369.426628,228.26007 353.513454,235.3 329.46,235.3 C306.286551,235.3 290.886705,228.26007 283.26,214.18 C277.393304,203.47328 274.46,183.600145 274.46,154.56 C274.46,124.199848 277.246639,103.446722 282.82,92.3 C290.446705,77.1932578 306.213214,69.64 330.12,69.64 C354.320121,69.64 370.306628,77.0465926 378.08,91.86 C383.506694,102.56672 386.22,123.466511 386.22,154.56 Z M465.42,232 L465.42,158.08 C465.42,151.186632 464.833339,146.200015 463.66,143.12 C461.899991,139.013313 458.380026,136.96 453.1,136.96 C443.566619,136.96 438.8,144.953253 438.8,160.94 L438.8,232 L407.78,232 L407.78,138.94 C407.78,130.433291 407.560002,124.49335 407.12,121.12 L438.36,121.12 L438.58,132.34 C444.886698,123.099954 454.346604,118.48 466.96,118.48 C477.520053,118.48 485.073311,121.193306 489.62,126.62 C494.166689,132.046694 496.44,140.553275 496.44,152.14 L496.44,232 L465.42,232 Z M573.88,163.58 C573.88,156.539965 573.660002,151.700013 573.22,149.06 C571.899993,140.846626 567.8667,136.74 561.12,136.74 C553.78663,136.74 549.386674,141.359954 547.92,150.6 C547.33333,153.97335 547.04,158.299974 547.04,163.58 L573.88,163.58 Z M546.82,180.08 L546.82,184.48 C546.82,186.093341 546.893333,187.853324 547.04,189.76 C547.480002,199.293381 548.579991,205.966648 550.34,209.78 C552.246676,214.180022 555.766641,216.38 560.9,216.38 C569.846711,216.38 574.32,209.34007 574.32,195.26 L604.24,195.26 C603.799998,209.046736 600.133368,219.056635 593.24,225.29 C586.346632,231.523365 575.640073,234.64 561.12,234.64 C542.933242,234.64 530.4667,229.28672 523.72,218.58 C518.586641,210.366626 516.02,196.653429 516.02,177.44 C516.02,158.373238 518.953304,144.366711 524.82,135.42 C532.15337,124.12661 544.619912,118.48 562.22,118.48 C579.820088,118.48 591.846634,124.12661 598.3,135.42 C602.700022,143.633374 604.9,157.566568 604.9,177.22 L604.9,180.08 L546.82,180.08 Z M696.86,121.12 L696.86,118.26 C696.86,101.393249 690.480064,92.96 677.72,92.96 C667.893284,92.96 661.440015,97.9466168 658.36,107.92 C656.159989,114.960035 655.06,128.599899 655.06,148.84 C655.06,173.626791 656.379987,190.053293 659.02,198.12 C662.246683,207.360046 668.773284,211.98 678.6,211.98 C685.640035,211.98 692.019971,210.880011 697.74,208.68 L697.74,171.06 L679.26,171.06 L679.26,147.74 L730.08,147.74 L730.08,227.16 C713.359916,232.586694 696.566751,235.3 679.7,235.3 C654.32654,235.3 637.826705,228.186738 630.2,213.96 C624.333304,203.546615 621.4,182.866821 621.4,151.92 C621.4,122.58652 624.259971,102.493388 629.98,91.64 C637.90004,76.97326 654.033212,69.64 678.38,69.64 C696.273423,69.64 709.399958,73.4899615 717.76,81.19 C726.120042,88.8900385 730.3,101.319914 730.3,118.48 L730.3,121.12 L696.86,121.12 Z M807.08,164.46 C807.08,155.659956 806.420007,149.353352 805.1,145.54 C803.193324,140.113306 799.233363,137.4 793.22,137.4 C786.619967,137.4 782.366676,140.919965 780.46,147.96 C779.139993,152.213355 778.48,159.326617 778.48,169.3 L778.48,189.54 C778.48,197.313372 779.139993,203.033315 780.46,206.7 C782.660011,212.713363 786.839969,215.72 793,215.72 C799.160031,215.72 803.266656,212.493366 805.32,206.04 C806.493339,202.226648 807.08,195.846711 807.08,186.9 L807.08,164.46 Z M838.54,174.36 C838.54,194.893436 836.120024,209.339958 831.28,217.7 C824.679967,228.99339 811.920095,234.64 793,234.64 C774.666575,234.64 762.053368,229.433385 755.16,219.02 C749.879974,210.659958 747.24,196.653432 747.24,177 C747.24,158.079905 750.026639,144.146711 755.6,135.2 C762.640035,124.053278 775.253242,118.48 793.44,118.48 C811.773425,118.48 824.239967,123.466617 830.84,133.44 C835.973359,141.213372 838.54,154.853236 838.54,174.36 Z M913.12,232 L877.04,232 L847.12,121.12 L879.46,121.12 L896.4,206.92 L914.44,121.12 L943.92,121.12 L913.12,232 Z M1116.84,182.94 C1116.84,201.420092 1112.62338,214.766626 1104.19,222.98 C1095.75662,231.193374 1082.44676,235.3 1064.26,235.3 C1041.37989,235.3 1026.1267,228.406736 1018.5,214.62 C1012.48664,203.473278 1009.48,182.94015 1009.48,153.02 C1009.48,123.833187 1012.11997,103.813388 1017.4,92.96 C1025.0267,77.4132556 1040.79321,69.64 1064.7,69.64 C1082.00675,69.64 1094.69329,73.2332974 1102.76,80.42 C1111.26671,88.0467048 1115.52,100.586579 1115.52,118.04 L1115.52,122.22 L1082.74,122.22 L1082.74,118.92 C1082.74,101.613247 1076.65339,92.96 1064.48,92.96 C1055.09329,92.96 1049.00668,98.0199494 1046.22,108.14 C1044.16666,115.620037 1043.14,129.479899 1043.14,149.72 C1043.14,173.920121 1044.23999,189.906628 1046.44,197.68 C1049.37335,207.213381 1055.23996,211.98 1064.04,211.98 C1072.40004,211.98 1077.97332,208.826698 1080.76,202.52 C1082.66668,198.55998 1083.62,191.740048 1083.62,182.06 L1083.62,178.1 L1116.84,178.1 L1116.84,182.94 Z M1134.44,232 L1134.44,72.94 L1165.46,72.94 L1165.46,232 L1134.44,232 Z M1244.88,164.46 C1244.88,155.659956 1244.22001,149.353352 1242.9,145.54 C1240.99332,140.113306 1237.03336,137.4 1231.02,137.4 C1224.41997,137.4 1220.16668,140.919965 1218.26,147.96 C1216.93999,152.213355 1216.28,159.326617 1216.28,169.3 L1216.28,189.54 C1216.28,197.313372 1216.93999,203.033315 1218.26,206.7 C1220.46001,212.713363 1224.63997,215.72 1230.8,215.72 C1236.96003,215.72 1241.06666,212.493366 1243.12,206.04 C1244.29334,202.226648 1244.88,195.846711 1244.88,186.9 L1244.88,164.46 Z M1276.34,174.36 C1276.34,194.893436 1273.92002,209.339958 1269.08,217.7 C1262.47997,228.99339 1249.72009,234.64 1230.8,234.64 C1212.46658,234.64 1199.85337,229.433385 1192.96,219.02 C1187.67997,210.659958 1185.04,196.653432 1185.04,177 C1185.04,158.079905 1187.82664,144.146711 1193.4,135.2 C1200.44004,124.053278 1213.05324,118.48 1231.24,118.48 C1249.57343,118.48 1262.03997,123.466617 1268.64,133.44 C1273.77336,141.213372 1276.34,154.853236 1276.34,174.36 Z M1354,232 L1353.78,220.12 C1347.4733,229.506714 1338.16006,234.2 1325.84,234.2 C1315.27995,234.2 1307.65336,231.706692 1302.96,226.72 C1298.26664,221.733308 1295.92,213.740055 1295.92,202.74 L1295.92,121.12 L1326.94,121.12 L1326.94,194.82 C1326.94,201.420033 1327.52666,206.259985 1328.7,209.34 C1330.46001,213.740022 1333.97997,215.94 1339.26,215.94 C1348.64671,215.94 1353.34,208.31341 1353.34,193.06 L1353.34,121.12 L1384.36,121.12 L1384.36,213.96 C1384.36,219.680029 1384.58,225.693302 1385.02,232 L1354,232 Z M1463.56,177.22 C1463.56,163.726599 1462.82667,154.340026 1461.36,149.06 C1459.30666,140.846626 1455.20003,136.74 1449.04,136.74 C1443.02664,136.74 1439.06668,140.479963 1437.16,147.96 C1435.69333,153.240026 1434.96,162.993262 1434.96,177.22 C1434.96,189.686729 1435.69333,198.559974 1437.16,203.84 C1439.36001,211.906707 1443.3933,215.94 1449.26,215.94 C1455.27336,215.94 1459.30666,212.053372 1461.36,204.28 C1462.82667,198.999974 1463.56,189.980064 1463.56,177.22 Z M1465.1,232 L1465.1,220.12 C1458.93997,229.506714 1450.06672,234.2 1438.48,234.2 C1423.95993,234.2 1414.20669,228.260059 1409.22,216.38 C1405.69998,208.313293 1403.94,195.113425 1403.94,176.78 C1403.94,157.419903 1405.69998,143.633374 1409.22,135.42 C1414.06002,124.12661 1423.2266,118.48 1436.72,118.48 C1448.60006,118.48 1457.61997,122.953289 1463.78,131.9 L1463.78,72.94 L1494.8,72.94 L1494.8,211.32 C1494.8,217.626698 1495.02,224.519963 1495.46,232 L1465.1,232 Z" id="OneGov-Cloud" fill="#FFFFFF"></path>
        <g id="logo-mixer" transform="translate(20.000000, 70.000000)" fill-rule="nonzero">
            <path d="M34.8757858,7.66060389 C31.8137842,3.61102394 27.2450201,0.926853879 22.1750659,0.198872311 C17.1051118,-0.529109258 11.9495001,0.75876289 7.84296716,3.77903156 C7.33620877,4.1487337 6.84979653,4.54479764 6.3857998,4.96553839 C-0.916624374,11.8995934 -1.75915188,23.1390243 4.43001471,31.055976 L43.1158737,82.3300211 L4.14631841,133.934593 C-2.05728922,141.853391 -1.2142089,153.107504 6.1021035,160.041981 C9.89114247,163.441307 14.8949972,165.217172 20.0124474,164.978753 C25.1298976,164.740334 29.9415667,162.50717 33.3885294,158.770723 C33.8143028,158.31243 34.2160145,157.832963 34.5920895,157.334203 L89.0058994,85.270863 C90.3313669,83.5092076 90.3313669,81.0999842 89.0058994,79.3383288 L34.8757858,7.66060389 Z" id="Shape" fill="#0A214C"></path>
            <path d="M153.090008,7.66040716 C156.154171,3.61093121 160.726161,0.926830076 165.799694,0.198867203 C170.873228,-0.529095669 176.032479,0.758743404 180.141912,3.77893451 C180.649028,4.14862716 181.135783,4.54468093 181.600108,4.96541086 C188.907687,11.8992878 189.75081,23.13843 183.557274,31.0551785 L144.844102,82.3279067 L183.858376,133.95234 C190.055943,141.867897 189.212599,153.109993 181.90121,160.042108 C178.109496,163.441347 173.102109,165.217166 167.981045,164.978754 C162.859982,164.740341 158.044916,162.507234 154.59552,158.770883 C154.169446,158.312602 153.76745,157.833147 153.39111,157.3344 L98.9948025,85.298335 C97.6683992,83.5367249 97.6683992,81.1275634 98.9948025,79.3659532 L153.090008,7.66040716 Z" id="Shape" fill="#55B8E8"></path>
        </g>
    </g>
</svg>