<?xml version="1.0" encoding="UTF-8"?>
<svg width="302px" height="55px" viewBox="0 0 302 55" version="1.1" xmlns="http://www.w3.org/2000/svg" xmlns:xlink="http://www.w3.org/1999/xlink">
    <title>ai</title>
    <g id="Page-1" stroke="none" stroke-width="1" fill="none" fill-rule="evenodd">
        <g id="ai" fill-rule="nonzero">
            <g id="Group" transform="translate(104.9, 0)">
                <path d="M20.1,53.9 C11.2,53.9 1.2,48.1 0.3,35.5 L0.4,0.3 L40,0.3 L40,35.3 C39.1,48.1 29.1,53.9 20.1,53.9 Z" id="Path" fill="#FFFFFF"></path>
                <path d="M39.7,0.5 L39.7,35.3 C38.9,47.9 29,53.7 20.1,53.7 C11.3,53.7 1.4,48 0.5,35.6 L0.6,0.6 L39.7,0.6 M40.2,0 L0.1,0 L0,35.5 C0.9,47.9 10.5,54.1 20.1,54.1 C29.7,54.1 39.3,47.8 40.2,35.3 L40.2,0 L40.2,0 Z" id="Shape" fill="#000000"></path>
            </g>
            <rect id="Rectangle" fill="#E42313" x="0" y="0" width="11.3" height="11.3"></rect>
            <rect id="Rectangle" fill="#E42313" x="17" y="0" width="11.3" height="11.3"></rect>
            <rect id="Rectangle" fill="#E42313" x="34" y="0" width="11.3" height="11.3"></rect>
            <rect id="Rectangle" fill="#E42313" x="51" y="0" width="11.3" height="11.3"></rect>
            <rect id="Rectangle" fill="#E42313" x="68" y="0" width="11.3" height="11.3"></rect>
            <rect id="Rectangle" fill="#E42313" x="85.1" y="0" width="11.3" height="11.3"></rect>
            <rect id="Rectangle" fill="#C6C6C6" x="153" y="0" width="11.3" height="11.3"></rect>
            <rect id="Rectangle" fill="#C6C6C6" x="170" y="0" width="11.3" height="11.3"></rect>
            <rect id="Rectangle" fill="#C6C6C6" x="187" y="0" width="11.3" height="11.3"></rect>
            <rect id="Rectangle" fill="#C6C6C6" x="204" y="0" width="11.3" height="11.3"></rect>
            <rect id="Rectangle" fill="#C6C6C6" x="221" y="0" width="11.3" height="11.3"></rect>
            <rect id="Rectangle" fill="#C6C6C6" x="238" y="0" width="11.3" height="11.3"></rect>
            <rect id="Rectangle" fill="#C6C6C6" x="255" y="0" width="11.3" height="11.3"></rect>
            <rect id="Rectangle" fill="#C6C6C6" x="272.1" y="0" width="11.3" height="11.3"></rect>
            <rect id="Rectangle" fill="#C6C6C6" x="289.1" y="0" width="11.3" height="11.3"></rect>
            <g id="Group" transform="translate(152, 27)" fill="#000000">
                <path d="M0.2,6.8 C0.8,6.8 1,6.7 1,5.9 L1,1.3 C1,0.5 0.8,0.5 0.2,0.4 L0.2,0.2 L3.7,0.2 L3.7,0.4 C3.1,0.4 2.9,0.5 2.9,1.3 L2.9,3.4 L4.8,1.6 C5.2,1.2 5.5,0.9 5.5,0.7 C5.5,0.4 5,0.4 4.7,0.4 L4.7,0.2 L7.4,0.2 L7.4,0.4 C6.9,0.4 6.3,0.8 6,1 L4.3,2.6 L6.7,6 C6.9,6.3 7.1,6.6 7.5,6.6 L7.5,6.8 L4.3,6.8 L4.3,6.6 C4.5,6.6 4.8,6.6 4.8,6.4 C4.8,6.3 4.7,6.1 4.5,5.9 L3,3.8 L2.9,3.9 L2.9,6 C2.9,6.8 3.1,6.8 3.7,6.9 L3.7,7.1 L0.2,7.1 L0.2,6.8 Z" id="Path"></path>
                <path d="M7.9,6.8 C8.6,6.7 8.7,6.3 9,5.6 L11.5,0 L11.8,0 L14.2,5 C14.4,5.5 14.6,5.9 14.8,6.2 C15,6.5 15.3,6.7 15.6,6.7 L15.6,6.9 L11.9,6.9 L11.9,6.7 C12.1,6.7 12.3,6.7 12.4,6.7 C12.5,6.7 12.6,6.5 12.6,6.4 C12.6,6.2 12.3,5.6 12.2,5.4 L12.1,5.1 L9.6,5.1 C9.5,5.4 9.2,6 9.2,6.2 C9.2,6.7 9.7,6.8 10.1,6.8 L10.1,7 L7.8,7 L7.8,6.8 L7.9,6.8 Z M12,4.7 L10.9,2.4 L9.9,4.7 L12,4.7 Z" id="Shape"></path>
                <path d="M16.1,6.8 C16.7,6.8 17,6.4 17,5.8 L17,1.1 C16.5,0.5 16.5,0.5 16.1,0.5 L16.1,0.3 L18.6,0.3 L22.2,4.4 L22.2,1.5 C22.2,0.7 21.8,0.6 21.2,0.6 L21.2,0.4 L23.4,0.4 L23.4,0.6 C22.9,0.6 22.7,0.9 22.7,1.5 L22.7,7.3 L22.5,7.3 L17.5,1.8 L17.5,6 C17.5,6.8 17.9,6.9 18.6,6.9 L18.6,7.1 L16.2,7.1 L16.2,6.8 L16.1,6.8 Z" id="Path"></path>
                <path d="M25.4,6.8 C26.1,6.8 26.4,6.6 26.4,5.9 L26.4,0.8 C26.4,0.6 26.3,0.6 26.1,0.6 C25.2,0.6 24.6,1.2 24.4,2.1 L24.2,2.1 L24.3,0.3 L30.4,0.3 L30.5,2.1 L30.3,2.1 C30.2,1.2 29.6,0.6 28.6,0.6 C28.3,0.6 28.3,0.6 28.3,0.8 L28.3,6 C28.3,6.7 28.6,6.8 29.3,6.9 L29.3,7.1 L25.4,7.1 L25.4,6.8 Z" id="Path"></path>
                <path d="M34.8,0.1 C36.9,0.1 38.4,1.6 38.4,3.7 C38.4,5.7 36.9,7.3 34.8,7.3 C32.7,7.3 31.2,5.8 31.2,3.7 C31.3,1.6 32.7,0.1 34.8,0.1 Z M34.8,6.9 C36.4,6.9 36.4,4.9 36.4,3.8 C36.4,2.7 36.4,0.5 34.8,0.5 C33.2,0.5 33.2,2.7 33.2,3.8 C33.2,4.9 33.3,6.9 34.8,6.9 Z" id="Shape"></path>
                <path d="M39.1,6.8 C39.7,6.8 40,6.4 40,5.8 L40,1.1 C39.5,0.5 39.4,0.5 39.1,0.5 L39.1,0.3 L41.6,0.3 L45.2,4.4 L45.2,1.5 C45.2,0.7 44.8,0.6 44.2,0.6 L44.2,0.4 L46.4,0.4 L46.4,0.6 C45.9,0.6 45.7,0.9 45.7,1.5 L45.7,7.3 L45.5,7.3 L40.5,1.8 L40.5,6 C40.5,6.8 40.9,6.9 41.6,6.9 L41.6,7.1 L39.2,7.1 L39.2,6.8 L39.1,6.8 Z" id="Path"></path>
                <path d="M0.1,18.1 C0.8,18 0.9,17.6 1.2,16.9 L3.7,11.3 L4,11.3 L6.4,16.3 C6.6,16.8 6.8,17.2 7,17.5 C7.2,17.8 7.5,18 7.8,18 L7.8,18.2 L4.1,18.2 L4.1,18 C4.3,18 4.5,18 4.6,18 C4.7,18 4.8,17.8 4.8,17.7 C4.8,17.5 4.5,16.9 4.4,16.7 L4.3,16.4 L1.8,16.4 C1.7,16.7 1.4,17.3 1.4,17.5 C1.4,18 1.9,18.1 2.3,18.1 L2.3,18.3 L0,18.3 L0,18.1 L0.1,18.1 Z M4.1,16 L3,13.7 L2,16 L4.1,16 Z" id="Shape"></path>
                <path d="M8.1,18.1 C8.7,18.1 8.9,18 8.9,17.2 L8.9,12.6 C8.9,11.8 8.7,11.8 8.1,11.7 L8.1,11.5 L11,11.5 C11.9,11.5 12.7,11.5 13.2,11.8 C13.8,12.1 14,12.6 14,13.3 C14,14.1 13.6,14.6 13,14.9 C12.6,15.1 12,15.2 11.3,15.2 L10.7,15.2 L10.7,17.1 C10.7,17.9 10.9,17.9 11.5,18 L11.5,18.2 L8,18.2 L8,18.1 L8.1,18.1 Z M10.8,14.9 L11,14.9 C12,14.9 12.2,14.4 12.2,13.4 C12.2,12.7 12.1,12 11.3,12 C10.9,12 10.8,12.1 10.8,12.4 L10.8,14.9 L10.8,14.9 Z" id="Shape"></path>
                <path d="M14.6,18.1 C15.2,18.1 15.4,18 15.4,17.2 L15.4,12.6 C15.4,11.8 15.2,11.8 14.6,11.7 L14.6,11.5 L17.5,11.5 C18.4,11.5 19.2,11.5 19.7,11.8 C20.3,12.1 20.5,12.6 20.5,13.3 C20.5,14.1 20.1,14.6 19.5,14.9 C19.1,15.1 18.5,15.2 17.8,15.2 L17.2,15.2 L17.2,17.1 C17.2,17.9 17.4,17.9 18,18 L18,18.2 L14.5,18.2 L14.5,18.1 L14.6,18.1 Z M17.3,14.9 L17.5,14.9 C18.5,14.9 18.7,14.4 18.7,13.4 C18.7,12.7 18.6,12 17.8,12 C17.4,12 17.3,12.1 17.3,12.4 L17.3,14.9 L17.3,14.9 Z" id="Shape"></path>
                <path d="M21.1,18.1 C21.7,18.1 21.9,18 21.9,17.2 L21.9,12.6 C21.9,11.8 21.7,11.8 21.1,11.7 L21.1,11.5 L27,11.5 L27,13.4 L26.8,13.4 C26.7,12.4 26.2,11.9 25,11.9 L24.4,11.9 C23.9,11.9 23.8,11.9 23.8,12.4 L23.8,14.5 C24.9,14.5 25.2,14 25.4,13 L25.6,13 L25.6,16.4 L25.4,16.4 C25.3,15.4 24.9,14.9 23.8,14.9 L23.8,17.1 C23.8,17.8 23.8,17.9 24.6,17.9 C25.6,17.9 26.1,17.9 26.8,17.1 C27.1,16.8 27.3,16.3 27.3,16.2 L27.5,16.3 L27.1,18.4 L21.1,18.4 L21.1,18.1 Z" id="Path"></path>
                <path d="M28.3,18.1 C28.9,18.1 29.2,17.7 29.2,17.1 L29.2,12.4 C28.7,11.8 28.6,11.8 28.3,11.8 L28.3,11.6 L30.8,11.6 L34.4,15.6 L34.4,12.7 C34.4,11.9 34,11.8 33.4,11.8 L33.4,11.6 L35.6,11.6 L35.6,11.8 C35.1,11.8 34.9,12.1 34.9,12.7 L34.9,18.5 L34.7,18.5 L29.7,13 L29.7,17.2 C29.7,18 30.1,18.1 30.8,18.1 L30.8,18.3 L28.4,18.3 L28.4,18.1 L28.3,18.1 Z" id="Path"></path>
                <path d="M36.7,11.6 L42.2,11.6 C42.3,11.6 42.3,11.6 42.3,11.7 C42.3,11.7 42.3,11.8 42.3,11.8 L38.5,18 L40,18 C41.4,18 42.1,17.2 42.5,15.9 L42.8,15.9 L42.5,18.4 L36.5,18.4 C36.4,18.4 36.4,18.4 36.4,18.3 C36.4,18.3 36.4,18.2 36.4,18.2 L40.1,12 L38.7,12 C37.5,12 37.1,12.6 36.9,13.6 L36.6,13.6 L36.7,11.6 Z" id="Path"></path>
                <path d="M43.5,18.1 C44.1,18.1 44.3,18 44.3,17.2 L44.3,12.6 C44.3,11.8 44.1,11.8 43.5,11.7 L43.5,11.5 L49.4,11.5 L49.4,13.4 L49.2,13.4 C49.1,12.4 48.6,11.9 47.4,11.9 L46.8,11.9 C46.3,11.9 46.2,11.9 46.2,12.4 L46.2,14.5 C47.3,14.5 47.6,14 47.8,13 L48,13 L48,16.4 L47.8,16.4 C47.7,15.4 47.3,14.9 46.2,14.9 L46.2,17.1 C46.2,17.8 46.2,17.9 47,17.9 C48,17.9 48.5,17.9 49.2,17.1 C49.5,16.8 49.7,16.3 49.7,16.2 L49.9,16.3 L49.5,18.4 L43.5,18.4 L43.5,18.1 Z" id="Path"></path>
                <path d="M50.7,18.1 C51.3,18.1 51.5,18 51.5,17.2 L51.5,12.6 C51.5,11.8 51.3,11.8 50.7,11.7 L50.7,11.5 L54.2,11.5 L54.2,11.7 C53.6,11.7 53.4,11.8 53.4,12.6 L53.4,17.2 C53.4,17.8 53.6,17.9 54.4,17.9 C55.6,17.9 56.2,17.1 56.5,16 L56.7,16.1 L56.3,18.3 L50.6,18.3 L50.6,18.1 L50.7,18.1 Z" id="Path"></path>
                <path d="M57.5,18.1 C58.1,18.1 58.3,18 58.3,17.2 L58.3,12.6 C58.3,11.8 58.1,11.8 57.5,11.7 L57.5,11.5 L61,11.5 L61,11.7 C60.4,11.7 60.2,11.8 60.2,12.6 L60.2,17.2 C60.2,17.8 60.4,17.9 61.2,17.9 C62.4,17.9 63,17.1 63.3,16 L63.5,16.1 L63.1,18.3 L57.4,18.3 L57.4,18.1 L57.5,18.1 Z" id="Path"></path>
                <path d="M66.3,18.1 C66.9,18.1 67.1,18 67.1,17.2 L67.1,12.6 C67.1,11.8 66.9,11.8 66.3,11.7 L66.3,11.5 L69.8,11.5 L69.8,11.7 C69.2,11.7 69,11.8 69,12.6 L69,17.2 C69,18 69.2,18 69.8,18.1 L69.8,18.3 L66.3,18.3 L66.3,18.1 Z" id="Path"></path>
                <path d="M70.6,18.1 C71.2,18.1 71.5,17.7 71.5,17.1 L71.5,12.4 C71,11.8 70.9,11.8 70.6,11.8 L70.6,11.6 L73.1,11.6 L76.7,15.6 L76.7,12.7 C76.7,11.9 76.3,11.8 75.7,11.8 L75.7,11.6 L77.9,11.6 L77.9,11.8 C77.4,11.8 77.2,12.1 77.2,12.7 L77.2,18.5 L77,18.5 L72,13 L72,17.2 C72,18 72.4,18.1 73.1,18.1 L73.1,18.3 L70.7,18.3 L70.7,18.1 L70.6,18.1 Z" id="Path"></path>
                <path d="M78.7,18.1 C79.3,18.1 79.6,17.7 79.6,17.1 L79.6,12.4 C79.1,11.8 79,11.8 78.7,11.8 L78.7,11.6 L81.2,11.6 L84.8,15.6 L84.8,12.7 C84.8,11.9 84.4,11.8 83.8,11.8 L83.8,11.6 L86,11.6 L86,11.8 C85.5,11.8 85.3,12.1 85.3,12.7 L85.3,18.5 L85,18.5 L80,13 L80,17.2 C80,18 80.4,18.1 81.1,18.1 L81.1,18.3 L78.7,18.3 L78.7,18.1 Z" id="Path"></path>
                <path d="M86.9,18.1 C87.5,18.1 87.7,18 87.7,17.2 L87.7,12.6 C87.7,11.8 87.5,11.8 86.9,11.7 L86.9,11.5 L92.8,11.5 L92.8,13.4 L92.6,13.4 C92.5,12.4 92,11.9 90.8,11.9 L90.2,11.9 C89.7,11.9 89.6,11.9 89.6,12.4 L89.6,14.5 C90.7,14.5 91,14 91.2,13 L91.4,13 L91.4,16.4 L91.2,16.4 C91.1,15.4 90.7,14.9 89.6,14.9 L89.6,17.1 C89.6,17.8 89.6,17.9 90.4,17.9 C91.4,17.9 91.9,17.9 92.6,17.1 C92.9,16.8 93.1,16.3 93.1,16.2 L93.3,16.3 L92.9,18.4 L86.9,18.4 L86.9,18.1 Z" id="Path"></path>
                <path d="M94.1,18.1 C94.7,18.1 94.9,18 94.9,17.2 L94.9,12.6 C94.9,11.8 94.7,11.8 94.1,11.7 L94.1,11.5 L96.3,11.5 C97.4,11.5 98.5,11.5 99,11.6 C99.8,11.8 100.5,12.3 100.5,13.2 C100.5,14.1 99.7,14.7 98.9,14.9 L100.1,16.8 C100.5,17.4 100.7,17.7 100.8,17.9 C101,18.1 101.1,18.1 101.2,18.1 L101.2,18.3 L98.9,18.3 L97,15.1 L96.7,15.1 L96.7,17.2 C96.7,18 96.9,18 97.5,18.1 L97.5,18.3 L94,18.3 L94,18.1 L94.1,18.1 Z M96.7,14.8 L96.9,14.8 C97.8,14.8 98.5,14.4 98.5,13.3 C98.5,12.5 98.1,11.9 97.2,11.9 C96.7,11.9 96.7,12.1 96.7,12.4 L96.7,14.8 L96.7,14.8 Z" id="Shape"></path>
                <path d="M102.1,18.1 C102.7,18.1 102.9,18 102.9,17.2 L102.9,12.6 C102.9,11.8 102.7,11.8 102.1,11.7 L102.1,11.5 L104.3,11.5 C105.4,11.5 106.5,11.5 107,11.6 C107.8,11.8 108.5,12.3 108.5,13.2 C108.5,14.1 107.7,14.7 106.9,14.9 L108.1,16.8 C108.5,17.4 108.7,17.7 108.8,17.9 C109,18.1 109.1,18.1 109.2,18.1 L109.2,18.3 L106.9,18.3 L105,15.1 L104.7,15.1 L104.7,17.2 C104.7,18 104.9,18 105.5,18.1 L105.5,18.3 L102,18.3 L102,18.1 L102.1,18.1 Z M104.8,14.8 L105,14.8 C105.9,14.8 106.6,14.4 106.6,13.3 C106.6,12.5 106.2,11.9 105.3,11.9 C104.8,11.9 104.8,12.1 104.8,12.4 L104.8,14.8 Z" id="Shape"></path>
                <path d="M110,18.1 C110.6,18.1 110.8,18 110.8,17.2 L110.8,12.6 C110.8,11.8 110.6,11.8 110,11.7 L110,11.5 L113.5,11.5 L113.5,11.7 C112.9,11.7 112.7,11.8 112.7,12.6 L112.7,14.5 L115.2,14.5 L115.2,12.6 C115.2,11.8 115,11.8 114.4,11.7 L114.4,11.5 L117.9,11.5 L117.9,11.7 C117.3,11.7 117.1,11.8 117.1,12.6 L117.1,17.2 C117.1,18 117.3,18 117.9,18.1 L117.9,18.3 L114.4,18.3 L114.4,18.1 C115,18.1 115.2,18 115.2,17.2 L115.2,15 L112.7,15 L112.7,17.2 C112.7,18 112.9,18 113.5,18.1 L113.5,18.3 L110,18.3 L110,18.1 Z" id="Path"></path>
                <path d="M122.2,11.4 C124.3,11.4 125.8,12.9 125.8,15 C125.8,17 124.3,18.6 122.2,18.6 C120.1,18.6 118.6,17.1 118.6,15 C118.7,12.9 120.1,11.4 122.2,11.4 Z M122.2,18.2 C123.8,18.2 123.8,16.2 123.8,15.1 C123.8,14 123.8,11.8 122.2,11.8 C120.6,11.8 120.6,14 120.6,15.1 C120.6,16.2 120.6,18.2 122.2,18.2 Z" id="Shape"></path>
                <path d="M126.6,18.1 C127.2,18.1 127.4,18 127.4,17.2 L127.4,12.6 C127.4,11.8 127.2,11.8 126.6,11.7 L126.6,11.5 L129.6,11.5 C130.9,11.5 131.9,11.5 133,12.4 C133.7,13 134,13.9 134,14.8 C134,15.9 133.7,16.7 132.9,17.4 C132,18.2 131.2,18.3 129.5,18.3 L126.5,18.3 L126.5,18.1 L126.6,18.1 Z M129.2,16.9 C129.2,17.8 129.2,18 130.1,18 C131.8,18 132,16.2 132,14.9 C132,13.6 131.6,11.9 130,11.9 C129.3,11.9 129.2,11.9 129.2,12.6 L129.2,16.9 L129.2,16.9 Z" id="Shape"></path>
                <path d="M134.8,18.1 C135.4,18.1 135.6,18 135.6,17.2 L135.6,12.6 C135.6,11.8 135.4,11.8 134.8,11.7 L134.8,11.5 L140.7,11.5 L140.7,13.4 L140.5,13.4 C140.4,12.4 139.9,11.9 138.7,11.9 L138.1,11.9 C137.6,11.9 137.5,11.9 137.5,12.4 L137.5,14.5 C138.6,14.5 138.9,14 139.1,13 L139.3,13 L139.3,16.4 L139,16.4 C138.9,15.4 138.5,14.9 137.4,14.9 L137.4,17.1 C137.4,17.8 137.4,17.9 138.2,17.9 C139.2,17.9 139.7,17.9 140.4,17.1 C140.7,16.8 140.9,16.3 140.9,16.2 L141.1,16.3 L140.7,18.4 L134.7,18.4 L134.7,18.1 L134.8,18.1 Z" id="Path"></path>
                <path d="M141.9,18.1 C142.5,18.1 142.8,17.7 142.8,17.1 L142.8,12.4 C142.3,11.8 142.2,11.8 141.9,11.8 L141.9,11.6 L144.4,11.6 L148,15.6 L148,12.7 C148,11.9 147.6,11.8 147,11.8 L147,11.6 L149.2,11.6 L149.2,11.8 C148.7,11.8 148.5,12.1 148.5,12.7 L148.5,18.5 L148.3,18.5 L143.3,13 L143.3,17.2 C143.3,18 143.7,18.1 144.4,18.1 L144.4,18.3 L142,18.3 L142,18.1 L141.9,18.1 Z" id="Path"></path>
            </g>
            <g id="Group" transform="translate(108.6, 3.1405)" fill="#000000">
                <path d="M3.2,3.55945734 C3.2,3.55945734 3.2,2.85945734 3.5,2.55945734 C2.7,1.75945734 1.7,2.45945734 1.4,3.45945734 C1.9,3.05945734 2.9,3.15945734 3.2,3.55945734 Z M3.3,2.65945734 C3.1,2.95945734 3.1,3.25945734 3.1,3.25945734 L3.1,3.25945734 C2.8,3.05945734 2.1,3.05945734 1.9,3.15945734 C2,2.85945734 2.7,2.25945734 3.3,2.65945734 Z" id="Shape"></path>
                <path d="M3.6,2.45945734 C3.6,2.35945734 3.9,2.05945734 4.4,1.95945734 C3.5,0.459457336 1.9,1.45945734 1.8,1.95945734 C2.4,1.75945734 3.4,2.15945734 3.6,2.45945734 Z M4.1,1.85945734 C3.8,1.95945734 3.6,2.05945734 3.6,2.15945734 C3.5,1.95945734 2.6,1.55945734 2.3,1.65945734 C2.6,1.35945734 3.5,1.05945734 4.1,1.85945734 Z" id="Shape"></path>
                <path d="M4.5,1.85945734 C4.7,1.75945734 5.1,1.75945734 5.5,1.85945734 C5.5,1.65945734 5.6,1.25945734 5,0.759457336 C4.4,0.259457336 3.5,0.459457336 3.1,0.659457336 C3.8,0.859457336 4.5,1.35945734 4.5,1.85945734 Z M5.3,1.65945734 C5.1,1.55945734 4.7,1.55945734 4.6,1.65945734 C4.6,1.25945734 4,0.759457336 3.6,0.759457336 C4.2,0.659457336 5,0.859457336 5.3,1.65945734 Z" id="Shape"></path>
                <path d="M5.6,1.95945734 C6,2.15945734 6.2,2.35945734 6.3,2.65945734 C6.5,2.35945734 6.6,1.95945734 6.5,1.45945734 C6.4,0.959457336 5.8,0.459457336 5.1,0.459457336 C5.7,0.959457336 5.8,1.45945734 5.6,1.95945734 Z M6.3,2.35945734 C6.2,2.15945734 5.9,1.95945734 5.8,1.95945734 C5.9,1.55945734 5.9,1.05945734 5.7,0.859457336 C6,0.859457336 6.7,1.25945734 6.3,2.35945734 Z" id="Shape"></path>
                <path d="M6.9,3.85945734 C7.3,3.55945734 7.9,2.05945734 7.1,1.35945734 C7.1,2.05945734 6.9,2.55945734 6.4,2.85945734 C6.6,3.05945734 6.9,3.25945734 6.9,3.85945734 Z M7.2,1.85945734 C7.3,2.15945734 7.3,2.95945734 7,3.35945734 C6.9,3.15945734 6.8,2.95945734 6.7,2.85945734 C7,2.55945734 7.3,2.05945734 7.2,1.85945734 Z" id="Shape"></path>
                <path d="M30,39.0594573 C29.9,38.7594573 29.5,38.7594573 29.5,38.4594573 L29.8,38.4594573 C29.7,38.2594573 29.6,38.1594573 29.2,37.9594573 L29.5,37.9594573 C29.5,37.8594573 29.4,37.6594573 28.9,37.1594573 L29.2,37.1594573 C29.1,36.8594573 28.5,36.3594573 28.3,36.1594573 C28.4,36.1594573 28.6,36.0594573 28.8,36.3594573 C28.8,36.2594573 28.6,35.7594573 28.3,35.4594573 L28.5,35.4594573 C28.5,35.1594573 28,34.4594573 27.8,34.1594573 C27.9,34.1594573 28.1,34.2594573 28.3,34.5594573 C28.3,34.2594573 28.2,33.9594573 28,33.7594573 C28.1,33.7594573 28.2,33.6594573 28.2,33.7594573 C28.2,33.5594573 28.1,33.2594573 27.9,33.0594573 L28.1,33.0594573 C28.1,32.8594573 27.8,32.3594573 27.6,31.9594573 L27.9,31.9594573 C27.9,31.7594573 27.8,31.6594573 27.6,31.3594573 C27.6,31.3594573 28,31.5594573 27.9,31.4594573 C27.8,31.3594573 27.3,30.1594573 27.3,29.6594573 C27.5,29.6594573 27.5,29.8594573 27.8,29.9594573 C27.9,29.6594573 27.9,28.4594573 27.6,27.9594573 L28,28.1594573 C28,27.8594573 27.8,27.4594573 27.5,26.9594573 L27.8,27.0594573 C27.8,26.9594573 27.6,26.4594573 27.1,25.9594573 L27.2,25.9594573 C27.2,25.7594573 26.8,25.3594573 26.4,25.2594573 L26.6,25.2594573 C26,24.0594573 25.7,23.7594573 25.2,23.5594573 C24.1,23.0594573 25.2,23.5594573 25.2,23.5594573 L25.6,23.7594573 C25.5,23.5594573 25.3,23.2594573 24.9,22.9594573 L25.1,22.9594573 L24.5,22.2594573 L24.8,22.3594573 L24.1,21.3594573 C24.2,21.2594573 24.3,21.3594573 24.4,21.4594573 C24.4,21.2594573 24.1,20.7594573 24,20.5594573 C23.9,20.4594573 24.2,20.5594573 24.2,20.5594573 L23.9,19.7594573 L24.2,20.0594573 L24.2,19.6594573 L24.4,19.8594573 C24.4,19.6594573 24.5,19.3594573 24.5,18.9594573 C24.6,18.9594573 24.5,18.8594573 24.7,19.0594573 C24.8,18.8594573 24.7,18.4594573 24.6,18.1594573 C24.7,18.1594573 24.9,18.4594573 25,18.6594573 C25.1,18.5594573 25.1,18.3594573 25,17.9594573 C25,17.9594573 25.2,18.3594573 25.2,18.2594573 C25.2,18.1594573 25.3,18.1594573 25.3,17.6594573 C25.3,17.6594573 25.3,17.5594573 25.5,17.7594573 C25.5,17.6594573 25.5,17.3594573 25.5,16.9594573 L25.7,17.1594573 C25.8,16.8594573 25.6,16.7594573 25.6,16.4594573 L25.8,16.5594573 C25.8,16.2594573 25.6,16.1594573 25.6,15.9594573 C25.6,15.7594573 25.8,15.9594573 25.8,15.9594573 C25.8,15.7594573 25.6,15.5594573 25.2,15.1594573 C25.2,15.0594573 25.5,15.0594573 25.7,15.3594573 C25.7,15.1594573 25.5,14.7594573 25.1,14.4594573 L25.3,14.4594573 L24.7,13.7594573 L24.8,13.6594573 C24.8,13.6594573 24.5,13.0594573 24.5,13.0594573 C24.5,13.0594573 24.7,13.0594573 24.7,13.0594573 L24.7,12.4594573 L25,12.7594573 L24.9,11.7594573 L25.1,11.9594573 L25.1,11.2594573 L25.3,11.4594573 L25.3,10.7594573 L25.5,10.7594573 C25.5,10.7594573 25.4,10.4594573 25.5,10.1594573 C25.5,10.0594573 25.7,10.1594573 25.8,10.3594573 C25.9,10.1594573 25.8,9.95945734 25.7,9.75945734 C25.6,9.55945734 25.7,9.75945734 25.7,9.75945734 L25.9,9.75945734 C25.9,9.05945734 25.7,9.25945734 25.6,8.85945734 L25.9,9.05945734 C25.9,8.85945734 25.9,8.75945734 25.7,8.45945734 L26.4,8.65945734 L26.4,8.45945734 L26.6,8.55945734 L26.6,8.25945734 L27,8.35945734 L27,8.15945734 L27.5,8.15945734 L27.3,7.95945734 C27.5,7.85945734 27.8,7.85945734 28,7.65945734 L27.9,7.45945734 C28.3,7.45945734 28.3,7.25945734 28.2,7.15945734 C28.1,7.15945734 28.6,6.95945734 28.6,6.95945734 L28.5,6.75945734 L28.8,6.65945734 L28.4,6.05945734 C28.4,5.85945734 29,4.95945734 28.2,4.05945734 C27.4,3.05945734 25.7,3.35945734 25.3,3.75945734 C25.3,3.75945734 24.5,3.25945734 24.5,3.25945734 C24.5,3.25945734 24.8,3.25945734 24.9,3.25945734 C25,3.25945734 25.3,2.65945734 24.9,2.65945734 C25.1,2.45945734 25.3,1.95945734 25,2.05945734 L25,1.75945734 L24.9,1.65945734 C24.9,1.65945734 24.8,1.45945734 24.9,1.45945734 C25,1.35945734 25,1.15945734 24.8,1.35945734 L24.8,1.05945734 C24.8,1.05945734 24.7,1.15945734 24.6,1.15945734 C24.5,0.959457336 24.6,1.15945734 24.6,0.859457336 C24.7,0.759457336 24.6,0.459457336 24.3,0.659457336 C23.6,-0.0405426642 23,-0.140542664 22.3,0.159457336 C21.6,0.459457336 20.9,1.75945734 20.8,2.25945734 C19.6,2.35945734 19,2.45945734 18.5,2.75945734 C18.3,2.65945734 17.6,2.35945734 16.9,2.25945734 C16.7,2.25945734 16.7,2.25945734 16.5,2.05945734 C16.4,1.85945734 16.3,1.75945734 16,1.75945734 C15.7,1.65945734 15.5,1.85945734 15.4,2.25945734 C15.4,2.65945734 15,2.95945734 14.8,3.15945734 C14.6,3.15945734 14.7,3.15945734 14.5,3.25945734 C14.4,3.35945734 14.3,3.55945734 14.5,3.85945734 C14.6,4.05945734 14.6,3.95945734 14.7,4.15945734 C14.5,4.45945734 14.2,5.25945734 14.4,5.45945734 L14.9,5.15945734 L14.9,5.85945734 L15,5.85945734 L15.5,5.45945734 L15.7,5.85945734 L16,5.75945734 L16.2,6.25945734 L16.4,6.15945734 L16.6,6.65945734 L16.8,6.55945734 L17,6.85945734 L17.3,6.65945734 C17.3,6.65945734 17.4,6.75945734 17.5,6.95945734 C17.5,6.95945734 15.9,6.55945734 14.8,6.05945734 C13.6,5.55945734 13.1,5.15945734 12.6,4.25945734 C12.5,4.15945734 12.4,3.65945734 12.2,3.25945734 C12.1,2.85945734 11.7,2.75945734 11.6,2.75945734 C11.5,2.75945734 10.7,2.75945734 10.6,3.65945734 C10.5,4.65945734 11.2,5.15945734 11.7,5.65945734 C12.4,6.25945734 15.1,6.95945734 15.7,7.15945734 C15.9,7.25945734 17.3,7.45945734 17.4,7.65945734 C17.5,7.85945734 17.3,8.05945734 17,8.15945734 L16.7,7.85945734 L16.4,8.15945734 L16.2,7.85945734 L15.9,8.05945734 L15.7,7.65945734 C15.7,7.65945734 15.4,7.95945734 15.2,8.15945734 C15.2,7.95945734 15.3,7.25945734 15.3,7.25945734 C15.1,7.15945734 15,7.25945734 14.6,7.45945734 C14.6,7.45945734 14.7,6.85945734 14.6,6.95945734 C14.5,7.05945734 14.3,7.25945734 14.1,7.65945734 C13.8,7.45945734 14,7.55945734 13.7,7.35945734 C13.6,7.95945734 13.9,8.85945734 14.7,9.25945734 C15.2,9.55945734 17.1,9.95945734 17.4,10.3594573 C17,10.3594573 16.4,10.4594573 16.2,10.6594573 C16.3,10.6594573 16.4,10.6594573 16.5,10.7594573 C16.3,10.7594573 16.1,10.8594573 16,10.9594573 C16.1,10.9594573 16.2,10.9594573 16.3,11.0594573 C16,11.1594573 15,11.6594573 14.5,11.8594573 C14.4,11.9594573 13.9,12.1594573 13.5,12.0594573 C12.9,11.4594573 11.3,9.75945734 9.8,9.45945734 C9.3,9.35945734 9.1,8.85945734 9.1,8.85945734 C9,8.65945734 8.7,8.05945734 7.9,7.45945734 C7.4,6.85945734 6.2,6.25945734 6.1,6.15945734 C6.1,6.05945734 6,5.85945734 6.1,4.95945734 C6.2,4.75945734 6.5,4.45945734 6.5,3.95945734 C6.5,3.45945734 6,2.25945734 4.9,2.15945734 C3.7,2.15945734 3.3,3.15945734 3.2,3.85945734 C3.2,3.85945734 3.3,3.85945734 3.1,3.85945734 C2.9,3.85945734 2.8,3.95945734 2.7,4.05945734 C2.6,4.15945734 2.6,4.65945734 2.7,5.05945734 C2.8,5.35945734 2.7,5.35945734 2.8,5.85945734 C2.8,6.05945734 2.8,6.65945734 2.9,7.15945734 C2.8,7.55945734 4.2,9.45945734 5,10.2594573 C4.8,10.3594573 4.7,10.3594573 4.4,10.3594573 C4.4,10.5594573 5.4,11.2594573 5.6,11.5594573 C5.4,11.6594573 5.5,11.5594573 5.3,11.5594573 C5.3,11.7594573 6.1,12.3594573 6.3,12.6594573 C6.4,12.7594573 6.1,12.6594573 5.9,12.5594573 C5.9,12.6594573 6.3,13.1594573 6.6,13.3594573 L6.5,13.3594573 C6.6,13.4594573 6.8,13.6594573 7.1,13.8594573 L6.7,13.8594573 C6.7,13.9594573 7.4,14.4594573 7.9,14.7594573 C7.9,14.7594573 8,14.8594573 7.7,14.8594573 C7.7,14.9594573 8.1,15.3594573 8.7,15.6594573 C8.7,15.6594573 8.6,15.7594573 8.5,15.7594573 C8.6,15.9594573 9.3,16.3594573 9.6,16.4594573 C9.6,16.5594573 9.5,16.6594573 9.3,16.6594573 C9.4,16.7594573 10,17.0594573 10.7,17.0594573 C10.8,17.3594573 11.3,17.8594573 11.8,18.0594573 C11.3,18.1594573 9.6,18.9594573 9,19.2594573 C8.3,19.2594573 7.4,19.3594573 7,19.5594573 C6.8,19.6594573 7,19.6594573 6.6,19.5594573 C6.4,19.4594573 6.4,19.2594573 6.2,19.1594573 C6,19.0594573 6,18.8594573 5.5,18.7594573 C5.3,18.7594573 5.3,18.7594573 5.1,18.5594573 C4.8,18.2594573 4.9,17.7594573 4.1,17.1594573 C3.4,16.5594573 2.6,16.9594573 2.3,17.5594573 C1.8,18.3594573 2.3,19.2594573 2.4,19.6594573 C2.2,19.6594573 2,20.1594573 2.3,20.4594573 C2.5,20.6594573 3,21.0594573 3.3,21.5594573 C3.5,21.8594573 5,23.2594573 6.3,23.4594573 C6.2,23.5594573 6.3,23.6594573 6,23.6594573 C6.2,23.7594573 6.9,23.8594573 7.4,23.6594573 C7.4,23.7594573 7.4,23.8594573 7.1,23.9594573 C7.3,23.9594573 8.2,23.9594573 8.7,23.7594573 C8.7,23.8594573 8.7,23.8594573 8.6,23.9594573 C9.3,23.9594573 10.2,23.7594573 10.5,23.6594573 C10.6,23.5594573 10.5,23.8594573 10.3,23.9594573 C10.5,23.9594573 11.1,23.8594573 11.2,23.7594573 C11.2,23.7594573 11.2,23.7594573 11.2,23.7594573 C11.2,23.8594573 11.3,23.8594573 11.1,23.9594573 C11.3,23.9594573 11.6,23.8594573 11.9,23.7594573 L11.9,23.9594573 C12.1,23.9594573 12.8,23.5594573 13,23.4594573 C13.1,23.5594573 13,23.7594573 12.9,23.8594573 C13.2,23.8594573 13.6,23.6594573 13.9,23.5594573 L13.8,23.6594573 C13.8,23.6594573 14.1,23.4594573 14.2,23.6594573 C14.4,23.9594573 14.3,24.8594573 14.4,25.2594573 C14.4,25.0594573 14.5,25.0594573 14.6,24.8594573 C14.6,24.9594573 14.5,25.3594573 14.6,25.5594573 C14.6,25.4594573 14.7,25.3594573 14.9,25.2594573 C14.8,25.5594573 14.9,25.9594573 15,26.2594573 L15.1,25.9594573 C15.1,26.1594573 15.2,26.4594573 15.3,26.8594573 C15.1,27.0594573 14.5,27.5594573 13.9,28.4594573 C13.7,28.7594573 13.7,29.0594573 13.2,29.4594573 C12.7,29.6594573 12.3,30.2594573 12.3,30.9594573 C12.3,32.0594573 11.9,33.3594573 11.6,34.0594573 C11.1,35.0594573 10.8,36.4594573 11.1,37.2594573 C11.2,37.5594573 11.3,37.6594573 11.3,38.1594573 C11.1,38.2594573 10.7,38.2594573 10.2,38.1594573 C9.3,37.2594573 8.2,37.4594573 7.7,38.0594573 C7.2,38.6594573 7.4,39.6594573 7.9,40.2594573 C8.5,41.0594573 10.4,41.9594573 12.7,42.5594573 C14.3,42.9594573 14.6,42.1594573 14.6,41.9594573 C14.7,41.7594573 15,40.7594573 14.8,40.2594573 L15,40.3594573 C15.1,40.2594573 15.3,39.3594573 15.3,38.8594573 C15.5,38.8594573 15.5,38.9594573 15.6,39.0594573 C15.5,38.5594573 15.9,37.6594573 15.9,37.2594573 C16,37.3594573 16.1,37.3594573 16,37.6594573 C16.1,37.6594573 16.2,36.8594573 16.3,36.7594573 C16.3,37.0594573 16.4,36.9594573 16.4,37.2594573 C16.6,36.9594573 16.6,36.6594573 16.8,36.2594573 C16.8,36.2594573 16.9,36.5594573 16.9,36.8594573 C17.1,36.7594573 17.3,36.0594573 17.4,35.8594573 C17.6,35.8594573 17.5,36.1594573 17.5,36.3594573 C17.9,35.8594573 17.8,35.6594573 18,35.2594573 C18.1,35.3594573 18.2,35.4594573 18.1,35.6594573 C18.2,35.5594573 18.4,35.1594573 18.5,34.8594573 C18.6,34.9594573 18.6,35.2594573 18.5,35.5594573 C18.7,35.6594573 19.1,34.5594573 19.3,34.2594573 C19.3,34.3594573 19.4,34.4594573 19.3,34.7594573 C19.4,34.7594573 19.7,34.2594573 19.7,33.9594573 C19.8,34.0594573 19.8,34.1594573 19.8,34.4594573 C20,34.3594573 20.3,33.9594573 20.4,33.4594573 C20.5,33.5594573 20.6,33.8594573 20.5,34.1594573 C20.6,34.0594573 20.8,33.4594573 20.8,33.2594573 C20.9,33.3594573 21,33.3594573 21.2,33.7594573 C21.2,33.6594573 21.3,33.4594573 21.3,33.1594573 C21.4,33.2594573 21.8,34.0594573 21.9,34.4594573 C22.5,36.0594573 23.7,37.9594573 24.8,38.5594573 C24.9,38.6594573 25.3,38.6594573 25.4,38.9594573 C25.2,38.9594573 24.4,39.7594573 24.3,39.9594573 C23.9,39.8594573 22.6,39.8594573 22.5,41.3594573 C22.4,42.7594573 23.8,42.9594573 24.4,42.8594573 C24.6,42.8594573 24.7,42.7594573 24.9,42.9594573 C25.2,43.2594573 25.5,43.1594573 25.8,43.0594573 C26,42.9594573 27.1,42.4594573 27.7,41.9594573 C27.9,41.7594573 28.2,41.3594573 28.7,41.0594573 C29,40.8594573 29.2,40.9594573 29.7,40.3594573 C30.2,40.3594573 30.2,39.4594573 30,39.0594573 Z M27.5,5.45945734 C27.6,5.25945734 27.6,4.95945734 27.5,4.55945734 C27.8,4.65945734 27.9,4.85945734 27.9,5.15945734 C27.9,5.35945734 27.9,5.65945734 27.6,5.85945734 C27.4,6.15945734 27.2,5.85945734 27.5,5.45945734 Z M27.1,5.35945734 C27.4,5.85945734 26.3,6.45945734 25.9,5.75945734 C26.6,5.85945734 26.9,5.75945734 27.1,5.35945734 Z M26.7,6.35945734 C26.2,7.05945734 25.5,6.35945734 25.4,5.85945734 C25.6,6.05945734 26.1,6.45945734 26.7,6.35945734 Z M17.2,6.15945734 L17,5.85945734 L16.8,5.95945734 L16.6,5.55945734 L16.4,5.65945734 L16.2,5.15945734 L15.9,5.25945734 L15.7,4.85945734 L15.3,5.25945734 C15.3,5.25945734 15.3,4.65945734 15.3,4.55945734 C15.1,4.55945734 15,4.75945734 14.9,4.75945734 C14.9,4.55945734 15.1,4.25945734 15.2,4.25945734 C15.3,4.35945734 17.1,5.65945734 17.2,6.15945734 L17.2,6.15945734 Z M15,7.85945734 C14.5,7.75945734 14.2,7.45945734 14.4,7.35945734 L14.5,7.55945734 C14.7,7.65945734 14.8,7.15945734 15,7.25945734 L15,7.85945734 Z M15.4,7.95945734 L15.6,7.65945734 L15.8,8.05945734 L15.4,7.95945734 Z M16,8.05945734 L16.2,7.85945734 L16.3,8.15945734 L16,8.05945734 Z M16.6,8.05945734 L16.7,7.85945734 L16.9,8.05945734 L16.6,8.05945734 Z M3.7,6.25945734 C3.5,5.45945734 3.7,5.05945734 3.8,4.95945734 C3.8,5.35945734 3.9,5.75945734 4,5.95945734 C3.7,5.95945734 3.7,6.25945734 3.7,6.25945734 Z M4.1,5.65945734 C4,5.35945734 3.9,4.65945734 4.2,4.45945734 C4.2,4.75945734 4.2,5.05945734 4.4,5.35945734 C4.2,5.45945734 4.1,5.65945734 4.1,5.65945734 Z M4.9,5.05945734 C4.7,5.05945734 4.6,5.15945734 4.5,5.35945734 C4.4,4.85945734 4.5,4.35945734 4.9,4.25945734 C4.8,4.55945734 4.8,4.75945734 4.9,5.05945734 Z M3.2,20.0594573 C3.5,20.2594573 3.9,20.3594573 4.2,20.3594573 C4.2,20.4594573 4.2,20.5594573 4.2,20.6594573 C3.7,20.6594573 3.2,20.3594573 3.2,20.0594573 Z M3.3,20.6594573 C3.6,20.8594573 3.9,20.9594573 4.3,20.9594573 C4.3,21.0594573 4.4,21.1594573 4.4,21.2594573 C3.9,21.2594573 3.4,21.0594573 3.3,20.6594573 Z M3.7,21.4594573 C4,21.5594573 4.3,21.5594573 4.5,21.4594573 C4.6,21.5594573 4.7,21.7594573 4.9,21.8594573 C4.3,21.9594573 3.9,21.7594573 3.7,21.4594573 Z M9.2,40.5594573 C9.4,40.6594573 9.7,40.7594573 10,40.8594573 C10.2,41.1594573 10.4,41.4594573 10.6,41.5594573 L10.6,41.5594573 C10,41.6594573 9.4,41.0594573 9.2,40.5594573 Z M10.2,40.8594573 C10.3,40.8594573 10.5,40.8594573 10.7,40.8594573 C10.8,41.1594573 11.1,41.4594573 11.3,41.6594573 C10.8,41.6594573 10.4,41.3594573 10.2,40.8594573 Z M10.9,40.8594573 C11.1,40.8594573 11.2,40.7594573 11.4,40.6594573 C11.5,41.0594573 11.7,41.2594573 11.9,41.5594573 C11.4,41.5594573 11,41.1594573 10.9,40.8594573 Z M19.7,9.95945734 C19.9,10.2594573 20.1,10.4594573 20.4,10.6594573 C20.3,10.6594573 20.1,10.6594573 20,10.6594573 C19.7,10.3594573 19.6,10.1594573 19.7,9.95945734 Z M21.2,10.7594573 C21,10.5594573 20.8,10.2594573 20.9,10.0594573 C21.1,10.2594573 21.5,10.5594573 21.7,10.7594573 C21.5,10.7594573 21.3,10.7594573 21.2,10.7594573 Z M20.3,5.85945734 C20.6,6.05945734 20.8,6.05945734 21.2,6.05945734 C20.7,6.45945734 20.3,6.15945734 20.3,5.85945734 Z M21,10.7594573 C20.9,10.7594573 20.7,10.7594573 20.6,10.7594573 C20.4,10.5594573 20.2,10.2594573 20.3,10.0594573 C20.4,10.2594573 20.7,10.5594573 21,10.7594573 Z M23.1,20.1594573 C23,20.2594573 22.7,20.6594573 22.3,20.9594573 C22.1,20.9594573 22,20.8594573 21.9,20.8594573 C22.5,20.5594573 22.9,20.2594573 23.1,20.1594573 Z M24.2,2.45945734 L24.2,2.45945734 C24.2,1.85945734 24,1.05945734 23.5,0.759457336 C24.2,0.859457336 24.5,1.65945734 24.2,2.45945734 Z M23.8,2.85945734 C23.7,2.65945734 23.7,2.75945734 23.5,2.65945734 C23.6,2.45945734 23.6,1.85945734 23.4,1.55945734 C24,1.75945734 24,2.45945734 23.8,2.85945734 Z M22.9,4.65945734 C23.2,4.75945734 23.5,5.25945734 23.5,5.55945734 C23.3,5.35945734 23.1,5.05945734 22.8,4.95945734 L22.9,4.65945734 Z M22.8,5.15945734 C23.1,5.25945734 23.6,5.85945734 23.5,6.25945734 C23.4,5.95945734 23.1,5.65945734 22.7,5.35945734 L22.8,5.15945734 Z M22.7,5.65945734 C23,5.75945734 23.4,6.25945734 23.3,6.55945734 C23.1,6.25945734 22.8,5.95945734 22.6,5.95945734 L22.7,5.65945734 Z M23.1,10.3594573 C23,10.4594573 22.8,10.4594573 22.6,10.5594573 C22.2,10.3594573 22,10.1594573 22,9.85945734 C22.3,10.1594573 22.7,10.2594573 23.1,10.3594573 Z M22.3,10.6594573 C22.2,10.6594573 22,10.6594573 21.9,10.7594573 C21.6,10.5594573 21.4,10.2594573 21.4,10.0594573 C21.7,10.2594573 22,10.4594573 22.3,10.6594573 Z M21.8,5.45945734 C21.5,5.85945734 20.9,5.75945734 20.6,5.65945734 C20.2,5.45945734 19.9,5.05945734 19.6,5.05945734 C19.9,4.85945734 20.3,4.75945734 20.7,4.75945734 L20.6,5.25945734 L20.4,4.85945734 C20.1,4.95945734 19.9,5.35945734 20.4,5.45945734 C20.9,5.65945734 21.2,5.45945734 21.2,5.25945734 C21.2,5.15945734 21.2,5.05945734 21,4.95945734 C21.6,5.05945734 21.8,5.35945734 21.8,5.45945734 Z M21.6,4.45945734 L21.5,4.75945734 C21.3,4.45945734 20.2,4.15945734 19.6,4.65945734 C19.9,3.85945734 21.3,4.05945734 21.6,4.45945734 Z M17.1,23.0594573 C17.2,23.1594573 17.4,23.2594573 17.6,23.3594573 C17.3,23.5594573 16.5,23.5594573 16.3,23.2594573 C16.6,23.2594573 16.9,23.1594573 17.1,23.0594573 Z M17.4,22.9594573 C17.8,22.8594573 18.1,22.6594573 18.3,22.5594573 C18.5,22.7594573 18.6,22.8594573 19,22.8594573 C18.5,23.0594573 17.8,23.2594573 17.4,22.9594573 Z M13.4,5.85945734 C12.7,5.55945734 12.2,5.35945734 11.5,4.65945734 C10.8,3.95945734 10.9,3.15945734 11,2.95945734 C11.1,2.75945734 11.7,2.35945734 12,2.75945734 C12.3,3.25945734 12.3,3.55945734 12.6,4.05945734 C13.1,5.35945734 15.6,6.15945734 17.6,6.65945734 L17.6,6.85945734 C16.5,6.85945734 14,6.15945734 13.4,5.85945734 Z M17,16.5594573 C17,16.5594573 17.1,16.6594573 17,16.7594573 C16.8,16.8594573 16,16.8594573 15.6,16.8594573 C15.8,16.6594573 16.4,16.4594573 17,16.5594573 Z M15.3,12.8594573 C15.5,13.0594573 15.3,13.0594573 15.3,13.2594573 C15.1,13.4594573 14.5,13.5594573 14.1,14.0594573 C14.3,13.4594573 15.1,12.9594573 15.3,12.8594573 Z M14.7,14.1594573 C14.8,14.2594573 14.6,14.3594573 14.7,14.5594573 C14.3,14.6594573 14.2,15.0594573 13.6,15.4594573 C13.6,15.0594573 14.1,14.3594573 14.7,14.1594573 Z M14.1,15.4594573 L14.1,15.5594573 C13.8,15.7594573 13.4,16.6594573 12.9,17.0594573 C13,16.5594573 13.5,15.6594573 14.1,15.4594573 Z M12.4,18.3594573 C12.6,18.0594573 13.6,17.6594573 14.1,17.6594573 C14.1,17.7594573 14.2,17.8594573 14.3,17.9594573 C13.8,17.9594573 13,18.0594573 12.4,18.3594573 Z M14.3,17.3594573 C14.7,17.0594573 15.1,17.0594573 15.6,16.9594573 L15.7,17.2594573 C15.2,17.2594573 14.5,17.3594573 14.3,17.3594573 Z M13.9,32.6594573 C13.9,32.6594573 13.9,32.6594573 13.9,32.6594573 C13.2,32.7594573 12.7,32.0594573 12.5,31.6594573 L12.6,31.6594573 C12.8,31.7594573 12.9,31.7594573 13.2,31.7594573 C13.3,32.1594573 13.6,32.4594573 13.9,32.6594573 C13.9,32.6594573 13.9,32.6594573 13.9,32.6594573 L13.9,32.6594573 Z M14.4,32.4594573 C13.9,32.3594573 13.6,32.2594573 13.4,31.8594573 C13.6,31.8594573 13.7,31.8594573 13.9,31.7594573 C14,32.0594573 14.1,32.1594573 14.4,32.4594573 L14.4,32.4594573 Z M15.2,32.3594573 C15.2,32.3594573 15.2,32.3594573 15.2,32.3594573 C14.7,32.3594573 14.1,32.0594573 14,31.7594573 L14,31.7594573 C14.2,31.7594573 14.3,31.6594573 14.5,31.5594573 C14.6,31.9594573 14.9,32.0594573 15.2,32.3594573 C15.2,32.3594573 15.2,32.3594573 15.2,32.3594573 L15.2,32.3594573 Z M15.9,27.8594573 C15.5,27.7594573 15.3,26.7594573 15.9,26.6594573 C15.7,26.9594573 15.8,27.4594573 15.9,27.8594573 Z M15.2,23.5594573 C15.5,23.5594573 15.8,23.4594573 16.1,23.3594573 C16.2,23.5594573 16.4,23.6594573 16.5,23.7594573 C16.1,23.8594573 15.4,23.7594573 15.2,23.5594573 Z M18.3,30.8594573 C18.3,30.8594573 18.3,30.8594573 18.3,30.8594573 C18.3,31.2594573 18.3,31.8594573 18.2,31.9594573 C18.1,31.6594573 18.1,30.9594573 18.2,30.7594573 C17.2,30.2594573 15.3,28.8594573 16.2,28.5594573 C16.1,28.2594573 16.2,27.8594573 16.3,27.6594573 C16.4,27.8594573 16.4,28.1594573 16.4,28.2594573 C16.4,28.5594573 16.4,28.5594573 16.6,28.6594573 C16.6,28.4594573 16.6,28.1594573 16.7,28.1594573 C16.7,28.4594573 16.8,28.8594573 16.9,28.9594573 C16.9,28.6594573 16.9,28.5594573 17,28.3594573 C17.1,28.5594573 17.1,28.6594573 17.1,28.8594573 C17.1,29.0594573 17.1,29.0594573 17.2,29.0594573 C17.2,28.7594573 17.2,28.8594573 17.3,28.7594573 C17.4,28.9594573 17.3,29.1594573 17.4,29.1594573 L17.5,28.9594573 C17.6,29.1594573 17.5,29.2594573 17.6,29.2594573 C17.7,29.3594573 17.6,29.3594573 17.7,29.4594573 C17.7,29.1594573 17.8,29.1594573 17.9,29.1594573 C18,29.4594573 17.9,29.3594573 17.9,29.5594573 C17.9,29.6594573 17.9,29.7594573 18,29.8594573 C18,29.8594573 18.1,29.9594573 18.1,29.9594573 C18.1,29.9594573 18.1,29.9594573 18.1,29.9594573 L18.1,29.4594573 C18.2,29.6594573 18.3,29.9594573 18.3,30.1594573 C18.3,30.1594573 18.3,30.1594573 18.3,30.1594573 L18.3,30.8594573 Z M18.4,29.6594573 C18.4,29.6594573 18.5,29.5594573 18.6,29.6594573 C18.7,29.7594573 19,30.1594573 19.1,30.4594573 C18.7,30.3594573 18.6,29.9594573 18.4,29.6594573 Z M18.5,31.4594573 C18.5,31.1594573 18.6,30.6594573 18.6,30.3594573 C18.8,30.4594573 18.8,31.0594573 18.5,31.4594573 Z M19,30.6594573 L19.4,30.6594573 C19.5,30.7594573 20.1,31.3594573 20.4,31.7594573 C20,31.6594573 19.3,31.0594573 19,30.6594573 Z M19.6,21.9594573 C19.8,21.8594573 20.1,21.7594573 20.5,21.5594573 C20.6,21.6594573 20.8,21.7594573 21,21.7594573 C20.5,22.0594573 20,22.1594573 19.6,21.9594573 Z M20.9,30.8594573 C20.9,30.8594573 21,30.9594573 21,31.2594573 C20.9,31.6594573 21.1,32.6594573 21.3,32.9594573 C20.7,32.5594573 20.7,31.3594573 20.9,30.8594573 Z M21.4,21.6594573 C21.1,21.6594573 20.9,21.5594573 20.7,21.5594573 C21,21.3594573 21.4,21.2594573 21.7,21.0594573 C21.8,21.1594573 22,21.1594573 22.2,21.1594573 C21.9,21.3594573 21.6,21.4594573 21.4,21.6594573 Z M22.5,35.1594573 C22.7,35.2594573 22.9,35.3594573 23.2,35.3594573 C23.3,35.6594573 23.5,35.9594573 23.7,36.1594573 C23.1,36.1594573 22.7,35.5594573 22.5,35.1594573 Z M23.4,35.4594573 C23.6,35.4594573 23.8,35.4594573 23.9,35.5594573 C24,35.8594573 24.3,36.1594573 24.6,36.3594573 C24.1,36.2594573 23.6,35.8594573 23.4,35.4594573 Z M24.1,35.4594573 C24.3,35.4594573 24.5,35.4594573 24.6,35.3594573 C24.7,35.7594573 25,35.9594573 25.2,36.2594573 C24.9,36.2594573 24.3,35.7594573 24.1,35.4594573 Z M25.3,26.9594573 C25.5,27.2594573 25.8,27.4594573 25.9,27.5594573 C26.2,27.6594573 26.4,27.9594573 26.4,28.6594573 C26.2,28.3594573 26,28.0594573 25.8,27.9594573 C25.5,27.6594573 25.3,27.0594573 25.3,26.9594573 Z M25.5,27.8594573 C25.9,28.0594573 26.6,28.9594573 26.5,29.4594573 C26.6,29.6594573 26.5,29.8594573 26.6,30.1594573 C26.3,29.7594573 26.3,29.2594573 25.9,28.8594573 C25.7,28.6594573 25.6,28.2594573 25.5,27.8594573 Z M24.3,41.3594573 C24.5,41.5594573 24.7,41.6594573 25,41.7594573 C25.1,42.0594573 25.3,42.3594573 25.4,42.5594573 L25.4,42.5594573 C24.8,42.5594573 24.4,41.7594573 24.3,41.3594573 Z M25.2,41.8594573 C25.3,41.9594573 25.5,41.9594573 25.6,41.9594573 C25.7,42.2594573 25.8,42.5594573 26,42.8594573 C25.6,42.7594573 25.3,42.3594573 25.2,41.8594573 Z M25.9,41.9594573 C26.1,41.9594573 26.2,41.9594573 26.4,41.8594573 C26.4,42.2594573 26.5,42.4594573 26.7,42.7594573 C26.2,42.7594573 25.9,42.2594573 25.9,41.9594573 Z" id="Shape"></path>
                <path d="M24.3,43.7594573 C24,43.7594573 23.6,43.7594573 23.2,43.5594573 C22.9,44.7594573 23.7,45.2594573 24.6,45.2594573 C24.1,44.7594573 24.1,44.1594573 24.3,43.7594573 Z M24.2,45.0594573 C23.5,44.9594573 23.2,44.2594573 23.4,43.8594573 C23.5,43.9594573 23.7,44.0594573 24.1,43.9594573 C23.9,44.0594573 23.9,44.7594573 24.2,45.0594573 Z" id="Shape"></path>
                <path d="M23.1,43.5594573 C22.8,43.4594573 22.6,43.2594573 22.5,42.9594573 C21.5,44.1594573 22.3,45.0594573 23.3,45.2594573 C22.7,44.5594573 22.9,43.9594573 23.1,43.5594573 Z M22.8,44.8594573 C22.3,44.5594573 22,43.8594573 22.4,43.2594573 C22.4,43.3594573 22.6,43.5594573 22.8,43.6594573 C22.7,43.8594573 22.6,44.4594573 22.8,44.8594573 Z" id="Shape"></path>
                <path d="M22.5,42.7594573 C22.5,42.7594573 22.5,42.7594573 22.5,42.7594573 C22.4,42.6594573 22.4,42.5594573 22.4,42.4594573 C22.4,42.2594573 22.3,41.9594573 22.4,41.6594573 C20.8,41.9594573 21,43.7594573 21.5,44.1594573 C21.7,43.4594573 21.9,43.0594573 22.5,42.7594573 Z M21.4,43.7594573 C21.1,42.8594573 21.7,42.0594573 22.2,41.9594573 C22.2,42.1594573 22.1,42.5594573 22.3,42.6594573 C21.8,42.7594573 21.5,43.3594573 21.4,43.7594573 Z" id="Shape"></path>
                <path d="M22.4,41.6594573 C22.5,41.3594573 22.6,41.1594573 22.8,40.9594573 L22.8,40.8594573 C21.4,40.1594573 20.7,41.5594573 20.9,42.3594573 C21.2,41.9594573 21.6,41.4594573 22.4,41.6594573 Z M22.5,40.9594573 C22.4,41.0594573 22.2,41.2594573 22.2,41.4594573 C21.7,41.3594573 21.3,41.5594573 21.1,41.8594573 C21.3,40.9594573 22,40.7594573 22.5,40.9594573 Z" id="Shape"></path>
                <path d="M22.9,40.7594573 L22.9,40.7594573 C23.2,40.5594573 23.5,40.4594573 23.9,40.4594573 L24,40.4594573 C23.1,39.3594573 21.5,39.8594573 21.4,40.5594573 C21.8,40.4594573 22.4,40.2594573 22.9,40.7594573 Z M23.6,40.2594573 C23.3,40.2594573 23.1,40.3594573 23,40.4594573 C22.8,40.2594573 22.5,40.0594573 21.9,40.1594573 C22.4,39.9594573 23.2,39.9594573 23.6,40.2594573 Z" id="Shape"></path>
                <path d="M9.7,38.0594573 C9.9,37.1594573 9.7,36.2594573 8,36.2594573 C8.3,36.5594573 9,37.0594573 8.8,37.7594573 C9.2,37.8594573 9.5,37.9594573 9.7,38.0594573 Z M8.5,36.4594573 C9.1,36.5594573 9.6,36.8594573 9.6,37.6594573 C9.6,37.6594573 9.4,37.4594573 9.1,37.5594573 C9.1,37.1594573 8.8,36.7594573 8.5,36.4594573 Z" id="Shape"></path>
                <path d="M6,37.4594573 C6.9,37.5594573 7.3,37.3594573 7.8,38.1594573 C8.2,37.9594573 8.5,37.8594573 8.8,37.8594573 C8.8,37.1594573 7.4,36.2594573 6,37.4594573 Z M8.5,37.6594573 C8.3,37.5594573 7.9,37.7594573 7.8,37.8594573 C7.7,37.5594573 7.3,37.2594573 6.6,37.2594573 C7.2,36.9594573 8.3,37.0594573 8.5,37.6594573 Z" id="Shape"></path>
                <path d="M5.1,39.0594573 C5.7,38.7594573 6.6,38.6594573 7.2,38.9594573 C7.3,38.6594573 7.4,38.4594573 7.7,38.1594573 C7.2,37.5594573 5.5,37.5594573 5.1,39.0594573 Z M7.5,38.2594573 C7.4,38.2594573 7.2,38.4594573 7.2,38.6594573 C7,38.4594573 6.1,38.4594573 5.6,38.6594573 C5.8,38.0594573 6.8,37.7594573 7.5,38.2594573 Z" id="Shape"></path>
                <path d="M7.2,39.0594573 L7.2,39.0594573 C6.3,38.8594573 5.5,39.4594573 5.6,40.6594573 C6.1,40.1594573 6.4,39.9594573 7.2,40.1594573 L7.2,40.0594573 C7.2,39.7594573 7.1,39.4594573 7.2,39.0594573 Z M5.8,40.1594573 C5.9,39.5594573 6.4,39.1594573 6.9,39.1594573 C6.8,39.3594573 6.9,39.7594573 6.9,39.8594573 C6.8,39.8594573 6.2,39.8594573 5.8,40.1594573 Z" id="Shape"></path>
                <path d="M7.3,40.1594573 L7.3,40.1594573 C6.4,40.3594573 6,41.1594573 6.6,42.2594573 C6.8,41.6594573 7.3,41.1594573 7.9,41.1594573 L7.9,41.0594573 C7.6,40.8594573 7.4,40.5594573 7.3,40.1594573 Z M6.6,41.7594573 C6.4,41.1594573 6.8,40.5594573 7.1,40.4594573 C7.1,40.5594573 7.3,40.8594573 7.5,41.0594573 C7.1,41.0594573 6.8,41.4594573 6.6,41.7594573 Z" id="Shape"></path>
                <path d="M2.6,17.1594573 C2.6,17.1594573 2.6,17.1594573 2.6,17.1594573 C2.7,17.2594573 2.7,17.2594573 2.7,17.3594573 C3,17.1594573 3.3,17.1594573 3.7,17.1594573 C3.7,17.1594573 3.7,17.0594573 3.7,17.0594573 C3.7,17.0594573 3.7,16.9594573 3.7,16.9594573 C3.7,16.9594573 3.7,16.9594573 3.7,16.9594573 C3.2,15.8594573 1.6,15.9594573 1.1,16.6594573 C1.5,16.6594573 2.2,16.7594573 2.5,17.0594573 C2.5,16.9594573 2.5,17.0594573 2.6,17.1594573 Z M3.4,16.8594573 C3.2,16.8594573 3,16.9594573 2.8,16.9594573 C2.7,16.7594573 2.4,16.3594573 1.7,16.3594573 C2.3,16.0594573 3.2,16.3594573 3.4,16.8594573 Z" id="Shape"></path>
                <path d="M2.9,15.6594573 C3.2,15.7594573 3.6,16.1594573 3.7,16.6594573 C3.7,16.7594573 3.8,16.8594573 3.8,16.9594573 C3.8,16.9594573 3.8,17.0594573 3.8,17.0594573 C3.8,17.0594573 3.8,17.0594573 3.8,17.1594573 C4.1,17.1594573 4.4,17.3594573 4.6,17.5594573 C4.6,17.5594573 4.6,17.4594573 4.6,17.4594573 C4.6,17.4594573 4.6,17.3594573 4.6,17.3594573 C4.6,17.3594573 4.6,17.3594573 4.6,17.3594573 C4.9,16.4594573 4.3,15.4594573 2.9,15.6594573 Z M4.4,17.1594573 C4.2,17.0594573 4.1,16.9594573 3.9,16.9594573 C4,16.5594573 3.7,16.0594573 3.5,15.8594573 C3.9,15.8594573 4.6,16.3594573 4.4,17.1594573 Z" id="Shape"></path>
                <path d="M4.6,17.3594573 C4.6,17.3594573 4.5,17.4594573 4.5,17.4594573 C4.5,17.4594573 4.5,17.4594573 4.5,17.4594573 C4.7,17.6594573 4.9,17.8594573 5,18.0594573 L5.1,18.3594573 L5.1,18.3594573 C5.1,18.3594573 5.1,18.3594573 5.1,18.4594573 L5.1,18.4594573 L5.1,18.5594573 C5.6,17.6594573 5.6,16.3594573 4.6,15.9594573 C4.7,16.1594573 4.8,16.7594573 4.6,17.1594573 C4.7,17.2594573 4.7,17.3594573 4.6,17.3594573 Z M5.1,16.5594573 C5.3,16.6594573 5.4,17.5594573 5.2,18.0594573 C5.1,17.8594573 5,17.6594573 4.8,17.5594573 C5,17.2594573 5.1,16.8594573 5.1,16.5594573 Z" id="Shape"></path>
                <path d="M2.6,17.3594573 C2.6,17.2594573 2.5,17.2594573 2.6,17.3594573 C2.5,17.2594573 2.5,17.2594573 2.5,17.2594573 C2.5,17.2594573 2.5,17.2594573 2.5,17.2594573 C2.5,17.2594573 2.5,17.2594573 2.5,17.2594573 C1.5,16.5594573 0.2,16.9594573 -1.42108547e-14,17.9594573 C0.3,17.7594573 1,17.6594573 1.6,17.8594573 C1.8,17.8594573 1.9,17.9594573 2,17.9594573 C2,17.9594573 2.1,17.9594573 2.1,18.0594573 C2.1,18.0594573 2.2,18.0594573 2.2,18.1594573 C2.2,17.7594573 2.4,17.4594573 2.6,17.3594573 Z M0.3,17.5594573 C0.7,16.8594573 1.6,16.8594573 2.3,17.2594573 C2.2,17.3594573 2.1,17.5594573 2,17.6594573 C1.6,17.5594573 0.9,17.4594573 0.3,17.5594573 Z" id="Shape"></path>
                <path d="M1.9,18.0594573 C1.9,18.0594573 1.9,18.0594573 1.9,18.0594573 C1.9,18.0594573 1.8,18.0594573 1.9,18.0594573 C1.8,18.0594573 1.8,18.0594573 1.9,18.0594573 C0.9,17.9594573 0.3,18.5594573 0.3,19.5594573 C0.8,19.0594573 1.4,19.0594573 2,19.2594573 L2,19.2594573 C2,19.2594573 2,19.2594573 2,19.2594573 C1.9,18.8594573 2,18.4594573 2.1,18.1594573 C2,18.0594573 2,18.0594573 1.9,18.0594573 Z M0.6,19.0594573 C0.7,18.6594573 1.1,18.1594573 1.8,18.1594573 C1.8,18.3594573 1.8,18.6594573 1.8,18.8594573 C1.5,18.8594573 1,18.8594573 0.6,19.0594573 Z" id="Shape"></path>
            </g>
            <path d="M111.7,6.3 L111.7,6.3 C111.7,6.3 111.7,6 111.9,5.7 C111.3,5.3 110.6,5.9 110.5,6.2 C110.6,6.1 111.4,6.1 111.7,6.3 Z" id="Path" stroke="#E42313" stroke-width="0.05" fill="#E42313"></path>
            <path d="M112.2,5.3 C112.2,5.2 112.4,5 112.7,5 C112.1,4.2 111.2,4.6 110.9,4.9 C111.2,4.7 112.1,5.1 112.2,5.3 Z" id="Path" stroke="#E42313" stroke-width="0.05" fill="#E42313"></path>
            <path d="M113.2,4.8 C113.3,4.7 113.6,4.7 113.9,4.8 C113.6,3.9 112.8,3.8 112.3,3.9 C112.6,3.9 113.2,4.4 113.2,4.8 Z" id="Path" stroke="#E42313" stroke-width="0.05" fill="#E42313"></path>
            <path d="M114.4,5 C114.5,5 114.8,5.2 114.9,5.4 C115.3,4.4 114.6,4 114.3,3.8 C114.5,4.1 114.5,4.7 114.4,5 Z" id="Path" stroke="#E42313" stroke-width="0.05" fill="#E42313"></path>
            <path d="M115.6,6.5 C115.9,6.2 115.9,5.4 115.8,5 C115.8,5.2 115.6,5.7 115.3,5.9 C115.4,6 115.6,6.3 115.6,6.5 Z" id="Path" stroke="#E42313" stroke-width="0.05" fill="#E42313"></path>
            <path d="M126.1,10 C124.1,9.5 121.6,8.7 121.1,7.4 C120.8,6.9 120.9,6.6 120.5,6.1 C120.2,5.6 119.6,6.1 119.5,6.3 C119.4,6.5 119.3,7.3 120,8 C120.7,8.6 121.2,8.9 121.9,9.2 C122.5,9.5 125.1,10.2 126.1,10.4 L126.1,10 Z" id="Path" stroke="#E42313" stroke-width="0.05" fill="#E42313"></path>
            <path d="M130.1,7.8 L130.2,7.5 C129.9,7.2 128.6,7 128.2,7.7 C128.9,7.2 129.9,7.6 130.1,7.8 Z" id="Path" stroke="#E42313" stroke-width="0.05" fill="#E42313"></path>
            <path d="M132.2,5.8 C132.4,5.9 132.3,5.8 132.5,6 C132.7,5.6 132.7,4.9 132.1,4.7 C132.3,5 132.3,5.5 132.2,5.8 Z" id="Path" stroke="#E42313" stroke-width="0.05" fill="#E42313"></path>
            <path d="M132.7,5.6 L132.7,5.6 C133.1,4.8 132.8,4 132,3.9 C132.5,4.2 132.8,5 132.7,5.6 Z" id="Path" stroke="#E42313" stroke-width="0.05" fill="#E42313"></path>
            <path d="M135.3,9.5 C134.8,9.6 134.2,9.2 134,9 C134,9.5 134.7,10.2 135.3,9.5 Z" id="Path" stroke="#E42313" stroke-width="0.05" fill="#E42313"></path>
            <path d="M135.7,8.5 C135.5,8.8 135.2,9 134.5,8.9 C134.9,9.6 136,9 135.7,8.5 Z" id="Path" stroke="#E42313" stroke-width="0.05" fill="#E42313"></path>
            <path d="M136.3,9.1 C136.6,8.9 136.6,8.6 136.6,8.4 C136.6,8 136.5,7.9 136.2,7.8 C136.3,8.2 136.3,8.4 136.2,8.7 C135.8,9 136,9.3 136.3,9.1 Z" id="Path" stroke="#E42313" stroke-width="0.05" fill="#E42313"></path>
            <path d="M130.4,43.4 C131,43.3 131.3,43.5 131.5,43.7 C131.7,43.6 131.8,43.5 132.1,43.5 C131.8,43.1 131,43.1 130.4,43.4 Z" id="Path" stroke="#E42313" stroke-width="0.05" fill="#E42313"></path>
            <path d="M129.7,44.9 C130,44.6 130.4,44.4 130.8,44.5 C130.8,44.3 131,44.1 131.1,44 C130.6,43.9 129.9,44.1 129.7,44.9 Z" id="Path" stroke="#E42313" stroke-width="0.05" fill="#E42313"></path>
            <path d="M130.8,45.1 C130.3,45.2 129.8,46 130,46.9 C130.1,46.5 130.4,45.9 130.8,45.9 C130.7,45.7 130.7,45.3 130.8,45.1 Z" id="Path" stroke="#E42313" stroke-width="0.05" fill="#E42313"></path>
            <path d="M131.1,46.4 C130.7,47 131,47.7 131.5,48 C131.3,47.6 131.4,47 131.6,46.8 C131.3,46.7 131.1,46.5 131.1,46.4 Z" id="Path" stroke="#E42313" stroke-width="0.05" fill="#E42313"></path>
            <path d="M132.6,47.1 C132.3,47.1 132,47.1 131.9,47 C131.7,47.5 132,48.1 132.7,48.2 C132.5,47.9 132.5,47.2 132.6,47.1 Z" id="Path" stroke="#E42313" stroke-width="0.05" fill="#E42313"></path>
            <path d="M118.2,40.9 C118.3,40.1 117.8,39.7 117.1,39.7 C117.4,40 117.7,40.4 117.7,40.8 C117.9,40.7 118.2,40.9 118.2,40.9 Z" id="Path" stroke="#E42313" stroke-width="0.05" fill="#E42313"></path>
            <path d="M115.2,40.4 C115.9,40.4 116.3,40.6 116.4,41 C116.5,40.9 116.9,40.8 117.1,40.8 C116.9,40.2 115.8,40.1 115.2,40.4 Z" id="Path" stroke="#E42313" stroke-width="0.05" fill="#E42313"></path>
            <path d="M114.1,41.8 C114.6,41.6 115.5,41.6 115.7,41.8 C115.7,41.6 115.9,41.4 116,41.4 C115.4,40.9 114.4,41.2 114.1,41.8 Z" id="Path" stroke="#E42313" stroke-width="0.05" fill="#E42313"></path>
            <path d="M115.6,42.3 C115.1,42.3 114.6,42.7 114.5,43.3 C114.8,42.9 115.4,43 115.7,43 C115.6,42.9 115.5,42.6 115.6,42.3 Z" id="Path" stroke="#E42313" stroke-width="0.05" fill="#E42313"></path>
            <path d="M115.7,43.6 C115.4,43.7 114.9,44.3 115.2,44.9 C115.4,44.6 115.7,44.2 116.1,44.2 C115.9,44 115.8,43.7 115.7,43.6 Z" id="Path" stroke="#E42313" stroke-width="0.05" fill="#E42313"></path>
            <path d="M113.7,19.7 C113.7,20.1 113.7,20.4 113.4,20.7 C113.5,20.8 113.7,21 113.8,21.2 C114,20.7 113.9,19.8 113.7,19.7 Z" id="Path" stroke="#E42313" stroke-width="0.05" fill="#E42313"></path>
            <path d="M112.1,19 C112.3,19.2 112.6,19.7 112.5,20.1 C112.7,20.1 112.9,20.2 113,20.3 C113.2,19.5 112.5,19 112.1,19 Z" id="Path" stroke="#E42313" stroke-width="0.05" fill="#E42313"></path>
            <path d="M112,20 C111.8,19.5 110.9,19.2 110.3,19.5 C111,19.6 111.4,20 111.4,20.1 C111.5,20.1 111.7,20 112,20 Z" id="Path" stroke="#E42313" stroke-width="0.05" fill="#E42313"></path>
            <path d="M110.9,20.5 C110.2,20 109.3,20.1 108.9,20.8 C109.5,20.6 110.2,20.8 110.6,21 C110.7,20.7 110.8,20.6 110.9,20.5 Z" id="Path" stroke="#E42313" stroke-width="0.05" fill="#E42313"></path>
            <path d="M110.4,21.4 C109.7,21.3 109.3,21.9 109.2,22.3 C109.5,22.1 110.1,22.1 110.3,22.2 C110.3,21.8 110.3,21.6 110.4,21.4 Z" id="Path" stroke="#E42313" stroke-width="0.05" fill="#E42313"></path>
            <path d="M126.6,33.2 C126.6,33.2 126.5,33.1 126.5,33.1 C126.5,33.1 126.6,33.2 126.6,33.2 Z" id="Path" stroke="#E42313" stroke-width="0.05" fill="#E42313"></path>
            <path d="M124.8,31.7 C123.9,32 125.8,33.4 126.8,33.9 C126.8,33.9 126.8,33.9 126.8,33.9 C125.4,33.1 124.1,32 124.8,31.7 Z" id="Path" stroke="#E42313" stroke-width="0.05" fill="#E42313"></path>
            <path d="M126.9,33.7 C126.9,33.8 126.9,33.8 126.9,33.9 C126.9,33.9 126.9,33.9 126.9,33.9 L126.9,33.4 C126.9,33.4 126.9,33.4 126.9,33.4 C126.9,33.5 126.9,33.7 126.9,33.7 Z" id="Path" stroke="#E42313" stroke-width="0.05" fill="#E42313"></path>
            <path d="M126.9,33.5 C126.8,33.5 126.8,33.4 126.6,33.2 C126.5,33.2 126.5,33.1 126.5,33.1 C126,32.6 125.3,31.8 124.8,31.7 C124,32 125.4,33.1 126.8,33.9 C126.8,33.9 126.8,33.9 126.8,33.9 C126.8,33.9 126.9,33.9 126.9,34 C126.9,33.9 126.9,33.8 126.9,33.8 C126.9,33.7 126.9,33.5 126.9,33.5 Z" id="Path" fill="#E42313"></path>
        </g>
    </g>
</svg>