<?xml version="1.0" encoding="UTF-8" standalone="no"?>
<svg
   xmlns:dc="http://purl.org/dc/elements/1.1/"
   xmlns:cc="http://creativecommons.org/ns#"
   xmlns:rdf="http://www.w3.org/1999/02/22-rdf-syntax-ns#"
   xmlns:svg="http://www.w3.org/2000/svg"
   xmlns="http://www.w3.org/2000/svg"
   height="114.10667"
   width="427.67001"
   version="1.1"
   viewBox="0 0 427.67002 114.10667"
   data-name="Ebene 1"
   id="Ebene_1">
  <metadata
     id="metadata101">
    <rdf:RDF>
      <cc:Work
         rdf:about="">
        <dc:format>image/svg+xml</dc:format>
        <dc:type
           rdf:resource="http://purl.org/dc/dcmitype/StillImage" />
        <dc:title>AR_gross_cmyk_C</dc:title>
      </cc:Work>
    </rdf:RDF>
  </metadata>
  <defs
     id="defs4">
    <style
       id="style2">.cls-1{fill:#e30518;}.cls-1,.cls-2,.cls-3,.cls-4{fill-rule:evenodd;}.cls-2,.cls-3,.cls-5{fill:#1d1d1b;}.cls-3{stroke:#1d1d1b;stroke-miterlimit:3.86;stroke-width:0;}.cls-4{fill:#fff;}</style>
  </defs>
  <title
     id="title6">AR_gross_cmyk_C</title>
  <path
     style="fill:#e30518;fill-rule:evenodd"
     id="path8"
     d="m 9.5900005,44.68 h 0.36 L 10.27,44.59 c 0.2,-2.88 -1.8199995,-2.41 -1.8199995,-2.41 a 2.09,2.09 0 0 1 0.82,2.35 c -1.12,-2.48 -2.64,-1.52 -2.64,-1.52 1.29,0.2 2,2 2,2 -1.56,-1.59 -2.91,-0.66 -2.91,-0.66 a 3.51,3.51 0 0 1 2.24,1.12 c -2.24,-0.86 -2.87,0.23 -2.87,0.23 a 2.61,2.61 0 0 1 2.18,0.47 c -1.62,-0.13 -1.69,1.09 -1.69,1.09 a 2.05,2.05 0 0 1 1.85,-0.2 13.29,13.29 0 0 1 2.16,-2.38 z"
     class="cls-1" />
  <path
     style="fill:#1d1d1b;fill-rule:evenodd"
     id="path10"
     d="m 8.4300005,42.08 c -0.16,0 -0.26,0.06 -0.27,0.1 -0.01,0.04 0.2,0.17 0.2,0.17 a 1.93,1.93 0 0 1 0.86,1.61 1.09,1.09 0 0 1 0,0.18 2.58,2.58 0 0 0 -1.41,-1.34 1.67,1.67 0 0 0 -1.25,0.13 c -0.13,0.06 -0.13,0.09 -0.12,0.15 0.01,0.06 0.08,0.07 0.17,0.09 a 3.47,3.47 0 0 1 1.54,1.31 2.17,2.17 0 0 0 -2.52,-0.19 c -0.1,0.08 -0.17,0.14 -0.14,0.2 0.03,0.06 0.22,0.08 0.22,0.08 a 3.17,3.17 0 0 1 1.63,0.62 c -1.8,-0.45 -2.35,0.46 -2.38,0.51 -0.03,0.05 -0.12,0.16 -0.09,0.21 0.03,0.05 0.24,0 0.24,0 a 2.79,2.79 0 0 1 1.65,0.18 1.51,1.51 0 0 0 -0.88,0.35 1.43,1.43 0 0 0 -0.45,0.87 c 0,0 0,0.18 0.05,0.2 0.05,0.02 0.18,-0.06 0.18,-0.06 a 1.86,1.86 0 0 1 1.71,-0.19 l 0.12,0.05 0.07,-0.11 a 18.85,18.85 0 0 1 2.07,-2.47 l 0.35,0.09 L 10.45,44.7 v -0.14 a 2.25,2.25 0 0 0 -0.6099995,-2.06 1.68,1.68 0 0 0 -1.41,-0.42 z m -0.53,3.6 0.39,0.15 a 8.9,8.9 0 0 0 -0.92,1.12 2.21,2.21 0 0 0 -1.56,0.1 1,1 0 0 1 0.26,-0.38 1.53,1.53 0 0 1 1.18,-0.28 h 0.42 l -0.31,-0.29 a 2.62,2.62 0 0 0 -1.88,-0.54 2.7,2.7 0 0 1 2.44,0.12 z m 1.52,-1.05 a 2.41,2.41 0 0 0 0.09,-0.67 2.22,2.22 0 0 0 -0.65,-1.58 1.5,1.5 0 0 1 0.78,0.35 1.87,1.87 0 0 1 0.5199995,1.53 2,2 0 0 1 0,0.25 l -0.2799995,0.1 c 0,0 -0.23,-0.09 -0.28,-0.07 a 10,10 0 0 0 -1.25,1.24 l -0.27,-0.33 a 3.77,3.77 0 0 0 -1.82,-1.1 2.3,2.3 0 0 1 2.26,0.83 l 0.24,-0.16 a 3.88,3.88 0 0 0 -1.65,-2 1.34,1.34 0 0 1 0.62,0 2.6,2.6 0 0 1 1.42,1.57 l 0.15,0.33 z"
     class="cls-2" />
  <path
     style="fill:#e30518;fill-rule:evenodd"
     id="path12"
     d="m 8.4700005,57.91 c -0.46,-2.65 -2.26,-1.9 -2.26,-1.9 a 2.35,2.35 0 0 1 1.18,2.19 c -1.44,-2 -2.75,-0.82 -2.75,-0.82 a 2.89,2.89 0 0 1 2.13,1.35 c -2.09,-1.18 -2.52,0.49 -2.52,0.49 1.47,-0.46 1.67,0.32 1.67,0.32 -1.7,0.1 -1.83,1.38 -1.83,1.38 a 2.36,2.36 0 0 1 1.83,-0.46 c -1.5,1.24 -0.95,2 -0.95,2 a 5.18,5.18 0 0 1 1.37,-1.21 c -0.39,-2.16 2.13,-3.37 2.13,-3.37 z"
     class="cls-1" />
  <path
     style="fill:#1d1d1b;fill-rule:evenodd"
     id="path14"
     d="m 6.1600005,55.87 c 0,0 -0.16,0.07 -0.16,0.14 0,0.07 0.15,0.14 0.15,0.14 a 2,2 0 0 1 1.07,1.61 2.29,2.29 0 0 0 -1.44,-0.87 1.64,1.64 0 0 0 -1.23,0.39 c 0,0 -0.14,0.12 -0.11,0.18 0.03,0.06 0.2,0.07 0.2,0.07 a 2.6,2.6 0 0 1 1.62,0.8 1.78,1.78 0 0 0 -1.37,-0.06 1.44,1.44 0 0 0 -0.78,0.91 c 0,0 0,0.16 0,0.19 0,0.03 0.19,0 0.19,0 a 1.65,1.65 0 0 1 1.24,0 0.49,0.49 0 0 1 0.13,0.1 1.84,1.84 0 0 0 -1.73,1.48 c 0,0 0,0.19 0,0.22 0,0.03 0.21,-0.07 0.21,-0.07 a 2.62,2.62 0 0 1 1.4,-0.47 2.18,2.18 0 0 0 -0.85,1.51 0.91,0.91 0 0 0 0.13,0.49 c 0,0 0.06,0.08 0.11,0.08 0.05,0 0.12,-0.09 0.12,-0.09 a 5,5 0 0 1 1.33,-1.16 l 0.1,-0.05 V 61.3 a 2,2 0 0 1 0,-0.42 2.59,2.59 0 0 1 0.71,-1.71 v 0 a 5.28,5.28 0 0 1 1.37,-1.07 l 0.1,-0.05 v -0.11 a 2.55,2.55 0 0 0 -1.09,-1.93 1.7,1.7 0 0 0 -1.42,-0.14 z m -1.15,2.67 a 2,2 0 0 1 1.69,0.32 l 0.2,0.11 a 3,3 0 0 0 -0.7,1.42 l -0.24,-0.07 a 2.38,2.38 0 0 0 -1.62,0.3 1.66,1.66 0 0 1 1.59,-0.93 h 0.18 v -0.17 a 0.78,0.78 0 0 0 -0.38,-0.44 1.69,1.69 0 0 0 -1.18,-0.07 1.08,1.08 0 0 1 0.46,-0.47 z m 0.74,-1.36 a 2.29,2.29 0 0 1 1.52,1.11 l 0.13,0.18 a 4.51,4.51 0 0 0 -0.39,0.37 2,2 0 0 1 -0.11,-0.19 3.08,3.08 0 0 0 -1.84,-1.34 1.2,1.2 0 0 1 0.69,-0.13 z m 1.63,-1 a 2.23,2.23 0 0 1 0.92,1.62 6.07,6.07 0 0 0 -0.77,0.52 1.38,1.38 0 0 1 0,-0.14 v -0.09 a 2.58,2.58 0 0 0 -0.94,-2.05 1.37,1.37 0 0 1 0.79,0.17 z m -2.36,5.88 c 0,-0.31 0.17,-0.83 1,-1.51 l 0.18,-0.15 a 2.58,2.58 0 0 0 0,0.4 2.46,2.46 0 0 0 0,0.37 5,5 0 0 0 -1.15,1 0.3,0.3 0 0 1 -0.03,-0.08 z"
     class="cls-2" />
  <path
     style="fill:#e30518;fill-rule:evenodd"
     id="path16"
     d="m 27.1,88.95 c -3,-0.75 -2.77,1.11 -2.77,1.11 0.33,-0.75 2.39,-0.39 2.39,-0.39 -1.92,0.4 -1.87,1.83 -1.87,1.83 a 3.14,3.14 0 0 1 2.16,-0.92 c -1.83,1.41 -1.21,2.26 -1.21,2.26 a 4.63,4.63 0 0 1 2.09,-1.31 c -1.34,1.6 -0.33,2.29 -0.33,2.29 0.33,-1.47 1.27,-1.7 1.27,-1.7 -0.39,1.47 0.69,1.83 0.69,1.83 -0.13,-1.31 0.49,-1.76 0.49,-1.76 -3.92,-1.31 -2.91,-3.24 -2.91,-3.24 z"
     class="cls-1" />
  <path
     style="fill:#1d1d1b;fill-rule:evenodd"
     id="path18"
     d="m 24.58,89.01 a 1,1 0 0 0 -0.38,1 c 0,0.13 0.06,0.16 0.13,0.16 0.07,0 0.11,-0.18 0.33,-0.28 A 3.08,3.08 0 0 1 26,89.74 2,2 0 0 0 24.710001,91.49 c 0,0 0,0.26 0.06,0.27 0.06,0.01 0.199999,-0.18 0.199999,-0.18 a 2.72,2.72 0 0 1 1.56,-0.81 2.35,2.35 0 0 0 -1,1.66 0.91,0.91 0 0 0 0.13,0.49 c 0,0 0,0.09 0.110001,0.09 0.11,0 0.12,-0.09 0.12,-0.09 a 4.16,4.16 0 0 1 1.56,-1.09 2.18,2.18 0 0 0 -0.42,1.18 1.28,1.28 0 0 0 0,0.19 1.07,1.07 0 0 0 0.42,0.73 c 0,0 0.1,0.09 0.15,0.06 0.05,-0.03 0.07,-0.15 0.07,-0.15 a 2.17,2.17 0 0 1 0.93,-1.48 2.26,2.26 0 0 0 0,0.35 1.4,1.4 0 0 0 0.87,1.37 c 0,0 0.13,0.06 0.17,0 0.04,-0.06 0,-0.19 0,-0.19 -0.110001,-1.19 0.41,-1.61 0.44,-1.63 l 0.22,-0.17 L 30.03,92.01 c -1.909999,-0.64 -2.58,-1.43 -2.8,-2 a 1.31,1.31 0 0 1 0,-1.06 l 0.09,-0.17 h -0.18 a 2.82,2.82 0 0 0 -2.56,0.23 z m 0.2,0.22 a 2.5,2.5 0 0 1 2.12,-0.17 1.77,1.77 0 0 0 -0.06,0.46 1.71,1.71 0 0 0 0.13,0.66 l 0.13,0.26 h -0.09 a 3.51,3.51 0 0 0 -1.94,0.64 2,2 0 0 1 1.68,-1.26 v -0.29 a 4,4 0 0 0 -2.23,0.14 0.91,0.91 0 0 1 0.26,-0.44 z m 1.07,3.22 c 0,-0.34 0.19,-0.94 1.25,-1.75 l 0.11,-0.09 a 3,3 0 0 0 0.75,0.75 h -0.11 a 4.93,4.93 0 0 0 -2,1.17 c 0,0 0,-0.07 0,-0.07 z m 1.5,0.71 a 0.66,0.66 0 0 1 0,-0.14 2.36,2.36 0 0 1 0.66,-1.39 l 0.13,-0.16 a 6,6 0 0 0 0.84,0.46 h -0.17 a 2.15,2.15 0 0 0 -1.31,1.56 0.84,0.84 0 0 1 -0.15,-0.33 z m 1.54,-0.44 a 2.51,2.51 0 0 1 0.08,-0.56 l 0.06,-0.2 c 0.22,0.1 0.46,0.2 0.72,0.29 a 2.09,2.09 0 0 0 -0.4,1.35 c 0,0 0,0.07 0,0.1 a 1.13,1.13 0 0 1 -0.43,-0.98 z"
     class="cls-2" />
  <path
     style="fill:#e30518;fill-rule:evenodd"
     id="path20"
     d="m 11.39,84.75 c -2.3399995,-1.27 -2.9999995,0.6 -2.9999995,0.6 A 2.29,2.29 0 0 1 10.65,85.52 C 8.5400005,85.77 8.5600005,86.94 8.5600005,86.94 A 2.58,2.58 0 0 1 10.74,86.63 C 8.7400005,87.29 9.0800005,88.36 9.0800005,88.36 10.34,87.36 10.98,87.5 10.98,87.5 c -1.3999995,1.27 -0.9999995,2 -0.9999995,2 A 2.26,2.26 0 0 1 11.6,88.38 c -0.77,1.21 -0.229999,1.78 -0.229999,1.78 A 1.89,1.89 0 0 1 12.79,88.88 c -1.35,-1.5 -1.78,-2.6 -1.77,-3.28 a 1.14,1.14 0 0 1 0.35,-0.83 z"
     class="cls-1" />
  <path
     style="fill:#1d1d1b;fill-rule:evenodd"
     id="path22"
     d="m 9.2800005,84.29 a 1.53,1.53 0 0 0 -1,1 c 0,0 0,0.18 0,0.23 0,0.05 0.16,0 0.16,0 A 2.74,2.74 0 0 1 10.17,85.44 c -1.6899995,0.37 -1.7399995,1.39 -1.7399995,1.49 0,0.1 0,0.21 0.06,0.23 0.06,0.02 0.19,-0.12 0.19,-0.12 A 2.05,2.05 0 0 1 10.21,86.67 c -1.1199995,0.51 -1.2899995,1.16 -1.2899995,1.5 a 1,1 0 0 0 0,0.23 c 0,0 0,0.15 0.09,0.16 0.09,0.01 0.15,-0.09 0.15,-0.09 a 4.32,4.32 0 0 1 1.3700005,-0.76 2.27,2.27 0 0 0 -0.7700005,1.5 0.86,0.86 0 0 0 0.06,0.33 c 0,0 0.09,0.18 0.15,0.18 0.060001,0 0.1200005,-0.18 0.1200005,-0.18 a 2,2 0 0 1 1.18,-1 2.13,2.13 0 0 0 -0.270001,1 1,1 0 0 0 0.23,0.69 c 0,0 0.1,0.11 0.14,0.1 0.04,-0.01 0.09,-0.14 0.09,-0.14 A 1.76,1.76 0 0 1 12.78,89 h 0.28 l -0.19,-0.21 c -1.3,-1.44 -1.8,-2.46 -1.8,-3.11 a 1.21,1.21 0 0 1 0.34,-0.82 l 0.15,-0.13 -0.15,-0.08 A 2.62,2.62 0 0 0 9.2800005,84.29 Z m 0.11,0.28 a 2.29,2.29 0 0 1 1.7900005,0.25 1.38,1.38 0 0 0 -0.25,0.69 l -0.16,-0.11 a 2.17,2.17 0 0 0 -2.0000005,-0.35 1.1,1.1 0 0 1 0.62,-0.48 z m 1.3100005,1.1 h 0.23 A 2.16,2.16 0 0 0 11.19,86.62 l -0.36,-0.11 a 3,3 0 0 0 -1.9999995,0.11 c 0.2,-0.36 0.66,-0.8 1.8700005,-0.95 z m 0.13,1.1 0.38,-0.13 a 6.94,6.94 0 0 0 1.33,2.14 2.06,2.06 0 0 0 -1.16,1 1.29,1.29 0 0 1 0,-0.23 2.12,2.12 0 0 1 0.4,-1.11 l 0.17,-0.26 h -0.32 a 2.47,2.47 0 0 0 -1.47,0.82 2.82,2.82 0 0 1 1,-1.42 l 0.23,-0.22 -0.31,-0.05 a 3,3 0 0 0 -1.7900005,0.74 c 0.01,-0.29 0.27,-0.86 1.5400005,-1.28 z"
     class="cls-2" />
  <path
     style="fill:#1d1d1b;fill-rule:evenodd;stroke:#1d1d1b;stroke-width:0;stroke-miterlimit:3.8599999"
     id="path24"
     d="m 23.49,70.19 c 2.29,1.95 3,3.61 2.36,5.11 C 17.11,75.13 20.680001,87.15 20.680001,87.15 21.31,89 18.88,89.15 18.88,89.15 a 29.64,29.64 0 0 1 -6.21,0 c -1.5,-0.07 -2.639999,-3 -2.05,-4 a 0.81,0.81 0 0 1 1.21,-0.45 c 1.77,0.58 3.47,0.62 3.44,-0.22 a 3.59,3.59 0 0 0 0.8,1.29 l 0.24,-0.21 a 6.43,6.43 0 0 1 -1.11,-2.74 6,6 0 0 1 -0.07,-1.5 c 0,-0.12 -0.389999,0.08 -0.419999,0 a 2.92,2.92 0 0 1 0.35,-1.7 c 0,-0.16 -0.47,0.11 -0.490001,0 a 2.08,2.08 0 0 1 0.210001,-1.18 c 0,-0.09 -0.300001,0.09 -0.310001,0 a 3.35,3.35 0 0 1 0.48,-1.77 c 0,-0.14 -0.4,-0.13 -0.389999,-0.25 a 2.91,2.91 0 0 1 1,-1.7 c 0,-0.11 -0.620001,-0.08 -0.590001,-0.19 a 3.14,3.14 0 0 1 1.28,-1.38 c 0.09,-0.12 -0.37,-0.28 -0.28,-0.39 a 7.66,7.66 0 0 1 0.67,-0.89 C 19.3,69.5 23.47,70.2 23.47,70.2 Z m -4.33,18.42 c 0.62,-2.53 -4,-2 -4,-2 -4.06,0.31 -3.62,-0.87 -3.62,-0.87 l -0.26,0.07 c -0.11,1.6 4,1.13 4,1.13 4.2,-0.42 3.58,1.69 3.58,1.69 h 0.28 z"
     class="cls-3" />
  <path
     style="fill:#e30518;fill-rule:evenodd"
     id="path26"
     d="m 26.84,49.88 c -1.25,-0.53 -4.65,0.18 -5.86,0.13 -3.12,0.07 -2.59,-2.18 -2.24,-2.83 0,-0.09 0.14,0 0.14,0 a 2.17,2.17 0 0 0 2.36,1.65 c 5.6,-0.33 6,0.71 6,0.71 l -0.44,0.38 z"
     class="cls-1" />
  <path
     style="fill:#1d1d1b;fill-rule:evenodd"
     id="path28"
     d="m 18.66,47.08 a 2.42,2.42 0 0 0 -0.22,1.95 c 0.300001,0.79 1.16,1.17 2.54,1.14 a 17.75,17.75 0 0 0 1.85,-0.14 c 1.41,-0.15 3.17,-0.34 4,0 h 0.09 l 0.6,-0.52 -0.05,-0.11 c -0.05,-0.11 -0.63,-1.13 -6.19,-0.81 a 1.88,1.88 0 0 1 -2.13,-1.46 c 0,0 -0.05,-0.29 -0.13,-0.31 -0.08,-0.02 -0.24,0.1 -0.36,0.26 z m 0.09,1.87 A 1.32,1.32 0 0 1 18.64,48.4 c 0,-0.35 0.11,-0.91 0.21,-0.9 0.1,0.01 0.08,0.14 0.15,0.32 a 2.28,2.28 0 0 0 2.210001,1.13 v 0 c 4.349999,-0.26 5.52,0.32 5.8,0.54 l -0.24,0.22 a 11.16,11.16 0 0 0 -4,0 14.53,14.53 0 0 1 -1.82,0.13 c -1.2,0.04 -1.95,-0.26 -2.200001,-0.89 z"
     class="cls-2" />
  <path
     style="fill:#ffffff;fill-rule:evenodd"
     id="path30"
     d="m 22.59,46.12 a 3,3 0 0 0 0,1.81 3.45,3.45 0 0 1 0.87,-1.57 3.54,3.54 0 0 0 0.17,1.64 3.62,3.62 0 0 1 0.83,-1.64 z"
     class="cls-4" />
  <path
     style="fill:#1d1d1b;fill-rule:evenodd"
     id="path32"
     d="m 22.52,46.1 a 3,3 0 0 0 0,1.85 c 0,0 0.05,0.16 0.07,0.16 0.02,0 0.07,-0.16 0.07,-0.16 a 3.57,3.57 0 0 1 0.71,-1.39 c 0,0.08 0,0.17 0,0.25 a 3.51,3.51 0 0 0 0.2,1.22 c 0,0 0.06,0.16 0.09,0.16 0.03,0 0.05,-0.18 0.05,-0.18 a 3.7,3.7 0 0 1 0.81,-1.6 l 0.1,-0.1 -2.07,-0.27 z m 0,0.92 a 3.13,3.13 0 0 1 0.12,-0.82 l 0.78,0.1 v 0 a 3.55,3.55 0 0 0 -0.82,1.36 3.38,3.38 0 0 1 -0.08,-0.64 z m 1,-0.22 a 3.22,3.22 0 0 1 0,-0.43 v -0.06 l 0.79,0.11 a 3.69,3.69 0 0 0 -0.7,1.31 3.75,3.75 0 0 1 -0.11,-0.93 z"
     class="cls-2" />
  <path
     style="fill:#ffffff;fill-rule:evenodd"
     id="path34"
     d="m 25.09,50.46 a 4.58,4.58 0 0 1 -1.08,-1.08 2.09,2.09 0 0 0 0.21,1 4.3,4.3 0 0 1 -1.22,-1 2.18,2.18 0 0 0 0.32,1.08 l 1.77,-0.07 z"
     class="cls-4" />
  <path
     style="fill:#1d1d1b;fill-rule:evenodd"
     id="path36"
     d="m 23.92,49.3 a 1.09,1.09 0 0 0 0,0.18 2,2 0 0 0 0.15,0.72 5.09,5.09 0 0 1 -1,-0.86 c 0,0 -0.08,-0.12 -0.1,-0.11 -0.02,0.01 0,0.15 0,0.15 a 2.15,2.15 0 0 0 0.330001,1.12 v 0 l 1.06,-0.05 v 0 0 h 0.94 l -0.18,-0.13 A 4.46,4.46 0 0 1 24.06,49.26 c 0,0 -0.05,-0.1 -0.08,-0.09 -0.03,0.01 -0.06,0.13 -0.06,0.13 z m -0.86,0.28 a 4.08,4.08 0 0 0 1,0.78 h -0.72 a 2.36,2.36 0 0 1 -0.33,-0.78 z m 1.21,0.75 a 2.07,2.07 0 0 1 -0.21,-0.81 4.57,4.57 0 0 0 0.8,0.81 h -0.58 z"
     class="cls-2" />
  <path
     style="fill:#1d1d1b;fill-rule:evenodd;stroke:#1d1d1b;stroke-width:0;stroke-miterlimit:3.8599999"
     id="path38"
     d="m 28.33,46.1 h 0.37 c 0,0.24 0.18,0.35 0.41,0.36 a 0.44,0.44 0 0 0 0.44,-0.43 h 0.37 a 0.74,0.74 0 0 1 -0.79,0.8 0.77,0.77 0 0 1 -0.78,-0.8 z m 4.46,2.4 a 1.82,1.82 0 0 0 2.12,-1.81 c -0.09,-1.16 -1.18,-1.6 -2.669999,-1.32 -0.460001,-0.89 -0.63,-1.7 -1.740001,-2 -2.849999,-0.66 -3.59,0.81 -5.93,1.09 a 3.55,3.55 0 0 1 -1.66,-0.11 c -0.259999,-0.06 -0.65,-0.12 -0.74,0 a 1,1 0 0 0 -0.16,1.08 c 0.14,0.15 0.17,0.12 0.22,0.19 0.05,0.07 0,0.26 0,0.26 a 1.62,1.62 0 0 0 -0.43,1.2 c 1.63,-0.45 4.71,-0.19 4.48,2.26 -0.07,0.74 -1.6,1.39 -3.54,0.74 l 0.21,1 a 8.93,8.93 0 0 1 2.67,0.16 c 2.23,0.93 4.27,0.18 5,-0.78 1.46,-2 -0.08,-4.27 2.26,-4.7 a 1.65,1.65 0 0 1 1.66,0.52 l -0.13,0.14 a 2,2 0 0 0 -1.72,-0.31 c -1.39,0.49 -0.43,3.15 -1.65,4.62 -1.93,2.33 -4.8,0.69 -7.36,2.4 a 6.78,6.78 0 0 0 -3,5.64 9.38,9.38 0 0 1 1.77,-0.45 l 0.11,0.27 a 62,62 0 0 0 -8.44,2.64 3.91,3.91 0 0 1 -4.6499995,-1 l 0.14,-0.14 C 10.83,61.09 11.76,61.24 12.08,61.09 10.65,60.57 10.62,58.17 8.2900005,57.3 c -1.35,-0.63 -3.19,2.92 -2.36,3.62 0.11,0.69 0.86,0.6 1.39,1 1.46,1.11 1.91,2.14 3.6499995,3 a 7.45,7.45 0 0 0 1.45,0.41 c 0.17,0 -0.08,-0.34 0.11,-0.31 a 3.61,3.61 0 0 0 1.38,0.53 c 0.16,0 0,-0.54 0.14,-0.53 a 3.84,3.84 0 0 0 1.71,0.65 c 0.16,0 0,-0.3 0.17,-0.3 a 2.83,2.83 0 0 0 1.18,0.3 c 0.15,0 0,-0.38 0.14,-0.37 a 3,3 0 0 0 1.28,0.42 c 0.15,0 -0.15,-0.44 0,-0.45 a 2.64,2.64 0 0 0 1.32,0.35 c 0.14,0 -0.14,-0.32 0,-0.35 0.4,-0.1 1.23,0.08 1.66,0 a 4,4 0 0 0 4.13,-2.54 l 0.38,0.1 c -1.1,3.1 -4.51,2.82 -4.51,2.82 a 5.91,5.91 0 0 0 0.8,2.78 c 0.59,0.94 3.37,2.55 4.17,4.94 0.55,1.67 -1.63,3.68 -1.22,6.08 l 0.35,0.07 a 6.07,6.07 0 0 0 0,1.5 1.6,1.6 0 0 0 0.56,-0.32 3.54,3.54 0 0 0 0.17,1.67 3.34,3.34 0 0 1 0.45,-0.73 4.13,4.13 0 0 0 0.46,2 3.58,3.58 0 0 1 0.2,-0.73 3.92,3.92 0 0 0 0.45,1.32 5.93,5.93 0 0 1 0.35,-0.59 3.15,3.15 0 0 0 0.59,1.56 3.1,3.1 0 0 1 0.18,-0.83 2.16,2.16 0 0 0 0.41,1.07 c 0.21,0.35 3.44,3.17 1.7,4.31 0,-0.17 -0.17,-0.13 -0.17,-0.13 a 1.21,1.21 0 0 0 0.24,-0.94 c -3.23,-1.46 -4.75,0.24 -4.75,0.24 a 1.38,1.38 0 0 0 0,1.39 4,4 0 0 0 2.64,2.33 c 1.32,0.45 6.06,-0.89 6.8,-3.86 0.25,-1 -2.35,-3.67 -2.6,-6.32 -0.07,-0.74 -0.17,-5.33 -0.1,-7.89 a 3.77,3.77 0 0 0 -0.7,-1.36 L 32.7,73 c 0.38,0.07 1,1.39 1,1.39 a 1.73,1.73 0 0 0 0.14,-1.18 c 0.28,0 0.58,0.76 0.58,0.76 a 2.63,2.63 0 0 0 0.22,-1.56 c -0.18,-1.64 -1.85,-2.9 -2.5,-5 -0.88,-2.79 -0.69,-5 -0.87,-7.44 a 1.28,1.28 0 0 0 0.66,0.27 1.91,1.91 0 0 1 0,-1.14 3.77,3.77 0 0 0 0.86,0.59 3.08,3.08 0 0 1 -0.07,-1.49 1.71,1.71 0 0 0 0.91,0.38 5.68,5.68 0 0 1 -0.42,-1.92 1.09,1.09 0 0 0 0.87,0.21 c -0.52,-0.59 -0.14,-1.21 -0.63,-2 a 2.29,2.29 0 0 0 0.8,0 1.78,1.78 0 0 1 -0.62,-1.77 c 1.25,-3.65 -0.77,-4.62 -0.77,-4.62 z"
     class="cls-3" />
  <path
     style="fill:#ffffff;fill-rule:evenodd"
     id="path40"
     d="m 27.85,45.72 a 7,7 0 0 1 2.44,-0.28 v -0.23 a 5.57,5.57 0 0 0 -2.55,0.41 z"
     class="cls-4" />
  <path
     style="fill:#ffffff;fill-rule:evenodd"
     id="path42"
     d="m 33.99,46.74 c 0.08,0.89 -0.81,0.83 -1.24,0.76 0,0.13 0,0.15 0,0.15 1.45,0.31 1.51,-0.76 1.46,-0.92 a 0.42,0.42 0 0 0 -0.2,0 z"
     class="cls-4" />
  <path
     style="fill:#1d1d1b;fill-rule:evenodd;stroke:#1d1d1b;stroke-width:0;stroke-miterlimit:3.8599999"
     id="path44"
     d="m 21.86,53.85 a 7.74,7.74 0 0 0 -1.66,5.07 3.08,3.08 0 0 0 -1,0.21 2.52,2.52 0 0 1 -0.63,-0.41 c -0.1,0.14 -0.31,0.38 -0.31,0.38 a 3.6,3.6 0 0 1 -1,-1.08 1.49,1.49 0 0 1 -0.31,0.45 7.33,7.33 0 0 1 -1,-0.94 1,1 0 0 1 -0.24,0.39 4.78,4.78 0 0 1 -0.8,-1.29 c -0.1,0.17 -0.31,0.45 -0.31,0.45 a 5.5,5.5 0 0 1 -0.66,-1.14 1.19,1.19 0 0 1 -0.38,0.31 6.52,6.52 0 0 1 -0.66,-1.08 c 0,0.17 -0.31,0.35 -0.31,0.35 a 4.23,4.23 0 0 1 -0.67,-1.06 c -0.07,0.17 -0.35,0.2 -0.35,0.2 A 3.83,3.83 0 0 1 11.08,53.34 L 10.6,53.41 A 6.36,6.36 0 0 1 9.7700005,51.68 c -1.81,0.41 -2.64,-5.15 -2.64,-5.15 a 0.69,0.69 0 0 1 0.17,-0.87 5.51,5.51 0 0 1 2,-1.56 A 1.09,1.09 0 0 1 10.69,44.3 c 0.45,0.66 0.62,3.62 0.62,3.62 a 3,3 0 0 0 1.67,2.5 75.83,75.83 0 0 1 8.95,3.48 z M 9.3700005,45.46 C 9.2600005,46.53 10.65,48.41 10.31,49.73 a 2.2,2.2 0 0 1 -0.7999995,1.18 l 0.1,0.11 C 10.2,50.61 10.61,50.65 10.72,49.56 c 0.11,-1.09 -0.59,-2.48 -0.8299995,-3.44 -0.24,-0.96 -0.06,-0.65 0,-1.15 l -0.25,-0.05 a 1,1 0 0 0 -0.27,0.54 z"
     class="cls-3" />
  <path
     style="fill:#1d1d1b;fill-rule:evenodd;stroke:#1d1d1b;stroke-width:0;stroke-miterlimit:3.8599999"
     id="path46"
     d="m 41.92,75.53 c 1.58,-0.12 4.69,-0.57 4.73,-3.9 0,-3.78 -5.23,-3.38 -5.56,-3.38 h -5.17 v 0.16 c 0.67,0.07 1.28,-0.11 1.28,1.36 v 11.42 c 0,1.41 -1.59,1.55 -1.59,1.55 v 0.17 h 5.38 v -0.17 c 0,0 -1.66,-0.14 -1.65,-1.53 v -5.69 h 0.48 c 0.59,2 3.33,8 8.75,7.68 -3.07,-1.16 -6.19,-6.09 -6.63,-7.71 z m -2.6,-6.72 c 0,0 5.13,-0.4 5.12,3.3 0,3.27 -5.12,2.75 -5.12,2.75 v -6 z"
     class="cls-3" />
  <path
     style="fill:#1d1d1b;fill-rule:evenodd;stroke:#1d1d1b;stroke-width:0;stroke-miterlimit:3.8599999"
     id="path48"
     d="m 13.13,69.85 a 2,2 0 0 1 1.930001,-1.45 v -0.16 h -4.5 V 68.4 A 1.33,1.33 0 0 1 11.95,70.33 l -3.6299995,9.58 c 0,0 -2.86,-8.06 -3.55,-9.93 -0.4,-1.06 1,-1.58 1.68,-1.58 0,0.06 0,-0.16 0,-0.16 H 5e-7 v 0.16 a 2.78,2.78 0 0 1 2.46,1.76 l 5.24,13.65 5.4300005,-14 z"
     class="cls-3" />
  <path
     style="fill:#e30518;fill-rule:evenodd"
     id="path50"
     d="m 26.06,74.21 a 6.69,6.69 0 0 0 -2.75,-2.82 c 0,0 -0.1,-0.06 -0.08,-0.11 0.02,-0.05 0.11,0 0.22,0 a 4.3,4.3 0 0 1 1.84,0.81 3.63,3.63 0 0 1 0.77,2.12 z"
     class="cls-1" />
  <path
     style="fill:#1d1d1b;fill-rule:evenodd;stroke:#1d1d1b;stroke-width:0;stroke-miterlimit:3.8599999"
     id="path52"
     d="m 32.47,45.1 a 5,5 0 0 1 0.85,0 c 0.520001,-0.38 0.43,-1.26 -0.06,-1.9 -0.49,-0.64 -2.06,-0.87 -2.48,0 a 2.64,2.64 0 0 1 0.66,0.33 2.45,2.45 0 0 1 0.63,0.79 c 0.18,0.31 0.4,0.78 0.4,0.78 z"
     class="cls-3" />
  <path
     style="fill:#1d1d1b"
     id="path54"
     d="M 94.590001,62.88 93.05,58.51 h -7.13 l -1.54,4.37 h -4.2 l 7.5,-19.6 h 3.81 l 7.45,19.6 z m -4.15,-11.65 c -0.39,-1.15 -0.78,-2.32 -1,-3 -0.19,0.73 -0.58,1.9 -1,3 l -1.26,3.56 h 4.48 z"
     class="cls-5" />
  <path
     style="fill:#1d1d1b"
     id="path56"
     d="m 109.29,63.19 a 4.62,4.62 0 0 1 -3.1,-1.15 v 4.32 l -3.87,1.93 V 48.18 h 3.87 v 0.92 a 4.51,4.51 0 0 1 3.1,-1.23 c 3.14,0 5.72,2.35 5.72,7.84 0,4.4 -2.09,7.48 -5.72,7.48 z m -0.72,-11.68 a 2.7,2.7 0 0 0 -2.38,1.24 v 5.54 a 3.06,3.06 0 0 0 2.6,1.26 c 1.48,0 2.3,-1.29 2.3,-3.75 0,-3.03 -1.01,-4.29 -2.52,-4.29 z"
     class="cls-5" />
  <path
     style="fill:#1d1d1b"
     id="path58"
     d="m 126.44,63.19 a 4.63,4.63 0 0 1 -3.11,-1.15 v 4.32 l -3.87,1.93 V 48.18 h 3.87 v 0.92 a 4.56,4.56 0 0 1 3.11,-1.23 c 3.13,0 5.71,2.35 5.71,7.84 0,4.4 -2.07,7.48 -5.71,7.48 z m -0.73,-11.68 a 2.7,2.7 0 0 0 -2.38,1.24 v 5.54 a 3.08,3.08 0 0 0 2.6,1.26 c 1.49,0 2.3,-1.29 2.3,-3.75 0,-3.03 -1.01,-4.29 -2.52,-4.29 z"
     class="cls-5" />
  <path
     style="fill:#1d1d1b"
     id="path60"
     d="m 148.54,56.78 h -8.8 a 2.83,2.83 0 0 0 3,2.77 3.27,3.27 0 0 0 2.52,-1 l 2.74,2.3 a 6.85,6.85 0 0 1 -5.26,2.38 c -4.23,0 -6.92,-3 -6.92,-7.64 0,-4.64 2.83,-7.68 6.55,-7.68 3.92,0 6.19,3.47 6.19,7.68 a 12,12 0 0 1 -0.02,1.19 z m -6.33,-5.55 c -1.4,0 -2.27,1.15 -2.41,2.63 h 5 a 2.61,2.61 0 0 0 -2.59,-2.63 z"
     class="cls-5" />
  <path
     style="fill:#1d1d1b"
     id="path62"
     d="m 161.92,62.88 v -7.95 c 0,-2.63 -0.89,-3.42 -2.49,-3.42 -1.6,0 -2.52,0.79 -2.52,3.34 v 8 h -3.87 v -14.7 h 3.88 v 1 a 4.81,4.81 0 0 1 3.45,-1.29 c 3.75,0 5.43,2.58 5.43,6.72 v 8.29 z"
     class="cls-5" />
  <path
     style="fill:#1d1d1b"
     id="path64"
     d="m 170.64,62.88 v -2.8 l 5.35,-6.35 c 0.59,-0.71 1.45,-1.66 1.85,-2.11 -0.54,0 -1.68,0.06 -2.41,0.06 h -4.32 v -3.5 h 11.68 v 2.8 l -5.18,6.36 c -0.59,0.73 -1.43,1.65 -1.82,2.1 0.53,0 1.68,-0.06 2.41,-0.06 h 4.59 v 3.5 z"
     class="cls-5" />
  <path
     style="fill:#1d1d1b"
     id="path66"
     d="m 199.23,56.78 h -8.79 a 2.83,2.83 0 0 0 3,2.77 3.25,3.25 0 0 0 2.52,-1 l 2.75,2.3 a 6.88,6.88 0 0 1 -5.27,2.38 c -4.23,0 -6.92,-3 -6.92,-7.64 0,-4.64 2.83,-7.68 6.56,-7.68 3.92,0 6.19,3.47 6.19,7.68 a 11.42,11.42 0 0 1 -0.04,1.19 z m -6.31,-5.55 c -1.4,0 -2.27,1.15 -2.41,2.63 h 5 a 2.6,2.6 0 0 0 -2.59,-2.63 z"
     class="cls-5" />
  <path
     style="fill:#1d1d1b"
     id="path68"
     d="M 203.92,62.88 V 44.4 l 3.87,-1.94 v 20.42 z"
     class="cls-5" />
  <path
     style="fill:#1d1d1b"
     id="path70"
     d="M 213.21,62.88 V 44.4 l 3.87,-1.94 v 20.42 z"
     class="cls-5" />
  <path
     style="fill:#1d1d1b"
     id="path72"
     d="m 245.59,62.88 -1.54,-4.37 h -7.13 l -1.54,4.37 h -4.2 l 7.5,-19.6 h 3.81 l 7.45,19.6 z m -4.15,-11.65 c -0.39,-1.15 -0.78,-2.32 -1,-3 -0.19,0.73 -0.58,1.9 -1,3 l -1.26,3.56 h 4.48 z"
     class="cls-5" />
  <path
     style="fill:#1d1d1b"
     id="path74"
     d="m 262.03,62.88 v -1 a 4.8,4.8 0 0 1 -3.44,1.29 c -3.76,0 -5.44,-2.57 -5.44,-6.72 v -8.29 h 3.87 v 7.95 c 0,2.64 0.89,3.42 2.49,3.42 1.6,0 2.52,-0.78 2.52,-3.33 v -8 h 3.89 v 14.7 z"
     class="cls-5" />
  <path
     style="fill:#1d1d1b"
     id="path76"
     d="m 276.68,63.19 a 11.52,11.52 0 0 1 -6.16,-1.73 l 1.29,-2.94 a 10.24,10.24 0 0 0 5.09,1.35 c 1.52,0 2,-0.37 2,-1.12 0,-0.75 -0.54,-1 -2.16,-1.49 -3.53,-1.06 -5.8,-1.93 -5.8,-5 0,-3.07 2.44,-4.37 5.88,-4.37 a 11.73,11.73 0 0 1 5.44,1.43 l -1.23,3.05 a 9.61,9.61 0 0 0 -4.29,-1.17 c -1.57,0 -2,0.3 -2,0.95 0,0.65 0.45,0.87 3.05,1.71 2.6,0.84 4.91,1.82 4.91,4.76 -0.02,3.37 -2.71,4.57 -6.02,4.57 z"
     class="cls-5" />
  <path
     style="fill:#1d1d1b"
     id="path78"
     d="m 292.79,63.19 a 11.47,11.47 0 0 1 -6.16,-1.71 l 1.28,-2.94 a 10.25,10.25 0 0 0 5.1,1.35 c 1.51,0 2,-0.37 2,-1.12 0,-0.75 -0.53,-1 -2.15,-1.49 -3.53,-1.06 -5.8,-1.93 -5.8,-5 0,-3.07 2.43,-4.37 5.88,-4.37 a 11.66,11.66 0 0 1 5.43,1.43 l -1.23,3.05 a 9.54,9.54 0 0 0 -4.28,-1.17 c -1.57,0 -2,0.3 -2,0.95 0,0.65 0.45,0.87 3,1.71 2.55,0.84 4.9,1.82 4.9,4.76 0.02,3.35 -2.67,4.55 -5.97,4.55 z"
     class="cls-5" />
  <path
     style="fill:#1d1d1b"
     id="path80"
     d="m 315.25,56.78 h -8.79 a 2.83,2.83 0 0 0 3,2.77 3.25,3.25 0 0 0 2.52,-1 l 2.75,2.3 a 6.88,6.88 0 0 1 -5.27,2.38 c -4.23,0 -6.92,-3 -6.92,-7.64 0,-4.64 2.83,-7.68 6.56,-7.68 3.92,0 6.19,3.47 6.19,7.68 a 11.42,11.42 0 0 1 -0.04,1.19 z m -6.33,-5.55 c -1.4,0 -2.27,1.15 -2.41,2.63 h 5 a 2.6,2.6 0 0 0 -2.59,-2.63 z"
     class="cls-5" />
  <path
     style="fill:#1d1d1b"
     id="path82"
     d="m 328.39,52.69 a 3.33,3.33 0 0 0 -2.24,-1 c -1.52,0 -2.49,0.64 -2.49,3.19 v 7.95 h -3.87 v -14.7 h 3.87 v 1 a 4.06,4.06 0 0 1 3,-1.29 3.79,3.79 0 0 1 2.72,1 z"
     class="cls-5" />
  <path
     style="fill:#1d1d1b"
     id="path84"
     d="m 341.78,52.69 a 3.35,3.35 0 0 0 -2.24,-1 c -1.52,0 -2.5,0.64 -2.5,3.19 v 7.95 h -3.86 v -14.7 h 3.86 v 1 a 4.08,4.08 0 0 1 3,-1.29 3.79,3.79 0 0 1 2.72,1 z"
     class="cls-5" />
  <path
     style="fill:#1d1d1b"
     id="path86"
     d="m 355.45,62.88 v -7.95 c 0,-2.63 -0.9,-3.42 -2.49,-3.42 -1.59,0 -2.53,0.79 -2.53,3.34 v 8 h -3.86 V 44.4 l 3.86,-1.94 v 6.7 a 4.83,4.83 0 0 1 3.45,-1.29 c 3.75,0 5.43,2.58 5.43,6.72 v 8.29 z"
     class="cls-5" />
  <path
     style="fill:#1d1d1b"
     id="path88"
     d="m 370.21,63.19 c -3.84,0 -6.64,-3.14 -6.64,-7.64 0,-4.5 2.8,-7.68 6.64,-7.68 3.84,0 6.67,3.17 6.67,7.68 0,4.51 -2.83,7.64 -6.67,7.64 z m 0,-11.59 c -1.85,0 -2.72,1.68 -2.72,3.95 0,2.27 0.87,3.92 2.72,3.92 1.85,0 2.75,-1.88 2.75,-3.92 -0.04,-2.25 -0.9,-3.95 -2.75,-3.95 z"
     class="cls-5" />
  <path
     style="fill:#1d1d1b"
     id="path90"
     d="m 389.34,62.88 v -0.92 a 4.56,4.56 0 0 1 -3.11,1.23 c -3.14,0 -5.71,-2.35 -5.71,-7.84 0,-4.4 2.07,-7.48 5.71,-7.48 a 4.68,4.68 0 0 1 3.11,1.15 V 44.4 l 3.87,-1.94 v 20.42 z m 0,-10.11 a 3.09,3.09 0 0 0 -2.61,-1.26 c -1.48,0 -2.29,1.29 -2.29,3.76 0,3 1,4.28 2.52,4.28 a 2.71,2.71 0 0 0 2.38,-1.23 z"
     class="cls-5" />
  <path
     style="fill:#1d1d1b"
     id="path92"
     d="m 410.35,56.78 h -8.8 a 2.83,2.83 0 0 0 3,2.77 3.27,3.27 0 0 0 2.52,-1 l 2.74,2.3 a 6.85,6.85 0 0 1 -5.26,2.38 c -4.23,0 -6.92,-3 -6.92,-7.64 0,-4.64 2.83,-7.68 6.55,-7.68 3.92,0 6.19,3.47 6.19,7.68 0.03,0.51 0,0.87 -0.02,1.19 z m -6.33,-5.55 c -1.4,0 -2.27,1.15 -2.41,2.63 h 5 a 2.61,2.61 0 0 0 -2.59,-2.63 z"
     class="cls-5" />
  <path
     style="fill:#1d1d1b"
     id="path94"
     d="m 423.77,62.88 v -7.95 c 0,-2.63 -0.9,-3.42 -2.5,-3.42 -1.6,0 -2.52,0.79 -2.52,3.34 v 8 h -3.83 v -14.7 h 3.87 v 1 a 4.8,4.8 0 0 1 3.44,-1.29 c 3.76,0 5.44,2.58 5.44,6.72 v 8.29 z"
     class="cls-5" />
  <path
     style="fill:#e30518;fill-rule:evenodd"
     id="path96"
     d="M 64.36,35.93 A 16.31,16.31 0 0 0 48.86,20 h -32 v 7.88 h 39.5 v 39.49 l 8,-4.42 z"
     class="cls-1" />
</svg>
