<?xml version="1.0" encoding="UTF-8"?>
<svg width="137px" height="32px" viewBox="0 0 137 32" version="1.1" xmlns="http://www.w3.org/2000/svg" xmlns:xlink="http://www.w3.org/1999/xlink">
    <!-- Generator: Sketch 50.2 (55047) - http://www.bohemiancoding.com/sketch -->
    <title>concordia</title>
    <desc>Created with Sketch.</desc>
    <defs></defs>
    <g id="concordia" stroke="none" stroke-width="1" fill="none" fill-rule="evenodd">
        <g transform="translate(9.000000, 1.000000)" fill="#4D6E82" fill-rule="nonzero">
            <path d="M16.5297669,17.8384 C16.5297669,16.6244 16.8427061,12.6764 18.8239899,12.6764 C20.8052736,12.6764 21.1166182,16.6244 21.1166182,17.8384 C21.1166182,19.0528 20.8052736,23.0008 18.8239899,23.0008 C16.8427061,23.0008 16.5297669,19.0528 16.5297669,17.8384 Z M11.415902,17.8384 C11.415902,22.588 13.496848,27.9052 18.8239899,27.9052 C24.1479426,27.9052 26.2320777,22.588 26.2320777,17.8384 C26.2320777,13.0888 24.1479426,7.772 18.8239899,7.772 C13.496848,7.772 11.415902,13.0888 11.415902,17.8384 Z" id="Fill-1"></path>
            <path d="M57.9901831,17.8384 C57.9901831,16.6244 58.3027236,12.6764 60.2840074,12.6764 C62.2656899,12.6764 62.5782304,16.6244 62.5782304,17.8384 C62.5782304,19.0528 62.2656899,23.0008 60.2840074,23.0008 C58.3027236,23.0008 57.9901831,19.0528 57.9901831,17.8384 M52.8759196,17.8384 C52.8759196,22.588 54.9600547,27.9052 60.2840074,27.9052 C65.6095547,27.9052 67.6920953,22.588 67.6920953,17.8384 C67.6920953,13.0888 65.6095547,7.772 60.2840074,7.772 C54.9600547,7.772 52.8759196,13.0888 52.8759196,17.8384" id="Fill-3"></path>
            <path d="M32.1212345,21.86576 L32.1212345,27.57016 L27.130552,27.57016 L27.130552,8.10736 L32.0698088,8.10736 L35.8294642,18.56776 C35.8294642,18.56776 35.7238223,15.30776 35.7238223,13.06496 L35.7238223,8.10736 L40.582552,8.10736 L40.582552,27.57016 L35.7238223,27.57016 L32.0550588,17.15856 L32.1212345,21.86576 Z" id="Fill-5"></path>
            <path d="M73.7391568,17.09076 L73.7391568,12.29116 C75.1814676,12.21156 76.4061162,12.93476 76.4061162,14.63716 C76.4061162,15.90276 75.4633122,17.11436 74.0756162,17.11436 L73.7391568,17.09076 Z M82.5512851,27.56996 L78.3949743,19.46476 C80.4803054,18.63796 81.6029,16.72996 81.6029,14.58516 C81.6029,9.44956 78.1147243,8.10716 73.5601635,8.10716 L68.6077514,8.10716 L68.6077514,27.56996 L73.7391568,27.56996 L73.7391568,22.38116 C73.7391568,21.42636 73.6893257,20.47116 73.6646095,19.51756 L73.7144405,19.46476 L76.7369946,27.56436 L82.5512851,27.56996 Z" id="Fill-7"></path>
            <path d="M87.9386628,12.96108 C90.332548,12.96108 90.9404872,15.90268 90.9404872,18.01988 C90.9404872,19.85188 90.332548,22.84788 87.9386628,22.87108 L87.9386628,12.96108 Z M82.8116426,27.56948 L87.2705277,27.56948 C90.4617101,27.56948 96.0926223,26.74428 96.0926223,17.76228 C96.0926223,11.87628 93.7079061,8.07548 87.6097777,8.12868 C85.7122101,8.14788 82.8188182,8.37788 82.8188182,8.37788 L82.8116426,27.56948 Z" id="Fill-9"></path>
            <path d="M108.967778,20.93684 L109.688933,16.42004 C109.891048,15.20604 110.022203,13.96644 110.177676,12.75364 L110.229102,12.75364 C110.35667,13.96644 110.45992,15.20604 110.614197,16.42004 L111.181075,20.93684 L108.967778,20.93684 Z M117.610879,27.57004 L113.494034,8.10724 L107.088947,8.10724 L102.434724,27.57004 L107.836811,27.57004 L108.274528,25.06444 L111.79619,25.06444 L112.183676,27.57004 L117.610879,27.57004 Z" id="Fill-11"></path>
            <path d="M52.8112588,8.27944 C51.9625358,7.94504 50.9372115,7.77104 50.0103534,7.77104 C47.4637858,7.77104 41.4952182,9.24464 41.4952182,17.96584 C41.4952182,24.62664 45.1492318,27.90544 49.4450696,27.90544 C50.6023466,27.90544 51.8788196,27.54624 52.8112588,26.92584 L52.7028264,21.89624 C51.9740966,22.78904 51.3219074,23.00144 50.1395155,23.00144 C47.5152115,23.00144 46.6485493,20.10984 46.6485493,17.83904 C46.6485493,15.69664 47.5152115,12.67704 50.2411709,12.67704 C51.3219074,12.67704 51.9390155,13.08944 52.6864818,13.81144 L52.8112588,8.27944 Z" id="Fill-13"></path>
            <path d="M11.3148047,8.27944 C10.4660818,7.94504 9.44075743,7.77104 8.51549392,7.77104 C5.9685277,7.77104 -3.98648649e-05,9.24464 -3.98648649e-05,17.96584 C-3.98648649e-05,24.62664 3.6527777,27.90544 7.94861554,27.90544 C9.10589257,27.90544 10.3823655,27.54624 11.3148047,26.92584 L11.2087642,21.89624 C10.4792372,22.78904 9.82704797,23.00144 8.64306149,23.00144 C6.01995338,23.00144 5.15368986,20.10984 5.15368986,17.83904 C5.15368986,15.69664 6.01995338,12.67704 8.74750743,12.67704 C9.82704797,12.67704 10.4437574,13.08944 11.1900277,13.81144 L11.3148047,8.27944 Z" id="Fill-15"></path>
            <path d="M99.62445,8.9228 C98.6641054,8.9228 97.7767135,8.6136 97.051173,8.092 L97.051173,27.5692 L102.216464,27.5692 L102.216464,8.108 L102.178193,8.108 C101.455842,8.6208 100.577619,8.9228 99.62445,8.9228" id="Fill-18"></path>
            <path d="M103.12897,3.50872 C103.12897,5.44672 101.561484,7.01752 99.6320243,7.01752 C97.698977,7.01752 96.1318892,5.44672 96.1318892,3.50872 C96.1318892,1.57072 97.698977,0.00032 99.6320243,0.00032 C101.561484,0.00032 103.12897,1.57072 103.12897,3.50872" id="Fill-20"></path>
        </g>
    </g>
</svg>