<?xml version="1.0" encoding="UTF-8"?>
<svg width="330px" height="85px" viewBox="0 0 330 85" version="1.1" xmlns="http://www.w3.org/2000/svg" xmlns:xlink="http://www.w3.org/1999/xlink">
    <title>gl</title>
    <defs>
        <polyline id="path-1" points="0 -2.83106871e-15 0 84.1 49.9 84.1 49.9 -2.83106871e-15"></polyline>
    </defs>
    <g id="Page-1" stroke="none" stroke-width="1" fill="none" fill-rule="evenodd">
        <g id="gl" transform="translate(0, 0.2)">
            <polygon id="Path" fill="#1D1D1B" fill-rule="nonzero" points="0.3 4.9 3.9 4.9 3.7 27.4 15.4 15.3 17.8 17.7 8.2 26.9 18.1 37.9 15.2 40.2 3.7 27.5 3.6 39.2 0 39.2"></polygon>
            <path d="M42.2,38.1 C41,39.1 39.5,39.7 38,39.8 C36,39.8 34.8,37.9 34.6,36 C32.9,38.1 30.7,39.8 27.7,39.8 C24.3,40 21.3,37.4 21.1,34 C21.1,33.8 21.1,33.5 21.1,33.3 C21.1,26.9 29.4,25.4 34.4,25.2 C34.4,24.2 34.5,23.3 34.5,22.3 C34.7,20.6 33.4,19 31.7,18.9 C31.5,18.9 31.2,18.9 31,18.9 C29.2,18.9 27.8,19.5 24.4,22 L23,19.6 C27.6,16.6 29,15.8 32.3,15.8 C36.1,15.8 38,18 38,21.6 C38,25.8 37.7,29.8 37.7,33.8 C37.7,35.4 37.9,37 39.3,37 C40,37 40.7,36.7 41.2,36.2 L42.2,38.1 Z M34.5,27.3 C28.2,28.1 24.9,29.3 24.9,33.2 C24.9,35.7 26.4,37.1 29,37.1 C31.2,37.1 33,35.5 34.4,33.8 L34.5,27.3 Z" id="Shape" fill="#1D1D1B" fill-rule="nonzero"></path>
            <path d="M45.8,16.4 L49.5,16.4 L49.4,20 L49.5,20 C51.3,17.4 54.1,15.8 57.2,15.7 C62.5,15.7 64.1,18.4 64.1,22.6 C64.1,24.3 64.1,26.1 64.1,27.8 L64,39.2 L60.3,39.2 L60.4,29 C60.4,27 60.4,25 60.4,22.7 C60.4,20.2 58.7,19.1 56.2,19.1 C53.7,19.1 51.7,20.5 49.4,23.3 L49.2,39.2 L45.6,39.2 L45.8,16.4 Z" id="Path" fill="#1D1D1B" fill-rule="nonzero"></path>
            <path d="M72.5,16.4 L72.6,8 L76.3,8 L76.2,16.4 L82.4,16.4 L82.4,19.1 L76.1,19.1 L76,28.5 C76,31.1 76,32.7 76,33.9 C76,35.8 76.6,36.8 78.1,36.8 C79.4,36.7 80.7,36.2 81.8,35.5 L82.9,37.8 C81.2,39 79.2,39.7 77.2,39.8 C73.7,39.8 72.3,37.6 72.3,34 C72.3,32.5 72.3,30.6 72.3,27.5 L72.4,19.2 L68.6,19.2 L68.6,16.4 L72.5,16.4 Z" id="Path" fill="#1D1D1B" fill-rule="nonzero"></path>
            <path d="M95.7,15.8 C102.4,15.8 106.3,20.4 106.3,27.8 C106.3,33.7 102.4,39.8 95.2,39.8 C88.5,39.8 84.6,35.3 84.6,27.8 C84.6,21.9 88.4,15.8 95.7,15.8 Z M95.2,37.1 C98.6,37.1 102.3,34.1 102.3,27.8 C102.3,21.5 99.3,18.5 95.5,18.5 C92.1,18.5 88.4,21.5 88.4,27.8 C88.4,34.1 91.5,37.1 95.2,37.1 Z" id="Shape" fill="#1D1D1B" fill-rule="nonzero"></path>
            <path d="M111.7,16.4 L115.4,16.4 L115.3,20 L115.4,20 C117.1,17.4 120,15.9 123.1,15.7 C128.4,15.7 130,18.4 130,22.6 C130,24.3 130,26.1 130,27.8 L129.9,39.1 L126.2,39.1 L126.3,28.9 C126.3,26.9 126.3,24.9 126.3,22.6 C126.3,20.1 124.6,19 122.1,19 C119.6,19 117.6,20.4 115.3,23.2 L115.1,39.1 L111.4,39.1 L111.7,16.4 Z" id="Path" fill="#1D1D1B" fill-rule="nonzero"></path>
            <path d="M149.7,15.3 C145.2,15.3 140.6,18 140.6,23.3 C140.5,25.5 141.7,27.6 143.6,28.7 C140,31 138.4,32 138.4,34.1 C138.4,36.4 141,36.9 143.1,37.4 C140.6,38.7 138.4,40.2 138.4,43.4 C138.4,46.6 141.2,50.4 149,50.4 C155.2,50.4 161.7,47 161.7,40.8 C161.7,34.7 155.5,34.2 150.9,33.8 C146.1,33.4 144.5,33.2 144.5,32.4 C144.5,31.8 145.3,31.3 146,30.8 L146.4,30.5 C147.7,30.9 149.1,31.1 150.5,31.1 C154.8,31.1 159.2,28.5 159.2,23.5 C159.2,22.3 158.8,21.1 158.1,20.2 L162.4,20.3 L162.4,16.3 L154.8,16.4 C153.3,15.6 151.5,15.3 149.7,15.3 Z M153.6,23.1 C153.6,25.6 152.3,27 150.1,27 C148.2,27.1 146.5,25.6 146.4,23.7 C146.4,23.6 146.4,23.4 146.4,23.3 C146.4,20.8 147.9,19.3 150.3,19.3 C152.2,19.3 153.6,20.8 153.6,23.1 Z M147.2,38.5 L147.5,38.3 C155.5,39.3 156.1,39.5 156.1,41.7 C156.1,43.9 153.4,46.3 149.5,46.3 C147.1,46.3 143.6,45.3 143.6,42.5 C143.6,40.7 145.5,39.5 147.2,38.5 Z" id="Shape" fill="#E20613" fill-rule="nonzero"></path>
            <polygon id="Path" fill="#E20613" fill-rule="nonzero" points="165.8 39.3 171.8 39.3 172.1 4.7 166.1 4.7"></polygon>
            <path d="M196.3,35 C195.8,35.3 195.3,35.5 194.7,35.6 C194.3,35.6 193.7,34.8 193.7,33.6 C193.7,32.8 193.7,32 193.8,31.2 L194,24.2 C194.1,23.6 194.1,23.1 194.1,22.3 C194.3,18.8 191.6,15.7 188.1,15.5 C187.9,15.5 187.6,15.5 187.4,15.5 C185.2,15.5 182.5,15.9 177.2,20.2 L177,20.3 L179.9,23.6 L180,23.5 C183.3,20.9 184.7,20.4 185.9,20.4 C187.4,20.4 188.3,20.9 188.3,23.3 L188.3,24.6 C179.8,26 176,28.7 176,33.3 C176,37.4 178.9,40.2 183.1,40.2 C185.3,40.1 187.4,39.1 188.9,37.4 C189.5,39.2 191.1,40.3 193,40.2 C194,40.2 195.4,40 197.9,38.3 L198,38.2 L196.5,35.1 L196.3,35 Z M188.3,28.4 L188.2,33.4 C187.2,34.5 185.9,35.2 184.4,35.4 C183.1,35.6 181.9,34.6 181.7,33.3 C181.7,33.2 181.7,33.1 181.7,32.9 C181.6,30.7 183.4,29.5 188.3,28.4 L188.3,28.4 Z" id="Shape" fill="#E20613" fill-rule="nonzero"></path>
            <path d="M211.7,15.3 L211.7,15.3 C209,15.4 207.5,17.4 206.5,19.6 L206.5,16 L200.5,16 L200.3,39.4 L206.3,39.4 L206.4,25 C207.6,22.4 209.2,21.1 211,21.1 C211.4,21.1 211.9,21.2 212.3,21.3 L212.5,21.3 L213.5,15.6 L213.3,15.5 C212.8,15.4 212.3,15.3 211.7,15.3 Z" id="Path" fill="#E20613" fill-rule="nonzero"></path>
            <path d="M229.3,31.7 C228,33 226.1,34.6 224.4,34.6 C222.3,34.6 221.6,33.7 221.6,31 C221.6,28.6 221.6,25.5 221.7,22.3 L221.8,16 L215.8,16 L215.7,27.7 C215.7,28.4 215.7,29.2 215.7,29.9 C215.7,30.6 215.7,31.3 215.7,32 C215.7,35.4 216.4,40 222.3,40 C225,39.9 227.5,38.8 229.3,36.8 L229.3,39.4 L235.3,39.4 L235.5,16 L229.5,16 L229.3,31.7 Z" id="Path" fill="#E20613" fill-rule="nonzero"></path>
            <path d="M249.7,25.4 C247.5,24.8 245.6,24.2 245.6,22.5 C245.6,20.8 247.3,20 249,20 C250.8,20.1 252.5,20.7 254,21.8 L254.2,21.9 L256.8,18.1 L256.7,18 C254.4,16.3 251.6,15.4 248.8,15.4 C244.5,15.4 240.1,17.7 240.1,22.7 C240.1,28.3 243.9,29.3 247,30.1 C249.1,30.7 250.9,31.2 250.9,32.9 C250.9,34.6 249.3,35.4 247.9,35.4 C245.9,35.3 243.9,34.6 242.3,33.5 L242.1,33.4 L239.9,37.7 L240.1,37.8 C242.5,39.2 245.3,40 248.1,40 C254.2,40 257,36.2 257,32.5 C256.7,27.5 252.8,26.3 249.7,25.4 Z" id="Path" fill="#E20613" fill-rule="nonzero"></path>
            <path d="M313.4,20.9 C319.2,20.9 323.9,16.2 323.9,10.5 C323.9,4.8 319.2,-1.77635684e-15 313.5,-1.77635684e-15 C307.7,-1.77635684e-15 303,4.7 303,10.4 C303,10.4 303,10.4 303,10.4 C302.9,16.2 307.6,20.9 313.4,20.9 C313.4,20.9 313.4,20.9 313.4,20.9" id="Path" fill="#1D1D1B" fill-rule="nonzero"></path>
            <g id="Clipped" transform="translate(279.4, 0)">
                <mask id="mask-2" fill="white">
                    <use xlink:href="#path-1"></use>
                </mask>
                <g id="SVGID_1_"></g>
                <g id="Group" mask="url(#mask-2)" fill-rule="nonzero">
                    <g transform="translate(0, 1)" id="Path">
                        <path d="M34,18.9 C39.2,18.9 43.4,14.7 43.5,9.5 C43.6,4.3 39.3,0.1 34.1,-1.77635684e-15 C28.9,-1.77635684e-15 24.7,4.2 24.6,9.4 C24.6,9.4 24.6,9.4 24.6,9.4 C24.6,14.7 28.8,18.9 34,18.9 L34,18.9" fill="#FFFFFF"></path>
                        <path d="M7,26.9 C16.2,26.9 25.9,24.6 30.4,15 L38.1,14.9 L44.9,19.9 C45.1,20 45.2,20.2 45.3,20.4 L49.9,34.2 C50.4,35.7 50.1,38.3 46.3,38.3 C42.5,38.3 43.6,38.2 43.6,38.2 L49,78.1 C49.1,78.6 49.2,79.3 48,79.9 L41.2,83.2 C41.2,83.2 39.1,83.6 38.4,83.1 C37.7,82.6 36.4,81.7 38.5,80.4 C40.2,79.3 41.8,78 43.2,76.6 L21.5,76.5 L26,76.5 C26.4,77.1 26.6,77.7 26.6,78.3 C26.6,78.8 26.6,79.3 26.7,79.7 C26.7,79.7 26.9,80.7 25.1,80.7 C23.3,80.7 15.1,80.8 15.1,80.8 C14.3,80.9 13.5,80.3 13.4,79.5 C13.4,79.4 13.4,79.3 13.4,79.2 C13.4,78.2 14.4,77.9 15.6,77.7 C18.6,77 20.2,78.7 20.7,74.1 L25.5,33.2 L7.6,33.2 L11.9,80.5 L8.4,80.8 L4,33.8 C4,33.8 3.1,33.6 3,31.5 C2.9,29.4 2.6,27.8 2.6,27.8 C2.6,27.8 2.6,27.2 3.5,26.8 L3.2,24.9 C1.7,23.9 0.7,21.7 2.8,20 L1.7,6.8 C0.1,6.3 0,4.9 0,3.7 C0,2.5 1.1,1.7 3,1.6 C4.9,1.5 6.3,2 6.5,3.8 C6.7,5.6 5.9,6.2 5.4,6.3 L6.3,19.8 C7.3,20.4 9.3,22.4 6.8,24.4 L7,26.9" fill="#1D1D1B"></path>
                    </g>
                </g>
            </g>
            <path d="M313.4,17.3 C317.3,17.3 320.4,14.2 320.4,10.3 C320.4,6.4 317.3,3.3 313.4,3.3 C309.5,3.3 306.4,6.4 306.4,10.3 C306.4,14.2 309.5,17.3 313.4,17.3" id="Path" fill="#1D1D1B" fill-rule="nonzero"></path>
            <polyline id="Path" fill="#FFFFFF" fill-rule="nonzero" points="290.1 80.3 288.8 80.4 284.5 34.5 285.8 34.4 290.1 80.3"></polyline>
            <polyline id="Path" fill="#FFFFFF" fill-rule="nonzero" points="321.1 78 308.8 49.5 308.2 49.9 320.5 78.3 321.1 78"></polyline>
            <path d="M284,28 L283.7,25 C281.8,24 282.2,22.5 283.4,21.7 L282.2,7 C281.6,7 280.9,6.1 280.9,5.4 C280.9,4.7 281.2,4.1 282.4,4 C283.6,3.9 284.3,4 284.4,5 C284.5,5.8 284.1,6.5 283.4,6.8 L284.6,21.5 C286.2,21.7 286.8,23.3 285.1,24.7 L285.3,27.7 L284,28" id="Path" fill="#FFFFFF" fill-rule="nonzero"></path>
            <path d="M290.5,28.6 L290.5,33.2 L286.6,33.1 L286.6,30.5 L288.6,31.5 C288.6,31.5 289.9,31.1 288.9,30.6 C287.9,30.1 286.2,29.3 286.2,29.3 L282.9,29.4 L282.9,28.8 L290.5,28.6" id="Path" fill="#FFFFFF" fill-rule="nonzero"></path>
            <polyline id="Path" fill="#FFFFFF" fill-rule="nonzero" points="320.1 33.6 320.1 27.2 311 27.2 311 33.6 320.1 33.6"></polyline>
            <polyline id="Path" fill="#FFFFFF" fill-rule="nonzero" points="310.3 33.5 310.3 27.1 309 27.1 309 33.5 310.3 33.5"></polyline>
            <polyline id="Path" fill="#FFFFFF" fill-rule="nonzero" points="316 38.9 316 34.3 308.6 34.3 308.6 38.9 316 38.9"></polyline>
            <polyline id="Path" fill="#1D1D1B" fill-rule="nonzero" points="312.2 35.4 312.2 34.8 309.4 34.8 309.4 35.4 312.2 35.4"></polyline>
            <path d="M309.5,8.7 C309.4,8.1 309.6,7 310.5,6.8 C312.3,6.6 314.1,6.6 315.9,6.8 C316.7,6.9 316.9,8.1 317,8.7 C317.1,9.3 316.8,13.8 316.1,14.8 C315.4,15.8 313.8,15.4 313.1,15.4 C312.4,15.4 310.7,15.8 310.2,14 C309.9,12.7 309.7,11.4 309.6,10.1 C309.5,9.1 312.3,8.5 312.4,10.7 C312.4,11.3 311.9,13.1 313.2,13.1 C314.5,13.1 313.9,12.1 314.1,11.3 C314.3,10.5 313.9,8.9 315.9,9.4 C316.7,9.6 317.4,8.8 316.1,8.4 C314.8,8 313.2,8.5 313.5,11.5 C313.6,12 313.1,12.4 313.1,11.3 C313.1,10.2 313.5,8.9 311.9,8.3 C311.1,8.1 310.3,8.3 309.5,8.7" id="Path" fill="#FFFFFF" fill-rule="nonzero"></path>
            <path d="M311.4,10.7 C311.8,10.6 311.9,10.7 311.9,10.4 C311.9,10.1 311.5,9.9 311,9.9 C310.5,9.9 310.2,10.2 310.3,10.6 C310.4,11.1 311,10.7 311.4,10.7" id="Path" fill="#1D1D1B" fill-rule="nonzero"></path>
            <path d="M315.1,10.6 C315.5,10.8 316.1,10.7 316.1,10.4 C316.1,10.1 315.8,9.8 315.4,9.7 C315,9.6 314.7,9.8 314.5,10.1 C314.6,10.4 314.8,10.4 315.1,10.6" id="Path" fill="#1D1D1B" fill-rule="nonzero"></path>
            <path d="M310.8,16.8 C312.5,17.7 314.5,17.6 316,16.6 L315.8,18.2 L310.9,18.2 L310.8,16.8" id="Path" fill="#FFFFFF" fill-rule="nonzero"></path>
            <polyline id="Path" fill="#FFFFFF" fill-rule="nonzero" points="283 30 286 30 286 33.2 283.4 33.6 282.9 30"></polyline>
            <polyline id="Path" fill="#1D1D1B" fill-rule="nonzero" points="315.9 44.6 315.9 42.1 315 42.1 315 44.6 315.9 44.6"></polyline>
            <path d="M317.4,15.8 C317.4,15.8 318.6,18.3 321.4,16.6" id="Path" stroke="#1D1D1B"></path>
            <line x1="312.2" y1="14.1" x2="314.1" y2="14.1" id="Path" stroke="#000000" stroke-width="0.2"></line>
        </g>
    </g>
</svg>