<?xml version="1.0" encoding="UTF-8"?>
<svg width="248px" height="75px" viewBox="0 0 248 75" version="1.1" xmlns="http://www.w3.org/2000/svg" xmlns:xlink="http://www.w3.org/1999/xlink">
    <title>lu</title>
    <g id="Page-1" stroke="none" stroke-width="1" fill="none" fill-rule="evenodd">
        <g id="lu" transform="translate(0, 0.0021)" fill-rule="nonzero">
            <g id="Group" transform="translate(123.9987, 37.036) scale(-1, 1) rotate(-180) translate(-123.9987, -37.036)translate(0, 0)">
                <g transform="translate(-0, 0)">
                    <path d="M92.1864895,6.49112286 L80.1769857,6.49112286 L80.1769857,32.9989739 L72.8714356,32.9989739 L72.8714356,0.565565406 L92.1864895,0.565565406 L92.1864895,6.49112286 Z M122.528507,32.9989739 L115.222957,32.9989739 L115.222957,13.9099401 C115.222957,8.84335678 113.210062,6.31019365 109.184272,6.31019365 C105.082387,6.31019365 103.031959,8.93394992 103.031959,14.1813082 L103.031959,32.9989739 L95.7043003,32.9989739 L95.7043003,14.2718499 C95.7043003,4.7574879 100.106962,0 108.912801,0 C117.989596,0 122.528507,4.8705648 122.528507,14.6112914 L122.528507,32.9989739 Z M153.904994,6.49112286 L137.598229,6.49112286 L153.859749,28.9050586 L153.859749,32.9989739 L128.981084,32.9989739 L128.981084,27.0504699 L144.406082,27.0504699 L127.782087,4.77235196 L127.782087,0.565565406 L153.904994,0.565565406 L153.904994,6.49112286 Z M179.928157,6.49112286 L167.782917,6.49112286 L167.782917,13.9099401 L178.390335,13.9099401 L178.390335,19.835513 L167.782917,19.835513 L167.782917,27.0504699 L179.181612,27.0504699 L179.181612,32.9989739 L160.477367,32.9989739 L160.477367,0.565565406 L179.928157,0.565565406 L179.928157,6.49112286 Z M208.525665,10.1556719 C208.208949,10.6527517 207.858299,11.1616568 207.473716,11.6820275 C207.089132,12.2023982 206.685524,12.6888351 206.263922,13.140721 C205.841291,13.593224 205.404264,13.9890677 204.951812,14.3285092 C204.499361,14.667745 204.031999,14.9125316 203.549727,15.0631774 L203.549727,15.1535649 C204.650007,15.470281 205.648999,15.907308 206.54619,16.465623 C207.443381,17.022961 208.208949,17.686728 208.841867,18.4559471 C209.475299,19.2251661 209.965284,20.0879604 210.312335,21.0457695 C210.658872,22.0031672 210.83214,23.0473534 210.83214,24.178071 C210.83214,30.0586558 206.89684,32.9989739 199.026239,32.9989739 L187.44605,32.9989739 L187.44605,0.565565406 L194.751601,0.565565406 L194.751601,12.9822602 L196.719251,12.9822602 C197.171702,12.9822602 197.59022,12.8882736 197.97429,12.7000949 C198.358873,12.5108879 198.728033,12.2399826 199.082796,11.8856821 C199.437045,11.5314331 199.787181,11.1052032 200.134232,10.6075579 C200.481282,10.1102725 200.84273,9.5447081 201.220115,8.91127592 L206.263922,0.565565406 L214.654841,0.565565406 L208.525665,10.1556719 Z M198.053469,27.5254927 C201.446341,27.5254927 203.14252,26.1079311 203.14252,23.2734764 C203.14252,21.9162245 202.659734,20.7778462 201.695189,19.8580327 C200.745041,18.9536438 199.485889,18.5011408 197.917733,18.5011408 L194.751601,18.5011408 L194.751601,27.5254927 L198.053469,27.5254927 Z M247.997436,32.9989739 L241.099092,32.9989739 L241.099092,15.0631774 C241.099092,12.8467304 241.159248,11.3617124 241.280073,10.6075579 L241.189583,10.6075579 C240.691886,11.4820234 240.149458,12.3643039 239.561271,13.2538339 L226.692109,32.9989739 L218.820995,32.9989739 L218.820995,0.565565406 L225.719338,0.565565406 L225.719338,18.3880793 C225.719338,20.7403132 225.659183,22.4890385 225.538358,23.635232 L225.628848,23.635232 C225.930654,23.0320832 226.473082,22.1347381 227.257674,20.9439679 L240.624018,0.565565406 L247.997436,0.565565406 L247.997436,32.9989739" id="Shape" fill="#000000"></path>
                    <path d="M80.5615695,57.9683868 L94.4713698,73.5291211 L89.7442794,73.5291211 L77.6211486,59.393095 C77.2591873,58.9858886 76.972806,58.6162152 76.7620048,58.2851029 L76.6715144,58.2851029 L76.6715144,73.5291211 L72.8714356,73.5291211 L72.8714356,41.0958001 L76.6715144,41.0958001 L76.6715144,57.0634837 L76.7620048,57.0634837 C76.8668913,56.8675927 77.1537867,56.490207 77.6211486,55.932869 L90.1509716,41.0958001 L95.4436265,41.0958001 L80.5615695,57.9683868 Z M112.904143,73.5291211 L108.968843,73.5291211 L96.5295102,41.0958001 L100.758904,41.0958001 L103.992904,50.1880196 L117.744346,50.1880196 L121.18195,41.0958001 L125.388721,41.0958001 L112.904143,73.5291211 Z M105.259769,53.6032576 L110.303061,67.4220535 C110.498952,67.950085 110.67222,68.6734933 110.82338,69.5933068 L110.91387,69.5933068 C111.079427,68.5984275 111.245497,67.8750192 111.411567,67.4220535 L116.500105,53.6032576 L105.259769,53.6032576 Z M156.306587,73.5291211 L152.507022,73.5291211 L152.507022,50.6855107 C152.507022,48.4387288 152.582088,46.8480531 152.733248,45.9133294 L152.642757,45.9133294 C152.446352,46.3051627 152.009325,47.0290338 151.330648,48.0846341 L135.09175,73.5291211 L130.161057,73.5291211 L130.161057,41.0958001 L133.960621,41.0958001 L133.960621,64.5273919 C133.960621,66.8040458 133.900466,68.2894237 133.779641,68.9830113 L133.915376,68.9830113 C134.186847,68.2739992 134.533898,67.5953219 134.956015,66.9474935 L151.647364,41.0958001 L156.306587,41.0958001 L156.306587,73.5291211 Z M183.579646,73.5291211 L161.075837,73.5291211 L161.075837,70.0910035 L170.416391,70.0910035 L170.416391,41.0958001 L174.21647,41.0958001 L174.21647,70.0910035 L183.579646,70.0910035 L183.579646,73.5291211 Z M211.266596,45.1670414 C214.071282,48.2428893 215.473367,52.4273978 215.473367,57.7195385 C215.473367,62.5895624 214.105216,66.5325749 211.368398,69.5485758 C208.63158,72.5640625 205.024307,74.072063 200.546065,74.072063 C195.690952,74.072063 191.85334,72.5188174 189.033744,69.4128403 C186.214148,66.3063491 184.80435,62.1448231 184.80435,56.9277482 C184.80435,52.0726346 186.187412,48.1298278 188.954565,45.0991222 C191.721203,42.0682624 195.404056,40.552961 200.003123,40.552961 C204.707591,40.552961 208.461911,42.0909878 211.266596,45.1670414 L211.266596,45.1670414 Z M208.507156,67.1284741 C210.497429,64.7906364 211.492822,61.4815703 211.492822,57.1992192 C211.492822,53.0222687 210.467094,49.773101 208.416666,47.4513562 C206.366238,45.1290457 203.561552,43.968199 200.003123,43.968199 C196.670921,43.968199 193.968037,45.185705 191.894986,47.6208712 C189.821421,50.0558832 188.784896,53.2711171 188.784896,57.2670869 C188.784896,61.2625426 189.848157,64.4893448 191.974165,66.9474935 C194.100173,69.4051281 196.866812,70.6339454 200.274594,70.6339454 C203.772353,70.6339454 206.516883,69.4652836 208.507156,67.1284741 Z M247.996922,73.5291211 L244.197357,73.5291211 L244.197357,50.6855107 C244.197357,48.4387288 244.272423,46.8480531 244.423583,45.9133294 L244.333092,45.9133294 C244.136687,46.3051627 243.69966,47.0290338 243.021497,48.0846341 L226.782085,73.5291211 L221.851392,73.5291211 L221.851392,41.0958001 L225.650957,41.0958001 L225.650957,64.5273919 C225.650957,66.8040458 225.590801,68.2894237 225.47049,68.9830113 L225.606226,68.9830113 C225.877182,68.2739992 226.224233,67.5953219 226.64635,66.9474935 L243.337699,41.0958001 L247.996922,41.0958001 L247.996922,73.5291211" id="Shape" fill="#000000"></path>
                    <polyline id="Path" fill="#009FE3" points="-2.12126707e-30 73.5049561 -2.12126707e-30 0.633047527 36.4361291 0.633047527 36.4361291 73.5049561 -2.12126707e-30 73.5049561"></polyline>
                </g>
            </g>
        </g>
    </g>
</svg>