<?xml version="1.0" encoding="UTF-8"?>
<svg width="860px" height="400px" viewBox="0 0 860 400" version="1.1" xmlns="http://www.w3.org/2000/svg" xmlns:xlink="http://www.w3.org/1999/xlink">
    <!-- Generator: Sketch 54.1 (76490) - https://sketchapp.com -->
    <title>msd</title>
    <desc>Created with Sketch.</desc>
    <g id="msd" stroke="none" stroke-width="1" fill="none" fill-rule="evenodd">
        <g transform="translate(58.000000, 63.000000)" fill-rule="nonzero">
            <path d="M126.5,273.32038 C95.37471,266.35423 74.77621,243.33868 70.50064,210.75 L69.87745,206 L139.58333,206 L209.28921,206 L208.6925,212.38998 C207.83027,221.62344 203.33759,234.22758 197.99517,242.4012 C188.35092,257.15638 171.45782,269.10188 155.43564,272.49602 C149.02934,273.85314 131.1556,274.36235 126.5,273.32038 L126.5,273.32038 Z" id="path2860" fill="#009996"></path>
            <path d="M550,209.03028 C537.99921,207.67958 528.34765,203.90616 520.5,197.49682 C512.7101,191.13464 507,177.93504 507,166.2899 L507,161 L520.79689,161 L534.59377,161 L535.70405,167.48176 C537.1173,175.73224 539.96722,180.30918 545.83703,183.75523 C549.89153,186.13555 551.54392,186.48774 558.5,186.4542 C574.76119,186.3758 585.90819,177.08339 583.43674,165.66632 C581.73912,157.82403 575.3183,153.66253 557.97258,149.16234 C544.47214,145.65977 537.39385,142.70015 529.18456,137.12533 C521.46227,131.88122 515.51379,124.89131 512.90875,118 C509.90952,110.06595 510.48802,97.73966 514.23733,89.69103 C519.46576,78.46723 532.93082,68.567552 548,64.868323 C556.56057,62.766846 573.22347,63.299518 580.5,65.907268 C597.07093,71.84593 607.66602,84.79852 609.63137,101.52065 L610.27536,107 L596.70507,107 C581.84291,107 583.08772,107.53267 581.51499,100.5 C579.74372,92.57953 573.76245,87.70065 564.28177,86.44299 C545.35684,83.93251 532.74003,102.71499 545.26884,114.7473 C549.03728,118.36639 551.82095,119.5277 570,125.0648 C594.04932,132.38991 604.06685,138.52398 609.8395,149.45985 C612.2931,154.10805 612.5,155.43483 612.5,166.52103 C612.5,178.0623 612.3703,178.80552 609.25007,185.14361 C602.07652,199.71515 586.72512,208.00046 564.5,209.29565 C560.1,209.55207 553.575,209.43265 550,209.03028 L550,209.03028 Z" id="path2858" fill="#000000"></path>
            <path d="M401.62829,157.94883 C390.19871,131.30197 380.43161,109.0725 379.92362,108.55 C379.35843,107.96867 379,126.50964 379,156.32673 L379,205.05347 L364.25,204.77673 L349.5,204.5 L349.24317,135.28722 L348.98633,66.074444 L371.07972,65.787222 C384.95299,65.606864 393.47815,65.872062 393.99298,66.5 C394.44391,67.05 400.98402,82.93344 408.52656,101.79654 C416.06909,120.65963 422.43036,135.90297 422.66271,135.67062 C422.89506,135.43827 429.2783,119.77983 436.84767,100.87408 L450.61018,66.5 L473.30509,66.231226 L496,65.962451 L496,135.48123 L496,205 L481,205 L466,205 L466,156.5 C466,129.825 465.6625,108.01904 465.25,108.04232 C464.8375,108.06562 456.01155,127.97809 445.63678,152.29232 C435.262,176.60654 425.79161,198.72697 424.59145,201.44883 L422.40935,206.39765 L401.62829,157.94883 Z" id="path2856" fill="#000000"></path>
            <path d="M61,204.03016 C45.044966,201.91929 32.449657,195.72939 21.5,184.6181 C5.558434,168.4412 -0.383913,152.41008 1.069057,129.5 C2.132801,112.72715 7.799119,99.85942 19.464228,87.72611 C31.760013,74.93681 45.678948,68.044094 62.36741,66.480257 L70,65.765025 L70,70.72255 C70,82.4373 76.41272,98.72584 85.5385,110.19089 C94.12163,120.97419 109.6287,130.56665 123.78518,133.84976 L131.5,135.63895 L126.5393,136.41234 C112.10354,138.66294 93.89938,149.73857 84.57092,161.94642 C75.64321,173.62982 71.2965,184.2021 70.16354,196.98881 C69.42041,205.37593 69.67769,205.17824 61,204.03016 Z" id="path2854" fill="#009996"></path>
            <path d="M209.98264,201.25 C209.94914,194.00531 206.99907,183.40887 202.4498,174.19219 C196.96382,163.07773 188.33427,153.38166 177.65521,146.33324 C169.6982,141.08144 156.62827,136.07617 150.5,135.93388 C146.76449,135.84718 146.90337,135.75324 152.60031,134.51384 C159.9344,132.91826 172.39877,128.03883 177.67328,124.69851 C194.11028,114.28906 206.56354,94.45112 209.31148,74.29914 L210.44316,66 L214.56162,66 C226.02342,66 242.69609,72.94607 254.39322,82.59441 C274.10065,98.85002 283.29044,126.90463 276.98442,151.56093 C269.66859,180.16555 247.93609,199.56522 218.30845,203.93848 C214.35309,204.52231 210.86559,205 210.55845,205 C210.2513,205 209.99219,203.3125 209.98264,201.25 L209.98264,201.25 Z" id="path2852" fill="#009996"></path>
            <path d="M626,134.99876 L626,64.778749 L654.75,65.269485 C688.37881,65.843497 694.013,66.836868 709.88693,74.99075 C721.92943,81.17656 729.64461,88.55846 736.20456,100.17153 C747.10496,119.46849 747.8224,146.86719 737.96756,167.5 C732.08536,179.81542 718.9481,192.23547 705.87747,197.8382 C703.41789,198.8925 697.60177,200.77159 692.95276,202.01396 C685.35315,204.04483 681.54776,204.32056 655.25,204.74579 L626,205.21877 L626,134.99876 Z" id="path2850" fill="#000000"></path>
            <path d="M683.46504,177.46709 C692.00466,175.2428 698.56911,171.30396 704.12465,165.07079 C711.06414,157.28486 713.24293,151.02954 713.775,137.36465 C714.29583,123.98821 712.73496,117.4451 707.01317,109.0194 C698.59626,96.62494 685.67611,91.05571 665.25,91.01736 L656,91 L656,135 L656,179 L666.7899,179 C673.2577,179 679.93724,178.38596 683.46504,177.46709 Z" id="path2848" fill="#FFFFFF"></path>
            <path d="M71.43938,58.833055 C73.28093,42.55586 82.20495,26.970745 96.5,15.066609 C102.4281,10.130013 115.34411,3.666356 123.55325,1.528145 C130.20089,-0.203344 145.17777,-0.483456 152.89154,0.979431 C172.42009,4.682945 192.15894,19.412191 200.89958,36.803308 C205.40966,45.776956 209,56.769924 209,61.605335 L209,65 L139.87083,65 L70.74167,65 L71.43938,58.833055 Z" id="path2828" fill="#009996"></path>
        </g>
    </g>
</svg>