<?xml version="1.0" encoding="UTF-8" standalone="no"?>
<!-- Created with Inkscape (http://www.inkscape.org/) -->

<svg
   xmlns:dc="http://purl.org/dc/elements/1.1/"
   xmlns:cc="http://creativecommons.org/ns#"
   xmlns:rdf="http://www.w3.org/1999/02/22-rdf-syntax-ns#"
   xmlns:svg="http://www.w3.org/2000/svg"
   xmlns="http://www.w3.org/2000/svg"
   xmlns:sodipodi="http://sodipodi.sourceforge.net/DTD/sodipodi-0.dtd"
   xmlns:inkscape="http://www.inkscape.org/namespaces/inkscape"
   id="svg2816"
   version="1.1"
   inkscape:version="0.47 r22583"
   width="827"
   height="338"
   sodipodi:docname="Merck_Sharp_&amp;_Dohme_(MSD).jpg">
  <metadata
     id="metadata2822">
    <rdf:RDF>
      <cc:Work
         rdf:about="">
        <dc:format>image/svg+xml</dc:format>
        <dc:type
           rdf:resource="http://purl.org/dc/dcmitype/StillImage" />
        <dc:title></dc:title>
      </cc:Work>
    </rdf:RDF>
  </metadata>
  <defs
     id="defs2820">
    <inkscape:perspective
       sodipodi:type="inkscape:persp3d"
       inkscape:vp_x="0 : 0.5 : 1"
       inkscape:vp_y="0 : 1000 : 0"
       inkscape:vp_z="1 : 0.5 : 1"
       inkscape:persp3d-origin="0.5 : 0.33333333 : 1"
       id="perspective2824" />
  </defs>
  <sodipodi:namedview
     pagecolor="#ffffff"
     bordercolor="#666666"
     borderopacity="1"
     objecttolerance="10"
     gridtolerance="10"
     guidetolerance="10"
     inkscape:pageopacity="0"
     inkscape:pageshadow="2"
     inkscape:window-width="1280"
     inkscape:window-height="904"
     id="namedview2818"
     showgrid="false"
     inkscape:zoom="0.66747279"
     inkscape:cx="413.5"
     inkscape:cy="169"
     inkscape:window-x="-4"
     inkscape:window-y="-4"
     inkscape:window-maximized="1"
     inkscape:current-layer="svg2816" />
  <g
     id="g2863">
    <path
       id="path2860"
       d="M 166.5,303.32038 C 135.37471,296.35423 114.77621,273.33868 110.50064,240.75 l -0.62319,-4.75 69.70588,0 69.70588,0 -0.59671,6.38998 c -0.86223,9.23346 -5.35491,21.8376 -10.69733,30.01122 -9.64425,14.75518 -26.53735,26.70068 -42.55953,30.09482 -6.4063,1.35712 -24.28004,1.86633 -28.93564,0.82436 z"
       style="fill:#009996;fill-opacity:1" />
    <path
       id="path2858"
       d="m 590,239.03028 c -12.00079,-1.3507 -21.65235,-5.12412 -29.5,-11.53346 C 552.7101,221.13464 547,207.93504 547,196.2899 l 0,-5.2899 13.79689,0 13.79688,0 1.11028,6.48176 c 1.41325,8.25048 4.26317,12.82742 10.13298,16.27347 4.0545,2.38032 5.70689,2.73251 12.66297,2.69897 16.26119,-0.0784 27.40819,-9.37081 24.93674,-20.78788 -1.69762,-7.84229 -8.11844,-12.00379 -25.46416,-16.50398 -13.50044,-3.50257 -20.57873,-6.46219 -28.78802,-12.03701 -7.72229,-5.24411 -13.67077,-12.23402 -16.27581,-19.12533 -2.99923,-7.93405 -2.42073,-20.26034 1.32858,-28.30897 5.22843,-11.2238 18.69349,-21.123478 33.76267,-24.822707 8.56057,-2.101477 25.22347,-1.568805 32.5,1.038945 16.57093,5.938662 27.16602,18.891252 29.13137,35.613382 l 0.64399,5.47935 -13.57029,0 c -14.86216,0 -13.61735,0.53267 -15.19008,-6.5 -1.77127,-7.92047 -7.75254,-12.79935 -17.23322,-14.05701 -18.92493,-2.51048 -31.54174,16.272 -19.01293,28.30431 3.76844,3.61909 6.55211,4.7804 24.73116,10.3175 24.04932,7.32511 34.06685,13.45918 39.8395,24.39505 2.4536,4.6482 2.6605,5.97498 2.6605,17.06118 0,11.54127 -0.1297,12.28449 -3.24993,18.62258 -7.17355,14.57154 -22.52495,22.85685 -44.75007,24.15204 -4.4,0.25642 -10.925,0.137 -14.5,-0.26537 z"
       style="fill:#000000" />
    <path
       id="path2856"
       d="M 441.62829,187.94883 C 430.19871,161.30197 420.43161,139.0725 419.92362,138.55 419.35843,137.96867 419,156.50964 419,186.32673 l 0,48.72674 -14.75,-0.27674 -14.75,-0.27673 -0.25683,-69.21278 -0.25684,-69.212776 22.09339,-0.287222 c 13.87327,-0.180358 22.39843,0.08484 22.91326,0.712778 0.45093,0.55 6.99104,16.43344 14.53358,35.29654 7.54253,18.86309 13.9038,34.10643 14.13615,33.87408 0.23235,-0.23235 6.61559,-15.89079 14.18496,-34.79654 L 490.61018,96.5 513.30509,96.231226 536,95.962451 536,165.48123 536,235 l -15,0 -15,0 0,-48.5 c 0,-26.675 -0.3375,-48.48096 -0.75,-48.45768 -0.4125,0.0233 -9.23845,19.93577 -19.61322,44.25 -10.37478,24.31422 -19.84517,46.43465 -21.04533,49.15651 l -2.1821,4.94882 -20.78106,-48.44882 z"
       style="fill:#000000" />
    <path
       id="path2854"
       d="M 101,234.03016 C 85.044966,231.91929 72.449657,225.72939 61.5,214.6181 45.558434,198.4412 39.616087,182.41008 41.069057,159.5 42.132801,142.72715 47.799119,129.85942 59.464228,117.72611 71.760013,104.93681 85.678948,98.044094 102.36741,96.480257 L 110,95.765025 l 0,4.957525 c 0,11.71475 6.41272,28.00329 15.5385,39.46834 8.58313,10.7833 24.0902,20.37576 38.24668,23.65887 l 7.71482,1.78919 -4.9607,0.77339 c -14.43576,2.2506 -32.63992,13.32623 -41.96838,25.53408 -8.92771,11.6834 -13.27442,22.25568 -14.40738,35.04239 -0.74313,8.38712 -0.48585,8.18943 -9.16354,7.04135 z"
       style="fill:#009996;fill-opacity:1" />
    <path
       id="path2852"
       d="m 249.98264,231.25 c -0.0335,-7.24469 -2.98357,-17.84113 -7.53284,-27.05781 -5.48598,-11.11446 -14.11553,-20.81053 -24.79459,-27.85895 -7.95701,-5.2518 -21.02694,-10.25707 -27.15521,-10.39936 -3.73551,-0.0867 -3.59663,-0.18064 2.10031,-1.42004 7.33409,-1.59558 19.79846,-6.47501 25.07297,-9.81533 16.437,-10.40945 28.89026,-30.24739 31.6382,-50.39937 L 250.44316,96 l 4.11846,0 c 11.4618,0 28.13447,6.94607 39.8316,16.59441 19.70743,16.25561 28.89722,44.31022 22.5912,68.96652 -7.31583,28.60462 -29.04833,48.00429 -58.67597,52.37755 -3.95536,0.58383 -7.44286,1.06152 -7.75,1.06152 -0.30715,0 -0.56626,-1.6875 -0.57581,-3.75 z"
       style="fill:#009996;fill-opacity:1" />
    <path
       id="path2850"
       d="m 666,164.99876 0,-70.220011 28.75,0.490736 c 33.62881,0.574012 39.263,1.567383 55.13693,9.721265 12.0425,6.18581 19.75768,13.56771 26.31763,25.18078 10.9004,19.29696 11.61784,46.69566 1.763,67.32847 -5.8822,12.31542 -19.01946,24.73547 -32.09009,30.3382 -2.45958,1.0543 -8.2757,2.93339 -12.92471,4.17576 -7.59961,2.03087 -11.405,2.3066 -37.70276,2.73183 l -29.25,0.47298 0,-70.22001 z"
       style="fill:#000000" />
    <path
       id="path2848"
       d="m 723.46504,207.46709 c 8.53962,-2.22429 15.10407,-6.16313 20.65961,-12.3963 6.93949,-7.78593 9.11828,-14.04125 9.65035,-27.70614 0.52083,-13.37644 -1.04004,-19.91955 -6.76183,-28.34525 C 738.59626,126.62494 725.67611,121.05571 705.25,121.01736 L 696,121 l 0,44 0,44 10.7899,0 c 6.4678,0 13.14734,-0.61404 16.67514,-1.53291 z"
       style="fill:#ffffff;fill-opacity:1" />
    <path
       id="path2828"
       d="M 111.43938,88.833055 C 113.28093,72.55586 122.20495,56.970745 136.5,45.066609 c 5.9281,-4.936596 18.84411,-11.400253 27.05325,-13.538464 6.64764,-1.731489 21.62452,-2.011601 29.33829,-0.548714 19.52855,3.703514 39.2674,18.43276 48.00804,35.823877 C 245.40966,75.776956 249,86.769924 249,91.605335 L 249,95 l -69.12917,0 -69.12916,0 0.69771,-6.166945 z"
       style="fill:#009996;fill-opacity:1" />
  </g>
</svg>
