<?xml version="1.0" encoding="UTF-8"?>
<svg width="300px" height="175px" viewBox="0 0 300 175" version="1.1" xmlns="http://www.w3.org/2000/svg" xmlns:xlink="http://www.w3.org/1999/xlink">
    <!-- Generator: Sketch 50.2 (55047) - http://www.bohemiancoding.com/sketch -->
    <title>MT</title>
    <desc>Created with Sketch.</desc>
    <defs></defs>
    <g id="MT" stroke="none" stroke-width="1" fill="none" fill-rule="evenodd">
        <g id="mt" transform="translate(39.000000, 13.000000)">
            <g id="g10" transform="translate(118.381838, 74.606250) scale(-1, 1) rotate(-180.000000) translate(-118.381838, -74.606250) translate(0.881838, 0.856250)">
                <g id="g12" transform="translate(0.000000, 1.000000)">
                    <polyline id="path16" fill="#449226" points="109.027375 88.21 70.7275 49.909625 90.51275 66.245625 88.152875 66.245625 89.877 67.335 91.601625 68.69625 92.327625 70.420875 92.327625 67.335 109.027375 88.21"></polyline>
                    <polygon id="path18" stroke="#449226" stroke-width="0.625" points="109.027375 88.21 70.7275 49.909625 90.51275 66.245625 88.152875 66.245625 89.877 67.335 91.601625 68.69625 92.327625 70.420875 92.327625 67.335"></polygon>
                    <polyline id="path20" fill="#449226" points="68.277375 52.359875 84.976625 66.245625 82.889125 66.245625 84.976625 67.606875 91.601625 74.232875 92.327625 75.957 92.327625 72.871125 106.576625 90.56875 68.277375 52.359875"></polyline>
                    <polygon id="path22" stroke="#449226" stroke-width="0.625" points="68.277375 52.359875 84.976625 66.245625 82.889125 66.245625 84.976625 67.606875 91.601625 74.232875 92.327625 75.957 92.327625 72.871125 106.576625 90.56875 68.277375 52.359875"></polygon>
                    <polyline id="path24" fill="#449226" points="63.104 57.53325 73.813 66.245625 72.452125 66.245625 73.541 66.972125 91.601625 85.0325 92.327625 86.1225 92.327625 84.30625 100.94975 95.47 63.104 57.53325"></polyline>
                    <polygon id="path26" stroke="#449226" stroke-width="0.625" points="63.104 57.53325 73.813 66.245625 72.452125 66.245625 73.541 66.972125 91.601625 85.0325 92.327625 86.1225 92.327625 84.30625 100.94975 95.47 63.104 57.53325"></polygon>
                    <polyline id="path28" fill="#449226" points="60.29 59.983875 68.277375 66.245625 67.27875 66.245625 67.914125 66.608875 91.601625 90.2975 92.600125 91.65875 92.600125 90.2975 98.590375 98.28375 60.29 59.983875"></polyline>
                    <polygon id="path30" stroke="#449226" stroke-width="0.625" points="60.29 59.983875 68.277375 66.245625 67.27875 66.245625 67.914125 66.608875 91.601625 90.2975 92.600125 91.65875 92.600125 90.2975 98.590375 98.28375"></polygon>
                    <polyline id="path32" fill="#449226" points="73.541 47.09625 91.23875 61.708 92.327625 64.15825 92.327625 62.07125 96.774875 66.245625 95.05025 66.245625 97.86425 67.97025 111.75 85.39625 73.541 47.09625"></polyline>
                    <polygon id="path34" stroke="#449226" stroke-width="0.625" points="73.541 47.09625 91.23875 61.708 92.327625 64.15825 92.327625 62.07125 96.774875 66.245625 95.05025 66.245625 97.86425 67.97025 111.75 85.39625"></polygon>
                    <polyline id="path36" fill="#449226" points="75.900375 44.373 91.601625 57.53325 92.327625 59.257875 92.327625 57.170375 101.313 66.245625 99.588375 66.245625 102.039125 67.606875 114.20025 82.5825 75.900375 44.373"></polyline>
                    <polygon id="path38" stroke="#449226" stroke-width="0.625" points="75.900375 44.373 91.601625 57.53325 92.327625 59.257875 92.327625 57.170375 101.313 66.245625 99.588375 66.245625 102.039125 67.606875 114.20025 82.5825 75.900375 44.373"></polygon>
                    <polyline id="path40" fill="#449226" points="78.351125 41.922875 91.601625 52.723125 92.327625 54.44725 92.327625 52.723125 105.850625 66.245625 104.852 66.245625 106.576625 67.335 117.014125 80.13125 78.351125 41.922875"></polyline>
                    <polygon id="path42" stroke="#449226" stroke-width="0.625" points="78.351125 41.922875 91.601625 52.723125 92.327625 54.44725 92.327625 52.723125 105.850625 66.245625 104.852 66.245625 106.576625 67.335 117.014125 80.13125 78.351125 41.922875"></polygon>
                    <polyline id="path44" fill="#449226" points="81.1645 39.472625 91.964875 48.185 92.327625 49.546375 92.327625 48.185 110.7515 66.245625 109.299375 66.245625 111.11475 67.335 119.464375 77.7725 81.1645 39.472625"></polyline>
                    <polygon id="path46" stroke="#449226" stroke-width="0.625" points="81.1645 39.472625 91.964875 48.185 92.327625 49.546375 92.327625 48.185 110.7515 66.245625 109.299375 66.245625 111.11475 67.335 119.464375 77.7725 81.1645 39.472625"></polygon>
                    <polyline id="path48" fill="#449226" points="83.61525 36.65875 91.964875 43.284125 92.327625 44.646 92.327625 43.284125 115.2895 66.245625 114.20025 66.245625 115.92475 67.335 121.82375 74.959 83.61525 36.65875"></polyline>
                    <polygon id="path50" stroke="#449226" stroke-width="0.625" points="83.61525 36.65875 91.964875 43.284125 92.327625 44.646 92.327625 43.284125 115.2895 66.245625 114.20025 66.245625 115.92475 67.335 121.82375 74.959"></polygon>
                    <polyline id="path52" fill="#449226" points="86.337875 34.2085 91.964875 38.746625 92.327625 39.8355 92.327625 38.746625 119.736875 66.245625 119.101125 66.245625 120.099625 66.608875 124.6375 72.50825 86.337875 34.2085"></polyline>
                    <polygon id="path54" stroke="#449226" stroke-width="0.625" points="86.337875 34.2085 91.964875 38.746625 92.327625 39.8355 92.327625 38.746625 119.736875 66.245625 119.101125 66.245625 120.099625 66.608875 124.6375 72.50825 86.337875 34.2085"></polygon>
                    <polyline id="path56" fill="#449226" points="88.788125 31.485875 91.964875 34.2085 92.327625 34.934625 92.327625 34.2085 124.6375 66.245625 123.91125 66.245625 124.6375 66.608875 127.0875 69.694875 88.788125 31.485875"></polyline>
                    <polygon id="path58" stroke="#449226" stroke-width="0.625" points="88.788125 31.485875 91.964875 34.2085 92.327625 34.934625 92.327625 34.2085 124.6375 66.245625 123.91125 66.245625 124.6375 66.608875 127.0875 69.694875 88.788125 31.485875"></polygon>
                    <polyline id="path60" fill="#449226" points="57.839875 62.796875 62.377875 66.245625 62.014625 66.245625 92.600125 96.83125 92.600125 96.19625 95.776375 100.73375 57.839875 62.796875"></polyline>
                    <polygon id="path62" stroke="#449226" stroke-width="0.625" points="57.839875 62.796875 62.377875 66.245625 62.014625 66.245625 92.600125 96.83125 92.600125 96.19625 95.776375 100.73375 57.839875 62.796875"></polygon>
                    <polyline id="path64" fill="#449226" points="65.463375 54.8105 79.440375 66.245625 77.715875 66.245625 79.077125 67.335 91.601625 79.49625 92.600125 80.8575 92.600125 78.77 103.763125 93.02 65.463375 54.8105"></polyline>
                    <polygon id="path66" stroke="#449226" stroke-width="0.625" points="65.463375 54.8105 79.440375 66.245625 77.715875 66.245625 79.077125 67.335 91.601625 79.49625 92.600125 80.8575 92.600125 78.77 103.763125 93.02 65.463375 54.8105"></polygon>
                    <polyline id="path68" fill="#449226" points="57.588375 31.317875 171.73625 145.355 171.1925 145.355 57.317875 31.589875 57.588375 31.317875"></polyline>
                    <polyline id="path70" fill="#449226" points="54.86675 33.40525 166.81625 145.355 166.27125 145.355 54.59425 33.67725 54.86675 33.40525"></polyline>
                    <polyline id="path72" fill="#449226" points="52.4155 36.1275 161.6425 145.355 161.09875 145.355 52.144 36.400375 52.4155 36.1275"></polyline>
                    <polyline id="path74" fill="#449226" points="49.964875 39.30475 156.09875 145.355 155.555 145.35375 49.693875 39.576625 49.964875 39.30475"></polyline>
                    <polyline id="path76" fill="#449226" points="47.151375 41.392125 151.13625 145.355 150.59125 145.355 46.879875 41.664125 47.151375 41.392125"></polyline>
                    <polyline id="path78" fill="#449226" points="44.42925 43.84225 145.94125 145.355 145.3975 145.355 44.15675 44.11525 44.42925 43.84225"></polyline>
                    <polyline id="path80" fill="#449226" points="41.9785 46.565875 140.76875 145.355 140.22375 145.355 41.7065 46.836375 41.9785 46.565875"></polyline>
                    <polyline id="path82" fill="#449226" points="39.1655 49.015625 135.505 145.355 134.96 145.35375 38.893125 49.288125 39.1655 49.015625"></polyline>
                    <polyline id="path84" fill="#449226" points="36.714375 51.828625 130.315 145.355 129.7725 145.355 36.444375 52.101625 36.714375 51.828625"></polyline>
                    <polyline id="path86" fill="#449226" points="34.3555 54.27975 125.43 145.355 124.88625 145.355 34.083 54.55175 34.3555 54.27975"></polyline>
                    <polyline id="path88" fill="#449226" points="31.541 56.73 120.1665 145.355 119.622125 145.355 31.2695 57.0025 31.541 56.73"></polyline>
                    <polyline id="path90" fill="#449226" points="29.09125 59.452125 114.993125 145.355 114.44825 145.355 28.819875 59.725125 29.09125 59.452125"></polyline>
                    <polyline id="path92" fill="#449226" points="26.277875 61.903375 109.729 145.35625 109.184125 145.355 26.005375 62.17575 26.277875 61.903375"></polyline>
                    <polyline id="path94" fill="#449226" points="23.918 64.71625 104.556125 145.355 104.01125 145.355 23.645 64.98875 23.918 64.71625"></polyline>
                    <polyline id="path96" fill="#449226" points="21.1035 67.167 99.356875 145.355 98.8135 145.355 20.8335 67.4395 21.1035 67.167"></polyline>
                    <polyline id="path98" fill="#449226" points="18.65425 69.527375 94.482375 145.355 93.937 145.355 18.381875 69.798875 18.65425 69.527375"></polyline>
                    <polyline id="path100" fill="#449226" points="15.839875 72.340375 88.916 145.355 88.373 145.355 15.568875 72.61225 15.839875 72.340375"></polyline>
                    <polyline id="path102" fill="#449226" points="13.481 74.791 84.044875 145.355 83.5005 145.355 13.209 75.063 13.481 74.791"></polyline>
                    <polyline id="path104" fill="#449226" points="60.0395 28.504375 176.89 145.355 176.345 145.355 59.767125 28.776375 60.0395 28.504375"></polyline>
                    <polyline id="path106" fill="#449226" points="62.48975 25.690875 182.15375 145.355 181.61 145.355 62.21775 25.962875 62.48975 25.690875"></polyline>
                    <polyline id="path108" fill="#449226" points="65.30425 23.330625 187.32625 145.355 186.7825 145.355 65.03125 23.6035 65.30425 23.330625"></polyline>
                    <polyline id="path110" fill="#449226" points="67.753875 20.517625 192.59125 145.355 192.04625 145.355 67.481875 20.7905 67.753875 20.517625"></polyline>
                    <polyline id="path112" fill="#449226" points="70.476125 18.066875 197.76375 145.355 197.22 145.355 70.204125 18.339375 70.476125 18.066875"></polyline>
                    <polyline id="path114" fill="#449226" points="72.92725 15.253875 203.02875 145.355 202.48375 145.355 72.65475 15.526375 72.92725 15.253875"></polyline>
                    <polyline id="path116" fill="#449226" points="75.377 12.894 207.93625 145.355 207.3925 145.355 75.106 13.1665 75.377 12.894"></polyline>
                    <polyline id="path118" fill="#449226" points="78.190875 10.443875 213.1025 145.355 212.5575 145.355 77.919 10.71625 78.190875 10.443875"></polyline>
                    <polyline id="path120" fill="#449226" points="80.55025 7.629375 218.275 145.355 217.73 145.355 80.278375 7.902375 80.55025 7.629375"></polyline>
                    <polyline id="path122" fill="#449226" points="83.36425 5.17925 223.53875 145.355 222.99375 145.355 83.09225 5.451625 83.36425 5.17925"></polyline>
                    <polyline id="path124" fill="#449226" points="85.815 2.457 228.7125 145.355 228.1675 145.355 85.5425 2.729 85.815 2.457"></polyline>
                    <polyline id="path126" fill="#449226" points="88.628375 0.006375 233.97625 145.355 233.43125 145.355 88.356 0.27875 88.628375 0.006375"></polyline>
                    <path d="M157.67375,26.74025 C160.0325,26.74025 160.94125,29.190375 160.85,31.913125 C160.94125,34.726625 160.0325,36.995625 157.67375,37.17725 L156.36625,37.17725 L156.36625,26.74025 L157.67375,26.74025 Z M157.31,23.5635 L152.8625,23.5635 L152.8625,39.99075 L157.31,39.99075 C162.57375,40.26275 164.38875,36.632875 164.66125,31.913125 C164.66125,27.6475 162.48375,23.381875 157.31,23.5635 Z M132.62375,32.09475 C132.4425,36.995625 130.265,40.535125 126.36125,40.626 C122.005,40.535125 119.827125,36.814 119.736875,31.913125 C119.827125,27.193375 122.1875,23.2915 126.36125,23.2915 C130.265,23.2915 132.53375,27.284625 132.62375,32.09475 Z M125.99875,37.54 C128.08625,37.44925 128.99375,35.361875 128.8125,31.913125 C128.90375,28.918 128.1775,26.46775 125.99875,26.377 C124.18375,26.46775 123.4575,28.918 123.63875,31.913125 C123.4575,35.180625 124.18375,37.44925 125.99875,37.54 Z M178.23,31.920375 C178.04875,36.82125 175.87,40.360875 171.9675,40.451625 C167.61125,40.360875 165.4325,36.639625 165.3425,31.73875 C165.4325,27.019 167.7925,23.11675 171.9675,23.11675 C175.87,23.11675 178.13875,27.109875 178.23,31.920375 Z M171.605,37.36575 C173.6925,37.274875 174.6,35.1875 174.4175,31.73875 C174.50875,28.743625 173.7825,26.2935 171.605,26.202625 C169.79,26.2935 169.06375,28.743625 169.245,31.73875 C169.06375,35.005875 169.79,37.274875 171.605,37.36575 Z M134.07625,40.26275 L137.525,40.26275 L137.525,27.103 L141.7,27.103 L141.7,23.5635 L134.07625,23.5635 L134.07625,40.26275 Z M110.7515,40.26275 L119.736875,40.26275 L119.736875,36.814 L117.014125,36.814 L117.014125,23.5635 L113.474125,23.5635 L113.474125,36.814 L110.7515,36.814 L110.7515,40.26275 Z M143.06125,40.26275 L151.0475,40.26275 L151.0475,37.17725 L146.60125,37.17725 L146.60125,34.0005 L151.0475,34.0005 L151.0475,30.9145 L146.60125,30.9145 L146.60125,27.103 L151.0475,27.103 L151.0475,23.5635 L143.06125,23.5635 L143.06125,40.26275 Z M25.167,40.26275 L34.152375,40.26275 L34.152375,36.814 L31.7925,36.814 L31.7925,23.5635 L27.889625,23.5635 L27.889625,36.814 L25.167,36.814 L25.167,40.26275 Z M44.952125,40.26275 L48.49225,40.26275 L48.49225,27.103 L52.30375,27.103 L52.30375,23.5635 L44.952125,23.5635 L44.952125,40.26275 Z M16.817375,40.26275 L24.441375,40.26275 L24.441375,37.17725 L20.266625,37.17725 L20.266625,34.0005 L24.441375,34.0005 L24.441375,30.9145 L20.266625,30.9145 L20.266625,27.103 L24.441375,27.103 L24.441375,23.5635 L16.817375,23.5635 L16.817375,40.26275 Z M7.7417,29.825625 L10.191875,40.26275 L15.09325,40.26275 L15.09325,23.5635 L11.55325,23.5635 L11.55325,35.815875 L9.103,23.5635 L6.380375,23.5635 L3.5669,35.815875 L3.5669,23.5635 L0.1181625,23.5635 L0.1181625,40.26275 L5.2915,40.26275 L7.7417,29.825625 Z M34.878375,40.26275 L43.954125,40.26275 L43.954125,36.814 L41.140625,36.814 L41.140625,23.5635 L37.691875,23.5635 L37.691875,36.814 L34.878375,36.814 L34.878375,40.26275 Z M53.30225,40.26275 L61.288625,40.26275 L61.288625,37.17725 L56.84125,37.17725 L56.84125,34.0005 L61.288625,34.0005 L61.288625,30.9145 L56.84125,30.9145 L56.84125,27.103 L61.288625,27.103 L61.288625,23.5635 L53.30225,23.5635 L53.30225,40.26275 Z M67.914125,37.17725 L66.55275,37.17725 L66.55275,32.98825 L67.914125,33.002 C69.09375,33.002 69.910625,33.910125 70.0015,35.089375 C69.910625,36.2695 69.184625,37.17725 67.914125,37.17725 Z M66.55275,29.96925 L66.55275,23.5635 L62.74075,23.5635 L62.74075,40.26275 L68.640125,40.26275 C71.36275,40.3535 73.587875,38.190375 73.541,35.089375 C73.5025,32.534125 72.088875,31.09625 70.0015,30.55175 L74.17625,23.5635 L70.36475,23.5635 L66.607375,29.96925 L66.55275,29.96925 Z" id="path128" fill="#244BA6"></path>
                </g>
            </g>
        </g>
    </g>
</svg>