<?xml version="1.0" encoding="UTF-8"?>
<svg width="165px" height="116px" viewBox="0 0 165 116" version="1.1" xmlns="http://www.w3.org/2000/svg" xmlns:xlink="http://www.w3.org/1999/xlink">
    <!-- Generator: Sketch 41.2 (35397) - http://www.bohemiancoding.com/sketch -->
    <title>Untitled 2</title>
    <desc>Created with Sketch.</desc>
    <defs>
        <polygon id="path-1" points="0.638 0.5839 0.638 40.5979 26.6287 40.5979 26.6287 0.5839 0.638 0.5839"></polygon>
        <polygon id="path-3" points="35.4644 0.659 0.7454 0.659 0.7454 58.7469 35.4644 58.7469 35.4644 0.659"></polygon>
    </defs>
    <g id="Page-1" stroke="none" stroke-width="1" fill="none" fill-rule="evenodd">
        <g id="Group-43" transform="translate(18.000000, 15.276000)">
            <path d="M45.3154,34.5074 C45.3154,33.6384 46.0024,32.9504 46.8704,32.9504 L47.2144,32.9504 C47.8804,32.9504 48.3464,33.2954 48.6284,33.7604 L52.3874,39.8814 L56.1654,33.7394 C56.4884,33.2144 56.9334,32.9504 57.5594,32.9504 L57.9024,32.9504 C58.7724,32.9504 59.4594,33.6384 59.4594,34.5074 L59.4594,45.7414 C59.4594,46.6104 58.7724,47.2974 57.9024,47.2974 C57.0534,47.2974 56.3664,46.5894 56.3664,45.7414 L56.3664,38.6894 L53.6394,42.8934 C53.3164,43.3764 52.9124,43.6804 52.3464,43.6804 C51.7814,43.6804 51.3764,43.3764 51.0524,42.8934 L48.3664,38.7504 L48.3664,45.7824 C48.3664,46.6294 47.6794,47.2974 46.8304,47.2974 C45.9814,47.2974 45.3154,46.6294 45.3154,45.7824 L45.3154,34.5074 Z" id="Fill-1" fill="#003346"></path>
            <path d="M62.5357,41.1143 L62.5357,34.4663 C62.5357,33.5983 63.2227,32.9113 64.0907,32.9113 C64.9597,32.9113 65.6467,33.5983 65.6467,34.4663 L65.6467,41.0333 C65.6467,43.3373 66.7987,44.5293 68.6977,44.5293 C70.5977,44.5293 71.7477,43.3773 71.7477,41.1353 L71.7477,34.4663 C71.7477,33.5983 72.4347,32.9113 73.3037,32.9113 C74.1737,32.9113 74.8607,33.5983 74.8607,34.4663 L74.8607,41.0123 C74.8607,45.2963 72.4557,47.3973 68.6567,47.3973 C64.8587,47.3973 62.5357,45.2763 62.5357,41.1143" id="Fill-3" fill="#003346"></path>
            <path d="M77.5312,45.6808 C77.1882,45.4378 76.9452,44.9938 76.9452,44.5078 C76.9452,43.7008 77.5932,43.0738 78.4002,43.0738 C78.8052,43.0738 79.0882,43.2148 79.2892,43.3568 C80.3602,44.1448 81.5322,44.6308 82.9072,44.6308 C84.1792,44.6308 84.9472,44.1248 84.9472,43.2958 L84.9472,43.2568 C84.9472,42.4678 84.4622,42.0628 82.0972,41.4568 C79.2492,40.7308 77.4102,39.9418 77.4102,37.1338 L77.4102,37.0938 C77.4102,34.5278 79.4722,32.8308 82.3612,32.8308 C84.0782,32.8308 85.5742,33.2748 86.8462,34.0818 C87.1892,34.2848 87.5332,34.7088 87.5332,35.3148 C87.5332,36.1238 86.8862,36.7498 86.0792,36.7498 C85.7752,36.7498 85.5322,36.6688 85.2902,36.5268 C84.2602,35.9208 83.2912,35.5788 82.3192,35.5788 C81.1282,35.5788 80.5012,36.1238 80.5012,36.8118 L80.5012,36.8508 C80.5012,37.7808 81.1072,38.0838 83.5522,38.7108 C86.4232,39.4578 88.0382,40.4878 88.0382,42.9538 L88.0382,42.9928 C88.0382,45.8018 85.8962,47.3788 82.8462,47.3788 C80.9872,47.3788 79.1082,46.8118 77.5312,45.6808" id="Fill-5" fill="#003346"></path>
            <path d="M90.629,34.4662 C90.629,33.5982 91.316,32.9112 92.184,32.9112 C93.054,32.9112 93.741,33.5982 93.741,34.4662 L93.741,45.7412 C93.741,46.6102 93.054,47.2982 92.184,47.2982 C91.316,47.2982 90.629,46.6102 90.629,45.7412 L90.629,34.4662 Z" id="Fill-7" fill="#003346"></path>
            <path d="M97.0363,34.4662 C97.0363,33.5982 97.7233,32.9112 98.5913,32.9112 C99.4603,32.9112 100.1483,33.5982 100.1483,34.4662 L100.1483,39.2152 L105.8853,33.5172 C106.2693,33.1332 106.6533,32.9112 107.1983,32.9112 C108.0683,32.9112 108.6333,33.5772 108.6333,34.3452 C108.6333,34.8312 108.4113,35.1942 108.0683,35.5182 L104.0873,39.2362 L108.4313,44.6912 C108.6743,44.9942 108.8553,45.3172 108.8553,45.7822 C108.8553,46.6502 108.1893,47.2982 107.2803,47.2982 C106.6733,47.2982 106.3103,46.9952 105.9663,46.5492 L101.9253,41.2552 L100.1483,42.9122 L100.1483,45.7412 C100.1483,46.6102 99.4603,47.2982 98.5913,47.2982 C97.7233,47.2982 97.0363,46.6102 97.0363,45.7412 L97.0363,34.4662 Z" id="Fill-9" fill="#003346"></path>
            <path d="M45.0314,64.3657 C44.6884,64.1227 44.4454,63.6787 44.4454,63.1927 C44.4454,62.3857 45.0934,61.7587 45.9014,61.7587 C46.3054,61.7587 46.5874,61.8997 46.7894,62.0417 C47.8604,62.8297 49.0334,63.3147 50.4064,63.3147 C51.6794,63.3147 52.4474,62.8087 52.4474,61.9807 L52.4474,61.9407 C52.4474,61.1527 51.9614,60.7477 49.5984,60.1417 C46.7494,59.4147 44.9104,58.6267 44.9104,55.8177 L44.9104,55.7787 C44.9104,53.2127 46.9714,51.5147 49.8614,51.5147 C51.5774,51.5147 53.0744,51.9597 54.3464,52.7667 C54.6894,52.9697 55.0334,53.3937 55.0334,53.9997 C55.0334,54.8087 54.3864,55.4337 53.5784,55.4337 C53.2754,55.4337 53.0334,55.3537 52.7904,55.2117 C51.7604,54.6057 50.7904,54.2637 49.8204,54.2637 C48.6284,54.2637 48.0014,54.8087 48.0014,55.4957 L48.0014,55.5357 C48.0014,56.4657 48.6074,56.7687 51.0524,57.3957 C53.9234,58.1427 55.5384,59.1727 55.5384,61.6377 L55.5384,61.6777 C55.5384,64.4857 53.3964,66.0627 50.3464,66.0627 C48.4874,66.0627 46.6084,65.4967 45.0314,64.3657" id="Fill-11" fill="#003346"></path>
            <path d="M57.1788,58.8295 L57.1788,58.7885 C57.1788,54.7675 60.2098,51.4735 64.5538,51.4735 C66.6748,51.4735 68.1098,52.0405 69.2818,52.9095 C69.6058,53.1505 69.8878,53.5955 69.8878,54.1405 C69.8878,54.9895 69.2008,55.6565 68.3518,55.6565 C67.9288,55.6565 67.6448,55.4955 67.4228,55.3535 C66.5548,54.7075 65.6458,54.3445 64.5328,54.3445 C62.1498,54.3445 60.4318,56.3245 60.4318,58.7485 L60.4318,58.7885 C60.4318,61.2125 62.1088,63.2345 64.5328,63.2345 C65.8468,63.2345 66.7158,62.8295 67.6048,62.1225 C67.8478,61.9205 68.1698,61.7795 68.5348,61.7795 C69.3218,61.7795 69.9898,62.4255 69.9898,63.2135 C69.9898,63.6985 69.7468,64.0835 69.4628,64.3245 C68.1898,65.4365 66.6958,66.1025 64.4338,66.1025 C60.2698,66.1025 57.1788,62.8895 57.1788,58.8295" id="Fill-13" fill="#003346"></path>
            <path d="M72.4188,53.1508 C72.4188,52.2828 73.1058,51.5958 73.9738,51.5958 C74.8438,51.5958 75.5308,52.2828 75.5308,53.1508 L75.5308,57.3148 L81.2678,57.3148 L81.2678,53.1508 C81.2678,52.2828 81.9548,51.5958 82.8238,51.5958 C83.6918,51.5958 84.3788,52.2828 84.3788,53.1508 L84.3788,64.4258 C84.3788,65.2958 83.6918,65.9818 82.8238,65.9818 C81.9548,65.9818 81.2678,65.2958 81.2678,64.4258 L81.2678,60.1828 L75.5308,60.1828 L75.5308,64.4258 C75.5308,65.2958 74.8438,65.9818 73.9738,65.9818 C73.1058,65.9818 72.4188,65.2958 72.4188,64.4258 L72.4188,53.1508 Z" id="Fill-15" fill="#003346"></path>
            <path d="M87.854,59.799 L87.854,53.151 C87.854,52.283 88.541,51.596 89.409,51.596 C90.279,51.596 90.966,52.283 90.966,53.151 L90.966,59.718 C90.966,62.022 92.117,63.214 94.017,63.214 C95.916,63.214 97.066,62.062 97.066,59.82 L97.066,53.151 C97.066,52.283 97.753,51.596 98.623,51.596 C99.492,51.596 100.18,52.283 100.18,53.151 L100.18,59.698 C100.18,63.981 97.774,66.082 93.976,66.082 C90.177,66.082 87.854,63.961 87.854,59.799" id="Fill-17" fill="#003346"></path>
            <path d="M103.2544,53.1508 C103.2544,52.2828 103.9414,51.5958 104.8094,51.5958 C105.6784,51.5958 106.3664,52.2828 106.3664,53.1508 L106.3664,63.0308 L112.1234,63.0308 C112.9124,63.0308 113.5374,63.6578 113.5374,64.4468 C113.5374,65.2328 112.9124,65.8598 112.1234,65.8598 L104.8094,65.8598 C103.9414,65.8598 103.2544,65.1728 103.2544,64.3058 L103.2544,53.1508 Z" id="Fill-19" fill="#003346"></path>
            <path d="M115.3006,64.3054 L115.3006,53.2724 C115.3006,52.4034 115.9876,51.7164 116.8556,51.7164 L124.6956,51.7164 C125.4626,51.7164 126.0896,52.3434 126.0896,53.1114 C126.0896,53.8794 125.4626,54.4854 124.6956,54.4854 L118.3916,54.4854 L118.3916,57.3534 L123.7856,57.3534 C124.5536,57.3534 125.1806,57.9804 125.1806,58.7484 C125.1806,59.5164 124.5536,60.1224 123.7856,60.1224 L118.3916,60.1224 L118.3916,63.0924 L124.7966,63.0924 C125.5646,63.0924 126.1916,63.7184 126.1916,64.4864 C126.1916,65.2544 125.5646,65.8604 124.7966,65.8604 L116.8556,65.8604 C115.9876,65.8604 115.3006,65.1734 115.3006,64.3054" id="Fill-21" fill="#003346"></path>
            <path d="M51.5778,77.2713 C53.0938,77.2713 53.9628,76.4623 53.9628,75.2713 L53.9628,75.2313 C53.9628,73.8963 53.0328,73.2093 51.5178,73.2093 L48.4268,73.2093 L48.4268,77.2713 L51.5778,77.2713 Z M45.3158,71.9573 C45.3158,71.0883 46.0028,70.4013 46.8698,70.4013 L51.7808,70.4013 C53.5788,70.4013 54.9738,70.9073 55.9028,71.8353 C56.6898,72.6243 57.1158,73.7343 57.1158,75.0693 L57.1158,75.1093 C57.1158,77.3313 56.0038,78.7063 54.2858,79.4133 L56.4478,82.0393 C56.7508,82.4233 56.9538,82.7473 56.9538,83.2323 C56.9538,84.1003 56.2258,84.6673 55.4778,84.6673 C54.7698,84.6673 54.3058,84.3223 53.9418,83.8573 L50.9118,80.0193 L48.4268,80.0193 L48.4268,83.1103 C48.4268,83.9793 47.7398,84.6673 46.8698,84.6673 C46.0028,84.6673 45.3158,83.9793 45.3158,83.1103 L45.3158,71.9573 Z" id="Fill-23" fill="#003346"></path>
            <path d="M70.6971,77.5144 L70.6971,77.4724 C70.6971,75.0484 68.9191,73.0284 66.4131,73.0284 C63.9081,73.0284 62.1701,75.0094 62.1701,77.4334 L62.1701,77.4724 C62.1701,79.8974 63.9491,81.9194 66.4541,81.9194 C68.9601,81.9194 70.6971,79.9384 70.6971,77.5144 M58.9181,77.5144 L58.9181,77.4724 C58.9181,73.4524 62.0901,70.1584 66.4541,70.1584 C70.8181,70.1584 73.9501,73.4124 73.9501,77.4334 L73.9501,77.4724 C73.9501,81.4934 70.7781,84.7874 66.4131,84.7874 C62.0501,84.7874 58.9181,81.5354 58.9181,77.5144" id="Fill-25" fill="#003346"></path>
            <path d="M76.4603,71.8768 C76.4603,71.0068 77.1473,70.3198 78.0153,70.3198 L78.3383,70.3198 C79.0863,70.3198 79.5303,70.6838 79.9553,71.2288 L85.9563,79.1108 L85.9563,71.8168 C85.9563,70.9678 86.6433,70.2808 87.4923,70.2808 C88.3413,70.2808 89.0263,70.9678 89.0263,71.8168 L89.0263,83.0708 C89.0263,83.9388 88.3413,84.6258 87.4723,84.6258 L87.3703,84.6258 C86.6223,84.6258 86.1783,84.2618 85.7543,83.7168 L79.5303,75.5528 L79.5303,83.1308 C79.5303,83.9798 78.8433,84.6668 77.9963,84.6668 C77.1473,84.6668 76.4603,83.9798 76.4603,83.1308 L76.4603,71.8768 Z" id="Fill-27" fill="#003346"></path>
            <path d="M95.2351,73.2699 L92.2461,73.2699 C91.4581,73.2699 90.8121,72.6239 90.8121,71.8359 C90.8121,71.0489 91.4581,70.4009 92.2461,70.4009 L101.3371,70.4009 C102.1261,70.4009 102.7721,71.0489 102.7721,71.8359 C102.7721,72.6239 102.1261,73.2699 101.3371,73.2699 L98.3471,73.2699 L98.3471,83.1109 C98.3471,83.9799 97.6611,84.6669 96.7921,84.6669 C95.9221,84.6669 95.2351,83.9799 95.2351,83.1109 L95.2351,73.2699 Z" id="Fill-29" fill="#003346"></path>
            <path d="M110.9578,78.6251 L108.9978,73.9571 L107.0388,78.6251 L110.9578,78.6251 Z M102.2088,82.5451 L107.1388,71.4121 C107.4828,70.6441 108.1078,70.1791 108.9568,70.1791 L109.1388,70.1791 C109.9888,70.1791 110.5948,70.6441 110.9368,71.4121 L115.8668,82.5451 C115.9688,82.7681 116.0288,82.9691 116.0288,83.1711 C116.0288,83.9991 115.3828,84.6671 114.5548,84.6671 C113.8258,84.6671 113.3428,84.2421 113.0588,83.5961 L112.1098,81.3731 L105.8868,81.3731 L104.8968,83.6961 C104.6328,84.3021 104.1078,84.6671 103.4618,84.6671 C102.6528,84.6671 102.0258,84.0191 102.0258,83.2121 C102.0258,82.9901 102.1068,82.7681 102.2088,82.5451 L102.2088,82.5451 Z" id="Fill-31" fill="#003346"></path>
            <path d="M117.9138,71.8357 C117.9138,70.9677 118.6008,70.2807 119.4688,70.2807 C120.3378,70.2807 121.0248,70.9677 121.0248,71.8357 L121.0248,81.7157 L126.7828,81.7157 C127.5718,81.7157 128.1968,82.3427 128.1968,83.1307 C128.1968,83.9177 127.5718,84.5447 126.7828,84.5447 L119.4688,84.5447 C118.6008,84.5447 117.9138,83.8577 117.9138,82.9897 L117.9138,71.8357 Z" id="Fill-33" fill="#003346"></path>
            <path d="M2.9837,40.8288 C1.7267,40.8288 0.7097,39.8098 0.7097,38.5538 C0.7097,37.2968 1.7267,36.2778 2.9837,36.2778 C8.4857,36.2778 12.9617,31.8018 12.9617,26.3008 C12.9617,22.7618 11.1357,19.5598 8.0777,17.7368 C6.9987,17.0938 6.6447,15.6978 7.2887,14.6188 C7.9317,13.5398 9.3277,13.1828 10.4067,13.8298 C14.7887,16.4418 17.5107,21.2208 17.5107,26.3008 C17.5107,34.3108 10.9937,40.8288 2.9837,40.8288" id="Fill-35" fill="#CF1F3D"></path>
            <g id="Group-39" transform="translate(0.000000, 2.000000)">
                <mask id="mask-2" fill="white">
                    <use xlink:href="#path-1"></use>
                </mask>
                <g id="Clip-38"></g>
                <path d="M19.1107,40.5979 C18.5827,40.5979 18.0527,40.4159 17.6227,40.0429 C16.6727,39.2189 16.5697,37.7829 17.3927,36.8329 C20.4147,33.3439 22.0797,28.8929 22.0797,24.3009 C22.0797,13.7319 13.4807,5.1339 2.9127,5.1339 C1.6557,5.1339 0.6377,4.1159 0.6377,2.8589 C0.6377,1.6019 1.6557,0.5839 2.9127,0.5839 C15.9897,0.5839 26.6287,11.2239 26.6287,24.3009 C26.6287,29.9859 24.5707,35.4949 20.8307,39.8129 C20.3807,40.3309 19.7477,40.5979 19.1107,40.5979" id="Fill-37" fill="#009460" mask="url(#mask-2)"></path>
            </g>
            <g id="Group-42">
                <mask id="mask-4" fill="white">
                    <use xlink:href="#path-3"></use>
                </mask>
                <g id="Clip-41"></g>
                <path d="M3.0194,58.7469 C1.7624,58.7469 0.7454,57.7279 0.7454,56.4719 C0.7454,55.2149 1.7624,54.1969 3.0194,54.1969 C18.4014,54.1969 30.9154,41.6829 30.9154,26.3009 C30.9154,17.8979 27.1754,10.0239 20.6534,4.6939 C19.6814,3.8989 19.5364,2.4659 20.3314,1.4939 C21.1274,0.5209 22.5604,0.3769 23.5324,1.1719 C31.1154,7.3679 35.4644,16.5269 35.4644,26.3009 C35.4644,44.1909 20.9104,58.7469 3.0194,58.7469" id="Fill-40" fill="#5CA7D0" mask="url(#mask-4)"></path>
            </g>
        </g>
    </g>
</svg>