<svg viewBox="0 0 451 93" width="451" height="93" xmlns="http://www.w3.org/2000/svg" xmlns:xlink="http://www.w3.org/1999/xlink"><clipPath id="a"><path d="m266.74 45.419h7.211v24.922h-7.211z"/></clipPath><clipPath id="b"><path d="m0-.401h451v94h-451z"/></clipPath><clipPath id="c"><path d="m275.48 45.419h7.209v24.922h-7.209z"/></clipPath><clipPath id="d"><path clip-rule="evenodd" d="m283.892 45.418h7.208v8.574h.11c1.02-1.889 2.585-2.579 4.769-2.579 5.207 0 6.992 4.978 6.992 9.41 0 5.159-2.186 9.881-8.011 9.881a6.846 6.846 0 0 1 -5.972-2.9 12.725 12.725 0 0 0 -.983 2.542h-4.114zm7.245 17.549c0 1.453.181 3.232 2.075 3.232 2.478 0 2.4-3.3 2.4-5.086s.109-5.086-2.476-5.086a1.942 1.942 0 0 0 -1.564.836 2.633 2.633 0 0 0 -.439 1.962z"/></clipPath><clipPath id="e"><path clip-rule="evenodd" d="m314.113 70.341v-3.05h-.071c-.765 2.4-3.242 3.414-5.645 3.414a5.9 5.9 0 0 1 -4.151-1.418c-1.31-1.306-1.455-2.941-1.455-4.686v-12.824h7.209v11.223c0 1.2-.037 2.473 1.6 2.473a1.959 1.959 0 0 0 1.749-1.054 4.042 4.042 0 0 0 .363-1.962v-10.68h7.21v18.564zm-7.463-24.341a2.4 2.4 0 1 1 2.367 2.4 2.415 2.415 0 0 1 -2.367-2.4zm6.407 0a2.4 2.4 0 1 1 2.369 2.4 2.416 2.416 0 0 1 -2.369-2.4z"/></clipPath><clipPath id="f"><path clip-rule="evenodd" d="m333.452 70.341v-11.553c0-1.235-.256-2.288-1.749-2.288a2.046 2.046 0 0 0 -1.711.907 2.544 2.544 0 0 0 -.4 1.781v11.153h-7.209v-24.922h7.209v8.538a6.45 6.45 0 0 1 5.245-2.545c1.819 0 3.75.509 4.769 2.034 1.056 1.6 1.056 3.38 1.056 5.269v11.626z"/></clipPath><clipPath id="g"><path d="m341.754 45.419h7.209v24.922h-7.209z"/></clipPath><clipPath id="h"><path clip-rule="evenodd" d="m22.721 25.288h-3.75l-1.019-2.617a8.242 8.242 0 0 1 -6.774 2.981c-7.278 0-11.178-5.595-11.178-12.426a14.779 14.779 0 0 1 2.913-9.266c2.366-2.979 5.387-3.96 9.067-3.96 5.789 0 9.649 2.943 10.741 8.648l-7.428.762c-.291-2-1.129-3.888-3.46-3.888-3.532 0-3.75 4.723-3.75 7.268a12.054 12.054 0 0 0 .655 4.577 3.651 3.651 0 0 0 3.423 2.4 3.128 3.128 0 0 0 3.424-3.161h-4.115v-5.27h11.251z"/></clipPath><clipPath id="i"><path clip-rule="evenodd" d="m42.713 19.076c-1.129 4.5-5.134 6.576-9.54 6.576a10.982 10.982 0 0 1 -7.5-2.435 9.26 9.26 0 0 1 -3.058-6.976 10.324 10.324 0 0 1 2.73-7.012 10.346 10.346 0 0 1 7.391-2.869c6.191 0 9.977 4 9.977 10.1v.981h-12.452c-.111 2 .619 3.452 2.8 3.452a2.489 2.489 0 0 0 2.841-2.252zm-7.282-5.269c0-1.818-.582-3.2-2.623-3.2-1.892 0-2.658 1.49-2.585 3.2z"/></clipPath><clipPath id="j"><path clip-rule="evenodd" d="m49.56 6.722v2.506h.072a5.5 5.5 0 0 1 5.061-2.869 5.585 5.585 0 0 1 5.245 2.869 5.956 5.956 0 0 1 5.569-2.869 6.047 6.047 0 0 1 4.334 1.6c1.348 1.381 1.348 3.2 1.348 5.158v12.172h-7.064v-11.155c0-1.2.145-2.543-1.53-2.543-2.039 0-1.966 1.889-1.966 3.379v10.319h-7.064v-11.155c0-1.162-.073-2.652-1.638-2.652-1.713 0-1.858 1.271-1.858 2.652v11.155h-7.064v-18.567z"/></clipPath><clipPath id="k"><path clip-rule="evenodd" d="m91.508 19.076c-1.129 4.5-5.134 6.576-9.54 6.576a10.981 10.981 0 0 1 -7.5-2.435 9.26 9.26 0 0 1 -3.058-6.976 10.324 10.324 0 0 1 2.73-7.012 10.345 10.345 0 0 1 7.39-2.869c6.192 0 9.978 4 9.978 10.1v.981h-12.452c-.111 2 .619 3.452 2.8 3.452a2.489 2.489 0 0 0 2.844-2.254zm-7.282-5.269c0-1.818-.582-3.2-2.623-3.2-1.892 0-2.658 1.49-2.585 3.2z"/></clipPath><clipPath id="l"><path clip-rule="evenodd" d="m91.911 4.942h7.209v-4.942h-7.209zm0 20.346h7.209v-18.567h-7.209z"/></clipPath><clipPath id="m"><path clip-rule="evenodd" d="m107.241 6.722v2.617h.072c.874-2.109 3.022-2.98 5.281-2.98a6.1 6.1 0 0 1 4.842 1.925c1.164 1.525 1.164 3.634 1.164 5.56v11.445h-7.209v-11.264c0-1.126 0-2.688-1.565-2.688-2 0-2.186 1.707-2.186 3.233v10.719h-7.209v-18.567z"/></clipPath><clipPath id="n"><path clip-rule="evenodd" d="m130.726 25.289v-2.473h-.073a4.97 4.97 0 0 1 -4.95 2.836c-5.353 0-7.211-4.979-7.211-9.556 0-4.759 1.821-9.737 7.429-9.737a6.249 6.249 0 0 1 4.442 1.89v-7.885h7.209v24.925zm-.363-11.519a3.439 3.439 0 0 0 -.437-2.18 1.956 1.956 0 0 0 -1.566-.727c-1.273 0-1.821.838-2.039 1.962a18.49 18.49 0 0 0 -.364 3.452c0 1.634.109 4.543 2.367 4.543a1.787 1.787 0 0 0 1.6-.945 3.79 3.79 0 0 0 .437-2.362z"/></clipPath><clipPath id="o"><path clip-rule="evenodd" d="m157.782 19.076c-1.128 4.5-5.134 6.576-9.54 6.576a10.978 10.978 0 0 1 -7.5-2.435 9.257 9.257 0 0 1 -3.059-6.976 10.329 10.329 0 0 1 2.73-7.012 10.346 10.346 0 0 1 7.391-2.869c6.191 0 9.977 4 9.977 10.1v.981h-12.451c-.11 2 .619 3.452 2.8 3.452a2.489 2.489 0 0 0 2.841-2.252zm-7.282-5.269c0-1.818-.583-3.2-2.622-3.2-1.894 0-2.659 1.49-2.587 3.2z"/></clipPath><clipPath id="p"><path clip-rule="evenodd" d="m189.686 16.785c.655 2.217 2.331 3.016 4.552 3.016.983 0 2.949-.145 2.949-1.526 0-1.526-1.93-1.816-3.058-2.033-4.7-.91-10.27-2.181-10.27-8.1a7.744 7.744 0 0 1 3.206-6.25 12.661 12.661 0 0 1 7.173-1.892c4.333 0 8.52 1.781 10.049 6.105l-6.334 1.925c-.73-1.852-2.112-2.507-4.044-2.507-1.019 0-2.474.291-2.474 1.6s1.819 1.562 2.765 1.777a26.608 26.608 0 0 1 7.064 2 6.934 6.934 0 0 1 3.715 6.357c0 5.994-5.972 8.394-11.143 8.394-5.243 0-9.9-2.181-11.251-7.594z"/></clipPath><clipPath id="q"><path clip-rule="evenodd" d="m224.971 19.076c-1.129 4.5-5.134 6.576-9.541 6.576a10.98 10.98 0 0 1 -7.5-2.435 9.26 9.26 0 0 1 -3.058-6.976 10.324 10.324 0 0 1 2.73-7.012 10.345 10.345 0 0 1 7.39-2.869c6.192 0 9.978 4 9.978 10.1v.981h-12.451c-.111 2 .618 3.452 2.8 3.452a2.488 2.488 0 0 0 2.84-2.252zm-7.282-5.269c0-1.818-.582-3.2-2.621-3.2-1.894 0-2.66 1.49-2.587 3.2z"/></clipPath><clipPath id="r"><path clip-rule="evenodd" d="m231.819 6.722v2.506h.071a5.506 5.506 0 0 1 5.063-2.869 5.586 5.586 0 0 1 5.247 2.869 5.953 5.953 0 0 1 5.569-2.869 6.044 6.044 0 0 1 4.332 1.6c1.35 1.381 1.35 3.2 1.35 5.158v12.172h-7.064v-11.155c0-1.2.145-2.543-1.531-2.543-2.039 0-1.967 1.889-1.967 3.379v10.319h-7.063v-11.155c0-1.162-.073-2.652-1.639-2.652-1.71 0-1.855 1.271-1.855 2.652v11.155h-7.064v-18.567z"/></clipPath><clipPath id="s"><path clip-rule="evenodd" d="m261.06 6.722v2.653h.073c.763-2.253 2.8-3.015 5.279-3.015 5.242 0 6.989 5.084 6.989 9.445a13.566 13.566 0 0 1 -1.31 6.248 6.3 6.3 0 0 1 -5.716 3.6 5.589 5.589 0 0 1 -4.805-2.362v7.848h-7.209v-24.417zm.546 11.336c0 1.309.218 3.016 1.965 3.016a1.918 1.918 0 0 0 1.966-1.528 13.22 13.22 0 0 0 .365-3.378c0-1.525.036-5.194-2.257-5.194a2.117 2.117 0 0 0 -1.6.762 2.636 2.636 0 0 0 -.436 1.889z"/></clipPath><clipPath id="t"><path clip-rule="evenodd" d="m285.274 25.288a12.161 12.161 0 0 1 -.256-2.58 6.772 6.772 0 0 1 -6.081 2.944c-3.459 0-6.481-1.892-6.481-5.6 0-2.943 2.3-4.907 4.881-5.7a31.373 31.373 0 0 1 7.317-1.163v-.144c0-1.673-.436-2.326-2.185-2.326-1.42 0-2.621.508-2.839 2.07l-6.63-.617c1.092-4.614 5.5-5.812 9.685-5.812 2.184 0 4.988.29 6.808 1.6 2.44 1.708 2.15 4.1 2.15 6.758v6.5a10.33 10.33 0 0 0 .582 4.069zm-.62-8.683c-1.747.179-4.661.726-4.661 2.979 0 1.2.766 1.707 1.894 1.707 2.73 0 2.767-2.288 2.767-4.324z"/></clipPath><clipPath id="u"><path clip-rule="evenodd" d="m309.854 18.312c-.655 4.795-4.078 7.34-8.812 7.34a9.026 9.026 0 0 1 -6.847-2.545 9.748 9.748 0 0 1 -2.766-7.048c0-5.6 3.858-9.7 9.576-9.7 4.588 0 8.231 2.688 8.775 7.338l-6.371.546-.036-.182c-.254-1.271-.546-2.725-2.148-2.725-2.3 0-2.3 3.016-2.3 4.65 0 1.745.036 4.58 2.4 4.58 1.567 0 2.15-1.419 2.333-2.762z"/></clipPath><clipPath id="v"><path clip-rule="evenodd" d="m320.634 25.288v-11.554c0-1.236-.256-2.289-1.749-2.289a2.047 2.047 0 0 0 -1.711.908 2.544 2.544 0 0 0 -.4 1.78v11.155h-7.21v-24.924h7.21v8.536a6.445 6.445 0 0 1 5.244-2.543c1.82 0 3.75.508 4.769 2.034 1.056 1.6 1.056 3.379 1.056 5.269v11.628z"/></clipPath><clipPath id="w"><path clip-rule="evenodd" d="m344.447 16.785c.653 2.215 2.331 3.015 4.553 3.015.981 0 2.949-.145 2.949-1.526 0-1.526-1.93-1.816-3.062-2.033-4.695-.91-10.266-2.181-10.266-8.1a7.746 7.746 0 0 1 3.2-6.25 12.676 12.676 0 0 1 7.179-1.891c4.332 0 8.517 1.781 10.048 6.105l-6.336 1.925c-.727-1.852-2.11-2.507-4.042-2.507-1.019 0-2.474.291-2.474 1.6s1.82 1.562 2.767 1.779a26.633 26.633 0 0 1 7.063 2 6.934 6.934 0 0 1 3.716 6.357c0 5.994-5.972 8.394-11.144 8.394-5.243 0-9.9-2.181-11.251-7.594z"/></clipPath><clipPath id="x"><path clip-rule="evenodd" d="m358.794 11.444v-4.722h3.024l.545-5.922 6.262-.217v6.14h3.717v4.722h-3.642v6.395c0 1.345-.145 2.4 1.567 2.4a8.191 8.191 0 0 0 2.076-.327v5.2l-4.262.545a5.881 5.881 0 0 1 -5.206-1.889c-1.42-1.526-1.382-3.306-1.382-5.306v-7.019z"/></clipPath><clipPath id="y"><path clip-rule="evenodd" d="m384.684 25.288a12.226 12.226 0 0 1 -.254-2.58 6.774 6.774 0 0 1 -6.082 2.944c-3.459 0-6.48-1.892-6.48-5.6 0-2.943 2.3-4.907 4.88-5.7a31.381 31.381 0 0 1 7.318-1.163v-.144c0-1.673-.436-2.326-2.184-2.326-1.421 0-2.622.508-2.841 2.07l-6.627-.617c1.092-4.614 5.5-5.812 9.685-5.812 2.186 0 4.989.29 6.81 1.6 2.44 1.708 2.148 4.1 2.148 6.758v6.5a10.331 10.331 0 0 0 .583 4.069zm-.618-8.683c-1.749.179-4.66.726-4.66 2.979 0 1.2.765 1.707 1.892 1.707 2.732 0 2.768-2.288 2.768-4.324z"/></clipPath><clipPath id="z"><path clip-rule="evenodd" d="m390.11 11.444v-4.722h3.024l.545-5.922 6.262-.217v6.14h3.717v4.722h-3.643v6.395c0 1.345-.145 2.4 1.567 2.4a8.191 8.191 0 0 0 2.076-.327v5.2l-4.262.545a5.881 5.881 0 0 1 -5.206-1.889c-1.42-1.526-1.382-3.306-1.382-5.306v-7.019z"/></clipPath><clipPath id="A"><path clip-rule="evenodd" d="m404.167 4.942h7.209v-4.942h-7.209zm0 20.346h7.209v-18.567h-7.209z"/></clipPath><clipPath id="B"><path clip-rule="evenodd" d="m432.388 16.168c0 5.631-4.553 9.483-10.233 9.483s-10.233-3.852-10.233-9.483c0-5.959 4.408-9.809 10.233-9.809s10.233 3.85 10.233 9.809m-12.745-.253c0 4.977 1.2 5.341 2.512 5.341s2.513-.364 2.513-5.341c0-1.781-.035-5.014-2.513-5.014s-2.512 3.233-2.512 5.014"/></clipPath><clipPath id="C"><path clip-rule="evenodd" d="m439.162 6.722v2.617h.072c.875-2.109 3.022-2.98 5.281-2.98a6.1 6.1 0 0 1 4.842 1.925c1.164 1.525 1.164 3.634 1.164 5.56v11.445h-7.209v-11.264c0-1.126 0-2.688-1.565-2.688-2 0-2.186 1.707-2.186 3.233v10.719h-7.209v-18.567z"/></clipPath><clipPath id="D"><path clip-rule="evenodd" d="m126.614 47.959-7.172-11.659-2.223-4.5-.072.073.072.291a15.794 15.794 0 0 1 .51 4.178v11.617h-6.229v-24.922h7.246l8.375 13.914.073-.073-.546-6.9v-6.941h6.227v24.922z"/></clipPath><clipPath id="E"><path clip-rule="evenodd" d="m153.67 41.747c-1.129 4.505-5.134 6.576-9.54 6.576a10.972 10.972 0 0 1 -7.5-2.435 9.253 9.253 0 0 1 -3.058-6.975 10.32 10.32 0 0 1 2.728-7.013 10.347 10.347 0 0 1 7.391-2.87c6.191 0 9.977 4 9.977 10.1v.979h-12.45c-.11 2 .619 3.452 2.8 3.452a2.488 2.488 0 0 0 2.841-2.252zm-7.282-5.267c0-1.817-.582-3.2-2.621-3.2-1.894 0-2.659 1.488-2.587 3.2z"/></clipPath><clipPath id="F"><path clip-rule="evenodd" d="m165.178 47.959v-3.051h-.072c-.766 2.4-3.24 3.415-5.646 3.415a5.906 5.906 0 0 1 -4.149-1.417c-1.311-1.307-1.458-2.941-1.458-4.686v-12.826h7.211v11.226c0 1.2-.036 2.472 1.6 2.472a1.957 1.957 0 0 0 1.748-1.055 4.02 4.02 0 0 0 .363-1.96v-10.683h7.209v18.565z"/></clipPath><clipPath id="G"><path clip-rule="evenodd" d="m193 41.747c-1.128 4.505-5.134 6.576-9.54 6.576a10.968 10.968 0 0 1 -7.5-2.435 9.251 9.251 0 0 1 -3.059-6.975 10.324 10.324 0 0 1 2.73-7.011 10.347 10.347 0 0 1 7.391-2.87c6.191 0 9.977 4 9.977 10.1v.979h-12.454c-.11 2 .619 3.452 2.8 3.452a2.488 2.488 0 0 0 2.841-2.252zm-7.281-5.267c0-1.817-.583-3.2-2.624-3.2-1.892 0-2.657 1.488-2.585 3.2z"/></clipPath><clipPath id="H"><path clip-rule="evenodd" d="m199.991 29.4v2.61h.072c.875-2.107 3.022-2.979 5.281-2.979a6.1 6.1 0 0 1 4.842 1.926c1.164 1.526 1.164 3.634 1.164 5.558v11.445h-7.209v-11.26c0-1.125 0-2.688-1.565-2.688-2 0-2.186 1.707-2.186 3.235v10.713h-7.209v-18.56z"/></clipPath><clipPath id="I"><path clip-rule="evenodd" d="m225.881 35.789 6.262 12.171h-7.536l-3.496-7.448-1.821 2.326v5.122h-7.209v-24.922h7.209v13.441l1.566-2.071 4.37-5.013h6.262z"/></clipPath><clipPath id="J"><path clip-rule="evenodd" d="m231.27 27.614h7.211v-4.941h-7.211zm0 20.345h7.211v-18.566h-7.211z"/></clipPath><clipPath id="K"><path clip-rule="evenodd" d="m245.982 33.21c.618-2.581 1.966-4.4 4.843-4.179l.983.072v6.5a5.73 5.73 0 0 0 -1.384-.182 3.091 3.091 0 0 0 -2.949 1.27 6.668 6.668 0 0 0 -.51 3.2v8.069h-7.211v-18.566h6.155v3.816z"/></clipPath><clipPath id="L"><path clip-rule="evenodd" d="m270.16 40.984c-.655 4.8-4.078 7.339-8.811 7.339a9.033 9.033 0 0 1 -6.849-2.543 9.749 9.749 0 0 1 -2.766-7.05c0-5.594 3.86-9.7 9.578-9.7 4.586 0 8.228 2.69 8.774 7.34l-6.371.547-.038-.183c-.254-1.273-.546-2.726-2.148-2.726-2.293 0-2.293 3.015-2.293 4.65 0 1.745.037 4.579 2.4 4.579 1.568 0 2.148-1.417 2.331-2.762z"/></clipPath><clipPath id="M"><path clip-rule="evenodd" d="m280.939 47.959v-11.553c0-1.234-.254-2.288-1.748-2.288a2.045 2.045 0 0 0 -1.711.907 2.553 2.553 0 0 0 -.4 1.781v11.153h-7.21v-24.922h7.211v8.538a6.451 6.451 0 0 1 5.243-2.545c1.819 0 3.751.509 4.77 2.035 1.056 1.6 1.056 3.379 1.056 5.269v11.625z"/></clipPath><clipPath id="N"><path d="m18.007 38.897h70.467v54.038h-70.467z"/></clipPath><clipPath id="O"><path d="m-255-36.401h1920v3856h-1920z"/></clipPath><clipPath id="P"><path d="m18 38.599h71v55h-71z"/></clipPath><clipPath id="Q"><path clip-rule="evenodd" d="m88.267 44.276.207.6c-1.09.52-2.333 1.005-3.2 1.444.2 1.734-1.145 2.717-1.99 2.4-1.656 7.755-2.238 23.04-.1 34.815 1.525.072 1.806.668 1.984 1.61a3.575 3.575 0 0 1 .019.756 29.876 29.876 0 0 1 2.97 1.584c-.1.124-.158.675-.363.615 0 0-2.536-1.544-2.852-1.4.055.126-.348.264-.216.421.247.3 2.48 1.593 2.752 1.931l-.444.5c-.134.048-1.866-1.506-2.6-1.974a.616.616 0 0 0 -.3.274 14.885 14.885 0 0 0 2.345 2.358 4.081 4.081 0 0 1 -.557.58c-.182-.057-2.146-2.672-2.386-2.544-.023.059-.186.156-.334.311.412.686 2.055 2.895 2.055 2.895-.12.076-.633.5-.6.392-.483-.4-1.559-2.289-2.011-2.669-.181-.152-.475.216-.565.2a20.572 20.572 0 0 1 1.648 3.025s-.455.3-.56.394c-.551-.717-1.1-2.07-1.8-3.128-.337-.216-.567.158-.991-.087-.417.042-1.844-.67-1.568-1.736a33.631 33.631 0 0 0 -5.363-1.445 103.223 103.223 0 0 0 -16.479-1.835c-1.572-.164-3.987-.062-5.632-.081-8.33.219-15.955.722-23.8 3.384a1.686 1.686 0 0 1 -2.119 1.8l-1.055 3.28-.655-.325 1.132-3.243a4.866 4.866 0 0 1 -.463-.215s-1.437 2.616-1.71 2.88a2.978 2.978 0 0 1 -.582-.439c.179-.123 1.75-2.84 1.75-2.84-.125-.117-.346-.407-.5-.366s-2.171 2.235-2.26 2.329c-.118.122-.344-.4-.469-.517 0 0 1.889-1.865 2.26-2.29-.139-.076-.155-.365-.277-.372-.413.2-2.595 1.412-2.887 1.59a1.482 1.482 0 0 1 -.283-.636c.487-.314 2.965-1.515 2.965-1.515a3.236 3.236 0 0 0 -.318-.484c-.454.064-3.09 1.028-3.09 1.028-.1-.015-.106-.616-.172-.751l3.17-.878c-.184-1.205.25-2.046 1.5-2.043a147.28 147.28 0 0 0 1.738-17.585 110.379 110.379 0 0 0 -1.011-15.328 19.16 19.16 0 0 0 -.806-3.152 1.886 1.886 0 0 1 -2.228-2.283c-1.274-.724-2.621-1.33-3.164-1.7.025-.079.266-.551.325-.651.049-.083 2.284 1.408 3.207 1.881 0 0 .35-.49.29-.535a28.024 28.024 0 0 1 -2.841-2.42s.351-.237.406-.465c.734.4 2.338 2.094 2.877 2.38.064-.228.4-.2.294-.423-.2-.4-2.192-2.323-2.355-2.734-.009-.135.476-.366.557-.506.786.962 1.462 2.038 2.363 3 0-.168.366-.227.332-.387-.442-.821-1.311-2.318-1.8-3.125.841-.385.638-.32.638-.32s1.164 2.275 1.717 3.092l.527-.24c-.327-.839-.782-2.247-1.151-3.259.061 0 .48-.2.6-.2.523 1.119.628 2.138 1.147 3.145a1.7 1.7 0 0 1 2.265 2.17c15.827 4.5 36.756 4.855 51.615.079a2.144 2.144 0 0 1 .985-1.803 1.123 1.123 0 0 1 1.29-.147 23.507 23.507 0 0 1 1.627-3.218 2.938 2.938 0 0 0 .615.285 26.258 26.258 0 0 0 -1.554 3.066c-.049.252.5.207.506.44.122-.079.78-1.06.883-1.157.48-.542.547-.846 1.284-1.7l.621.437s-1.58 2.083-2.056 2.738l.431.478c.7-.583 1.665-1.7 2.523-2.369.51.628.508.516.508.516s-2.12 1.791-2.6 2.334c.241-.007.118.5.314.371.55-.366 2.507-1.51 2.917-1.815.155-.006.215.454.4.556-.634.433-2.247 1.3-3.029 1.891.069.067.248.479.354.485"/></clipPath><clipPath id="R"><path clip-rule="evenodd" d="m30.3 45.723c2.753.532 5.581 1.062 8.564 1.665a145.532 145.532 0 0 0 15.849 1.019 115.392 115.392 0 0 0 15.787-1.321 78.864 78.864 0 0 0 8.4-1.961 7.536 7.536 0 0 0 3.4 3.389c-.042 1.332-.4 2.76-.586 4.217a19.95 19.95 0 0 1 -.241 2.333c-.034 1.03-.317 2.429-.364 3.487 0 1.362-.068 2.089-.116 2.838-.049 7.258-.223 14 1.328 22.2-.414.2-.675.434-1.274.751a7.087 7.087 0 0 0 -1.909 2.621 32.155 32.155 0 0 0 -3.179-.824 28.607 28.607 0 0 0 -3.354-.693c-1.325-.328-2.275-.3-3.615-.606a85.623 85.623 0 0 0 -8.91-.891c-.066-.18-2.908-.045-2.974-.225-3.893.041-4.714.048-8.591.15a74.338 74.338 0 0 0 -14.64 1.519c-1.817.35-4.686 1.181-6.348 1.606a4.932 4.932 0 0 0 -3.127-3.132c2.01-11.423 1.991-28.136-.086-36.169a4.581 4.581 0 0 0 2.97-2.686c.918.164 1.86.411 3.024.713"/></clipPath><clipPath id="S"><path clip-rule="evenodd" d="m24.861 42.729c1.543-.608 2.032.589 1.828 1.539a3.651 3.651 0 0 1 -2.7 2.717c-.862.439-2.778-.078-1.872-1.765a7 7 0 0 1 2.748-2.491"/></clipPath><clipPath id="T"><path clip-rule="evenodd" d="m84.345 45.512c.193.418.785 2.4-.882 2.631-1.519.041-3.486-2.4-3.731-3.077-.424-1.577.589-2.131.893-2.14 1.437-.3 3 1.244 3.72 2.586"/></clipPath><clipPath id="U"><path clip-rule="evenodd" d="m57.608 56.987a28.836 28.836 0 0 1 -1.808 6.213c1.384-2.3 1.415-2.57 3.462-4.247a5.78 5.78 0 0 1 5.414-.936c.8.2 1.144.658 1.6 1.469.485 2.557 0 2.8-.594 4.814a10.848 10.848 0 0 0 -1.109 4.075c.127.941.061 1.292 1.378 3.176a5.033 5.033 0 0 1 -3.093-.411 5.958 5.958 0 0 1 -1.958-1.84c-.684-1.293-.772-3.306-2.224-3.5-1.141-.083-1.658.536-2.468 1.539a6.242 6.242 0 0 0 -1.493 2.534c1.679.183 2.213 1.681.584 1.876 1.513-.306 2.978 1.886-.057 2.156 1.79.141 1.564 1.66-.146 1.666.587.627.749.987 1.217 1.443.775.546.945 1.183 2.237 1.15 1.241-.525.869-1.686 1.176-2.979a1.836 1.836 0 0 1 .81-.966 3.571 3.571 0 0 0 .662 1.986 3.134 3.134 0 0 1 -.248 3.521c-.956 1.235-4.112 1.241-5.7-1.211a4.9 4.9 0 0 1 -1.565 4.123 5.363 5.363 0 0 1 -1.39-2.194 7.635 7.635 0 0 1 -.348-1.653 4.162 4.162 0 0 1 -4.705 1.824 2.454 2.454 0 0 1 -1.431-2.415c0-1.475.883-2.518.345-4.206a2.652 2.652 0 0 1 1.406 1.363c.288.6.286 3.651 2.009 2.63a7.456 7.456 0 0 0 2.371-2.368c-2.281.061-1.6-1.62-.69-1.682-2.628-.083-2-2.1-.1-2.114-1.26-.232-1.639-1.582.707-1.987-.606-1.38-2.271-3.673-3.373-3.877-1.752-.106-1.42 2.38-2.672 3.962a6.477 6.477 0 0 1 -4.574 2.279 4.351 4.351 0 0 0 1.034-4 17.627 17.627 0 0 0 -1.074-3.146c-.775-1.945-1.019-2.507-.76-4.215.678-1.681 1.248-1.732 2.331-2.479a4.766 4.766 0 0 1 3.261-.35 6.12 6.12 0 0 1 1.58.715 12.249 12.249 0 0 1 3.269 4.259c-.207-.635-1.111-3.712-1.208-3.936a6.885 6.885 0 0 1 .461-5.569 10.851 10.851 0 0 1 3.292-3.525 10.011 10.011 0 0 1 2.894 2.985 7.276 7.276 0 0 1 1.286 4.048"/></clipPath><clipPath id="V"><path clip-rule="evenodd" d="m56.76 56.555a11.088 11.088 0 0 1 -.807 3.992c-.42 1.37-.832 3.044-1.326 4.5-.3 1.262-.943 3.122-1.288 4.492-.471-1.991-1.2-4.669-1.435-5.366-.713-2.476-2-6.858-1.684-7.554a7.761 7.761 0 0 1 3.118-5.719 9.038 9.038 0 0 1 3.422 5.653"/></clipPath><clipPath id="W"><path clip-rule="evenodd" d="m53.314 52.866c.211 2.225.847 7.642.054 12.057a66.981 66.981 0 0 1 -.219-8.272 35.562 35.562 0 0 1 .165-3.785"/></clipPath><clipPath id="X"><path clip-rule="evenodd" d="m49.287 61.591a22.258 22.258 0 0 1 3.22 8.08c-.24-.448-.919-1.639-1.274-2.121a5.457 5.457 0 0 0 -2.8-2.5c-.734-.1-1.325.263-1.921 1.321a6.844 6.844 0 0 1 -3.994 5.11c2.654-4.605-5.4-10.065 1.219-12.808 3.431-.7 5.346 2.71 5.555 2.916"/></clipPath><clipPath id="Y"><path clip-rule="evenodd" d="m65.593 59.8c1.064 4.244-3.435 6.7-.614 11.241a4.69 4.69 0 0 1 -2.574-.952c-1.866-1.539-1.307-3.133-2.9-4.724a2.449 2.449 0 0 0 -1.529-.262 4.852 4.852 0 0 0 -2.42 1.953 16.649 16.649 0 0 0 -1.454 2.5c1.322-6.007 4.785-10.219 7.925-10.906 1.85-.465 3.278.33 3.567 1.154"/></clipPath><clipPath id="Z"><path clip-rule="evenodd" d="m50.257 65.194c-1.395-1.021-3.384-4.282-5.3-3.93-.957.238-1.68.29-.949 3.375a6.382 6.382 0 0 1 .174 3.7 12.383 12.383 0 0 0 -.813-3.919c-.235-1.144-.782-3.146.968-3.645 1.072-.632 3.657.736 5.923 4.419"/></clipPath><clipPath id="aa"><path clip-rule="evenodd" d="m63.6 61.97c.537 1.86-.527 2.6-.678 4.515a11.184 11.184 0 0 0 .073 2.316c-1.646-2.8 1.663-5.648-.73-6.945-1.682-.361-3.542 1.226-5.11 2.816a7.319 7.319 0 0 1 1.971-2.2c1.7-1.216 3.518-1.947 4.474-.5"/></clipPath><clipPath id="ab"><path clip-rule="evenodd" d="m55.812 70.981c.089.489-1.267.513-2.685.6-1.634.041-2.667-.195-2.415-.694-.319-.595 2.26-.854 3.671-.7 1.024-.14 1.651.6 1.429.795"/></clipPath><clipPath id="ac"><path clip-rule="evenodd" d="m55.388 72.2c.365-.009 1.183.446 1.008.691.21.751-2.227.663-3.1.687-2.185.152-3.007-.034-3.21-.595-.063-.906 2.941-.909 2.941-.909 3.045.033.608-.054 2.362.126"/></clipPath><clipPath id="ad"><path clip-rule="evenodd" d="m55.951 74.8c-.254.463-1.277.471-2.459.48-1.556.117-2.7-.08-2.562-.536-.052-.488 1.463-.694 2.531-.673 1.369.043 2.278-.135 2.49.729"/></clipPath><clipPath id="ae"><path clip-rule="evenodd" d="m60.634 79.246a2.531 2.531 0 0 1 -2.148.738 4.842 4.842 0 0 1 -2.277-1.227 26.209 26.209 0 0 1 -1.514-2.57c1.253 1.33 2.628 2.949 4.331 2.648 1.261-.639 1.189-2.489 1.276-3.511.332 1.088 1.083 2.126.332 3.922"/></clipPath><clipPath id="af"><path clip-rule="evenodd" d="m47.948 78.484a1.6 1.6 0 0 0 1.491.3c.906-.266 2.349-1.8 3.053-2.537-.63 2.131-1.928 3.648-3.322 3.865-.667.082-1.8.156-2.185-.621-.373-.353-.41-1.161-.466-1.84.178-.5.11-1.551.4-2.278.259.537.247 2.7 1.034 3.111"/></clipPath><clipPath id="ag"><path clip-rule="evenodd" d="m54.467 77.593a5.5 5.5 0 0 1 .174 2.266 3.882 3.882 0 0 1 -1.012 1.99 4.883 4.883 0 0 1 -1.083-3.525 5.78 5.78 0 0 1 .965-2.367 4.468 4.468 0 0 1 .956 1.636"/></clipPath><clipPath id="ah"><path clip-rule="evenodd" d="m26.518 86.417c1.111 1.71-.033 3.062-.994 2.672a3.922 3.922 0 0 1 -2.687-2.389 1.592 1.592 0 0 1 .4-2.241c1.771-.613 3.365 2.07 3.285 1.956"/></clipPath><clipPath id="ai"><path clip-rule="evenodd" d="m81.922 84.544c.857-.661 2.873-.642 2.471 1.372a4.381 4.381 0 0 1 -1.13 1.919c-.443.428-2.349 1.725-3.015.988-.881-.28-.6-1.268-.389-1.8a6.319 6.319 0 0 1 2.063-2.476"/></clipPath><path d="m246 70.599h-7.577v-9.731h-5.844v9.731h-7.579v-25h7.579v9.22h5.844v-9.22h7.577z" fill="#dcdcdc" fill-rule="evenodd"/><path d="m266.193 64.129c-1.127 4.5-5.134 6.576-9.54 6.576a10.969 10.969 0 0 1 -7.5-2.435 9.254 9.254 0 0 1 -3.058-6.976 9.593 9.593 0 0 1 10.12-9.881c6.19 0 9.978 4 9.978 10.1v.98h-12.452c-.111 2 .619 3.451 2.8 3.451a2.487 2.487 0 0 0 2.841-2.251zm-7.282-5.267c0-1.818-.582-3.2-2.623-3.2-1.892 0-2.658 1.488-2.585 3.2z" fill="#dcdcdc" fill-rule="evenodd"/><g clip-path="url(#a)"><g clip-path="url(#b)"><path d="m261.74 40.419h17.211v34.922h-17.211z" fill="#dcdcdc"/></g></g><g clip-path="url(#c)"><g clip-path="url(#b)"><path d="m270.48 40.419h17.209v34.922h-17.209z" fill="#dcdcdc"/></g></g><g clip-path="url(#d)"><g clip-path="url(#b)"><path d="m278.892 40.418h29.08v35.286h-29.08z" fill="#dcdcdc"/></g></g><g clip-path="url(#e)"><g clip-path="url(#b)"><path d="m297.791 38.601h28.133v37.103h-28.133z" fill="#dcdcdc"/></g></g><g clip-path="url(#f)"><g clip-path="url(#b)"><path d="m317.382 40.419h28.279v34.922h-28.279z" fill="#dcdcdc"/></g></g><g clip-path="url(#g)"><g clip-path="url(#b)"><path d="m336.754 40.419h17.209v34.922h-17.209z" fill="#dcdcdc"/></g></g><g clip-path="url(#h)"><g clip-path="url(#b)"><path d="m-5-5h32.721v35.652h-32.721z" fill="#0c0d0d"/></g></g><g clip-path="url(#i)"><g clip-path="url(#b)"><path d="m17.615 1.36h30.098v29.291h-30.098z" fill="#0c0d0d"/></g></g><g clip-path="url(#j)"><g clip-path="url(#b)"><path d="m38.005 1.359h38.183v28.929h-38.183z" fill="#0c0d0d"/></g></g><g clip-path="url(#k)"><g clip-path="url(#b)"><path d="m66.41 1.36h30.098v29.291h-30.098z" fill="#0c0d0d"/></g></g><g clip-path="url(#l)"><g clip-path="url(#b)"><path d="m86.911-5h17.209v35.288h-17.209z" fill="#0c0d0d"/></g></g><g clip-path="url(#m)"><g clip-path="url(#b)"><path d="m95.431 1.359h28.17v28.929h-28.17z" fill="#0c0d0d"/></g></g><g clip-path="url(#n)"><g clip-path="url(#b)"><path d="m113.492-4.636h29.08v35.288h-29.08z" fill="#0c0d0d"/></g></g><g clip-path="url(#o)"><g clip-path="url(#b)"><path d="m132.684 1.36h30.098v29.291h-30.098z" fill="#0c0d0d"/></g></g><g clip-path="url(#p)"><g clip-path="url(#b)"><path d="m177.586-4.999h32.395v35.652h-32.395z" fill="#dcdcdc"/></g></g><g clip-path="url(#q)"><g clip-path="url(#b)"><path d="m199.873 1.36h30.098v29.291h-30.098z" fill="#dcdcdc"/></g></g><g clip-path="url(#r)"><g clip-path="url(#b)"><path d="m220.265 1.359h38.183v28.929h-38.183z" fill="#dcdcdc"/></g></g><g clip-path="url(#s)"><g clip-path="url(#b)"><path d="m249.361 1.36h29.04v34.778h-29.04z" fill="#dcdcdc"/></g></g><g clip-path="url(#t)"><g clip-path="url(#b)"><path d="m267.456 1.36h29.773v29.291h-29.773z" fill="#dcdcdc"/></g></g><g clip-path="url(#u)"><g clip-path="url(#b)"><path d="m286.429 1.359h28.425v29.293h-28.425z" fill="#dcdcdc"/></g></g><g clip-path="url(#v)"><g clip-path="url(#b)"><path d="m304.564-4.636h28.279v34.924h-28.279z" fill="#dcdcdc"/></g></g><g clip-path="url(#w)"><g clip-path="url(#b)"><path d="m332.347-4.999h32.394v35.652h-32.394z" fill="#dcdcdc"/></g></g><g clip-path="url(#x)"><g clip-path="url(#b)"><path d="m353.794-4.418h23.547v35.125h-23.547z" fill="#dcdcdc"/></g></g><g clip-path="url(#y)"><g clip-path="url(#b)"><path d="m366.868 1.36h29.771v29.291h-29.771z" fill="#dcdcdc"/></g></g><g clip-path="url(#z)"><g clip-path="url(#b)"><path d="m385.11-4.418h23.547v35.125h-23.547z" fill="#dcdcdc"/></g></g><g clip-path="url(#A)"><g clip-path="url(#b)"><path d="m399.167-5h17.209v35.288h-17.209z" fill="#dcdcdc"/></g></g><g clip-path="url(#B)"><g clip-path="url(#b)"><path d="m406.922 1.359h30.466v29.291h-30.466z" fill="#dcdcdc"/></g></g><g clip-path="url(#C)"><g clip-path="url(#b)"><path d="m427.352 1.359h28.17v28.929h-28.17z" fill="#dcdcdc"/></g></g><g clip-path="url(#D)"><g clip-path="url(#b)"><path d="m106.503 18.037h31.375v34.922h-31.375z" fill="#0c0d0d"/></g></g><g clip-path="url(#E)"><g clip-path="url(#b)"><path d="m128.572 24.032h30.098v29.291h-30.098z" fill="#0c0d0d"/></g></g><g clip-path="url(#F)"><g clip-path="url(#b)"><path d="m148.853 24.394h28.133v28.929h-28.133z" fill="#0c0d0d"/></g></g><g clip-path="url(#G)"><g clip-path="url(#b)"><path d="m167.899 24.032h30.098v29.291h-30.098z" fill="#0c0d0d"/></g></g><g clip-path="url(#H)"><g clip-path="url(#b)"><path d="m188.181 24.031h28.17v28.929h-28.17z" fill="#0c0d0d"/></g></g><g clip-path="url(#I)"><g clip-path="url(#b)"><path d="m207.081 18.038h30.062v34.922h-30.062z" fill="#0c0d0d"/></g></g><g clip-path="url(#J)"><g clip-path="url(#b)"><path d="m226.27 17.673h17.211v35.286h-17.211z" fill="#0c0d0d"/></g></g><g clip-path="url(#K)"><g clip-path="url(#b)"><path d="m234.754 24.013h22.054v28.947h-22.054z" fill="#0c0d0d"/></g></g><g clip-path="url(#L)"><g clip-path="url(#b)"><path d="m246.735 24.03h28.425v29.293h-28.425z" fill="#0c0d0d"/></g></g><g clip-path="url(#M)"><g clip-path="url(#b)"><path d="m264.87 18.037h28.28v34.922h-28.28z" fill="#0c0d0d"/></g></g><path d="m0 0h450.521v93h-450.521z" fill="none"/><g clip-path="url(#N)"><g clip-path="url(#O)"><g clip-path="url(#P)"><g clip-path="url(#Q)"><g clip-path="url(#P)"><path d="m13.006 33.897h80.468v64.041h-80.468z" fill="#0c0d0d"/></g></g></g></g></g><g clip-path="url(#R)"><g clip-path="url(#O)"><path d="m19.309 40.01h68.007v51.988h-68.007z" fill="#e73f11"/></g></g><g clip-path="url(#S)"><g clip-path="url(#O)"><path d="m16.875 37.564h14.858v14.57h-14.858z" fill="#e73f11"/></g></g><g clip-path="url(#T)"><g clip-path="url(#O)"><path d="m74.629 37.888h14.976v15.255h-14.976z" fill="#e73f11"/></g></g><g clip-path="url(#U)"><g clip-path="url(#O)"><path d="m35.343 44.954h36.126v42.687h-36.126z" fill="#0c0d0d"/></g></g><g clip-path="url(#V)"><g clip-path="url(#O)"><path d="m45.17 45.902h16.59v28.632h-16.59z" fill="#fff"/></g></g><g clip-path="url(#W)"><g clip-path="url(#O)"><path d="m48.099 47.866h10.656v22.056h-10.656z" fill="#0c0d0d"/></g></g><g clip-path="url(#X)"><g clip-path="url(#O)"><path d="m36.049 53.579h21.458v22.903h-21.458z" fill="#fff"/></g></g><g clip-path="url(#Y)"><g clip-path="url(#O)"><path d="m49.101 53.509h21.659v22.533h-21.659z" fill="#fff"/></g></g><g clip-path="url(#Z)"><g clip-path="url(#O)"><path d="m38.097 55.627h17.161v17.712h-17.161z" fill="#0c0d0d"/></g></g><g clip-path="url(#aa)"><g clip-path="url(#O)"><path d="m52.152 56.173h16.595v17.629h-16.595z" fill="#0c0d0d"/></g></g><g clip-path="url(#ab)"><g clip-path="url(#O)"><path d="m45.675 65.144h15.182v11.443h-15.182z" fill="#fff"/></g></g><g clip-path="url(#ac)"><g clip-path="url(#O)"><path d="m45.084 67.076h16.336v11.555h-16.336z" fill="#fff"/></g></g><g clip-path="url(#ad)"><g clip-path="url(#O)"><path d="m45.918 69.064h15.033v11.244h-15.033z" fill="#fff"/></g></g><g clip-path="url(#ae)"><g clip-path="url(#O)"><path d="m49.695 70.324h16.262v14.683h-16.262z" fill="#fff"/></g></g><g clip-path="url(#af)"><g clip-path="url(#O)"><path d="m41.519 70.373h15.972v14.788h-15.972z" fill="#fff"/></g></g><g clip-path="url(#ag)"><g clip-path="url(#O)"><path d="m47.498 70.957h12.175v15.892h-12.175z" fill="#fff"/></g></g><g clip-path="url(#ah)"><g clip-path="url(#O)"><path d="m17.557 79.37h14.418v14.786h-14.418z" fill="#e73f11"/></g></g><g clip-path="url(#ai)"><g clip-path="url(#O)"><path d="m74.642 79.156h14.804v14.889h-14.804z" fill="#e73f11"/></g></g></svg>


