<svg xmlns="http://www.w3.org/2000/svg" width="260" height="55.237" viewBox="0 0 260 55.237"><path d="M172.36,362.991c0-12.093,8.706-20.493,22.264-20.493,13.637,0,22.34,8.4,22.34,20.493s-8.7,20.493-22.34,20.493C181.066,383.484,172.36,375.085,172.36,362.991Zm29.427,0c0-4.7-2.694-8.091-7.163-8.091-4.391,0-7.163,3.393-7.163,8.091s2.772,8.085,7.163,8.085C199.094,371.077,201.787,367.69,201.787,362.991Zm44.975,19.182-10.4-15.87v15.87h-15.1V328.247h15.1v30.737l10.632-15.1h17.1l-13.944,17.953,14.405,20.336Zm60.161-15.488h-28.2c.23,4.009,3,6.4,7.317,6.4,3.158,0,5.238-.929,6.01-2.854h14.637c-1.386,8.091-9.474,13.253-20.646,13.253-13.79,0-22.418-7.32-22.418-20.417,0-12.865,8.785-20.569,22.111-20.569,12.711,0,21.568,7.628,21.568,18.568A33.968,33.968,0,0,1,306.923,366.686Zm-14.716-8.317c-.075-4.159-2.387-6.7-6.623-6.7-4.162,0-6.7,2.772-6.857,6.7Zm19.646-14.484h15.1v8.549c1.386-6.009,5.856-9.321,11.018-9.321a14.917,14.917,0,0,1,2.85.232V357.6a20.978,20.978,0,0,0-3.854-.307c-5.623,0-10.014,2.465-10.014,12.018v12.865h-15.1Zm30.6,19.182c0-11.787,6.856-20.261,17.413-20.261,5.931,0,10.089,2.854,11.862,6.781v-5.7h15.177v38.289H371.733v-5.7c-1.694,3.933-6.163,6.781-11.94,6.781C349.085,383.252,342.458,374.778,342.458,363.067Zm29.967,0c0-4.623-2.694-8.085-7.241-8.085-4.313,0-7.085,3.387-7.085,8.085s2.772,8.01,7.085,8.01C369.732,371.077,372.425,367.615,372.425,363.067Zm-245.516-3.661v22.767h15.1V362.991a12.622,12.622,0,0,1,.478-3.585Zm27.5-16.6c-5.638,0-9.665,2.067-11.834,5.848V359.2a4.95,4.95,0,0,1,5.131-3.765c3.7,0,5.316,2.315,5.316,7.245v19.489H168.43v-23.34C168.43,348.125,163.807,342.806,154.411,342.806Z" transform="translate(-126.909 -328.247)"/></svg>