<svg id="Ebene_1" xmlns="http://www.w3.org/2000/svg" viewBox="0 0 1049.3 118.3"><style>.st0,.st1{fill:#0d2e82}.st1{fill-rule:evenodd;clip-rule:evenodd}</style><path class="st0" d="M308.2 2h34.2v113.5h-34.2V2zM361.3 2h34.9v84.9h33.1v28.6h-68V2zM542.7 2h86.9v30.4h-25.9v83.1h-34.4V32.4h-26.6V2zM646.3 2h34v71.6c0 7.9 5.8 15.5 13.7 15.5 8.3 0 14.2-7.2 14.2-15.5V2h34.5l-.2 74.2c-.1 26.8-24 41.2-48.3 41.2-24.9 0-48-14.7-48-41.2V2h.1z"/><path class="st1" d="M237.9 30.3v22.1h13.9c6.9 0 10.5-5 10.5-10.9 0-5.3-3.6-11.3-9.5-11.3h-14.9v.1zM204.1 2h54c21.6 0 38.2 18.6 38.2 40.2 0 20.6-15.7 39-36.3 39h-22.2v34.2h-33.7V2zM492.1 33.9l-10.9 40.9c.1-.4 22.7.6 22.5 0l-11.6-40.9zm-17.6-32h34.9l39.3 113.5h-34.5c-.4-.3-4.3-14.5-4.3-14.5h-35c-.1.4-4.4 14.1-4.2 14.5h-34.2l38-113.5z"/><path class="st0" d="M0 2l24 28.2h153.7V2zM71.6 87.2l24 28.2h82.1V87.2zM35.7 44.5l24 28.1h118V44.5zM1049.3 2l-24 28.2H871.6V2zM977.7 87.2l-24 28.2h-82.1V87.2zM1013.7 44.5l-24.1 28.1h-118V44.5z"/><g><path class="st0" d="M789.1 77.7c0 2.3 0 3.4.9 5.4 2.8 6.8 10.3 8.2 13.8 8.2 5.4 0 12-2.5 12-8.6 0-5-3.8-6.9-22.2-12.4-16.9-5.1-36.5-11.6-36.5-34.3 0-23.2 22.1-36.4 44.1-36 25 .4 44.6 11.8 44.6 37.7h-32c-2.1-5.9-2.1-6.8-4.8-9-2.6-2.2-4.9-2.4-8.2-2.4-4.5 0-8.9 3.2-8.9 7.4 0 8.1 13 7 28.1 11.4 15.1 4.4 31.4 14.1 31.4 34.8 0 26.6-26.1 38.3-49.9 38.3-12.1 0-47.1-5-47.4-40.5h35z"/></g></svg>