<?xml version="1.0" encoding="UTF-8"?>
<svg width="1050px" height="120px" viewBox="0 0 1050 120" version="1.1" xmlns="http://www.w3.org/2000/svg" xmlns:xlink="http://www.w3.org/1999/xlink">
    <!-- Generator: Sketch 64 (93537) - https://sketch.com -->
    <title>pilatus 2</title>
    <desc>Created with Sketch.</desc>
    <g id="Page-1" stroke="none" stroke-width="1" fill="none" fill-rule="evenodd">
        <g id="pilatus" fill="#0D2E82">
            <path d="M308.2,3 L342.4,3 L342.4,116.5 L308.2,116.5 L308.2,3 Z M361.3,3 L396.2,3 L396.2,87.9 L429.3,87.9 L429.3,116.5 L361.3,116.5 L361.3,3 Z M542.7,3 L629.6,3 L629.6,33.4 L603.7,33.4 L603.7,116.5 L569.3,116.5 L569.3,33.4 L542.7,33.4 L542.7,3 Z M646.3,3 L680.3,3 L680.3,74.6 C680.3,82.5 686.1,90.1 694,90.1 C702.3,90.1 708.2,82.9 708.2,74.6 L708.2,3 L742.7,3 L742.5,77.2 C742.4,104 718.5,118.4 694.2,118.4 C669.3,118.4 646.2,103.7 646.2,77.2 L646.2,3 L646.3,3 L646.3,3 Z" id="Shape" fill-rule="nonzero"></path>
            <path d="M237.9,31.3 L237.9,53.4 L251.8,53.4 C258.7,53.4 262.3,48.4 262.3,42.5 C262.3,37.2 258.7,31.2 252.8,31.2 L237.9,31.2 L237.9,31.3 L237.9,31.3 Z M204.1,3 L258.1,3 C279.7,3 296.3,21.6 296.3,43.2 C296.3,63.8 280.6,82.2 260,82.2 L237.8,82.2 L237.8,116.4 L204.1,116.4 L204.1,3 L204.1,3 Z M492.1,34.9 L481.2,75.8 C481.3,75.4 503.9,76.4 503.7,75.8 L492.1,34.9 Z M474.5,2.9 L509.4,2.9 L548.7,116.4 L514.2,116.4 C513.8,116.1 509.9,101.9 509.9,101.9 L474.9,101.9 C474.8,102.3 470.5,116 470.7,116.4 L436.5,116.4 L474.5,2.9 Z" id="Shape"></path>
            <path d="M0,3 L24,31.2 L177.7,31.2 L177.7,3 L0,3 Z M71.6,88.2 L95.6,116.4 L177.7,116.4 L177.7,88.2 L71.6,88.2 Z M35.7,45.5 L59.7,73.6 L177.7,73.6 L177.7,45.5 L35.7,45.5 Z M1049.3,3 L1025.3,31.2 L871.6,31.2 L871.6,3 L1049.3,3 Z M977.7,88.2 L953.7,116.4 L871.6,116.4 L871.6,88.2 L977.7,88.2 Z M1013.7,45.5 L989.6,73.6 L871.6,73.6 L871.6,45.5 L1013.7,45.5 Z" id="Shape" fill-rule="nonzero"></path>
            <path d="M789.1,78.7 C789.1,81 789.1,82.1 790,84.1 C792.8,90.9 800.3,92.3 803.8,92.3 C809.2,92.3 815.8,89.8 815.8,83.7 C815.8,78.7 812,76.8 793.6,71.3 C776.7,66.2 757.1,59.7 757.1,37 C757.1,13.8 779.2,0.6 801.2,1 C826.2,1.4 845.8,12.8 845.8,38.7 L813.8,38.7 C811.7,32.8 811.7,31.9 809,29.7 C806.4,27.5 804.1,27.3 800.8,27.3 C796.3,27.3 791.9,30.5 791.9,34.7 C791.9,42.8 804.9,41.7 820,46.1 C835.1,50.5 851.4,60.2 851.4,80.9 C851.4,107.5 825.3,119.2 801.5,119.2 C789.4,119.2 754.4,114.2 754.1,78.7 L789.1,78.7 Z" id="Path" fill-rule="nonzero"></path>
        </g>
    </g>
</svg>