<?xml version="1.0" encoding="UTF-8"?>
<svg width="1001px" height="569px" viewBox="0 0 1001 569" version="1.1" xmlns="http://www.w3.org/2000/svg" xmlns:xlink="http://www.w3.org/1999/xlink">
    <!-- Generator: Sketch 50.2 (55047) - http://www.bohemiancoding.com/sketch -->
    <title>Pro Juventute</title>
    <desc>Created with Sketch.</desc>
    <defs>
        <polygon id="path-1" points="0.727904306 0.0964111664 594.45197 0.0964111664 594.45197 599.80279 0.727904306 599.80279"></polygon>
    </defs>
    <g id="Pro-Juventute" stroke="none" stroke-width="1" fill="none" fill-rule="evenodd">
        <g id="pro-juventute" transform="translate(318.000000, 41.000000)">
            <g id="g2302" transform="translate(298.228004, 300.981338) scale(-1, 1) rotate(-180.000000) translate(-298.228004, -300.981338) translate(0.728004, 0.981338)">
                <g id="g2304-Clipped">
                    <g>
                        <mask id="mask-2" fill="white">
                            <use xlink:href="#path-1"></use>
                        </mask>
                        <g id="path-1"></g>
                        <g id="g2304" mask="url(#mask-2)">
                            <g transform="translate(3.000000, 138.000000)" id="Group">
                                <g>
                                    <g transform="translate(0.000000, 0.975633)" fill-rule="nonzero">
                                        <g id="g2310" transform="translate(31.164837, 0.553446)" fill="#000000">
                                            <path d="M159.898983,0 C72.0876925,0 0.642197663,71.4454949 0.642197663,159.256785 C0.642197663,247.072896 72.0876925,318.513571 159.898983,318.513571 C186.744672,318.513571 213.277025,311.68766 236.709759,298.763743 C237.023096,298.633588 237.331611,298.488971 237.635306,298.325072 C240.894004,296.531825 243.27536,295.80392 245.859179,295.80392 C253.948076,295.80392 260.523317,302.383982 260.523317,310.468059 C260.523317,312.266127 260.181058,314.064195 259.50618,315.799596 C259.419409,316.011701 259.347101,316.233446 259.279613,316.455192 C254.709724,328.198072 252.395856,340.548343 252.395856,353.173385 C252.395856,409.101502 297.892285,454.597932 353.820403,454.597932 C409.7437,454.597932 455.24495,409.101502 455.24495,353.173385 C455.24495,297.245267 409.7437,251.748838 353.820403,251.748838 C341.523159,251.748838 329.44766,253.966295 317.921705,258.338541 C317.280571,258.545825 316.66836,258.75793 316.06097,258.970034 C314.045976,259.669015 312.932427,260.05466 310.71015,260.093224 L310.459481,260.093224 C302.59233,260.093224 296.195449,253.513162 296.195449,245.419445 C296.195449,242.623521 297.024585,240.049343 298.962449,236.805107 C299.015476,236.723157 299.058861,236.646029 299.107066,236.559258 C312.223805,212.991549 319.160589,186.261553 319.160589,159.256785 C319.160589,71.4454949 247.710273,0 159.898983,0" id="path2312"></path>
                                        </g>
                                        <g id="g2314" transform="translate(49.447070, 17.688824)" fill="#3ABECA">
                                            <path d="M141.61675,283.412941 C63.706886,283.412941 0.321364683,220.03224 0.321364683,142.122377 C0.321364683,64.212513 63.706886,0.826991604 141.61675,0.826991604 C219.526613,0.826991604 282.912135,64.212513 282.912135,142.122377 C282.912135,166.032346 276.785205,189.696467 265.196583,210.569484 C261.619728,216.58072 259.946995,222.215953 259.946995,228.285036 C259.946995,246.28018 274.40867,260.920216 292.177248,260.920216 L292.746074,260.915395 C297.831763,260.828625 301.071178,259.705435 303.669459,258.803991 C304.190079,258.62081 304.725161,258.437628 305.293987,258.254447 C305.467527,258.201421 305.641067,258.143574 305.809787,258.076086 C315.354492,254.426924 325.357151,252.575829 335.53817,252.575829 C381.56004,252.575829 418.996496,290.017106 418.996496,336.038976 C418.996496,382.060846 381.56004,419.497302 335.53817,419.497302 C289.516299,419.497302 252.079844,382.060846 252.079844,336.038976 C252.079844,325.44821 254.056272,315.09365 257.960925,305.259711 C258.071798,304.980119 258.168209,304.700526 258.250158,304.416114 C259.546888,300.824798 260.207305,297.103327 260.207305,293.33365 C260.207305,275.343326 245.567269,260.703291 227.576946,260.703291 C222.197203,260.703291 217.265771,262.004841 211.712488,264.901997 C211.331664,265.051434 210.955661,265.224974 210.589298,265.432258 C189.605408,277.194421 165.753285,283.412941 141.61675,283.412941" id="path2316"></path>
                                        </g>
                                        <g id="g2318" transform="translate(121.686344, 202.818460)" fill="#000000">
                                            <path d="M19.2822333,59.6672582 L19.2822333,41.5564206 C19.8124947,41.5226767 20.2608066,41.508215 20.6464513,41.508215 C22.3432878,41.508215 23.5243246,41.9276036 24.1847411,42.7615601 C24.840337,43.6003373 25.1729556,45.3357383 25.1729556,47.9725837 L25.1729556,53.8199209 C25.1729556,56.2543029 24.7921314,57.835446 24.0304832,58.5681709 C23.268835,59.3008957 21.6876919,59.6672582 19.2822333,59.6672582 Z M0.771289331,71.8439885 L19.4123884,71.8439885 C24.4546924,71.8439885 28.3304213,71.4487027 31.0443956,70.6581311 C33.7535494,69.8675596 35.7926455,68.7250873 37.152043,67.2307142 C38.516261,65.7315205 39.4369876,63.9238112 39.923864,61.797945 C40.4059198,59.6720787 40.6469478,56.384458 40.6469478,51.9302621 L40.6469478,45.7310241 C40.6469478,41.1900581 40.1793536,37.873514 39.2441653,35.7958534 C38.3041564,33.7133722 36.5832171,32.1177674 34.0765268,31.0042184 C31.5698364,29.8858489 28.2918568,29.3314847 24.2522289,29.3314847 L19.2822333,29.3314847 L19.2822333,0.668444882 L0.771289331,0.668444882 L0.771289331,71.8439885 Z" id="path2320"></path>
                                        </g>
                                        <g id="g2322" transform="translate(166.882453, 202.818460)" fill="#000000">
                                            <path d="M19.2822333,59.6672582 L19.2822333,43.8413652 C21.3598939,43.8413652 22.8205231,44.1257781 23.6544797,44.6994246 C24.4932568,45.2682505 24.9078248,47.1241654 24.9078248,50.2575283 L24.9078248,54.1718217 C24.9078248,56.427843 24.5077185,57.9077544 23.7026853,58.6115559 C22.8928315,59.3153574 21.4225612,59.6672582 19.2822333,59.6672582 Z M0.771289331,71.8439885 L13.8735668,71.8439885 C22.6084185,71.8439885 28.5232436,71.5065494 31.6132215,70.8316712 C34.7080199,70.1616136 37.2243514,68.4406743 39.1766775,65.6688533 C41.124183,62.8970323 42.0979358,58.4814008 42.0979358,52.4123179 C42.0979358,46.8734964 41.408596,43.1520254 40.0347369,41.2479048 C38.6560572,39.3389637 35.9420828,38.1964914 31.8976344,37.8156673 C35.5612587,36.9094023 38.024564,35.6898011 39.2875503,34.1665047 C40.545716,32.6432082 41.331467,31.2452463 41.6399828,29.9726189 C41.9484985,28.695171 42.0979358,25.1858045 42.0979358,19.439699 L42.0979358,0.668444882 L24.9078248,0.668444882 L24.9078248,24.318104 C24.9078248,28.1311656 24.6089502,30.4884187 24.011201,31.3995042 C23.4086312,32.3057691 21.8323086,32.7637222 19.2822333,32.7637222 L19.2822333,0.668444882 L0.771289331,0.668444882 L0.771289331,71.8439885 Z" id="path2324"></path>
                                        </g>
                                        <g id="g2326" transform="translate(215.007915, 201.528479)" fill="#000000">
                                            <path d="M24.9233499,54.8466999 C24.9233499,58.1584234 24.7401687,60.2746485 24.3738063,61.2001957 C24.0074438,62.1209224 23.2554367,62.583696 22.1129644,62.583696 C21.1440322,62.583696 20.4016662,62.2076924 19.890687,61.4605059 C19.3797079,60.7181399 19.1193977,58.5103242 19.1193977,54.8466999 L19.1193977,21.6089502 C19.1193977,17.4777317 19.2881172,14.9276564 19.6255563,13.9635447 C19.9629954,12.9946125 20.7487464,12.5077361 21.9779888,12.5077361 C23.2409751,12.5077361 24.0460083,13.0621003 24.3930885,14.1756493 C24.7498098,15.2940188 24.9233499,17.9453259 24.9233499,22.1392116 L24.9233499,54.8466999 Z M43.4294733,31.4573509 C43.4294733,24.3036423 43.2607538,19.2420561 42.9281353,16.2677716 C42.5906962,13.2886666 41.5349939,10.5746922 39.7610284,8.11138693 C37.987063,5.65290219 35.5960661,3.75842277 32.573576,2.44241034 C29.5510859,1.12157736 26.0368989,0.461160875 22.0213738,0.461160875 C18.2131327,0.461160875 14.7905363,1.0830129 11.7584052,2.3315375 C8.72145341,3.57524155 6.2822509,5.44561818 4.43597706,7.93784683 C2.58970323,10.4300755 1.49061593,13.1392293 1.13871517,16.0701287 C0.786814413,19.0010282 0.608453755,24.1301022 0.608453755,31.4573509 L0.608453755,43.6340812 C0.608453755,50.7877897 0.781993855,55.849376 1.11461238,58.828481 C1.45687202,61.8027655 2.50775373,64.5215604 4.2817192,66.9800451 C6.05568466,69.4433505 8.45150214,71.3330093 11.4691717,72.6538423 C14.4868412,73.9698547 18.0058487,74.6302712 22.0213738,74.6302712 C25.8344354,74.6302712 29.2522113,74.0084192 32.289163,72.7647151 C35.3212942,71.5161905 37.7604967,69.6458139 39.6067706,67.1584058 C41.4530444,64.6613566 42.5521317,61.9522028 42.9040325,59.0213034 C43.2559332,56.0904039 43.4294733,50.9661504 43.4294733,43.6340812 L43.4294733,31.4573509 Z" id="path2328"></path>
                                        </g>
                                        <g id="g2330" transform="translate(82.416314, 127.543563)" fill="#000000">
                                            <path d="M25.9233499,71.3083748 L25.9233499,23.7391053 C25.9233499,16.6143201 25.8510416,12.0347897 25.7016042,10.0005141 C25.5521669,7.96141792 24.8869299,6.1247852 23.696252,4.48097481 C22.5007535,2.84198498 20.890687,1.70433322 18.8564114,1.07766064 C16.8173153,0.441346938 13.7466196,0.128010647 9.64914503,0.128010647 L0.379211383,0.128010647 L0.379211383,12.5698717 C1.49276036,12.4831016 2.29779359,12.4397166 2.79913166,12.4397166 C4.11514408,12.4397166 5.15638468,12.762694 5.91803289,13.4038283 C6.68450167,14.0497831 7.11835192,14.8403546 7.23886587,15.7803635 C7.35455927,16.7203724 7.41240597,18.5377229 7.41240597,21.2275944 L7.41240597,71.3083748 L25.9233499,71.3083748 Z" id="path2332"></path>
                                        </g>
                                        <g id="g2334" transform="translate(115.195679, 125.723005)" fill="#000000">
                                            <path d="M42.3850249,73.1289331 L42.3850249,25.5596636 C42.3850249,20.1654589 42.2066642,16.3765 41.8547635,14.1927871 C41.5028627,12.0090742 40.4616221,9.76751457 38.7358622,7.46810825 C37.0052818,5.16388137 34.7251577,3.42365981 31.9003105,2.23298191 C29.0706428,1.04712456 25.7348164,0.454195889 21.8928315,0.454195889 C17.6459196,0.454195889 13.8955252,1.1579974 10.6416483,2.56560043 C7.38777148,3.97320346 4.95338953,5.80501563 3.34332305,8.06103692 C1.72843601,10.3170582 0.778786021,12.698414 0.484731963,15.2051044 C0.190677905,17.7069741 0.0460611557,22.9806649 0.0460611557,31.0068945 L0.0460611557,73.1289331 L18.5521846,73.1289331 L18.5521846,19.7557114 C18.5521846,16.6464513 18.7257247,14.6603813 19.0631637,13.7975013 C19.3957823,12.9346214 20.0803015,12.5007711 21.1022599,12.5007711 C22.2784761,12.5007711 23.0304832,12.9780064 23.3679223,13.932477 C23.7053614,14.8821269 23.8789015,17.1333277 23.8789015,20.676438 L23.8789015,73.1289331 L42.3850249,73.1289331 Z" id="path2336"></path>
                                        </g>
                                        <g id="g2338" transform="translate(159.727199, 127.543563)" fill="#000000">
                                            <path d="M49.0261415,71.3083748 L39.6067706,0.128010647 L11.4932744,0.128010647 L0.79645553,71.3083748 L20.3148962,71.3083748 C22.5853791,51.7031641 24.2050867,35.1108024 25.174019,21.5409307 C26.1333101,35.2554191 27.1456273,47.4321495 28.2206118,58.0711217 L29.5077009,71.3083748 L49.0261415,71.3083748 Z" id="path2340"></path>
                                        </g>
                                        <g id="g2342" transform="translate(211.872724, 127.543563)" fill="#000000">
                                            <polygon id="path2344" points="1.17968354e-13 71.3083748 30.8660349 71.3083748 30.8660349 57.063625 18.510944 57.063625 18.510944 43.5660617 30.0754634 43.5660617 30.0754634 30.0251134 18.510944 30.0251134 18.510944 14.377581 32.0952773 14.377581 32.0952773 0.128010647 1.13686838e-13 0.128010647"></polygon>
                                        </g>
                                        <g id="g2346" transform="translate(249.231037, 127.543563)" fill="#000000">
                                            <polygon id="path2348" points="41.3850249 71.3083748 41.3850249 0.128010647 25.1638461 0.128010647 15.5323706 32.4884187 15.5323706 0.128010647 0.0583784031 0.128010647 0.0583784031 71.3083748 15.5323706 71.3083748 25.9062121 39.2564825 25.9062121 71.3083748"></polygon>
                                        </g>
                                        <g id="g2350" transform="translate(104.622964, 51.728710)" fill="#000000">
                                            <polygon id="path2352" points="41.3850249 71.3083748 41.3850249 57.0684455 30.3941519 57.0684455 30.3941519 0.132831205 11.883208 0.132831205 11.883208 57.0684455 0.935720018 57.0684455 0.935720018 71.3083748"></polygon>
                                        </g>
                                        <g id="g2354" transform="translate(150.239691, 49.908151)" fill="#000000">
                                            <path d="M42.3850249,73.1289331 L42.3850249,25.5596636 C42.3850249,20.1654589 42.2066642,16.3813206 41.859584,14.1976077 C41.5028627,12.0138947 40.4664427,9.76751457 38.7358622,7.46810825 C37.0101024,5.16870193 34.7299783,3.42365981 31.9003105,2.23780247 C29.0706428,1.05194512 25.7348164,0.459016447 21.897652,0.459016447 C17.6459196,0.459016447 13.8955252,1.1579974 10.6416483,2.56560043 C7.38777148,3.97320346 4.95821008,5.80501563 3.34332305,8.06103692 C1.72843601,10.3170582 0.778786021,12.7032346 0.484731963,15.2051044 C0.195498464,17.7117947 0.0460611557,22.9806649 0.0460611557,31.0117151 L0.0460611557,73.1289331 L18.5570051,73.1289331 L18.5570051,19.7557114 C18.5570051,16.6512718 18.7257247,14.6652018 19.0631637,13.8023219 C19.3957823,12.9346214 20.0803015,12.5055917 21.1070805,12.5055917 C22.2784761,12.5055917 23.0353038,12.9780064 23.3679223,13.932477 C23.710182,14.8869475 23.8789015,17.1333277 23.8789015,20.6812586 L23.8789015,73.1289331 L42.3850249,73.1289331 Z" id="path2356"></path>
                                        </g>
                                        <g id="g2358" transform="translate(195.688613, 51.728710)" fill="#000000">
                                            <polygon id="path2360" points="41.3850249 71.3083748 41.3850249 57.0684455 30.3941519 57.0684455 30.3941519 0.132831205 11.8880285 0.132831205 11.8880285 57.0684455 0.935720018 57.0684455 0.935720018 71.3083748"></polygon>
                                        </g>
                                        <g id="g2362" transform="translate(241.292109, 51.728710)" fill="#000000">
                                            <polygon id="path2364" points="4.28151587e-15 71.3083748 30.8660349 71.3083748 30.8660349 57.0684455 18.510944 57.0684455 18.510944 43.5708822 30.0754634 43.5708822 30.0754634 30.0299339 18.510944 30.0299339 18.510944 14.377581 32.0952773 14.377581 32.0952773 0.132831205 0 0.132831205"></polygon>
                                        </g>
                                        <g id="g2366" transform="translate(0.816363, 294.186674)" fill="#000000">
                                            <path d="M85.7700498,43.3850249 C85.7700498,19.8173153 66.656536,0.698980957 43.0791853,0.698980957 C19.4921934,0.698980957 0.383500238,19.8173153 0.383500238,43.3850249 C0.383500238,66.9671962 19.4921934,86.0807099 43.0791853,86.0807099 C66.656536,86.0807099 85.7700498,66.9671962 85.7700498,43.3850249" id="path2368"></path>
                                        </g>
                                        <g id="g2370" transform="translate(353.071215, 377.528559)" fill="#000000">
                                            <path d="M0,42.3850249 L18.0096059,42.3850249 L18.0096059,34.1997169 L10.6341517,34.1997169 L10.6341517,26.4482591 L17.1997521,26.4482591 L17.1997521,18.667878 L10.6341517,18.667878 L10.6341517,1.49222865 L0,1.49222865 L0,42.3850249 Z M40.7674617,37.2559508 L34.1729379,37.2559508 L34.1729379,43.8263718 L40.7674617,43.8263718 L40.7674617,37.2559508 Z M29.7283832,37.2559508 L23.1338594,37.2559508 L23.1338594,43.8263718 L29.7283832,43.8263718 L29.7283832,37.2559508 Z M43.6501556,35.0095707 L43.6501556,1.49222865 L33.266673,1.49222865 L33.4450336,4.27851136 C32.7364116,3.14568016 31.8638905,2.29726189 30.8274705,1.73325657 C29.7910504,1.16925124 28.6003725,0.884838304 27.2554367,0.884838304 C25.7176786,0.884838304 24.4498718,1.15478957 23.4375546,1.6946921 C22.4300579,2.23459463 21.6828713,2.94803727 21.2008155,3.83984055 C20.7235802,4.73164384 20.4247056,5.6620116 20.3041916,6.63576438 C20.1884982,7.59987604 20.1306515,9.52327882 20.1306515,12.4059727 L20.1306515,35.0095707 L30.3357735,35.0095707 L30.3357735,12.1986887 C30.3357735,9.59076663 30.4129024,8.04336741 30.5768014,7.55167046 C30.7358799,7.06479407 31.1697301,6.82376616 31.8783522,6.82376616 C32.6351798,6.82376616 33.0834918,7.07443519 33.2281085,7.58059381 C33.3679047,8.08193188 33.4450336,9.71128059 33.4450336,12.4541783 L33.4450336,35.0095707 L43.6501556,35.0095707 Z" id="path2372"></path>
                                        </g>
                                        <g id="g2374" transform="translate(400.125550, 378.794703)" fill="#000000">
                                            <path d="M10.461675,33.7439082 L10.0567481,29.3379179 C11.54148,32.4905631 13.6866285,34.1632968 16.497014,34.3512986 L16.497014,22.5553924 C14.6314579,22.5553924 13.2527782,22.2999028 12.3802572,21.7985647 C11.5029156,21.2924061 10.9678336,20.5886046 10.7653701,19.6871602 C10.5629067,18.7857158 10.461675,16.7128757 10.461675,13.4638194 L10.461675,0.226566241 L0.256552998,0.226566241 L0.256552998,33.7439082 L10.461675,33.7439082 Z" id="path2376"></path>
                                        </g>
                                        <g id="g2378" transform="translate(338.513345, 332.343488)" fill="#000000">
                                            <path d="M13.461675,25.9233499 C13.461675,27.1525923 13.3556227,27.9769078 13.1435181,28.3962963 C12.9314135,28.8205055 12.5168455,29.0277895 11.8949935,29.0277895 C11.2876032,29.0277895 10.8778557,28.8397877 10.6705717,28.4637842 C10.4584671,28.0829601 10.3524148,27.2345418 10.3524148,25.9233499 L10.3524148,9.50452829 C10.3524148,8.14031028 10.4536466,7.24368643 10.65611,6.81465674 C10.8585735,6.38562705 11.2442181,6.17352249 11.8178646,6.17352249 C12.4782811,6.17352249 12.9121313,6.40972984 13.1290564,6.89178568 C13.3508021,7.36902095 13.461675,8.54523718 13.461675,10.4156138 L13.461675,25.9233499 Z M23.6619764,41.7347812 L23.6619764,0.841984982 L13.461675,0.841984982 L13.461675,3.27154638 C12.4831016,2.25922913 11.4515021,1.50240147 10.3765176,0.996242848 C9.30153313,0.490084225 8.17352249,0.234594634 6.9924857,0.234594634 C5.41134257,0.234594634 4.03748345,0.649162649 2.87572889,1.48311924 C1.71397433,2.31707583 0.971608353,3.28118749 0.638989829,4.37545423 C0.316012422,5.46972097 0.14729288,7.25814811 0.14729288,9.73109453 L0.14729288,25.4171913 C0.14729288,27.9913694 0.316012422,29.8183611 0.638989829,30.8981661 C0.971608353,31.9779712 1.72361545,32.9228006 2.89983168,33.7422955 C4.08086847,34.5569699 5.4884715,34.9618968 7.11782021,34.9618968 C8.38080649,34.9618968 9.53774049,34.7353305 10.5934428,34.2821981 C11.6443245,33.824245 12.6036156,33.1445463 13.461675,32.2334608 L13.461675,41.7347812 L23.6619764,41.7347812 Z M37.8344178,0.841984982 L27.3256007,0.841984982 L27.3256007,34.359327 L37.8344178,34.359327 L37.8344178,0.841984982 Z M37.8344178,36.4032437 L27.3256007,36.4032437 L27.3256007,41.7347812 L37.8344178,41.7347812 L37.8344178,36.4032437 Z" id="path2380"></path>
                                        </g>
                                        <g id="g2382" transform="translate(379.463988, 331.946540)" fill="#000000">
                                            <path d="M23.1027916,22.1027916 L13.4809572,22.1027916 L13.4809572,25.9640588 C13.4809572,27.3138152 13.3700844,28.2297212 13.1483387,28.7069565 C12.9314135,29.1890123 12.5264866,29.4252197 11.9383785,29.4252197 C11.3502704,29.4252197 10.9501641,29.2179357 10.7477006,28.7937266 C10.5500577,28.374338 10.448826,27.4295086 10.448826,25.9640588 L10.448826,10.1574481 C10.448826,8.95712906 10.5982633,8.06050522 10.9067791,7.46275598 C11.2056537,6.86500675 11.6539656,6.56613214 12.2420737,6.56613214 C12.9314135,6.56613214 13.3990077,6.87946843 13.6448562,7.50132045 C13.8858841,8.12317247 14.0063981,9.30420926 14.0063981,11.0396103 L14.0063981,15.0310325 L23.1027916,15.0310325 C23.0835094,12.3508021 22.9870982,10.3454499 22.8135581,9.00533465 C22.6351974,7.66521943 22.0711921,6.29618087 21.1167216,4.88857784 C20.1670716,3.48097481 18.9233675,2.42045198 17.39043,1.70700935 C15.862313,0.988746159 13.9678336,0.632024843 11.7118123,0.632024843 C8.83393898,0.632024843 6.54899433,1.12372179 4.86661948,2.10711569 C3.17942406,3.09533015 1.99356672,4.47400983 1.29458576,6.25279585 C0.590784246,8.02676131 0.243704047,10.5527339 0.243704047,13.8162519 L0.243704047,23.3368545 C0.243704047,26.1858045 0.528116988,28.330953 1.10658399,29.781941 C1.67540987,31.2281085 2.89501112,32.5200181 4.76538775,33.6576699 C6.63576438,34.7953217 8.90624735,35.359327 11.5864778,35.359327 C14.247426,35.359327 16.5179089,34.8001422 18.4027472,33.667311 C20.2924061,32.5441209 21.5457513,31.1172357 22.1676033,29.4011169 C22.7894553,27.6849981 23.1027916,25.2506162 23.1027916,22.1027916" id="path2384"></path>
                                        </g>
                                        <g id="g2386" transform="translate(405.338502, 332.692762)" fill="#000000">
                                            <path d="M10.461675,41.3850249 L10.461675,32.1825791 C11.3390166,32.9924329 12.283846,33.5998232 13.3009838,34.0095707 C14.3229422,34.4144976 15.4123884,34.6121404 16.5741429,34.6121404 C18.3577495,34.6121404 19.8810459,34.159008 21.1343911,33.252743 C22.3877363,32.3416575 23.154205,31.2955963 23.4289768,30.1049184 C23.7085692,28.9238816 23.8483654,26.7498098 23.8483654,23.6019852 L23.8483654,0.492228652 L13.6432435,0.492228652 L13.6432435,24.0840411 C13.6432435,26.0363672 13.5468323,27.2897124 13.35401,27.8488971 C13.1611876,28.4032613 12.7273374,28.6780332 12.0524592,28.6780332 C11.4306072,28.6780332 11.0112186,28.3936202 10.7942935,27.8199738 C10.5725478,27.2511479 10.461675,26.1134961 10.461675,24.411839 L10.461675,0.492228652 L0.256552998,0.492228652 L0.256552998,41.3850249 L10.461675,41.3850249 Z" id="path2388"></path>
                                        </g>
                                        <g id="g2390" transform="translate(351.925103, 286.507691)" fill="#000000">
                                            <path d="M13.461675,25.9233499 C13.461675,27.1525923 13.3556227,27.9769078 13.1435181,28.3962963 C12.9314135,28.8205055 12.5168455,29.0277895 11.8949935,29.0277895 C11.2876032,29.0277895 10.8778557,28.8397877 10.6705717,28.4589636 C10.4584671,28.0829601 10.3524148,27.2345418 10.3524148,25.9233499 L10.3524148,9.50452829 C10.3524148,8.14031028 10.4536466,7.24368643 10.65611,6.81465674 C10.8585735,6.38080649 11.2442181,6.16870193 11.8178646,6.16870193 C12.4782811,6.16870193 12.9121313,6.40972984 13.1290564,6.88696512 C13.3508021,7.36902095 13.461675,8.54523718 13.461675,10.4107932 L13.461675,25.9233499 Z M23.6667969,41.7347812 L23.6667969,0.837164424 L13.461675,0.837164424 L13.461675,3.27154638 C12.4831016,2.25922913 11.4563227,1.49758091 10.3813382,0.99142229 C9.30153313,0.485263666 8.17352249,0.234594634 6.9924857,0.234594634 C5.41134257,0.234594634 4.03748345,0.649162649 2.87572889,1.48311924 C1.71397433,2.31707583 0.971608353,3.28118749 0.638989829,4.37545423 C0.316012422,5.46972097 0.14729288,7.25814811 0.14729288,9.73109453 L0.14729288,25.4171913 C0.14729288,27.9913694 0.316012422,29.8183611 0.638989829,30.8981661 C0.971608353,31.9731506 1.72361545,32.9228006 2.90465224,33.737475 C4.08086847,34.5569699 5.4884715,34.9618968 7.12264077,34.9618968 C8.38080649,34.9618968 9.54256105,34.7353305 10.5934428,34.2821981 C11.6443245,33.824245 12.598795,33.1397257 13.461675,32.2286402 L13.461675,41.7347812 L23.6667969,41.7347812 Z" id="path2392"></path>
                                        </g>
                                        <g id="g2394" transform="translate(378.141709, 286.003727)" fill="#000000">
                                            <path d="M13.461675,17.2822333 C11.8275057,16.0867348 10.8778557,15.0840587 10.6175456,14.2742049 C10.3572354,13.4691717 10.2270803,12.3074171 10.2270803,10.7889412 C10.2270803,9.05836079 10.3427737,7.9351707 10.56934,7.42901208 C10.7959062,6.92767401 11.2442181,6.67218442 11.9190963,6.67218442 C12.5602306,6.67218442 12.9747986,6.87464787 13.1676209,7.26993365 C13.3652638,7.66521943 13.461675,8.70163947 13.461675,10.3840143 L13.461675,17.2822333 Z M10.2270803,21.8762254 L0.653451504,21.8762254 L0.653451504,24.1274261 C0.653451504,26.7208865 0.95232612,28.7214182 1.55007535,30.1242007 C2.14782458,31.5318037 3.34814361,32.7755077 5.15103242,33.8553128 C6.95392123,34.9302973 9.29189202,35.4701998 12.1697653,35.4701998 C15.6261056,35.4701998 18.2243866,34.8579889 19.9742493,33.6383877 C21.7289325,32.4187864 22.7798142,30.9147722 23.1365355,29.1408068 C23.4884363,27.3668413 23.6667969,23.7080375 23.6667969,18.1643955 L23.6667969,1.34546747 L13.7364468,1.34546747 L13.7364468,4.32939308 C13.1145948,3.13389461 12.3143821,2.23727076 11.3261676,1.63470097 C10.3427737,1.03695174 9.1665575,0.738077126 7.80233949,0.738077126 C6.01873292,0.738077126 4.38456364,1.23941519 2.89019057,2.24209132 C1.40063804,3.24476745 0.653451504,5.43812149 0.653451504,8.82215343 L0.653451504,11.5746922 C0.653451504,14.0813826 1.04873729,15.7926808 1.83930885,16.7037663 C2.63470097,17.6100313 4.59666821,18.6705541 7.72521056,19.8853348 C11.0754986,21.1965266 12.8735668,22.0835094 13.1097742,22.5366419 C13.341161,22.9897743 13.461675,23.9201421 13.461675,25.3132834 C13.461675,27.0679667 13.3315199,28.2056184 13.0712097,28.7358799 C12.806079,29.2661413 12.3722288,29.531272 11.769659,29.531272 C11.0754986,29.531272 10.6512895,29.3095263 10.4825699,28.8612144 C10.3090298,28.417723 10.2270803,27.260789 10.2270803,25.3904124 L10.2270803,21.8762254 Z M37.5548255,1.34546747 L28.01012,1.34546747 L28.01012,9.5307755 L37.5548255,9.5307755 L37.5548255,1.34546747 Z M38.3936026,42.2382637 L36.7256894,11.4493577 L28.8440766,11.4493577 L27.1761634,42.2382637 L38.3936026,42.2382637 Z" id="path2396"></path>
                                        </g>
                                    </g>
                                </g>
                            </g>
                        </g>
                    </g>
                </g>
            </g>
        </g>
    </g>
</svg>