<?xml version="1.0" encoding="UTF-8" standalone="no"?>
<svg width="310px" height="103px" viewBox="0 0 310 103" version="1.1" xmlns="http://www.w3.org/2000/svg" xmlns:xlink="http://www.w3.org/1999/xlink" xmlns:sketch="http://www.bohemiancoding.com/sketch/ns">
    <!-- Generator: Sketch 3.3.3 (12072) - http://www.bohemiancoding.com/sketch -->
    <title>Logo</title>
    <desc>Created with Sketch.</desc>
    <defs></defs>
    <g id="Page-1" stroke="none" stroke-width="1" fill="none" fill-rule="evenodd" sketch:type="MSPage">
        <g id="Logo" sketch:type="MSArtboardGroup">
            <path d="M159.687256,90.6875 L159.687256,46.375 L156.811577,46.375 L156.811577,90.5007121 L159.687256,90.6875 Z" id="Path-25" stroke="#FDD839" fill="#FDD839" sketch:type="MSShapeGroup"></path>
            <path d="M158.014205,45.5461386 L138.177903,45.5461386 L139.28157,74.6478645 C139.28157,74.6478645 138.612307,91.6456849 158.014205,91.6456849 M158.019811,45.5461386 L177.856113,45.5461386 L176.751885,74.6478645 C176.751885,74.6478645 177.421709,91.6456849 158.019811,91.6456849" id="Fill-1" fill="#FDD839" sketch:type="MSShapeGroup"></path>
            <path d="M158.014205,45.5461386 L138.177903,45.5461386 L139.28157,74.6478645 C139.28157,74.6478645 138.612307,91.6456849 158.014205,91.6456849 M158.019811,45.5461386 L177.856113,45.5461386 L176.751885,74.6478645 C176.751885,74.6478645 177.421709,91.6456849 158.019811,91.6456849" id="Stroke-2" stroke="#000000" stroke-width="0.7" sketch:type="MSShapeGroup"></path>
            <path d="M143.820675,51.6776854 C143.820675,51.6776854 145.829585,52.4377528 147.422027,52.4377528 C151.784007,52.4377528 154.17295,49.4697904 161.484956,49.4697904 C165.756131,49.4697904 171.04129,51.6412515 171.04129,57.2156397 C171.04129,62.0663945 166.609806,64.2272056 166.045921,64.4912113 C162.2198,66.2831992 159.385241,66.2288286 159.385241,66.2288286 C159.385241,66.2288286 159.65261,66.2714282 160.15764,66.5275867 C161.352112,67.1340711 163.306651,70.7051548 163.729285,71.4052464 C165.312198,74.028488 166.045921,75.4594999 168.217382,78.2105403 C169.114777,79.3467178 170.275618,79.3842728 170.803068,79.2755316 C171.543518,79.1230697 172.199328,78.717252 172.199328,78.717252 L172.923522,79.8752898 C172.923522,79.8752898 171.258212,80.7440984 170.244789,81.6487804 C169.231366,82.554023 168.362557,83.6397535 168.362557,83.6397535 C168.362557,83.6397535 166.299277,83.2053492 164.851449,82.0831847 C163.696774,81.1885921 163.29488,80.5994838 162.642994,79.5855001 C161.991667,78.5720768 160.273108,75.6366247 158.842656,73.215171 C157.430702,70.8262275 157.141473,70.2466481 156.417279,69.3055322 C155.603402,68.2478277 155.114066,67.5320415 152.725123,67.5320415 L153.738546,66.0987876 C153.738546,66.0987876 157.792799,65.6133758 160.399225,64.0209336 C163.005091,62.427931 164.95963,59.7497583 164.95963,57.2156397 C164.95963,54.6820817 162.932783,51.5689442 158.950837,51.5689442 C154.969452,51.5689442 151.928621,55.0441787 151.928621,58.953257 L151.928621,76.0799974 C151.928621,76.0799974 151.817638,77.8327487 152.484098,79.583258 C153.014912,80.9783965 154.471708,82.3466299 154.471708,82.3466299 L153.449317,83.6251799 C153.449317,83.6251799 151.904519,82.5394494 149.587883,82.5394494 C147.250507,82.5394494 145.702907,83.6251799 145.702907,83.6251799 L144.689484,82.3225275 C144.689484,82.3225275 146.086304,80.9554151 146.644023,79.571487 C147.343554,77.8338698 147.223042,76.1108261 147.223042,76.1108261 L147.223042,58.953257 C147.223042,58.953257 147.187168,55.4780225 144.906406,54.3199846 C143.292664,53.5005019 142.662077,53.5957906 142.662077,53.5957906 L143.820675,51.6776854" id="Fill-3" fill="#CE253D" sketch:type="MSShapeGroup"></path>
            <path d="M143.820675,51.6776854 C143.820675,51.6776854 145.829585,52.4377528 147.422027,52.4377528 C151.784007,52.4377528 154.17295,49.4697904 161.484956,49.4697904 C165.756131,49.4697904 171.04129,51.6412515 171.04129,57.2156397 C171.04129,62.0663945 166.609806,64.2272056 166.045921,64.4912113 C162.2198,66.2831992 159.385241,66.2288286 159.385241,66.2288286 C159.385241,66.2288286 159.65261,66.2714282 160.15764,66.5275867 C161.352112,67.1340711 163.306651,70.7051548 163.729285,71.4052464 C165.312198,74.028488 166.045921,75.4594999 168.217382,78.2105403 C169.114777,79.3467178 170.275618,79.3842728 170.803068,79.2755316 C171.543518,79.1230697 172.199328,78.717252 172.199328,78.717252 L172.923522,79.8752898 C172.923522,79.8752898 171.258212,80.7440984 170.244789,81.6487804 C169.231366,82.554023 168.362557,83.6397535 168.362557,83.6397535 C168.362557,83.6397535 166.299277,83.2053492 164.851449,82.0831847 C163.696774,81.1885921 163.29488,80.5994838 162.642994,79.5855001 C161.991667,78.5720768 160.273108,75.6366247 158.842656,73.215171 C157.430702,70.8262275 157.141473,70.2466481 156.417279,69.3055322 C155.603402,68.2478277 155.114066,67.5320415 152.725123,67.5320415 L153.738546,66.0987876 C153.738546,66.0987876 157.792799,65.6133758 160.399225,64.0209336 C163.005091,62.427931 164.95963,59.7497583 164.95963,57.2156397 C164.95963,54.6820817 162.932783,51.5689442 158.950837,51.5689442 C154.969452,51.5689442 151.928621,55.0441787 151.928621,58.953257 L151.928621,76.0799974 C151.928621,76.0799974 151.817638,77.8327487 152.484098,79.583258 C153.014912,80.9783965 154.471708,82.3466299 154.471708,82.3466299 L153.449317,83.6251799 C153.449317,83.6251799 151.904519,82.5394494 149.587883,82.5394494 C147.250507,82.5394494 145.702907,83.6251799 145.702907,83.6251799 L144.689484,82.3225275 C144.689484,82.3225275 146.086304,80.9554151 146.644023,79.571487 C147.343554,77.8338698 147.223042,76.1108261 147.223042,76.1108261 L147.223042,58.953257 C147.223042,58.953257 147.187168,55.4780225 144.906406,54.3199846 C143.292664,53.5005019 142.662077,53.5957906 142.662077,53.5957906 L143.820675,51.6776854 L143.820675,51.6776854 Z" id="Stroke-4" stroke="#000000" stroke-width="0.7" sketch:type="MSShapeGroup"></path>
            <path d="M26.472095,25.7053521 L26.472095,27.2579972 L35.7868445,27.2579972 C35.683148,30.0869502 34.8552575,32.2600928 32.6131707,34.1574587 C30.4742199,35.882184 27.7484029,37.0206036 24.9542023,37.0206036 C18.4684057,37.0206036 13.1557811,31.6390348 13.1557811,25.2227429 C13.1557811,18.9785312 18.6068546,13.4243218 24.9542023,13.4243218 C29.1631597,13.4243218 32.6821149,15.5632725 34.9931458,19.0127231 L36.3389584,17.9432477 C33.6131414,14.21746 29.7842177,11.8716767 25.0578988,11.8716767 C17.6063233,11.8716767 11.5,17.8743035 11.5,25.3258789 C11.5,32.5016777 17.6405152,38.5732487 24.8510663,38.5732487 C28.5073493,38.5732487 32.233137,37.0553559 34.7173691,34.3642913 C37.0284001,31.8458673 37.5115698,28.9827225 37.4426256,25.7053521 L26.472095,25.7053521 L26.472095,25.7053521 Z M53.897861,13.7690426 L53.897861,12.216958 L41.4783818,12.216958 L41.4783818,38.2285278 L53.897861,38.2285278 L53.897861,36.6758827 L43.1347234,36.6758827 L43.1347234,24.773765 L53.6220844,24.773765 L53.6220844,23.2216805 L43.1347234,23.2216805 L43.1347234,13.7690426 L53.897861,13.7690426 L53.897861,13.7690426 Z M85.2214949,38.2285278 L86.8083319,38.2285278 L81.2199305,11.3543151 L71.6294043,35.0201016 L62.0736305,11.3543151 L56.4846687,38.2285278 L58.0715056,38.2285278 L62.5220478,16.7016921 L62.590992,16.7016921 L71.6294043,39.0906102 L80.702569,16.7016921 L80.7715132,16.7016921 L85.2214949,38.2285278 L85.2214949,38.2285278 Z M102.332541,13.7690426 L102.332541,12.216958 L89.9130615,12.216958 L89.9130615,38.2285278 L102.332541,38.2285278 L102.332541,36.6758827 L91.5688426,36.6758827 L91.5688426,24.773765 L102.056204,24.773765 L102.056204,23.2216805 L91.5688426,23.2216805 L91.5688426,13.7690426 L102.332541,13.7690426 L102.332541,13.7690426 Z M107.40302,38.2285278 L109.058801,38.2285278 L109.058801,12.216958 L107.40302,12.216958 L107.40302,38.2285278 Z M138.140348,12.216958 L136.484567,12.216958 L136.484567,34.9164051 L114.647202,11.8716767 L114.647202,38.2285278 L116.303544,38.2285278 L116.303544,15.873241 L138.140348,39.0906102 L138.140348,12.216958 L138.140348,12.216958 Z M143.211388,38.2285278 L147.902955,38.2285278 C151.766631,38.2285278 154.837168,37.5385256 157.700313,34.7785168 C160.322434,32.2600928 161.702438,28.8448341 161.702438,25.2569347 C161.702438,21.531147 160.287681,18.0469442 157.562425,15.4937679 C154.69928,12.8374555 151.697686,12.216958 147.902955,12.216958 L143.211388,12.216958 L143.211388,38.2285278 L143.211388,38.2285278 Z M144.867169,36.6758827 L144.867169,13.7690426 L147.868763,13.7690426 C151.111381,13.7690426 153.802445,14.3553483 156.286117,16.5979956 C158.735597,18.8400824 160.046657,21.9453726 160.046657,25.2569347 C160.046657,28.3616644 158.804541,31.3285058 156.596646,33.5364007 C154.112974,35.9858805 151.284021,36.6758827 147.868763,36.6758827 L144.867169,36.6758827 L144.867169,36.6758827 Z M177.7782,13.7690426 L177.7782,12.216958 L165.358721,12.216958 L165.358721,38.2285278 L177.7782,38.2285278 L177.7782,36.6758827 L167.014502,36.6758827 L167.014502,24.773765 L177.502424,24.773765 L177.502424,23.2216805 L167.014502,23.2216805 L167.014502,13.7690426 L177.7782,13.7690426 L177.7782,13.7690426 Z" id="Fill-5" fill="#000000" sketch:type="MSShapeGroup"></path>
            <path d="M208.91462,44.9856169 C208.217331,44.9856169 207.671383,45.4912074 207.671383,46.1884964 C207.671383,46.8857854 208.217331,47.4715306 208.91462,47.4715306 C209.611909,47.4715306 210.157857,46.9255824 210.157857,46.2282935 C210.157857,45.5310045 209.611909,44.9856169 208.91462,44.9856169 L208.91462,44.9856169 Z M214.675102,44.9856169 C213.977813,44.9856169 213.431864,45.5310045 213.431864,46.2282935 C213.431864,46.9255824 213.977813,47.4715306 214.675102,47.4715306 C215.37239,47.4715306 215.918339,46.9255824 215.918339,46.2282935 C215.918339,45.5310045 215.37239,44.9856169 214.675102,44.9856169 L214.675102,44.9856169 Z M199.250105,71.4299094 L197.352739,71.4299094 L188.866441,59.1141267 L188.03855,59.1141267 L188.03855,71.4299094 L186.382769,71.4299094 L186.382769,45.4183396 L189.625387,45.4183396 C191.729585,45.4183396 193.799592,45.453092 195.55907,46.7293999 C197.421683,48.0404601 198.18063,50.1099062 198.18063,52.3178012 C198.18063,56.8372876 195.041708,59.1830709 190.729054,59.1141267 L199.250105,71.4299094 L199.250105,71.4299094 Z M190.142748,57.5614816 C191.764338,57.5614816 193.385366,57.4925374 194.696427,56.3541179 C195.938543,55.3535867 196.524848,53.8015021 196.524848,52.248857 C196.524848,50.3172992 195.628014,48.3851809 193.76484,47.5572904 C192.385396,46.9020405 190.625918,46.9709847 189.108025,46.9709847 L188.03855,46.9709847 L188.03855,57.5614816 L190.142748,57.5614816 L190.142748,57.5614816 Z M218.982711,45.4183396 L220.638492,45.4183396 L220.638492,61.6325507 C220.638492,64.288863 220.638492,66.5657021 218.879575,68.7388447 C217.120097,70.7399072 214.429032,71.7751908 211.807473,71.7751908 C209.185352,71.7751908 206.494287,70.7399072 204.73537,68.7388447 C202.975893,66.5657021 202.975893,64.288863 202.975893,61.6325507 L202.975893,45.4183396 L204.631674,45.4183396 L204.631674,61.149381 C204.631674,63.4951643 204.631674,65.9793964 205.976926,67.7041217 C207.253794,69.3599028 209.80641,70.2225457 211.807473,70.2225457 C213.807974,70.2225457 216.361151,69.3599028 217.637459,67.7041217 C218.982711,65.9793964 218.982711,63.4951643 218.982711,61.149381 L218.982711,45.4183396 L218.982711,45.4183396 Z M231.781103,71.4299094 L230.125322,71.4299094 L230.125322,46.9709847 L223.398501,46.9709847 L223.398501,45.4183396 L238.508484,45.4183396 L238.508484,46.9709847 L231.781103,46.9709847 L231.781103,71.4299094 L231.781103,71.4299094 Z M241.854799,45.4183396 L243.51058,45.4183396 L243.51058,71.4299094 L241.854799,71.4299094 L241.854799,45.4183396 Z M275.731048,69.8772643 L275.731048,71.4299094 L257.412639,71.4299094 L273.282129,46.9709847 L258.930531,46.9709847 L258.930531,45.4183396 L276.180026,45.4183396 L260.310536,69.8772643 L275.731048,69.8772643 L275.731048,69.8772643 Z M296.843658,56.4578144 L296.843658,45.4183396 L298.5,45.4183396 L298.5,71.4299094 L296.843658,71.4299094 L296.843658,58.0104595 L281.043673,58.0104595 L281.043673,71.4299094 L279.387892,71.4299094 L279.387892,45.4183396 L281.043673,45.4183396 L281.043673,56.4578144 L296.843658,56.4578144 L296.843658,56.4578144 Z" id="Fill-6" fill="#000000" sketch:type="MSShapeGroup"></path>
        </g>
    </g>
</svg>