<?xml version="1.0" encoding="UTF-8"?>
<svg width="301px" height="100px" viewBox="0 0 301 100" version="1.1" xmlns="http://www.w3.org/2000/svg" xmlns:xlink="http://www.w3.org/1999/xlink">
    <title>sh</title>
    <g id="Page-1" stroke="none" stroke-width="1" fill="none" fill-rule="evenodd">
        <g id="sh" fill-rule="nonzero">
            <rect id="Rectangle" fill="#1D1D1B" x="0" y="66.7" width="300.5" height="33.3"></rect>
            <g id="Group" transform="translate(20.1, 66.7)" fill="#FFFFFF">
                <path d="M6,24.1 C6,26.8 8.3,27.9 10.8,27.9 C12.6,27.9 14.9,27.2 14.9,25 C14.9,23.1 12.3,22.4 7.8,21.5 C4.2,20.7 0.6,19.4 0.6,15.4 C0.6,9.6 5.6,8.1 10.5,8.1 C15.5,8.1 20.1,9.8 20.6,15.4 L14.6,15.4 C14.4,13 12.6,12.3 10.3,12.3 C8.9,12.3 6.8,12.6 6.8,14.4 C6.8,16.7 10.3,17 13.9,17.8 C17.6,18.6 21.1,20 21.1,24.2 C21.1,30.2 15.9,32.2 10.7,32.2 C5.4,32.2 0.2,30.2 3.55271368e-15,24.2 L6,24.2 L6,24.1 Z" id="Path"></path>
                <path d="M24.9,-1.42108547e-14 L31.2,-1.42108547e-14 L31.2,11.9 L31.3,11.9 C32.9,9.3 35.6,8.1 38,8.1 C44.7,8.1 46.3,11.9 46.3,17.5 L46.3,31.5 L40,31.5 L40,18.6 C40,14.8 38.9,13 36,13 C32.6,13 31.1,14.9 31.1,19.5 L31.1,31.5 L24.9,31.5 L24.9,-1.42108547e-14 Z" id="Path"></path>
                <polygon id="Path" points="51.1 24.7 58 24.7 58 31.5 51.1 31.5"></polygon>
                <path d="M77.8,16.7 C77.4,14.1 75.8,12.8 73.2,12.8 C69.2,12.8 67.9,16.9 67.9,20.2 C67.9,23.5 69.2,27.4 73.1,27.4 C76,27.4 77.7,25.5 78.1,22.8 L84.2,22.8 C83.4,28.9 79.2,32.2 73.2,32.2 C66.3,32.2 61.7,27.3 61.7,20.5 C61.7,13.4 65.9,8.1 73.4,8.1 C78.8,8.1 83.7,10.9 84.1,16.8 L77.8,16.8 L77.8,16.7 Z" id="Path"></path>
                <path d="M87.6,-1.42108547e-14 L93.9,-1.42108547e-14 L93.9,11.9 L94,11.9 C95.6,9.3 98.3,8.1 100.7,8.1 C107.4,8.1 109,11.9 109,17.5 L109,31.5 L102.7,31.5 L102.7,18.6 C102.7,14.8 101.6,13 98.7,13 C95.3,13 93.8,14.9 93.8,19.5 L93.8,31.5 L87.5,31.5 L87.5,-1.42108547e-14 L87.6,-1.42108547e-14 Z" id="Path"></path>
            </g>
            <rect id="Rectangle" fill="#FFDC00" x="0" y="0" width="300.5" height="66.7"></rect>
            <g id="Group" transform="translate(216, 0)" fill="#000000">
                <path d="M4.4,20.3 C4.6,20.3 4.7,20.3 4.9,20.2 C5.2,20.1 5.5,19.9 5.9,19.9 C6.2,19.8 6.6,20.4 7.2,20.5 C7.6,20.6 9.5,20.8 10.4,20.9 C11.1,21 13.6,21.5 14.1,21.6 C14.9,21.9 15.4,22.7 15.7,23.2 C16,23.9 16.3,24.6 16.5,25.3 C16.8,26 17.2,26.7 17.5,27.4 C17.6,27.6 17.8,28.1 17.9,28.2 C17.2,28.8 16.9,29.6 17.1,30.6 C16.9,30.8 16.6,31 16.4,31.2 L16.3,31.2 C15.6,30 15.1,28.7 14.8,27.3 C14.5,26.2 14.3,25.1 13.9,24 C13.6,23.6 13.2,23.5 12.9,23.2 C12.5,23 12.1,23 11.6,22.9 C11.1,22.8 9.8,22.6 9.5,22.5 C8.9,22.4 8.1,22.2 7.7,22.4 C7.5,22.6 7.2,22.8 6.8,22.9 C6.5,22.9 6.3,22.9 6.1,22.7 C6.1,22.4 6.5,22.2 6.5,21.9 C6.3,21.6 6.1,21.9 5.8,21.8 C5.7,22 5.6,22.2 5.5,22.3 C5.1,22.8 4.9,23.5 4.3,23.8 C3.1,23.5 1.8,22.8 0.7,21.9 C0.5,21.8 0.4,21.6 0.4,21.4 C0.6,21.4 0.8,21.5 0.9,21.5 C0.7,21 0,20.7 0,20.2 C0.2,20.2 0.4,20.2 0.7,20.2 C1.5,20.2 2.5,20.1 3.2,20 C3.6,19.8 3.8,20.2 4.4,20.3 Z M2.9,20.3 C2.3,20.4 1.6,20.4 0.9,20.5 C0.9,20.5 0.7,20.5 0.8,20.6 C1,20.8 1.3,21 1.6,21.2 C1.9,21.3 3.4,20.9 3.8,20.7 C3.6,20.4 3.3,20.3 2.9,20.3 Z M4.3,21.1 C3.9,21.1 3.6,21.2 3.3,21.3 C2.7,21.5 2.1,21.6 1.5,21.8 C1.5,22 1.9,22.2 2,22.3 C2.2,22.4 2.4,22.5 2.6,22.6 C3,22.8 3.3,22.9 3.7,23.1 C4.5,23.4 4.9,22.4 5.1,22 C5,21.6 4.6,21.3 4.3,21.1 Z" id="Shape"></path>
                <path d="M33.7,23.8 C34.1,24.7 34.9,25.4 35.6,25.9 C35.8,26.1 35.7,26.4 35.6,26.7 C35.3,27.4 34.2,26.9 34.4,28 C34.4,28.3 33.7,28.7 33.5,28.7 C33.3,28.7 33.1,28.6 33.1,28.8 C33.2,29.2 33,29.7 32.7,29.9 C32.3,30.1 31.9,29.7 31.6,30 C31.5,30.2 31.8,30.5 31.5,30.9 C31.3,31.1 31,31.2 30.7,31.2 C30.6,31.2 30.6,31.3 30.6,31.3 C30.5,31.5 30.7,31.6 30.8,31.8 C30.8,32 30.8,32.3 30.7,32.5 C30.5,32.8 29.9,32.8 30.1,33.3 C32.3,36.1 35.7,37 38,39.7 C38.5,40.2 38.6,41.4 39.6,41.3 C41,41.3 42.1,40.8 42.9,39.7 C43.4,39 43.4,38.2 43.6,37.4 C43.7,37.1 44.2,37.3 44.2,37 C44.2,36.8 43.7,36.7 43.8,36.3 C43.8,35.8 44.1,35.4 44.4,35.1 C44.6,35 44.9,35 45.1,35.1 C45.2,35.1 45.3,35 45.2,34.9 C44.9,34.7 44.9,34.3 45,34.1 C45.2,33.7 45.6,33.4 46.1,33.3 C46.5,33.3 46.5,33.8 46.8,33.9 C47,33.8 46.8,33.5 46.8,33.3 C46.8,33 46.8,32.6 47.1,32.3 C47.4,32.1 47.8,31.9 48.1,32.1 C48.1,32.1 48.4,32.4 48.6,32.3 C48.8,32.2 48.6,31.6 48.8,31.3 C49,31.1 49.3,30.9 49.6,31.1 C49.8,31.3 49.8,31.7 50.1,31.7 C50.3,31.7 50.6,31 51,31 C51.3,31 51.6,31.2 51.7,31.3 C51.8,31.4 51.8,31.7 51.7,31.8 C51.6,31.9 51.5,32 51.5,32.2 C51.7,32.5 52.1,31.9 52.5,32.2 C52.8,32.4 52.8,32.7 52.9,32.9 C52.9,33.1 52.8,33.3 52.6,33.4 C52.4,33.6 51.9,33.7 51.9,33.9 C52,34.2 52.4,34 52.5,34.3 C52.6,34.7 52.2,35.1 52,35.2 C51.7,35.3 51.2,35.3 51.4,35.6 C51.6,35.8 51.7,36 51.8,36.3 C51.8,36.7 51.4,36.9 51.1,37.2 C50.7,37.5 49.9,37 50.2,37.6 C50.3,37.7 50.5,38 50.4,38.2 C50.1,38.7 49.3,38.9 49.1,38.8 C49,38.7 48.8,38.6 48.6,38.6 C48.4,38.7 48.5,38.8 48.6,39 C48.9,39.3 48.8,39.5 48.7,39.7 C48.5,40.1 48,40.2 47.8,40.3 C47.5,40.3 47.3,40 47.1,40.3 C47.4,40.6 47,41 46.8,41.2 C46.2,41.6 45.6,41 45,41.4 C44.3,41.7 43.6,42.3 43.1,42.4 C42.7,42.6 42.1,42.6 41.7,42.6 C40.9,42.6 40.4,42.6 39.7,42.7 C39.5,43.1 39.8,43.3 40,43.7 C40.3,44.4 40.7,45.2 41.1,45.8 C41.2,46 41.5,45.9 41.7,45.9 C42.1,45.8 42.5,46.1 42.8,46.4 C43.1,46.8 42.4,47.2 42.9,47.5 C43.2,47.6 43.6,47.3 44,47.4 C44.3,47.5 44.6,47.9 44.7,48.2 C44.8,48.5 44.1,48.8 44.7,49.1 C45.7,49.7 46.7,48 47.3,49.4 C47.5,49.8 47.6,50.4 47.3,50.9 C47.5,53.1 48.4,54.9 49,56.9 C49.4,57.9 49.5,59.3 50.5,60.1 C50.8,60.5 50.6,61.2 50.4,61.7 C50.1,62 49.8,61.6 49.5,61.5 C49,61.6 49.3,62.2 49.2,62.5 C49.2,63.1 50,62.8 50.1,63.4 C50.2,64.1 50.1,64.7 50,65.3 C48.9,66.3 47.5,66.9 46.1,67.3 C46,67.3 46,67.3 45.9,67.3 C45.9,67.1 46.1,66.9 46.1,66.6 L46,66.5 C45.5,66.7 45,66.9 44.5,67.1 C44.4,67 44.5,66.9 44.5,66.7 C45.1,65.6 45.2,64.3 45.9,63.2 C46.2,62.9 46.9,62.8 46.7,62.2 C46.9,61.4 47.9,60.8 47.6,59.8 C47.3,58.4 46.8,57.1 46.3,55.7 C46,54.8 45.6,53.9 45.3,52.9 C45.1,52.7 44.9,52.4 44.6,52.4 C44.4,52.7 44.6,53.1 44.3,53.3 C43.9,53.5 43.3,53.6 42.9,53.4 C42.6,53.3 42.6,52.8 42.4,53 C42.4,53.4 42.4,53.8 41.9,54 C41.5,54.1 41.1,54.2 40.8,54 C40.5,53.8 40.3,53.2 40.1,53.7 C40,54 40,54.3 39.7,54.4 C39.5,54.4 38.8,54.6 38.6,54.1 C38.5,53.9 38.6,53.4 38.2,53.5 C38,53.7 37.9,54.1 37.6,54.2 C37.2,54.4 36.7,54.2 36.6,53.9 C36.4,53.5 36.2,53.1 36,53.2 C35.9,53.4 35.7,53.6 35.5,53.6 C35.3,53.6 34.9,53.5 34.7,53.3 C34.4,53 35,52.5 34.4,52.5 C34.3,52.5 34,53 33.8,53 C33.5,53 33.2,53 33.1,52.7 C33,52.5 33,52.2 33.1,52 C33.1,51.9 32.9,51.8 32.9,51.9 C32.5,52.8 32.1,53.9 31,54.1 C29.7,54.4 29.5,54 28.6,54.2 C27.6,54.3 26.6,53.4 26.1,52.5 C26,52.3 25.8,52.4 25.7,52.5 C25.6,52.6 25.6,52.7 25.6,52.8 C25.8,53 25.8,53.2 25.7,53.5 C25.5,54.3 24.5,53.8 24.3,54.5 C24.1,55.1 24.5,55.8 25,56.4 C25.2,56.7 25.2,57.2 25.1,57.6 C24.5,58.5 23.5,57.7 22.8,58.3 C22.1,58.7 21.3,58.9 20.6,59.3 C20,59.6 17.5,60.9 16.8,61.2 C16.3,61.6 16.5,62.3 16,62.7 C15.7,62.9 15.3,63.1 15,63.2 C14.9,63.2 14.7,63.1 14.7,62.9 C14.7,62.7 14.7,62.5 14.5,62.5 C14.1,62.6 13.9,63.1 13.8,63.5 C13.9,63.8 14.3,63.9 14.2,64.3 C14.2,64.7 14.2,65.1 14.2,65.5 C14.1,65.9 14.2,66.4 13.8,66.6 C13.1,66.9 12.3,66.9 11.7,67.1 C10.7,67.2 9.4,67.2 8.8,67.2 C8.9,66.8 9.2,66.7 9.4,66.5 C9.4,66.4 9.6,66.4 9.5,66.3 C9.1,66.1 8.6,66.2 8.1,66.1 C8.1,65.9 8.3,65.8 8.5,65.6 C9.3,64.9 9.8,63.9 10.7,63.2 C11.1,63 11.9,63.2 12.1,62.6 C12.4,61.9 12.6,61.2 13.3,60.8 C13.5,60.6 13.7,60.6 14,60.4 C14.3,60.3 14.7,60.2 14.9,60.1 C15.5,59.8 15.7,59.8 16.2,59.5 C17.2,59 18,58.5 18.9,57.9 C19.4,57.6 19.8,57.3 20.3,57 C20.5,56.8 20.8,56.7 20.9,56.5 C21.1,55.9 20.5,55.5 20.8,54.9 C20.8,54.7 20.7,54.4 20.5,54.4 C20.1,54.6 19.8,54.7 19.4,54.6 C19.1,54.5 18.9,54.1 19,53.9 C19,53.7 19.1,53.2 18.8,53.2 C18.1,53.3 17.5,53.3 17.2,52.6 C17.1,52.2 17.1,51.9 17.2,51.6 C17.4,51.3 18.1,50.9 17.7,50.7 C17.4,50.6 16.9,50.4 16.7,50.2 C16.3,49.7 16.7,48.9 17,48.7 C17.2,48.6 17.3,48.5 17.6,48.5 C17.9,48.5 17.9,48.4 18,48.3 C18.1,48.1 17.8,48 17.8,47.9 C17.6,47.5 17.6,47 18,46.7 C18.3,46.3 18.8,46.2 19.3,46.3 C19.4,46.3 19.7,46.5 19.8,46.4 C20.2,46.1 19.7,45.5 19.9,45.1 C20,44.8 20.2,44.6 20.5,44.5 C20.7,44.4 20.9,44.5 21.1,44.5 C21.5,44.5 22,45 22.2,44.7 C22.4,44.4 22.1,43.9 22.6,43.5 C23.1,43.2 23.8,43.3 24.3,43.6 C24.8,43.6 25.3,43.3 25.9,43.2 C26,43.2 26.2,43.1 26.3,43 C26.2,42.7 25.6,42.5 25.3,42.3 C23.3,41.2 21,40 19.4,38.1 C19.2,38.1 18.8,38.7 18.3,38.7 C17.9,38.7 17.6,38.5 17.4,38.2 C17.3,37.9 17.6,37.4 17.3,37.4 C17.1,37.4 16.7,37.9 16.1,37.6 C15.5,37.3 15.1,36.7 15.1,36.2 C15.1,35.7 15.6,35.2 15.1,34.7 C14.1,33.7 13.1,32.7 12.2,31.6 C11.8,31.5 11.6,31.3 11.2,31.2 C10.4,31.1 9.7,31.6 8.9,31.9 C8.4,32.1 7.9,32.4 7.3,32.6 C7,33 6.9,33.5 6.4,33.7 C6.1,33.8 5.8,33.9 5.6,33.6 C5.6,33.5 5.7,33.4 5.7,33.3 C5.7,33.2 5.5,33 5.4,33.2 C5.1,33.4 4.8,33.7 4.7,34 C4.9,34.4 5.4,34.7 5.4,35.3 C5.4,35.8 5.5,36.5 5,36.8 C3.7,37.4 2.3,37.8 0.8,37.9 C0.7,37.6 0.9,37.6 1,37.5 C0.8,37.3 0.3,37.5 0.1,37.3 C0.3,37 0.6,36.6 0.8,36.3 C1.2,35.7 1.3,34.1 2.6,33.9 C2.8,33.8 2.9,33.8 3,33.6 C3.5,33.1 3.3,32.5 3.8,32.1 C4.1,31.7 4.6,31.7 5,31.6 C5.7,31.6 6.3,31.3 7,31.1 C7.3,31 7.5,30.9 7.8,30.8 C9,30.3 10.1,29.6 11.4,29.3 C12,29.3 12.3,29.4 12.9,29.6 C13.8,30.3 16.5,32.7 16.5,32.7 C17,32.7 16.7,32 16.9,31.7 C17.2,31.3 17.6,31.2 17.9,31 C18,30.9 17.9,30.8 17.9,30.7 C17.6,30.5 17.7,30 17.7,29.6 C17.8,29.2 18,29 18.4,28.7 C18.5,28.6 18.7,28.6 18.8,28.5 C18.7,28.2 18.5,27.9 18.6,27.6 C18.8,27.1 19.2,26.8 19.7,26.6 C19.9,26.5 20.2,26.6 20.5,26.7 C20.7,26.8 20.9,27 21,26.8 C21,26.2 21,25.5 21.5,25.2 C21.8,25 22,24.9 22.3,25 C22.7,25.1 23,25.5 23.3,25.4 C23.7,25.3 23.5,24.4 24.3,24.2 C24.5,24.2 24.6,24.2 24.6,24.2 C25.3,24.2 25.4,25 25.8,24.6 C25.9,24.3 25.6,24.1 25.8,23.9 C26.1,23.4 26.8,23.4 27.2,23.5 C27.4,23.6 27.6,23.8 27.7,23.8 C27.9,23.8 27.8,23.3 28.1,23.3 C28.6,23.2 29.2,23.3 29.7,23.2 C30.2,23.2 30.6,23.1 31.1,22.9 C31.7,22.7 32.1,22.6 32.7,22.5 C33.2,22.1 33.3,23.1 33.7,23.8 Z M1.4,35 C1.3,35.2 1.2,35.3 1.1,35.6 C1,35.8 0.9,36.1 0.7,36.3 L0.8,36.4 C1.4,36.4 1.6,35.8 1.9,35.4 C2,35.1 2.4,34.6 2.5,34.2 C1.9,33.8 1.6,34.6 1.4,35 Z M3.1,34.2 L2.1,35.9 C2,36.2 1.7,36.4 1.6,36.7 C1.7,36.7 2,36.7 2.1,36.7 C2.7,36.6 3.2,36.4 3.7,36.2 C4,36 4.3,36 4.5,35.7 C4.6,35.4 4.6,35 4.5,34.7 C4.5,34.5 4.4,34.5 4.2,34.3 C4,33.9 3.5,34 3.1,34.2 Z M26.5,42.7 C27.2,43.3 28.1,44 28.6,44.8 C29,45.2 29.2,45.7 29.4,46.3 C29.7,47.1 29.4,47.9 29,48.6 C28.8,49 28.4,49.7 28.3,50.3 C28.1,51.3 28.3,52.5 29,53.1 C29.3,53.5 29.9,53.4 30.4,53.4 C31.2,53.2 31.7,52.5 31.9,51.7 C31.5,51.7 31.2,51.4 31,51.1 C30.8,50.6 31.1,50.2 31.4,49.8 C31.5,49.5 31.1,49.6 30.9,49.5 C30.5,49.3 30.3,48.9 30.3,48.5 C30.3,48 30.9,47.8 30.8,47.3 C30.3,46.5 30.1,45.5 29.4,44.8 C28.6,43.8 27.6,43 26.5,42.7 Z M29.1,47.1 C28.4,47.7 27.7,48.4 27.2,49.2 C26.6,50.1 26.3,51.6 26.9,52.6 C27.3,53 27.7,53.3 28.3,53.3 C28.3,53.1 28.1,52.9 28,52.7 C27.2,50.9 28,49 29.1,47.6 C29.2,47.4 29.2,47.2 29.1,47.1 Z M10.6,63.4 C10.1,63.9 9,65.3 9,65.3 L10,65.3 L10.9,64.2 C11.1,63.9 11.4,63.7 11.5,63.4 C11.2,63.3 10.9,63.3 10.6,63.4 Z M11.9,63.6 C11.3,64.5 10.5,65.3 9.8,66.1 L9.7,66.2 C10.8,66.2 12,66.1 12.9,65.7 C13.2,65.2 13.2,64.6 13.2,64 C13.1,63.5 12.4,63.6 11.9,63.6 Z M45.9,63.5 C45.7,64.2 45.5,64.9 45.3,65.6 C45.8,65.8 45.9,65.4 46.2,65.3 C46.5,64.6 46.7,63.9 46.8,63.2 C46.6,62.8 46.1,63.1 45.9,63.5 Z M49.3,63.2 C49.1,63 49,63.1 48.7,63.1 C48.5,63.2 47.7,62.9 47.4,63.4 C47.1,64.2 46.9,64.9 46.8,65.8 C47.1,65.8 47.4,65.6 47.7,65.5 C48.4,65.1 49,64.9 49.3,64.2 C49.4,63.9 49.4,63.5 49.3,63.2 Z" id="Shape"></path>
                <path d="M27.5,0.3 C28.1,0.5 28.6,0.9 29,1.4 C29.3,1.6 29.5,1.2 29.7,1 C30.1,0.8 30.6,0.7 31,0.8 C31.1,0.8 31.6,1 31.8,1.2 C32.2,1.6 32.9,2.2 32.9,3 C33.1,3.2 33.4,3 33.6,3.1 C34,3.2 34.5,3.3 34.8,3.7 C34.9,3.9 35,4 35.1,4.2 C35.4,4.8 34.7,5.4 35.5,5.5 C36.2,5.8 36.7,6.5 36.9,7.1 C36.9,7.3 37,7.6 37,7.7 C37,8.3 36.8,8.9 36.4,9.4 C36.4,9.8 36.8,9.9 37,10.1 C37.5,10.5 37.7,11.2 37.8,11.7 L37.8,12.9 C38,13 38.1,12.9 38.5,12.8 C38.9,12.7 39.8,12.7 40.2,13 C40.5,13.1 40.7,13.6 41.1,13.4 C41.5,12.9 41.8,12.2 42.5,12.1 C42.8,12 43.1,12.1 43.4,12.1 C44,12.2 44.3,12.9 44.7,13.3 C44.9,13.4 45.1,13.2 45.3,13.1 C45.9,12.9 46.6,13 47.1,13.4 C47.6,14 47.7,14.7 47.9,15.5 C48,15.9 48.7,15.6 49.2,15.7 C49.7,15.9 50,16.2 50.3,16.6 C50.7,17.1 50.7,17.8 50.6,18.4 C50.6,18.7 50.3,18.9 50.3,19.2 C50.6,19.5 51.1,19.6 51.3,20 C51.7,20.9 51.5,21.9 50.9,22.6 C50.7,22.8 50.5,22.9 50.6,23.2 C50.8,23.6 50.8,24.3 50.5,24.7 C50.3,25 49.9,24.9 49.8,25.3 C49.8,25.5 50,25.7 50,25.9 C50,26.1 50.1,26.3 49.9,26.6 C49.6,27.3 48.9,27.9 48.1,27.9 C47.7,28 47.1,27.5 46.9,28 C46.9,28.3 46.7,28.5 46.5,28.7 C46.2,29 45.7,29.1 45.2,29 C44.7,28.9 44.5,28.2 44.1,28.5 C43.6,29.1 42.8,29.3 42,29.1 C41.5,28.9 41,28.4 41,27.8 C40.7,27.5 40.4,27.6 40.1,27.3 C39.2,26.6 40.4,25.8 39.2,25.1 C38.8,24.9 38.9,23.8 39.2,23.4 C39.5,22.8 40.6,23.5 40.6,22.4 C40.7,22.1 40.9,21.9 41.3,21.8 C41.5,21.7 41.8,21.7 42,21.6 C42.2,21.6 42.4,21.6 42.7,21.7 C43.3,22 43.9,22.5 43.9,23.2 C43.9,23.4 43.9,23.5 43.8,23.6 C43.5,23.5 43.4,23.5 43.1,23.6 C42.9,23.8 42.7,24 42.7,24.3 C42.7,24.7 43.2,24.8 43.4,25 C44.3,25.1 45.2,24.5 45.7,23.8 C46.3,23 46.2,22 45.9,21.1 C45.6,20.3 44.9,19.8 44.2,19.3 C43,18.7 41.7,18.7 40.3,18.9 C40.1,19 39.9,19 39.9,19.2 C40,19.5 40.2,19.7 40.4,20.1 C40.6,20.6 40.8,21.1 40.7,21.7 C40.5,21.7 40.4,21.5 40.2,21.4 C39.8,21.2 38.6,20.7 37.8,21.2 C37.5,21.5 37.5,21.8 37.1,22.1 C36.9,22.4 36.4,22 36,21.8 C35.4,21.5 34.7,21.3 34.1,21 C34,21.2 34.2,21.3 34.4,21.5 C34.7,21.7 34.7,21.7 34.9,21.7 C35.1,21.8 35.4,21.9 35.7,22 C37.4,22.7 37.7,24.1 37.9,25.6 C37.9,26.1 38,26.6 37.7,27 C37.4,27 37.4,26.6 37.1,26.4 C36.9,26.2 36.9,26.2 36.8,26 C36.5,25.6 36,25.5 35.6,25.2 C34.4,24.4 33.8,23 33.4,22 C33.1,21.4 32.4,21.6 32,21.7 C31.9,21.7 31.6,21.8 31.3,21.9 C30.6,22.1 29.4,22.4 29,22.4 C28.4,22.3 27.3,22.2 26.5,21.9 C25.5,22.1 24.7,22.6 23.7,22.9 C23,23 22.4,22.3 22.2,21.8 C22.3,21.7 22.4,21.7 22.4,21.7 C23.4,21.7 24.3,21.3 25.3,21 C25.5,20.9 25.9,20.9 25.8,20.6 C25.6,20.4 25.1,20.7 24.8,20.7 C24.2,20.8 23.7,21 23.1,21.2 C21.7,21.5 20,22 18.8,21 C18.3,20.5 17.9,19.7 18.3,19 C18.6,18.5 19.2,18.2 19.8,18.2 C20,18.2 20.1,18.2 20.2,18.3 C20.1,18.6 19.9,19 20.1,19.3 C20.8,20.3 22.1,19.8 23.1,19.8 C23.4,19.8 23.4,19.8 23.6,19.7 L25.1,19.4 C25.1,19.4 25.3,19.3 25.2,19.2 C25.2,19.1 25,19 25,19 C23.7,19.1 22.4,19.6 21,19.4 C20.8,19.3 20.8,19.2 20.8,19 C20.9,18.5 21.4,18.2 21.6,17.7 C21.9,17 22.8,17.3 23.4,17.2 C23.6,17.2 23.8,17.2 24,17.1 C24.9,17 25.7,16.1 26.3,15.8 C26.5,15.7 26.4,15.5 26.5,15.4 C26.7,15.1 27,14.8 27.5,14.7 C27.7,14.6 28.1,14.5 28.2,14.5 C28.8,14.3 29.7,14.3 29.7,13.4 C30,12.3 30,11 29.6,9.9 C29.9,10 30.2,10.2 30.5,10.4 L30.7,10.3 C30.7,8.6 30.1,7.2 29.1,6 C28.8,5.8 28.5,5.5 28.2,5.4 C27.7,5.1 27.3,5.1 26.6,5 C25.4,5 24.3,5.4 23.7,6.5 C23.3,7.2 23.3,8.1 23.7,8.9 C23.9,9.2 24.3,9.4 24.7,9.5 C25,9.5 25.2,9.4 25.4,9.2 C25.5,9.1 25.5,9 25.5,8.8 C25.4,8.5 25.2,8.2 24.9,8.1 L24.5,8 C24.5,7.4 24.8,7 25.3,6.7 C25.7,6.5 26.2,6.4 26.7,6.7 C27.2,7 27.5,7.4 27.7,7.9 C27.8,8.1 27.7,8.5 27.5,8.5 C27.7,8.6 27.8,8.8 28,9 C28.2,9.3 28.4,9.7 28.2,10.2 C28.1,10.5 28,10.9 27.6,11.1 C27.4,11.3 26.9,11.1 26.9,11.5 C27,11.8 26.7,12.1 26.6,12.2 C26.1,12.5 25.5,12.7 24.9,12.4 C24.7,12.3 24.6,12.1 24.4,12.2 C24.1,12.5 23.7,12.7 23.2,12.6 C22.5,12.3 22.2,11.7 22.1,11 C21.6,10.6 21,11.1 20.5,10.7 C20,10.3 19.8,9.8 19.8,9.2 C19.9,8.8 20,8.5 20.1,8.1 C19.9,7.8 19.6,7.5 19.4,7.2 C19,6.5 19.3,5.7 19.8,5.2 C20,4.9 20.8,4.7 20.5,4.4 C20.2,4.2 20.4,3.8 20.5,3.6 C20.7,3.3 21,2.9 21.4,2.9 C21.6,3 21.9,2.8 21.9,2.6 C21.9,2.3 21.7,2 21.9,1.7 C22.2,1.3 23,1 23.2,0.9 C23.4,0.9 23.5,0.9 23.7,0.9 C24.1,1 24.3,1.3 24.7,1.5 C24.9,0.8 25.6,0.2 26.3,1.77635684e-15 C27,0.3 27.2,0.3 27.5,0.3 Z M26.6,1.1 C26.1,1.2 25.9,1.8 25.8,2.2 C25.7,2.5 25.4,2.7 25.1,2.7 C24.9,2.7 24.8,2.6 24.6,2.5 C24.2,2.3 24.1,1.8 23.5,1.9 C23.2,1.9 23,2.2 22.9,2.4 C22.8,2.7 23,3.1 22.9,3.3 C22.7,4 21.8,3.5 21.5,4.2 C21.4,4.3 21.4,4.6 21.6,4.7 C22.1,5.7 20.6,5.5 20.3,6.3 C20.2,6.6 20.1,7 20.3,7.3 C20.4,7.5 20.7,7.7 20.9,7.8 C21.7,8.4 20.5,9.2 20.7,10.1 C20.8,10.3 20.9,10.5 21.2,10.6 C21.5,10.8 21.8,10.5 22.1,10.5 C22.4,10.5 22.6,10.7 22.7,10.9 C22.7,11.5 23.1,12 23.5,12.3 C23.6,12.4 23.8,12.4 24,12.3 C24.2,12.1 24.3,11.9 24.3,11.7 C24.7,11.3 25,12.1 25.3,12.3 C25.6,12.4 26,12.3 26.2,12 C26.3,11.8 26.3,11.6 26.3,11.3 C26.4,10.9 27,11 27.3,10.9 C27.6,10.8 27.6,10.5 27.6,10.3 C27.6,9.8 27.2,9.7 26.9,9.4 C26.9,9.2 26.9,9.1 27,9 C27.1,8.7 26.9,8.4 26.8,8.1 C26.6,7.8 26.2,7.7 25.8,7.7 C25.8,7.7 25.2,7.8 25.3,8.2 C25.8,8.3 26,8.9 26,9.3 C25.9,9.7 25.7,10 25.3,10.2 C24.8,10.3 24.3,10.3 23.9,10.1 C23.2,9.7 23.2,9.3 23,8.7 C23,8.6 23,8.1 23,7.9 C23.2,7 23.5,6.3 24.2,5.6 C25.6,4.6 27.8,4.6 29.2,5.6 C29.7,5.9 30.1,6.3 30.5,6.8 C30.5,6.8 31,7.6 31.2,8 C31.3,8.2 31.3,8.3 31.4,8.5 C31.5,8.7 31.5,8.9 31.6,9.1 C31.7,9.5 31.7,9.7 31.8,10.3 C31.8,10.8 31.8,11 31.8,11.5 C31.5,11.8 31.9,12.1 32,12.4 C32.1,12.4 32.2,12.4 32.2,12.3 C32.3,12.1 32.4,11.8 32.4,11.7 C32.4,11.4 32.4,11.1 32.4,10.8 C32.4,10.2 32.4,9.6 32.2,9 C32,8.3 31.9,8 31.9,8 C31.9,7.9 31.7,7.6 31.7,7.5 C31.5,7.2 31.4,7 31.4,7 C31.3,6.8 31.2,6.7 31.1,6.6 C30.7,6.2 30.3,5.8 29.9,5.5 C29.3,5.1 28.9,5 28.4,4.8 C27.7,4.6 27,4.5 27,4.5 C26,4.4 25,4.6 24.3,5.2 C23.1,6.1 22.5,7.5 22.6,8.9 L22.6,8.9 C22.6,8.8 22.5,8.7 22.5,8.6 C22.5,7.1 23.1,5.5 24.6,4.7 C24.8,4.5 25.1,4.4 25.3,4.3 C25.8,4.2 26.2,4.1 26.6,4.1 C27.2,4 27.7,4.1 28.3,4.2 C28.6,4.3 28.8,4.3 28.9,4.4 C29.3,4.6 29.1,4.4 29.6,4.7 C30,4.9 30.3,5.1 30.5,5.3 C31,5.7 31.6,6.3 32,6.9 C32.1,7.1 32.3,7.4 32.5,7.7 C32.6,8 32.7,8.1 32.7,8.3 C32.8,8.5 32.8,8.7 32.9,9 C32.9,9.1 33,9.7 33.1,10.1 C33.1,10.6 33.1,11.6 33,12.4 C33.1,12.4 33.2,12.5 33.3,12.5 C33.7,12.6 33.9,13.2 33.9,13.7 C34.4,13.8 34.9,14.2 35.2,14.7 C35.6,14.3 36.1,14 36.5,13.6 C36.8,13.2 36.8,12.6 36.8,12.1 C36.7,11.4 36.4,10.8 35.8,10.4 C35.6,10.3 35.4,10.4 35.2,10.2 C35.1,10 35.1,9.7 35.2,9.4 C35.3,9.3 35.4,9.2 35.5,9.2 C35.7,9.1 35.8,9 36,8.8 C36.2,8.4 36.3,7.6 36,7.2 C35.8,6.9 35.7,6.9 35.5,6.7 C35.3,6.5 34.8,6.3 34.4,6.4 C34.1,6.3 34,6.1 34,5.8 C34,5.5 34.3,5.4 34.3,5.1 C34.2,4.7 34.1,4.2 33.6,4.1 C33.3,4 32.9,4.1 32.6,4.3 C32.4,4.4 32.2,4.3 32,4.1 C31.8,3.9 31.9,3.6 31.9,3.4 C32,3 31.8,2.7 31.6,2.4 C31.3,2 30.9,1.7 30.4,1.8 C29.9,1.8 29.4,2.2 29.1,2.6 C28.9,2.8 28.5,2.7 28.3,2.4 C28.2,1.7 27.6,0.8 26.6,1.1 Z M30.7,11.7 L30.7,11.9 C30.7,12.5 30.7,13.2 30.6,13.8 C30.8,14 31,14.1 31.2,14.2 C31.4,14.4 31.6,14.5 31.9,14.6 C32.2,14 32,13.2 31.8,12.7 C31.5,12.3 31.2,11.9 30.7,11.7 Z M42.5,13.3 C41.8,13.6 41.8,14.5 41.2,14.9 C40.4,15.4 40.4,14.3 39.8,14.1 C38.5,13.6 37,14.4 36.1,15.2 C36.4,15.3 36.7,15.7 36.6,16.2 C37,16.4 37.4,16.7 37.8,17.4 C38,17.8 38.9,17.2 39.5,17.1 C40,17 40.3,17 40.8,16.9 C41.9,16.8 43,17.1 44,17.4 C44.6,17.6 45.1,18 45.7,18.3 C46.1,18.7 46.8,19 47.1,19.6 C47.2,19.8 47.3,19.9 47.4,20.1 C47.9,21.2 48.1,22.5 47.8,23.7 C47.4,25.5 45.3,26.7 44,26.7 C43.6,26.7 43.1,26.6 42.7,26.4 C42.7,26.3 42.7,26.3 42.7,26.3 C44,26.6 45.2,26.1 46.1,25.4 C47.1,24.5 47.6,23.3 47.5,22 L47.2,20.8 C46.7,19.1 44.8,18.2 43.3,17.7 C41.9,17.3 40.2,17.4 38.9,17.7 C38.8,17.8 38.5,17.8 38.5,18 C38.7,18.2 38.7,18.5 39,18.5 C39.3,18.4 39.2,18.4 39.5,18.3 C39.9,18.2 40.2,18.2 40.5,18.1 C40.8,18.1 41.1,18 41.4,18.1 C41.7,18.1 42,18.1 42.3,18.2 C43,18.3 43.6,18.5 44.2,18.7 C44.7,18.9 45.3,19.4 45.8,19.8 C46.9,20.9 47.2,22.7 46.5,24.1 C45.9,25.4 44.6,25.8 43.3,26 L42.5,25.8 C42.1,25.5 41.8,25.1 41.7,24.7 C41.6,24.2 41.9,23.7 42.3,23.5 C42.6,23.5 42.7,23.4 42.8,23.3 C42.8,23 42.5,22.7 42.2,22.5 C41.7,22.4 41.3,22.5 41,22.8 C40.8,23 40.9,23.4 40.9,23.6 C40.7,24.1 40.2,23.8 39.7,23.9 C39.3,24 39.2,24.4 39.3,24.8 C39.5,25.4 40.4,25.1 40.5,25.7 C40.5,25.9 40.2,26 40.1,26.1 C40,26.3 40,26.8 40.2,27 C40.6,27.4 41.1,26.7 41.5,27.1 C41.6,27.3 41.6,27.5 41.4,27.8 C41.4,28.1 41.6,28.2 41.8,28.4 C42,28.6 42.5,28.5 42.8,28.4 C43.2,28.3 43.3,28 43.5,27.6 C44,27.4 44.4,28.1 44.9,28.3 C45.2,28.4 45.5,28.2 45.8,28.1 C46.1,27.8 46,27.4 46,27.1 C46.6,26.5 47.2,27.3 47.9,27.1 C48.1,27 48.4,26.9 48.5,26.6 C48.6,26.1 48.5,25.6 48.2,25.3 C47.9,24.6 48.9,24.7 49.2,24.3 C49.3,24 49.2,23.7 49.1,23.4 C49,23.1 49,22.8 49.2,22.6 C49.8,22.2 50.2,21.7 50,20.8 C49.8,20.2 49.1,20.3 48.8,19.9 C48.3,19.3 49.1,18.8 49.2,18.2 C49.2,17.6 48.9,17.2 48.5,16.9 C47.9,16.3 46.9,17.2 46.5,16.5 C46.3,15.9 46.6,15 46.2,14.5 C45.9,14.1 45.5,14.1 45,14.1 C44.7,14.2 44.5,14.6 44.2,14.8 C43.2,15.1 43.6,13.7 43,13.3 C43.1,13.2 42.8,13.2 42.5,13.3 Z M30.4,14.4 C30.3,14.6 30.2,14.8 30.2,15 C31.3,15.9 32.5,16.7 33.5,17.7 C34.6,19 35.6,20.3 36.5,21.7 L36.6,21.7 C36.7,21.5 37,21.3 36.8,21 C36.3,20.3 35.5,19.1 35,18.4 C34.1,17.2 33.2,16.3 32.1,15.4 C31.6,15.1 31,14.6 30.4,14.4 Z M33.7,14.4 C33.2,14.2 32.6,14.4 32.3,14.8 C32.1,15 32.3,15 32.7,15.4 C33,15.6 33.4,16.1 33.7,16.3 C33.9,16.5 34.2,16.7 34.4,16.9 C34.8,16.4 35,15.7 34.7,15.1 C34.4,14.8 34.2,14.5 33.7,14.4 Z M27.8,16 C27.6,16.2 27.7,16.6 27.6,16.8 C27.6,16.9 27.7,16.8 27.7,16.8 C28,16.4 28.4,16.3 28.8,16.2 C29.2,16.2 29.5,16.5 29.8,16.8 C30,17.1 30.2,17.5 30.6,17.6 C30.6,17.2 30.4,16.9 30.2,16.6 C29.7,15.9 28.7,15.6 27.8,16 Z M28.1,17.2 C28.2,17.5 28.5,17.6 28.8,17.7 C29.1,17.6 29.5,17.6 29.7,17.3 C29.7,17.2 29.7,17.1 29.6,17.1 C29.5,17.1 29.4,17.1 29.4,17.2 C29.2,17.4 28.7,17.4 28.6,17.1 C28.4,16.9 28.7,16.7 28.6,16.5 C28.3,16.5 28,16.9 28.1,17.2 Z M35.3,16.9 C35.1,17 34.6,17.2 34.6,17.3 C34.9,17.6 35.3,18.1 35.5,18.4 C35.7,18.7 36,19.1 36.2,19.4 C36.7,18.9 37.1,18.1 36.9,17.4 C36.6,16.8 35.6,16.8 35.3,16.9 Z M19.8,18.9 C19.5,19 19.1,19.2 18.9,19.5 C18.7,19.9 18.9,20.4 19.2,20.7 C19.4,21 19.8,21.1 20.1,21.2 C20.4,21.3 20.5,21.3 20.8,21.3 C21.4,21.3 21.7,21.2 22.3,21.2 C22.8,21.1 23.2,21.1 23.7,21 C24.4,20.8 25.1,20.7 25.7,20.4 C25.8,20.3 25.7,20.1 25.6,20.1 L24.1,20.4 C23.6,20.5 23,20.6 22.4,20.6 C21.5,20.6 20.4,20.7 19.9,19.7 C19.7,19.3 19.8,19.1 19.8,18.9 Z M36.5,19.7 C36.7,20.1 37.1,20.5 37.3,20.9 C38.1,20.4 39.3,20.7 40.1,21 L40,20.7 C39.6,19.8 38.7,19.5 37.9,19.4 C37.5,19.4 36.9,19.5 36.5,19.7 Z M36,22.8 L36.3,23.2 C36.8,24.1 37.2,24.8 37.5,26.2 C37.6,26.3 37.6,26.4 37.7,26.4 L37.7,26.1 C37.6,25.1 37.4,24.5 37,23.7 C36.6,23.2 36.3,22.9 36,22.8 Z M32.9,12.9 C32.6,12.9 32.4,13.1 32.4,13.4 C32.4,13.7 32.6,13.9 32.9,13.9 C33.2,13.9 33.4,13.7 33.4,13.4 C33.4,13.1 33.1,12.8 32.9,12.9 Z M35.6,15.5 C35.3,15.5 35.1,15.7 35.1,16 C35.1,16.3 35.3,16.5 35.6,16.5 C35.9,16.5 36.1,16.3 36.1,16 C36.1,15.7 35.9,15.5 35.6,15.5 Z M37.7,18.1 C37.4,18.1 37.2,18.3 37.2,18.6 C37.2,18.9 37.4,19.1 37.7,19.1 C38,19.1 38.2,18.9 38.2,18.6 C38.3,18.3 38,18.1 37.7,18.1 Z M21.9,19 C21.7,19.1 21.5,19.1 21.5,19.2 C21.5,19.3 21.6,19.4 21.8,19.4 C22.4,19.4 22.7,18.9 22.8,18.6 C22.9,18.3 22.7,18.1 22.7,18.1 C22.6,18.1 22.6,18.1 22.5,18.2 C22.3,18.7 22.2,18.9 21.9,19 Z" id="Shape"></path>
            </g>
        </g>
    </g>
</svg>