<?xml version="1.0" encoding="utf-8"?>
<!-- Generator: Adobe Illustrator 16.0.0, SVG Export Plug-In . SVG Version: 6.00 Build 0)  -->
<!DOCTYPE svg PUBLIC "-//W3C//DTD SVG 1.1//EN" "http://www.w3.org/Graphics/SVG/1.1/DTD/svg11.dtd" [
	<!ENTITY ns_flows "http://ns.adobe.com/Flows/1.0/">
	<!ENTITY ns_extend "http://ns.adobe.com/Extensibility/1.0/">
	<!ENTITY ns_ai "http://ns.adobe.com/AdobeIllustrator/10.0/">
	<!ENTITY ns_graphs "http://ns.adobe.com/Graphs/1.0/">
	<!ENTITY ns_vars "http://ns.adobe.com/Variables/1.0/">
	<!ENTITY ns_imrep "http://ns.adobe.com/ImageReplacement/1.0/">
	<!ENTITY ns_sfw "http://ns.adobe.com/SaveForWeb/1.0/">
	<!ENTITY ns_custom "http://ns.adobe.com/GenericCustomNamespace/1.0/">
	<!ENTITY ns_adobe_xpath "http://ns.adobe.com/XPath/1.0/">
]>
<svg version="1.1" id="Ebene_1" xmlns:x="&ns_extend;" xmlns:i="&ns_ai;" xmlns:graph="&ns_graphs;"
	 xmlns="http://www.w3.org/2000/svg" xmlns:xlink="http://www.w3.org/1999/xlink" xmlns:a="http://ns.adobe.com/AdobeSVGViewerExtensions/3.0/"
	 x="0px" y="0px" width="294.3530273px" height="100.7797852px" viewBox="0 0 294.3530273 100.7797852"
	 style="enable-background:new 0 0 294.3530273 100.7797852;" xml:space="preserve">
<metadata>
	<sfw  xmlns="&ns_sfw;">
		<slices></slices>
		<sliceSourceBounds  x="66.0268555" y="-121.140625" width="294.3530273" height="100.7797852" bottomLeftOrigin="true">
			</sliceSourceBounds>
	</sfw>
</metadata>
<g>
	<polygon style="fill:#C10B25;" points="265.6186523,59.8588867 294.3530273,59.8588867 294.3530273,88.5913086 
		265.6186523,88.5913086 265.6186523,59.8588867 	"/>
	<path style="fill:#C10B25;" d="M279.9858398,74.2250977"/>
</g>
<polygon style="fill:#FFFFFF;" points="276.7299805,63.3334961 283.1713867,63.3334961 283.1713867,71.0073242 
	290.8452148,71.0073242 290.8452148,77.449707 283.1713867,77.449707 283.1713867,85.1235352 276.7299805,85.1235352 
	276.7299805,77.449707 269.0541992,77.449707 269.0541992,71.0073242 276.7299805,71.0073242 "/>
<g>
	<path style="fill-rule:evenodd;clip-rule:evenodd;fill:#C10B25;" d="M19.480957,32.8354492
		c0-2.7744141-0.8852539-4.9584961-3.8369141-6.4936523l-5.7851562-3.0107422
		c-2.6572266-1.4165039-3.6606445-2.184082-3.6606445-3.9550781c0-2.184082,1.4760742-3.4833984,4.1328125-3.4833984
		c0.9438477,0,1.652832,0.1777344,3.128418,0.5913086v3.0698242c0,0.5898438,0.1772461,0.7661133,0.7089844,0.7661133h3.2460938
		c0.5317383,0,0.7675781-0.1762695,0.7675781-0.7661133v-5.6679688c0-0.4130859-0.2358398-0.7080078-0.7080078-1.003418
		c-1.5942383-1.003418-4.4272461-1.7124023-7.1430664-1.7124023c-5.7260742,0-9.7993164,3.7192383-9.7993164,8.9140625
		c0,2.1845703,0.8251953,4.0737305,2.3017578,5.4902344c1.3579102,1.2993164,2.5385742,1.8891602,6.7299805,3.659668
		c3.3642578,1.4169922,4.1914062,2.2441406,4.1914062,4.0737305c0,2.3022461-1.6533203,3.6606445-4.1914062,3.6606445
		c-1.4765625,0-2.5385742-0.2368164-4.7822266-0.9448242v-3.246582c0-0.7089844-0.1181641-0.8852539-0.7080078-0.8852539h-3.246582
		C0.2358398,31.8916016,0,32.1274414,0,32.6582031v5.9628906c0,0.472168,0.1181641,0.6494141,0.5898438,0.8857422
		c2.5385742,1.2978516,6.3173828,2.2426758,9.2094727,2.2426758C15.644043,41.7495117,19.480957,38.2080078,19.480957,32.8354492z"
		/>
	<path style="fill-rule:evenodd;clip-rule:evenodd;fill:#C10B25;" d="M62.8632812,15.9521484v-3.0698242
		c0-0.590332-0.2949219-0.7670898-0.8266602-0.7670898H51.8833008c-0.5317383,0-0.7080078,0.1767578-0.7080078,0.7670898v3.0698242
		c0,0.590332,0.1762695,0.7675781,0.7080078,0.7675781h2.5380859l-2.9516602,12.6918945
		c-0.4135742,1.7124023-0.7675781,4.6044922-0.9443359,5.6083984c-0.1772461-1.534668-0.4726562-3.777832-0.8852539-5.6674805
		l-3.6606445-16.5297852c-0.1767578-0.7075195-0.2949219-0.7670898-0.8261719-0.7670898h-3.9550781
		c-0.7080078,0-0.7080078,0.0595703-0.8857422,0.7089844l-4.1328125,16.1157227
		c-0.5302734,2.0068359-0.7080078,4.1914062-1.003418,6.2573242c-0.2944336-2.065918-0.5317383-4.2504883-0.9438477-6.315918
		l-2.5385742-12.1020508h2.4204102c0.5302734,0,0.7675781-0.1772461,0.7675781-0.7675781v-3.0698242
		c0-0.590332-0.2373047-0.7670898-0.7675781-0.7670898H23.9013672c-0.5317383,0-0.7094727,0.2358398-0.7094727,0.7670898v3.0698242
		c0,0.590332,0.1777344,0.7675781,0.7094727,0.7675781h2.065918l6.0805664,23.8491211
		c0.1767578,0.7089844,0.1767578,0.7089844,0.7080078,0.7089844h3.7788086c0.6484375,0,0.6484375,0.1176758,0.8852539-0.6499023
		L41.90625,24.1577148c0.4130859-1.59375,0.6494141-3.1879883,1.003418-5.6669922
		c0.2368164,1.8886719,0.4726562,4.0732422,0.8266602,5.6669922l3.6601562,16.4111328
		c0.1767578,0.7089844,0.2954102,0.7089844,0.8847656,0.7089844h3.7788086c0.590332,0,0.590332,0.0581055,0.8261719-0.6499023
		l6.9658203-23.9082031h2.1845703C62.5683594,16.7197266,62.8632812,16.5424805,62.8632812,15.9521484z"/>
	<path style="fill-rule:evenodd;clip-rule:evenodd;fill:#C10B25;" d="M82.8081055,40.15625v-3.1293945
		c0-0.5317383-0.1777344-0.7080078-0.7089844-0.7080078h-4.0737305V13c0-0.8256836-0.1176758-0.8847656-0.8852539-0.8847656
		h-9.2099609c-0.7670898,0-0.8852539,0.059082-0.8852539,0.8847656v2.8344727c0,0.8256836,0.0595703,0.8852539,0.8266602,0.8852539
		h4.1914062v19.5991211h-4.1328125c-0.5307617,0-0.7075195,0.1762695-0.7075195,0.7080078V40.15625
		c0,0.5302734,0.1767578,0.7080078,0.7075195,0.7080078h14.1689453
		C82.6303711,40.8642578,82.8081055,40.6865234,82.8081055,40.15625z"/>
	<path style="fill-rule:evenodd;clip-rule:evenodd;fill:#C10B25;" d="M79.0288086,4.2509766
		C79.0288086,1.9482422,77.1401367,0,74.8374023,0c-2.3608398,0-4.2495117,1.8886719-4.2495117,4.2509766
		c0,2.3022461,1.8886719,4.190918,4.2495117,4.190918C77.1401367,8.4418945,79.0288086,6.5532227,79.0288086,4.2509766z"/>
	<path style="fill-rule:evenodd;clip-rule:evenodd;fill:#C10B25;" d="M106.8256836,32.8354492
		c0-2.7744141-0.8847656-4.9584961-3.8369141-6.4936523l-5.7841797-3.0107422
		c-2.6582031-1.4165039-3.6621094-2.184082-3.6621094-3.9550781c0-2.184082,1.4765625-3.4833984,4.1328125-3.4833984
		c0.9443359,0,1.6542969,0.1777344,3.1289062,0.5913086v3.0698242c0,0.5898438,0.1777344,0.7661133,0.7089844,0.7661133h3.2460938
		c0.53125,0,0.7675781-0.1762695,0.7675781-0.7661133v-5.6679688c0-0.4130859-0.2363281-0.7080078-0.7070312-1.003418
		c-1.5957031-1.003418-4.4277344-1.7124023-7.1445312-1.7124023c-5.7255859,0-9.7988281,3.7192383-9.7988281,8.9140625
		c0,2.1845703,0.8261719,4.0737305,2.3027344,5.4902344c1.3574219,1.2993164,2.5380859,1.8891602,6.7285156,3.659668
		c3.3652344,1.4169922,4.1914062,2.2441406,4.1914062,4.0737305c0,2.3022461-1.6523438,3.6606445-4.1914062,3.6606445
		c-1.4755859,0-2.5371094-0.2368164-4.78125-0.9448242v-3.246582c0-0.7089844-0.1191406-0.8852539-0.7089844-0.8852539h-3.2460938
		c-0.5908203,0-0.8261719,0.2358398-0.8261719,0.7666016v5.9628906c0,0.472168,0.1171875,0.6494141,0.5898438,0.8857422
		c2.5380859,1.2978516,6.3164062,2.2426758,9.2089844,2.2426758
		C102.9887695,41.7495117,106.8256836,38.2080078,106.8256836,32.8354492z"/>
	<path style="fill-rule:evenodd;clip-rule:evenodd;fill:#C10B25;" d="M132.0258789,32.8354492
		c0-2.7744141-0.8857422-4.9584961-3.8369141-6.4936523l-5.7851562-3.0107422
		c-2.6572266-1.4165039-3.6601562-2.184082-3.6601562-3.9550781c0-2.184082,1.4765625-3.4833984,4.1328125-3.4833984
		c0.9433594,0,1.6523438,0.1777344,3.1279297,0.5913086v3.0698242c0,0.5898438,0.1767578,0.7661133,0.7089844,0.7661133h3.2470703
		c0.53125,0,0.7675781-0.1762695,0.7675781-0.7661133v-5.6679688c0-0.4130859-0.2363281-0.7080078-0.7089844-1.003418
		c-1.59375-1.003418-4.4277344-1.7124023-7.1425781-1.7124023c-5.7265625,0-9.7998047,3.7192383-9.7998047,8.9140625
		c0,2.1845703,0.8251953,4.0737305,2.3017578,5.4902344c1.3574219,1.2993164,2.5390625,1.8891602,6.7304688,3.659668
		c3.3642578,1.4169922,4.1914062,2.2441406,4.1914062,4.0737305c0,2.3022461-1.6533203,3.6606445-4.1914062,3.6606445
		c-1.4765625,0-2.5390625-0.2368164-4.7832031-0.9448242v-3.246582c0-0.7089844-0.1171875-0.8852539-0.7070312-0.8852539h-3.2460938
		c-0.5917969,0-0.828125,0.2358398-0.828125,0.7666016v5.9628906c0,0.472168,0.1191406,0.6494141,0.5898438,0.8857422
		c2.5390625,1.2978516,6.3183594,2.2426758,9.2109375,2.2426758
		C128.1889648,41.7495117,132.0258789,38.2080078,132.0258789,32.8354492z"/>
</g>
<g>
	<path style="fill-rule:evenodd;clip-rule:evenodd;" d="M30.4916992,88.0463867v-3.1396484
		c0-0.5322266-0.2368164-0.7089844-0.7700195-0.7089844h-3.1977539v-16.109375c0-5.2705078-1.3022461-9.1210938-7.5795898-9.1210938
		c-3.2583008,0-5.8632812,1.1269531-8.5878906,3.7324219V48.6503906c0-0.5327148-0.1777344-0.7099609-0.7099609-0.7099609H0.9404297
		c-0.5927734,0-0.7109375,0.1772461-0.7109375,0.7099609v3.1391602c0,0.5332031,0.1181641,0.7109375,0.7109375,0.7109375H4.375
		v31.6972656H1.1772461c-0.5332031,0-0.7109375,0.1767578-0.7109375,0.7089844v3.1396484
		c0,0.5322266,0.1191406,0.7109375,0.7109375,0.7109375h12.4360352c0.5332031,0,0.7114258-0.1787109,0.7114258-0.7109375v-3.1396484
		c0-0.5322266-0.1782227-0.7089844-0.7114258-0.7089844h-3.2568359V67.0825195
		c2.6650391-2.3105469,4.3828125-3.1386719,6.4545898-3.1386719c2.7250977,0,3.6728516,1.3613281,3.6728516,5.0332031v18.9501953
		c0,0.7119141,0.1772461,0.8300781,0.8881836,0.8300781h8.3496094
		C30.2548828,88.7573242,30.4916992,88.5786133,30.4916992,88.0463867z"/>
	<path style="fill-rule:evenodd;clip-rule:evenodd;" d="M57.1806641,73.6557617
		c0-9.4755859-4.027832-14.6884766-11.3120117-14.6884766c-7.4619141,0-12.3178711,6.1601562-12.3178711,15.5175781
		c0,9.59375,4.737793,15.1601562,12.7919922,15.1601562c3.0795898,0,6.8696289-0.9472656,9.2382812-2.4277344
		c0.7109375-0.4150391,1.0063477-0.7695312,0.6508789-1.4804688l-1.3027344-2.9023438
		c-0.1767578-0.4736328-0.4736328-0.5322266-0.8286133-0.3554688c-1.8364258,0.8300781-3.730957,2.1328125-7.2246094,2.1328125
		c-4.5605469,0-6.9291992-3.0205078-7.1660156-8.765625h16.4638672
		C57.1806641,75.8461914,57.1806641,75.0180664,57.1806641,73.6557617z M50.8427734,71.2875977H39.828125
		c0.4150391-5.3300781,2.1914062-7.7587891,5.7446289-7.7587891C49.0664062,63.5288086,50.7246094,66.0161133,50.8427734,71.2875977
		z"/>
	<path style="fill-rule:evenodd;clip-rule:evenodd;" d="M76.2285156,87.7504883l-1.0664062-3.7304688
		c-0.1772461-0.5341797-0.4736328-0.3564453-0.8286133-0.2373047c-0.8295898,0.3544922-1.5996094,0.5322266-2.3095703,0.5322266
		c-1.9550781,0-2.0732422-1.5390625-2.0732422-4.2636719V48.6503906c0-0.5327148-0.1772461-0.7099609-0.7700195-0.7099609
		h-8.7050781c-0.5922852,0-0.7109375,0.1772461-0.7109375,0.7099609v3.1391602c0,0.5332031,0.1186523,0.7109375,0.7109375,0.7109375
		h3.4350586v26.9589844c0,5.2109375-0.0595703,10.0673828,6.8095703,10.0673828
		c1.7182617,0,3.6132812-0.2958984,5.0932617-0.9482422C76.4067383,88.3422852,76.4067383,88.2836914,76.2285156,87.7504883z"/>
	<path style="fill-rule:evenodd;clip-rule:evenodd;" d="M96.3618164,88.0463867v-3.1396484
		c0-0.5322266-0.1787109-0.7089844-0.7119141-0.7089844h-4.0859375V60.8041992c0-0.8291016-0.1181641-0.8876953-0.8886719-0.8876953
		h-9.2382812c-0.7695312,0-0.8886719,0.0585938-0.8886719,0.8876953v2.84375c0,0.8271484,0.0605469,0.8876953,0.8300781,0.8876953
		h4.2050781v19.6621094h-4.1464844c-0.5322266,0-0.7099609,0.1767578-0.7099609,0.7089844v3.1396484
		c0,0.5322266,0.1777344,0.7109375,0.7099609,0.7109375h14.2128906
		C96.1831055,88.7573242,96.3618164,88.5786133,96.3618164,88.0463867z"/>
	<path style="fill-rule:evenodd;clip-rule:evenodd;" d="M92.5717773,52.0258789c0-2.309082-1.8964844-4.2631836-4.2050781-4.2631836
		c-2.3691406,0-4.2636719,1.8945312-4.2636719,4.2631836c0,2.3105469,1.8945312,4.2050781,4.2636719,4.2050781
		C90.675293,56.230957,92.5717773,54.3364258,92.5717773,52.0258789z"/>
	<path style="fill-rule:evenodd;clip-rule:evenodd;" d="M120.3969727,86.3891602l-1.3027344-3.1992188
		c-0.1767578-0.4746094-0.4140625-0.4140625-0.8886719-0.1777344c-2.0126953,1.125-3.9677734,1.6582031-5.7451172,1.6582031
		c-4.4404297,0-6.4541016-3.1972656-6.4541016-10.2460938c0-7.0458984,2.1318359-10.4804688,6.5732422-10.4804688
		c0.8886719,0,1.6582031,0.2363281,2.8427734,0.7109375v3.9082031c0,0.5917969,0.1787109,0.7695312,0.7119141,0.7695312h3.5527344
		c0.5332031,0,0.7099609-0.1777344,0.7099609-0.7695312v-6.5742188c0-0.5332031-0.1181641-0.828125-0.5917969-1.125
		c-1.6582031-1.125-4.3828125-1.8964844-7.2841797-1.8964844c-7.9960938,0-12.9101562,6.1015625-12.9101562,15.9912109
		c0,9.3564453,4.4414062,14.6865234,12.140625,14.6865234c2.9003906,0,5.8623047-0.6513672,8.2910156-2.0722656
		C120.6342773,87.2172852,120.6342773,86.9204102,120.3969727,86.3891602z"/>
	<path style="fill-rule:evenodd;clip-rule:evenodd;" d="M150.1831055,74.3071289c0-9.6523438-4.5-15.3398438-12.1396484-15.3398438
		c-7.8173828,0-12.5556641,5.8046875-12.5556641,15.3994141c0,9.6533203,4.5019531,15.2783203,12.1992188,15.2783203
		C145.4467773,89.6450195,150.1831055,83.8422852,150.1831055,74.3071289z M143.7885742,74.1293945
		c0,7.34375-1.8369141,10.71875-5.9228516,10.71875c-4.0869141,0-5.9814453-3.375-5.9814453-10.71875
		c0-7.046875,1.9550781-10.3046875,5.9814453-10.3046875S143.7885742,67.0825195,143.7885742,74.1293945z"/>
	<path style="fill-rule:evenodd;clip-rule:evenodd;" d="M181.4506836,73.7739258
		c0-9.7128906-3.2568359-14.8066406-9.7128906-14.8066406c-2.8417969,0-4.8554688,0.8886719-8.1132812,3.2587891
		c-0.5322266-1.4814453-0.6503906-2.3095703-1.7753906-2.3095703h-6.8710938c-0.5917969,0-0.828125,0.1777344-0.828125,0.7695312
		v3.0791016c0,0.5927734,0.2363281,0.7705078,0.828125,0.7705078h3.0205078c0.5341797,1.7167969,0.5341797,2.6650391,0.5341797,4.5
		V96.159668h-3.1982422c-0.5341797,0-0.7119141,0.1787109-0.7119141,0.7705078v3.0195312
		c0,0.5927734,0.1777344,0.8300781,0.7119141,0.8300781h12.7314453c0.5917969,0,0.7109375-0.2373047,0.7109375-0.8300781v-3.0195312
		c0-0.5917969-0.1191406-0.7705078-0.7109375-0.7705078h-3.4941406v-8.5869141
		c2.3701172,1.5390625,4.0273438,2.0722656,6.5146484,2.0722656
		C177.8374023,89.6450195,181.4506836,84.0786133,181.4506836,73.7739258z M175.2915039,74.0112305
		c0,7.9345703-1.4208984,10.7783203-5.4482422,10.7783203c-1.7773438,0-3.0791016-0.4150391-5.2714844-1.7773438V66.5483398
		c2.4882812-1.8935547,3.9101562-2.6044922,5.7441406-2.6044922
		C173.8706055,63.9438477,175.2915039,66.9047852,175.2915039,74.0112305z"/>
	<path style="fill-rule:evenodd;clip-rule:evenodd;" d="M205.5463867,86.8022461l-0.7695312-3.0800781
		c-0.1191406-0.5908203-0.3554688-0.9462891-1.1845703-0.5908203c-1.5400391,0.6513672-2.7246094,1.2431641-4.4423828,1.2431641
		c-2.3671875,0-2.9013672-0.8291016-2.9013672-4.3232422V64.4750977h6.8701172c0.5927734,0,0.8291016-0.1171875,0.9472656-0.7099609
		l0.7109375-2.8427734c0.1777344-0.6503906,0.2363281-1.0058594-0.6523438-1.0058594h-7.8759766v-8.7651367
		c0-1.0063477-0.4150391-0.8295898-1.1845703-0.7109375l-3.9667969,0.7700195
		c-0.59375,0.1181641-0.8300781,0.2958984-0.8300781,0.8886719v7.8173828h-4.1455078
		c-0.7705078,0-0.8291016,0.1181641-0.8291016,0.828125v2.9033203c0,0.7099609,0.0585938,0.8271484,0.8291016,0.8271484h4.1455078
		v16.109375c0,5.3300781,1.421875,8.9423828,7.6396484,8.9423828c2.3095703,0,4.8564453-0.4736328,7.0478516-1.4804688
		C205.7241211,87.6899414,205.7241211,87.5141602,205.5463867,86.8022461z"/>
	<path style="fill-rule:evenodd;clip-rule:evenodd;" d="M232.6694336,73.6557617
		c0-9.4755859-4.0292969-14.6884766-11.3125-14.6884766c-7.4609375,0-12.3173828,6.1601562-12.3173828,15.5175781
		c0,9.59375,4.7373047,15.1601562,12.7919922,15.1601562c3.0791016,0,6.8691406-0.9472656,9.2382812-2.4277344
		c0.7109375-0.4150391,1.0058594-0.7695312,0.6503906-1.4804688l-1.3027344-2.9023438
		c-0.1777344-0.4736328-0.4736328-0.5322266-0.828125-0.3554688c-1.8369141,0.8300781-3.7324219,2.1328125-7.2246094,2.1328125
		c-4.5605469,0-6.9296875-3.0205078-7.1660156-8.765625h16.4628906
		C232.6694336,75.8461914,232.6694336,75.0180664,232.6694336,73.6557617z M226.331543,71.2875977h-11.015625
		c0.4160156-5.3300781,2.1914062-7.7587891,5.7460938-7.7587891
		C224.5541992,63.5288086,226.2133789,66.0161133,226.331543,71.2875977z"/>
	<path style="fill-rule:evenodd;clip-rule:evenodd;" d="M257.3432617,60.6860352
		c0.1777344-0.4736328,0.2382812-0.7109375-0.2949219-1.0058594c-0.7109375-0.4150391-1.7773438-0.7128906-2.7832031-0.7128906
		c-3.3769531,0-5.2714844,2.4296875-7.2265625,4.7978516c-0.6523438-2.9013672-1.1835938-3.8486328-2.25-3.8486328h-6.5136719
		c-0.59375,0-0.7714844,0.1777344-0.7714844,0.7695312v3.0791016c0,0.5927734,0.1777344,0.7705078,0.7714844,0.7705078h3.0195312
		c0.4746094,1.7167969,0.5917969,2.6650391,0.5917969,5.6259766v14.0361328h-3.2568359
		c-0.5332031,0-0.7109375,0.1767578-0.7109375,0.7089844v3.1396484c0,0.5322266,0.1777344,0.7109375,0.7109375,0.7109375h12.7333984
		c0.5917969,0,0.7675781-0.1787109,0.7675781-0.7109375v-3.1396484c0-0.5322266-0.2363281-0.7089844-0.7675781-0.7089844h-3.4355469
		V68.2670898c2.3691406-2.7255859,3.7304688-3.6728516,5.0332031-3.6728516c0.5332031,0,1.1269531,0.1181641,2.0742188,0.4746094
		c0.3554688,0.1181641,0.5332031-0.0595703,0.6503906-0.3564453L257.3432617,60.6860352z"/>
</g>
</svg>
