<?xml version="1.0" encoding="UTF-8" standalone="no"?>
<svg width="239px" height="43px" viewBox="0 0 239 43" version="1.1" xmlns="http://www.w3.org/2000/svg" xmlns:xlink="http://www.w3.org/1999/xlink" xmlns:sketch="http://www.bohemiancoding.com/sketch/ns">
    <!-- Generator: Sketch 3.3.3 (12072) - http://www.bohemiancoding.com/sketch -->
    <title>Artboard 1</title>
    <desc>Created with Sketch.</desc>
    <defs></defs>
    <g id="Page-1" stroke="none" stroke-width="1" fill="none" fill-rule="evenodd" sketch:type="MSPage">
        <g id="Artboard-1" sketch:type="MSArtboardGroup">
            <g id="Logo" sketch:type="MSLayerGroup" transform="translate(9.000000, 9.000000)">
                <g id="crest" transform="translate(201.000000, 0.000000)" sketch:type="MSShapeGroup">
                    <path d="M10.3247976,0.0854757085 L20.5409413,0.0854757085 L20.5409413,15.1008097 C20.5409413,20.4972166 15.9696862,24.8715587 10.3313259,24.8715587 C4.6923583,24.8715587 0.121508097,20.497166 0.121508097,15.1008097 L0.121508097,0.0854757085 L10.3247976,0.0854757085 L10.3247976,0.0854757085 Z" id="Shape" fill="#E01625"></path>
                    <path d="M19.0691296,4.26933198 L16.1038462,4.26933198 L16.1038462,1.33233806 L15.1383603,1.33233806 L15.1383603,4.26933198 L12.1810223,4.26933198 L12.1810223,5.24610324 L15.1383603,5.24610324 L15.1383603,8.19635628 L16.1038462,8.19635628 L16.1038462,5.24610324 L19.0691296,5.24610324 L19.0691296,4.26933198 L19.0691296,4.26933198 Z" id="Shape" fill="#FFFFFF"></path>
                </g>
                <path d="M0.8,0.58 L0.8,22 L2.69,22 L2.69,16.12 L5.75,13.57 L11.87,22 L14.24,22 L7.19,12.25 L13.79,6.52 L11.27,6.52 L2.69,14.02 L2.69,0.58 L0.8,0.58 L0.8,0.58 Z M15.62,11.26 L17.51,11.26 C17.5500002,9.9999937 17.9499962,9.08500285 18.71,8.515 C19.4700038,7.94499715 20.449994,7.66 21.65,7.66 C22.2100028,7.66 22.7349975,7.70499955 23.225,7.795 C23.7150024,7.88500045 24.1449981,8.0499988 24.515,8.29 C24.8850018,8.5300012 25.1749989,8.85499795 25.385,9.265 C25.5950011,9.67500205 25.7,10.1999968 25.7,10.84 C25.7,11.2600021 25.6450005,11.5999987 25.535,11.86 C25.4249995,12.1200013 25.270001,12.3249993 25.07,12.475 C24.869999,12.6250008 24.6200015,12.7299997 24.32,12.79 C24.0199985,12.8500003 23.670002,12.8999998 23.27,12.94 C22.2499949,13.0600006 21.2450049,13.1849994 20.255,13.315 C19.264995,13.4450007 18.3750039,13.6699984 17.585,13.99 C16.794996,14.3100016 16.1600024,14.774997 15.68,15.385 C15.1999976,15.9950031 14.96,16.8399946 14.96,17.92 C14.96,18.7000039 15.0949986,19.3749972 15.365,19.945 C15.6350013,20.5150029 16.0049976,20.9849982 16.475,21.355 C16.9450023,21.7250019 17.4949968,21.9949992 18.125,22.165 C18.7550031,22.3350009 19.4299964,22.42 20.15,22.42 C20.9100038,22.42 21.5649972,22.3500007 22.115,22.21 C22.6650027,22.0699993 23.1549978,21.8700013 23.585,21.61 C24.0150022,21.3499987 24.4049982,21.025002 24.755,20.635 C25.1050017,20.2449981 25.4499983,19.8000025 25.79,19.3 L25.85,19.3 C25.85,19.700002 25.8749998,20.0649984 25.925,20.395 C25.9750003,20.7250017 26.0799992,21.0099988 26.24,21.25 C26.4000008,21.4900012 26.6249986,21.6749994 26.915,21.805 C27.2050014,21.9350007 27.5899976,22 28.07,22 C28.3300013,22 28.5449992,21.9900001 28.715,21.97 C28.8850008,21.9499999 29.0799989,21.9200002 29.3,21.88 L29.3,20.29 C29.1199991,20.3700004 28.9200011,20.41 28.7,20.41 C27.9599963,20.41 27.59,20.0300038 27.59,19.27 L27.59,11.05 C27.59,10.0099948 27.4200017,9.16500325 27.08,8.515 C26.7399983,7.86499675 26.3000027,7.3600018 25.76,7 C25.2199973,6.6399982 24.6100034,6.39500065 23.93,6.265 C23.2499966,6.13499935 22.5700034,6.07 21.89,6.07 C20.9899955,6.07 20.1700037,6.169999 19.43,6.37 C18.6899963,6.570001 18.0450027,6.8799979 17.495,7.3 C16.9449972,7.7200021 16.5100016,8.2599967 16.19,8.92 C15.8699984,9.5800033 15.6800003,10.3599955 15.62,11.26 L15.62,11.26 L15.62,11.26 Z M25.7,13.54 L25.7,16 C25.7,16.7600038 25.5550014,17.439997 25.265,18.04 C24.9749986,18.640003 24.5850024,19.1499979 24.095,19.57 C23.6049976,19.9900021 23.0300033,20.3099989 22.37,20.53 C21.7099967,20.7500011 21.0200036,20.86 20.3,20.86 C19.8599978,20.86 19.4300021,20.7900007 19.01,20.65 C18.5899979,20.5099993 18.2200016,20.3050014 17.9,20.035 C17.5799984,19.7649987 17.3250009,19.4450019 17.135,19.075 C16.944999,18.7049982 16.85,18.2800024 16.85,17.8 C16.85,17.0399962 17.0749978,16.4550021 17.525,16.045 C17.9750022,15.634998 18.5499965,15.3200011 19.25,15.1 C19.9500035,14.8799989 20.7249957,14.7150006 21.575,14.605 C22.4250043,14.4949995 23.249996,14.3700007 24.05,14.23 C24.3100013,14.1899998 24.6099983,14.1200005 24.95,14.02 C25.2900017,13.9199995 25.5199994,13.7600011 25.64,13.54 L25.7,13.54 L25.7,13.54 Z M31.34,6.52 L31.34,22 L33.23,22 L33.23,12.97 C33.2500001,12.2099962 33.3749988,11.5050033 33.605,10.855 C33.8350012,10.2049968 34.154998,9.64500235 34.565,9.175 C34.9750021,8.70499765 35.474997,8.33500135 36.065,8.065 C36.6550029,7.79499865 37.3299962,7.66 38.09,7.66 C38.8500038,7.66 39.4849975,7.7799988 39.995,8.02 C40.5050026,8.2600012 40.9099985,8.5899979 41.21,9.01 C41.5100015,9.4300021 41.7199994,9.92499715 41.84,10.495 C41.9600006,11.0650029 42.02,11.6799967 42.02,12.34 L42.02,22 L43.91,22 L43.91,12.04 C43.91,11.1199954 43.8200009,10.2900037 43.64,9.55 C43.4599991,8.8099963 43.1500022,8.18500255 42.71,7.675 C42.2699978,7.16499745 41.6850036,6.7700014 40.955,6.49 C40.2249963,6.2099986 39.3200054,6.07 38.24,6.07 C37.1399945,6.07 36.1300046,6.35499715 35.21,6.925 C34.2899954,7.49500285 33.6500018,8.2499953 33.29,9.19 L33.23,9.19 L33.23,6.52 L31.34,6.52 L31.34,6.52 Z M50.48,6.52 L50.48,1.87 L48.59,1.87 L48.59,6.52 L45.89,6.52 L45.89,8.11 L48.59,8.11 L48.59,18.7 C48.5699999,20.0200066 48.8099975,20.9249976 49.31,21.415 C49.8100025,21.9050025 50.6899937,22.15 51.95,22.15 C52.2300014,22.15 52.5099986,22.1400001 52.79,22.12 C53.0700014,22.0999999 53.3499986,22.09 53.63,22.09 L53.63,20.5 C53.0899973,20.5600003 52.5500027,20.59 52.01,20.59 C51.3299966,20.5499998 50.9050009,20.3550018 50.735,20.005 C50.5649991,19.6549983 50.48,19.1700031 50.48,18.55 L50.48,8.11 L53.63,8.11 L53.63,6.52 L50.48,6.52 L50.48,6.52 Z M62.9,7.66 C63.8000045,7.66 64.5899966,7.8499981 65.27,8.23 C65.9500034,8.6100019 66.5149978,9.1099969 66.965,9.73 C67.4150023,10.3500031 67.7549988,11.0549961 67.985,11.845 C68.2150012,12.635004 68.33,13.4399959 68.33,14.26 C68.33,15.0800041 68.2150012,15.8849961 67.985,16.675 C67.7549988,17.465004 67.4150023,18.1699969 66.965,18.79 C66.5149978,19.4100031 65.9500034,19.9099981 65.27,20.29 C64.5899966,20.6700019 63.8000045,20.86 62.9,20.86 C61.9999955,20.86 61.2100034,20.6700019 60.53,20.29 C59.8499966,19.9099981 59.2850023,19.4100031 58.835,18.79 C58.3849977,18.1699969 58.0450012,17.465004 57.815,16.675 C57.5849989,15.8849961 57.47,15.0800041 57.47,14.26 C57.47,13.4399959 57.5849989,12.635004 57.815,11.845 C58.0450012,11.0549961 58.3849977,10.3500031 58.835,9.73 C59.2850023,9.1099969 59.8499966,8.6100019 60.53,8.23 C61.2100034,7.8499981 61.9999955,7.66 62.9,7.66 L62.9,7.66 L62.9,7.66 Z M62.9,6.07 C61.7199941,6.07 60.6750046,6.2899978 59.765,6.73 C58.8549955,7.1700022 58.0900031,7.7599963 57.47,8.5 C56.8499969,9.2400037 56.3800016,10.1049951 56.06,11.095 C55.7399984,12.085005 55.58,13.1399944 55.58,14.26 C55.58,15.3800056 55.7399984,16.4349951 56.06,17.425 C56.3800016,18.415005 56.8499969,19.2799963 57.47,20.02 C58.0900031,20.7600037 58.8549955,21.3449979 59.765,21.775 C60.6750046,22.2050022 61.7199941,22.42 62.9,22.42 C64.0800059,22.42 65.1249955,22.2050022 66.035,21.775 C66.9450046,21.3449979 67.7099969,20.7600037 68.33,20.02 C68.9500031,19.2799963 69.4199984,18.415005 69.74,17.425 C70.0600016,16.4349951 70.22,15.3800056 70.22,14.26 C70.22,13.1399944 70.0600016,12.085005 69.74,11.095 C69.4199984,10.1049951 68.9500031,9.2400037 68.33,8.5 C67.7099969,7.7599963 66.9450046,7.1700022 66.035,6.73 C65.1249955,6.2899978 64.0800059,6.07 62.9,6.07 L62.9,6.07 L62.9,6.07 Z M73.01,6.52 L73.01,22 L74.9,22 L74.9,12.97 C74.9200001,12.2099962 75.0449989,11.5050033 75.275,10.855 C75.5050011,10.2049968 75.824998,9.64500235 76.235,9.175 C76.6450021,8.70499765 77.1449971,8.33500135 77.735,8.065 C78.325003,7.79499865 78.9999962,7.66 79.76,7.66 C80.5200038,7.66 81.1549974,7.7799988 81.665,8.02 C82.1750026,8.2600012 82.5799985,8.5899979 82.88,9.01 C83.1800015,9.4300021 83.3899994,9.92499715 83.51,10.495 C83.6300006,11.0650029 83.69,11.6799967 83.69,12.34 L83.69,22 L85.58,22 L85.58,12.04 C85.58,11.1199954 85.4900009,10.2900037 85.31,9.55 C85.1299991,8.8099963 84.8200022,8.18500255 84.38,7.675 C83.9399978,7.16499745 83.3550037,6.7700014 82.625,6.49 C81.8949964,6.2099986 80.9900054,6.07 79.91,6.07 C78.8099945,6.07 77.8000046,6.35499715 76.88,6.925 C75.9599954,7.49500285 75.3200018,8.2499953 74.96,9.19 L74.9,9.19 L74.9,6.52 L73.01,6.52 L73.01,6.52 Z M92.27,16.96 L88.22,16.96 C88.2600002,18.0000052 88.4949979,18.8649966 88.925,19.555 C89.3550022,20.2450035 89.9049967,20.7999979 90.575,21.22 C91.2450034,21.6400021 92.0099957,21.9399991 92.87,22.12 C93.7300043,22.3000009 94.6099955,22.39 95.51,22.39 C96.3900044,22.39 97.2549958,22.3050009 98.105,22.135 C98.9550043,21.9649992 99.7099967,21.6700021 100.37,21.25 C101.030003,20.8299979 101.564998,20.2750035 101.975,19.585 C102.385002,18.8949966 102.59,18.0400051 102.59,17.02 C102.59,16.2999964 102.450001,15.6950025 102.17,15.205 C101.889999,14.7149976 101.520002,14.3050017 101.06,13.975 C100.599998,13.6449984 100.075003,13.380001 99.485,13.18 C98.8949971,12.979999 98.2900031,12.8100007 97.67,12.67 C97.069997,12.5299993 96.4800029,12.4000006 95.9,12.28 C95.3199971,12.1599994 94.8050023,12.0250008 94.355,11.875 C93.9049978,11.7249993 93.5400014,11.5300012 93.26,11.29 C92.9799986,11.0499988 92.84,10.7400019 92.84,10.36 C92.84,10.0399984 92.9199992,9.78500095 93.08,9.595 C93.2400008,9.40499905 93.4349988,9.2600005 93.665,9.16 C93.8950012,9.0599995 94.1499986,8.99500015 94.43,8.965 C94.7100014,8.93499985 94.9699988,8.92 95.21,8.92 C95.9700038,8.92 96.6299972,9.06499855 97.19,9.355 C97.7500028,9.64500145 98.0599997,10.1999959 98.12,11.02 L102.17,11.02 C102.09,10.0599952 101.845002,9.26500315 101.435,8.635 C101.024998,8.00499685 100.510003,7.5000019 99.89,7.12 C99.2699969,6.7399981 98.565004,6.4700008 97.775,6.31 C96.9849961,6.1499992 96.1700042,6.07 95.33,6.07 C94.4899958,6.07 93.670004,6.14499925 92.87,6.295 C92.069996,6.44500075 91.3500032,6.70499815 90.71,7.075 C90.0699968,7.44500185 89.555002,7.9499968 89.165,8.59 C88.7749981,9.2300032 88.58,10.049995 88.58,11.05 C88.58,11.7300034 88.7199986,12.3049977 89,12.775 C89.2800014,13.2450024 89.6499977,13.6349985 90.11,13.945 C90.5700023,14.2550016 91.0949971,14.5049991 91.685,14.695 C92.275003,14.885001 92.8799969,15.0499993 93.5,15.19 C95.0200076,15.5100016 96.2049957,15.8299984 97.055,16.15 C97.9050043,16.4700016 98.33,16.9499968 98.33,17.59 C98.33,17.9700019 98.2400009,18.2849988 98.06,18.535 C97.8799991,18.7850013 97.6550014,18.9849993 97.385,19.135 C97.1149987,19.2850008 96.8150016,19.3949997 96.485,19.465 C96.1549983,19.5350004 95.8400015,19.57 95.54,19.57 C95.1199979,19.57 94.715002,19.5200005 94.325,19.42 C93.9349981,19.3199995 93.5900015,19.1650011 93.29,18.955 C92.9899985,18.744999 92.745001,18.4750017 92.555,18.145 C92.3649991,17.8149984 92.27,17.4200023 92.27,16.96 L92.27,16.96 L92.27,16.96 Z M115.64,11.95 L119.81,11.95 C119.75,10.949995 119.510002,10.0850037 119.09,9.355 C118.669998,8.62499635 118.125003,8.01500245 117.455,7.525 C116.784997,7.03499755 116.025004,6.6700012 115.175,6.43 C114.324996,6.1899988 113.440005,6.07 112.52,6.07 C111.259994,6.07 110.140005,6.2799979 109.16,6.7 C108.179995,7.1200021 107.350003,7.70499625 106.67,8.455 C105.989997,9.20500375 105.475002,10.0949949 105.125,11.125 C104.774998,12.1550052 104.6,13.269994 104.6,14.47 C104.6,15.6300058 104.789998,16.6949952 105.17,17.665 C105.550002,18.6350049 106.079997,19.4699965 106.76,20.17 C107.440003,20.8700035 108.264995,21.4149981 109.235,21.805 C110.205005,22.195002 111.269994,22.39 112.43,22.39 C114.49001,22.39 116.179993,21.8500054 117.5,20.77 C118.820007,19.6899946 119.619999,18.1200103 119.9,16.06 L115.79,16.06 C115.649999,17.0200048 115.305003,17.7849972 114.755,18.355 C114.204997,18.9250029 113.420005,19.21 112.4,19.21 C111.739997,19.21 111.180002,19.0600015 110.72,18.76 C110.259998,18.4599985 109.895001,18.0750024 109.625,17.605 C109.354999,17.1349977 109.160001,16.6100029 109.04,16.03 C108.919999,15.4499971 108.86,14.8800028 108.86,14.32 C108.86,13.7399971 108.919999,13.155003 109.04,12.565 C109.160001,11.9749971 109.364999,11.4350025 109.655,10.945 C109.945001,10.4549976 110.319998,10.0550016 110.78,9.745 C111.240002,9.43499845 111.809997,9.28 112.49,9.28 C114.310009,9.28 115.359999,10.1699911 115.64,11.95 L115.64,11.95 L115.64,11.95 Z M122.3,0.58 L122.3,22 L126.56,22 L126.56,13.87 C126.56,12.2899921 126.819997,11.1550035 127.34,10.465 C127.860003,9.77499655 128.699994,9.43 129.86,9.43 C130.880005,9.43 131.589998,9.74499685 131.99,10.375 C132.390002,11.0050032 132.59,11.9599936 132.59,13.24 L132.59,22 L136.85,22 L136.85,12.46 C136.85,11.4999952 136.765001,10.625004 136.595,9.835 C136.424999,9.04499605 136.130002,8.37500275 135.71,7.825 C135.289998,7.27499725 134.715004,6.84500155 133.985,6.535 C133.254996,6.22499845 132.320006,6.07 131.18,6.07 C130.379996,6.07 129.560004,6.27499795 128.72,6.685 C127.879996,7.09500205 127.190003,7.7499955 126.65,8.65 L126.56,8.65 L126.56,0.58 L122.3,0.58 L122.3,0.58 Z M157.82,22 L162.71,6.49 L158.33,6.49 L155.48,16.99 L155.42,16.99 L152.78,6.49 L148.64,6.49 L146.06,17.02 L146,17.02 L143.15,6.49 L138.65,6.49 L143.57,22 L147.98,22 L150.62,11.59 L150.68,11.59 L153.44,22 L157.82,22 L157.82,22 Z M172.16,23.92 L178.64,6.49 L174.23,6.49 L170.84,17.11 L170.78,17.11 L167.27,6.49 L162.74,6.49 L168.17,21.04 C168.290001,21.3400015 168.35,21.6599983 168.35,22 C168.35,22.4600023 168.215001,22.8799981 167.945,23.26 C167.674999,23.6400019 167.260003,23.8599997 166.7,23.92 C166.279998,23.9400001 165.860002,23.9300002 165.44,23.89 C165.019998,23.8499998 164.610002,23.8100002 164.21,23.77 L164.21,27.28 C164.650002,27.3200002 165.084998,27.3549999 165.515,27.385 C165.945002,27.4150002 166.379998,27.43 166.82,27.43 C168.280007,27.43 169.419996,27.1600027 170.24,26.62 C171.060004,26.0799973 171.699998,25.1800063 172.16,23.92 L172.16,23.92 L172.16,23.92 Z M179.12,18.79 L179.12,22 L193.37,22 L193.37,18.79 L184.73,18.79 L192.8,9.7 L192.8,6.49 L179.72,6.49 L179.72,9.7 L187.19,9.7 L179.12,18.79 L179.12,18.79 Z" id="kantonschwyz" fill="#000000" sketch:type="MSShapeGroup"></path>
            </g>
        </g>
    </g>
</svg>