<?xml version="1.0" encoding="UTF-8" standalone="no"?>
<svg width="70px" height="70px" viewBox="0 0 70 70" version="1.1" xmlns="http://www.w3.org/2000/svg" xmlns:xlink="http://www.w3.org/1999/xlink" xmlns:sketch="http://www.bohemiancoding.com/sketch/ns">
    <!-- Generator: Sketch 3.4.2 (15855) - http://www.bohemiancoding.com/sketch -->
    <title>bosw</title>
    <desc>Created with Sketch.</desc>
    <defs>
        <path id="path-1" d="M0,0.0706167401 L69.9293833,0.0706167401 L69.9293833,69.9814978 L0,69.9814978 L0,0.0706167401 L0,0.0706167401 Z"></path>
    </defs>
    <g id="Page-1" stroke="none" stroke-width="1" fill="none" fill-rule="evenodd" sketch:type="MSPage">
        <g id="bosw" sketch:type="MSLayerGroup">
            <g id="Page-1">
                <g id="2016_pa_b">
                    <g id="Group-3">
                        <g id="mask-2" fill="#FFFFFF" sketch:type="MSShapeGroup">
                            <path d="M0,0.0706167401 L69.9293833,0.0706167401 L69.9293833,69.9814978 L0,69.9814978 L0,0.0706167401 L0,0.0706167401 Z" id="path-1"></path>
                        </g>
                        <g id="Clip-2"></g>
                        <g id="Fill-1-Clipped">
                            <mask id="mask-2" sketch:name="path-1" fill="white">
                                <use xlink:href="#path-1"></use>
                            </mask>
                            <g id="path-1"></g>
                            <path d="M0,0.0706167401 L69.9293833,0.0706167401 L69.9293833,70 L0,70 L0,0.0706167401 L0,0.0706167401 Z" id="Fill-1" fill="#1A1918" sketch:type="MSShapeGroup" mask="url(#mask-2)"></path>
                        </g>
                    </g>
                    <path d="M37.8440969,32.5981057 L39.905859,32.5981057 L41.5380617,25.9999119 L41.5722907,25.9999119 L43.2220705,32.5981057 L45.2323348,32.5981057 L48.0162996,23.7145815 L46.0229956,23.7145815 L44.2187225,30.3473128 L44.184185,30.3473128 L42.5865198,23.7145815 L40.6101762,23.7145815 L38.9434361,30.3473128 L38.909207,30.3473128 L37.1733921,23.7145815 L35.0943612,23.7145815 L37.8440969,32.5981057" id="Fill-4" fill="#FFFFFF" sketch:type="MSShapeGroup"></path>
                    <path d="M37.8440969,32.5981057 L39.905859,32.5981057 L41.5380617,25.9999119 L41.5722907,25.9999119 L43.2220705,32.5981057 L45.2323348,32.5981057 L48.0162996,23.7145815 L46.0229956,23.7145815 L44.2187225,30.3473128 L44.184185,30.3473128 L42.5865198,23.7145815 L40.6101762,23.7145815 L38.9434361,30.3473128 L38.909207,30.3473128 L37.1733921,23.7145815 L35.0943612,23.7145815 L37.8440969,32.5981057 L37.8440969,32.5981057 L37.8440969,32.5981057 Z" id="Stroke-5" stroke="#FFFFFF" stroke-width="0.697" sketch:type="MSShapeGroup"></path>
                    <path d="M50.2834361,27.3746256 C50.3346256,26.0514097 51.2622026,25.0205286 52.6199559,25.0205286 C53.9431718,25.0205286 54.785022,26.1374449 54.8537885,27.3746256 L50.2834361,27.3746256 L50.2834361,27.3746256 L50.2834361,27.3746256 Z M56.8128634,28.663304 C57.1394273,25.9999119 55.4211894,23.4740529 52.6199559,23.4740529 C49.9738326,23.4740529 48.3240529,25.6391189 48.3240529,28.164978 C48.3240529,30.8971366 49.8877974,32.8389427 52.6717621,32.8389427 C54.6135683,32.8389427 56.2624229,31.7562555 56.6925991,29.8147577 L54.8365198,29.8147577 C54.4929956,30.794141 53.8056388,31.2921586 52.6717621,31.2921586 C51.0392511,31.2921586 50.2834361,30.0552863 50.2834361,28.663304 L56.8128634,28.663304 L56.8128634,28.663304 L56.8128634,28.663304 Z" id="Fill-6" fill="#FFFFFF" sketch:type="MSShapeGroup"></path>
                    <path d="M50.2834361,27.3746256 C50.3346256,26.0514097 51.2622026,25.0205286 52.6199559,25.0205286 C53.9431718,25.0205286 54.785022,26.1374449 54.8537885,27.3746256 L50.2834361,27.3746256 L50.2834361,27.3746256 L50.2834361,27.3746256 Z M56.8128634,28.663304 C57.1394273,25.9999119 55.4211894,23.4740529 52.6199559,23.4740529 C49.9738326,23.4740529 48.3240529,25.6391189 48.3240529,28.164978 C48.3240529,30.8971366 49.8877974,32.8389427 52.6717621,32.8389427 C54.6135683,32.8389427 56.2624229,31.7562555 56.6925991,29.8147577 L54.8365198,29.8147577 C54.4929956,30.794141 53.8056388,31.2921586 52.6717621,31.2921586 C51.0392511,31.2921586 50.2834361,30.0552863 50.2834361,28.663304 L56.8128634,28.663304 L56.8128634,28.663304 L56.8128634,28.663304 Z" id="Stroke-7" stroke="#FFFFFF" stroke-width="0.697" sketch:type="MSShapeGroup"></path>
                    <path d="M58.1857269,32.5981057 L60.0408811,32.5981057 L60.0408811,31.3781938 L60.0754185,31.3781938 C60.6597797,32.5466079 61.9487665,32.8389427 63.1514097,32.8389427 C65.7802643,32.8389427 66.9832159,30.5878414 66.9832159,28.1995154 C66.9832159,25.6048899 65.6254626,23.4740529 62.8245374,23.4740529 C61.8281938,23.4740529 60.7115859,24.0066079 60.1784141,24.8660352 L60.144185,24.8660352 L60.144185,20.3296035 L58.1857269,20.3296035 L58.1857269,32.5981057 L58.1857269,32.5981057 L58.1857269,32.5981057 Z M65.0244493,28.164978 C65.0244493,29.7114537 64.3540529,31.2921586 62.5667401,31.2921586 C60.9863436,31.2921586 60.0754185,29.9519824 60.0754185,28.164978 C60.0754185,26.274978 60.9172687,25.0205286 62.5667401,25.0205286 C64.1825991,25.0205286 65.0244493,26.5497357 65.0244493,28.164978 L65.0244493,28.164978 L65.0244493,28.164978 Z" id="Fill-8" fill="#FFFFFF" sketch:type="MSShapeGroup"></path>
                    <path d="M58.1857269,32.5981057 L60.0408811,32.5981057 L60.0408811,31.3781938 L60.0754185,31.3781938 C60.6597797,32.5466079 61.9487665,32.8389427 63.1514097,32.8389427 C65.7802643,32.8389427 66.9832159,30.5878414 66.9832159,28.1995154 C66.9832159,25.6048899 65.6254626,23.4740529 62.8245374,23.4740529 C61.8281938,23.4740529 60.7115859,24.0066079 60.1784141,24.8660352 L60.144185,24.8660352 L60.144185,20.3296035 L58.1857269,20.3296035 L58.1857269,32.5981057 L58.1857269,32.5981057 L58.1857269,32.5981057 Z M65.0244493,28.164978 C65.0244493,29.7114537 64.3540529,31.2921586 62.5667401,31.2921586 C60.9863436,31.2921586 60.0754185,29.9519824 60.0754185,28.164978 C60.0754185,26.274978 60.9172687,25.0205286 62.5667401,25.0205286 C64.1825991,25.0205286 65.0244493,26.5497357 65.0244493,28.164978 L65.0244493,28.164978 L65.0244493,28.164978 Z" id="Stroke-9" stroke="#FFFFFF" stroke-width="0.697" sketch:type="MSShapeGroup"></path>
                    <path d="M35.232511,17.6181057 C35.3071366,19.3246256 36.7644934,19.8855507 38.2594714,19.8855507 C39.7297797,19.8855507 41.1994714,19.3372687 41.1994714,17.6427753 C41.1994714,16.4469163 40.1904846,16.0731718 39.1565198,15.8363436 C38.147533,15.5998238 37.1508811,15.5125551 37.1508811,14.8773128 C37.1508811,14.3540088 37.7364758,14.2793833 38.1351982,14.2793833 C38.7704405,14.2793833 39.2937445,14.4662555 39.3430837,15.1514537 L41.0255507,15.1514537 C40.888326,13.569207 39.5925551,13.0955507 38.1848458,13.0955507 C36.8018062,13.0955507 35.3817621,13.5195595 35.3817621,15.1637885 C35.3817621,16.2973568 36.4033921,16.6587665 37.4247137,16.8829515 C38.695815,17.1570925 39.4303524,17.3439648 39.4303524,17.8796035 C39.4303524,18.502511 38.7827753,18.7017181 38.2714978,18.7017181 C37.5745815,18.7017181 36.9263877,18.3902643 36.9143612,17.6181057 L35.232511,17.6181057" id="Fill-10" fill="#D9222A" sketch:type="MSShapeGroup"></path>
                    <path d="M51.3756828,13.2703965 L49.5566079,13.2703965 L48.3730837,17.6304405 L48.3484141,17.6304405 L47.2521586,13.2703965 L45.5329956,13.2703965 L44.4617181,17.6427753 L44.4367401,17.6427753 L43.2532159,13.2703965 L41.384185,13.2703965 L43.4274449,19.7110132 L45.2588546,19.7110132 L46.3548018,15.3879736 L46.3800881,15.3879736 L47.5256828,19.7110132 L49.3447577,19.7110132 L51.3756828,13.2703965" id="Fill-11" fill="#D9222A" sketch:type="MSShapeGroup"></path>
                    <path d="M51.9245815,12.2737445 L53.6933921,12.2737445 L53.6933921,10.8160793 L51.9245815,10.8160793 L51.9245815,12.2737445 L51.9245815,12.2737445 Z M51.9245815,19.7110132 L53.6933921,19.7110132 L53.6933921,13.2703965 L51.9245815,13.2703965 L51.9245815,19.7110132 L51.9245815,19.7110132 Z" id="Fill-12" fill="#D9222A" sketch:type="MSShapeGroup"></path>
                    <path d="M54.5259912,17.6181057 C54.6009251,19.3246256 56.0582819,19.8855507 57.5535683,19.8855507 C59.0232599,19.8855507 60.4932599,19.3372687 60.4932599,17.6427753 C60.4932599,16.4469163 59.4842731,16.0731718 58.4503084,15.8363436 C57.4413216,15.5998238 56.4446696,15.5125551 56.4446696,14.8773128 C56.4446696,14.3540088 57.0296476,14.2793833 57.4286784,14.2793833 C58.0639207,14.2793833 58.5869163,14.4662555 58.6368722,15.1514537 L60.3187225,15.1514537 C60.1821145,13.569207 58.8860352,13.0955507 57.4786344,13.0955507 C56.0955947,13.0955507 54.6755507,13.5195595 54.6755507,15.1637885 C54.6755507,16.2973568 55.6968722,16.6587665 56.7185022,16.8829515 C57.9892952,17.1570925 58.7244493,17.3439648 58.7244493,17.8796035 C58.7244493,18.502511 58.0765639,18.7017181 57.5655947,18.7017181 C56.8677533,18.7017181 56.2198678,18.3902643 56.2078414,17.6181057 L54.5259912,17.6181057" id="Fill-13" fill="#D9222A" sketch:type="MSShapeGroup"></path>
                    <path d="M61.0890308,17.6181057 C61.1642731,19.3246256 62.6213216,19.8855507 64.1162996,19.8855507 C65.5866079,19.8855507 67.0566079,19.3372687 67.0566079,17.6427753 C67.0566079,16.4469163 66.0473128,16.0731718 65.0130396,15.8363436 C64.0043612,15.5998238 63.0074009,15.5125551 63.0074009,14.8773128 C63.0074009,14.3540088 63.593304,14.2793833 63.9917181,14.2793833 C64.6272687,14.2793833 65.1502643,14.4662555 65.2002203,15.1514537 L66.8820705,15.1514537 C66.7448458,13.569207 65.4493833,13.0955507 64.041674,13.0955507 C62.6586344,13.0955507 61.2388987,13.5195595 61.2388987,15.1637885 C61.2388987,16.2973568 62.2602203,16.6587665 63.2818502,16.8829515 C64.5526432,17.1570925 65.287489,17.3439648 65.287489,17.8796035 C65.287489,18.502511 64.6392952,18.7017181 64.1289427,18.7017181 C63.4311013,18.7017181 62.7835242,18.3902643 62.7708811,17.6181057 L61.0890308,17.6181057" id="Fill-14" fill="#D9222A" sketch:type="MSShapeGroup"></path>
                    <path d="M39.5210132,7.27475771 C39.5210132,8.19832599 39.1238326,9.04634361 38.2218502,9.04634361 C37.3192511,9.04634361 36.9220705,8.19832599 36.9220705,7.27475771 C36.9220705,6.34039648 37.3192511,5.49176211 38.2218502,5.49176211 C39.1238326,5.49176211 39.5210132,6.34039648 39.5210132,7.27475771 L39.5210132,7.27475771 L39.5210132,7.27475771 Z M35.4511454,10.0454626 L36.900793,10.0454626 L36.900793,9.33651982 L36.9220705,9.33651982 C37.2551101,9.94863436 37.9319824,10.1959471 38.7479295,10.1959471 C39.8540529,10.1959471 41.0462115,9.30444934 41.0462115,7.26396476 C41.0462115,5.23427313 39.8540529,4.34277533 38.7479295,4.34277533 C38.0608811,4.34277533 37.3732159,4.60026432 36.9976211,5.16982379 L36.9757269,5.16982379 L36.9757269,2.37722467 L35.4511454,2.37722467 L35.4511454,10.0454626 L35.4511454,10.0454626 L35.4511454,10.0454626 Z" id="Fill-15" fill="#FFFFFF" sketch:type="MSShapeGroup"></path>
                    <path d="M42.9460793,6.67312775 C42.9679736,6.24356828 43.2467401,5.49176211 44.2134802,5.49176211 C44.9544934,5.49176211 45.2872247,5.89973568 45.4269163,6.67312775 L42.9460793,6.67312775 L42.9460793,6.67312775 L42.9460793,6.67312775 Z M46.9521145,7.63955947 C47.0591189,5.93211454 46.1463436,4.34277533 44.2563436,4.34277533 C42.5701762,4.34277533 41.4208811,5.60986784 41.4208811,7.27475771 C41.4208811,8.99299559 42.5060352,10.1959471 44.2563436,10.1959471 C45.5129515,10.1959471 46.4260352,9.63718062 46.8552863,8.3269163 L45.5129515,8.3269163 C45.4161233,8.6707489 44.9224229,9.04634361 44.31,9.04634361 C43.4613656,9.04634361 42.9892511,8.60629956 42.9460793,7.63955947 L46.9521145,7.63955947 L46.9521145,7.63955947 L46.9521145,7.63955947 Z" id="Fill-16" fill="#FFFFFF" sketch:type="MSShapeGroup"></path>
                    <path d="M47.2632599,8.24118943 C47.3274009,9.71242291 48.5837004,10.1959471 49.8723789,10.1959471 C51.1397797,10.1959471 52.4071806,9.72321586 52.4071806,8.26246696 C52.4071806,7.23189427 51.5372687,6.90933921 50.6454626,6.70550661 C49.7761674,6.50136564 48.9170485,6.42612335 48.9170485,5.87845815 C48.9170485,5.42731278 49.4215419,5.36286344 49.7650661,5.36286344 C50.3130396,5.36286344 50.7638767,5.52414097 50.8067401,6.1146696 L52.256696,6.1146696 C52.1385903,4.7507489 51.021674,4.34277533 49.8082379,4.34277533 C48.6160793,4.34277533 47.3921586,4.70788546 47.3921586,6.12546256 C47.3921586,7.10268722 48.2725551,7.41414097 49.1529515,7.60748899 C50.2488987,7.84370044 50.8822907,8.00497797 50.8822907,8.46660793 C50.8822907,9.00378855 50.3235242,9.17555066 49.8834802,9.17555066 C49.2818502,9.17555066 48.7233921,8.90696035 48.7125991,8.24118943 L47.2632599,8.24118943" id="Fill-17" fill="#FFFFFF" sketch:type="MSShapeGroup"></path>
                    <path d="M54.9077533,2.82837004 L53.3825551,2.82837004 L53.3825551,4.49295154 L52.4592952,4.49295154 L52.4592952,5.51334802 L53.3825551,5.51334802 L53.3825551,8.78885463 C53.3825551,9.89497797 54.1991189,10.1099119 55.1331718,10.1099119 C55.434141,10.1099119 55.7665639,10.0991189 56.0246696,10.0562555 L56.0246696,8.86409692 C55.8633921,8.89647577 55.7135242,8.90696035 55.5522467,8.90696035 C55.0369604,8.90696035 54.9077533,8.77806167 54.9077533,8.26246696 L54.9077533,5.51334802 L56.0246696,5.51334802 L56.0246696,4.49295154 L54.9077533,4.49295154 L54.9077533,2.82837004" id="Fill-18" fill="#FFFFFF" sketch:type="MSShapeGroup"></path>
                    <path d="M59.3513656,7.27475771 C59.3513656,5.92132159 60.1247577,5.16982379 61.0800881,5.16982379 C62.0363436,5.16982379 62.8094273,5.92132159 62.8094273,7.27475771 C62.8094273,8.61709251 62.0363436,9.36859031 61.0800881,9.36859031 C60.1247577,9.36859031 59.3513656,8.61709251 59.3513656,7.27475771 L59.3513656,7.27475771 L59.3513656,7.27475771 Z M58.3849339,7.27475771 C58.3849339,8.89647577 59.3189868,10.1740529 61.0800881,10.1740529 C62.8418062,10.1740529 63.775859,8.89647577 63.775859,7.27475771 C63.775859,5.64193833 62.8418062,4.36405286 61.0800881,4.36405286 C59.3189868,4.36405286 58.3849339,5.64193833 58.3849339,7.27475771 L58.3849339,7.27475771 L58.3849339,7.27475771 Z" id="Fill-19" fill="#FFFFFF" sketch:type="MSShapeGroup"></path>
                    <path d="M64.9032599,10.0454626 L65.8160352,10.0454626 L65.8160352,5.2984141 L66.8900881,5.2984141 L66.8900881,4.49295154 L65.8160352,4.49295154 L65.8160352,3.71986784 C65.8160352,3.23665198 66.0738326,3.09696035 66.514185,3.09696035 C66.6751542,3.09696035 66.8688106,3.11823789 67.0297797,3.17220264 L67.0297797,2.37722467 C66.8577093,2.32387665 66.6107048,2.2914978 66.4389427,2.2914978 C65.4401322,2.2914978 64.9032599,2.7639207 64.9032599,3.66621145 L64.9032599,4.49295154 L63.9682819,4.49295154 L63.9682819,5.2984141 L64.9032599,5.2984141 L64.9032599,10.0454626" id="Fill-20" fill="#FFFFFF" sketch:type="MSShapeGroup"></path>
                    <path d="M35.459163,58.3766079 C35.6173568,57.8671806 35.8551101,57.4222026 36.1714978,57.0413656 C36.4878855,56.6605286 36.8859912,56.3638767 37.365815,56.1511013 C37.8456388,55.938326 38.3970044,55.8319383 39.0202203,55.8319383 C39.4951101,55.8319383 39.9477974,55.9062555 40.3779736,56.0545815 C40.8084581,56.2029075 41.1865198,56.4156828 41.5130837,56.6925991 C41.8393392,56.9698238 42.0992952,57.3108811 42.2920264,57.7163877 C42.4847577,58.1222026 42.5812775,58.5770485 42.5812775,59.0812335 C42.5812775,59.6057709 42.4974009,60.0556828 42.3290308,60.4315859 C42.1606608,60.807489 41.9380176,61.1414537 41.6614097,61.4331718 C41.384185,61.7251982 41.0702643,61.9894714 40.7193392,62.2269163 C40.3677974,62.4643612 40.0144053,62.6993392 39.6582379,62.9318502 C39.3023789,63.1643612 38.9557709,63.414141 38.6196476,63.6808811 C38.2832159,63.9479295 37.9865639,64.2596916 37.7293833,64.615859 L42.640793,64.615859 L42.640793,66.4259912 L35.014185,66.4259912 C35.014185,65.8228194 35.1005286,65.2982819 35.2738326,64.853304 C35.4468282,64.4080176 35.6818062,64.0099119 35.9784581,63.6589868 C36.2754185,63.3077533 36.624185,62.9836564 37.0247577,62.6870044 C37.4253304,62.3900441 37.8481057,62.0887665 38.2933921,61.7819383 C38.5206608,61.6237445 38.7630396,61.4627753 39.0202203,61.2996476 C39.2774009,61.1365198 39.5123789,60.9561233 39.7251542,60.7581498 C39.9376211,60.5604846 40.115859,60.3378414 40.2592511,60.0902203 C40.4026432,59.8432159 40.4744934,59.5613656 40.4744934,59.2446696 C40.4744934,58.7401762 40.328326,58.3470044 40.0366079,58.0648458 C39.7448899,57.7829956 39.3711454,57.6420705 38.9162996,57.6420705 C38.6097797,57.6420705 38.3501322,57.7139207 38.1376652,57.8573128 C37.9245815,58.0007048 37.7540529,58.1888106 37.6257709,58.4213216 C37.4968722,58.6538326 37.4052863,58.9107048 37.3513216,59.1925551 C37.2967401,59.4744053 37.2692952,59.7544053 37.2692952,60.0310132 L35.25163,60.0310132 C35.2315859,59.4374009 35.3009692,58.8863436 35.459163,58.3766079" id="Fill-21" fill="#D9222A" sketch:type="MSShapeGroup"></path>
                    <path d="M45.6729956,62.2639207 C45.6927313,62.6845374 45.7547137,63.0900441 45.8586344,63.4807489 C45.9625551,63.8714537 46.1278414,64.2054185 46.3554185,64.4823348 C46.5829956,64.7592511 46.9095595,64.8977093 47.3348018,64.8977093 C47.7699119,64.8977093 48.1038767,64.7592511 48.3363877,64.4823348 C48.5685903,64.2054185 48.7369604,63.8714537 48.8408811,63.4807489 C48.9448018,63.0900441 49.0064758,62.6845374 49.0265198,62.2639207 C49.0462555,61.8439207 49.0561233,61.4852863 49.0561233,61.188326 C49.0561233,61.0100881 49.053348,60.7951542 49.0487225,60.5429075 C49.0437885,60.2906608 49.0237445,60.0310132 48.989207,59.7639648 C48.9546696,59.4969163 48.905022,59.2323348 48.8408811,58.9702203 C48.7764317,58.7081057 48.6802203,58.4731278 48.55163,58.2652863 C48.4230396,58.0577533 48.2596035,57.8896916 48.0619383,57.760793 C47.8639648,57.632511 47.6215859,57.5680617 47.3348018,57.5680617 C47.0480176,57.5680617 46.8081057,57.632511 46.6153744,57.760793 C46.4223348,57.8896916 46.264141,58.0577533 46.1404846,58.2652863 C46.0168282,58.4731278 45.9203084,58.7081057 45.8512335,58.9702203 C45.7818502,59.2323348 45.732511,59.4969163 45.7029075,59.7639648 C45.6729956,60.0310132 45.6557269,60.2906608 45.650793,60.5429075 C45.645859,60.7951542 45.6433921,61.0100881 45.6433921,61.188326 C45.6433921,61.4852863 45.6532599,61.8439207 45.6729956,62.2639207 L45.6729956,62.2639207 L45.6729956,62.2639207 Z M43.8406608,58.6436564 C44.0432599,57.9562996 44.3177093,57.4049339 44.6640088,56.9892511 C45.0103084,56.5738767 45.4136564,56.2772247 45.8734361,56.0989868 C46.3335242,55.9210573 46.8204405,55.8319383 47.3348018,55.8319383 C47.8590308,55.8319383 48.3511894,55.9210573 48.8112775,56.0989868 C49.2710573,56.2772247 49.6765639,56.5738767 50.0277974,56.9892511 C50.3790308,57.4049339 50.6559471,57.9562996 50.8588546,58.6436564 C51.0614537,59.3313216 51.1629075,60.1793392 51.1629075,61.188326 C51.1629075,62.2269163 51.0614537,63.094978 50.8588546,63.7922026 C50.6559471,64.4897357 50.3790308,65.0460352 50.0277974,65.4614097 C49.6765639,65.8770925 49.2710573,66.1737445 48.8112775,66.351674 C48.3511894,66.5296035 47.8590308,66.6187225 47.3348018,66.6187225 C46.8204405,66.6187225 46.3335242,66.5296035 45.8734361,66.351674 C45.4136564,66.1737445 45.0103084,65.8770925 44.6640088,65.4614097 C44.3177093,65.0460352 44.0432599,64.4897357 43.8406608,63.7922026 C43.6377533,63.094978 43.5366079,62.2269163 43.5366079,61.188326 C43.5366079,60.1793392 43.6377533,59.3313216 43.8406608,58.6436564 L43.8406608,58.6436564 L43.8406608,58.6436564 Z" id="Fill-22" fill="#D9222A" sketch:type="MSShapeGroup"></path>
                    <path d="M57.3901322,66.4460352 L55.2679295,66.4460352 L55.2679295,59.6606608 L52.6372247,59.6606608 L52.6372247,58.0614537 C54.1170925,58.0913656 55.4770044,57.5831718 55.7011894,55.9839648 L57.3901322,55.9839648 L57.3901322,66.4460352" id="Fill-23" fill="#D9222A" sketch:type="MSShapeGroup"></path>
                    <path d="M62.3838767,61.2897797 C62.1670925,61.3952423 61.9885463,61.5389427 61.8476211,61.7199559 C61.706696,61.9009692 61.6009251,62.1100441 61.5309251,62.3465639 C61.46,62.5830837 61.4251542,62.8322467 61.4251542,63.0937445 C61.4251542,63.3351982 61.4627753,63.5744934 61.538326,63.8110132 C61.6135683,64.047533 61.7245815,64.2587665 61.8704405,64.445022 C62.0162996,64.6312775 62.1948458,64.7796035 62.4063877,64.8903084 C62.6179295,65.0013216 62.8590749,65.0565198 63.1310573,65.0565198 C63.3925551,65.0565198 63.621674,65.0013216 63.8181057,64.8903084 C64.0142291,64.7796035 64.1825991,64.6337445 64.3238326,64.4527313 C64.4644493,64.2714097 64.5702203,64.0651101 64.640837,63.8335242 C64.7111454,63.6022467 64.7462996,63.3657269 64.7462996,63.1239648 C64.7462996,62.8723348 64.7136123,62.6284141 64.6482379,62.3918943 C64.5825551,62.1553744 64.4848018,61.944141 64.3540529,61.7575771 C64.2229956,61.57163 64.0543172,61.4205286 63.8480176,61.3048899 C63.6417181,61.1892511 63.4027313,61.1312775 63.1310573,61.1312775 C62.849207,61.1312775 62.6000441,61.1840088 62.3838767,61.2897797 L62.3838767,61.2897797 L62.3838767,61.2897797 Z M64.1878414,57.8400441 C63.9362115,57.5782379 63.624141,57.447489 63.25163,57.447489 C62.8692511,57.447489 62.5497797,57.5606608 62.2932159,57.7870044 C62.036652,58.0136564 61.8328194,58.2905727 61.6817181,58.6174449 C61.5309251,58.9446256 61.4199119,59.2943172 61.3496035,59.6668282 C61.2789868,60.0393392 61.2385903,60.3714537 61.2287225,60.6631718 L61.2589427,60.6933921 C61.5506608,60.2706167 61.8929515,59.9687225 62.2855066,59.7877093 C62.6780617,59.6063877 63.1310573,59.5157269 63.644185,59.5157269 C64.0971806,59.5157269 64.54,59.6137885 64.9729515,59.8102203 C65.4055947,60.0063436 65.7731718,60.2706167 66.0750661,60.6027313 C66.3566079,60.924978 66.5629075,61.2922467 66.6939648,61.7048458 C66.8247137,62.1177533 66.8903965,62.5352863 66.8903965,62.9577533 C66.8903965,63.5014097 66.8018943,64.0071366 66.6261233,64.4752423 C66.4497357,64.9430396 66.1981057,65.3510132 65.8712335,65.6982379 C65.5440529,66.0454626 65.1539648,66.3171366 64.7012775,66.5132599 C64.2482819,66.7096916 63.745022,66.8077533 63.1914978,66.8077533 C62.3962115,66.8077533 61.7369163,66.6492511 61.2136123,66.3319383 C60.6903084,66.0152423 60.272467,65.5998678 59.9607048,65.0864317 C59.6486344,64.573304 59.4321586,63.9920264 59.3115859,63.3429075 C59.1907048,62.6937885 59.1302643,62.0320264 59.1302643,61.3576211 C59.1302643,60.7035683 59.205815,60.0495154 59.3566079,59.3951542 C59.5077093,58.740793 59.749163,58.1496476 60.0815859,57.6211013 C60.4133921,57.0925551 60.8411013,56.6623789 61.3647137,56.3302643 C61.8877093,55.9981498 62.5272687,55.8319383 63.2821586,55.8319383 C63.7348458,55.8319383 64.1576211,55.8976211 64.5501762,56.02837 C64.9427313,56.1591189 65.2899559,56.3478414 65.5918502,56.5945374 C65.8937445,56.8412335 66.1404405,57.1452863 66.33163,57.5079295 C66.5228194,57.8702643 66.6486344,58.2877974 66.7090749,58.760837 L64.6710573,58.760837 C64.6004405,58.4086784 64.4394714,58.1018502 64.1878414,57.8400441 L64.1878414,57.8400441 L64.1878414,57.8400441 Z" id="Fill-24" fill="#D9222A" sketch:type="MSShapeGroup"></path>
                    <path d="M4.64806167,52.9039648 C3.79726872,52.9039648 3.50123348,52.1644934 3.50123348,51.3874009 C3.50123348,50.6106167 3.77876652,49.8430837 4.63881057,49.8430837 C5.48004405,49.8430837 5.78563877,50.6291189 5.78563877,51.3874009 C5.78563877,52.1644934 5.50810573,52.9039648 4.64806167,52.9039648 L4.64806167,52.9039648 L4.64806167,52.9039648 Z M2.23444934,55.4470925 L3.54748899,55.4470925 L3.54748899,53.1722467 L3.56599119,53.1722467 C3.88022026,53.6434361 4.42603524,53.8935242 4.99929515,53.8935242 C6.39590308,53.8935242 7.09867841,52.7004405 7.09867841,51.4240969 C7.09867841,50.0651101 6.42365639,48.8535242 4.92559471,48.8535242 C4.33352423,48.8535242 3.81577093,49.0848018 3.50123348,49.593304 L3.48273128,49.593304 L3.48273128,48.9830396 L2.23444934,48.9830396 L2.23444934,55.4470925 L2.23444934,55.4470925 L2.23444934,55.4470925 Z" id="Fill-25" fill="#FFFFFF" sketch:type="MSShapeGroup"></path>
                    <path d="M12.1840088,48.9830396 L10.8709692,48.9830396 L10.8709692,51.4888546 C10.8709692,52.4602203 10.5656828,52.8577093 9.85365639,52.8577093 C9.2430837,52.8577093 9.01211454,52.4694714 9.01211454,51.6834361 L9.01211454,48.9830396 L7.69876652,48.9830396 L7.69876652,51.9236564 C7.69876652,53.107489 8.05,53.8935242 9.44660793,53.8935242 C10.0013656,53.8935242 10.5749339,53.634185 10.9079736,53.0982379 L10.9354185,53.0982379 L10.9354185,53.7640088 L12.1840088,53.7640088 L12.1840088,48.9830396" id="Fill-26" fill="#FFFFFF" sketch:type="MSShapeGroup"></path>
                    <path d="M16.5008811,51.3781498 C16.5008811,52.1734361 16.1585903,52.9039648 15.3821145,52.9039648 C14.6053304,52.9039648 14.2630396,52.1734361 14.2630396,51.3781498 C14.2630396,50.573304 14.6053304,49.8430837 15.3821145,49.8430837 C16.1585903,49.8430837 16.5008811,50.573304 16.5008811,51.3781498 L16.5008811,51.3781498 L16.5008811,51.3781498 Z M12.9962555,53.7640088 L14.2445374,53.7640088 L14.2445374,53.1537445 L14.2630396,53.1537445 C14.5498238,53.6810573 15.1323348,53.8935242 15.8351101,53.8935242 C16.7876652,53.8935242 17.8142291,53.1259912 17.8142291,51.3688987 C17.8142291,49.6207489 16.7876652,48.8535242 15.8351101,48.8535242 C15.243348,48.8535242 14.6515859,49.0752423 14.3277974,49.565859 L14.3092952,49.565859 L14.3092952,47.1611894 L12.9962555,47.1611894 L12.9962555,53.7640088 L12.9962555,53.7640088 L12.9962555,53.7640088 Z" id="Fill-27" fill="#FFFFFF" sketch:type="MSShapeGroup"></path>
                    <path d="M18.4975771,53.7640088 L19.8106167,53.7640088 L19.8106167,47.1611894 L18.4975771,47.1611894 L18.4975771,53.7640088 L18.4975771,53.7640088 Z" id="Fill-28" fill="#FFFFFF" sketch:type="MSShapeGroup"></path>
                    <path d="M20.6968722,48.2432599 L22.0102203,48.2432599 L22.0102203,47.1611894 L20.6968722,47.1611894 L20.6968722,48.2432599 L20.6968722,48.2432599 Z M20.6968722,53.7640088 L22.0102203,53.7640088 L22.0102203,48.9830396 L20.6968722,48.9830396 L20.6968722,53.7640088 L20.6968722,53.7640088 Z" id="Fill-29" fill="#FFFFFF" sketch:type="MSShapeGroup"></path>
                    <path d="M27.4002203,50.665815 C27.3169604,49.4452863 26.2811454,48.8535242 25.1528194,48.8535242 C23.5992511,48.8535242 22.7114537,49.9540969 22.7114537,51.4429075 C22.7114537,52.8762115 23.682511,53.8935242 25.1250661,53.8935242 C26.3829075,53.8935242 27.2614537,53.2 27.4279736,51.9332159 L26.1608811,51.9332159 C26.0776211,52.5157269 25.7260793,52.9039648 25.115815,52.9039648 C24.2927753,52.9039648 24.0244934,52.0809251 24.0244934,51.396652 C24.0244934,50.6938767 24.3023348,49.8430837 25.1435683,49.8430837 C25.6893833,49.8430837 26.0313656,50.1295595 26.1146256,50.665815 L27.4002203,50.665815" id="Fill-30" fill="#FFFFFF" sketch:type="MSShapeGroup"></path>
                    <path d="M30.6982379,50.4536564 C30.7444934,49.9352863 31.0679736,49.7320705 31.567533,49.7320705 C32.0297797,49.7320705 32.418326,49.8153304 32.418326,50.3793392 C32.418326,50.9162115 31.6692952,50.8878414 30.8647577,51.0084141 C30.0509692,51.1191189 29.2371806,51.3781498 29.2371806,52.4602203 C29.2371806,53.4402203 29.9584581,53.8935242 30.8647577,53.8935242 C31.4472687,53.8935242 32.0578414,53.7359471 32.4738326,53.3014537 C32.4830837,53.4590308 32.5200881,53.6159912 32.5663436,53.7640088 L33.8978855,53.7640088 C33.7776211,53.5697357 33.731674,53.1352423 33.731674,52.7004405 L33.731674,50.2128194 C33.731674,49.0662996 32.5848458,48.8535242 31.6322907,48.8535242 C30.5597797,48.8535242 29.459207,49.2232599 29.3851982,50.4536564 L30.6982379,50.4536564 L30.6982379,50.4536564 L30.6982379,50.4536564 Z M32.418326,51.9147137 C32.418326,52.2011894 32.3813216,53.014978 31.3547577,53.014978 C30.9295154,53.014978 30.5502203,52.895022 30.5502203,52.4047137 C30.5502203,51.9236564 30.9202643,51.7848899 31.3270044,51.7019383 C31.7340529,51.6276211 32.1962996,51.6186784 32.418326,51.4240969 L32.418326,51.9147137 L32.418326,51.9147137 L32.418326,51.9147137 Z" id="Fill-31" fill="#FFFFFF" sketch:type="MSShapeGroup"></path>
                    <path d="M34.8501322,53.7640088 L36.1634802,53.7640088 L36.1634802,49.8618943 L37.0694714,49.8618943 L37.0694714,48.9830396 L36.1634802,48.9830396 L36.1634802,48.6962555 C36.1634802,48.2984581 36.3114978,48.1507489 36.6627313,48.1507489 C36.8292511,48.1507489 36.9865198,48.1596916 37.1434802,48.1785022 L37.1434802,47.1981938 C36.9214537,47.1889427 36.6809251,47.1611894 36.4499559,47.1611894 C35.3771366,47.1611894 34.8501322,47.7714537 34.8501322,48.6129956 L34.8501322,48.9830396 L34.0637885,48.9830396 L34.0637885,49.8618943 L34.8501322,49.8618943 L34.8501322,53.7640088" id="Fill-32" fill="#FFFFFF" sketch:type="MSShapeGroup"></path>
                    <path d="M37.575815,53.7640088 L38.8888546,53.7640088 L38.8888546,49.8618943 L39.7951542,49.8618943 L39.7951542,48.9830396 L38.8888546,48.9830396 L38.8888546,48.6962555 C38.8888546,48.2984581 39.0365639,48.1507489 39.3877974,48.1507489 C39.5546256,48.1507489 39.7115859,48.1596916 39.869163,48.1785022 L39.869163,47.1981938 C39.6471366,47.1889427 39.4066079,47.1611894 39.1753304,47.1611894 C38.1028194,47.1611894 37.575815,47.7714537 37.575815,48.6129956 L37.575815,48.9830396 L36.7894714,48.9830396 L36.7894714,49.8618943 L37.575815,49.8618943 L37.575815,53.7640088" id="Fill-33" fill="#FFFFFF" sketch:type="MSShapeGroup"></path>
                    <path d="M41.4384581,50.4536564 C41.4844053,49.9352863 41.8081938,49.7320705 42.3074449,49.7320705 C42.77,49.7320705 43.1588546,49.8153304 43.1588546,50.3793392 C43.1588546,50.9162115 42.409207,50.8878414 41.604978,51.0084141 C40.7911894,51.1191189 39.9770925,51.3781498 39.9770925,52.4602203 C39.9770925,53.4402203 40.69837,53.8935242 41.604978,53.8935242 C42.187489,53.8935242 42.7977533,53.7359471 43.2143612,53.3014537 C43.223304,53.4590308 43.2603084,53.6159912 43.3065639,53.7640088 L44.6381057,53.7640088 C44.5178414,53.5697357 44.4715859,53.1352423 44.4715859,52.7004405 L44.4715859,50.2128194 C44.4715859,49.0662996 43.3247577,48.8535242 42.372511,48.8535242 C41.3,48.8535242 40.1991189,49.2232599 40.1257269,50.4536564 L41.4384581,50.4536564 L41.4384581,50.4536564 L41.4384581,50.4536564 Z M43.1588546,51.9147137 C43.1588546,52.2011894 43.1215419,53.014978 42.0952863,53.014978 C41.6697357,53.014978 41.2901322,52.895022 41.2901322,52.4047137 C41.2901322,51.9236564 41.6604846,51.7848899 42.067533,51.7019383 C42.4742731,51.6276211 42.9365198,51.6186784 43.1588546,51.4240969 L43.1588546,51.9147137 L43.1588546,51.9147137 L43.1588546,51.9147137 Z" id="Fill-34" fill="#FFFFFF" sketch:type="MSShapeGroup"></path>
                    <path d="M45.3405727,48.2432599 L46.6539207,48.2432599 L46.6539207,47.1611894 L45.3405727,47.1611894 L45.3405727,48.2432599 L45.3405727,48.2432599 Z M45.3405727,53.7640088 L46.6539207,53.7640088 L46.6539207,48.9830396 L45.3405727,48.9830396 L45.3405727,53.7640088 L45.3405727,53.7640088 Z" id="Fill-35" fill="#FFFFFF" sketch:type="MSShapeGroup"></path>
                    <path d="M47.5028634,53.7640088 L48.8162115,53.7640088 L48.8162115,51.6094273 C48.8162115,50.7675771 49.1489427,50.0740529 50.1107489,50.0740529 C50.2680176,50.0740529 50.4622907,50.0928634 50.5822467,50.1203084 L50.5822467,48.9000881 C50.4996035,48.8720264 50.3879736,48.8535242 50.2960793,48.8535242 C49.6577533,48.8535242 49.0104846,49.2695154 48.7699559,49.8705286 L48.7514537,49.8705286 L48.7514537,48.9830396 L47.5028634,48.9830396 L47.5028634,53.7640088" id="Fill-36" fill="#FFFFFF" sketch:type="MSShapeGroup"></path>
                    <path d="M50.6827753,52.2104405 C50.7382819,53.4772247 51.8200441,53.8935242 52.9301762,53.8935242 C54.0218062,53.8935242 55.112511,53.4867841 55.112511,52.2289427 C55.112511,51.3414537 54.3634802,51.0636123 53.5959471,50.8878414 C52.8466079,50.7123789 52.1074449,50.6476211 52.1074449,50.175815 C52.1074449,49.7875771 52.54163,49.7320705 52.8379736,49.7320705 C53.309163,49.7320705 53.6980176,49.8705286 53.7344053,50.3793392 L54.9829956,50.3793392 C54.8818502,49.2050661 53.9197357,48.8535242 52.8746696,48.8535242 C51.8481057,48.8535242 50.7937885,49.1680617 50.7937885,50.3885903 C50.7937885,51.2301322 51.5520705,51.4981057 52.3106608,51.6649339 C53.2539648,51.8684581 53.799163,52.0069163 53.799163,52.4047137 C53.799163,52.8669604 53.3184141,53.014978 52.9394273,53.014978 C52.4210573,53.014978 51.9409251,52.7837004 51.9313656,52.2104405 L50.6827753,52.2104405" id="Fill-37" fill="#FFFFFF" sketch:type="MSShapeGroup"></path>
                    <path d="M5.75511013,58.5499119 C5.75511013,59.349207 5.4115859,60.0828194 4.63079295,60.0828194 C3.85092511,60.0828194 3.50678414,59.349207 3.50678414,58.5499119 C3.50678414,57.7413656 3.85092511,57.0080617 4.63079295,57.0080617 C5.4115859,57.0080617 5.75511013,57.7413656 5.75511013,58.5499119 L5.75511013,58.5499119 L5.75511013,58.5499119 Z M2.23444934,60.9471806 L3.48828194,60.9471806 L3.48828194,60.334141 L3.50678414,60.334141 C3.79511013,60.863304 4.38039648,61.076696 5.08625551,61.076696 C6.04343612,61.076696 7.07431718,60.3057709 7.07431718,58.5409692 C7.07431718,56.7851101 6.04343612,56.014185 5.08625551,56.014185 C4.49171806,56.014185 3.89718062,56.2371366 3.57215859,56.7296035 L3.55334802,56.7296035 L3.55334802,54.3138326 L2.23444934,54.3138326 L2.23444934,60.9471806 L2.23444934,60.9471806 L2.23444934,60.9471806 Z" id="Fill-38" fill="#D9222A" sketch:type="MSShapeGroup"></path>
                    <path d="M7.72374449,60.9471806 L9.04295154,60.9471806 L9.04295154,58.7821145 C9.04295154,57.9368722 9.37753304,57.2402643 10.343348,57.2402643 C10.5012335,57.2402643 10.6964317,57.2584581 10.8173128,57.2868282 L10.8173128,56.0601322 C10.7337445,56.0323789 10.6221145,56.014185 10.5292952,56.014185 C9.88819383,56.014185 9.23814978,56.4317181 8.99638767,57.0355066 L8.97788546,57.0355066 L8.97788546,56.1443172 L7.72374449,56.1443172 L7.72374449,60.9471806" id="Fill-39" fill="#D9222A" sketch:type="MSShapeGroup"></path>
                    <path d="M12.1537885,58.5499119 C12.1537885,57.7792952 12.423304,57.0080617 13.3151101,57.0080617 C14.2161674,57.0080617 14.4859912,57.7792952 14.4859912,58.5499119 C14.4859912,59.3122026 14.2161674,60.0828194 13.3151101,60.0828194 C12.423304,60.0828194 12.1537885,59.3122026 12.1537885,58.5499119 L12.1537885,58.5499119 L12.1537885,58.5499119 Z M10.8345815,58.5499119 C10.8345815,60.0738767 11.8105727,61.076696 13.3151101,61.076696 C14.829207,61.076696 15.8045815,60.0738767 15.8045815,58.5499119 C15.8045815,57.0176211 14.829207,56.014185 13.3151101,56.014185 C11.8105727,56.014185 10.8345815,57.0176211 10.8345815,58.5499119 L10.8345815,58.5499119 L10.8345815,58.5499119 Z" id="Fill-40" fill="#D9222A" sketch:type="MSShapeGroup"></path>
                    <path d="M16.4728194,60.9471806 L17.7920264,60.9471806 L17.7920264,58.4296476 C17.7920264,57.4542731 18.0985463,57.0546256 18.8139648,57.0546256 C19.4270044,57.0546256 19.659207,57.4447137 19.659207,58.2338326 L19.659207,60.9471806 L20.9784141,60.9471806 L20.9784141,57.9929956 C20.9784141,56.803304 20.6253304,56.014185 19.2228634,56.014185 C18.6653304,56.014185 18.0892952,56.2738326 17.755022,56.8125551 L17.7269604,56.8125551 L17.7269604,56.1443172 L16.4728194,56.1443172 L16.4728194,60.9471806" id="Fill-41" fill="#D9222A" sketch:type="MSShapeGroup"></path>
                    <path d="M21.4977093,60.9471806 L25.9101762,60.9471806 L25.9101762,59.9526872 L23.2344493,59.9526872 L25.7331718,57.1378855 L25.7331718,56.1443172 L21.6830396,56.1443172 L21.6830396,57.1378855 L23.9961233,57.1378855 L21.4977093,59.9526872 L21.4977093,60.9471806" id="Fill-42" fill="#D9222A" sketch:type="MSShapeGroup"></path>
                    <path d="M27.5149339,58.03 C27.5337445,57.6587225 27.7755066,57.0080617 28.6111894,57.0080617 C29.2519824,57.0080617 29.54,57.3605286 29.6611894,58.03 L27.5149339,58.03 L27.5149339,58.03 L27.5149339,58.03 Z M30.9800881,58.8659912 C31.0729075,57.3888987 30.2831718,56.014185 28.6485022,56.014185 C27.1896035,56.014185 26.1960352,57.1104405 26.1960352,58.5499119 C26.1960352,60.0362555 27.1337885,61.076696 28.6485022,61.076696 C29.7351982,61.076696 30.5246256,60.5937885 30.8968282,59.460837 L29.7351982,59.460837 C29.6513216,59.7577974 29.2245374,60.0828194 28.6944493,60.0828194 C27.960837,60.0828194 27.5525551,59.7019824 27.5149339,58.8659912 L30.9800881,58.8659912 L30.9800881,58.8659912 L30.9800881,58.8659912 Z" id="Fill-43" fill="#D9222A" sketch:type="MSShapeGroup"></path>
                </g>
            </g>
        </g>
    </g>
</svg>