<?xml version="1.0" encoding="UTF-8"?>
<svg width="465px" height="134px" viewBox="0 0 465 134" version="1.1" xmlns="http://www.w3.org/2000/svg" xmlns:xlink="http://www.w3.org/1999/xlink">
    <!-- Generator: Sketch 43.2 (39069) - http://www.bohemiancoding.com/sketch -->
    <title>logo</title>
    <desc>Created with Sketch.</desc>
    <defs>
        <polygon id="path-1" points="0.6666647 136.666662 467.33332 136.666662 467.33332 0.6666654 0.6666647 0.6666654"></polygon>
    </defs>
    <g id="Page-1" stroke="none" stroke-width="1" fill="none" fill-rule="evenodd">
        <g id="logo" transform="translate(-2.000000, -2.000000)">
            <g id="g10" transform="translate(234.000000, 68.686670) scale(-1, 1) rotate(-180.000000) translate(-234.000000, -68.686670) translate(0.000000, 0.186670)">
                <g id="g12">
                    <g id="g14-Clipped">
                        <mask id="mask-2" fill="white">
                            <use xlink:href="#path-1"></use>
                        </mask>
                        <g id="path16"></g>
                        <g id="g14" mask="url(#mask-2)">
                            <g transform="translate(0.666665, 0.666665)">
                                <g id="g20" stroke-width="1" fill="none" fill-rule="evenodd" transform="translate(26.318133, 86.995198)">
                                    <path d="M19.9999995,10.6666664 C19.9999995,15.8533329 15.7959996,20.0573328 10.6093331,20.0573328 C5.42266653,20.0573328 1.21999997,15.8533329 1.21999997,10.6666664 C1.21999997,5.47999986 5.42266653,1.2773333 10.6093331,1.2773333 C15.7959996,1.2773333 19.9999995,5.47999986 19.9999995,10.6666664" id="path22" fill="#005896" fill-rule="nonzero"></path>
                                </g>
                                <g id="g24" stroke-width="1" fill="none" fill-rule="evenodd" transform="translate(54.041999, 86.995198)">
                                    <path d="M19.9999995,10.6666664 C19.9999995,15.8533329 15.7959996,20.0573328 10.6093331,20.0573328 C5.42266653,20.0573328 1.21999997,15.8533329 1.21999997,10.6666664 C1.21999997,5.47999986 5.42266653,1.2773333 10.6093331,1.2773333 C15.7959996,1.2773333 19.9999995,5.47999986 19.9999995,10.6666664" id="path26" fill="#007FC8" fill-rule="nonzero"></path>
                                </g>
                                <g id="g28" stroke-width="1" fill="none" fill-rule="evenodd" transform="translate(81.765998, 86.995198)">
                                    <path d="M19.9999995,10.6666664 C19.9999995,15.8533329 15.7959996,20.0573328 10.6093331,20.0573328 C5.42399986,20.0573328 1.21999997,15.8533329 1.21999997,10.6666664 C1.21999997,5.47999986 5.42399986,1.2773333 10.6093331,1.2773333 C15.7959996,1.2773333 19.9999995,5.47999986 19.9999995,10.6666664" id="path30" fill="#35BCEE" fill-rule="nonzero"></path>
                                </g>
                                <g id="g32" stroke-width="1" fill="none" fill-rule="evenodd" transform="translate(26.318133, 59.271332)">
                                    <path d="M19.9999995,10.6666664 C19.9999995,15.8533329 15.7959996,20.0573328 10.6093331,20.0573328 C5.42266653,20.0573328 1.21999997,15.8533329 1.21999997,10.6666664 C1.21999997,5.47999986 5.42266653,1.27599997 10.6093331,1.27599997 C15.7959996,1.27599997 19.9999995,5.47999986 19.9999995,10.6666664" id="path34" fill="#FFCF21" fill-rule="nonzero"></path>
                                </g>
                                <g id="g36" stroke-width="1" fill="none" fill-rule="evenodd" transform="translate(81.765998, 59.271332)">
                                    <path d="M19.9999995,10.6666664 C19.9999995,15.8533329 15.7959996,20.0573328 10.6093331,20.0573328 C5.42399986,20.0573328 1.21999997,15.8533329 1.21999997,10.6666664 C1.21999997,5.47999986 5.42399986,1.27599997 10.6093331,1.27599997 C15.7959996,1.27599997 19.9999995,5.47999986 19.9999995,10.6666664" id="path38" fill="#35BCEE" fill-rule="nonzero"></path>
                                </g>
                                <g id="g40" stroke-width="1" fill="none" fill-rule="evenodd" transform="translate(30.561599, 118.339597)">
                                    <path d="M11.9999997,6.6666665 C11.9999997,9.77866642 9.4773331,12.301333 6.36533317,12.301333 C3.25466659,12.301333 0.731999982,9.77866642 0.731999982,6.6666665 C0.731999982,3.55599991 3.25466659,1.03199997 6.36533317,1.03199997 C9.4773331,1.03199997 11.9999997,3.55599991 11.9999997,6.6666665" id="path42" fill="#005896" fill-rule="nonzero"></path>
                                </g>
                                <g id="g44" stroke-width="1" fill="none" fill-rule="evenodd" transform="translate(56.163732, 117.006264)">
                                    <path d="M15.9999996,7.9999998 C15.9999996,12.149333 12.637333,15.5119996 8.48799979,15.5119996 C4.33866656,15.5119996 0.975999976,12.149333 0.975999976,7.9999998 C0.975999976,3.8519999 4.33866656,0.487999988 8.48799979,0.487999988 C12.637333,0.487999988 15.9999996,3.8519999 15.9999996,7.9999998" id="path46" fill="#007FC8" fill-rule="nonzero"></path>
                                </g>
                                <g id="g48" stroke-width="1" fill="none" fill-rule="evenodd" transform="translate(81.765998, 114.339597)">
                                    <path d="M19.9999995,10.6666664 C19.9999995,15.8533329 15.7959996,20.0573328 10.6093331,20.0573328 C5.42399986,20.0573328 1.21999997,15.8533329 1.21999997,10.6666664 C1.21999997,5.47999986 5.42399986,1.2773333 10.6093331,1.2773333 C15.7959996,1.2773333 19.9999995,5.47999986 19.9999995,10.6666664" id="path50" fill="#007FC8" fill-rule="nonzero"></path>
                                </g>
                                <g id="g52" stroke-width="1" fill="none" fill-rule="evenodd" transform="translate(26.318133, 31.547333)">
                                    <path d="M19.9999995,10.6666664 C19.9999995,15.8533329 15.7959996,20.0573328 10.6093331,20.0573328 C5.42266653,20.0573328 1.21999997,15.8533329 1.21999997,10.6666664 C1.21999997,5.47999986 5.42266653,1.27599997 10.6093331,1.27599997 C15.7959996,1.27599997 19.9999995,5.47999986 19.9999995,10.6666664" id="path54" fill="#FFCF21" fill-rule="nonzero"></path>
                                </g>
                                <g id="g56" stroke-width="1" fill="none" fill-rule="evenodd" transform="translate(54.041999, 31.547333)">
                                    <path d="M19.9999995,10.6666664 C19.9999995,15.8533329 15.7959996,20.0573328 10.6093331,20.0573328 C5.42266653,20.0573328 1.21999997,15.8533329 1.21999997,10.6666664 C1.21999997,5.47999986 5.42266653,1.27599997 10.6093331,1.27599997 C15.7959996,1.27599997 19.9999995,5.47999986 19.9999995,10.6666664" id="path58" fill="#EE7203" fill-rule="nonzero"></path>
                                </g>
                                <g id="g60" stroke-width="1" fill="none" fill-rule="evenodd" transform="translate(81.765998, 31.547333)">
                                    <path d="M19.9999995,10.6666664 C19.9999995,15.8533329 15.7959996,20.0573328 10.6093331,20.0573328 C5.42399986,20.0573328 1.21999997,15.8533329 1.21999997,10.6666664 C1.21999997,5.47999986 5.42399986,1.27599997 10.6093331,1.27599997 C15.7959996,1.27599997 19.9999995,5.47999986 19.9999995,10.6666664" id="path62" fill="#B81F27" fill-rule="nonzero"></path>
                                </g>
                                <g id="g64" stroke-width="1" fill="none" fill-rule="evenodd" transform="translate(86.741198, 7.823333)">
                                    <path d="M0,6.6666665 C0,3.55466658 2.5226666,1.03199997 5.63466653,1.03199997 C8.74666645,1.03199997 11.2693331,3.55466658 11.2693331,6.6666665 C11.2693331,9.77866642 8.74666645,12.301333 5.63466653,12.301333 C2.5226666,12.301333 0,9.77866642 0,6.6666665" id="path66" fill="#B81F27" fill-rule="nonzero"></path>
                                </g>
                                <g id="g68" stroke-width="1" fill="none" fill-rule="evenodd" transform="translate(57.139732, 6.490000)">
                                    <path d="M0,7.9999998 C0,3.8519999 3.36266658,0.487999988 7.51199981,0.487999988 C11.661333,0.487999988 15.0239996,3.8519999 15.0239996,7.9999998 C15.0239996,12.1479997 11.661333,15.5119996 7.51199981,15.5119996 C3.36266658,15.5119996 0,12.1479997 0,7.9999998" id="path70" fill="#EE7203" fill-rule="nonzero"></path>
                                </g>
                                <g id="g72" stroke-width="1" fill="none" fill-rule="evenodd" transform="translate(27.537466, 3.823333)">
                                    <path d="M0,10.6666664 C0,5.47999986 4.20399989,1.27599997 9.3893331,1.27599997 C14.5759996,1.27599997 18.7799995,5.47999986 18.7799995,10.6666664 C18.7799995,15.8533329 14.5759996,20.0573328 9.3893331,20.0573328 C4.20399989,20.0573328 0,15.8533329 0,10.6666664" id="path74" fill="#EE7203" fill-rule="nonzero"></path>
                                </g>
                                <g id="g76" stroke-width="1" fill="none" fill-rule="evenodd" transform="translate(113.432664, 35.848132)">
                                    <path d="M6.6666665,11.9999997 C3.55599991,11.9999997 1.03199997,9.4773331 1.03199997,6.36533317 C1.03199997,3.25333325 3.55599991,0.731999982 6.6666665,0.731999982 C9.77866642,0.731999982 12.301333,3.25333325 12.301333,6.36533317 C12.301333,9.4773331 9.77866642,11.9999997 6.6666665,11.9999997" id="path78" fill="#B81F27" fill-rule="nonzero"></path>
                                </g>
                                <g id="g80" stroke-width="1" fill="none" fill-rule="evenodd" transform="translate(112.099331, 61.450398)">
                                    <path d="M7.9999998,15.9999996 C3.8519999,15.9999996 0.487999988,12.637333 0.487999988,8.48799979 C0.487999988,4.33866656 3.8519999,0.975999976 7.9999998,0.975999976 C12.149333,0.975999976 15.5119996,4.33866656 15.5119996,8.48799979 C15.5119996,12.637333 12.149333,15.9999996 7.9999998,15.9999996" id="path82" fill="#35BCEE" fill-rule="nonzero"></path>
                                </g>
                                <g id="g84" stroke-width="1" fill="none" fill-rule="evenodd" transform="translate(2.536800, 92.027864)">
                                    <path d="M6.6666665,0 C9.77866642,0 12.301333,2.5226666 12.301333,5.63466653 C12.301333,8.74666645 9.77866642,11.2679997 6.6666665,11.2679997 C3.55599991,11.2679997 1.03199997,8.74666645 1.03199997,5.63466653 C1.03199997,2.5226666 3.55599991,0 6.6666665,0" id="path86" fill="#005896" fill-rule="nonzero"></path>
                                </g>
                                <g id="g88" stroke-width="1" fill="none" fill-rule="evenodd" transform="translate(1.203467, 62.426265)">
                                    <path d="M7.9999998,0 C12.149333,0 15.5119996,3.36266658 15.5119996,7.51199981 C15.5119996,11.661333 12.149333,15.0239996 7.9999998,15.0239996 C3.85066657,15.0239996 0.487999988,11.661333 0.487999988,7.51199981 C0.487999988,3.36266658 3.85066657,0 7.9999998,0" id="path90" fill="#FFCF21" fill-rule="nonzero"></path>
                                </g>
                                <g id="g92" stroke-width="1" fill="none" fill-rule="evenodd" transform="translate(160.125996, 6.587733)">
                                    <path d="M9.3333331,3.9999999 L9.3333331,10.8546664 C8.49599979,11.9799997 7.50133315,12.7119997 6.06266652,12.7119997 C3.91733324,12.7119997 2.55733327,10.9079997 2.55733327,7.24533315 C2.55733327,3.58133324 3.76133324,1.82799995 5.82799985,1.82799995 C7.42399981,1.82799995 8.41733312,2.61333327 9.3333331,3.9999999 L9.3333331,3.9999999 Z M11.5306664,0.389333324 L9.62133309,0.389333324 L9.38666643,2.32533328 C8.52266645,0.965333309 7.13599982,0.0759999981 5.38266653,0.0759999981 C2.05999995,0.0759999981 0.202666662,2.90133326 0.202666662,7.21733315 C0.202666662,11.4306664 2.21733328,14.465333 5.59199986,14.465333 C7.26666648,14.465333 8.44399979,13.681333 9.3333331,12.7386663 L9.3333331,19.9599995 L11.5306664,19.6973328 L11.5306664,0.389333324 Z" id="path94" fill="#002749" fill-rule="nonzero"></path>
                                </g>
                                <g id="g96" stroke-width="1" fill="none" fill-rule="evenodd" transform="translate(174.353862, 6.587733)">
                                    <path d="M9.3333331,3.9999999 L9.3333331,7.27066648 L7.37066648,7.27066648 C4.80666655,7.27066648 3.44666658,6.30266651 3.44666658,4.33999989 C3.44666658,2.66533327 4.30933323,1.75066662 5.95866652,1.75066662 C7.44933315,1.75066662 8.54799979,2.50933327 9.3333331,3.9999999 M12.6826663,1.61866663 L12.1586664,0.0759999981 C10.8253331,0.25866666 9.96133308,0.806666647 9.59466643,2.19466661 C8.62666645,0.729333315 7.16133315,0.0759999981 5.4613332,0.0759999981 C2.73999993,0.0759999981 1.11733331,1.77599996 1.11733331,4.23599989 C1.11733331,7.16533315 3.31599992,8.76133311 7.08399982,8.76133311 L9.3333331,8.76133311 L9.3333331,9.83466642 C9.3333331,11.8746664 8.36533312,12.6599997 6.37733317,12.6599997 C5.33066653,12.6599997 4.07466656,12.3986664 2.66133327,11.901333 L2.11199995,13.5239997 C3.75999991,14.1506663 5.25199987,14.465333 6.76933316,14.465333 C10.0399997,14.465333 11.5306664,12.7906663 11.5306664,9.93866642 L11.5306664,3.55466658 C11.5306664,2.27333328 11.949333,1.87999995 12.6826663,1.61866663" id="path98" fill="#002749" fill-rule="nonzero"></path>
                                </g>
                                <g id="g100" stroke-width="1" fill="none" fill-rule="evenodd" transform="translate(188.030262, 6.663200)">
                                    <path d="M6.6666665,0 C4.39066656,0 3.02933326,1.33466663 3.02933326,3.84666657 L3.02933326,12.3746664 L0.649333317,12.3746664 L0.649333317,14.0759996 L3.02933326,14.0759996 L3.02933326,17.2426662 L5.22799987,17.4759996 L5.22799987,14.0759996 L8.55066645,14.0759996 L8.31466646,12.3746664 L5.22799987,12.3746664 L5.22799987,3.95066657 C5.22799987,2.51199994 5.72399986,1.83066662 6.95466649,1.83066662 C7.60933314,1.83066662 8.1839998,2.01466662 8.86399978,2.43333327 L9.70133309,0.915999977 C8.81199978,0.313333325 7.81733314,0 6.6666665,0" id="path102" fill="#002749" fill-rule="nonzero"></path>
                                </g>
                                <g id="g104" stroke-width="1" fill="none" fill-rule="evenodd" transform="translate(197.840795, 6.587733)">
                                    <path d="M9.3333331,3.9999999 L9.3333331,7.27066648 L7.37066648,7.27066648 C4.80666655,7.27066648 3.44666658,6.30266651 3.44666658,4.33999989 C3.44666658,2.66533327 4.30933323,1.75066662 5.95866652,1.75066662 C7.44933315,1.75066662 8.54799979,2.50933327 9.3333331,3.9999999 M12.6826663,1.61866663 L12.1586664,0.0759999981 C10.8253331,0.25866666 9.96133308,0.806666647 9.59466643,2.19466661 C8.62666645,0.729333315 7.16133315,0.0759999981 5.4613332,0.0759999981 C2.73999993,0.0759999981 1.11733331,1.77599996 1.11733331,4.23599989 C1.11733331,7.16533315 3.31599992,8.76133311 7.08399982,8.76133311 L9.3333331,8.76133311 L9.3333331,9.83466642 C9.3333331,11.8746664 8.36533312,12.6599997 6.37733317,12.6599997 C5.33066653,12.6599997 4.07466656,12.3986664 2.66133327,11.901333 L2.11199995,13.5239997 C3.75999991,14.1506663 5.25199987,14.465333 6.76933316,14.465333 C10.0399997,14.465333 11.5306664,12.7906663 11.5306664,9.93866642 L11.5306664,3.55466658 C11.5306664,2.27333328 11.949333,1.87999995 12.6826663,1.61866663" id="path106" fill="#002749" fill-rule="nonzero"></path>
                                </g>
                                <g id="g108" stroke-width="1" fill="none" fill-rule="evenodd" transform="translate(212.588261, 5.697067)">
                                    <path d="M3.9999999,2.6666666 C3.9999999,1.72533329 3.29333325,0.966666643 2.29999994,0.966666643 C1.3573333,0.966666643 0.625333318,1.72533329 0.625333318,2.6666666 C0.625333318,3.58266658 1.3573333,4.34133322 2.29999994,4.34133322 C3.29333325,4.34133322 3.9999999,3.58266658 3.9999999,2.6666666" id="path110" fill="#002749" fill-rule="nonzero"></path>
                                </g>
                                <g id="g112" stroke-width="1" fill="none" fill-rule="evenodd" transform="translate(224.861061, 6.977066)">
                                    <polygon id="path114" fill="#002749" fill-rule="nonzero" points="11.9999997 0 9.46266643 11.773333 6.84533316 0 3.9159999 0 0.643999984 13.761333 2.86799993 13.761333 5.45866653 1.54399996 8.28399979 13.761333 10.7439997 13.761333 13.465333 1.54399996 16.0813329 13.761333 18.1746662 13.761333 15.0079996 0"></polygon>
                                </g>
                                <g id="g116" stroke-width="1" fill="none" fill-rule="evenodd" transform="translate(244.631861, 5.598133)">
                                    <path d="M9.3333331,9.3333331 C9.3333331,12.105333 8.23466646,13.701333 5.95866652,13.701333 C4.0479999,13.701333 2.7666666,12.341333 2.58399994,9.12399977 L9.3333331,9.12399977 L9.3333331,9.3333331 Z M11.453333,7.50133315 L2.58399994,7.50133315 C2.8186666,4.17866656 4.33599989,2.86933326 6.42933317,2.86933326 C7.8159998,2.86933326 8.83599978,3.26266659 10.0399997,4.0999999 L11.0079997,2.79199993 C9.67333309,1.71866662 8.1559998,1.06533331 6.27199984,1.06533331 C2.4786666,1.06533331 0.25466666,3.75999991 0.25466666,8.12933313 C0.25466666,12.4466664 2.39999994,15.4546663 5.90666652,15.4546663 C9.59466643,15.4546663 11.505333,12.8639997 11.505333,8.70399978 C11.505333,8.23466646 11.4786664,7.78933314 11.453333,7.50133315 L11.453333,7.50133315 Z" id="path118" fill="#002749" fill-rule="nonzero"></path>
                                </g>
                                <g id="g120" stroke-width="1" fill="none" fill-rule="evenodd" transform="translate(259.750394, 5.884533)">
                                    <path d="M9.3333331,7.9999998 C9.3333331,11.9506664 8.02533313,13.4159997 6.01066652,13.4159997 C4.43999989,13.4159997 3.39466658,12.3679997 2.66133327,11.2173331 L2.66133327,4.44133322 C3.39466658,3.31599992 4.51999989,2.5306666 5.82666652,2.5306666 C7.9199998,2.5306666 9.3333331,4.1799999 9.3333331,7.9999998 M11.6879997,7.9999998 C11.6879997,3.65599991 9.67333309,0.778666647 6.32399984,0.778666647 C4.75466655,0.778666647 3.55066658,1.51066663 2.60933327,2.63733327 L2.37333327,1.09199997 L0.463999988,1.09199997 L0.463999988,20.4013328 L2.66133327,20.6626662 L2.66133327,13.101333 C3.60266658,14.3839996 4.91199988,15.1679996 6.61199983,15.1679996 C9.72533309,15.1679996 11.6879997,12.5786664 11.6879997,7.9999998" id="path122" fill="#002749" fill-rule="nonzero"></path>
                                </g>
                                <g id="g124" stroke-width="1" fill="none" fill-rule="evenodd" transform="translate(273.555060, 5.697067)">
                                    <path d="M3.9999999,2.6666666 C3.9999999,1.72533329 3.29333325,0.966666643 2.29999994,0.966666643 C1.3573333,0.966666643 0.625333318,1.72533329 0.625333318,2.6666666 C0.625333318,3.58266658 1.3573333,4.34133322 2.29999994,4.34133322 C3.29333325,4.34133322 3.9999999,3.58266658 3.9999999,2.6666666" id="path126" fill="#002749" fill-rule="nonzero"></path>
                                </g>
                                <g id="g128" stroke-width="1" fill="none" fill-rule="evenodd" transform="translate(286.060260, 6.587733)">
                                    <path d="M9.3333331,3.9999999 L9.3333331,7.27066648 L7.37066648,7.27066648 C4.80666655,7.27066648 3.44666658,6.30266651 3.44666658,4.33999989 C3.44666658,2.66533327 4.30933323,1.75066662 5.95866652,1.75066662 C7.44933315,1.75066662 8.54799979,2.50933327 9.3333331,3.9999999 M12.6826663,1.61866663 L12.1586664,0.0759999981 C10.8239997,0.25866666 9.96133308,0.806666647 9.59466643,2.19466661 C8.62666645,0.729333315 7.16133315,0.0759999981 5.4613332,0.0759999981 C2.73999993,0.0759999981 1.11866664,1.77599996 1.11866664,4.23599989 C1.11866664,7.16533315 3.31466658,8.76133311 7.08399982,8.76133311 L9.3333331,8.76133311 L9.3333331,9.83466642 C9.3333331,11.8746664 8.36399979,12.6599997 6.37599984,12.6599997 C5.33066653,12.6599997 4.07466656,12.3986664 2.66133327,11.901333 L2.11199995,13.5239997 C3.75999991,14.1506663 5.25066654,14.465333 6.76933316,14.465333 C10.0386664,14.465333 11.5306664,12.7906663 11.5306664,9.93866642 L11.5306664,3.55466658 C11.5306664,2.27333328 11.949333,1.87999995 12.6826663,1.61866663" id="path130" fill="#002749" fill-rule="nonzero"></path>
                                </g>
                                <g id="g132" stroke-width="1" fill="none" fill-rule="evenodd" transform="translate(302.198259, 0.551200)">
                                    <path d="M9.3333331,13.333333 C9.3333331,16.9959996 8.23466646,18.7493329 6.08799985,18.7493329 C4.57199989,18.7493329 3.41999991,17.7013329 2.66133327,16.5506663 L2.66133327,9.67066642 C3.39466658,8.57199979 4.49333322,7.91733314 5.82666652,7.91733314 C8.1039998,7.91733314 9.3333331,9.64399976 9.3333331,13.333333 M11.6879997,13.333333 C11.6879997,9.12133311 9.85733309,6.11199985 6.32399984,6.11199985 C4.78133321,6.11199985 3.52533325,6.66133317 2.66133327,7.73466647 L2.66133327,1.16666664 L0.463999988,0.905333311 L0.463999988,20.1879995 L2.34799994,20.1879995 L2.5306666,18.2773329 C3.52533325,19.6919995 4.98933321,20.5013328 6.61199983,20.5013328 C10.2226664,20.5013328 11.6879997,17.7013329 11.6879997,13.333333" id="path134" fill="#002749" fill-rule="nonzero"></path>
                                </g>
                                <g id="g136" stroke-width="1" fill="none" fill-rule="evenodd" transform="translate(317.656659, 0.551200)">
                                    <path d="M9.3333331,13.333333 C9.3333331,16.9959996 8.23466646,18.7493329 6.08799985,18.7493329 C4.57199989,18.7493329 3.41999991,17.7013329 2.66133327,16.5506663 L2.66133327,9.67066642 C3.39466658,8.57199979 4.49333322,7.91733314 5.82666652,7.91733314 C8.1039998,7.91733314 9.3333331,9.64399976 9.3333331,13.333333 M11.6879997,13.333333 C11.6879997,9.12133311 9.85733309,6.11199985 6.32399984,6.11199985 C4.78133321,6.11199985 3.52533325,6.66133317 2.66133327,7.73466647 L2.66133327,1.16666664 L0.463999988,0.905333311 L0.463999988,20.1879995 L2.34799994,20.1879995 L2.5306666,18.2773329 C3.52533325,19.6919995 4.98933321,20.5013328 6.61199983,20.5013328 C10.2226664,20.5013328 11.6879997,17.7013329 11.6879997,13.333333" id="path138" fill="#002749" fill-rule="nonzero"></path>
                                </g>
                                <g id="g140" stroke-width="1" fill="none" fill-rule="evenodd" transform="translate(331.152658, 6.150267)">
                                    <path d="M10.6666664,13.333333 L9.69733309,11.8679997 C8.49466645,12.757333 7.44799981,13.149333 6.13999985,13.149333 C4.51866655,13.149333 3.47199991,12.3906664 3.47199991,11.2133331 C3.47199991,10.0359997 4.25599989,9.5133331 6.53199984,8.91199978 C9.43599976,8.1519998 11.0586664,7.05333316 11.0586664,4.64666655 C11.0586664,1.84799995 8.52133312,0.51333332 5.74799986,0.51333332 C3.41866658,0.51333332 1.79733329,1.27199997 0.593333319,2.31733328 L1.82266662,3.70399991 C2.89599993,2.8146666 4.15066656,2.29199994 5.69466652,2.29199994 C7.52666648,2.29199994 8.75599978,3.15466659 8.75599978,4.43733322 C8.75599978,5.95466652 8.04933313,6.47733317 5.3293332,7.21066649 C2.37199994,7.9959998 1.19466664,9.2253331 1.19466664,11.1879997 C1.19466664,13.333333 3.26133325,14.9026663 6.06133318,14.9026663 C7.94533313,14.9026663 9.35866643,14.3266663 10.6666664,13.333333" id="path142" fill="#002749" fill-rule="nonzero"></path>
                                </g>
                                <g id="g144" stroke-width="1" fill="none" fill-rule="evenodd" transform="translate(343.910525, 5.697067)">
                                    <path d="M3.9999999,2.6666666 C3.9999999,1.72533329 3.29333325,0.966666643 2.29999994,0.966666643 C1.3573333,0.966666643 0.625333318,1.72533329 0.625333318,2.6666666 C0.625333318,3.58266658 1.3573333,4.34133322 2.29999994,4.34133322 C3.29333325,4.34133322 3.9999999,3.58266658 3.9999999,2.6666666" id="path146" fill="#002749" fill-rule="nonzero"></path>
                                </g>
                                <g id="g148" stroke-width="1" fill="none" fill-rule="evenodd" transform="translate(161.257463, 44.374799)">
                                    <path d="M18.6666662,47.9999988 C24.9173327,47.9999988 30.5999992,46.3906655 35.0506658,44.1173322 L35.0506658,35.2146658 C31.2626659,37.7719991 24.7279994,39.6653323 19.3306662,39.6653323 C15.257333,39.6653323 10.9013331,38.4346657 10.9013331,34.7413325 C10.9013331,25.9333327 38.2706657,30.0066659 38.2706657,13.4319997 C38.2706657,3.39199992 28.9893326,0.0773333314 18.6666662,0.0773333314 C12.037333,0.0773333314 5.3133332,1.68799996 0.861333312,4.43466656 L0.861333312,13.4319997 C5.59733319,10.3066664 12.5106664,8.60266645 18.1933329,8.60266645 C23.8759994,8.60266645 28.042666,9.54933309 28.042666,13.2426663 C28.042666,21.6706661 0.578666652,18.1666662 0.578666652,34.4573325 C0.578666652,44.4013322 9.66933309,47.9999988 18.6666662,47.9999988" id="path150" fill="#002749" fill-rule="nonzero"></path>
                                </g>
                                <g id="g152" stroke-width="1" fill="none" fill-rule="evenodd" transform="translate(205.360395, 43.946399)">
                                    <path d="M23.9999994,39.999999 C17.1813329,39.999999 11.0253331,35.9266658 10.6466664,28.2559993 L35.8373324,28.2559993 C36.4066658,32.2333325 33.9439992,39.999999 23.9999994,39.999999 M23.5266661,48.4279988 C41.6146656,48.4279988 47.8666655,33.8439992 44.9306655,20.6786661 L10.7413331,20.6786661 C11.877333,12.5346664 19.8333328,9.12399977 28.166666,9.12399977 C33.6599992,9.12399977 38.6786657,10.4506664 42.5613323,12.3439997 L42.5613323,3.63199991 C38.3946657,1.64266663 32.6173325,0.505333321 26.2733327,0.505333321 C12.3506664,0.505333321 0.511999987,8.46133312 0.511999987,24.4679994 C0.511999987,40.9466656 13.013333,48.4279988 23.5266661,48.4279988" id="path154" fill="#002749" fill-rule="nonzero"></path>
                                </g>
                                <g id="g156" stroke-width="1" fill="none" fill-rule="evenodd" transform="translate(256.861060, 44.371599)">
                                    <path d="M10.6666664,14.6666663 C10.6666664,10.2146664 14.6426663,7.94133313 19.1906662,7.94133313 C24.0199994,7.94133313 28.7546659,9.74133309 32.3546659,13.3399997 L32.3546659,21.0119995 C29.6066659,21.5799995 25.7239994,22.1493328 22.5039994,22.1493328 C16.7279996,22.1493328 10.6666664,20.3493328 10.6666664,14.6666663 M45.8026655,8.51066645 C46.8439988,8.51066645 47.8853321,8.79466645 48.8333321,9.07866644 L48.8333321,1.78666662 C46.9386655,1.02799997 44.6653322,0.649333317 42.3933323,0.649333317 C38.2253324,0.649333317 34.9119991,2.25866661 33.3013325,5.95333318 C28.8506659,2.35466661 23.2613328,0.0813333313 16.1586663,0.0813333313 C7.91866647,0.0813333313 0.249333327,4.62799988 0.249333327,14.0026663 C0.249333327,25.6533327 11.0439997,29.2519993 20.5159995,29.2519993 C24.3986661,29.2519993 28.7546659,28.6826659 32.3546659,27.9253326 L32.3546659,29.5359993 C32.3546659,35.2186658 28.186666,39.195999 20.4199995,39.195999 C13.6959997,39.195999 8.10933313,37.4919991 4.0359999,35.6919991 L4.0359999,44.9733322 C7.63599981,46.2039988 14.1706663,48.0026655 21.4626661,48.0026655 C34.3426658,48.0026655 42.4866656,41.8466656 42.4866656,28.114666 L42.4866656,11.825333 C42.4866656,9.26799977 44.0026656,8.51066645 45.8026655,8.51066645" id="path158" fill="#002749" fill-rule="nonzero"></path>
                                </g>
                                <g id="g160" stroke-width="1" fill="none" fill-rule="evenodd" transform="translate(312.181326, 44.374799)">
                                    <path d="M25.3333327,47.9999988 C36.7933324,47.9999988 44.0839989,40.2346657 44.0839989,29.4373326 L44.0839989,1.3093333 L33.9519992,1.3093333 L33.9519992,28.1119993 C33.9519992,35.4986658 29.4053326,39.0026657 23.3439994,39.0026657 C17.5679996,39.0026657 13.2106663,35.1199991 10.6533331,31.4266659 L10.6533331,1.3093333 L0.519999987,1.3093333 L0.519999987,46.7693322 L9.5173331,46.7693322 L9.5173331,40.5186657 C12.8319997,44.4959989 18.4186662,47.9999988 25.3333327,47.9999988" id="path162" fill="#002749" fill-rule="nonzero"></path>
                                </g>
                                <g id="g164" stroke-width="1" fill="none" fill-rule="evenodd" transform="translate(362.696924, 43.338399)">
                                    <path d="M18.6666662,63.9999984 L18.6666662,47.8053321 L35.1453325,47.8053321 L35.1453325,38.9026657 L18.6666662,38.9026657 L18.6666662,18.0666662 C18.6666662,12.101333 21.4146661,10.1106664 27.2853327,10.1106664 C30.5999992,10.1106664 33.6319992,10.7746664 36.4719991,11.9106664 L36.4719991,3.19866659 C33.0626658,1.96666662 28.7053326,1.2093333 24.2546661,1.2093333 C15.4479996,1.2093333 8.62933312,5.56533319 8.62933312,16.1719996 L8.62933312,38.9026657 L0.482666655,38.9026657 L0.482666655,47.8053321 L8.62933312,47.8053321 L8.62933312,61.5373318 L18.6666662,63.9999984 Z" id="path166" fill="#002749" fill-rule="nonzero"></path>
                                </g>
                                <path d="M407.597323,91.1439977 L417.73199,91.1439977 L417.73199,45.6839989 L407.597323,45.6839989 L407.597323,91.1439977 Z M412.710656,99.8559975 C409.39599,99.8559975 406.461323,101.750664 406.461323,105.917331 C406.461323,109.895997 409.39599,111.883997 412.710656,111.883997 C416.026656,111.883997 418.86799,109.895997 418.86799,105.917331 C418.86799,101.750664 416.026656,99.8559975 412.710656,99.8559975 L412.710656,99.8559975 Z" id="path168" fill="#002749" fill-rule="nonzero"></path>
                                <g id="g170" stroke-width="1" fill="none" fill-rule="evenodd" transform="translate(427.664389, 44.374799)">
                                    <path d="M18.6666662,47.9999988 C24.9173327,47.9999988 30.5999992,46.3906655 35.0506658,44.1173322 L35.0506658,35.2146658 C31.2626659,37.7719991 24.7279994,39.6653323 19.3293329,39.6653323 C15.257333,39.6653323 10.9013331,38.4346657 10.9013331,34.7413325 C10.9013331,25.9333327 38.2706657,30.0066659 38.2706657,13.4319997 C38.2706657,3.39199992 28.9893326,0.0773333314 18.6666662,0.0773333314 C12.037333,0.0773333314 5.3133332,1.68799996 0.861333312,4.43466656 L0.861333312,13.4319997 C5.59733319,10.3066664 12.5119997,8.60266645 18.1946662,8.60266645 C23.8759994,8.60266645 28.042666,9.54933309 28.042666,13.2426663 C28.042666,21.6706661 0.578666652,18.1666662 0.578666652,34.4573325 C0.578666652,44.4013322 9.67066642,47.9999988 18.6666662,47.9999988" id="path172" fill="#002749" fill-rule="nonzero"></path>
                                </g>
                            </g>
                        </g>
                    </g>
                </g>
            </g>
        </g>
    </g>
</svg>