<?xml version="1.0" encoding="utf-8"?>
<!-- Generator: Adobe Illustrator 15.0.2, SVG Export Plug-In . SVG Version: 6.00 Build 0)  -->
<!DOCTYPE svg PUBLIC "-//W3C//DTD SVG 1.0//EN" "http://www.w3.org/TR/2001/REC-SVG-20010904/DTD/svg10.dtd">
<svg version="1.0" id="Layer_1" xmlns="http://www.w3.org/2000/svg" xmlns:xlink="http://www.w3.org/1999/xlink" x="0px" y="0px"
	 width="536px" height="198.43px" viewBox="0 0 536 198.43" enable-background="new 0 0 536 198.43" xml:space="preserve">
<g>
	<path fill="#003A63" d="M235.264,73.081c0,5.801-2.113,10.25-6.338,13.347c-4.226,3.098-10.277,4.646-18.154,4.646
		c-7.914,0-14.27-1.199-19.067-3.599V76.572c6.982,3.223,13.481,4.834,19.497,4.834c7.77,0,11.655-2.345,11.655-7.036
		c0-1.504-0.43-2.757-1.289-3.76c-0.859-1.002-2.274-2.041-4.243-3.115c-1.97-1.074-4.709-2.291-8.218-3.652
		c-6.84-2.649-11.467-5.299-13.884-7.949c-2.417-2.649-3.625-6.087-3.625-10.312c0-5.084,2.049-9.032,6.15-11.843
		c4.1-2.811,9.676-4.216,16.731-4.216c6.982,0,13.589,1.415,19.819,4.243l-4.082,9.507c-6.41-2.649-11.799-3.975-16.167-3.975
		c-6.66,0-9.99,1.898-9.99,5.693c0,1.862,0.868,3.438,2.605,4.727c1.736,1.289,5.523,3.062,11.36,5.317
		c4.905,1.898,8.468,3.635,10.688,5.21c2.22,1.576,3.867,3.393,4.941,5.452C234.727,67.755,235.264,70.217,235.264,73.081z"/>
	<path fill="#003A63" d="M270.912,91.074c-9.238,0-16.463-2.694-21.673-8.083c-5.21-5.389-7.815-12.81-7.815-22.263
		c0-9.703,2.418-17.33,7.252-22.881c4.834-5.55,11.475-8.325,19.926-8.325c7.842,0,14.037,2.382,18.584,7.144
		c4.547,4.763,6.822,11.315,6.822,19.658v6.821h-39.586c0.18,5.766,1.736,10.197,4.674,13.293c2.936,3.098,7.07,4.646,12.406,4.646
		c3.51,0,6.776-0.331,9.803-0.994c3.025-0.662,6.275-1.763,9.748-3.303v10.259c-3.08,1.469-6.195,2.507-9.346,3.115
		S274.957,91.074,270.912,91.074z M268.601,39.082c-4.01,0-7.224,1.271-9.641,3.813c-2.417,2.543-3.859,6.249-4.324,11.118h26.963
		c-0.072-4.905-1.254-8.621-3.545-11.145S272.611,39.082,268.601,39.082z"/>
	<path fill="#003A63" d="M340.951,90l-2.525-8.271h-0.43c-2.865,3.617-5.746,6.079-8.646,7.385s-6.625,1.96-11.172,1.96
		c-5.837,0-10.393-1.575-13.67-4.727c-3.275-3.15-4.914-7.608-4.914-13.374c0-6.123,2.273-10.742,6.821-13.857
		c4.547-3.115,11.476-4.815,20.786-5.103l10.258-0.322v-3.169c0-3.795-0.885-6.633-2.658-8.513c-1.771-1.88-4.521-2.82-8.244-2.82
		c-3.045,0-5.963,0.448-8.755,1.343c-2.793,0.896-5.479,1.952-8.057,3.169l-4.082-9.023c3.223-1.683,6.749-2.962,10.581-3.84
		c3.831-0.877,7.447-1.316,10.85-1.316c7.555,0,13.258,1.647,17.107,4.941c3.848,3.295,5.773,8.469,5.773,15.522V90H340.951z
		 M322.152,81.406c4.582,0,8.262-1.28,11.037-3.84c2.775-2.56,4.162-6.15,4.162-10.769v-5.156l-7.627,0.322
		c-5.943,0.215-10.268,1.208-12.971,2.981s-4.055,4.485-4.055,8.137c0,2.65,0.787,4.7,2.363,6.15
		C316.637,80.681,319,81.406,322.152,81.406z"/>
	<path fill="#003A63" d="M415.253,90h-12.676V53.477c0-4.583-0.922-8.003-2.766-10.259s-4.771-3.384-8.781-3.384
		c-5.336,0-9.238,1.576-11.709,4.727c-2.471,3.151-3.707,8.433-3.707,15.845V90h-12.621V30.596h9.883l1.771,7.788h0.645
		c1.791-2.828,4.332-5.013,7.627-6.553c3.295-1.539,6.947-2.31,10.957-2.31c14.252,0,21.377,7.251,21.377,21.753V90z"/>
	<path fill="#003A63" d="M450.349,80.869c3.078,0,6.158-0.483,9.238-1.45v9.507c-1.396,0.609-3.195,1.119-5.398,1.531
		c-2.201,0.411-4.484,0.618-6.848,0.618c-11.961,0-17.939-6.302-17.939-18.906V40.156h-8.111V34.57l8.701-4.619l4.297-12.568h7.789
		v13.213h16.918v9.561h-16.918v31.797c0,3.044,0.76,5.291,2.283,6.741C445.882,80.144,447.878,80.869,450.349,80.869z"/>
	<path fill="#003A63" d="M466.216,14.858c0-2.256,0.617-3.992,1.854-5.21c1.234-1.217,2.998-1.826,5.291-1.826
		c2.219,0,3.947,0.609,5.182,1.826c1.236,1.218,1.854,2.954,1.854,5.21c0,2.148-0.617,3.84-1.854,5.076
		c-1.234,1.235-2.963,1.853-5.182,1.853c-2.293,0-4.057-0.618-5.291-1.853C466.833,18.699,466.216,17.007,466.216,14.858z
		 M479.591,90h-12.623V30.596h12.623V90z"/>
	<path fill="#003A63" d="M533.662,73.081c0,5.801-2.113,10.25-6.338,13.347c-4.225,3.098-10.277,4.646-18.154,4.646
		c-7.914,0-14.27-1.199-19.066-3.599V76.572c6.982,3.223,13.48,4.834,19.496,4.834c7.77,0,11.656-2.345,11.656-7.036
		c0-1.504-0.43-2.757-1.289-3.76c-0.859-1.002-2.275-2.041-4.244-3.115s-4.709-2.291-8.217-3.652
		c-6.84-2.649-11.467-5.299-13.885-7.949c-2.416-2.649-3.625-6.087-3.625-10.312c0-5.084,2.049-9.032,6.15-11.843
		c4.1-2.811,9.676-4.216,16.73-4.216c6.982,0,13.588,1.415,19.818,4.243l-4.082,9.507c-6.41-2.649-11.799-3.975-16.166-3.975
		c-6.66,0-9.99,1.898-9.99,5.693c0,1.862,0.867,3.438,2.605,4.727c1.736,1.289,5.521,3.062,11.359,5.317
		c4.904,1.898,8.467,3.635,10.688,5.21c2.221,1.576,3.867,3.393,4.941,5.452C533.125,67.755,533.662,70.217,533.662,73.081z"/>
</g>
<rect x="2.333" y="18" fill="#0065A4" width="72" height="72"/>
<rect x="83.333" y="99" fill="#D9531E" width="72" height="72"/>
<rect x="83.546" y="18" fill="#C3B600" width="71.788" height="72"/>
<rect x="2.333" y="99" fill="#7399C6" width="72" height="72"/>
<g>
	<path fill="#7399C6" d="M278.892,162v-39.263h2.74V162H278.892z"/>
	<path fill="#7399C6" d="M301.657,162h-2.766v-36.685h-12.757v-2.578h28.278v2.578h-12.756V162z"/>
	<path fill="#7399C6" d="M349.977,154.4c0,2.613-0.994,4.623-2.98,6.028c-1.988,1.405-4.808,2.108-8.46,2.108
		c-3.903,0-7-0.6-9.292-1.799v-2.874c2.937,1.468,6.033,2.202,9.292,2.202c2.883,0,5.071-0.479,6.566-1.437
		c1.494-0.958,2.242-2.233,2.242-3.827c0-1.468-0.596-2.703-1.786-3.706s-3.146-1.987-5.867-2.954
		c-2.919-1.057-4.969-1.965-6.15-2.726s-2.072-1.62-2.672-2.578c-0.601-0.958-0.9-2.126-0.9-3.505c0-2.184,0.918-3.912,2.753-5.184
		c1.835-1.271,4.4-1.906,7.694-1.906c3.151,0,6.141,0.591,8.97,1.772l-0.993,2.417c-2.865-1.182-5.523-1.772-7.977-1.772
		c-2.381,0-4.27,0.394-5.666,1.182s-2.096,1.88-2.096,3.276c0,1.521,0.542,2.739,1.625,3.652s3.2,1.934,6.352,3.062
		c2.632,0.949,4.548,1.804,5.747,2.564s2.099,1.625,2.699,2.592C349.677,151.956,349.977,153.094,349.977,154.4z"/>
	<path fill="#7399C6" d="M379.814,147.363c0,4.764-1.155,8.482-3.465,11.159s-5.496,4.015-9.561,4.015
		c-2.561,0-4.816-0.617-6.768-1.854c-1.951-1.234-3.446-3.008-4.484-5.316c-1.039-2.311-1.559-4.978-1.559-8.004
		c0-4.762,1.155-8.473,3.465-11.131c2.31-2.659,5.479-3.988,9.507-3.988c4.011,0,7.157,1.348,9.439,4.042
		C378.672,138.98,379.814,142.674,379.814,147.363z M356.771,147.363c0,4.012,0.882,7.14,2.646,9.387
		c1.764,2.246,4.257,3.37,7.479,3.37s5.716-1.124,7.479-3.37c1.763-2.247,2.646-5.375,2.646-9.387c0-4.027-0.892-7.152-2.673-9.372
		s-4.283-3.33-7.506-3.33s-5.707,1.105-7.452,3.316C357.644,140.189,356.771,143.318,356.771,147.363z"/>
	<path fill="#7399C6" d="M388.504,162h-2.659v-41.787h2.659V162z"/>
	<path fill="#7399C6" d="M398.367,132.809v18.906c0,2.936,0.617,5.07,1.854,6.404c1.234,1.334,3.15,2.001,5.746,2.001
		c3.474,0,6.029-0.877,7.668-2.632c1.638-1.754,2.457-4.609,2.457-8.566v-16.113h2.632V162h-2.256l-0.483-4.028h-0.161
		c-1.897,3.044-5.272,4.565-10.124,4.565c-6.643,0-9.964-3.554-9.964-10.662v-19.066H398.367z"/>
	<path fill="#7399C6" d="M434.793,160.174c1.683,0,3.15-0.143,4.404-0.43v2.148c-1.289,0.43-2.775,0.645-4.459,0.645
		c-2.578,0-4.48-0.689-5.706-2.068c-1.227-1.378-1.84-3.545-1.84-6.498v-18.854h-4.323v-1.557l4.323-1.209l1.343-6.606h1.369v7.063
		h8.567v2.309h-8.567v18.477c0,2.238,0.395,3.895,1.182,4.969C431.875,159.637,433.11,160.174,434.793,160.174z"/>
	<path fill="#7399C6" d="M443.367,124.697c0-1.719,0.564-2.578,1.691-2.578c0.556,0,0.989,0.225,1.303,0.672
		s0.471,1.084,0.471,1.906c0,0.807-0.157,1.441-0.471,1.907s-0.747,0.698-1.303,0.698
		C443.931,127.303,443.367,126.435,443.367,124.697z M446.402,162h-2.659v-29.191h2.659V162z"/>
	<path fill="#7399C6" d="M478.159,147.363c0,4.764-1.155,8.482-3.465,11.159s-5.496,4.015-9.561,4.015
		c-2.561,0-4.816-0.617-6.768-1.854c-1.951-1.234-3.446-3.008-4.484-5.316c-1.039-2.311-1.559-4.978-1.559-8.004
		c0-4.762,1.155-8.473,3.465-11.131c2.31-2.659,5.479-3.988,9.507-3.988c4.011,0,7.157,1.348,9.439,4.042
		C477.017,138.98,478.159,142.674,478.159,147.363z M455.116,147.363c0,4.012,0.882,7.14,2.646,9.387
		c1.764,2.246,4.257,3.37,7.479,3.37s5.716-1.124,7.479-3.37c1.763-2.247,2.646-5.375,2.646-9.387c0-4.027-0.892-7.152-2.673-9.372
		s-4.283-3.33-7.506-3.33s-5.707,1.105-7.452,3.316C455.989,140.189,455.116,143.318,455.116,147.363z"/>
	<path fill="#7399C6" d="M504.498,162v-18.934c0-2.936-0.617-5.07-1.854-6.404c-1.234-1.334-3.15-2.001-5.746-2.001
		c-3.492,0-6.048,0.882-7.668,2.646s-2.43,4.623-2.43,8.58V162h-2.659v-29.191h2.256l0.511,4.001h0.16
		c1.898-3.044,5.273-4.565,10.125-4.565c6.624,0,9.937,3.555,9.937,10.662V162H504.498z"/>
	<path fill="#7399C6" d="M532.593,154.4c0,2.613-0.994,4.623-2.98,6.028c-1.988,1.405-4.808,2.108-8.46,2.108
		c-3.903,0-7-0.6-9.292-1.799v-2.874c2.937,1.468,6.033,2.202,9.292,2.202c2.883,0,5.071-0.479,6.566-1.437
		c1.494-0.958,2.242-2.233,2.242-3.827c0-1.468-0.596-2.703-1.786-3.706s-3.146-1.987-5.867-2.954
		c-2.919-1.057-4.969-1.965-6.15-2.726s-2.072-1.62-2.672-2.578c-0.601-0.958-0.9-2.126-0.9-3.505c0-2.184,0.918-3.912,2.753-5.184
		c1.835-1.271,4.4-1.906,7.694-1.906c3.151,0,6.141,0.591,8.97,1.772l-0.993,2.417c-2.865-1.182-5.523-1.772-7.977-1.772
		c-2.381,0-4.27,0.394-5.666,1.182s-2.096,1.88-2.096,3.276c0,1.521,0.542,2.739,1.625,3.652s3.2,1.934,6.352,3.062
		c2.632,0.949,4.548,1.804,5.747,2.564s2.099,1.625,2.699,2.592C532.293,151.956,532.593,153.094,532.593,154.4z"/>
</g>
</svg>
