<?xml version="1.0" encoding="UTF-8"?>
<svg width="1680px" height="295px" viewBox="0 0 1680 295" version="1.1" xmlns="http://www.w3.org/2000/svg" xmlns:xlink="http://www.w3.org/1999/xlink">
    <!-- Generator: Sketch 51.1 (57501) - http://www.bohemiancoding.com/sketch -->
    <title>myControl</title>
    <desc>Created with Sketch.</desc>
    <defs></defs>
    <g id="myControl" stroke="none" stroke-width="1" fill="none" fill-rule="evenodd">
        <g id="logo" transform="translate(40.000000, 14.000000)" fill="#FFFFFF" fill-rule="nonzero">
            <path d="M145.356849,247.598585 C127.094349,233.337057 104.766346,212.235159 91.5373273,196.682995 C59.9167453,159.641742 37.1370199,120.083748 19.5843703,71.8784938 C12.4213405,52.131763 3.5159521,20.188522 2.0962525,9.2826478 C1.7735935,6.636844 1.3218709,3.6038494 1.0637437,2.6358724 L0.6765529,0.828982 L1.7735935,2.3777452 C2.4189115,3.1521268 4.4193973,7.4112256 6.2908195,11.7348562 C29.0060131,64.1346778 55.7221783,109.113342 88.1171419,149.445717 C94.4412583,157.318597 96.8934667,159.899869 97.9905073,159.899869 C98.7648889,159.899869 104.121028,158.738297 109.864359,157.254065 C166.329684,143.121601 226.989576,106.080348 276.227339,55.7455438 C281.970669,49.87315 287.004149,45.033265 287.39134,45.033265 C287.713999,45.033265 288.488381,46.1303056 289.069167,47.4209416 C289.843549,49.227832 290.23074,52.5834856 290.424335,60.2627698 L290.682462,70.6523896 L282.099733,78.4607374 C243.057994,113.6951 200.660601,141.121115 160.844481,156.866874 C145.744039,162.8038 126.900754,168.353535 114.252521,170.418552 C111.735781,170.870275 109.541699,171.515593 109.412636,171.902784 C109.283572,172.289975 109.735295,173.257952 110.380613,174.096865 L111.606717,175.581096 L117.995365,174.419524 C146.84108,169.25698 178.203535,157.512192 207.952695,140.733924 C227.312235,129.763518 242.348144,119.567494 265.579592,101.49859 C267.709141,99.885295 269.709627,98.7882544 270.032286,98.9818498 C271.000263,99.6271678 270.225882,113.566037 268.935246,118.276858 C268.354459,120.406407 267.257419,122.794084 266.483037,123.632997 C264.482551,125.762547 240.992976,141.314711 230.216166,147.638827 C211.566475,158.544701 186.463605,170.031362 167.620319,176.355478 C157.746954,179.6466 140.000709,184.034762 130.901725,185.454462 L123.222441,186.616034 L125.739181,188.810115 C128.514049,191.197792 127.933263,191.197792 141.48494,188.810115 C170.395187,183.776635 202.854682,171.580125 234.991519,153.640284 C244.800352,148.155081 245.44567,148.155081 244.284098,153.640284 C243.251589,158.544701 239.960467,166.804772 237.508259,170.547616 C235.05605,174.225929 232.216651,175.839224 216.019169,182.550531 C195.756184,190.939665 171.169568,198.102695 151.100179,201.458348 C146.13123,202.361793 141.936663,203.136175 141.8076,203.265239 C141.678536,203.394302 142.90464,204.620406 144.582467,205.975574 L147.615461,208.427783 L152.455346,207.97606 C165.555302,206.814488 187.431582,202.168198 204.080787,196.941122 C213.696025,193.972659 214.470406,194.295318 210.856626,199.71599 C209.501458,201.781007 206.597527,205.781979 204.403446,208.621378 L200.337942,213.848454 L187.883305,215.913471 C180.978402,217.075044 172.524736,218.301148 169.104551,218.752871 C165.619834,219.140061 162.97403,219.656316 163.103094,219.914443 C163.296689,220.17257 167.168597,222.947438 171.814887,226.109496 C177.041962,229.658745 180.204021,232.175485 180.204021,232.885335 C180.204021,234.563162 175.17054,240.306492 170.007996,244.371995 C165.039048,248.308435 155.940064,253.470979 154.00411,253.470979 C153.29426,253.406447 149.422352,250.825175 145.356849,247.598585 Z" id="path6"></path>
        </g>
        <text id="myControl.aero" font-family="AvenirNextCondensed-UltraLight, Avenir Next Condensed" font-size="220" font-style="condensed" font-weight="200" fill="#FFFFFF">
            <tspan x="394" y="234">myControl.aero</tspan>
        </text>
    </g>
</svg>