<?xml version="1.0" encoding="UTF-8"?>
<svg width="1680px" height="295px" viewBox="0 0 1680 295" version="1.1" xmlns="http://www.w3.org/2000/svg" xmlns:xlink="http://www.w3.org/1999/xlink">
    <!-- Generator: Sketch 51.1 (57501) - http://www.bohemiancoding.com/sketch -->
    <title>mycontrol</title>
    <desc>Created with Sketch.</desc>
    <defs></defs>
    <g id="mycontrol" stroke="none" stroke-width="1" fill="none" fill-rule="evenodd">
        <g id="logo" transform="translate(40.000000, 14.000000)" fill="#FFFFFF" fill-rule="nonzero">
            <path d="M145.356849,247.598585 C127.094349,233.337057 104.766346,212.235159 91.5373273,196.682995 C59.9167453,159.641742 37.1370199,120.083748 19.5843703,71.8784938 C12.4213405,52.131763 3.5159521,20.188522 2.0962525,9.2826478 C1.7735935,6.636844 1.3218709,3.6038494 1.0637437,2.6358724 L0.6765529,0.828982 L1.7735935,2.3777452 C2.4189115,3.1521268 4.4193973,7.4112256 6.2908195,11.7348562 C29.0060131,64.1346778 55.7221783,109.113342 88.1171419,149.445717 C94.4412583,157.318597 96.8934667,159.899869 97.9905073,159.899869 C98.7648889,159.899869 104.121028,158.738297 109.864359,157.254065 C166.329684,143.121601 226.989576,106.080348 276.227339,55.7455438 C281.970669,49.87315 287.004149,45.033265 287.39134,45.033265 C287.713999,45.033265 288.488381,46.1303056 289.069167,47.4209416 C289.843549,49.227832 290.23074,52.5834856 290.424335,60.2627698 L290.682462,70.6523896 L282.099733,78.4607374 C243.057994,113.6951 200.660601,141.121115 160.844481,156.866874 C145.744039,162.8038 126.900754,168.353535 114.252521,170.418552 C111.735781,170.870275 109.541699,171.515593 109.412636,171.902784 C109.283572,172.289975 109.735295,173.257952 110.380613,174.096865 L111.606717,175.581096 L117.995365,174.419524 C146.84108,169.25698 178.203535,157.512192 207.952695,140.733924 C227.312235,129.763518 242.348144,119.567494 265.579592,101.49859 C267.709141,99.885295 269.709627,98.7882544 270.032286,98.9818498 C271.000263,99.6271678 270.225882,113.566037 268.935246,118.276858 C268.354459,120.406407 267.257419,122.794084 266.483037,123.632997 C264.482551,125.762547 240.992976,141.314711 230.216166,147.638827 C211.566475,158.544701 186.463605,170.031362 167.620319,176.355478 C157.746954,179.6466 140.000709,184.034762 130.901725,185.454462 L123.222441,186.616034 L125.739181,188.810115 C128.514049,191.197792 127.933263,191.197792 141.48494,188.810115 C170.395187,183.776635 202.854682,171.580125 234.991519,153.640284 C244.800352,148.155081 245.44567,148.155081 244.284098,153.640284 C243.251589,158.544701 239.960467,166.804772 237.508259,170.547616 C235.05605,174.225929 232.216651,175.839224 216.019169,182.550531 C195.756184,190.939665 171.169568,198.102695 151.100179,201.458348 C146.13123,202.361793 141.936663,203.136175 141.8076,203.265239 C141.678536,203.394302 142.90464,204.620406 144.582467,205.975574 L147.615461,208.427783 L152.455346,207.97606 C165.555302,206.814488 187.431582,202.168198 204.080787,196.941122 C213.696025,193.972659 214.470406,194.295318 210.856626,199.71599 C209.501458,201.781007 206.597527,205.781979 204.403446,208.621378 L200.337942,213.848454 L187.883305,215.913471 C180.978402,217.075044 172.524736,218.301148 169.104551,218.752871 C165.619834,219.140061 162.97403,219.656316 163.103094,219.914443 C163.296689,220.17257 167.168597,222.947438 171.814887,226.109496 C177.041962,229.658745 180.204021,232.175485 180.204021,232.885335 C180.204021,234.563162 175.17054,240.306492 170.007996,244.371995 C165.039048,248.308435 155.940064,253.470979 154.00411,253.470979 C153.29426,253.406447 149.422352,250.825175 145.356849,247.598585 Z" id="path6"></path>
        </g>
        <path d="M497.62,124.22 C503.340029,124.22 507.849984,125.503321 511.15,128.07 C514.450016,130.63668 516.979991,133.863314 518.74,137.75 C520.500009,141.636686 521.636664,145.889977 522.15,150.51 C522.663336,155.130023 522.92,159.493313 522.92,163.6 L522.92,234 L518.08,234 L518.08,163.6 C518.08,159.786648 517.860002,155.826687 517.42,151.72 C516.979998,147.613313 516.026674,143.836684 514.56,140.39 C513.093326,136.943316 511.003347,134.120011 508.29,131.92 C505.576653,129.719989 502.020022,128.62 497.62,128.62 C492.926643,128.62 488.856684,129.976653 485.41,132.69 C481.963316,135.403347 479.140011,138.886645 476.94,143.14 C474.739989,147.393355 473.090006,152.123307 471.99,157.33 C470.889995,162.536693 470.34,167.559976 470.34,172.4 L470.34,234 L465.5,234 L465.5,163.6 C465.5,159.63998 465.280002,155.570021 464.84,151.39 C464.399998,147.209979 463.520007,143.43335 462.2,140.06 C460.879993,136.68665 458.936679,133.936677 456.37,131.81 C453.80332,129.683323 450.393355,128.62 446.14,128.62 C441.446643,128.62 437.340018,129.976653 433.82,132.69 C430.299982,135.403347 427.366678,138.886645 425.02,143.14 C422.673322,147.393355 420.913339,152.123307 419.74,157.33 C418.566661,162.536693 417.98,167.559976 417.98,172.4 L417.98,234 L413.14,234 L413.14,154.58 C413.14,152.819991 413.103334,150.730012 413.03,148.31 C412.956666,145.889988 412.883334,143.39668 412.81,140.83 C412.736666,138.26332 412.663334,135.806678 412.59,133.46 C412.516666,131.113322 412.406667,129.206674 412.26,127.74 L417.1,127.74 C417.246667,129.206674 417.356666,131.113322 417.43,133.46 C417.503334,135.806678 417.576666,138.26332 417.65,140.83 C417.723334,143.39668 417.76,145.889988 417.76,148.31 L417.76,154.58 L418.2,154.58 C419.813341,145.339954 423.039976,137.970028 427.88,132.47 C432.720024,126.969973 438.80663,124.22 446.14,124.22 C450.393355,124.22 453.949986,125.026659 456.81,126.64 C459.670014,128.253341 461.979991,130.453319 463.74,133.24 C465.500009,136.026681 466.746663,139.326648 467.48,143.14 C468.213337,146.953352 468.726665,150.986645 469.02,155.24 L469.46,155.24 C470.04667,150.986645 471.146659,146.953352 472.76,143.14 C474.373341,139.326648 476.389988,136.026681 478.81,133.24 C481.230012,130.453319 484.016651,128.253341 487.17,126.64 C490.323349,125.026659 493.806648,124.22 497.62,124.22 Z M572.42,266.12 C570.513324,273.600037 568.093348,278.916651 565.16,282.07 C562.226652,285.223349 558.413357,286.8 553.72,286.8 C550.933319,286.8 548.513344,286.286672 546.46,285.26 L547.12,281.08 C547.853337,281.373335 548.843327,281.666665 550.09,281.96 C551.336673,282.253335 552.546661,282.4 553.72,282.4 C558.266689,282.4 561.52999,280.493352 563.51,276.68 C565.49001,272.866648 567.213326,267.880031 568.68,261.72 L574.62,236.42 L546.02,127.74 L551.08,127.74 L577.04,228.94 L577.48,228.94 L602.56,127.74 L607.4,127.74 L572.42,266.12 Z M709.7,213.98 C705.446645,222.633377 700.056699,228.719982 693.53,232.24 C687.003301,235.760018 680.660031,237.52 674.5,237.52 C666.433293,237.52 659.356697,235.430021 653.27,231.25 C647.183303,227.069979 642.086687,221.350036 637.98,214.09 C633.873313,206.829964 630.756677,198.250049 628.63,188.35 C626.503323,178.44995 625.44,167.706725 625.44,156.12 C625.44,144.533275 626.503323,133.753383 628.63,123.78 C630.756677,113.806617 633.873313,105.190036 637.98,97.93 C642.086687,90.6699637 647.183303,84.9866872 653.27,80.88 C659.356697,76.7733128 666.433293,74.72 674.5,74.72 C680.366696,74.72 686.343303,76.2599846 692.43,79.34 C698.516697,82.4200154 703.53998,87.6999626 707.5,95.18 L703.54,97.6 C699.873315,90.999967 695.436693,86.2700143 690.23,83.41 C685.023307,80.5499857 679.780026,79.12 674.5,79.12 C667.019963,79.12 660.493361,81.1366465 654.92,85.17 C649.346639,89.2033535 644.763351,94.6666322 641.17,101.56 C637.576649,108.453368 634.863343,116.593286 633.03,125.98 C631.196658,135.366714 630.28,145.41328 630.28,156.12 C630.28,166.82672 631.196658,176.83662 633.03,186.15 C634.863343,195.46338 637.613315,203.603298 641.28,210.57 C644.946685,217.536701 649.566639,223.036646 655.14,227.07 C660.713361,231.103353 667.16663,233.12 674.5,233.12 C680.220029,233.12 685.939971,231.360018 691.66,227.84 C697.380029,224.319982 702.073315,218.89337 705.74,211.56 L709.7,213.98 Z M789.34,180.98 C789.34,189.193374 788.570008,196.783299 787.03,203.75 C785.489992,210.716701 783.290014,216.693308 780.43,221.68 C777.569986,226.666692 774.086687,230.553319 769.98,233.34 C765.873313,236.126681 761.253359,237.52 756.12,237.52 C750.986641,237.52 746.366687,236.126681 742.26,233.34 C738.153313,230.553319 734.670014,226.666692 731.81,221.68 C728.949986,216.693308 726.750008,210.716701 725.21,203.75 C723.669992,196.783299 722.9,189.193374 722.9,180.98 C722.9,172.619958 723.633326,164.993368 725.1,158.1 C726.566674,151.206632 728.693319,145.230025 731.48,140.17 C734.266681,135.109975 737.749979,131.186681 741.93,128.4 C746.110021,125.613319 750.839974,124.22 756.12,124.22 C761.253359,124.22 765.873313,125.613319 769.98,128.4 C774.086687,131.186681 777.569986,135.109975 780.43,140.17 C783.290014,145.230025 785.489992,151.206632 787.03,158.1 C788.570008,164.993368 789.34,172.619958 789.34,180.98 Z M784.5,180.98 C784.5,173.499963 783.876673,166.570032 782.63,160.19 C781.383327,153.809968 779.586678,148.273357 777.24,143.58 C774.893322,138.886643 771.923351,135.183347 768.33,132.47 C764.736649,129.756653 760.666689,128.4 756.12,128.4 C751.426643,128.4 747.283351,129.756653 743.69,132.47 C740.096649,135.183347 737.126678,138.886643 734.78,143.58 C732.433322,148.273357 730.673339,153.809968 729.5,160.19 C728.326661,166.570032 727.74,173.499963 727.74,180.98 C727.74,188.31337 728.326661,195.133302 729.5,201.44 C730.673339,207.746698 732.433322,213.246643 734.78,217.94 C737.126678,222.633357 740.096649,226.336653 743.69,229.05 C747.283351,231.763347 751.426643,233.12 756.12,233.12 C760.813357,233.12 764.919982,231.763347 768.44,229.05 C771.960018,226.336653 774.929988,222.633357 777.35,217.94 C779.770012,213.246643 781.566661,207.746698 782.74,201.44 C783.913339,195.133302 784.5,188.31337 784.5,180.98 Z M824.98,154.58 C826.593341,145.339954 829.819976,137.970028 834.66,132.47 C839.500024,126.969973 845.58663,124.22 852.92,124.22 C858.640029,124.22 863.149983,125.503321 866.45,128.07 C869.750017,130.63668 872.279991,133.863314 874.04,137.75 C875.800009,141.636686 876.936664,145.889977 877.45,150.51 C877.963336,155.130023 878.22,159.493313 878.22,163.6 L878.22,234 L873.38,234 L873.38,163.6 C873.38,159.786648 873.160002,155.826687 872.72,151.72 C872.279998,147.613313 871.326674,143.836684 869.86,140.39 C868.393326,136.943316 866.303347,134.120011 863.59,131.92 C860.876653,129.719989 857.320022,128.62 852.92,128.62 C848.226643,128.62 844.120018,129.976653 840.6,132.69 C837.079982,135.403347 834.146678,138.886645 831.8,143.14 C829.453322,147.393355 827.693339,152.123307 826.52,157.33 C825.346661,162.536693 824.76,167.559976 824.76,172.4 L824.76,234 L819.92,234 L819.92,154.58 C819.92,152.819991 819.883334,150.730012 819.81,148.31 C819.736666,145.889988 819.663334,143.39668 819.59,140.83 C819.516666,138.26332 819.443334,135.806678 819.37,133.46 C819.296666,131.113322 819.186667,129.206674 819.04,127.74 L823.88,127.74 C824.026667,129.206674 824.136666,131.113322 824.21,133.46 C824.283334,135.806678 824.356666,138.26332 824.43,140.83 C824.503334,143.39668 824.54,145.889988 824.54,148.31 L824.54,154.58 L824.98,154.58 Z M941.36,233.12 C938.133317,234.586674 934.760018,235.32 931.24,235.32 C927.86665,235.32 925.19001,234.696673 923.21,233.45 C921.22999,232.203327 919.653339,230.480011 918.48,228.28 C917.306661,226.079989 916.536669,223.476682 916.17,220.47 C915.803332,217.463318 915.62,214.200018 915.62,210.68 L915.62,132.14 L901.32,132.14 L901.32,127.74 L915.62,127.74 L915.62,96.5 L920.46,96.5 L920.46,127.74 L939.82,127.74 L939.82,132.14 L920.46,132.14 L920.46,210.68 C920.46,217.866703 921.303325,223.073317 922.99,226.3 C924.676675,229.526683 927.646645,231.14 931.9,231.14 C933.220007,231.14 934.649992,230.993335 936.19,230.7 C937.730008,230.406665 939.086661,229.893337 940.26,229.16 L941.36,233.12 Z M963.14,154.58 C963.14,152.819991 963.103334,150.730012 963.03,148.31 C962.956666,145.889988 962.883334,143.39668 962.81,140.83 C962.736666,138.26332 962.663334,135.806678 962.59,133.46 C962.516666,131.113322 962.406667,129.206674 962.26,127.74 L967.1,127.74 C967.246667,129.206674 967.356666,131.076655 967.43,133.35 C967.503334,135.623345 967.576666,138.04332 967.65,140.61 C967.723334,143.17668 967.76,145.633322 967.76,147.98 L967.76,154.14 L968.42,154.14 C970.473344,143.726615 973.663312,136.356688 977.99,132.03 C982.316688,127.703312 987.119974,125.54 992.4,125.54 C993.573339,125.54 994.45333,125.613333 995.04,125.76 L995.04,130.16 C994.746665,130.013333 994.30667,129.94 993.72,129.94 L992.4,129.94 C988.293313,129.94 984.700015,131.406652 981.62,134.34 C978.539985,137.273348 976.01001,141.086643 974.03,145.78 C972.04999,150.473357 970.546672,155.716638 969.52,161.51 C968.493328,167.303362 967.98,173.133304 967.98,179 L967.98,234 L963.14,234 L963.14,154.58 Z M1072.48,180.98 C1072.48,189.193374 1071.71001,196.783299 1070.17,203.75 C1068.62999,210.716701 1066.43001,216.693308 1063.57,221.68 C1060.70999,226.666692 1057.22669,230.553319 1053.12,233.34 C1049.01331,236.126681 1044.39336,237.52 1039.26,237.52 C1034.12664,237.52 1029.50669,236.126681 1025.4,233.34 C1021.29331,230.553319 1017.81001,226.666692 1014.95,221.68 C1012.08999,216.693308 1009.89001,210.716701 1008.35,203.75 C1006.80999,196.783299 1006.04,189.193374 1006.04,180.98 C1006.04,172.619958 1006.77333,164.993368 1008.24,158.1 C1009.70667,151.206632 1011.83332,145.230025 1014.62,140.17 C1017.40668,135.109975 1020.88998,131.186681 1025.07,128.4 C1029.25002,125.613319 1033.97997,124.22 1039.26,124.22 C1044.39336,124.22 1049.01331,125.613319 1053.12,128.4 C1057.22669,131.186681 1060.70999,135.109975 1063.57,140.17 C1066.43001,145.230025 1068.62999,151.206632 1070.17,158.1 C1071.71001,164.993368 1072.48,172.619958 1072.48,180.98 Z M1067.64,180.98 C1067.64,173.499963 1067.01667,166.570032 1065.77,160.19 C1064.52333,153.809968 1062.72668,148.273357 1060.38,143.58 C1058.03332,138.886643 1055.06335,135.183347 1051.47,132.47 C1047.87665,129.756653 1043.80669,128.4 1039.26,128.4 C1034.56664,128.4 1030.42335,129.756653 1026.83,132.47 C1023.23665,135.183347 1020.26668,138.886643 1017.92,143.58 C1015.57332,148.273357 1013.81334,153.809968 1012.64,160.19 C1011.46666,166.570032 1010.88,173.499963 1010.88,180.98 C1010.88,188.31337 1011.46666,195.133302 1012.64,201.44 C1013.81334,207.746698 1015.57332,213.246643 1017.92,217.94 C1020.26668,222.633357 1023.23665,226.336653 1026.83,229.05 C1030.42335,231.763347 1034.56664,233.12 1039.26,233.12 C1043.95336,233.12 1048.05998,231.763347 1051.58,229.05 C1055.10002,226.336653 1058.06999,222.633357 1060.49,217.94 C1062.91001,213.246643 1064.70666,207.746698 1065.88,201.44 C1067.05334,195.133302 1067.64,188.31337 1067.64,180.98 Z M1102.62,234 L1102.62,67.68 L1107.46,67.68 L1107.46,234 L1102.62,234 Z M1147.06,235.32 C1145.73999,235.32 1144.56667,234.806672 1143.54,233.78 C1142.51333,232.753328 1142,231.360009 1142,229.6 C1142,227.986659 1142.51333,226.666672 1143.54,225.64 C1144.56667,224.613328 1145.73999,224.1 1147.06,224.1 C1148.38001,224.1 1149.55333,224.613328 1150.58,225.64 C1151.60667,226.666672 1152.12,227.986659 1152.12,229.6 C1152.12,231.360009 1151.57001,232.753328 1150.47,233.78 C1149.36999,234.806672 1148.23334,235.32 1147.06,235.32 Z M1234.62,209.8 C1234.62,213.906687 1234.76667,218.233311 1235.06,222.78 C1235.35333,227.326689 1235.64667,231.066652 1235.94,234 L1231.32,234 C1231.17333,232.533326 1231.02667,230.663345 1230.88,228.39 C1230.73333,226.116655 1230.62333,223.770012 1230.55,221.35 C1230.47667,218.929988 1230.40333,216.620011 1230.33,214.42 C1230.25667,212.219989 1230.22,210.313341 1230.22,208.7 L1229.78,208.7 C1227.72666,218.380048 1224.35336,225.493311 1219.66,230.04 C1214.96664,234.586689 1209.39337,236.86 1202.94,236.86 C1200.00665,236.86 1197.11001,236.273339 1194.25,235.1 C1191.38999,233.926661 1188.78668,232.05668 1186.44,229.49 C1184.09332,226.92332 1182.22334,223.733352 1180.83,219.92 C1179.43666,216.106648 1178.74,211.560026 1178.74,206.28 C1178.74,198.799963 1180.05999,192.786689 1182.7,188.24 C1185.34001,183.693311 1188.63998,180.13668 1192.6,177.57 C1196.56002,175.003321 1200.81331,173.316671 1205.36,172.51 C1209.90669,171.703329 1214.01332,171.3 1217.68,171.3 L1229.78,171.3 L1229.78,162.94 C1229.78,151.059941 1227.72669,142.370027 1223.62,136.87 C1219.51331,131.369972 1214.01337,128.62 1207.12,128.62 C1202.86665,128.62 1198.94335,129.756655 1195.35,132.03 C1191.75665,134.303345 1188.71335,137.346648 1186.22,141.16 L1182.92,138.08 C1185.56001,133.826645 1189.15331,130.453346 1193.7,127.96 C1198.24669,125.466654 1202.71998,124.22 1207.12,124.22 C1215.77338,124.22 1222.51998,127.373302 1227.36,133.68 C1232.20002,139.986698 1234.62,149.813267 1234.62,163.16 L1234.62,209.8 Z M1229.78,175.7 L1219,175.7 C1215.03998,175.7 1210.97002,176.066663 1206.79,176.8 C1202.60998,177.533337 1198.79668,178.999989 1195.35,181.2 C1191.90332,183.400011 1189.08001,186.47998 1186.88,190.44 C1184.67999,194.40002 1183.58,199.679967 1183.58,206.28 C1183.58,211.120024 1184.20333,215.189983 1185.45,218.49 C1186.69667,221.790017 1188.27332,224.466656 1190.18,226.52 C1192.08668,228.573344 1194.21332,230.076662 1196.56,231.03 C1198.90668,231.983338 1201.17999,232.46 1203.38,232.46 C1208.51336,232.46 1212.76665,231.030014 1216.14,228.17 C1219.51335,225.309986 1222.22666,221.606689 1224.28,217.06 C1226.33334,212.513311 1227.76333,207.490027 1228.57,201.99 C1229.37667,196.489973 1229.78,191.173359 1229.78,186.04 L1229.78,175.7 Z M1267.4,179.66 C1267.4,187.433372 1267.94999,194.619967 1269.05,201.22 C1270.15001,207.820033 1271.90999,213.466643 1274.33,218.16 C1276.75001,222.853357 1279.75665,226.519987 1283.35,229.16 C1286.94335,231.800013 1291.30664,233.12 1296.44,233.12 C1302.60003,233.12 1307.54998,231.286685 1311.29,227.62 C1315.03002,223.953315 1317.92666,219.553359 1319.98,214.42 L1323.5,216.4 C1321.44666,221.973361 1318.18336,226.886645 1313.71,231.14 C1309.23664,235.393355 1303.48004,237.52 1296.44,237.52 C1290.86664,237.52 1285.99002,236.163347 1281.81,233.45 C1277.62998,230.736653 1274.11001,226.923358 1271.25,222.01 C1268.38999,217.096642 1266.22667,211.156701 1264.76,204.19 C1263.29333,197.223298 1262.56,189.486709 1262.56,180.98 C1262.56,172.913293 1263.29333,165.396702 1264.76,158.43 C1266.22667,151.463299 1268.35332,145.450025 1271.14,140.39 C1273.92668,135.329975 1277.37331,131.370014 1281.48,128.51 C1285.58669,125.649986 1290.35331,124.22 1295.78,124.22 C1301.50003,124.22 1306.30331,125.576653 1310.19,128.29 C1314.07669,131.003347 1317.22999,134.633311 1319.65,139.18 C1322.07001,143.726689 1323.79333,149.006637 1324.82,155.02 C1325.84667,161.033363 1326.36,167.339967 1326.36,173.94 L1326.36,179.66 L1267.4,179.66 Z M1321.96,175.26 C1321.96,168.219965 1321.41001,161.840029 1320.31,156.12 C1319.20999,150.399971 1317.59668,145.486687 1315.47,141.38 C1313.34332,137.273313 1310.63002,134.083345 1307.33,131.81 C1304.02998,129.536655 1300.18002,128.4 1295.78,128.4 C1290.49997,128.4 1286.06335,130.08665 1282.47,133.46 C1278.87665,136.83335 1275.94334,140.939976 1273.67,145.78 C1271.39666,150.620024 1269.78334,155.753306 1268.83,161.18 C1267.87666,166.606694 1267.4,171.29998 1267.4,175.26 L1321.96,175.26 Z M1355.4,154.58 C1355.4,152.819991 1355.36333,150.730012 1355.29,148.31 C1355.21667,145.889988 1355.14333,143.39668 1355.07,140.83 C1354.99667,138.26332 1354.92333,135.806678 1354.85,133.46 C1354.77667,131.113322 1354.66667,129.206674 1354.52,127.74 L1359.36,127.74 C1359.50667,129.206674 1359.61667,131.076655 1359.69,133.35 C1359.76333,135.623345 1359.83667,138.04332 1359.91,140.61 C1359.98333,143.17668 1360.02,145.633322 1360.02,147.98 L1360.02,154.14 L1360.68,154.14 C1362.73334,143.726615 1365.92331,136.356688 1370.25,132.03 C1374.57669,127.703312 1379.37997,125.54 1384.66,125.54 C1385.83334,125.54 1386.71333,125.613333 1387.3,125.76 L1387.3,130.16 C1387.00667,130.013333 1386.56667,129.94 1385.98,129.94 L1384.66,129.94 C1380.55331,129.94 1376.96002,131.406652 1373.88,134.34 C1370.79998,137.273348 1368.27001,141.086643 1366.29,145.78 C1364.30999,150.473357 1362.80667,155.716638 1361.78,161.51 C1360.75333,167.303362 1360.24,173.133304 1360.24,179 L1360.24,234 L1355.4,234 L1355.4,154.58 Z M1464.74,180.98 C1464.74,189.193374 1463.97001,196.783299 1462.43,203.75 C1460.88999,210.716701 1458.69001,216.693308 1455.83,221.68 C1452.96999,226.666692 1449.48669,230.553319 1445.38,233.34 C1441.27331,236.126681 1436.65336,237.52 1431.52,237.52 C1426.38664,237.52 1421.76669,236.126681 1417.66,233.34 C1413.55331,230.553319 1410.07001,226.666692 1407.21,221.68 C1404.34999,216.693308 1402.15001,210.716701 1400.61,203.75 C1399.06999,196.783299 1398.3,189.193374 1398.3,180.98 C1398.3,172.619958 1399.03333,164.993368 1400.5,158.1 C1401.96667,151.206632 1404.09332,145.230025 1406.88,140.17 C1409.66668,135.109975 1413.14998,131.186681 1417.33,128.4 C1421.51002,125.613319 1426.23997,124.22 1431.52,124.22 C1436.65336,124.22 1441.27331,125.613319 1445.38,128.4 C1449.48669,131.186681 1452.96999,135.109975 1455.83,140.17 C1458.69001,145.230025 1460.88999,151.206632 1462.43,158.1 C1463.97001,164.993368 1464.74,172.619958 1464.74,180.98 Z M1459.9,180.98 C1459.9,173.499963 1459.27667,166.570032 1458.03,160.19 C1456.78333,153.809968 1454.98668,148.273357 1452.64,143.58 C1450.29332,138.886643 1447.32335,135.183347 1443.73,132.47 C1440.13665,129.756653 1436.06669,128.4 1431.52,128.4 C1426.82664,128.4 1422.68335,129.756653 1419.09,132.47 C1415.49665,135.183347 1412.52668,138.886643 1410.18,143.58 C1407.83332,148.273357 1406.07334,153.809968 1404.9,160.19 C1403.72666,166.570032 1403.14,173.499963 1403.14,180.98 C1403.14,188.31337 1403.72666,195.133302 1404.9,201.44 C1406.07334,207.746698 1407.83332,213.246643 1410.18,217.94 C1412.52668,222.633357 1415.49665,226.336653 1419.09,229.05 C1422.68335,231.763347 1426.82664,233.12 1431.52,233.12 C1436.21336,233.12 1440.31998,231.763347 1443.84,229.05 C1447.36002,226.336653 1450.32999,222.633357 1452.75,217.94 C1455.17001,213.246643 1456.96666,207.746698 1458.14,201.44 C1459.31334,195.133302 1459.9,188.31337 1459.9,180.98 Z" id="myControl.aero" fill="#FFFFFF"></path>
    </g>
</svg>