<?xml version="1.0" encoding="UTF-8"?>
<svg width="1680px" height="295px" viewBox="0 0 1680 295" version="1.1" xmlns="http://www.w3.org/2000/svg" xmlns:xlink="http://www.w3.org/1999/xlink">
    <!-- Generator: Sketch 51.1 (57501) - http://www.bohemiancoding.com/sketch -->
    <title>OneGovCloud</title>
    <desc>Created with Sketch.</desc>
    <defs></defs>
    <g id="OneGovCloud" stroke="none" stroke-width="1" fill="none" fill-rule="evenodd">
        <text id="OneGov-Cloud" font-family="LinotypeUnivers-720CnHeavy, Linotype Univers" font-size="220" font-style="condensed" font-weight="600" fill="#FFFFFF">
            <tspan x="265" y="232">OneGov Cloud</tspan>
        </text>
        <g id="logo-mixer" transform="translate(20.000000, 70.000000)" fill-rule="nonzero">
            <path d="M34.8757858,7.66060389 C31.8137842,3.61102394 27.2450201,0.926853879 22.1750659,0.198872311 C17.1051118,-0.529109258 11.9495001,0.75876289 7.84296716,3.77903156 C7.33620877,4.1487337 6.84979653,4.54479764 6.3857998,4.96553839 C-0.916624374,11.8995934 -1.75915188,23.1390243 4.43001471,31.055976 L43.1158737,82.3300211 L4.14631841,133.934593 C-2.05728922,141.853391 -1.2142089,153.107504 6.1021035,160.041981 C9.89114247,163.441307 14.8949972,165.217172 20.0124474,164.978753 C25.1298976,164.740334 29.9415667,162.50717 33.3885294,158.770723 C33.8143028,158.31243 34.2160145,157.832963 34.5920895,157.334203 L89.0058994,85.270863 C90.3313669,83.5092076 90.3313669,81.0999842 89.0058994,79.3383288 L34.8757858,7.66060389 Z" id="Shape" fill="#0A214C"></path>
            <path d="M153.090008,7.66040716 C156.154171,3.61093121 160.726161,0.926830076 165.799694,0.198867203 C170.873228,-0.529095669 176.032479,0.758743404 180.141912,3.77893451 C180.649028,4.14862716 181.135783,4.54468093 181.600108,4.96541086 C188.907687,11.8992878 189.75081,23.13843 183.557274,31.0551785 L144.844102,82.3279067 L183.858376,133.95234 C190.055943,141.867897 189.212599,153.109993 181.90121,160.042108 C178.109496,163.441347 173.102109,165.217166 167.981045,164.978754 C162.859982,164.740341 158.044916,162.507234 154.59552,158.770883 C154.169446,158.312602 153.76745,157.833147 153.39111,157.3344 L98.9948025,85.298335 C97.6683992,83.5367249 97.6683992,81.1275634 98.9948025,79.3659532 L153.090008,7.66040716 Z" id="Shape" fill="#55B8E8"></path>
        </g>
    </g>
</svg>