<?xml version="1.0" encoding="UTF-8" standalone="no"?>
<svg
   xmlns:dc="http://purl.org/dc/elements/1.1/"
   xmlns:cc="http://creativecommons.org/ns#"
   xmlns:rdf="http://www.w3.org/1999/02/22-rdf-syntax-ns#"
   xmlns:svg="http://www.w3.org/2000/svg"
   xmlns="http://www.w3.org/2000/svg"
   viewBox="0 0 235 55"
   height="55"
   width="235"
   xml:space="preserve"
   version="1.1"
   id="svg3355"><metadata
     id="metadata3361"><rdf:RDF><cc:Work
         rdf:about=""><dc:format>image/svg+xml</dc:format><dc:type
           rdf:resource="http://purl.org/dc/dcmitype/StillImage" /><dc:title></dc:title></cc:Work></rdf:RDF></metadata><defs
     id="defs3359" /><g
     transform="matrix(1.25,0,0,-1.25,0,54.999999)"
     id="g3363"><g
       transform="scale(0.12273425,0.12273425)"
       id="g3365"><path
         id="path3367"
         style="fill:#ee2629;fill-opacity:1;fill-rule:nonzero;stroke:none"
         d="m 636.211,228.184 0,47.957 32.34,0 c 16.504,0 26.621,-9.243 26.621,-23.977 0,-14.523 -10.117,-23.98 -26.621,-23.98 l -32.34,0 z m 0,107.359 31.246,0 c 14.297,0 23.32,-7.48 23.32,-20.242 0,-12.762 -9.023,-20.238 -23.32,-20.238 l -31.246,0 0,40.48 z m 81.617,-83.824 c 0,15.398 -8.359,28.824 -23.535,34.32 12.098,5.504 19.141,16.059 19.141,29.703 0,27.5 -19.582,39.598 -46.418,39.598 l -52.805,0 0,-146.957 55.004,0 c 28.594,0 48.613,15.617 48.613,43.336" /><path
         id="path3369"
         style="fill:#ee2629;fill-opacity:1;fill-rule:nonzero;stroke:none"
         d="m 798.766,329.16 18.132,-62.48 -36.277,0 18.145,62.48 z m 22.754,-80.297 10.781,-40.48 22.879,0 -41.016,146.957 -29.266,0 -41.015,-146.957 21.785,0 10.773,40.48 45.079,0" /><path
         id="path3371"
         style="fill:#ee2629;fill-opacity:1;fill-rule:nonzero;stroke:none"
         d="m 963.422,219.16 c 7.48,7.262 11.445,17.156 11.445,28.817 0,5.945 -1.101,11.66 -3.301,16.726 -5.945,13.418 -20.468,20.457 -33.66,26.621 -14.308,6.594 -23.105,10.117 -27.5,16.059 -2.863,3.519 -3.527,7.48 -3.527,11.66 0,11.66 9.465,19.359 21.789,19.359 12.977,0 20.898,-7.039 22.215,-19.578 l 21.777,0 c -0.437,10.996 -3.953,19.797 -10.34,26.395 -7.695,7.922 -19.355,12.32 -33.215,12.32 -13.64,0 -25.527,-4.398 -33.66,-12.539 -7.043,-7.043 -11.007,-17.16 -11.007,-27.5 0,-6.816 1.328,-12.98 4.179,-18.258 5.949,-10.781 16.289,-16.058 28.828,-21.344 14.739,-6.156 26.621,-11.218 31.895,-20.894 1.758,-3.082 2.648,-6.383 2.648,-9.906 0,-11.879 -9.687,-21.555 -24.425,-21.555 -14.52,0 -23.321,8.137 -24.2,22.434 l -22,0 c 0.664,-13.196 4.844,-23.536 12.539,-30.793 7.703,-7.266 19.578,-11.008 33.438,-11.008 15.183,0 27.723,4.844 36.082,12.984" /><path
         id="path3373"
         style="fill:#ee2629;fill-opacity:1;fill-rule:nonzero;stroke:none"
         d="m 1104.35,228.184 -68.86,0 0,47.078 57.2,0 0,20.019 -57.2,0 0,40.262 66.45,0 0,19.797 -88.22,0 0,-146.957 90.63,0 0,19.801" /><path
         id="path3375"
         style="fill:#ee2629;fill-opacity:1;fill-rule:nonzero;stroke:none"
         d="m 1245.25,228.184 -75.46,0 0,127.156 -22,0 0,-146.957 97.46,0 0,19.801" /><path
         id="path3377"
         style="fill:#ee2629;fill-opacity:1;fill-rule:nonzero;stroke:none"
         d="M 22.0039,160.023 0,160.023 0,13.0664 l 97.4609,0 0,19.8047 -75.457,0 0,127.1519" /><path
         id="path3379"
         style="fill:#ee2629;fill-opacity:1;fill-rule:nonzero;stroke:none"
         d="m 154.711,71.3633 18.141,62.4807 18.132,-62.4807 -36.273,0 z m 4.277,88.6597 -41.019,-146.9566 21.781,0 10.781,40.4883 45.074,0 10.782,-40.4883 22.883,0 -41.024,146.9566 -29.258,0" /><path
         id="path3381"
         style="fill:#ee2629;fill-opacity:1;fill-rule:nonzero;stroke:none"
         d="m 335.934,60.1406 -50.383,99.8824 -24.199,0 0,-146.9566 20.898,0 0,103.8436 52.141,-103.8436 22.441,0 0,146.9566 -20.898,0 0,-99.8824" /><path
         id="path3383"
         style="fill:#ee2629;fill-opacity:1;fill-rule:nonzero;stroke:none"
         d="m 579.68,96 c -14.297,6.602 -23.11,10.129 -27.5,16.066 -2.864,3.516 -3.528,7.481 -3.528,11.661 0,11.66 9.461,19.355 21.786,19.355 12.98,0 20.902,-7.031 22.218,-19.582 l 21.778,0 c -0.442,11.008 -3.954,19.805 -10.34,26.406 -7.699,7.922 -19.36,12.317 -33.215,12.317 -13.645,0 -25.52,-4.395 -33.66,-12.539 -7.043,-7.043 -10.996,-17.161 -10.996,-27.5 0,-6.817 1.316,-12.981 4.175,-18.262 5.942,-10.7814 16.274,-16.0548 28.821,-21.34 14.734,-6.1601 26.621,-11.2187 31.894,-20.8984 1.77,-3.0742 2.649,-6.3711 2.649,-9.8984 0,-11.875 -9.692,-21.5508 -24.426,-21.5508 -14.523,0 -23.32,8.1328 -24.199,22.4336 l -22,0 c 0.664,-13.1953 4.843,-23.5352 12.539,-30.8047 7.703,-7.2539 19.578,-10.9961 33.433,-10.9961 15.188,0 27.727,4.8476 36.086,12.9805 7.481,7.2656 11.438,17.1601 11.438,28.8203 0,5.9414 -1.098,11.6523 -3.293,16.7226 C 607.395,82.8086 592.883,89.8477 579.68,96" /><path
         id="path3385"
         style="fill:#ee2629;fill-opacity:1;fill-rule:nonzero;stroke:none"
         d="m 847.945,99.9648 -47.961,0 0,60.0582 -22,0 0,-146.9566 22,0 0,66.8789 47.961,0 0,-66.8789 22,0 0,146.9566 -22,0 0,-60.0582" /><path
         id="path3387"
         style="fill:#ee2629;fill-opacity:1;fill-rule:nonzero;stroke:none"
         d="m 938.734,71.3633 18.137,62.4807 18.133,-62.4807 -36.27,0 z m 4.278,88.6597 -41.016,-146.9566 21.777,0 10.782,40.4883 45.07,0 10.781,-40.4883 22.884,0 -41.02,146.9566 -29.258,0" /><path
         id="path3389"
         style="fill:#ee2629;fill-opacity:1;fill-rule:nonzero;stroke:none"
         d="m 1045.34,13.0664 22,0 0,65.1211 44.66,0 0,19.7969 -44.66,0 0,42.2456 55,0 0,19.793 -77,0 0,-146.9566" /><path
         id="path3391"
         style="fill:#ee2629;fill-opacity:1;fill-rule:nonzero;stroke:none"
         d="m 1145.89,140.23 38.5,0 0,-127.1636 22,0 0,127.1636 38.94,0 0,19.793 -99.44,0 0,-19.793" /><path
         id="path3393"
         style="fill:#ee2629;fill-opacity:1;fill-rule:nonzero;stroke:none"
         d="m 697.543,30.8477 c -18.895,0.8711 -27.059,20.9296 -27.059,55.9062 0,34.9801 8.145,55.4101 27.059,55.2931 13.84,-0.09 19.641,-6.973 20.527,-18.332 l 21.875,0 c -0.496,25.39 -16.726,38.535 -41.992,38.535 -33.223,0 -50.351,-25.117 -50.351,-75.4961 0,-50.3672 16.945,-75.9453 49.726,-75.9453 28.313,0 43.527,14.8672 44.27,41.8672 L 719.43,52.668 C 718.883,38.3203 711.383,30.2031 697.543,30.8477" /><path
         id="path3395"
         style="fill:#ee2629;fill-opacity:1;fill-rule:nonzero;stroke:none"
         d="m 424.617,33.3086 0,106.4724 c 36.328,0 48.528,-10.09 48.528,-53.2341 0,-42.3086 -11.868,-53.2383 -48.528,-53.2383 z m 0,126.7144 -21.996,0 0,-146.9566 21.996,0 c 50.61,0 69.875,22.6758 69.875,73.4805 0,50.5861 -19.179,73.6131 -69.875,73.4761" /><path
         id="path3397"
         style="fill:#ee2629;fill-opacity:1;fill-rule:nonzero;stroke:none"
         d="M 1336.14,160.035 1324.25,0 1358.35,47.3047 1380.7,0.0664063 1403.06,47.2578 1437.09,0.0664063 1418.63,160.035 l -82.49,0" /><path
         id="path3399"
         style="fill:#ee2629;fill-opacity:1;fill-rule:nonzero;stroke:none"
         d="m 1513.78,291.199 c -0.52,0 -1.03,-0.101 -1.55,-0.156 -1.54,6.133 -4.23,12.16 -7.87,17.848 3.46,2.789 5.71,7.007 5.71,11.797 0,8.41 -6.81,15.214 -15.21,15.214 -4.75,0 -8.93,-2.214 -11.72,-5.613 -5.21,3.508 -10.93,6.524 -17.16,8.84 0.36,1.301 0.62,2.644 0.62,4.059 0,8.414 -6.82,15.218 -15.22,15.218 -7.95,0 -14.39,-6.101 -15.08,-13.879 -0.21,0 -0.41,0.028 -0.62,0.028 -5.81,0 -12.14,-0.625 -18.63,-1.992 -1.87,6.292 -7.63,10.917 -14.53,10.917 -8.39,0 -15.21,-6.816 -15.21,-15.218 0,-2.582 0.7,-4.981 1.84,-7.11 -5.16,-3.312 -10.17,-7.359 -14.91,-12.269 -2.63,2.176 -5.96,3.539 -9.65,3.539 -8.4,0 -15.22,-6.809 -15.22,-15.219 0,-5.664 3.13,-10.547 7.72,-13.164 -2.67,-5.398 -5.11,-11.289 -7.22,-17.812 -1.31,0.371 -2.67,0.628 -4.1,0.628 -8.41,0 -15.22,-6.808 -15.22,-15.214 0,-7.532 5.48,-13.743 12.66,-14.961 -0.55,-3.77 -1.11,-7.52 -1.49,-11.575 -0.77,-8.285 -1.28,-17.07 -1.99,-26.691 l 73.33,0 c -1.09,9.406 -2.02,17.481 -3.08,26.606 -3.01,25.937 0.06,46.128 12.63,56.722 5.84,4.918 14.12,9.371 24.3,9.371 18.88,0 31.09,-15.347 31.09,-30.48 0,-17.16 -13.37,-30.207 -28.64,-31.004 0,0 -1.5,0.117 -1.03,-1.066 1.74,-4.446 13.32,-15.918 33.21,-9.383 0,0 0.8,0.222 2.06,0.691 2.04,-3.723 5.86,-6.351 10.4,-6.351 6.64,0 12.03,5.39 12.03,12.027 0,3.238 -1.32,6.152 -3.4,8.316 3.55,4.383 6.68,10.016 8.73,17.149 0.79,-0.129 1.59,-0.246 2.42,-0.246 8.41,0 15.22,6.808 15.22,15.214 0,8.415 -6.81,15.219 -15.22,15.219" /><path
         id="path3401"
         style="fill:#ee2629;fill-opacity:1;fill-rule:nonzero;stroke:none"
         d="m 1414.7,194.105 -141.05,0 0,-19.824 143.34,0 -2.29,19.824" /></g></g></svg>