<?xml version="1.0" encoding="UTF-8"?>
<svg width="500px" height="119px" viewBox="0 0 500 119" version="1.1" xmlns="http://www.w3.org/2000/svg" xmlns:xlink="http://www.w3.org/1999/xlink">
    <title>concordia</title>
    <g id="Page-1" stroke="none" stroke-width="1" fill="none" fill-rule="evenodd">
        <g id="concordia" transform="translate(-0.000040, 0.000320)" fill="#4D6E82" fill-rule="nonzero">
            <path d="M70.273266,75.8351358 C70.273266,70.6740503 71.6036663,53.8898944 80.0267099,53.8898944 C88.4497531,53.8898944 89.7733742,70.6740503 89.7733742,75.8351358 C89.7733742,80.9979217 88.4497531,97.7820776 80.0267099,97.7820776 C71.6036663,97.7820776 70.273266,80.9979217 70.273266,75.8351358 Z M48.5326617,75.8351358 C48.5326617,96.0271385 57.3793998,118.632183 80.0267099,118.632183 C102.660462,118.632183 111.520758,96.0271385 111.520758,75.8351358 C111.520758,55.643133 102.660462,33.0397895 80.0267099,33.0397895 C57.3793998,33.0397895 48.5326617,55.643133 48.5326617,75.8351358 Z" id="Fill-1"></path>
            <path d="M246.53418,75.8351358 C246.53418,70.6740503 247.862886,53.8898944 256.285929,53.8898944 C264.710668,53.8898944 266.039373,70.6740503 266.039373,75.8351358 C266.039373,80.9979217 264.710668,97.7820776 256.285929,97.7820776 C247.862886,97.7820776 246.53418,80.9979217 246.53418,75.8351358 M224.791881,75.8351358 C224.791881,96.0271385 233.652177,118.632183 256.285929,118.632183 C278.92646,118.632183 287.779977,96.0271385 287.779977,75.8351358 C287.779977,55.643133 278.92646,33.0397895 256.285929,33.0397895 C233.652177,33.0397895 224.791881,55.643133 224.791881,75.8351358" id="Fill-3"></path>
            <path d="M136.557365,92.9566753 L136.557365,117.207825 L115.340447,117.207825 L115.340447,34.4655074 L136.338739,34.4655074 L152.322184,78.9358683 C152.322184,78.9358683 151.873068,65.0766109 151.873068,55.5417819 L151.873068,34.4655074 L172.529015,34.4655074 L172.529015,117.207825 L151.873068,117.207825 L136.276032,72.9449279 L136.557365,92.9566753 Z" id="Fill-5"></path>
            <path d="M313.487886,72.6566894 L313.487886,52.2521213 C319.619591,51.9137174 324.825946,54.9882618 324.825946,62.2256851 C324.825946,67.6061379 320.817798,72.7570202 314.918278,72.7570202 L313.487886,72.6566894 Z M350.95094,117.206975 L333.281191,82.7492897 C342.146571,79.23431 346.919064,71.1228182 346.919064,62.0046172 C346.919064,40.1716103 332.089762,34.4646572 312.726931,34.4646572 L291.672712,34.4646572 L291.672712,117.206975 L313.487886,117.206975 L313.487886,95.1477984 C313.487886,91.0886515 313.276039,87.027804 313.170963,82.9737587 L313.38281,82.7492897 L326.232612,117.183167 L350.95094,117.206975 Z" id="Fill-7"></path>
            <path d="M373.854331,55.1001562 C384.031469,55.1001562 386.616004,67.6057978 386.616004,76.6066628 C386.616004,84.3950553 384.031469,97.1319679 373.854331,97.2305982 L373.854331,55.1001562 Z M352.057799,117.204934 L371.013884,117.204934 C384.580577,117.204934 408.519307,113.696756 408.519307,75.5115264 C408.519307,50.4883395 398.381149,34.3299758 372.456139,34.5561453 C364.388999,34.6377704 352.088305,35.6155707 352.088305,35.6155707 L352.057799,117.204934 Z" id="Fill-9"></path>
            <path d="M463.255533,89.0075522 L466.321384,69.8052535 C467.180636,64.644168 467.738217,59.3742492 468.39918,54.2182653 L468.617807,54.2182653 C469.160138,59.3742492 469.599085,64.644168 470.254964,69.8052535 L472.664936,89.0075522 L463.255533,89.0075522 Z M500,117.207315 L482.498032,34.4649973 L455.268048,34.4649973 L435.481522,117.207315 L458.447446,117.207315 L460.308315,106.555243 L475.279978,106.555243 L476.9273,117.207315 L500,117.207315 Z" id="Fill-11"></path>
            <path d="M224.516989,35.1970722 C220.908807,33.7754355 216.54984,33.0357082 212.609483,33.0357082 C201.783245,33.0357082 176.409038,39.3004327 176.409038,76.3769222 C176.409038,104.694021 191.943368,118.633203 210.206288,118.633203 C215.126227,118.633203 220.552904,117.106134 224.516989,114.468624 L224.056009,93.0862551 C220.957956,96.8818211 218.1853,97.7847985 213.15859,97.7847985 C202.001871,97.7847985 198.317425,85.4917222 198.317425,75.8378566 C198.317425,66.7298587 202.001871,53.8926153 213.590759,53.8926153 C218.1853,53.8926153 220.808815,55.6458538 223.986523,58.7152967 L224.516989,35.1970722 Z" id="Fill-13"></path>
            <path d="M48.1028661,35.1970722 C44.4946854,33.7754355 40.1357178,33.0357082 36.2021395,33.0357082 C25.3742068,33.0357082 4.53110185e-14,39.3004327 4.53110185e-14,76.3769222 C4.53110185e-14,104.694021 15.5292451,118.633203 33.7921661,118.633203 C38.7121048,118.633203 44.1387818,117.106134 48.1028661,114.468624 L47.6520555,93.0862551 C44.550613,96.8818211 41.7779571,97.7847985 36.7444683,97.7847985 C25.5928331,97.7847985 21.9100819,85.4917222 21.9100819,75.8378566 C21.9100819,66.7298587 25.5928331,53.8926153 37.1884999,53.8926153 C41.7779571,53.8926153 44.3997775,55.6458538 47.5724009,58.7152967 L48.1028661,35.1970722 Z" id="Fill-15"></path>
            <path d="M423.534187,37.9321924 C419.451469,37.9321924 415.678894,36.6176886 412.594399,34.4002074 L412.594399,117.203744 L434.553632,117.203744 L434.553632,34.4682283 L434.39093,34.4682283 C431.319995,36.648298 427.5864,37.9321924 423.534187,37.9321924" id="Fill-18"></path>
            <path d="M438.432974,14.9152818 C438.432974,23.1543128 431.769111,29.8322642 423.566388,29.8322642 C415.348412,29.8322642 408.686243,23.1543128 408.686243,14.9152818 C408.686243,6.67625088 415.348412,0 423.566388,0 C431.769111,0 438.432974,6.67625088 438.432974,14.9152818" id="Fill-20"></path>
        </g>
    </g>
</svg>