<?xml version="1.0" encoding="UTF-8"?>
<svg width="237px" height="85px" viewBox="0 0 237 85" version="1.1" xmlns="http://www.w3.org/2000/svg" xmlns:xlink="http://www.w3.org/1999/xlink">
    <!-- Generator: Sketch 50.2 (55047) - http://www.bohemiancoding.com/sketch -->
    <title>Artboard</title>
    <desc>Created with Sketch.</desc>
    <defs></defs>
    <g id="Artboard" stroke="none" stroke-width="1" fill="none" fill-rule="evenodd">
        <g id="gr" transform="translate(5.000000, 5.000000)">
            <g id="Crest" transform="translate(0.000000, 0.605428)" fill-rule="nonzero">
                <polygon id="Fill-1" fill="#1A1918" points="0.0982055403 0.0933882478 65.3525135 0.0933882478 65.3525135 73.3172082 0.0982055403 73.3172082"></polygon>
                <polygon id="Fill-3" fill="#FFFFFF" points="17.4854964 1.20873745 32.1181219 1.20873745 32.1181219 32.4336089 17.4854964 32.4336089"></polygon>
                <polygon id="Fill-4" fill="#007BFF" points="33.1099979 1.20873745 44.5182082 1.20873745 44.5182082 12.6075409 33.1099979 12.6075409"></polygon>
                <polygon id="Fill-5" fill="#007BFF" points="52.9507905 21.03317 64.2362439 21.03317 64.2362439 32.4319735 52.9507905 32.4319735"></polygon>
                <polygon id="Fill-6" fill="#FFB300" points="52.9507905 1.20873745 64.2362439 1.20873745 64.2362439 12.6075409 52.9507905 12.6075409"></polygon>
                <polygon id="Fill-7" fill="#FFB300" points="33.1099979 21.03317 44.5182082 21.03317 44.5182082 32.4319735 33.1099979 32.4319735"></polygon>
                <polyline id="Fill-8" fill="#FFB300" points="45.2612967 13.3516522 33.1099979 13.3516522 33.1099979 16.8203555 48.7344993 16.8203555 48.7344993 1.20873745 45.2612967 1.20873745 45.2612967 13.3516522"></polyline>
                <polyline id="Fill-9" fill="#FFB300" points="52.2060652 20.2906942 64.2346071 20.2906942 64.2346071 16.8203555 48.7344993 16.8203555 48.7344993 32.4336089 52.2060652 32.4336089 52.2060652 20.2906942"></polyline>
                <polyline id="Fill-10" fill="#007BFF" points="45.2612967 20.1647677 33.1099979 20.1647677 33.1099979 17.5628313 47.989774 17.5628313 47.989774 32.4336089 45.2612967 32.4336089 45.2612967 20.1647677"></polyline>
                <polyline id="Fill-11" fill="#007BFF" points="52.2060652 13.3516522 64.2346071 13.3516522 64.2346071 16.0762442 49.4775879 16.0762442 49.4775879 1.20873745 52.2060652 1.20873745 52.2060652 13.3516522"></polyline>
                <polygon id="Fill-12" fill="#FFFFFF" points="1.11626964 33.5473227 64.2346071 33.5473227 64.2346071 72.201859 1.11626964 72.201859"></polygon>
                <polyline id="Fill-13" fill="#D73032" points="31.8693346 40.4847293 31.622184 40.6090204 30.13437 40.6090204 29.6367953 40.7316761 27.1571054 40.7316761 26.6611674 40.6090204 26.2896231 40.4847293 26.0408358 40.2361471 25.7936851 39.8649091 25.7936851 39.4936712 26.0408358 38.8738511 26.0408358 38.9997776 26.1652294 39.1224333 26.2896231 39.2467244 26.5367737 39.4936712 26.7855611 39.4936712 27.0327117 39.6163269 27.5286497 39.740618 27.9018307 39.8649091 30.8774586 39.8649091 31.0018523 39.9892003 31.2506397 39.9892003 31.4977903 40.1102206 31.622184 40.2361471 31.8693346 40.4847293"></polyline>
                <polyline id="Fill-14" fill="#D73032" points="35.3425372 53.7413578 35.7140815 53.7413578 35.7140815 54.2385223 35.5896878 54.4854691 35.5896878 54.6097602 35.2181435 54.6097602 34.9693561 54.4854691 34.9693561 54.361178 34.8465992 54.1142311 34.9693561 53.8656489 34.9693561 53.7413578 35.3425372 53.7413578"></polyline>
                <path d="M35.0937498,37.7601373 L34.8465992,37.8844284 L34.7222055,37.8844284 L34.4734181,38.0070841 L34.2262675,38.0070841 L33.9774802,38.1313752 L33.7303296,38.2556663 L33.6059359,38.2556663 L33.3571485,38.3799574 L33.3571485,38.2556663 L33.4815422,38.1313752 L33.6059359,38.1313752 L33.8530865,38.0070841 L34.1018739,37.8844284 L34.4734181,37.7601373 L34.7222055,37.7601373 L35.0937498,37.6358461 L35.0937498,37.7601373 Z M36.5815637,38.0070841 L36.7059574,37.8844284 L36.953108,38.0070841 L37.0775017,38.1313752 L37.3262891,38.2556663 L37.449046,38.5026131 L37.449046,38.6269042 L37.2018954,38.3799574 L36.953108,38.2556663 L36.8303511,38.1313752 L36.5815637,38.0070841 Z" id="Fill-15" fill="#FF0000"></path>
                <path d="M47.7426234,67.6194419 L47.989774,67.6194419 L48.2385614,67.743733 L48.6101057,67.743733 L48.7344993,67.8680241 L48.98165,67.8680241 L49.1060436,67.9890444 L49.3531943,67.9890444 L49.4775879,68.1133355 L49.6019816,68.1133355 L49.6019816,68.2376266 L49.7263753,68.2376266 L49.7263753,68.6088645 L49.6019816,68.8574468 L49.6019816,68.9833733 L49.4775879,69.106029 L49.3531943,69.2286847 L49.2304373,69.3529758 L49.1060436,69.4772669 L48.98165,69.6031934 L48.98165,69.7258492 L48.858893,69.7258492 L48.6101057,69.972796 L48.4873487,70.0970871 L48.2385614,70.2197428 L47.989774,70.3456693 L47.7426234,70.468325 L47.493836,70.468325 L47.2466854,70.5926161 L46.997898,70.7169072 L46.7507474,70.7169072 L46.7507474,70.8395629 L46.3775664,70.8395629 L46.3775664,70.468325 L46.5019601,70.3456693 L46.5019601,70.0970871 L46.6263538,69.8485049 L46.8751411,69.6031934 L46.997898,69.2286847 L47.1222917,68.8574468 L47.2466854,68.6088645 L47.493836,67.8680241 L47.6182297,67.6194419 L47.7426234,67.6194419 Z M22.3221193,67.4935153 L22.4448762,67.6194419 L22.6936636,67.743733 L22.9408142,67.743733 L23.1896016,67.8680241 L23.6855395,67.8680241 L23.8099332,67.9890444 L24.0570838,68.1133355 L24.0570838,68.6088645 L23.9343269,68.7331557 L23.9343269,68.9833733 L23.8099332,68.9833733 L23.8099332,69.2286847 L23.6855395,69.3529758 L23.5611459,69.3529758 L23.4367522,69.4772669 L23.3139953,69.6031934 L23.1896016,69.7258492 L22.9408142,69.8485049 L22.8164205,69.972796 L22.6936636,70.0970871 L22.4448762,70.2197428 L22.3221193,70.3456693 L22.0733319,70.468325 L21.9489382,70.468325 L21.7017876,70.5926161 L21.577394,70.7169072 L21.3286066,70.7169072 L21.081456,70.8395629 L20.08958,70.8395629 L20.7099117,69.7258492 L21.577394,68.3635531 L22.0733319,67.743733 L22.1977256,67.6194419 L22.1977256,67.4935153 L22.3221193,67.4935153 Z M46.997898,67.1239128 L47.2466854,67.1239128 L47.3694423,67.2482039 L46.0060221,70.2197428 L45.8816284,70.3456693 L45.6344778,70.468325 L45.2612967,70.468325 L45.3873272,69.7258492 L45.5100841,69.6031934 L45.6344778,69.4772669 L45.6344778,69.3529758 L45.7588715,69.106029 L46.0060221,68.6088645 L46.1304158,68.3635531 L46.2548095,68.1133355 L46.3775664,67.8680241 L46.5019601,67.6194419 L46.6263538,67.3708596 L46.7507474,67.1239128 L46.997898,67.1239128 Z M21.577394,66.7510395 L21.7017876,66.7510395 L21.7017876,66.876966 L21.8261813,66.876966 L21.9489382,67.1239128 L21.8261813,67.2482039 L21.7017876,67.4935153 L21.577394,67.6194419 L21.577394,67.743733 L21.4530003,67.8680241 L21.3286066,68.1133355 L21.2058497,68.2376266 L21.2058497,68.3635531 L21.081456,68.3635531 L20.9570623,68.6088645 L20.8343054,68.7331557 L20.7099117,68.9833733 L20.585518,69.2286847 L20.4611243,69.3529758 L20.2139737,69.6031934 L20.08958,69.8485049 L19.9651863,70.0970871 L19.8424294,70.2197428 L19.3448547,70.2197428 L19.2220977,70.0970871 L19.0977041,70.0970871 L19.0977041,69.972796 L19.2220977,69.972796 L19.2220977,69.8485049 L19.3448547,69.8485049 L19.3448547,69.7258492 L19.4692484,69.6031934 L19.593642,69.3529758 L19.7180357,69.2286847 L19.8424294,69.106029 L19.9651863,68.8574468 L20.08958,68.7331557 L20.2139737,68.6088645 L20.3367306,68.3635531 L21.2058497,66.876966 L21.577394,66.7510395 Z M35.2181435,53.7413578 L35.5896878,53.7413578 L35.7140815,53.8656489 L35.8384752,53.98994 L35.7140815,54.1142311 L35.7140815,54.361178 L35.5896878,54.4854691 L35.5896878,54.6097602 L35.0937498,54.6097602 L35.0937498,54.4854691 L34.9693561,54.361178 L34.9693561,53.8656489 L35.0937498,53.7413578 L35.2181435,53.7413578 Z M11.1610596,50.8908392 L11.4082103,50.8908392 L11.6569976,51.1394215 L11.7813913,51.2637126 L12.0285419,51.3880037 L12.2756925,51.5106594 L12.5244799,51.6349505 L13.3935989,51.6349505 L13.3935989,52.1304796 L13.1448116,52.2547707 L13.0204179,52.3790618 L12.8960242,52.5033529 L12.6488736,52.627644 L12.2756925,52.627644 L12.1529356,52.7502997 L10.4163343,52.7502997 L10.04479,52.627644 L9.79600264,52.627644 L9.42445835,52.5033529 L9.17567098,52.5033529 L8.92852037,52.3790618 L8.68136976,52.2547707 L8.55697607,52.1304796 L8.55697607,52.0061884 L9.05291405,51.7592416 L9.42445835,51.6349505 L9.79600264,51.5106594 L10.1691837,51.3880037 L10.540728,51.1394215 L10.9122723,51.0151303 L11.1610596,50.8908392 Z M10.7878786,49.9014166 L10.9122723,49.9014166 L11.1610596,50.3953102 L11.1610596,50.5212367 L10.9122723,50.5212367 L10.6651217,50.6455278 L10.2935774,50.7681835 L9.92203308,50.8908392 L9.54885203,51.0151303 L9.17567098,51.1394215 L8.92852037,51.2637126 L8.80412668,51.3880037 L8.55697607,51.3880037 L8.30982546,51.2637126 L8.0610381,51.1394215 L7.93664441,51.0151303 L8.30982546,50.8908392 L8.55697607,50.7681835 L8.92852037,50.5212367 L9.30170142,50.3953102 L9.67324571,50.2710191 L10.1691837,50.1483634 L10.540728,50.0257077 L10.7878786,49.9014166 Z M12.0285419,42.4684809 L12.1529356,42.8380834 L12.2756925,43.088301 L12.401723,43.3336125 L12.5244799,43.5821947 L12.6488736,43.7064858 L12.6488736,43.9534326 L12.7732673,44.0777237 L12.7732673,44.2020148 L12.6488736,44.4489617 L12.401723,44.5732528 L11.6569976,44.5732528 L11.4082103,44.4489617 L11.036666,44.4489617 L10.7878786,44.326306 L10.540728,44.2020148 L10.1691837,43.9534326 L9.67324571,43.7064858 L9.30170142,43.4579036 L9.05291405,43.2093213 L8.92852037,42.8380834 L8.80412668,42.7137923 L9.17567098,42.5911366 L10.04479,42.5911366 L10.4163343,42.4684809 L12.0285419,42.4684809 Z M14.3854749,41.6000785 L15.0041698,41.8470253 L15.6245015,41.9713164 L16.3692268,42.2182633 L16.9879217,42.4684809 L17.4854964,42.5911366 L18.1058281,42.8380834 L18.4773724,43.088301 L18.8489167,43.2093213 L19.0977041,43.2093213 L19.2220977,43.3336125 L19.3448547,43.3336125 L19.593642,43.4579036 L19.7180357,43.4579036 L19.8424294,43.5821947 L19.9651863,43.5821947 L20.08958,43.7064858 L20.4611243,43.8291415 L21.577394,43.8291415 L21.9489382,43.9534326 L22.3221193,43.9534326 L22.5692699,44.0777237 L22.6936636,44.2020148 L22.9408142,44.326306 L23.0652079,44.4489617 L23.4367522,44.6975439 L23.6855395,44.9444907 L23.9343269,45.1930729 L24.1814775,45.4400197 L24.4286281,45.688602 L24.5530218,45.688602 L24.5530218,45.8128931 L24.6774155,45.8128931 L24.8018092,45.9371842 L25.0489598,46.1824956 L25.2977472,46.1824956 L25.5448978,46.3067867 L25.7936851,46.4327132 L25.7936851,46.5570044 L25.6692915,46.6796601 L25.4221409,46.9266069 L25.2977472,47.1768245 L25.0489598,47.4221359 L24.9262029,47.7950093 L24.6774155,48.0419561 L24.5530218,48.2905383 L24.3058712,48.6617762 L24.0570838,48.2905383 L23.5611459,47.7950093 L23.0652079,47.2994802 L22.4448762,46.9266069 L21.9489382,46.4327132 L21.4530003,46.0598399 L20.9570623,45.8128931 L20.7099117,45.5626755 L20.2139737,45.4400197 L19.7180357,45.1930729 L19.0977041,45.0687818 L18.4773724,44.9444907 L16.7407711,44.9444907 L16.2448331,45.0687818 L15.9960457,45.0687818 L15.7488951,45.1930729 L15.6245015,45.317364 L15.5001078,45.1930729 L15.3773508,45.0687818 L15.2529572,44.9444907 L15.2529572,44.8201996 L15.0041698,44.326306 L14.8797761,44.2020148 L14.7570192,44.2020148 L14.6326255,44.0777237 L13.2692052,44.0777237 L13.1448116,43.8291415 L13.0204179,43.5821947 L12.8960242,43.3336125 L12.7732673,43.2093213 L12.7732673,43.088301 L12.6488736,43.088301 L12.6488736,42.8380834 L12.5244799,42.5911366 L12.5244799,42.4684809 L12.401723,42.3441898 L12.401723,41.6000785 L12.5244799,41.474152 L13.6407495,41.474152 L14.0139306,41.6000785 L14.3854749,41.6000785 Z M11.9041482,41.6000785 L12.0285419,41.7227342 L12.0285419,41.9713164 L11.9041482,42.0939721 L9.79600264,42.0939721 L9.42445835,41.9713164 L9.17567098,41.9713164 L9.05291405,41.8470253 L9.05291405,41.7227342 L8.92852037,41.6000785 L9.17567098,41.474152 L9.54885203,41.3514963 L10.540728,41.3514963 L11.036666,41.474152 L11.5326039,41.474152 L11.7813913,41.6000785 L11.9041482,41.6000785 Z M35.0937498,37.511555 L35.0937498,37.8844284 L35.2181435,38.2556663 L35.4669309,38.5026131 L35.5896878,38.6269042 L35.8384752,38.6269042 L36.0856258,38.5026131 L36.2100194,38.3799574 L36.4571701,38.2556663 L36.5815637,38.0070841 L36.7059574,37.8844284 L36.7059574,37.7601373 L37.0775017,37.8844284 L37.3262891,38.0070841 L37.449046,38.2556663 L37.6978334,38.5026131 L37.449046,38.7511954 L37.0775017,38.9997776 L36.8303511,39.1224333 L36.4571701,39.2467244 L35.4669309,39.2467244 L35.0937498,39.1224333 L34.8465992,38.9997776 L34.7222055,38.8738511 L34.5978118,38.7511954 L34.4734181,38.7511954 L34.3506612,38.6269042 L34.2262675,38.6269042 L34.1018739,38.5026131 L33.7303296,38.5026131 L33.6059359,38.6269042 L33.3571485,38.6269042 L33.3571485,38.5026131 L33.2343916,38.5026131 L33.2343916,38.2556663 L33.3571485,38.1313752 L33.6059359,38.0070841 L33.8530865,37.8844284 L34.1018739,37.7601373 L34.3506612,37.6358461 L34.5978118,37.6358461 L34.8465992,37.511555 L35.0937498,37.511555 Z M36.5815637,35.5914782 L36.7059574,35.7157693 L36.7059574,35.838425 L36.8303511,36.0870073 L36.8303511,36.3339541 L37.0775017,36.3339541 L37.2018954,36.0870073 L37.2018954,35.838425 L37.3262891,35.7157693 L37.2018954,35.5914782 L37.2018954,35.4671871 L37.0775017,35.342896 L37.0775017,35.0959492 L37.3262891,35.0959492 L37.5734397,35.2186049 L37.6978334,35.342896 L37.8222271,35.4671871 L38.0693777,35.5914782 L38.1937714,35.838425 L38.1937714,36.2112984 L39.310041,36.2112984 L39.4344347,35.9643516 L39.6815853,35.838425 L39.9303727,35.7157693 L40.1775233,35.7157693 L40.5490676,35.838425 L40.7978549,35.9643516 L40.7978549,36.2112984 L40.9222486,36.5825363 L40.9222486,37.0780654 L41.0466423,37.3250122 L41.1693992,37.2023565 L41.2937929,36.9554096 L41.4181866,36.5825363 L41.4181866,36.2112984 L41.666974,36.2112984 L41.9141246,36.3339541 L42.7832436,36.3339541 L43.0303942,36.4582452 L43.6507259,36.4582452 L43.7751196,36.2112984 L44.1466639,36.0870073 L44.5182082,36.0870073 L44.7669955,36.2112984 L44.8897524,36.4582452 L45.0141461,36.8294831 L45.0141461,37.9448323 L45.1385398,38.0691234 L45.2612967,38.0691234 L45.2612967,37.9448323 L45.3873272,37.8205412 L45.3873272,37.5735944 L45.5100841,37.3250122 L45.5100841,36.9554096 L45.6344778,36.8294831 L46.0060221,36.9554096 L46.2548095,36.9554096 L46.6263538,37.0780654 L46.997898,37.2023565 L47.2466854,37.3250122 L47.6182297,37.3250122 L47.8670171,37.4493033 L48.1141677,37.5735944 L48.2385614,37.3250122 L48.6101057,37.2023565 L48.858893,37.2023565 L49.2304373,37.3250122 L49.4775879,37.4493033 L49.6019816,37.6978855 L49.6019816,38.4403614 L49.4775879,38.6889436 L49.4775879,39.1844726 L49.6019816,39.4330549 L49.7263753,39.3071283 L49.850769,39.1844726 L49.850769,39.0601815 L49.9735259,38.9358904 L50.0979196,38.8132347 L50.0979196,38.5646525 L50.2223133,38.4403614 L50.4694639,38.5646525 L50.7182513,38.6889436 L50.9654019,38.8132347 L51.2141892,38.9358904 L51.4613399,39.0601815 L51.8345209,39.1844726 L52.0816715,39.3071283 L52.2060652,39.4330549 L52.4532158,39.1844726 L52.9507905,39.1844726 L53.1979412,39.3071283 L53.3223348,39.4330549 L53.5711222,39.6800017 L53.6955159,39.9269485 L53.6955159,40.2981864 L53.5711222,40.6694244 L53.3223348,40.9180066 L53.3223348,41.1649534 L53.1979412,41.4135356 L53.3223348,41.5378268 L53.4467285,41.5378268 L53.6955159,41.4135356 L53.9443033,41.1649534 L54.1914539,41.0422977 L54.4386045,41.1649534 L54.6873918,41.4135356 L54.8101488,41.6604825 L54.8101488,41.7847736 L55.0589361,42.1560115 L55.3077235,42.6515405 L55.5548741,43.6425986 L55.6792678,44.1397631 L55.8036615,44.6352921 L55.8036615,45.1308212 L55.6792678,45.7506413 L55.6792678,45.873297 L55.5548741,46.1218793 L55.5548741,46.2461704 L55.4304804,46.4931172 L55.3077235,46.6157729 L55.1833298,46.8659905 L55.0589361,46.9902817 L54.9361792,47.1129374 L54.8101488,47.1129374 L54.6873918,47.2355931 L54.3158476,47.2355931 L54.5629982,46.2461704 L54.5629982,45.377768 L54.3158476,44.511001 L53.8182728,43.7668897 L52.8263969,42.5272494 L52.2060652,42.1560115 L51.8345209,41.7847736 L51.2141892,41.4135356 L50.5938576,41.0422977 L49.850769,40.6694244 L48.98165,40.2981864 L48.2385614,40.0496042 L47.3694423,39.8042928 L46.3775664,39.5557106 L45.5100841,39.3071283 L44.6426018,39.1844726 L43.6507259,38.9358904 L42.7832436,38.8132347 L41.9141246,38.8132347 L41.0466423,38.6889436 L38.6897093,38.6889436 L38.814103,39.5557106 L40.0531296,39.8042928 L40.301917,39.6800017 L40.4263106,39.5557106 L40.5490676,39.5557106 L40.6734613,39.4330549 L41.2937929,39.4330549 L41.4181866,39.5557106 L41.5425803,39.5557106 L41.666974,39.8042928 L41.666974,39.9269485 L41.7897309,40.1738953 L41.7897309,40.4224776 L41.666974,40.7937155 L41.5425803,41.1649534 L41.5425803,41.2892445 L41.666974,41.4135356 L41.666974,41.2892445 L41.7897309,41.2892445 L42.0385183,41.0422977 L42.2856689,40.5434978 L42.4100626,40.2981864 L42.7832436,40.2981864 L43.0303942,40.4224776 L43.2775448,40.4224776 L43.5263322,40.5434978 L43.7751196,40.6694244 L44.0222702,40.6694244 L44.2694208,40.4224776 L44.5182082,40.2981864 L44.8897524,40.2981864 L45.0141461,40.4224776 L45.3873272,40.6694244 L45.5100841,40.9180066 L45.5100841,41.1649534 L45.3873272,41.5378268 L45.3873272,41.7847736 L45.2612967,42.1560115 L45.2612967,42.4045937 L45.5100841,42.2803026 L45.6344778,42.0333558 L45.8816284,41.6604825 L46.0060221,41.4135356 L46.3775664,41.5378268 L46.5019601,41.6604825 L46.7507474,41.7847736 L46.997898,41.7847736 L47.2466854,41.9074293 L47.493836,42.0333558 L47.7426234,42.1560115 L47.8670171,42.4045937 L48.2385614,42.1560115 L48.7344993,42.1560115 L48.98165,42.2803026 L49.2304373,42.5272494 L49.2304373,43.1470696 L49.1060436,43.5215783 L48.98165,43.7668897 L48.858893,44.015472 L48.7344993,44.2624188 L48.7344993,44.3867099 L48.98165,44.3867099 L49.2304373,44.1397631 L49.6019816,43.7668897 L49.850769,43.6425986 L49.9735259,43.6425986 L50.2223133,43.8911809 L50.4694639,44.015472 L50.7182513,44.2624188 L51.0897956,44.6352921 L51.2141892,44.7595832 L51.4613399,45.0065301 L51.7101272,44.882239 L51.8345209,44.882239 L52.0816715,45.0065301 L52.2060652,45.1308212 L52.3304589,45.2534769 L52.4532158,45.5020591 L52.4532158,45.9959527 L52.2060652,46.2461704 L51.9589146,46.6157729 L51.7101272,46.8659905 L51.5857335,46.9902817 L51.8345209,47.1129374 L52.0816715,46.9902817 L52.3304589,46.8659905 L52.5776095,46.740064 L52.8263969,47.3598842 L52.9507905,48.1039954 L53.0735475,48.9707624 L53.0735475,49.8391648 L52.9507905,50.7042964 L52.7020032,51.4484076 L52.3304589,52.0682278 L51.7101272,52.5637568 L51.5857335,52.5637568 L51.4613399,52.688048 L50.5938576,52.688048 L50.7182513,52.688048 L50.7182513,52.5637568 L50.8426449,52.4394657 L50.9654019,52.31681 L51.0897956,52.0682278 L51.2141892,51.9439367 L51.3385829,51.6969899 L51.4613399,51.5726988 L51.4613399,51.3241165 L51.5857335,50.954514 L51.5857335,50.0844762 L51.4613399,49.4646561 L51.2141892,48.8481067 L50.9654019,48.1039954 L50.346707,47.3598842 L49.9735259,46.8659905 L49.4775879,46.3704615 L48.98165,45.873297 L48.2385614,45.377768 L47.6182297,45.0065301 L46.8751411,44.511001 L46.1304158,44.1397631 L45.3873272,43.7668897 L44.6426018,43.5215783 L43.7751196,43.1470696 L43.0303942,42.9017582 L42.1629119,42.7774671 L41.2937929,42.5272494 L40.4263106,42.4045937 L39.5571916,42.4045937 L38.814103,42.2803026 L38.6897093,42.4045937 L38.5653157,42.5272494 L38.814103,42.6515405 L39.0612536,42.7774671 L39.310041,42.7774671 L39.5571916,42.9017582 L40.1775233,42.9017582 L40.5490676,43.0244139 L41.1693992,43.0244139 L41.4181866,43.1470696 L41.7897309,43.1470696 L42.0385183,43.2713607 L42.1629119,43.3956518 L42.5344562,43.6425986 L42.7832436,43.8911809 L42.9060005,44.015472 L42.7832436,44.1397631 L42.5344562,44.2624188 L42.2856689,44.3867099 L42.0385183,44.3867099 L41.2937929,44.511001 L40.5490676,44.511001 L39.9303727,44.3867099 L39.4344347,44.2624188 L38.9384967,44.1397631 L38.5653157,44.015472 L38.318165,43.8911809 L38.1937714,43.8911809 L38.0693777,44.015472 L37.8222271,44.2624188 L37.6978334,44.511001 L37.6978334,44.6352921 L37.8222271,44.882239 L38.0693777,45.0065301 L38.1937714,45.1308212 L39.310041,45.1308212 L38.9384967,45.6263502 L38.6897093,45.9959527 L38.318165,46.1218793 L36.953108,46.1218793 L36.8303511,46.3704615 L36.953108,46.4931172 L37.0775017,46.6157729 L37.2018954,46.740064 L37.449046,46.8659905 L38.1937714,46.8659905 L38.318165,46.9902817 L38.1937714,47.1129374 L38.1937714,47.2355931 L37.9466208,47.3598842 L37.6978334,47.6101018 L36.8303511,47.6101018 L36.2100194,47.4841753 L36.2100194,47.6101018 L36.0856258,47.7327575 L36.0856258,47.9797043 L36.2100194,48.1039954 L36.3344131,48.1039954 L36.5815637,48.2282866 L36.7059574,48.2282866 L36.953108,48.3509423 L37.449046,48.3509423 L37.3262891,48.5995245 L37.2018954,48.8481067 L36.953108,48.9707624 L36.7059574,49.0950535 L35.7140815,49.0950535 L35.7140815,49.3420003 L35.8384752,49.4646561 L35.9612321,49.7148737 L36.0856258,49.8391648 L36.3344131,50.0844762 L36.5815637,50.2104027 L36.7059574,50.3346938 L37.0775017,50.458985 L37.449046,50.5816407 L37.9466208,50.8285875 L38.4425587,50.954514 L38.9384967,51.2014608 L39.4344347,51.4484076 L39.805979,51.5726988 L40.1775233,51.821281 L40.4263106,51.9439367 L40.6734613,52.0682278 L40.9222486,52.31681 L41.1693992,52.5637568 L41.5425803,52.8123391 L41.7897309,53.183577 L42.1629119,53.4321592 L42.4100626,53.8033972 L43.4019385,53.4321592 L44.1466639,53.183577 L45.3873272,53.183577 L46.0060221,53.3078681 L46.7507474,53.3078681 L47.3694423,53.183577 L48.2385614,52.9366302 L48.4873487,52.9366302 L48.7344993,52.688048 L48.98165,52.5637568 L49.3531943,52.1925189 L49.3531943,52.9366302 L49.1060436,53.4321592 L48.7344993,53.8033972 L48.2385614,54.050344 L47.6182297,54.2989262 L47.1222917,54.4232173 L46.7507474,54.5475084 L46.6263538,54.5475084 L46.7507474,54.6717995 L47.8670171,54.6717995 L48.1141677,54.5475084 L48.858893,54.5475084 L48.6101057,54.7944552 L48.4873487,54.9187464 L48.2385614,55.0430375 L48.1141677,55.1673286 L47.8670171,55.2916197 L47.493836,55.4142754 L47.2466854,55.5369311 L46.3775664,55.5369311 L46.0060221,55.4142754 L45.7588715,55.4142754 L45.6344778,55.2916197 L45.3873272,55.1673286 L45.2612967,55.1673286 L45.0141461,55.0430375 L44.8897524,54.9187464 L44.7669955,54.7944552 L44.5182082,54.7944552 L44.3954512,54.6717995 L44.2694208,54.5475084 L43.8978765,54.5475084 L43.7751196,54.4232173 L43.6507259,54.4232173 L43.4019385,54.5475084 L43.1547879,54.5475084 L43.4019385,54.7944552 L43.6507259,55.0430375 L43.8978765,55.2916197 L44.1466639,55.6612222 L44.3954512,56.0324602 L44.6426018,56.4053335 L44.8897524,56.9008625 L45.2612967,57.5206827 L45.2612967,57.7676295 L45.5100841,58.0162117 L45.6344778,58.3874497 L46.0060221,58.6360319 L46.2548095,59.0072698 L46.5019601,59.1315609 L46.8751411,59.1315609 L47.2466854,59.0072698 L47.3694423,58.8829787 L47.493836,58.760323 L47.6182297,58.6360319 L48.1141677,58.6360319 L48.2385614,58.8829787 L48.4873487,59.0072698 L48.6101057,59.2558521 L48.7344993,59.3801432 L48.858893,59.6254546 L48.98165,59.8756722 L49.2304373,60.122619 L49.3531943,60.2452747 L49.4775879,60.493857 L49.4775879,61.2379682 L49.6019816,61.4849151 L49.6019816,61.6092062 L49.7263753,61.8577884 L49.850769,61.9804441 L49.9735259,62.1047352 L50.0979196,62.351682 L50.2223133,62.4759731 L50.346707,62.7245554 L50.4694639,62.8488465 L50.5938576,62.9715022 L50.7182513,63.0941579 L50.9654019,63.3443755 L51.0897956,63.4686666 L51.2141892,63.713978 L51.3385829,63.8382692 L51.4613399,64.0884868 L51.7101272,64.2111425 L51.8345209,64.3337982 L51.9589146,64.5840158 L52.0816715,64.7066715 L52.2060652,64.8309627 L52.3304589,65.0779095 L52.4532158,65.3264917 L52.4532158,65.4507828 L52.5776095,65.6977296 L52.5776095,66.070603 L52.4532158,66.3175498 L52.4532158,66.4418409 L52.3304589,66.6904231 L52.2060652,66.8130788 L50.9654019,66.8130788 L50.7182513,66.93737 L50.4694639,67.1843168 L50.346707,67.432899 L50.2223133,67.6814812 L50.0979196,67.9267926 L49.9735259,68.0527192 L49.4775879,68.0527192 L49.3531943,67.9267926 L48.98165,67.9267926 L48.858893,67.8041369 L48.6101057,67.6814812 L48.1141677,67.6814812 L47.8670171,67.5571901 L47.7426234,67.432899 L47.6182297,67.3102433 L47.493836,67.1843168 L47.3694423,67.1843168 L47.3694423,67.0616611 L47.493836,67.0616611 L47.6182297,66.8130788 L47.8670171,66.6904231 L48.1141677,66.566132 L48.2385614,66.4418409 L48.4873487,66.3175498 L48.7344993,66.1932587 L48.98165,66.070603 L49.2304373,65.8220207 L49.2304373,65.6977296 L49.3531943,65.4507828 L49.3531943,64.8309627 L49.2304373,64.5840158 L49.2304373,64.2111425 L48.98165,63.8382692 L48.858893,63.5913223 L48.6101057,63.3443755 L48.4873487,63.0941579 L48.2385614,62.8488465 L47.8670171,62.6002643 L47.6182297,62.351682 L47.3694423,62.2290263 L47.2466854,62.2290263 L47.1222917,62.351682 L47.1222917,63.0941579 L46.997898,63.3443755 L46.8751411,63.5913223 L46.7507474,63.713978 L46.6263538,63.9641957 L46.5019601,64.0884868 L46.3775664,64.2111425 L45.8816284,64.2111425 L46.0060221,63.9641957 L46.1304158,63.5913223 L46.1304158,62.7245554 L46.0060221,62.351682 L45.8816284,62.2290263 L45.6344778,61.9804441 L45.6344778,62.8488465 L45.5100841,63.0941579 L45.5100841,63.3443755 L45.3873272,63.5913223 L45.3873272,63.713978 L45.2612967,63.9641957 L45.2612967,64.0884868 L45.1385398,64.2111425 L45.0141461,64.3337982 L44.8897524,64.4580893 L44.7669955,64.5840158 L44.2694208,64.7066715 L44.1466639,64.5840158 L44.2694208,64.3337982 L44.3954512,63.9641957 L44.5182082,63.713978 L44.5182082,62.7245554 L44.3954512,62.351682 L44.1466639,62.2290263 L44.0222702,62.351682 L44.0222702,63.3443755 L43.8978765,63.713978 L43.6507259,64.0884868 L43.4019385,64.4580893 L43.1547879,64.5840158 L42.9060005,64.8309627 L42.6588499,64.9536184 L42.2856689,64.9536184 L42.2856689,64.8309627 L42.4100626,64.8309627 L42.4100626,64.7066715 L42.5344562,64.5840158 L42.6588499,64.4580893 L42.6588499,64.2111425 L42.7832436,63.9641957 L42.9060005,63.713978 L43.0303942,63.4686666 L43.0303942,62.4759731 L42.9060005,62.2290263 L42.7832436,61.9804441 L42.7832436,61.8577884 L42.6588499,61.6092062 L42.5344562,61.4849151 L42.4100626,61.2379682 L42.2856689,60.989386 L42.2856689,60.8650949 L42.0385183,60.6181481 L41.9141246,60.493857 L41.666974,60.3695659 L41.5425803,60.122619 L41.2937929,59.9999633 L41.0466423,59.7497457 L40.9222486,59.5027989 L40.6734613,59.1315609 L40.5490676,58.8829787 L40.4263106,58.5117408 L40.301917,58.2631586 L40.0531296,57.8919206 L40.0531296,57.6433384 L39.9303727,57.2721005 L39.805979,57.0251537 L39.6815853,56.7765714 L39.6815853,56.2810424 L39.5571916,56.0324602 L39.4344347,55.9114399 L39.1856473,55.6612222 L38.814103,55.2916197 L38.318165,55.0430375 L37.8222271,54.7944552 L37.3262891,54.5475084 L36.8303511,54.4232173 L36.3344131,54.4232173 L36.2100194,55.2916197 L36.953108,55.2916197 L37.3262891,55.4142754 L37.6978334,55.4142754 L38.0693777,55.5369311 L38.4425587,55.6612222 L38.814103,55.7871487 L39.0612536,56.0324602 L39.310041,56.1567513 L39.4344347,56.4053335 L39.5571916,56.6522803 L39.4344347,57.0251537 L39.4344347,57.5206827 L39.5571916,57.8919206 L39.6815853,58.1405029 L40.0531296,58.8829787 L40.301917,59.1315609 L40.4263106,59.3801432 L40.301917,59.5027989 L40.301917,59.7497457 L40.1775233,59.8756722 L40.0531296,59.9999633 L39.805979,60.2452747 L39.4344347,60.2452747 L39.310041,60.3695659 L39.0612536,60.3695659 L38.9384967,60.2452747 L38.814103,60.122619 L38.5653157,59.9999633 L38.4425587,59.9999633 L38.318165,59.6254546 L38.1937714,59.3801432 L38.1937714,58.6360319 L38.0693777,58.3874497 L38.1937714,58.0162117 L38.1937714,57.7676295 L38.5653157,57.0251537 L38.318165,57.0251537 L37.8222271,57.1494448 L37.2018954,57.2721005 L36.7059574,57.5206827 L36.3344131,57.7676295 L35.8384752,58.0162117 L35.3425372,58.2631586 L34.8465992,58.760323 L34.2262675,59.2558521 L33.9774802,59.6254546 L33.8530865,59.8756722 L33.7303296,60.122619 L33.6059359,60.493857 L33.4815422,60.8650949 L33.4815422,61.1136771 L33.7303296,61.3606239 L33.9774802,61.6092062 L34.1018739,61.8577884 L34.3506612,61.9804441 L34.7222055,61.9804441 L34.8465992,62.1047352 L34.9693561,62.2290263 L35.0937498,62.351682 L35.0937498,62.7245554 L34.8465992,62.7245554 L34.5978118,62.8488465 L34.4734181,62.9715022 L34.2262675,63.0941579 L34.1018739,63.2200844 L33.8530865,63.3443755 L33.6059359,63.4686666 L33.4815422,63.4686666 L31.622184,64.4580893 L31.622184,64.5840158 L31.4977903,64.7066715 L31.2506397,64.8309627 L30.8774586,64.8309627 L30.630308,64.9536184 L30.0099763,64.9536184 L29.7628257,65.0779095 L29.3896447,65.2022006 L29.265251,65.3264917 L29.0181004,65.4507828 L28.769313,65.5734385 L28.5205256,65.6977296 L28.273375,65.8220207 L28.0262244,66.070603 L27.7774371,66.1932587 L27.5286497,66.3175498 L27.4058928,66.566132 L27.1571054,66.6904231 L26.908318,66.93737 L26.7855611,67.1843168 L26.6611674,67.432899 L26.5367737,67.6814812 L26.4140168,67.8041369 L25.9180788,67.8041369 L25.6692915,67.5571901 L25.6692915,67.432899 L25.4221409,67.3102433 L25.0489598,67.3102433 L24.9262029,67.432899 L24.6774155,67.5571901 L24.5530218,67.5571901 L24.4286281,67.8041369 L24.3058712,67.9267926 L23.5611459,67.9267926 L23.4367522,67.8041369 L23.1896016,67.8041369 L22.9408142,67.6814812 L22.8164205,67.6814812 L22.5692699,67.5571901 L22.4448762,67.432899 L22.3221193,67.3102433 L22.1977256,67.3102433 L22.1977256,67.1843168 L21.9489382,66.93737 L21.9489382,66.4418409 L22.0733319,66.4418409 L22.3221193,66.3175498 L22.3221193,66.1932587 L22.5692699,66.070603 L22.6936636,66.070603 L22.8164205,65.9446765 L22.9408142,65.8220207 L23.0652079,65.6977296 L23.3139953,65.5734385 L23.4367522,65.4507828 L23.5611459,65.3264917 L24.0570838,65.0779095 L24.5530218,64.9536184 L24.9262029,64.8309627 L25.4221409,64.5840158 L25.9180788,64.4580893 L26.4140168,64.3337982 L26.908318,64.2111425 L27.4058928,63.9641957 L27.7774371,63.8382692 L28.1489814,63.713978 L28.5205256,63.5913223 L28.8937067,63.4686666 L29.1408573,63.2200844 L29.5140384,63.0941579 L29.7628257,62.8488465 L30.0099763,62.6002643 L30.0099763,62.4759731 L29.8855827,62.351682 L29.8855827,62.2290263 L29.7628257,62.2290263 L29.7628257,62.351682 L29.6367953,62.4759731 L29.5140384,62.6002643 L29.3896447,62.7245554 L29.1408573,62.8488465 L28.8937067,63.0941579 L28.5205256,63.0941579 L28.273375,63.2200844 L27.4058928,63.2200844 L27.1571054,63.0941579 L27.0327117,63.0941579 L26.908318,62.9715022 L27.2814991,62.8488465 L27.6530434,62.7245554 L28.0262244,62.4759731 L28.3977687,62.2290263 L28.6449193,61.9804441 L28.8937067,61.8577884 L28.8937067,61.6092062 L28.769313,61.7318619 L28.5205256,61.8577884 L28.273375,61.9804441 L28.0262244,62.1047352 L27.6530434,62.351682 L26.2896231,62.351682 L26.0408358,62.2290263 L25.5448978,61.9804441 L25.2977472,61.8577884 L25.2977472,61.7318619 L26.0408358,61.7318619 L26.4140168,61.6092062 L26.7855611,61.6092062 L27.2814991,61.4849151 L27.7774371,61.2379682 L28.1489814,60.8650949 L28.1489814,60.493857 L28.0262244,60.6181481 L27.7774371,60.7408038 L27.6530434,60.8650949 L27.4058928,60.8650949 L27.1571054,60.989386 L27.0327117,60.989386 L26.7855611,61.1136771 L26.5367737,61.1136771 L26.2896231,61.2379682 L25.9180788,61.2379682 L25.5448978,61.1136771 L25.1733535,61.1136771 L24.8018092,60.989386 L24.5530218,60.7408038 L24.3058712,60.493857 L24.1814775,60.122619 L24.1814775,59.9999633 L24.3058712,59.9999633 L24.4286281,60.122619 L24.6774155,60.122619 L24.9262029,60.2452747 L25.1733535,60.2452747 L25.2977472,60.3695659 L25.7936851,60.3695659 L26.0408358,60.2452747 L26.4140168,60.2452747 L26.6611674,60.122619 L27.0327117,59.9999633 L27.2814991,59.8756722 L27.5286497,59.6254546 L27.6530434,59.3801432 L27.7774371,59.2558521 L28.0262244,58.8829787 L28.273375,58.6360319 L28.5205256,58.2631586 L28.769313,58.0162117 L29.0181004,57.7676295 L29.265251,57.5206827 L29.3896447,57.5206827 L29.8855827,57.1494448 L30.3815206,56.9008625 L31.0018523,56.53126 L31.7465776,56.2810424 L32.4896662,56.0324602 L33.2343916,55.6612222 L33.9774802,55.5369311 L34.8465992,55.2916197 L34.8465992,55.0430375 L34.7222055,54.9187464 L34.7222055,54.7944552 L34.5978118,54.5475084 L34.5978118,54.1746351 L34.2262675,54.050344 L33.6059359,54.050344 L32.8628473,54.1746351 L31.9937283,54.1746351 L31.126246,54.4232173 L30.3815206,54.5475084 L29.7628257,54.6717995 L29.3896447,54.7944552 L29.265251,54.9187464 L29.1408573,54.9187464 L28.8937067,55.1673286 L28.6449193,55.2916197 L28.3977687,55.5369311 L28.273375,55.6612222 L28.1489814,55.7871487 L27.9018307,55.9114399 L27.5286497,55.6612222 L27.2814991,55.4142754 L27.0327117,55.2916197 L26.908318,55.1673286 L26.5367737,55.0430375 L26.0408358,54.7944552 L25.6692915,54.4232173 L25.1733535,54.1746351 L24.6774155,53.8033972 L24.3058712,53.5548149 L23.8099332,53.3078681 L23.3139953,53.183577 L22.9408142,53.0609213 L22.6936636,53.0609213 L22.4448762,52.9366302 L22.1977256,52.8123391 L21.9489382,52.688048 L21.577394,52.688048 L21.3286066,52.5637568 L21.081456,52.4394657 L20.4611243,52.4394657 L19.9651863,52.31681 L19.4692484,52.31681 L18.8489167,52.1925189 L17.8570407,52.1925189 L17.3611028,52.31681 L16.7407711,52.31681 L16.6163774,52.4394657 L16.3692268,52.5637568 L16.2448331,52.5637568 L15.9960457,52.688048 L15.7488951,52.688048 L15.6245015,52.8123391 L15.5001078,52.688048 L15.2529572,52.4394657 L15.2529572,52.0682278 L15.0041698,51.821281 L14.7570192,51.6969899 L14.6326255,51.5726988 L14.0139306,51.5726988 L13.7651432,51.6969899 L12.8960242,51.6969899 L12.6488736,51.5726988 L12.401723,51.5726988 L12.0285419,51.3241165 L11.7813913,51.2014608 L11.6569976,50.8285875 L11.5326039,50.5816407 L11.6569976,50.3346938 L11.7813913,50.0844762 L12.2756925,49.8391648 L12.6488736,49.8391648 L12.8960242,49.7148737 L16.1204394,49.7148737 L16.7407711,49.8391648 L17.3611028,49.9618205 L17.8570407,50.0844762 L18.4773724,50.0844762 L19.0977041,50.2104027 L19.7180357,50.3346938 L20.08958,50.2104027 L20.3367306,50.2104027 L20.7099117,50.0844762 L21.9489382,50.0844762 L22.1977256,50.2104027 L22.4448762,50.3346938 L22.6936636,50.3346938 L23.0652079,50.458985 L23.3139953,50.5816407 L23.5611459,50.7042964 L23.8099332,50.8285875 L24.0570838,50.8285875 L24.3058712,50.954514 L24.5530218,51.0788051 L25.1733535,51.0788051 L25.4221409,51.2014608 L26.0408358,51.2014608 L26.2896231,51.3241165 L26.5367737,51.3241165 L26.4140168,51.0788051 L26.2896231,50.954514 L26.0408358,50.8285875 L25.7936851,50.7042964 L25.4221409,50.5816407 L25.1733535,50.5816407 L24.8018092,50.458985 L24.4286281,50.458985 L24.4286281,50.0844762 L24.5530218,49.8391648 L24.5530218,49.5905826 L24.6774155,49.4646561 L24.9262029,49.0950535 L25.1733535,48.5995245 L25.4221409,48.2282866 L25.6692915,47.8554132 L26.0408358,47.4841753 L26.4140168,47.2355931 L26.7855611,46.8659905 L27.1571054,46.4931172 L27.5286497,46.2461704 L28.0262244,45.873297 L28.3977687,45.6263502 L28.8937067,45.377768 L29.3896447,45.1308212 L29.8855827,45.0065301 L30.3815206,44.882239 L30.8774586,44.7595832 L31.0018523,44.6352921 L31.2506397,44.511001 L31.622184,44.3867099 L31.8693346,44.2624188 L32.2425156,44.1397631 L32.4896662,44.015472 L32.7368168,43.7668897 L32.8628473,43.6425986 L32.9856042,43.3956518 L32.9856042,42.9017582 L33.1099979,42.6515405 L33.4815422,42.7774671 L33.9774802,42.9017582 L34.9693561,42.9017582 L35.4669309,42.7774671 L35.8384752,42.6515405 L36.2100194,42.5272494 L36.5815637,42.1560115 L36.0856258,42.1560115 L35.8384752,42.2803026 L35.5896878,42.4045937 L35.0937498,42.5272494 L34.7222055,42.4045937 L34.3506612,42.2803026 L33.8530865,42.1560115 L33.4815422,42.0333558 L32.6140599,42.0333558 L32.2425156,42.1560115 L31.9937283,42.5272494 L31.8693346,42.9017582 L31.126246,43.6425986 L30.7547017,43.8911809 L30.3815206,44.015472 L29.8855827,44.1397631 L29.5140384,44.2624188 L28.8937067,44.2624188 L28.6449193,44.1397631 L28.3977687,44.015472 L28.273375,43.8911809 L28.273375,43.7668897 L28.6449193,43.6425986 L29.0181004,43.6425986 L29.265251,43.5215783 L29.5140384,43.2713607 L29.7628257,43.0244139 L30.0099763,42.9017582 L30.13437,42.5272494 L30.257127,42.1560115 L30.3815206,42.0333558 L30.3815206,41.9074293 L30.0099763,41.7847736 L29.7628257,41.7847736 L29.5140384,41.5378268 L29.5140384,41.1649534 L29.7628257,41.1649534 L30.257127,41.0422977 L31.8693346,41.0422977 L32.1181219,40.9180066 L32.3652725,40.7937155 L32.3652725,40.6694244 L32.2425156,40.4224776 L32.1181219,40.1738953 L31.9937283,40.0496042 L31.7465776,39.9269485 L31.4977903,39.8042928 L29.3896447,39.8042928 L29.3896447,39.6800017 L29.5140384,39.0601815 L29.6367953,38.9358904 L31.0018523,38.9358904 L31.2506397,38.8132347 L31.3733966,38.6889436 L31.2506397,38.5646525 L31.2506397,38.4403614 L29.8855827,38.4403614 L29.8855827,38.1934146 L30.0099763,37.9448323 L30.13437,37.8205412 L30.3815206,37.6978855 L30.3815206,37.5735944 L30.7547017,37.5735944 L31.2506397,37.4493033 L31.622184,37.4493033 L31.9937283,37.3250122 L32.8628473,37.3250122 L33.2343916,37.2023565 L33.7303296,36.9554096 L33.9774802,36.9554096 L34.1018739,36.8294831 L34.3506612,36.7068274 L34.4734181,36.7068274 L34.5978118,36.5825363 L35.2181435,36.5825363 L35.3425372,36.4582452 L35.5896878,36.3339541 L35.7140815,36.2112984 L35.8384752,36.0870073 L35.8384752,35.9643516 L35.9612321,35.838425 L35.8384752,35.5914782 L35.8384752,35.342896 L35.7140815,35.2186049 L35.7140815,35.0959492 L36.2100194,35.0959492 L36.4571701,35.342896 L36.5815637,35.5914782 Z" id="Fill-16" fill="#1A1918"></path>
                <polyline id="Fill-17" fill="#FF0000" points="31.8693346 40.6090204 30.7547017 40.6090204 30.13437 40.7316761 28.3977687 40.7316761 27.9018307 40.8559672 27.5286497 40.8559672 27.1571054 40.7316761 26.6611674 40.6090204 26.2896231 40.4847293 26.0408358 40.2361471 25.7936851 39.8649091 25.7936851 39.4936712 26.0408358 38.8738511 26.0408358 38.9997776 26.1652294 39.1224333 26.2896231 39.3710155 26.5367737 39.4936712 26.7855611 39.6163269 27.0327117 39.740618 27.5286497 39.740618 27.9018307 39.8649091 30.630308 39.8649091 30.8774586 39.9892003 31.0018523 39.9892003 31.2506397 40.1102206 31.4977903 40.2361471 31.622184 40.3604382 31.8693346 40.6090204"></polyline>
                <polyline id="Fill-18" fill="#D9222A" points="35.3425372 53.7413578 35.5896878 53.7413578 35.7140815 53.8656489 35.7140815 54.361178 35.5896878 54.4854691 35.5896878 54.6097602 35.2181435 54.6097602 34.9693561 54.4854691 34.9693561 54.361178 34.8465992 54.1142311 34.9693561 53.98994 34.9693561 53.7413578 35.3425372 53.7413578"></polyline>
                <path d="M35.0937498,37.8844284 L34.8465992,37.8844284 L34.7222055,38.0070841 L34.2262675,38.0070841 L33.9774802,38.1313752 L33.7303296,38.2556663 L33.6059359,38.3799574 L33.3571485,38.3799574 L33.3571485,38.2556663 L33.4815422,38.2556663 L33.6059359,38.1313752 L33.8530865,38.0070841 L34.1018739,38.0070841 L34.4734181,37.8844284 L34.7222055,37.7601373 L35.0937498,37.6358461 L35.0937498,37.8844284 Z M36.5815637,38.0070841 L36.7059574,37.8844284 L36.953108,38.0070841 L37.0775017,38.1313752 L37.3262891,38.3799574 L37.449046,38.5026131 L37.449046,38.6269042 L37.2018954,38.3799574 L36.953108,38.2556663 L36.8303511,38.1313752 L36.5815637,38.0070841 Z" id="Fill-19" fill="#D9222A"></path>
            </g>
            <text id="Kanton-Graubünden" fill="#000000" font-family="ArialMT, Arial" font-size="15.6643357" font-weight="normal">
                <tspan x="86.2265439" y="14">Kanton Graubünden</tspan>
            </text>
            <text id="Chantun-Grischun" fill="#000000" font-family="ArialMT, Arial" font-size="15.6643357" font-weight="normal">
                <tspan x="86.2265439" y="43.3735464">Chantun Grischun</tspan>
            </text>
            <text id="Ca" fill="#000000" font-family="ArialMT, Arial" font-size="15.6643357" font-weight="normal">
                <tspan x="86.2265439" y="72.045929">Ca</tspan>
            </text>
            <text id="ntone-dei-Grigioni" fill="#000000" font-family="ArialMT, Arial" font-size="15.6643357" font-weight="normal">
                <tspan x="106.026544" y="72.045929">ntone dei Grigioni</tspan>
            </text>
        </g>
    </g>
</svg>