<?xml version="1.0" encoding="UTF-8"?>
<svg width="240px" height="88px" viewBox="0 0 240 88" version="1.1" xmlns="http://www.w3.org/2000/svg" xmlns:xlink="http://www.w3.org/1999/xlink">
    <title>ibdnet</title>
    <g id="Page-1" stroke="none" stroke-width="1" fill="none" fill-rule="evenodd">
        <g id="ibdnet" transform="translate(0.000000, 0.986492)" fill-rule="nonzero">
            <polygon id="Path" fill="#ED1C24" points="0.24 0.0135076301 11.33 0.0135076301 11.33 35.8035076 0.24 35.8035076"></polygon>
            <path d="M18.59,0.0135076301 L39.29,0.0135076301 C42.7433333,0.0135076301 45.39,0.866840963 47.23,2.57350763 C49.0336875,4.18601914 50.0450696,6.50453045 50,8.92350763 C50.0392555,10.9265142 49.3255548,12.8713488 48,14.3735076 C46.9387137,15.4869433 45.6097645,16.30979 44.14,16.7635076 C46.3326593,17.1668804 48.3299832,18.2851005 49.82,19.9435076 C51.070119,21.5668576 51.7138686,23.5759222 51.64,25.6235076 C51.660703,27.3763309 51.2118355,29.1027444 50.34,30.6235076 C49.4946566,32.0886686 48.2723022,33.3006641 46.8,34.1335076 C45.486709,34.78592 44.0614522,35.1829559 42.6,35.3035076 C40.9431858,35.5552629 39.2741675,35.7188267 37.6,35.7935076 L18.59,35.7935076 L18.59,0.0135076301 Z M29.74,14.0135076 L34.55,14.0135076 C35.8166685,14.1400325 37.088204,13.8256807 38.15,13.1235076 C38.8498779,12.4546479 39.2162809,11.5093282 39.15,10.5435076 C39.2021898,9.62090309 38.8346579,8.72412541 38.15,8.10350763 C37.1136213,7.41220109 35.8697725,7.1012389 34.63,7.22350763 L29.74,7.22350763 L29.74,14.0135076 Z M29.74,28.0735076 L35.38,28.0735076 C36.7881864,28.2038341 38.1988127,27.8511775 39.38,27.0735076 C40.1614111,26.3905338 40.5915779,25.3904878 40.55,24.3535076 C40.5849804,23.3657189 40.1557551,22.4184631 39.39,21.7935076 C38.62,21.1535076 37.26,20.7935076 35.33,20.7935076 L29.74,20.7935076 L29.74,28.0735076 Z" id="Shape" fill="#ED1C24"></path>
            <path d="M56.9,0.0135076301 L73.33,0.0135076301 C76.0092638,-0.0858081549 78.6805663,0.363379027 81.18,1.33350763 C83.1124293,2.16814642 84.8091951,3.46648143 86.12,5.11350763 C87.4659777,6.80749622 88.4465673,8.76186577 89,10.8535076 C89.5987773,13.1143743 89.8946967,15.4447395 89.88,17.7835076 C90.0090112,20.8054676 89.5679988,23.8247064 88.58,26.6835076 C87.7666611,28.7126435 86.5092245,30.5338763 84.9,32.0135076 C83.493772,33.3590037 81.7758382,34.3347901 79.9,34.8535076 C77.7571997,35.4767012 75.5412149,35.8129659 73.31,35.8535076 L56.9,35.8535076 L56.9,0.0135076301 Z M68,8.12346046 L68,27.6735076 L70.71,27.6735076 C72.3899717,27.7827186 74.073342,27.5197986 75.64,26.9035076 C76.6936812,26.3032277 77.5065418,25.3560684 77.94,24.2235076 C78.5854754,22.2202573 78.8533495,20.1145634 78.73,18.0135076 C78.73,14.226841 78.11,11.6301743 76.87,10.2235076 C75.63,8.81684096 73.58,8.11684096 70.72,8.12346046 L68,8.12346046 Z" id="Shape" fill="#ED1C24"></path>
            <path d="M95,9.87350763 L104.26,9.87350763 L104.26,14.1035076 C105.388956,12.5928965 106.819107,11.3330011 108.46,10.4035076 C110.067443,9.61863768 111.842048,9.23762978 113.63,9.29350763 C116.033087,9.15873362 118.380656,10.0490655 120.09,11.7435076 C121.64,13.3835076 122.42,15.9035076 122.42,19.3235076 L122.42,35.8035076 L112.42,35.8035076 L112.42,21.5435076 C112.539242,20.3216681 112.216366,19.0975779 111.51,18.0935076 C110.854301,17.3988462 109.923284,17.0323042 108.97,17.0935076 C107.821845,17.0466116 106.719619,17.5476237 106,18.4435076 C105.26,19.3535076 104.88,20.9935076 104.88,23.3535076 L104.88,35.8035076 L95,35.8035076 L95,9.87350763 Z" id="Path" fill="#231F20"></path>
            <path d="M157.12,25.3035076 L137.2,25.3035076 C137.263393,26.5957189 137.712736,27.8392495 138.49,28.8735076 C139.419141,29.9808029 140.805275,30.6001393 142.25,30.5535076 C143.224336,30.5557168 144.182449,30.3041259 145.03,29.8235076 C145.705012,29.3873387 146.294687,28.8315531 146.77,28.1835076 L156.56,29.0935076 C155.315772,31.4326306 153.43724,33.3735496 151.14,34.6935076 C149.02,35.8235076 145.99,36.3935076 142.03,36.3935076 C139.254759,36.5191834 136.486706,36.0202503 133.93,34.9335076 C131.884263,33.9044035 130.181842,32.3027384 129.03,30.3235076 C127.703463,28.0760669 127.031516,25.5025824 127.09,22.8935076 C126.934159,19.1948617 128.355301,15.6038429 131,13.0135076 C133.6,10.5001743 137.186667,9.24684096 141.76,9.25350763 C144.781128,9.14153737 147.785999,9.74456752 150.53,11.0135076 C152.632385,12.089225 154.345693,13.7955395 155.43,15.8935076 C156.65774,18.4929616 157.237604,21.3511087 157.12,24.2235076 L157.12,25.3035076 Z M147,20.5435076 C146.971647,19.0329542 146.424337,17.5781689 145.45,16.4235076 C144.446643,15.5200313 143.112659,15.0746738 141.767775,15.194177 C140.42289,15.3136801 139.188334,15.9872717 138.36,17.0535076 C137.667799,18.0912858 137.27033,19.2975197 137.21,20.5435076 L147,20.5435076 Z" id="Shape" fill="#231F20"></path>
            <path d="M173.67,0.0135076301 L173.67,9.87350763 L179.14,9.87350763 L179.14,17.1535076 L173.67,17.1535076 L173.67,26.3335076 C173.610218,27.0815629 173.719588,27.8334805 173.99,28.5335076 C174.357173,29.1112907 175.018904,29.432482 175.7,29.3635076 C176.748647,29.2978893 177.782484,29.0823663 178.77,28.7235076 L179.51,35.5835076 C177.249126,36.1003874 174.939106,36.3719573 172.62,36.3935076 C170.74352,36.4930546 168.869887,36.1505257 167.15,35.3935076 C165.978732,34.7553557 165.061204,33.7354889 164.55,32.5035076 C163.880555,30.480936 163.595648,28.3509184 163.71,26.2235076 L163.71,17.1535076 L160.05,17.1535076 L160.05,9.87350763 L163.71,9.87350763 L163.71,5.11350763 L173.67,0.0135076301 Z" id="Path" fill="#231F20"></path>
            <path d="M5.58,60.6535076 C5.61103927,61.3609729 5.30270255,62.0407996 4.75,62.4835076 C4.07473357,62.9628726 3.25686138,63.1990684 2.43,63.1535076 C1.59093654,63.1678279 0.759722267,62.9899549 1.33226763e-15,62.6335076 L1.33226763e-15,60.9435076 C0.475592438,61.1632577 0.966964829,61.3471045 1.47,61.4935076 C1.82879036,61.5914011 2.19818888,61.6451318 2.57,61.6535076 C2.88969006,61.6714292 3.20721705,61.5911751 3.48,61.4235076 C3.69603039,61.2665579 3.81676064,61.0100061 3.8,60.7435076 C3.80592897,60.581943 3.7565401,60.423193 3.66,60.2935076 C3.5480013,60.1425829 3.40898406,60.0137376 3.25,59.9135076 C2.89086812,59.7000512 2.52031299,59.5064278 2.14,59.3335076 C1.73163463,59.1457598 1.34860612,58.9072069 1,58.6235076 C0.741808068,58.4025029 0.528008734,58.1344053 0.37,57.8335076 C0.219655596,57.5215194 0.141066956,57.1798297 0.14,56.8335076 C0.0876892323,56.1464249 0.357396584,55.4740039 0.87,55.0135076 C1.47694376,54.5424741 2.23269884,54.3047483 3,54.3435076 C3.42861337,54.3392951 3.85582483,54.393117 4.27,54.5035076 C4.70492623,54.6142901 5.12975851,54.7614761 5.54,54.9435076 L5,56.3535076 C4.6132049,56.2186033 4.21927535,56.1050982 3.82,56.0135076 C3.53188315,55.9430659 3.23659122,55.9061544 2.94,55.9035076 C2.65625118,55.884847 2.37541821,55.9701633 2.15,56.1435076 C1.97004064,56.3023651 1.87092481,56.5336354 1.88,56.7735076 C1.87322226,56.9214237 1.91158607,57.0679037 1.99,57.1935076 C2.08075991,57.3307737 2.20016139,57.4467637 2.34,57.5335076 C2.71206223,57.754406 3.09597347,57.9547075 3.49,58.1335076 C4.11518598,58.3957537 4.67758117,58.7877261 5.14,59.2835076 C5.4326734,59.6797007 5.5872479,60.1609895 5.58,60.6535076 Z" id="Path" fill="#231F20"></path>
            <path d="M12.2,63.0135076 L11.7,60.7235076 L11,57.8435076 L11,57.8435076 L9.78,63.0135076 L7.86,63.0135076 L6,56.4835076 L7.78,56.4835076 L8.53,59.3835076 C8.62,59.7235076 8.74,60.4435076 8.89,61.5335076 L8.89,61.5335076 C8.92525123,61.0595845 8.99206612,60.5885396 9.09,60.1235076 L9.19,59.6235076 L9.99,56.4835076 L11.99,56.4835076 L12.76,59.6235076 C12.81,59.8335076 12.87,60.1535076 12.93,60.5635076 C12.9895013,60.8942105 13.02957,61.2281163 13.05,61.5635076 L13.05,61.5635076 C13.1,61.2135076 13.16,60.8235076 13.24,60.3735076 C13.2851146,60.0362239 13.3519198,59.7021983 13.44,59.3735076 L14.22,56.4735076 L16,56.4735076 L14.15,63.0135076 L12.2,63.0135076 Z" id="Path" fill="#231F20"></path>
            <path d="M16.83,54.7835076 C16.83,54.2035076 17.16,53.9135076 17.83,53.9135076 C18.5,53.9135076 18.83,54.2035076 18.83,54.7835076 C18.8473826,55.0265572 18.7557708,55.2647478 18.58,55.4335076 C18.3767949,55.603946 18.1142056,55.6866797 17.85,55.6635076 C17.16,55.6635076 16.83,55.3735076 16.83,54.7835076 Z M18.69,63.0135076 L16.91,63.0135076 L16.91,56.4835076 L18.69,56.4835076 L18.69,63.0135076 Z" id="Shape" fill="#231F20"></path>
            <path d="M25,61.0835076 C25.0374405,61.6813367 24.7750376,62.2586231 24.3,62.6235076 C23.6770121,63.0169836 22.9452082,63.2025607 22.21,63.1535076 C21.8033245,63.1426547 21.3984092,63.095805 21,63.0135076 C20.6741041,62.9501646 20.3557117,62.8529712 20.05,62.7235076 L20.05,61.2935076 C20.4104147,61.4579998 20.7853676,61.5885638 21.17,61.6835076 C21.5284506,61.7830231 21.8980525,61.8367834 22.27,61.8435076 C22.92,61.8435076 23.27,61.6535076 23.27,61.2835076 C23.2714887,61.1547705 23.225167,61.0300583 23.14,60.9335076 C22.9998489,60.8194691 22.8491706,60.7190169 22.69,60.6335076 C22.4165195,60.4928971 22.1361683,60.3660716 21.85,60.2535076 C21.4581392,60.1010592 21.0855777,59.9030311 20.74,59.6635076 C20.5187402,59.5022956 20.3402289,59.2894552 20.22,59.0435076 C20.1038611,58.7721592 20.049221,58.4784687 20.06,58.1835076 C20.038953,57.6464089 20.2958933,57.1363067 20.74,56.8335076 C21.3153123,56.4796365 21.9858439,56.3120036 22.66,56.3535076 C23.4552082,56.3588373 24.2398403,56.5362324 24.96,56.8735076 L24.42,58.1635076 C24.09,58.0235076 23.79,57.9035076 23.5,57.8135076 C23.2184033,57.725725 22.9249573,57.6818767 22.63,57.6835076 C22.1,57.6835076 21.84,57.8235076 21.84,58.1135076 C21.8440681,58.2850328 21.9393796,58.4413436 22.09,58.5235076 C22.4460975,58.7317767 22.8211019,58.9058859 23.21,59.0435076 C23.6049729,59.1918318 23.9809379,59.386528 24.33,59.6235076 C24.5567654,59.7856716 24.7390376,60.0023348 24.86,60.2535076 C24.9674838,60.5164134 25.0152994,60.7998914 25,61.0835076 L25,61.0835076 Z" id="Path" fill="#231F20"></path>
            <path d="M30.74,61.0835076 C30.7774405,61.6813367 30.5150376,62.2586231 30.04,62.6235076 C29.4181317,63.0195824 28.6854622,63.2053789 27.95,63.1535076 C27.5411935,63.1558634 27.1329664,63.1224022 26.73,63.0535076 C26.407349,62.9901315 26.0922756,62.892928 25.79,62.7635076 L25.79,61.2935076 C26.1498036,61.459518 26.5249035,61.5901332 26.91,61.6835076 C27.2683156,61.7836623 27.6379998,61.8374345 28.01,61.8435076 C28.66,61.8435076 29.01,61.6535076 29.01,61.2835076 C29.0156756,61.1540778 28.9687909,61.0278498 28.88,60.9335076 C28.7455555,60.8166636 28.5978818,60.715977 28.44,60.6335076 C28.23,60.5235076 27.94,60.3935076 27.59,60.2535076 C27.200362,60.0962498 26.8283207,59.8984981 26.48,59.6635076 C26.261549,59.5019802 26.0863639,59.28901 25.97,59.0435076 C25.8538611,58.7721592 25.799221,58.4784687 25.81,58.1835076 C25.7867289,57.648319 26.0396895,57.1386224 26.48,56.8335076 C27.0553123,56.4796365 27.7258439,56.3120036 28.4,56.3535076 C29.1953542,56.357564 29.9802563,56.5350201 30.7,56.8735076 L30.17,58.1635076 C29.84,58.0235076 29.53,57.9035076 29.25,57.8135076 C28.9649926,57.7256392 28.6682401,57.6818008 28.37,57.6835076 C27.84,57.6835076 27.58,57.8235076 27.58,58.1135076 C27.5881129,58.2865211 27.6869617,58.4423981 27.84,58.5235076 C28.1933599,58.730344 28.5649097,58.9044034 28.95,59.0435076 C29.3479481,59.1922215 29.7271801,59.3868716 30.08,59.6235076 C30.3039979,59.7859659 30.4829509,60.0027742 30.6,60.2535076 C30.7123512,60.5150031 30.7603601,60.7996271 30.74,61.0835076 L30.74,61.0835076 Z" id="Path" fill="#231F20"></path>
            <path d="M36.85,59.7435076 L36.85,63.0135076 L35,63.0135076 L35,54.4635076 L37.49,54.4635076 C38.3997081,54.3925933 39.3080229,54.6170418 40.08,55.1035076 C41.0124941,55.9380317 41.1913328,57.3304186 40.5,58.3735076 C40.1994781,58.7859337 39.7912347,59.1076848 39.32,59.3035076 L41.88,63.0135076 L39.88,63.0135076 L37.88,59.7235076 L36.85,59.7435076 Z M36.85,58.2635076 L37.44,58.2635076 C37.8786534,58.3057775 38.320095,58.2188795 38.71,58.0135076 C38.9958327,57.8068147 39.1516292,57.4648221 39.12,57.1135076 C39.1511331,56.7682479 38.9897124,56.4338765 38.7,56.2435076 C38.2970146,56.0441929 37.848646,55.9545192 37.4,55.9835076 L36.85,55.9835076 L36.85,58.2635076 Z" id="Shape" fill="#231F20"></path>
            <path d="M45.6,63.1535076 C44.69196,63.2033515 43.8019697,62.88627 43.13,62.2735076 C42.504487,61.6087016 42.1822839,60.7144975 42.24,59.8035076 C42.1792805,58.8801794 42.4724852,57.9683841 43.06,57.2535076 C43.6527319,56.6358832 44.4852175,56.3072704 45.34,56.3535076 C46.1403046,56.3056337 46.923957,56.5958753 47.5,57.1535076 C48.0412358,57.7465249 48.3221855,58.5317433 48.28,59.3335076 L48.28,60.2035076 L44.05,60.2035076 C44.0434064,60.6429327 44.2042961,61.0683968 44.5,61.3935076 C44.8219763,61.6922285 45.251444,61.8474143 45.69,61.8235076 C46.0636955,61.8217911 46.4360207,61.7781854 46.8,61.6935076 C47.1829452,61.6037923 47.5550973,61.4730362 47.91,61.3035076 L47.91,62.6835076 C47.5923292,62.8408561 47.2564589,62.9584107 46.91,63.0335076 C46.4791352,63.1219678 46.0397657,63.1622154 45.6,63.1535076 Z M45.35,57.6335076 C45.0148044,57.6166479 44.6892106,57.7483488 44.46,57.9935076 C44.2319896,58.2781817 44.1021937,58.6289814 44.09,58.9935076 L46.6,58.9935076 C46.6126605,58.6281087 46.4877629,58.2712584 46.25,57.9935076 C46.0169183,57.7479071 45.6881629,57.616405 45.35,57.6335076 L45.35,57.6335076 Z" id="Shape" fill="#231F20"></path>
            <path d="M54.12,61.0835076 C54.1574405,61.6813367 53.8950376,62.2586231 53.42,62.6235076 C52.7939185,63.0184055 52.0584928,63.204013 51.32,63.1535076 C50.910039,63.1423642 50.5018285,63.0955204 50.1,63.0135076 C49.777349,62.9501315 49.4622756,62.852928 49.16,62.7235076 L49.16,61.2935076 C49.5204147,61.4579998 49.8953676,61.5885638 50.28,61.6835076 C50.6384506,61.7830231 51.0080525,61.8367834 51.38,61.8435076 C52.03,61.8435076 52.38,61.6535076 52.38,61.2835076 C52.3852226,61.1559329 52.3424021,61.0310397 52.26,60.9335076 C52.1198489,60.8194691 51.9691706,60.7190169 51.81,60.6335076 C51.5365195,60.4928971 51.2561683,60.3660716 50.97,60.2535076 C50.5781392,60.1010592 50.2055777,59.9030311 49.86,59.6635076 C49.6387402,59.5022956 49.4602289,59.2894552 49.34,59.0435076 C49.2238611,58.7721592 49.169221,58.4784687 49.18,58.1835076 C49.158953,57.6464089 49.4158933,57.1363067 49.86,56.8335076 C50.4353123,56.4796365 51.1058439,56.3120036 51.78,56.3535076 C52.5750996,56.3597797 53.359533,56.5371298 54.08,56.8735076 L53.54,58.1635076 C53.21,58.0235076 52.9,57.9035076 52.62,57.8135076 C52.3382628,57.7263396 52.044912,57.6825056 51.75,57.6835076 C51.22,57.6835076 50.96,57.8235076 50.96,58.1135076 C50.9640681,58.2850328 51.0593796,58.4413436 51.21,58.5235076 C51.5576174,58.7197647 51.9224736,58.8837826 52.3,59.0135076 C52.6949729,59.1618318 53.0709379,59.356528 53.42,59.5935076 C53.6467654,59.7556716 53.8290376,59.9723348 53.95,60.2235076 C54.0722278,60.493229 54.1304109,60.787567 54.12,61.0835076 Z" id="Path" fill="#231F20"></path>
            <path d="M58.3,63.1535076 C57.3916305,63.2056387 56.5007789,62.8882503 55.83,62.2735076 C55.197685,61.6123247 54.8712672,60.7164893 54.93,59.8035076 C54.8720672,58.8788543 55.1688973,57.9669062 55.76,57.2535076 C56.3496455,56.6374697 57.1784173,56.3088817 58.03,56.3535076 C58.832973,56.3077264 59.6188965,56.5974678 60.2,57.1535076 C60.7484962,57.7433199 61.0367871,58.5289125 61,59.3335076 L61,60.2035076 L56.75,60.2035076 C56.7392672,60.6436471 56.90072,61.0705999 57.2,61.3935076 C57.5176621,61.6926925 57.9443253,61.8481714 58.38,61.8235076 C58.7570156,61.8221181 59.1326898,61.7785131 59.5,61.6935076 C59.8796795,61.6036292 60.2484997,61.4728657 60.6,61.3035076 L60.6,62.6835076 C60.2826524,62.8416229 59.9466844,62.9592117 59.6,63.0335076 C59.1722522,63.1202044 58.7363902,63.1604378 58.3,63.1535076 L58.3,63.1535076 Z M58.05,57.6335076 C57.7143349,57.6138279 57.3875875,57.7459954 57.16,57.9935076 C56.9280473,58.2759354 56.7977387,58.6281207 56.79,58.9935076 L59.29,58.9935076 C59.3145585,58.6425709 59.2115779,58.2945673 59,58.0135076 C58.7575746,57.7489971 58.4079705,57.6091555 58.05,57.6335076 L58.05,57.6335076 Z" id="Shape" fill="#231F20"></path>
            <path d="M66.4,63.0135076 L66.06,62.1235076 L66.06,62.1235076 C65.8156748,62.4556002 65.4972333,62.7261043 65.13,62.9135076 C64.7361516,63.0711859 64.3140531,63.1460743 63.89,63.1335076 C63.3401636,63.1663669 62.8011157,62.9710073 62.4,62.5935076 C62.0177313,62.1751681 61.8227003,61.6189685 61.86,61.0535076 C61.8160707,60.4476093 62.093159,59.8630668 62.59,59.5135076 C63.2600336,59.1354077 64.0210495,58.9486129 64.79,58.9735076 L65.93,58.9735076 L65.93,58.6835076 C65.966712,58.4086658 65.8732287,58.1324161 65.6771601,57.9363475 C65.4810916,57.7402789 65.2048418,57.6467957 64.93,57.6835076 C64.2878426,57.7131049 63.6584159,57.8730133 63.08,58.1535076 L62.49,56.9435076 C63.2663351,56.5459156 64.1278339,56.3434119 65,56.3535076 C65.7137863,56.3087739 66.4208918,56.5138345 67,56.9335076 C67.4937603,57.3713084 67.7530144,58.01574 67.7,58.6735076 L67.7,63.0135076 L66.4,63.0135076 Z M65.88,60.0135076 L65.18,60.0135076 C64.7750254,59.9992217 64.373865,60.0960535 64.02,60.2935076 C63.7650544,60.4686557 63.6207824,60.7647929 63.64,61.0735076 C63.64,61.5835076 63.93,61.8335076 64.51,61.8335076 C64.8785352,61.8552882 65.2399123,61.7251925 65.51,61.4735076 C65.7664041,61.2255597 65.9046734,60.8798866 65.89,60.5235076 L65.88,60.0135076 Z" id="Shape" fill="#231F20"></path>
            <path d="M73,56.3535076 C73.2016806,56.349421 73.4031223,56.3695652 73.6,56.4135076 L73.47,58.0835076 C73.2968046,58.0399338 73.1185532,58.0197544 72.94,58.0235076 C72.4566719,57.9943913 71.9806033,58.1518877 71.61,58.4635076 C71.2804039,58.7852977 71.1054848,59.2335278 71.13,59.6935076 L71.13,63.0135076 L69.31,63.0135076 L69.31,56.4835076 L70.66,56.4835076 L70.93,57.5835076 L71,57.5835076 C71.1935485,57.2221829 71.4757038,56.9159412 71.82,56.6935076 C72.1701519,56.4640014 72.5814127,56.3455026 73,56.3535076 L73,56.3535076 Z" id="Path" fill="#231F20"></path>
            <path d="M77.12,63.1535076 C75.08,63.1535076 74.06,62.0335076 74.06,59.7935076 C73.9932154,58.866049 74.2950727,57.9496965 74.9,57.2435076 C75.5304252,56.6215014 76.3961329,56.2977704 77.28,56.3535076 C77.9724094,56.3476356 78.656834,56.5016311 79.28,56.8035076 L78.75,58.1835076 L78,57.9035076 C77.7625921,57.8359538 77.516829,57.8022876 77.27,57.8035076 C76.34,57.8035076 75.88,58.4635076 75.88,59.8035076 C75.88,61.1435076 76.34,61.7235076 77.27,61.7235076 C77.6085218,61.7281008 77.9457546,61.6808882 78.27,61.5835076 C78.5825492,61.4833972 78.8789573,61.3385615 79.15,61.1535076 L79.15,62.6835076 C78.8789292,62.8565205 78.5818041,62.9848245 78.27,63.0635076 C77.8914225,63.1377734 77.5055218,63.1679743 77.12,63.1535076 Z" id="Path" fill="#231F20"></path>
            <path d="M86.5,63.0135076 L84.71,63.0135076 L84.71,59.2035076 C84.71,58.2635076 84.36,57.7835076 83.71,57.7835076 C83.2822657,57.7500184 82.8683801,57.9436713 82.62,58.2935076 C82.3611082,58.806542 82.2470157,59.3804617 82.29,59.9535076 L82.29,63.0135076 L80.45,63.0135076 L80.45,53.9135076 L82.24,53.9135076 L82.24,55.7735076 C82.24,55.9135076 82.24,56.2535076 82.24,56.7735076 L82.24,57.3035076 L82.33,57.3035076 C82.7258187,56.6403791 83.4592895,56.2543418 84.23,56.3035076 C84.8604486,56.3012901 85.4641693,56.5579618 85.9,57.0135076 C86.3295225,57.5029987 86.5455498,58.1438798 86.5,58.7935076 L86.5,63.0135076 Z" id="Path" fill="#231F20"></path>
            <path d="M95.26,63.0135076 L94.91,62.1235076 L94.91,62.1235076 C94.6666887,62.4527165 94.3522075,62.7227601 93.99,62.9135076 C93.5925761,63.0708935 93.1672777,63.145746 92.74,63.1335076 C92.1935638,63.1635759 91.6586753,62.9684139 91.26,62.5935076 C90.8655954,62.1820015 90.6655098,61.6217619 90.71,61.0535076 C90.6700511,60.4483614 90.9462611,59.865672 91.44,59.5135076 C92.1100336,59.1354077 92.8710495,58.9486129 93.64,58.9735076 L94.78,58.9735076 L94.78,58.6835076 C94.816712,58.4086658 94.7232287,58.1324161 94.5271601,57.9363475 C94.3310916,57.7402789 94.0548418,57.6467957 93.78,57.6835076 C93.1380469,57.7144756 92.5088907,57.8743153 91.93,58.1535076 L91.34,56.9435076 C92.1167509,56.5470485 92.9779663,56.3446115 93.85,56.3535076 C94.5637863,56.3087739 95.2708918,56.5138345 95.85,56.9335076 C96.3437603,57.3713084 96.6030144,58.01574 96.55,58.6735076 L96.55,63.0135076 L95.26,63.0135076 Z M94.73,60.0135076 L94,60.0135076 C93.5947646,59.9966009 93.1929015,60.0936023 92.84,60.2935076 C92.5818495,60.4658763 92.4366184,60.7639823 92.46,61.0735076 C92.46,61.5835076 92.75,61.8335076 93.32,61.8335076 C93.688028,61.8518289 94.0480982,61.7222036 94.32,61.4735076 C94.5738293,61.2245322 94.7085703,60.8785755 94.69,60.5235076 L94.73,60.0135076 Z" id="Shape" fill="#231F20"></path>
            <path d="M104.21,63.0135076 L102.43,63.0135076 L102.43,59.2035076 C102.455124,58.8317812 102.364281,58.4614177 102.17,58.1435076 C101.985103,57.8912881 101.681395,57.7546195 101.37,57.7835076 C100.944578,57.7474579 100.532445,57.942076 100.29,58.2935076 C100.019508,58.8026734 99.9014651,59.3789989 99.95,59.9535076 L99.95,63.0135076 L98.17,63.0135076 L98.17,56.4835076 L99.53,56.4835076 L99.77,57.3235076 L99.87,57.3235076 C100.064723,57.0065191 100.350491,56.7556009 100.69,56.6035076 C101.067231,56.4344284 101.476633,56.3491364 101.89,56.3535076 C102.528109,56.3083273 103.155846,56.5332966 103.62,56.9735076 C104.0465,57.4681887 104.258763,58.1121756 104.21,58.7635076 L104.21,63.0135076 Z" id="Path" fill="#231F20"></path>
            <path d="M108,63.1535076 C107.280574,63.1787147 106.596678,62.8405245 106.18,62.2535076 C105.286836,60.7065022 105.286836,58.800513 106.18,57.2535076 C106.603051,56.6632815 107.294373,56.3251349 108.02,56.3535076 C108.784274,56.3214511 109.506549,56.7036071 109.91,57.3535076 L109.97,57.3535076 C109.872711,56.9129385 109.815809,56.4644139 109.8,56.0135076 L109.8,53.9135076 L111.6,53.9135076 L111.6,63.0135076 L110.23,63.0135076 L109.88,62.1635076 L109.8,62.1635076 C109.428266,62.799981 108.736587,63.1804046 108,63.1535076 Z M108.62,61.7235076 C108.997809,61.7556514 109.368583,61.6073418 109.62,61.3235076 C109.872965,60.9203137 109.995205,60.4488197 109.97,59.9735076 L109.97,59.7835076 C110.013288,59.2553188 109.898412,58.7261958 109.64,58.2635076 C109.385268,57.9442105 108.986638,57.7749809 108.58,57.8135076 C108.20618,57.8044677 107.855759,57.9949139 107.66,58.3135076 C107.41245,58.765781 107.298036,59.2789103 107.33,59.7935076 C107.295896,60.2987074 107.410626,60.8028234 107.66,61.2435076 C107.86399,61.5456038 108.205488,61.7257346 108.57,61.7235076 L108.62,61.7235076 Z" id="Shape" fill="#231F20"></path>
            <path d="M120,55.8535076 C119.376864,55.8257763 118.782109,56.1156256 118.42,56.6235076 C118.004593,57.2606109 117.804782,58.014285 117.85,58.7735076 C117.85,60.6835076 118.57,61.6335076 120,61.6335076 C120.749674,61.6040954 121.489469,61.4520829 122.19,61.1835076 L122.19,62.7135076 C121.440022,63.0142859 120.637978,63.1638196 119.83,63.1535076 C118.764087,63.2131987 117.726904,62.7953935 117,62.0135076 C116.279582,61.0893639 115.923713,59.9327914 116,58.7635076 C115.985422,57.956597 116.152906,57.1567775 116.49,56.4235076 C116.789102,55.7770987 117.277264,55.2366336 117.89,54.8735076 C118.540111,54.5102538 119.275464,54.3272786 120.02,54.3435076 C120.891067,54.3528114 121.748893,54.5578694 122.53,54.9435076 L121.94,56.4235076 C121.614275,56.2718886 121.280435,56.1383524 120.94,56.0235076 C120.637757,55.9169993 120.320402,55.8596052 120,55.8535076 Z" id="Path" fill="#231F20"></path>
            <path d="M129.64,59.7435076 C129.694563,60.6542097 129.393402,61.5505219 128.8,62.2435076 C128.183,62.8691818 127.327469,63.2004728 126.45,63.1535076 C125.868958,63.1653962 125.295472,63.0202974 124.79,62.7335076 C124.309909,62.4605534 123.923121,62.0493743 123.68,61.5535076 C123.41023,60.9889793 123.276652,60.3690392 123.29,59.7435076 C123.232734,58.8354809 123.53439,57.9412872 124.13,57.2535076 C124.750382,56.6276916 125.610441,56.2997029 126.49,56.3535076 C127.069483,56.3442818 127.641448,56.4855502 128.15,56.7635076 C128.627818,57.0393421 129.013865,57.4497339 129.26,57.9435076 C129.524796,58.5058347 129.654903,59.122133 129.64,59.7435076 L129.64,59.7435076 Z M125.11,59.7435076 C125.078487,60.2536859 125.18927,60.7625932 125.43,61.2135076 C125.655725,61.5404136 126.03304,61.7290713 126.43,61.7135076 C126.828208,61.7349711 127.208246,61.5449524 127.43,61.2135076 C127.67073,60.7625932 127.781513,60.2536859 127.75,59.7435076 C127.781228,59.2365486 127.670407,58.7309302 127.43,58.2835076 C127.171607,57.9803788 126.793314,57.8057633 126.395,57.8057633 C125.996686,57.8057633 125.618393,57.9803788 125.36,58.2835076 C125.14219,58.7373524 125.055598,59.2430513 125.11,59.7435076 L125.11,59.7435076 Z" id="Shape" fill="#231F20"></path>
            <path d="M136.8,63.0135076 L135,63.0135076 L135,59.2035076 C135.025507,58.8342973 134.942057,58.4657224 134.76,58.1435076 C134.59115,57.8994425 134.306042,57.7625908 134.01,57.7835076 C133.607093,57.7509736 133.220242,57.9482675 133.01,58.2935076 C132.763108,58.810155 132.65621,59.3825763 132.7,59.9535076 L132.7,63.0135076 L130.91,63.0135076 L130.91,56.4835076 L132.27,56.4835076 L132.51,57.3235076 L132.61,57.3235076 C132.789164,57.0145815 133.057585,56.7670763 133.38,56.6135076 C133.733581,56.4364783 134.124626,56.3472925 134.52,56.3535076 C135.328143,56.2482213 136.119343,56.6438215 136.52,57.3535076 L136.68,57.3535076 C136.857597,57.0396891 137.130913,56.7909015 137.46,56.6435076 C137.817508,56.4674839 138.21154,56.3783984 138.61,56.3835076 C139.229241,56.3352904 139.840869,56.5451982 140.3,56.9635076 C140.724597,57.4740893 140.929559,58.1321234 140.87,58.7935076 L140.87,63.0135076 L139.1,63.0135076 L139.1,59.2035076 C139.125507,58.8342973 139.042057,58.4657224 138.86,58.1435076 C138.69115,57.8994425 138.406042,57.7625908 138.11,57.7835076 C137.717206,57.7534026 137.337478,57.9318749 137.11,58.2535076 C136.856273,58.70707 136.741514,59.225227 136.78,59.7435076 L136.8,63.0135076 Z" id="Path" fill="#231F20"></path>
            <path d="M148.41,63.0135076 L146.62,63.0135076 L146.62,59.2035076 C146.645507,58.8342973 146.562057,58.4657224 146.38,58.1435076 C146.217201,57.897812 145.933793,57.7599376 145.64,57.7835076 C145.237561,57.7533171 144.851865,57.950022 144.64,58.2935076 C144.393108,58.810155 144.28621,59.3825763 144.33,59.9535076 L144.33,63.0135076 L142.54,63.0135076 L142.54,56.4835076 L143.91,56.4835076 L144.15,57.3235076 L144.25,57.3235076 C144.425023,57.0148928 144.690206,56.7671565 145.01,56.6135076 C145.363581,56.4364783 145.754626,56.3472925 146.15,56.3535076 C146.958143,56.2482213 147.749343,56.6438215 148.15,57.3535076 L148.31,57.3535076 C148.490279,57.0418399 148.762803,56.7937728 149.09,56.6435076 C149.451033,56.4673746 149.848327,56.3783259 150.25,56.3835076 C150.866021,56.3369011 151.47394,56.5467782 151.93,56.9635076 C152.354597,57.4740893 152.559559,58.1321234 152.5,58.7935076 L152.5,63.0135076 L150.7,63.0135076 L150.7,59.2035076 C150.725507,58.8342973 150.642057,58.4657224 150.46,58.1435076 C150.29115,57.8994425 150.006042,57.7625908 149.71,57.7835076 C149.317576,57.7554084 148.938785,57.9334401 148.71,58.2535076 C148.465096,58.7101106 148.354169,59.2266125 148.39,59.7435076 L148.41,63.0135076 Z" id="Path" fill="#231F20"></path>
            <path d="M158.79,63.0135076 L158.55,62.1735076 L158.45,62.1735076 C158.255479,62.4844954 157.973792,62.7314067 157.64,62.8835076 C157.262769,63.0525868 156.853367,63.1378788 156.44,63.1335076 C155.798677,63.1803016 155.167228,62.9553028 154.7,62.5135076 C154.279826,62.0192026 154.06826,61.3809189 154.11,60.7335076 L154.11,56.4835076 L155.9,56.4835076 L155.9,60.3035076 C155.872405,60.6773125 155.959628,61.0506297 156.15,61.3735076 C156.343009,61.6144707 156.642037,61.7452956 156.95,61.7235076 C157.375475,61.7572444 157.788025,61.568001 158.04,61.2235076 C158.300353,60.7109779 158.414528,60.1366463 158.37,59.5635076 L158.37,56.4835076 L160.16,56.4835076 L160.16,63.0135076 L158.79,63.0135076 Z" id="Path" fill="#231F20"></path>
            <path d="M167.9,63.0135076 L166.11,63.0135076 L166.11,59.2035076 C166.138122,58.8328361 166.05079,58.4625491 165.86,58.1435076 C165.671399,57.8959076 165.370395,57.7604559 165.06,57.7835076 C164.632266,57.7500184 164.21838,57.9436713 163.97,58.2935076 C163.708656,58.8056941 163.594426,59.3803073 163.64,59.9535076 L163.64,63.0135076 L161.85,63.0135076 L161.85,56.4835076 L163.22,56.4835076 L163.46,57.3235076 L163.56,57.3235076 C163.754723,57.0065191 164.040491,56.7556009 164.38,56.6035076 C164.753965,56.4352371 165.159936,56.3499491 165.57,56.3535076 C166.210816,56.3104162 166.840823,56.5349015 167.31,56.9735076 C167.73172,57.4708806 167.94332,58.1128535 167.9,58.7635076 L167.9,63.0135076 Z" id="Path" fill="#231F20"></path>
            <path d="M169.48,54.7835076 C169.48,54.2035076 169.81,53.9135076 170.48,53.9135076 C171.15,53.9135076 171.48,54.2035076 171.48,54.7835076 C171.495949,55.0244271 171.408687,55.2607613 171.24,55.4335076 C171.036795,55.603946 170.774206,55.6866797 170.51,55.6635076 C169.81,55.6635076 169.48,55.3735076 169.48,54.7835076 Z M171.35,63.0135076 L169.56,63.0135076 L169.56,56.4835076 L171.35,56.4835076 L171.35,63.0135076 Z" id="Shape" fill="#231F20"></path>
            <path d="M175.7,63.1535076 C173.66,63.1535076 172.64,62.0335076 172.64,59.7935076 C172.573215,58.866049 172.875073,57.9496965 173.48,57.2435076 C174.110425,56.6215014 174.976133,56.2977704 175.86,56.3535076 C176.552409,56.3476356 177.236834,56.5016311 177.86,56.8035076 L177.33,58.1835076 L176.55,57.9035076 C176.312457,57.8365978 176.066785,57.8029441 175.82,57.8035076 C174.89,57.8035076 174.43,58.4635076 174.43,59.8035076 C174.43,61.1435076 174.89,61.7235076 175.82,61.7235076 C176.158522,61.7281008 176.495755,61.6808882 176.82,61.5835076 C177.130174,61.4852377 177.423547,61.3402373 177.69,61.1535076 L177.69,62.6835076 C177.423018,62.8574293 177.129024,62.9858403 176.82,63.0635076 C176.451234,63.1354937 176.075529,63.1656843 175.7,63.1535076 Z" id="Path" fill="#231F20"></path>
            <path d="M183.19,63.0135076 L182.85,62.1235076 L182.85,62.1235076 C182.605675,62.4556002 182.287233,62.7261043 181.92,62.9135076 C181.522886,63.0719875 181.09736,63.1468802 180.67,63.1335076 C180.123564,63.1635759 179.588675,62.9684139 179.19,62.5935076 C178.807731,62.1751681 178.6127,61.6189685 178.65,61.0535076 C178.606071,60.4476093 178.883159,59.8630668 179.38,59.5135076 C180.049456,59.1339527 180.810888,58.9470559 181.58,58.9735076 L182.71,58.9735076 L182.71,58.6835076 C182.746712,58.4086658 182.653229,58.1324161 182.45716,57.9363475 C182.261092,57.7402789 181.984842,57.6467957 181.71,57.6835076 C181.071241,57.7144463 180.445348,57.8743212 179.87,58.1535076 L179.28,56.9435076 C180.053195,56.547117 180.911164,56.3446363 181.78,56.3535076 C182.493509,56.3112712 183.19979,56.5160928 183.78,56.9335076 C184.27376,57.3713084 184.533014,58.01574 184.48,58.6735076 L184.48,63.0135076 L183.19,63.0135076 Z M182.66,60.0135076 L182,60.0135076 C181.594869,59.9976647 181.193294,60.0945968 180.84,60.2935076 C180.585054,60.4686557 180.440782,60.7647929 180.46,61.0735076 C180.46,61.5835076 180.75,61.8335076 181.33,61.8335076 C181.698196,61.8529623 182.058691,61.7231841 182.33,61.4735076 C182.583829,61.2245322 182.71857,60.8785755 182.7,60.5235076 L182.66,60.0135076 Z" id="Shape" fill="#231F20"></path>
            <path d="M188.86,61.7235076 C189.240956,61.7105462 189.618103,61.6431984 189.98,61.5235076 L189.98,62.8535076 C189.460473,63.0675885 188.90167,63.1698085 188.34,63.1535076 C187.764997,63.2038735 187.196272,63.0033613 186.78,62.6035076 C186.423694,62.1417846 186.249326,61.5653048 186.29,60.9835076 L186.29,57.8235076 L185.44,57.8235076 L185.44,57.0635076 L186.44,56.4735076 L186.96,55.0835076 L188.1,55.0835076 L188.1,56.4835076 L189.93,56.4835076 L189.93,57.8235076 L188.1,57.8235076 L188.1,61.0135076 C188.082719,61.2221879 188.159766,61.4276457 188.31,61.5735076 C188.470947,61.6845859 188.664945,61.7374944 188.86,61.7235076 Z" id="Path" fill="#231F20"></path>
            <path d="M191.05,54.7835076 C191.05,54.2035076 191.38,53.9135076 192.05,53.9135076 C192.72,53.9135076 193.05,54.2035076 193.05,54.7835076 C193.067383,55.0265572 192.975771,55.2647478 192.8,55.4335076 C192.599332,55.601416 192.340848,55.6839874 192.08,55.6635076 C191.38,55.6635076 191.05,55.3735076 191.05,54.7835076 Z M192.92,63.0135076 L191.13,63.0135076 L191.13,56.4835076 L192.92,56.4835076 L192.92,63.0135076 Z" id="Shape" fill="#231F20"></path>
            <path d="M200.56,59.7435076 C200.614563,60.6542097 200.313402,61.5505219 199.72,62.2435076 C199.103,62.8691818 198.247469,63.2004728 197.37,63.1535076 C196.788958,63.1653962 196.215472,63.0202974 195.71,62.7335076 C195.229909,62.4605534 194.843121,62.0493743 194.6,61.5535076 C194.33023,60.9889793 194.196652,60.3690392 194.21,59.7435076 C194.152734,58.8354809 194.45439,57.9412872 195.05,57.2535076 C195.670382,56.6276916 196.530441,56.2997029 197.41,56.3535076 C197.989483,56.3442818 198.561448,56.4855502 199.07,56.7635076 C199.547818,57.0393421 199.933865,57.4497339 200.18,57.9435076 C200.444796,58.5058347 200.574903,59.122133 200.56,59.7435076 Z M196.03,59.7435076 C195.998487,60.2536859 196.10927,60.7625932 196.35,61.2135076 C196.575725,61.5404136 196.95304,61.7290713 197.35,61.7135076 C197.748208,61.7349711 198.128246,61.5449524 198.35,61.2135076 C198.59073,60.7625932 198.701513,60.2536859 198.67,59.7435076 C198.701228,59.2365486 198.590407,58.7309302 198.35,58.2835076 C198.091607,57.9803788 197.713314,57.8057633 197.315,57.8057633 C196.916686,57.8057633 196.538393,57.9803788 196.28,58.2835076 C196.051888,58.7343858 195.954877,59.2402282 196,59.7435076 L196.03,59.7435076 Z" id="Shape" fill="#231F20"></path>
            <path d="M207.91,63.0135076 L206.12,63.0135076 L206.12,59.2035076 C206.148122,58.8328361 206.06079,58.4625491 205.87,58.1435076 C205.681399,57.8959076 205.380395,57.7604559 205.07,57.7835076 C204.641896,57.7479678 204.227043,57.9420731 203.98,58.2935076 C203.718656,58.8056941 203.604426,59.3803073 203.65,59.9535076 L203.65,63.0135076 L201.86,63.0135076 L201.86,56.4835076 L203.23,56.4835076 L203.47,57.3235076 L203.57,57.3235076 C203.762247,57.0044402 204.04875,56.7528766 204.39,56.6035076 C204.763965,56.4352371 205.169936,56.3499491 205.58,56.3535076 C206.220816,56.3104162 206.850823,56.5349015 207.32,56.9735076 C207.74172,57.4708806 207.95332,58.1128535 207.91,58.7635076 L207.91,63.0135076 Z" id="Path" fill="#231F20"></path>
            <path d="M8.13,84.0135076 L5.82,84.0135076 L2.09,77.5535076 L2,77.5535076 C2.07,78.6935076 2.11,79.5535076 2.11,80.0035076 L2.11,84.0035076 L0.53,84.0035076 L0.53,75.4635076 L2.82,75.4635076 L6.54,81.8835076 L6.54,81.8835076 C6.48,80.7635076 6.45,79.9835076 6.45,79.5235076 L6.45,75.4635076 L8.13,75.4635076 L8.13,84.0135076 Z" id="Path" fill="#231F20"></path>
            <path d="M12.93,84.1535076 C12.0188889,84.2038071 11.1256277,83.8868435 10.45,83.2735076 C9.82448695,82.6087016 9.50228385,81.7144975 9.56,80.8035076 C9.50206716,79.8788543 9.79889733,78.9669062 10.39,78.2535076 C10.9788795,77.6363325 11.808196,77.3075286 12.66,77.3535076 C13.462973,77.3077264 14.2488965,77.5974678 14.83,78.1535076 C15.3676118,78.7481163 15.6448948,79.5331512 15.6,80.3335076 L15.6,81.2035076 L11.37,81.2035076 C11.3619679,81.6450394 11.5270796,82.072176 11.83,82.3935076 C12.1476621,82.6926925 12.5743253,82.8481714 13.01,82.8235076 C13.3870156,82.8221181 13.7626898,82.7785131 14.13,82.6935076 C14.5096795,82.6036292 14.8784997,82.4728657 15.23,82.3035076 L15.23,83.6835076 C14.9126524,83.8416229 14.5766844,83.9592117 14.23,84.0335076 C13.8022522,84.1202044 13.3663902,84.1604378 12.93,84.1535076 L12.93,84.1535076 Z M12.68,78.6335076 C12.3418371,78.616405 12.0130817,78.7479071 11.78,78.9935076 C11.5549445,79.2790994 11.4286206,79.6299993 11.42,79.9935076 L13.92,79.9935076 C13.9354364,79.6294238 13.8141601,79.2727286 13.58,78.9935076 C13.3446822,78.7512242 13.0174945,78.6203491 12.68,78.6335076 L12.68,78.6335076 Z" id="Shape" fill="#231F20"></path>
            <path d="M19.63,82.7235076 C20.014111,82.7094921 20.3944127,82.642182 20.76,82.5235076 L20.76,83.8535076 C20.2404729,84.0675885 19.6816701,84.1698085 19.12,84.1535076 C18.5449971,84.2038735 17.9762717,84.0033613 17.56,83.6035076 C17.2065548,83.1518722 17.0320893,82.5857496 17.07,82.0135076 L17.07,78.8235076 L16.21,78.8235076 L16.21,78.0635076 L17.21,77.4735076 L17.73,76.0835076 L18.87,76.0835076 L18.87,77.4835076 L20.71,77.4835076 L20.71,78.8235076 L18.85,78.8235076 L18.85,82.0135076 C18.8322706,82.2242276 18.9135822,82.4312027 19.07,82.5735076 C19.2329507,82.6883801 19.4314474,82.7415489 19.63,82.7235076 Z" id="Path" fill="#231F20"></path>
            <path d="M27.29,84.0135076 L26.78,81.7235076 L26.11,78.8235076 L26.06,78.8235076 L24.87,84.0135076 L22.94,84.0135076 L21.08,77.4635076 L22.86,77.4635076 L23.62,80.3635076 C23.7,80.7035076 23.82,81.4235076 23.98,82.5135076 L23.98,82.5135076 C24.0249511,82.0401167 24.0950501,81.5694519 24.19,81.1035076 L24.28,80.6035076 L25.09,77.4635076 L27.09,77.4635076 L27.86,80.6035076 C27.86,80.8135076 27.96,81.1335076 28.03,81.5435076 C28.0926058,81.8734747 28.129384,82.2078217 28.14,82.5435076 L28.19,82.5435076 C28.19,82.1935076 28.29,81.8035076 28.37,81.3535076 C28.45,80.9035076 28.52,80.5935076 28.57,80.3535076 L29.36,77.4535076 L31.11,77.4535076 L29.23,84.0135076 L27.29,84.0135076 Z" id="Path" fill="#231F20"></path>
            <path d="M38,80.7435076 C38.0518081,81.6555674 37.7470058,82.5520446 37.15,83.2435076 C36.5337266,83.8702872 35.6776761,84.2017791 34.8,84.1535076 C34.2189583,84.1653962 33.6454724,84.0202974 33.14,83.7335076 C32.648782,83.4653382 32.2510766,83.0536782 32,82.5535076 C31.7302304,81.9889793 31.5966521,81.3690392 31.61,80.7435076 C31.5527343,79.8354809 31.8543901,78.9412872 32.45,78.2535076 C33.0711067,77.6288063 33.9306423,77.3010173 34.81,77.3535076 C35.3896397,77.342896 35.9619543,77.4842508 36.47,77.7635076 C36.9478184,78.0393421 37.3338648,78.4497339 37.58,78.9435076 C37.8614762,79.5014521 38.005479,80.1186069 38,80.7435076 Z M33.47,80.7435076 C33.4335614,81.2540508 33.544638,81.7643088 33.79,82.2135076 C34.013111,82.5434091 34.3922123,82.7329597 34.79,82.7135076 C35.1890628,82.7391367 35.5710655,82.5481353 35.79,82.2135076 C36.0307304,81.7625932 36.1415129,81.2536859 36.11,80.7435076 C36.1412276,80.2365486 36.0304072,79.7309302 35.79,79.2835076 C35.5316066,78.9803788 35.1533142,78.8057633 34.755,78.8057633 C34.3566858,78.8057633 33.9783934,78.9803788 33.72,79.2835076 C33.4855013,79.7325673 33.3815699,80.2383667 33.42,80.7435076 L33.47,80.7435076 Z" id="Shape" fill="#231F20"></path>
            <path d="M42.9,77.3535076 C43.1016806,77.349421 43.3031223,77.3695652 43.5,77.4135076 L43.37,79.0835076 C43.1968046,79.0399338 43.0185532,79.0197544 42.84,79.0235076 C42.3568063,78.9954172 41.8811073,79.1527913 41.51,79.4635076 C41.1693677,79.7799366 40.9832192,80.228883 41,80.6935076 L41,84.0135076 L39.24,84.0135076 L39.24,77.4835076 L40.6,77.4835076 L40.86,78.5835076 L41,78.5835076 C41.196322,78.2241637 41.4779047,77.9185435 41.82,77.6935076 C42.1416336,77.4824861 42.5154861,77.3647918 42.9,77.3535076 L42.9,77.3535076 Z" id="Path" fill="#231F20"></path>
            <polygon id="Path" fill="#231F20" points="46.23 80.4735076 47.01 79.4735076 48.84 77.4735076 50.84 77.4735076 48.24 80.3135076 51 84.0135076 49 84.0135076 47.12 81.3535076 46.3 82.0135076 46.3 84.0135076 44.51 84.0135076 44.51 74.9135076 46.3 74.9135076 46.3 79.0135076 46.21 80.5035076"></polygon>
            <path d="M60.66,80.7435076 C60.7145631,81.6542097 60.4134022,82.5505219 59.82,83.2435076 C59.2030003,83.8691818 58.3474685,84.2004728 57.47,84.1535076 C56.8889583,84.1653962 56.3154724,84.0202974 55.81,83.7335076 C55.3299086,83.4605534 54.9431214,83.0493743 54.7,82.5535076 C54.4302304,81.9889793 54.2966521,81.3690392 54.31,80.7435076 C54.2527343,79.8354809 54.5543901,78.9412872 55.15,78.2535076 C55.7703816,77.6276916 56.630441,77.2997029 57.51,77.3535076 C58.0894831,77.3442818 58.6614477,77.4855502 59.17,77.7635076 C59.6478184,78.0393421 60.0338648,78.4497339 60.28,78.9435076 C60.5447958,79.5058347 60.6749032,80.122133 60.66,80.7435076 L60.66,80.7435076 Z M56.13,80.7435076 C56.0984871,81.2536859 56.2092696,81.7625932 56.45,82.2135076 C56.6757249,82.5404136 57.0530403,82.7290713 57.45,82.7135076 C57.8482084,82.7349711 58.2282458,82.5449524 58.45,82.2135076 C58.6907304,81.7625932 58.8015129,81.2536859 58.77,80.7435076 C58.8012276,80.2365486 58.6904072,79.7309302 58.45,79.2835076 C58.1916066,78.9803788 57.8133142,78.8057633 57.415,78.8057633 C57.0166858,78.8057633 56.6383934,78.9803788 56.38,79.2835076 C56.1621905,79.7373524 56.0755982,80.2430513 56.13,80.7435076 L56.13,80.7435076 Z" id="Shape" fill="#231F20"></path>
            <path d="M68,84.0135076 L66.22,84.0135076 L66.22,80.2035076 C66.2571756,79.8359702 66.1803674,79.4658946 66,79.1435076 C65.8113985,78.8959076 65.5103948,78.7604559 65.2,78.7835076 C64.7718956,78.7479678 64.357043,78.9420731 64.11,79.2935076 C63.8486561,79.8056941 63.7344258,80.3803073 63.78,80.9535076 L63.78,84.0135076 L62,84.0135076 L62,77.4835076 L63.37,77.4835076 L63.61,78.3235076 L63.71,78.3235076 C63.9022467,78.0044402 64.1887497,77.7528766 64.53,77.6035076 C64.9039653,77.4352371 65.3099361,77.3499491 65.72,77.3535076 C66.3608162,77.3104162 66.9908232,77.5349015 67.46,77.9735076 C67.8638018,78.4783675 68.0572354,79.1195639 68,79.7635076 L68,84.0135076 Z" id="Path" fill="#231F20"></path>
            <polygon id="Path" fill="#231F20" points="76 84.0135076 72.1 84.0135076 72.1 83.0135076 73.1 82.5335076 73.1 77.0135076 72.1 76.5335076 72.1 75.5335076 76 75.5335076 76 76.5335076 75 77.0135076 75 82.5635076 76 83.0135076"></polygon>
            <path d="M83.14,84.0135076 L81.35,84.0135076 L81.35,80.2035076 C81.3781218,79.8328361 81.2907899,79.4625491 81.1,79.1435076 C80.9125946,78.8944066 80.6107249,78.7585652 80.3,78.7835076 C79.8722657,78.7500184 79.4583801,78.9436713 79.21,79.2935076 C78.9486561,79.8056941 78.8344258,80.3803073 78.88,80.9535076 L78.88,84.0135076 L77.09,84.0135076 L77.09,77.4835076 L78.46,77.4835076 L78.7,78.3235076 L78.8,78.3235076 C78.994723,78.0065191 79.2804909,77.7556009 79.62,77.6035076 C79.9939653,77.4352371 80.3999361,77.3499491 80.81,77.3535076 C81.4509847,77.3091946 82.0814651,77.5338486 82.55,77.9735076 C82.9717198,78.4708806 83.1833198,79.1128535 83.14,79.7635076 L83.14,84.0135076 Z" id="Path" fill="#231F20"></path>
            <path d="M88.42,78.8235076 L86.88,78.8235076 L86.88,84.0135076 L85.09,84.0135076 L85.09,78.8235076 L84.09,78.8235076 L84.09,78.0135076 L85.09,77.5335076 L85.09,77.0135076 C85.0356407,76.4139481 85.235145,75.8190624 85.64,75.3735076 C86.1423318,74.9895638 86.7702169,74.8076198 87.4,74.8635076 C87.961748,74.853737 88.5206654,74.9451962 89.05,75.1335076 L88.59,76.4435076 C88.2669341,76.3375937 87.9299164,76.2803007 87.59,76.2735076 C87.3773639,76.2566621 87.1694129,76.3420706 87.03,76.5035076 C86.9183913,76.6758321 86.8625288,76.8783335 86.87,77.0835076 L86.87,77.4935076 L88.41,77.4935076 L88.42,78.8235076 Z" id="Path" fill="#231F20"></path>
            <polygon id="Path" fill="#231F20" points="91.05 84.0135076 89.27 84.0135076 89.27 74.9135076 91.05 74.9135076"></polygon>
            <path d="M96.91,84.0135076 L96.56,83.1235076 L96.56,83.1235076 C96.3156748,83.4556002 95.9972333,83.7261043 95.63,83.9135076 C95.2328863,84.0719875 94.8073597,84.1468802 94.38,84.1335076 C93.8335638,84.1635759 93.2986753,83.9684139 92.9,83.5935076 C92.5177313,83.1751681 92.3227003,82.6189685 92.36,82.0535076 C92.3160707,81.4476093 92.593159,80.8630668 93.09,80.5135076 C93.7594563,80.1339527 94.5208876,79.9470559 95.29,79.9735076 L96.42,79.9735076 L96.42,79.6835076 C96.456712,79.4086658 96.3632287,79.1324161 96.1671601,78.9363475 C95.9710916,78.7402789 95.6948418,78.6467957 95.42,78.6835076 C94.7810751,78.7133398 94.1549628,78.8732707 93.58,79.1535076 L92.99,77.9435076 C93.7631946,77.547117 94.6211635,77.3446363 95.49,77.3535076 C96.2035087,77.3112712 96.9097902,77.5160928 97.49,77.9335076 C97.9798717,78.3740389 98.2383182,79.0164631 98.19,79.6735076 L98.19,84.0135076 L96.91,84.0135076 Z M96.38,81.0135076 L95.69,81.0135076 C95.2847646,80.9966009 94.8829015,81.0936023 94.53,81.2935076 C94.2750544,81.4686557 94.1307824,81.7647929 94.15,82.0735076 C94.15,82.5835076 94.44,82.8335076 95.02,82.8335076 C95.388196,82.8529623 95.7486912,82.7231841 96.02,82.4735076 C96.2876672,82.2129246 96.4235932,81.845557 96.39,81.4735076 L96.38,81.0135076 Z" id="Shape" fill="#231F20"></path>
            <path d="M105.68,84.0135076 L103.9,84.0135076 L103.9,80.2035076 C103.925507,79.8342973 103.842057,79.4657224 103.66,79.1435076 C103.49115,78.8994425 103.206042,78.7625908 102.91,78.7835076 C102.507093,78.7509736 102.120242,78.9482675 101.91,79.2935076 C101.663108,79.810155 101.55621,80.3825763 101.6,80.9535076 L101.6,84.0135076 L99.82,84.0135076 L99.82,77.4835076 L101.18,77.4835076 L101.42,78.3235076 L101.52,78.3235076 C101.699164,78.0145815 101.967585,77.7670763 102.29,77.6135076 C102.643581,77.4364783 103.034626,77.3472925 103.43,77.3535076 C104.238143,77.2482213 105.029343,77.6438215 105.43,78.3535076 L105.59,78.3535076 C105.763323,78.0399485 106.03344,77.7908795 106.36,77.6435076 C106.721399,77.4684212 107.118443,77.3794286 107.52,77.3835076 C108.138934,77.3376851 108.74964,77.5472766 109.21,77.9635076 C109.634597,78.4740893 109.839559,79.1321234 109.78,79.7935076 L109.78,84.0135076 L108,84.0135076 L108,80.2035076 C108.027959,79.8353318 107.948035,79.4669865 107.77,79.1435076 C107.60115,78.8994425 107.316042,78.7625908 107.02,78.7835076 C106.627206,78.7534026 106.247478,78.9318749 106.02,79.2535076 C105.766273,79.70707 105.651514,80.225227 105.69,80.7435076 L105.68,84.0135076 Z" id="Path" fill="#231F20"></path>
            <path d="M117.29,84.0135076 L115.5,84.0135076 L115.5,80.2035076 C115.525507,79.8342973 115.442057,79.4657224 115.26,79.1435076 C115.095762,78.8994618 114.813383,78.7620883 114.52,78.7835076 C114.117561,78.7533171 113.731865,78.950022 113.52,79.2935076 C113.273108,79.810155 113.16621,80.3825763 113.21,80.9535076 L113.21,84.0135076 L111.42,84.0135076 L111.42,77.4835076 L112.79,77.4835076 L113.03,78.3235076 L113.13,78.3235076 C113.305023,78.0148928 113.570206,77.7671565 113.89,77.6135076 C114.243581,77.4364783 114.634626,77.3472925 115.03,77.3535076 C115.838143,77.2482213 116.629343,77.6438215 117.03,78.3535076 L117.19,78.3535076 C117.370279,78.0418399 117.642803,77.7937728 117.97,77.6435076 C118.331033,77.4673746 118.728327,77.3783259 119.13,77.3835076 C119.746021,77.3369011 120.35394,77.5467782 120.81,77.9635076 C121.234597,78.4740893 121.439559,79.1321234 121.38,79.7935076 L121.38,84.0135076 L119.59,84.0135076 L119.59,80.2035076 C119.615507,79.8342973 119.532057,79.4657224 119.35,79.1435076 C119.18115,78.8994425 118.896042,78.7625908 118.6,78.7835076 C118.207576,78.7554084 117.828785,78.9334401 117.6,79.2535076 C117.355096,79.7101106 117.244169,80.2266125 117.28,80.7435076 L117.29,84.0135076 Z" id="Path" fill="#231F20"></path>
            <path d="M127.18,84.0135076 L126.84,83.1235076 L126.84,83.1235076 C126.595675,83.4556002 126.277233,83.7261043 125.91,83.9135076 C125.516152,84.0711859 125.094053,84.1460743 124.67,84.1335076 C124.120164,84.1663669 123.581116,83.9710073 123.18,83.5935076 C122.797731,83.1751681 122.6027,82.6189685 122.64,82.0535076 C122.596071,81.4476093 122.873159,80.8630668 123.37,80.5135076 C124.040034,80.1354077 124.80105,79.9486129 125.57,79.9735076 L126.71,79.9735076 L126.71,79.6835076 C126.746712,79.4086658 126.653229,79.1324161 126.45716,78.9363475 C126.261092,78.7402789 125.984842,78.6467957 125.71,78.6835076 C125.067843,78.7131049 124.438416,78.8730133 123.86,79.1535076 L123.27,77.9435076 C124.046335,77.5459156 124.907834,77.3434119 125.78,77.3535076 C126.493786,77.3087739 127.200892,77.5138345 127.78,77.9335076 C128.27376,78.3713084 128.533014,79.01574 128.48,79.6735076 L128.48,84.0135076 L127.18,84.0135076 Z M126.66,81.0135076 L126,81.0135076 C125.594765,80.9966009 125.192902,81.0936023 124.84,81.2935076 C124.579669,81.4648799 124.430899,81.7624194 124.45,82.0735076 C124.45,82.5835076 124.74,82.8335076 125.32,82.8335076 C125.688028,82.8518289 126.048098,82.7222036 126.32,82.4735076 C126.582906,82.2098536 126.71798,81.8447897 126.69,81.4735076 L126.66,81.0135076 Z" id="Shape" fill="#231F20"></path>
            <path d="M132.85,82.7235076 C133.234208,82.7104101 133.614637,82.6430775 133.98,82.5235076 L133.98,83.8535076 C133.460473,84.0675885 132.90167,84.1698085 132.34,84.1535076 C131.764997,84.2038735 131.196272,84.0033613 130.78,83.6035076 C130.419383,83.1440154 130.244502,82.5658372 130.29,81.9835076 L130.29,78.8235076 L129.43,78.8235076 L129.43,78.0635076 L130.43,77.4735076 L130.94,76.0835076 L132.08,76.0835076 L132.08,77.4835076 L133.92,77.4835076 L133.92,78.8235076 L132.08,78.8235076 L132.08,82.0135076 C132.062271,82.2242276 132.143582,82.4312027 132.3,82.5735076 C132.460242,82.686093 132.654786,82.7391504 132.85,82.7235076 Z" id="Path" fill="#231F20"></path>
            <path d="M141.08,80.7435076 C141.131808,81.6555674 140.827006,82.5520446 140.23,83.2435076 C139.613727,83.8702872 138.757676,84.2017791 137.88,84.1535076 C137.298958,84.1653962 136.725472,84.0202974 136.22,83.7335076 C135.739909,83.4605534 135.353121,83.0493743 135.11,82.5535076 C134.84023,81.9889793 134.706652,81.3690392 134.72,80.7435076 C134.662734,79.8354809 134.96439,78.9412872 135.56,78.2535076 C136.181107,77.6288063 137.040642,77.3010173 137.92,77.3535076 C138.49964,77.342896 139.071954,77.4842508 139.58,77.7635076 C140.057818,78.0393421 140.443865,78.4497339 140.69,78.9435076 C140.961107,79.5040201 141.094797,80.1210494 141.08,80.7435076 Z M136.55,80.7435076 C136.513561,81.2540508 136.624638,81.7643088 136.87,82.2135076 C137.091754,82.5449524 137.471792,82.7349711 137.87,82.7135076 C138.268633,82.7370295 138.649637,82.5465275 138.87,82.2135076 C139.11073,81.7625932 139.221513,81.2536859 139.19,80.7435076 C139.221228,80.2365486 139.110407,79.7309302 138.87,79.2835076 C138.611607,78.9803788 138.233314,78.8057633 137.835,78.8057633 C137.436686,78.8057633 137.058393,78.9803788 136.8,79.2835076 C136.5827,79.7375147 136.496133,80.2430679 136.55,80.7435076 Z" id="Shape" fill="#231F20"></path>
            <path d="M146,77.3535076 C146.201681,77.349421 146.403122,77.3695652 146.6,77.4135076 L146.47,79.0835076 C146.316672,79.0415797 146.158892,79.0180805 146,79.0135076 C145.516672,78.9843913 145.040603,79.1418877 144.67,79.4535076 C144.340404,79.7752977 144.165485,80.2235278 144.19,80.6835076 L144.19,84.0135076 L142.4,84.0135076 L142.4,77.4835076 L143.75,77.4835076 L144.02,78.5835076 L144.11,78.5835076 C144.303548,78.2221829 144.585704,77.9159412 144.93,77.6935076 C145.248759,77.4842382 145.618911,77.3666199 146,77.3535076 L146,77.3535076 Z" id="Path" fill="#231F20"></path>
            <path d="M146.7,77.4835076 L148.7,77.4835076 L149.94,81.1635076 C150.049672,81.5351186 150.120057,81.9172097 150.15,82.3035076 L150.15,82.3035076 C150.190706,81.9153972 150.274557,81.5330352 150.4,81.1635076 L151.61,77.4835076 L153.53,77.4835076 L150.76,84.8735076 C150.555197,85.4796848 150.17602,86.0119229 149.67,86.4035076 C149.189356,86.7469271 148.610596,86.9258165 148.02,86.9135076 C147.713839,86.9151104 147.408507,86.8815574 147.11,86.8135076 L147.11,85.3935076 C147.342867,85.4470156 147.581065,85.4738549 147.82,85.4735076 C148.121813,85.4753416 148.415002,85.3729023 148.65,85.1835076 C148.91144,84.9468936 149.101877,84.6421943 149.2,84.3035076 L149.3,83.9835076 L146.7,77.4835076 Z" id="Path" fill="#231F20"></path>
            <path d="M157.36,75.4635076 L160,75.4635076 C160.914011,75.3955734 161.829439,75.5752045 162.65,75.9835076 C163.200474,76.3457532 163.513681,76.975985 163.47,77.6335076 C163.488176,78.08124 163.361971,78.5229601 163.11,78.8935076 C162.874238,79.2217982 162.511362,79.435895 162.11,79.4835076 L162.11,79.5435076 C162.573528,79.6174782 162.993586,79.8595458 163.29,80.2235076 C163.916805,81.2524818 163.709749,82.583553 162.8,83.3735076 C162.128934,83.8449867 161.318959,84.0774142 160.5,84.0335076 L157.29,84.0335076 L157.36,75.4635076 Z M159.18,78.8535076 L160.24,78.8535076 C160.607086,78.8828026 160.974891,78.8064657 161.3,78.6335076 C161.53814,78.4568221 161.66699,78.1688041 161.64,77.8735076 C161.661134,77.5883567 161.522518,77.3149756 161.28,77.1635076 C160.923497,76.9994145 160.531574,76.9272182 160.14,76.9535076 L159.14,76.9535076 L159.18,78.8535076 Z M159.18,80.3035076 L159.18,82.5335076 L160.36,82.5335076 C160.751866,82.5619955 161.142146,82.4600303 161.47,82.2435076 C161.730693,82.0296314 161.866043,81.6987758 161.83,81.3635076 C161.83,80.6535076 161.32,80.3035076 160.31,80.3035076 L159.18,80.3035076 Z" id="Shape" fill="#231F20"></path>
            <path d="M171.06,80.7435076 C171.114563,81.6542097 170.813402,82.5505219 170.22,83.2435076 C169.601567,83.8669944 168.747055,84.1978904 167.87,84.1535076 C167.285751,84.1657174 166.708961,84.0206564 166.2,83.7335076 C165.719909,83.4605534 165.333121,83.0493743 165.09,82.5535076 C164.827803,81.9867681 164.697862,81.3678423 164.71,80.7435076 C164.652734,79.8354809 164.95439,78.9412872 165.55,78.2535076 C166.163572,77.6235925 167.022621,77.2945951 167.9,77.3535076 C168.482653,77.3443703 169.057824,77.48558 169.57,77.7635076 C170.047162,78.0370528 170.430571,78.448347 170.67,78.9435076 C170.941107,79.5040201 171.074797,80.1210494 171.06,80.7435076 L171.06,80.7435076 Z M166.53,80.7435076 C166.498487,81.2536859 166.60927,81.7625932 166.85,82.2135076 C167.073111,82.5434091 167.452212,82.7329597 167.85,82.7135076 C168.248208,82.7349711 168.628246,82.5449524 168.85,82.2135076 C169.086775,81.7614202 169.194054,81.2527088 169.16,80.7435076 C169.194291,80.2374934 169.086945,79.7319306 168.85,79.2835076 C168.618512,78.9656235 168.242817,78.7852899 167.85,78.8035076 C167.456051,78.7796184 167.077771,78.9611927 166.85,79.2835076 C166.608071,79.7303657 166.497154,80.2364249 166.53,80.7435076 Z" id="Shape" fill="#231F20"></path>
            <path d="M177.62,84.0135076 L177.12,81.7235076 L176.45,78.8235076 L176.45,78.8235076 L175.2,84.0135076 L173.28,84.0135076 L171.42,77.4635076 L173.2,77.4635076 L173.96,80.3635076 C174.04,80.7035076 174.16,81.4235076 174.31,82.5135076 L174.36,82.5135076 C174.399852,82.0395094 174.469996,81.5685471 174.57,81.1035076 L174.66,80.6035076 L175.47,77.4635076 L177.47,77.4635076 L178.23,80.6035076 C178.28,80.8135076 178.34,81.1335076 178.41,81.5435076 C178.467275,81.8742505 178.504012,82.2082231 178.52,82.5435076 L178.52,82.5435076 C178.52,82.1935076 178.62,81.8035076 178.7,81.3535076 C178.78,80.9035076 178.84,80.5935076 178.9,80.3535076 L179.68,77.4535076 L181.44,77.4535076 L179.57,84.0135076 L177.62,84.0135076 Z" id="Path" fill="#231F20"></path>
            <path d="M185.29,84.1535076 C184.382124,84.2022197 183.492558,83.8852893 182.82,83.2735076 C182.194487,82.6087016 181.872284,81.7144975 181.93,80.8035076 C181.873295,79.8806789 182.166039,78.9703182 182.75,78.2535076 C183.342732,77.6358832 184.175217,77.3072704 185.03,77.3535076 C185.830305,77.3056337 186.613957,77.5958753 187.19,78.1535076 C187.731236,78.7465249 188.012186,79.5317433 187.97,80.3335076 L187.97,81.2035076 L183.74,81.2035076 C183.733406,81.6429327 183.894296,82.0683968 184.19,82.3935076 C184.511976,82.6922285 184.941444,82.8474143 185.38,82.8235076 C185.756981,82.8215393 186.132591,82.7779417 186.5,82.6935076 C186.879208,82.6020354 187.247862,82.4713309 187.6,82.3035076 L187.6,83.6835076 C187.282652,83.8416229 186.946684,83.9592117 186.6,84.0335076 C186.168947,84.1206902 185.729719,84.1609249 185.29,84.1535076 L185.29,84.1535076 Z M185,78.6335076 C184.664804,78.6166479 184.339211,78.7483488 184.11,78.9935076 C183.88199,79.2781817 183.752194,79.6289814 183.74,79.9935076 L186.25,79.9935076 C186.260744,79.6301133 186.14002,79.2750423 185.91,78.9935076 C185.671601,78.7496533 185.340707,78.6187502 185,78.6335076 L185,78.6335076 Z" id="Shape" fill="#231F20"></path>
            <polygon id="Path" fill="#231F20" points="191 84.0135076 189.21 84.0135076 189.21 74.9135076 191 74.9135076"></polygon>
            <path d="M202.91,79.6635076 C202.99201,80.8673541 202.551046,82.0481171 201.7,82.9035076 C200.728985,83.7057358 199.486339,84.1032392 198.23,84.0135076 L195.8,84.0135076 L195.8,75.4635076 L198.49,75.4635076 C199.680273,75.3910125 200.85128,75.7897298 201.75,76.5735076 C202.553547,77.3948371 202.974546,78.5162918 202.91,79.6635076 Z M201.02,79.6635076 C201.02,77.8235076 200.21,76.9035076 198.58,76.9035076 L197.58,76.9035076 L197.58,82.4835076 L198.36,82.4835076 C200.15,82.5335076 201,81.5935076 201,79.7135076 L201.02,79.6635076 Z" id="Shape" fill="#231F20"></path>
            <path d="M204.29,75.7835076 C204.29,75.2035076 204.61,74.9135076 205.29,74.9135076 C205.97,74.9135076 206.29,75.2035076 206.29,75.7835076 C206.305949,76.0244271 206.218687,76.2607613 206.05,76.4335076 C205.846795,76.603946 205.584206,76.6866797 205.32,76.6635076 C204.61,76.6635076 204.29,76.3735076 204.29,75.7835076 Z M206.15,84.0135076 L204.36,84.0135076 L204.36,77.4835076 L206.15,77.4835076 L206.15,84.0135076 Z" id="Shape" fill="#231F20"></path>
            <path d="M212.42,82.0835076 C212.453319,82.6828114 212.187373,83.2596529 211.71,83.6235076 C211.088132,84.0195824 210.355462,84.2053789 209.62,84.1535076 C209.211193,84.1558634 208.802966,84.1224022 208.4,84.0535076 C208.077349,83.9901315 207.762276,83.892928 207.46,83.7635076 L207.46,82.2935076 C207.819804,82.459518 208.194903,82.5901332 208.58,82.6835076 C208.938316,82.7836623 209.308,82.8374345 209.68,82.8435076 C210.33,82.8435076 210.68,82.6535076 210.68,82.2835076 C210.685676,82.1540778 210.638791,82.0278498 210.55,81.9335076 C210.415555,81.8166636 210.267882,81.715977 210.11,81.6335076 C209.9,81.5235076 209.61,81.3935076 209.26,81.2535076 C208.870362,81.0962498 208.498321,80.8984981 208.15,80.6635076 C207.931549,80.5019802 207.756364,80.28901 207.64,80.0435076 C207.523861,79.7721592 207.469221,79.4784687 207.48,79.1835076 C207.456729,78.648319 207.709689,78.1386224 208.15,77.8335076 C208.725312,77.4796365 209.395844,77.3120036 210.07,77.3535076 C210.865354,77.357564 211.650256,77.5350201 212.37,77.8735076 L211.84,79.1635076 C211.51,79.0235076 211.2,78.9035076 210.92,78.8135076 C210.634993,78.7256392 210.33824,78.6818008 210.04,78.6835076 C209.52,78.6835076 209.25,78.8235076 209.25,79.1135076 C209.258113,79.2865211 209.356962,79.4423981 209.51,79.5235076 C209.86336,79.730344 210.23491,79.9044034 210.62,80.0435076 C211.017948,80.1922215 211.39718,80.3868716 211.75,80.6235076 C211.973989,80.788653 212.155625,81.0045596 212.28,81.2535076 C212.387484,81.5164134 212.435299,81.7998914 212.42,82.0835076 Z" id="Path" fill="#231F20"></path>
            <path d="M216.59,84.1535076 C215.68196,84.2033515 214.79197,83.88627 214.12,83.2735076 C213.494487,82.6087016 213.172284,81.7144975 213.23,80.8035076 C213.16928,79.8801794 213.462485,78.9683841 214.05,78.2535076 C214.642732,77.6358832 215.475217,77.3072704 216.33,77.3535076 C217.130305,77.3056337 217.913957,77.5958753 218.49,78.1535076 C219.031236,78.7465249 219.312186,79.5317433 219.27,80.3335076 L219.27,81.2035076 L215,81.2035076 C214.993406,81.6429327 215.154296,82.0683968 215.45,82.3935076 C215.771976,82.6922285 216.201444,82.8474143 216.64,82.8235076 C217.013695,82.8217911 217.386021,82.7781854 217.75,82.6935076 C218.132945,82.6037923 218.505097,82.4730362 218.86,82.3035076 L218.86,83.6835076 C218.542329,83.8408561 218.206459,83.9584107 217.86,84.0335076 C217.442213,84.1190573 217.016417,84.15929 216.59,84.1535076 L216.59,84.1535076 Z M216.34,78.6335076 C216.004804,78.6166479 215.679211,78.7483488 215.45,78.9935076 C215.22199,79.2781817 215.092194,79.6289814 215.08,79.9935076 L217.59,79.9935076 C217.602661,79.6281087 217.477763,79.2712584 217.24,78.9935076 C217.006918,78.7479071 216.678163,78.616405 216.34,78.6335076 L216.34,78.6335076 Z" id="Shape" fill="#231F20"></path>
            <path d="M224.7,84.0135076 L224.35,83.1235076 L224.35,83.1235076 C224.105675,83.4556002 223.787233,83.7261043 223.42,83.9135076 C223.022576,84.0708935 222.597278,84.145746 222.17,84.1335076 C221.623564,84.1635759 221.088675,83.9684139 220.69,83.5935076 C220.307731,83.1751681 220.1127,82.6189685 220.15,82.0535076 C220.107799,81.4502529 220.38004,80.8679595 220.87,80.5135076 C221.523528,80.1620392 222.258343,79.9895476 223,80.0135076 L224.13,80.0135076 L224.13,79.7235076 C224.166712,79.4486658 224.073229,79.1724161 223.87716,78.9763475 C223.681092,78.7802789 223.404842,78.6867957 223.13,78.7235076 C222.491075,78.7533398 221.864963,78.9132707 221.29,79.1935076 L220.69,77.9835076 C221.466751,77.5870485 222.327966,77.3846115 223.2,77.3935076 C223.913972,77.3470785 224.621642,77.5523026 225.2,77.9735076 C225.69615,78.4102769 225.958947,79.0543137 225.91,79.7135076 L225.91,84.0135076 L224.7,84.0135076 Z M224.17,81.0135076 L223.48,81.0135076 C223.074765,80.9966009 222.672902,81.0936023 222.32,81.2935076 C222.065054,81.4686557 221.920782,81.7647929 221.94,82.0735076 C221.94,82.5835076 222.23,82.8335076 222.81,82.8335076 C223.178196,82.8529623 223.538691,82.7231841 223.81,82.4735076 C224.077667,82.2129246 224.213593,81.845557 224.18,81.4735076 L224.17,81.0135076 Z" id="Shape" fill="#231F20"></path>
            <path d="M232.18,82.0835076 C232.212165,82.6803537 231.950828,83.2552946 231.48,83.6235076 C230.853919,84.0184055 230.118493,84.204013 229.38,84.1535076 C228.971205,84.1555584 228.563005,84.1220993 228.16,84.0535076 C227.837349,83.9901315 227.522276,83.892928 227.22,83.7635076 L227.22,82.2935076 C227.580415,82.4579998 227.955368,82.5885638 228.34,82.6835076 C228.698316,82.7836623 229.068,82.8374345 229.44,82.8435076 C230.09,82.8435076 230.44,82.6535076 230.44,82.2835076 C230.445223,82.1559329 230.402402,82.0310397 230.32,81.9335076 C230.179849,81.8194691 230.029171,81.7190169 229.87,81.6335076 C229.596519,81.4928971 229.316168,81.3660716 229.03,81.2535076 C228.638139,81.1010592 228.265578,80.9030311 227.92,80.6635076 C227.69874,80.5022956 227.520229,80.2894552 227.4,80.0435076 C227.283861,79.7721592 227.229221,79.4784687 227.24,79.1835076 C227.215036,78.6455662 227.472885,78.1336609 227.92,77.8335076 C228.492214,77.4810345 229.159135,77.3134313 229.83,77.3535076 C230.628441,77.3586575 231.41637,77.5360269 232.14,77.8735076 L231.6,79.1635076 C231.27,79.0235076 230.96,78.9035076 230.68,78.8135076 C230.398263,78.7263396 230.104912,78.6825056 229.81,78.6835076 C229.28,78.6835076 229.01,78.8235076 229.01,79.1135076 C229.018113,79.2865211 229.116962,79.4423981 229.27,79.5235076 C229.626097,79.7317767 230.001102,79.9058859 230.39,80.0435076 C230.784973,80.1918318 231.160938,80.386528 231.51,80.6235076 C231.733989,80.788653 231.915625,81.0045596 232.04,81.2535076 C232.147484,81.5164134 232.195299,81.7998914 232.18,82.0835076 Z" id="Path" fill="#231F20"></path>
            <path d="M236.36,84.1535076 C235.448889,84.2038071 234.555628,83.8868435 233.88,83.2735076 C233.254487,82.6087016 232.932284,81.7144975 232.99,80.8035076 C232.932067,79.8788543 233.228897,78.9669062 233.82,78.2535076 C234.408879,77.6363325 235.238196,77.3075286 236.09,77.3535076 C236.890305,77.3056337 237.673957,77.5958753 238.25,78.1535076 C238.791236,78.7465249 239.072186,79.5317433 239.03,80.3335076 L239.03,81.2035076 L234.8,81.2035076 C234.793406,81.6429327 234.954296,82.0683968 235.25,82.3935076 C235.573178,82.6902507 236.001784,82.845125 236.44,82.8235076 C236.817016,82.8221181 237.19269,82.7785131 237.56,82.6935076 C237.939679,82.6036292 238.3085,82.4728657 238.66,82.3035076 L238.66,83.6835076 C238.342652,83.8416229 238.006684,83.9592117 237.66,84.0335076 C237.232252,84.1202044 236.79639,84.1604378 236.36,84.1535076 L236.36,84.1535076 Z M236.1,78.6335076 C235.765036,78.6180136 235.439994,78.7494915 235.21,78.9935076 C234.985649,79.2802383 234.85631,79.6298019 234.84,79.9935076 L237.35,79.9935076 C237.360744,79.6301133 237.24002,79.2750423 237.01,78.9935076 C236.771601,78.7496533 236.440707,78.6187502 236.1,78.6335076 L236.1,78.6335076 Z" id="Shape" fill="#231F20"></path>
        </g>
    </g>
</svg>