<?xml version="1.0" encoding="UTF-8"?>
<svg width="214px" height="88px" viewBox="0 0 214 88" version="1.1" xmlns="http://www.w3.org/2000/svg" xmlns:xlink="http://www.w3.org/1999/xlink">
    <!-- Generator: Sketch 42 (36781) - http://www.bohemiancoding.com/sketch -->
    <title>logo 2</title>
    <desc>Created with Sketch.</desc>
    <defs>
        <polygon id="path-1" points="0 0 27.34375 0 27.34375 66.71875 0 66.71875"></polygon>
        <polygon id="path-3" points="0 0 58.25 0 58.25 85.125 0 85.125"></polygon>
    </defs>
    <g id="Page-1" stroke="none" stroke-width="1" fill="none" fill-rule="evenodd">
        <g id="logo" transform="translate(1.000000, 0.000000)">
            <g id="g10" transform="translate(41.875000, 43.987500) scale(-1, 1) rotate(-180.000000) translate(-41.875000, -43.987500) translate(0.000000, 0.862500)">
                <g id="g12">
                    <path d="M73.53075,49.7085 L75.288625,49.879375 C75.395,49.289125 75.609875,48.856 75.933125,48.579625 C76.255375,48.30275 76.692375,48.1645 77.24175,48.1645 C77.82425,48.1645 78.26225,48.287625 78.557625,48.53375 C78.852,48.77975 78.9995,49.067875 78.9995,49.3975 C78.9995,49.608875 78.9375,49.789125 78.814,49.9375 C78.6895,50.086 78.472125,50.215375 78.163625,50.32525 C77.952125,50.3985 77.47025,50.528375 76.71675,50.715875 C75.749,50.955625 75.068875,51.251 74.67825,51.600625 C74.128875,52.09325 73.8545,52.693375 73.8545,53.401375 C73.8545,53.856875 73.983875,54.28325 74.242625,54.67975 C74.5,55.076625 74.8725,55.378875 75.359375,55.586375 C75.84525,55.794 76.431125,55.8975 77.119625,55.8975 C78.242625,55.8975 79.087375,55.651375 79.65625,55.159125 C80.222625,54.6665 80.522,54.00975 80.54975,53.1875 L78.743125,53.108375 C78.6665,53.567875 78.5005,53.8985 78.245125,54.100125 C77.99125,54.30125 77.610375,54.402375 77.101625,54.402375 C76.576625,54.402375 76.165,54.294 75.868625,54.078625 C75.67825,53.94 75.5815,53.755375 75.5815,53.5235 C75.5815,53.3115 75.671875,53.130875 75.850125,52.98 C76.078625,52.789125 76.631375,52.589375 77.51025,52.381875 C78.389125,52.174375 79.038625,51.9595 79.461,51.73775 C79.880875,51.516625 80.2105,51.212875 80.44975,50.828625 C80.6865,50.443875 80.806125,49.96925 80.806125,49.403375 C80.806125,48.890625 80.663625,48.410125 80.378875,47.962875 C80.09475,47.515625 79.691875,47.183125 79.170375,46.964875 C78.649375,46.747125 78.001,46.638625 77.223625,46.638625 C76.09325,46.638625 75.224125,46.899875 74.61725,47.422875 C74.01175,47.94575 73.649375,48.7075 73.53075,49.7085" id="path14" fill="#0F2B53" fill-rule="nonzero"></path>
                    <path d="M79.369625,34.48775 L81.121125,33.932125 C80.8525,32.955625 80.40575,32.2305 79.78075,31.756875 C79.15725,31.28225 78.36475,31.045375 77.40425,31.045375 C76.21625,31.045375 75.23875,31.451625 74.474625,32.263625 C73.709,33.07525 73.327125,34.185 73.327125,35.59225 C73.327125,37.0815 73.711375,38.23875 74.4805,39.063 C75.2495,39.88675 76.26025,40.298375 77.514125,40.298375 C78.608875,40.298375 79.4975,39.974625 80.181125,39.327625 C80.587875,38.94575 80.893125,38.3965 81.096625,37.67975 L79.308625,37.2525 C79.202125,37.71625 78.982375,38.0825 78.6455,38.351125 C78.311,38.619625 77.902375,38.753875 77.422375,38.753875 C76.75975,38.753875 76.22125,38.516125 75.808625,38.04 C75.395,37.564 75.1885,36.7935 75.1885,35.726625 C75.1885,34.59625 75.391125,33.7905 75.798875,33.309625 C76.2065,32.830125 76.735375,32.589375 77.38575,32.589375 C77.86575,32.589375 78.27925,32.74225 78.625,33.047375 C78.97025,33.3525 79.21925,33.8335 79.369625,34.48775" id="path16" fill="#0F2B53" fill-rule="nonzero"></path>
                    <path d="M79.045875,17.752875 C79.277875,18.026375 79.452625,18.356 79.567375,18.74175 C79.684625,19.128875 79.74175,19.57175 79.74175,20.07225 C79.74175,21.1065 79.513625,21.877875 79.058125,22.389125 C78.603,22.899375 78.005875,23.15475 77.27,23.15475 C76.53375,23.15475 75.937,22.8985 75.478,22.38575 C75.02,21.873 74.792,21.1025 74.792,20.07225 C74.792,19.027375 75.02,18.245125 75.478,17.726125 C75.937,17.2075 76.515625,16.94725 77.214875,16.94725 C77.475125,16.94725 77.721625,16.99025 77.953625,17.075625 C77.587375,17.315875 77.214875,17.502875 76.836375,17.63725 L77.34325,18.6685 C77.9375,18.465875 78.505375,18.160625 79.045875,17.752875 L79.045875,17.752875 Z M80.4985,16.733375 C80.941875,16.416 81.423875,16.165 81.945375,15.977 L81.27975,14.701125 C81.007875,14.78325 80.74025,14.895 80.4805,15.037125 C80.422875,15.066375 80.0225,15.330125 79.277875,15.830625 C78.691875,15.57425 78.0425,15.44575 77.331,15.44575 C75.9565,15.44575 74.878375,15.851125 74.098625,16.660625 C73.319875,17.47125 72.930125,18.607375 72.930125,20.07225 C72.930125,21.53375 73.32075,22.669875 74.102,23.481875 C74.88325,24.2935 75.944375,24.69875 77.28225,24.69875 C78.608875,24.69875 79.660125,24.2935 80.4375,23.481875 C81.215375,22.669875 81.6035,21.53375 81.6035,20.07225 C81.6035,19.29975 81.496125,18.619625 81.27975,18.03375 C81.117625,17.586875 80.8565,17.15375 80.4985,16.733375 L80.4985,16.733375 Z" id="path18" fill="#0F2B53" fill-rule="nonzero"></path>
                    <polyline id="path20" fill="#0F2B53" fill-rule="nonzero" points="72.92675 0.00048828125 72.92675 8.9482375 75.630375 8.9482375 77.253875 2.844725 78.859375 8.9482375 81.569375 8.9482375 81.569375 0.00048828125 79.890625 0.00048828125 79.890625 7.04395 78.11475 0.00048828125 76.375 0.00048828125 74.605 7.04395 74.605 0.00048828125 72.92675 0.00048828125"></polyline>
                    <g id="g22">
                        <g id="g24-Clipped">
                            <mask id="mask-2" fill="white">
                                <use xlink:href="#path-1"></use>
                            </mask>
                            <g id="path28"></g>
                            <g id="g24" mask="url(#mask-2)" stroke-width="3.125" stroke="#0F2B53">
                                <g transform="translate(1.750000, 0.000000)" id="path30">
                                    <polyline points="0.0078125 67.96875 19.61725 46.015625 19.61725 0"></polyline>
                                </g>
                            </g>
                        </g>
                    </g>
                    <g id="g32" transform="translate(25.250000, 0.000000)">
                        <g id="g34-Clipped">
                            <mask id="mask-4" fill="white">
                                <use xlink:href="#path-3"></use>
                            </mask>
                            <g id="path38"></g>
                            <g id="g34" mask="url(#mask-4)" stroke-width="3.125" stroke="#0F2B53">
                                <g transform="translate(5.750000, 0.000000)">
                                    <polyline id="path40" points="22.125 86.171875 0.015625 59.432625 0.015625 0"></polyline>
                                    <polyline id="path42" points="31.86425 86.171875 9.754875 59.432625 9.754875 0"></polyline>
                                    <polyline id="path44" points="41.604 86.171875 19.494625 59.432625 19.494625 0"></polyline>
                                    <polyline id="path46" points="51.34375 86.171875 29.234375 59.432625 29.234375 0"></polyline>
                                </g>
                            </g>
                        </g>
                    </g>
                </g>
            </g>
        </g>
        <path d="M97.5195312,51.7802734 L98.5449219,51.6708984 C98.5996096,52.2223335 98.7237946,52.6518539 98.9174805,52.9594727 C99.1111663,53.2670914 99.388019,53.514322 99.7480469,53.7011719 C100.108075,53.8880218 100.51367,53.9814453 100.964844,53.9814453 C101.611982,53.9814453 102.114419,53.823081 102.472168,53.5063477 C102.829917,53.1896143 103.008789,52.7783228 103.008789,52.2724609 C103.008789,51.9762355 102.943848,51.7176118 102.813965,51.496582 C102.684081,51.2755523 102.48812,51.0944017 102.226074,50.953125 C101.964029,50.8118483 101.397791,50.613608 100.527344,50.3583984 C99.7526003,50.1305327 99.2011735,49.9003918 98.8730469,49.6679688 C98.5449202,49.4355457 98.2897145,49.140464 98.1074219,48.7827148 C97.9251293,48.4249657 97.8339844,48.0205101 97.8339844,47.5693359 C97.8339844,46.758134 98.096026,46.0950547 98.6201172,45.5800781 C99.1442083,45.0651016 99.8505815,44.8076172 100.739258,44.8076172 C101.349938,44.8076172 101.884275,44.9283842 102.342285,45.1699219 C102.800295,45.4114595 103.15576,45.7578102 103.408691,46.2089844 C103.661622,46.6601585 103.7972,47.1910777 103.81543,47.8017578 L102.769531,47.8974609 C102.714843,47.245765 102.520021,46.7626969 102.185059,46.4482422 C101.850096,46.1337875 101.37956,45.9765625 100.773438,45.9765625 C100.1582,45.9765625 99.6888037,46.1144192 99.3652344,46.3901367 C99.041665,46.6658542 98.8798828,47.0224587 98.8798828,47.4599609 C98.8798828,47.8655619 98.9983712,48.1800119 99.2353516,48.4033203 C99.4723319,48.6266287 100.00553,48.8522124 100.834961,49.0800781 C101.646163,49.3033865 102.215819,49.4970695 102.543945,49.6611328 C103.04525,49.9163424 103.423501,50.2524393 103.678711,50.6694336 C103.933921,51.0864279 104.061523,51.584307 104.061523,52.1630859 C104.061523,52.7373076 103.927085,53.2602515 103.658203,53.7319336 C103.389322,54.2036156 103.023603,54.5624988 102.561035,54.8085938 C102.098468,55.0546887 101.541344,55.1777344 100.889648,55.1777344 C99.8733673,55.1777344 99.0633168,54.8723989 98.4594727,54.2617188 C97.8556285,53.6510386 97.5423178,52.8238984 97.5195312,51.7802734 Z M106.488281,55 L104.669922,47.7402344 L105.71582,47.7402344 L106.65918,51.9306641 L107.007812,53.4892578 L107.322266,51.9921875 L108.265625,47.7402344 L109.304688,47.7402344 L110.193359,51.9511719 L110.494141,53.3388672 L110.835938,51.9375 L111.854492,47.7402344 L112.838867,47.7402344 L110.972656,55 L109.926758,55 L108.976562,50.6523438 L108.750977,49.4150391 L107.547852,55 L106.488281,55 Z M113.679688,46.3935547 L113.679688,44.9785156 L114.68457,44.9785156 L114.68457,46.3935547 L113.679688,46.3935547 Z M113.679688,55 L113.679688,47.7402344 L114.68457,47.7402344 L114.68457,55 L113.679688,55 Z M115.84668,52.8330078 L116.844727,52.6416016 C116.903972,53.1520208 117.065754,53.5314115 117.330078,53.7797852 C117.594402,54.0281588 117.94531,54.1523438 118.382812,54.1523438 C118.820315,54.1523438 119.15869,54.0441092 119.397949,53.8276367 C119.637208,53.6111643 119.756836,53.3365902 119.756836,53.0039062 C119.756836,52.7167954 119.654298,52.4934904 119.449219,52.3339844 C119.307942,52.2246088 118.966149,52.0878914 118.423828,51.9238281 C117.63997,51.6822905 117.115887,51.4772144 116.851562,51.3085938 C116.587238,51.1399731 116.382162,50.9143894 116.236328,50.6318359 C116.090494,50.3492824 116.017578,50.0279966 116.017578,49.6679688 C116.017578,49.048174 116.215818,48.5445983 116.612305,48.1572266 C117.008791,47.7698548 117.557939,47.5761719 118.259766,47.5761719 C118.701825,47.5761719 119.09033,47.6559237 119.425293,47.8154297 C119.760256,47.9749357 120.016601,48.1891263 120.194336,48.4580078 C120.372071,48.7268894 120.495117,49.1119767 120.563477,49.6132812 L119.579102,49.7773438 C119.487955,48.984371 119.057296,48.5878906 118.287109,48.5878906 C117.849607,48.5878906 117.523764,48.6756176 117.30957,48.8510742 C117.095377,49.0265308 116.988281,49.2509752 116.988281,49.5244141 C116.988281,49.7932956 117.090819,50.0052076 117.295898,50.1601562 C117.418946,50.2513025 117.783526,50.3971344 118.389648,50.5976562 C119.223637,50.8665378 119.763671,51.0795891 120.009766,51.2368164 C120.255861,51.3940438 120.447265,51.6082343 120.583984,51.8793945 C120.720704,52.1505547 120.789062,52.4729799 120.789062,52.8466797 C120.789062,53.5393915 120.569175,54.0999328 120.129395,54.5283203 C119.689614,54.9567079 119.089197,55.1708984 118.328125,55.1708984 C116.901686,55.1708984 116.074545,54.3916094 115.84668,52.8330078 Z M121.588867,52.8330078 L122.586914,52.6416016 C122.646159,53.1520208 122.807941,53.5314115 123.072266,53.7797852 C123.33659,54.0281588 123.687498,54.1523438 124.125,54.1523438 C124.562502,54.1523438 124.900878,54.0441092 125.140137,53.8276367 C125.379396,53.6111643 125.499023,53.3365902 125.499023,53.0039062 C125.499023,52.7167954 125.396485,52.4934904 125.191406,52.3339844 C125.05013,52.2246088 124.708336,52.0878914 124.166016,51.9238281 C123.382158,51.6822905 122.858074,51.4772144 122.59375,51.3085938 C122.329426,51.1399731 122.12435,50.9143894 121.978516,50.6318359 C121.832682,50.3492824 121.759766,50.0279966 121.759766,49.6679688 C121.759766,49.048174 121.958006,48.5445983 122.354492,48.1572266 C122.750979,47.7698548 123.300127,47.5761719 124.001953,47.5761719 C124.444013,47.5761719 124.832518,47.6559237 125.16748,47.8154297 C125.502443,47.9749357 125.758788,48.1891263 125.936523,48.4580078 C126.114259,48.7268894 126.237304,49.1119767 126.305664,49.6132812 L125.321289,49.7773438 C125.230143,48.984371 124.799483,48.5878906 124.029297,48.5878906 C123.591795,48.5878906 123.265952,48.6756176 123.051758,48.8510742 C122.837564,49.0265308 122.730469,49.2509752 122.730469,49.5244141 C122.730469,49.7932956 122.833007,50.0052076 123.038086,50.1601562 C123.161133,50.2513025 123.525713,50.3971344 124.131836,50.5976562 C124.965824,50.8665378 125.505858,51.0795891 125.751953,51.2368164 C125.998048,51.3940438 126.189452,51.6082343 126.326172,51.8793945 C126.462891,52.1505547 126.53125,52.4729799 126.53125,52.8466797 C126.53125,53.5393915 126.311363,54.0999328 125.871582,54.5283203 C125.431801,54.9567079 124.831384,55.1708984 124.070312,55.1708984 C122.643873,55.1708984 121.816733,54.3916094 121.588867,52.8330078 Z M136.887695,51.4863281 L137.981445,51.8212891 C137.739908,52.9469457 137.317223,53.7866183 136.713379,54.340332 C136.109535,54.8940457 135.374679,55.1708984 134.508789,55.1708984 C133.747718,55.1708984 133.097171,54.9851907 132.557129,54.6137695 C132.017087,54.2423484 131.575034,53.6464885 131.230957,52.8261719 C130.88688,52.0058553 130.714844,51.0374405 130.714844,49.9208984 C130.714844,48.8180283 130.88688,47.8849322 131.230957,47.121582 C131.575034,46.3582319 132.041013,45.7817402 132.628906,45.3920898 C133.2168,45.0024395 133.873043,44.8076172 134.597656,44.8076172 C135.390629,44.8076172 136.071937,45.0548478 136.641602,45.5493164 C137.211266,46.043785 137.610025,46.7695265 137.837891,47.7265625 L136.771484,48.0341797 C136.406899,46.6396415 135.675461,45.9423828 134.577148,45.9423828 C134.030271,45.9423828 133.556317,46.0825181 133.155273,46.362793 C132.75423,46.6430678 132.434083,47.0794241 132.194824,47.671875 C131.955565,48.2643259 131.835938,49.0139929 131.835938,49.9208984 C131.835938,51.2926501 132.077472,52.3214484 132.560547,53.0073242 C133.043622,53.6932 133.686194,54.0361328 134.488281,54.0361328 C135.080732,54.0361328 135.592283,53.8253602 136.022949,53.4038086 C136.453615,52.982257 136.741861,52.3431032 136.887695,51.4863281 Z M139.164062,55 L139.164062,44.9785156 L140.168945,44.9785156 L140.168945,55 L139.164062,55 Z M141.741211,46.3935547 L141.741211,44.9785156 L142.746094,44.9785156 L142.746094,46.3935547 L141.741211,46.3935547 Z M141.741211,55 L141.741211,47.7402344 L142.746094,47.7402344 L142.746094,55 L141.741211,55 Z M144.291016,55 L144.291016,47.7402344 L145.200195,47.7402344 L145.200195,48.7724609 C145.418946,48.3714173 145.686685,48.0717783 146.003418,47.8735352 C146.320151,47.675292 146.683592,47.5761719 147.09375,47.5761719 C147.412762,47.5761719 147.707844,47.638834 147.979004,47.7641602 C148.250164,47.8894863 148.468912,48.0535472 148.635254,48.2563477 C148.801596,48.4591481 148.925781,48.7223291 149.007812,49.0458984 C149.089844,49.3694678 149.130859,49.8662076 149.130859,50.5361328 L149.130859,55 L148.119141,55 L148.119141,50.5839844 C148.119141,50.0507786 148.073568,49.661134 147.982422,49.4150391 C147.891276,49.1689441 147.748862,48.9786791 147.555176,48.8442383 C147.36149,48.7097975 147.137046,48.6425781 146.881836,48.6425781 C146.398761,48.6425781 146.013673,48.8225893 145.726562,49.1826172 C145.439452,49.542645 145.295898,50.1601519 145.295898,51.0351562 L145.295898,55 L144.291016,55 Z M150.675781,46.3935547 L150.675781,44.9785156 L151.680664,44.9785156 L151.680664,46.3935547 L150.675781,46.3935547 Z M150.675781,55 L150.675781,47.7402344 L151.680664,47.7402344 L151.680664,55 L150.675781,55 Z M157.128906,52.3408203 L158.120117,52.4980469 C158.006184,53.3639366 157.720217,54.0247373 157.262207,54.4804688 C156.804197,54.9362002 156.253909,55.1640625 155.611328,55.1640625 C154.832027,55.1640625 154.190595,54.843916 153.687012,54.2036133 C153.183428,53.5633106 152.931641,52.6165427 152.931641,51.3632812 C152.931641,50.1009051 153.185707,49.1541373 153.693848,48.5229492 C154.201988,47.8917612 154.854814,47.5761719 155.652344,47.5761719 C156.267581,47.5761719 156.785968,47.7675762 157.20752,48.1503906 C157.629071,48.533205 157.899088,49.107418 158.017578,49.8730469 L157.040039,50.0576172 C156.944335,49.5654272 156.777996,49.1974296 156.541016,48.9536133 C156.304035,48.709797 156.019207,48.5878906 155.686523,48.5878906 C155.189776,48.5878906 154.778485,48.8077777 154.452637,49.2475586 C154.126789,49.6873394 153.963867,50.3857374 153.963867,51.3427734 C153.963867,52.3317107 154.119953,53.0471983 154.432129,53.4892578 C154.744305,53.9313173 155.144203,54.1523438 155.631836,54.1523438 C156.01465,54.1523438 156.341633,54.0053726 156.612793,53.7114258 C156.883953,53.417479 157.055989,52.9606151 157.128906,52.3408203 Z M162.850586,54.1044922 C162.513345,54.4554054 162.162437,54.7197257 161.797852,54.8974609 C161.433266,55.0751962 161.055015,55.1640625 160.663086,55.1640625 C160.043291,55.1640625 159.54883,54.9772154 159.179688,54.6035156 C158.810545,54.2298158 158.625977,53.7262401 158.625977,53.0927734 C158.625977,52.6735005 158.712564,52.302085 158.885742,51.9785156 C159.05892,51.6549463 159.295897,51.4020191 159.59668,51.2197266 C159.897462,51.037434 160.353187,50.9029952 160.963867,50.8164062 C161.784184,50.6979161 162.38574,50.5566414 162.768555,50.3925781 L162.775391,50.078125 C162.775391,49.5813777 162.686524,49.2327484 162.508789,49.0322266 C162.258137,48.7405584 161.873049,48.5947266 161.353516,48.5947266 C160.884112,48.5947266 160.533204,48.691568 160.300781,48.8852539 C160.068358,49.0789398 159.897461,49.4423801 159.788086,49.9755859 L158.796875,49.8115234 C158.938152,49.0322227 159.224119,48.4648455 159.654785,48.109375 C160.085451,47.7539045 160.701819,47.5761719 161.503906,47.5761719 C162.128258,47.5761719 162.618162,47.693521 162.973633,47.9282227 C163.329103,48.1629244 163.553548,48.4534488 163.646973,48.7998047 C163.740398,49.1461606 163.787109,49.6520149 163.787109,50.3173828 L163.787109,51.9580078 C163.787109,53.1064511 163.808756,53.8299139 163.852051,54.128418 C163.895345,54.4269221 163.980794,54.7174465 164.108398,55 L163.055664,55 C162.950846,54.7493477 162.882487,54.4508481 162.850586,54.1044922 Z M162.768555,51.3564453 C162.399412,51.5387379 161.850264,51.6936843 161.121094,51.8212891 C160.697264,51.8942061 160.401043,51.9773758 160.232422,52.0708008 C160.063801,52.1642257 159.93278,52.2963859 159.839355,52.4672852 C159.745931,52.6381844 159.699219,52.8352853 159.699219,53.0585938 C159.699219,53.4049496 159.806314,53.6818023 160.020508,53.8891602 C160.234702,54.096518 160.530923,54.2001953 160.90918,54.2001953 C161.269208,54.2001953 161.59619,54.1067718 161.890137,53.9199219 C162.184084,53.733072 162.403971,53.4835628 162.549805,53.1713867 C162.695639,52.8592107 162.768555,52.4046254 162.768555,51.8076172 L162.768555,51.3564453 Z M165.325195,55 L165.325195,44.9785156 L166.330078,44.9785156 L166.330078,55 L165.325195,55 Z M104.143555,69.9267578 C104.649417,70.3505881 105.114256,70.6604808 105.538086,70.8564453 L105.216797,71.7792969 C104.615231,71.5149726 104.027347,71.1048205 103.453125,70.5488281 C102.847002,70.9635437 102.177087,71.1708984 101.443359,71.1708984 C100.240228,71.1708984 99.2672563,70.6445365 98.5244141,69.5917969 C97.8544888,68.6438755 97.5195312,67.4453197 97.5195312,65.9960938 C97.5195312,64.9114529 97.6995425,63.9715209 98.0595703,63.1762695 C98.4195982,62.3810182 98.8924124,61.7862975 99.4780273,61.3920898 C100.063642,60.9978821 100.723304,60.8007812 101.457031,60.8007812 C102.181644,60.8007812 102.841306,61.004718 103.436035,61.4125977 C104.030765,61.8204773 104.503579,62.4151979 104.854492,63.1967773 C105.205405,63.9783568 105.380859,64.9023384 105.380859,65.96875 C105.380859,66.8027385 105.272625,67.5569628 105.056152,68.2314453 C104.83968,68.9059279 104.535484,69.4710264 104.143555,69.9267578 Z M101.744141,68.2314453 C102.368493,68.4410818 102.88574,68.760089 103.295898,69.1884766 C103.933922,68.4684209 104.25293,67.3951894 104.25293,65.96875 C104.25293,65.1074176 104.131023,64.3759796 103.887207,63.7744141 C103.643391,63.1728486 103.306154,62.7171239 102.875488,62.4072266 C102.444822,62.0973292 101.974286,61.9423828 101.463867,61.9423828 C100.652665,61.9423828 99.9793321,62.283037 99.4438477,62.9643555 C98.9083632,63.645674 98.640625,64.6562433 98.640625,65.9960938 C98.640625,67.3177149 98.9117811,68.3214484 99.4541016,69.0073242 C99.996422,69.6932 100.666337,70.0361328 101.463867,70.0361328 C101.846682,70.0361328 102.211261,69.9472665 102.557617,69.7695312 C102.220376,69.5006497 101.860353,69.3092454 101.477539,69.1953125 L101.744141,68.2314453 Z M110.576172,71 L110.576172,69.9335938 C110.343749,70.3437521 110.070314,70.6513662 109.755859,70.8564453 C109.441405,71.0615245 109.085939,71.1640625 108.689453,71.1640625 C108.22005,71.1640625 107.819012,71.0375989 107.486328,70.784668 C107.153644,70.531737 106.931478,70.2115905 106.819824,69.8242188 C106.70817,69.436847 106.652344,68.9082065 106.652344,68.2382812 L106.652344,63.7402344 L107.657227,63.7402344 L107.657227,67.7666016 C107.657227,68.5140011 107.694824,69.0141589 107.77002,69.2670898 C107.845215,69.5200208 107.984211,69.7228182 108.187012,69.8754883 C108.389812,70.0281583 108.621092,70.1044922 108.880859,70.1044922 C109.363935,70.1044922 109.760415,69.906252 110.070312,69.5097656 C110.334637,69.167967 110.466797,68.5413457 110.466797,67.6298828 L110.466797,63.7402344 L111.478516,63.7402344 L111.478516,71 L110.576172,71 Z M116.94043,70.1044922 C116.603188,70.4554054 116.25228,70.7197257 115.887695,70.8974609 C115.52311,71.0751962 115.144859,71.1640625 114.75293,71.1640625 C114.133135,71.1640625 113.638674,70.9772154 113.269531,70.6035156 C112.900389,70.2298158 112.71582,69.7262401 112.71582,69.0927734 C112.71582,68.6735005 112.802408,68.302085 112.975586,67.9785156 C113.148764,67.6549463 113.385741,67.4020191 113.686523,67.2197266 C113.987306,67.037434 114.443031,66.9029952 115.053711,66.8164062 C115.874028,66.6979161 116.475584,66.5566414 116.858398,66.3925781 L116.865234,66.078125 C116.865234,65.5813777 116.776368,65.2327484 116.598633,65.0322266 C116.347981,64.7405584 115.962893,64.5947266 115.443359,64.5947266 C114.973956,64.5947266 114.623048,64.691568 114.390625,64.8852539 C114.158202,65.0789398 113.987305,65.4423801 113.87793,65.9755859 L112.886719,65.8115234 C113.027995,65.0322227 113.313963,64.4648455 113.744629,64.109375 C114.175295,63.7539045 114.791663,63.5761719 115.59375,63.5761719 C116.218102,63.5761719 116.708006,63.693521 117.063477,63.9282227 C117.418947,64.1629244 117.643391,64.4534488 117.736816,64.7998047 C117.830241,65.1461606 117.876953,65.6520149 117.876953,66.3173828 L117.876953,67.9580078 C117.876953,69.1064511 117.8986,69.8299139 117.941895,70.128418 C117.985189,70.4269221 118.070637,70.7174465 118.198242,71 L117.145508,71 C117.04069,70.7493477 116.972331,70.4508481 116.94043,70.1044922 Z M116.858398,67.3564453 C116.489256,67.5387379 115.940108,67.6936843 115.210938,67.8212891 C114.787107,67.8942061 114.490886,67.9773758 114.322266,68.0708008 C114.153645,68.1642257 114.022624,68.2963859 113.929199,68.4672852 C113.835774,68.6381844 113.789062,68.8352853 113.789062,69.0585938 C113.789062,69.4049496 113.896158,69.6818023 114.110352,69.8891602 C114.324545,70.096518 114.620766,70.2001953 114.999023,70.2001953 C115.359051,70.2001953 115.686034,70.1067718 115.97998,69.9199219 C116.273927,69.733072 116.493814,69.4835628 116.639648,69.1713867 C116.785483,68.8592107 116.858398,68.4046254 116.858398,67.8076172 L116.858398,67.3564453 Z M119.415039,71 L119.415039,60.9785156 L120.419922,60.9785156 L120.419922,71 L119.415039,71 Z M121.992188,62.3935547 L121.992188,60.9785156 L122.99707,60.9785156 L122.99707,62.3935547 L121.992188,62.3935547 Z M121.992188,71 L121.992188,63.7402344 L122.99707,63.7402344 L122.99707,71 L121.992188,71 Z M126.791016,69.8994141 L126.927734,70.9863281 C126.649738,71.0592452 126.39909,71.0957031 126.175781,71.0957031 C125.824868,71.0957031 125.542319,71.0262051 125.328125,70.887207 C125.113931,70.7482089 124.96696,70.5579439 124.887207,70.3164062 C124.807454,70.0748686 124.767578,69.5940791 124.767578,68.8740234 L124.767578,64.6972656 L124.029297,64.6972656 L124.029297,63.7402344 L124.767578,63.7402344 L124.767578,61.9423828 L125.772461,61.2041016 L125.772461,63.7402344 L126.791016,63.7402344 L126.791016,64.6972656 L125.772461,64.6972656 L125.772461,68.9423828 C125.772461,69.3343119 125.802083,69.587239 125.861328,69.7011719 C125.947917,69.8652352 126.109699,69.9472656 126.34668,69.9472656 C126.460613,69.9472656 126.608723,69.9313153 126.791016,69.8994141 Z M127.707031,73.7958984 L127.597656,72.640625 C127.820965,72.713542 128.012369,72.75 128.171875,72.75 C128.386069,72.75 128.562662,72.7067062 128.70166,72.6201172 C128.840658,72.5335282 128.955729,72.3990895 129.046875,72.2167969 C129.078776,72.1529945 129.210936,71.7519568 129.443359,71.0136719 L127.180664,63.7402344 L128.267578,63.7402344 L129.511719,67.9443359 C129.666667,68.4684271 129.810221,69.0289684 129.942383,69.6259766 C130.056316,69.0608696 130.193033,68.5094428 130.352539,67.9716797 L131.624023,63.7402344 L132.635742,63.7402344 L130.373047,71.1230469 C130.076821,72.0800829 129.843263,72.7192367 129.672363,73.0405273 C129.501464,73.361818 129.307781,73.5930983 129.091309,73.734375 C128.874836,73.8756517 128.629884,73.9462891 128.356445,73.9462891 C128.165038,73.9462891 127.948569,73.8961594 127.707031,73.7958984 Z M136.785156,71 L136.785156,60.9785156 L138.418945,60.9785156 L140.367188,68.0742188 L140.756836,69.5576172 C140.85254,69.1884747 140.998371,68.6529983 141.194336,67.9511719 L143.163086,60.9785156 L144.625977,60.9785156 L144.625977,71 L143.580078,71 L143.580078,62.6123047 L141.1875,71 L140.209961,71 L137.831055,62.46875 L137.831055,71 L136.785156,71 Z M150.115234,70.1044922 C149.777993,70.4554054 149.427085,70.7197257 149.0625,70.8974609 C148.697915,71.0751962 148.319663,71.1640625 147.927734,71.1640625 C147.30794,71.1640625 146.813478,70.9772154 146.444336,70.6035156 C146.075193,70.2298158 145.890625,69.7262401 145.890625,69.0927734 C145.890625,68.6735005 145.977213,68.302085 146.150391,67.9785156 C146.323569,67.6549463 146.560545,67.4020191 146.861328,67.2197266 C147.162111,67.037434 147.617835,66.9029952 148.228516,66.8164062 C149.048832,66.6979161 149.650389,66.5566414 150.033203,66.3925781 L150.040039,66.078125 C150.040039,65.5813777 149.951173,65.2327484 149.773438,65.0322266 C149.522785,64.7405584 149.137698,64.5947266 148.618164,64.5947266 C148.148761,64.5947266 147.797853,64.691568 147.56543,64.8852539 C147.333007,65.0789398 147.16211,65.4423801 147.052734,65.9755859 L146.061523,65.8115234 C146.2028,65.0322227 146.488767,64.4648455 146.919434,64.109375 C147.3501,63.7539045 147.966467,63.5761719 148.768555,63.5761719 C149.392907,63.5761719 149.882811,63.693521 150.238281,63.9282227 C150.593752,64.1629244 150.818196,64.4534488 150.911621,64.7998047 C151.005046,65.1461606 151.051758,65.6520149 151.051758,66.3173828 L151.051758,67.9580078 C151.051758,69.1064511 151.073405,69.8299139 151.116699,70.128418 C151.159994,70.4269221 151.245442,70.7174465 151.373047,71 L150.320312,71 C150.215494,70.7493477 150.147136,70.4508481 150.115234,70.1044922 Z M150.033203,67.3564453 C149.664061,67.5387379 149.114913,67.6936843 148.385742,67.8212891 C147.961912,67.8942061 147.665691,67.9773758 147.49707,68.0708008 C147.32845,68.1642257 147.197429,68.2963859 147.104004,68.4672852 C147.010579,68.6381844 146.963867,68.8352853 146.963867,69.0585938 C146.963867,69.4049496 147.070962,69.6818023 147.285156,69.8891602 C147.49935,70.096518 147.795571,70.2001953 148.173828,70.2001953 C148.533856,70.2001953 148.860838,70.1067718 149.154785,69.9199219 C149.448732,69.733072 149.668619,69.4835628 149.814453,69.1713867 C149.960287,68.8592107 150.033203,68.4046254 150.033203,67.8076172 L150.033203,67.3564453 Z M152.617188,71 L152.617188,63.7402344 L153.526367,63.7402344 L153.526367,64.7724609 C153.745118,64.3714173 154.012856,64.0717783 154.32959,63.8735352 C154.646323,63.675292 155.009764,63.5761719 155.419922,63.5761719 C155.738934,63.5761719 156.034016,63.638834 156.305176,63.7641602 C156.576336,63.8894863 156.795084,64.0535472 156.961426,64.2563477 C157.127768,64.4591481 157.251953,64.7223291 157.333984,65.0458984 C157.416016,65.3694678 157.457031,65.8662076 157.457031,66.5361328 L157.457031,71 L156.445312,71 L156.445312,66.5839844 C156.445312,66.0507786 156.39974,65.661134 156.308594,65.4150391 C156.217447,65.1689441 156.075034,64.9786791 155.881348,64.8442383 C155.687662,64.7097975 155.463217,64.6425781 155.208008,64.6425781 C154.724932,64.6425781 154.339845,64.8225893 154.052734,65.1826172 C153.765624,65.542645 153.62207,66.1601519 153.62207,67.0351562 L153.62207,71 L152.617188,71 Z M162.884766,70.1044922 C162.547524,70.4554054 162.196616,70.7197257 161.832031,70.8974609 C161.467446,71.0751962 161.089195,71.1640625 160.697266,71.1640625 C160.077471,71.1640625 159.58301,70.9772154 159.213867,70.6035156 C158.844725,70.2298158 158.660156,69.7262401 158.660156,69.0927734 C158.660156,68.6735005 158.746744,68.302085 158.919922,67.9785156 C159.0931,67.6549463 159.330077,67.4020191 159.630859,67.2197266 C159.931642,67.037434 160.387367,66.9029952 160.998047,66.8164062 C161.818363,66.6979161 162.41992,66.5566414 162.802734,66.3925781 L162.80957,66.078125 C162.80957,65.5813777 162.720704,65.2327484 162.542969,65.0322266 C162.292316,64.7405584 161.907229,64.5947266 161.387695,64.5947266 C160.918292,64.5947266 160.567384,64.691568 160.334961,64.8852539 C160.102538,65.0789398 159.931641,65.4423801 159.822266,65.9755859 L158.831055,65.8115234 C158.972331,65.0322227 159.258299,64.4648455 159.688965,64.109375 C160.119631,63.7539045 160.735999,63.5761719 161.538086,63.5761719 C162.162438,63.5761719 162.652342,63.693521 163.007812,63.9282227 C163.363283,64.1629244 163.587727,64.4534488 163.681152,64.7998047 C163.774577,65.1461606 163.821289,65.6520149 163.821289,66.3173828 L163.821289,67.9580078 C163.821289,69.1064511 163.842936,69.8299139 163.88623,70.128418 C163.929525,70.4269221 164.014973,70.7174465 164.142578,71 L163.089844,71 C162.985026,70.7493477 162.916667,70.4508481 162.884766,70.1044922 Z M162.802734,67.3564453 C162.433592,67.5387379 161.884444,67.6936843 161.155273,67.8212891 C160.731443,67.8942061 160.435222,67.9773758 160.266602,68.0708008 C160.097981,68.1642257 159.96696,68.2963859 159.873535,68.4672852 C159.78011,68.6381844 159.733398,68.8352853 159.733398,69.0585938 C159.733398,69.4049496 159.840494,69.6818023 160.054688,69.8891602 C160.268881,70.096518 160.565102,70.2001953 160.943359,70.2001953 C161.303387,70.2001953 161.63037,70.1067718 161.924316,69.9199219 C162.218263,69.733072 162.43815,69.4835628 162.583984,69.1713867 C162.729818,68.8592107 162.802734,68.4046254 162.802734,67.8076172 L162.802734,67.3564453 Z M165.195312,71.6015625 L166.179688,71.7792969 C166.225261,72.1666686 166.361978,72.4549144 166.589844,72.644043 C166.817709,72.8331715 167.134438,72.9277344 167.540039,72.9277344 C167.982099,72.9277344 168.334146,72.8217784 168.596191,72.6098633 C168.858237,72.3979482 169.037109,72.0823589 169.132812,71.6630859 C169.192058,71.4078763 169.22168,70.8701213 169.22168,70.0498047 C169.002929,70.3642594 168.756837,70.6012362 168.483398,70.7607422 C168.20996,70.9202482 167.906903,71 167.574219,71 C166.863278,71 166.273114,70.6992218 165.803711,70.0976562 C165.265948,69.4049445 164.99707,68.4775449 164.99707,67.3154297 C164.99707,66.5361289 165.115559,65.8548206 165.352539,65.2714844 C165.589519,64.6881481 165.900551,64.259767 166.285645,63.9863281 C166.670738,63.7128893 167.102537,63.5761719 167.581055,63.5761719 C167.931968,63.5761719 168.252114,63.6627596 168.541504,63.8359375 C168.830893,64.0091154 169.087238,64.2688785 169.310547,64.6152344 L169.310547,63.7402344 L170.240234,63.7402344 L170.240234,70.015625 C170.240234,71.132167 170.149089,71.9285458 169.966797,72.4047852 C169.784504,72.8810245 169.486005,73.2569973 169.071289,73.5327148 C168.656573,73.8084324 168.157555,73.9462891 167.574219,73.9462891 C166.804033,73.9462891 166.211591,73.7389344 165.796875,73.3242188 C165.382159,72.9095031 165.181641,72.3352901 165.195312,71.6015625 Z M166.036133,67.2402344 C166.036133,68.1927131 166.193358,68.8876931 166.507812,69.3251953 C166.822267,69.7626975 167.207354,69.9814453 167.663086,69.9814453 C168.118817,69.9814453 168.506183,69.7672547 168.825195,69.3388672 C169.144207,68.9104796 169.303711,68.2291713 169.303711,67.2949219 C169.303711,66.383459 169.13965,65.7055686 168.811523,65.2612305 C168.483397,64.8168923 168.084638,64.5947266 167.615234,64.5947266 C167.195961,64.5947266 166.827964,64.8168923 166.51123,65.2612305 C166.194497,65.7055686 166.036133,66.36523 166.036133,67.2402344 Z M175.845703,68.6621094 L176.884766,68.8193359 C176.711588,69.5940794 176.398277,70.1785462 175.944824,70.5727539 C175.491371,70.9669616 174.929691,71.1640625 174.259766,71.1640625 C173.416662,71.1640625 172.734215,70.843916 172.212402,70.2036133 C171.69059,69.5633106 171.429688,68.639329 171.429688,67.4316406 C171.429688,66.1783792 171.692868,65.2224968 172.219238,64.5639648 C172.745608,63.9054329 173.412105,63.5761719 174.21875,63.5761719 C174.988936,63.5761719 175.631508,63.8997363 176.146484,64.546875 C176.661461,65.1940137 176.918945,66.1305277 176.918945,67.3564453 L176.912109,67.6845703 L172.46875,67.6845703 C172.509766,68.5003296 172.698892,69.1155578 173.036133,69.5302734 C173.373374,69.9449891 173.783526,70.1523438 174.266602,70.1523438 C175.023116,70.1523438 175.549478,69.6556039 175.845703,68.6621094 Z M172.530273,66.6728516 L175.852539,66.6728516 C175.806966,66.0439422 175.672527,65.5745458 175.449219,65.2646484 C175.125649,64.8134743 174.713219,64.5878906 174.211914,64.5878906 C173.76074,64.5878906 173.375653,64.775877 173.056641,65.1518555 C172.737629,65.5278339 172.562175,66.0348275 172.530273,66.6728516 Z M178.169922,71 L178.169922,63.7402344 L179.072266,63.7402344 L179.072266,64.7587891 C179.272787,64.380532 179.530272,64.0888682 179.844727,63.8837891 C180.159181,63.6787099 180.503253,63.5761719 180.876953,63.5761719 C181.296226,63.5761719 181.650552,63.6844065 181.939941,63.9008789 C182.229331,64.1173513 182.435546,64.4329406 182.558594,64.8476562 C182.795574,64.423826 183.06787,64.1059581 183.375488,63.894043 C183.683107,63.6821278 184.023761,63.5761719 184.397461,63.5761719 C184.967125,63.5761719 185.416014,63.7698548 185.744141,64.1572266 C186.072267,64.5445983 186.236328,65.1643838 186.236328,66.0166016 L186.236328,71 L185.231445,71 L185.231445,66.4267578 C185.231445,65.907224 185.193848,65.5392263 185.118652,65.3227539 C185.043457,65.1062815 184.92155,64.9388027 184.75293,64.8203125 C184.584309,64.7018223 184.395183,64.6425781 184.185547,64.6425781 C183.752602,64.6425781 183.399415,64.8146142 183.125977,65.1586914 C182.852538,65.5027686 182.71582,66.0439416 182.71582,66.7822266 L182.71582,71 L181.704102,71 L181.704102,66.2832031 C181.704102,65.6816376 181.611817,65.2578137 181.427246,65.0117188 C181.242675,64.7656238 180.988608,64.6425781 180.665039,64.6425781 C180.20475,64.6425781 179.84131,64.8282859 179.574707,65.199707 C179.308104,65.5711282 179.174805,66.2490185 179.174805,67.2333984 L179.174805,71 L178.169922,71 Z M191.793945,68.6621094 L192.833008,68.8193359 C192.65983,69.5940794 192.346519,70.1785462 191.893066,70.5727539 C191.439614,70.9669616 190.877933,71.1640625 190.208008,71.1640625 C189.364905,71.1640625 188.682457,70.843916 188.160645,70.2036133 C187.638832,69.5633106 187.37793,68.639329 187.37793,67.4316406 C187.37793,66.1783792 187.641111,65.2224968 188.16748,64.5639648 C188.69385,63.9054329 189.360348,63.5761719 190.166992,63.5761719 C190.937178,63.5761719 191.57975,63.8997363 192.094727,64.546875 C192.609703,65.1940137 192.867188,66.1305277 192.867188,67.3564453 L192.860352,67.6845703 L188.416992,67.6845703 C188.458008,68.5003296 188.647134,69.1155578 188.984375,69.5302734 C189.321616,69.9449891 189.731768,70.1523438 190.214844,70.1523438 C190.971358,70.1523438 191.49772,69.6556039 191.793945,68.6621094 Z M188.478516,66.6728516 L191.800781,66.6728516 C191.755208,66.0439422 191.620769,65.5745458 191.397461,65.2646484 C191.073892,64.8134743 190.661461,64.5878906 190.160156,64.5878906 C189.708982,64.5878906 189.323895,64.775877 189.004883,65.1518555 C188.685871,65.5278339 188.510417,66.0348275 188.478516,66.6728516 Z M194.104492,71 L194.104492,63.7402344 L195.013672,63.7402344 L195.013672,64.7724609 C195.232423,64.3714173 195.500161,64.0717783 195.816895,63.8735352 C196.133628,63.675292 196.497068,63.5761719 196.907227,63.5761719 C197.226239,63.5761719 197.52132,63.638834 197.79248,63.7641602 C198.063641,63.8894863 198.282388,64.0535472 198.44873,64.2563477 C198.615072,64.4591481 198.739257,64.7223291 198.821289,65.0458984 C198.903321,65.3694678 198.944336,65.8662076 198.944336,66.5361328 L198.944336,71 L197.932617,71 L197.932617,66.5839844 C197.932617,66.0507786 197.887045,65.661134 197.795898,65.4150391 C197.704752,65.1689441 197.562338,64.9786791 197.368652,64.8442383 C197.174966,64.7097975 196.950522,64.6425781 196.695312,64.6425781 C196.212237,64.6425781 195.82715,64.8225893 195.540039,65.1826172 C195.252928,65.542645 195.109375,66.1601519 195.109375,67.0351562 L195.109375,71 L194.104492,71 Z M202.738281,69.8994141 L202.875,70.9863281 C202.597004,71.0592452 202.346355,71.0957031 202.123047,71.0957031 C201.772134,71.0957031 201.489584,71.0262051 201.275391,70.887207 C201.061197,70.7482089 200.914226,70.5579439 200.834473,70.3164062 C200.75472,70.0748686 200.714844,69.5940791 200.714844,68.8740234 L200.714844,64.6972656 L199.976562,64.6972656 L199.976562,63.7402344 L200.714844,63.7402344 L200.714844,61.9423828 L201.719727,61.2041016 L201.719727,63.7402344 L202.738281,63.7402344 L202.738281,64.6972656 L201.719727,64.6972656 L201.719727,68.9423828 C201.719727,69.3343119 201.749349,69.587239 201.808594,69.7011719 C201.895183,69.8652352 202.056965,69.9472656 202.293945,69.9472656 C202.407878,69.9472656 202.555989,69.9313153 202.738281,69.8994141 Z M97.7382812,78.3935547 L97.7382812,76.9785156 L98.7431641,76.9785156 L98.7431641,78.3935547 L97.7382812,78.3935547 Z M97.7382812,87 L97.7382812,79.7402344 L98.7431641,79.7402344 L98.7431641,87 L97.7382812,87 Z M100.288086,87 L100.288086,79.7402344 L101.197266,79.7402344 L101.197266,80.7724609 C101.416017,80.3714173 101.683755,80.0717783 102.000488,79.8735352 C102.317222,79.675292 102.680662,79.5761719 103.09082,79.5761719 C103.409832,79.5761719 103.704914,79.638834 103.976074,79.7641602 C104.247234,79.8894863 104.465982,80.0535472 104.632324,80.2563477 C104.798666,80.4591481 104.922851,80.7223291 105.004883,81.0458984 C105.086914,81.3694678 105.12793,81.8662076 105.12793,82.5361328 L105.12793,87 L104.116211,87 L104.116211,82.5839844 C104.116211,82.0507786 104.070638,81.661134 103.979492,81.4150391 C103.888346,81.1689441 103.745932,80.9786791 103.552246,80.8442383 C103.35856,80.7097975 103.134116,80.6425781 102.878906,80.6425781 C102.395831,80.6425781 102.010744,80.8225893 101.723633,81.1826172 C101.436522,81.542645 101.292969,82.1601519 101.292969,83.0351562 L101.292969,87 L100.288086,87 Z M110.008789,87 L110.008789,76.9785156 L113.652344,76.9785156 C114.413415,76.9785156 114.975096,77.0719392 115.337402,77.2587891 C115.699709,77.445639 115.997069,77.756671 116.229492,78.1918945 C116.461915,78.6271181 116.578125,79.1318331 116.578125,79.7060547 C116.578125,80.4625689 116.381024,81.0755185 115.986816,81.5449219 C115.592609,82.0143253 115.019535,82.3128249 114.267578,82.4404297 C114.572918,82.6227223 114.805338,82.8072907 114.964844,82.9941406 C115.288413,83.376955 115.573241,83.8030575 115.819336,84.2724609 L117.254883,87 L115.887695,87 L114.793945,84.9150391 C114.370115,84.0992798 114.049969,83.5501316 113.833496,83.2675781 C113.617024,82.9850246 113.40739,82.7947596 113.20459,82.6967773 C113.001789,82.5987951 112.718101,82.5498047 112.353516,82.5498047 L111.095703,82.5498047 L111.095703,87 L110.008789,87 Z M111.095703,81.4013672 L113.433594,81.4013672 C113.944013,81.4013672 114.331379,81.3398444 114.595703,81.2167969 C114.860027,81.0937494 115.069661,80.9000664 115.224609,80.6357422 C115.379558,80.3714179 115.457031,80.0638038 115.457031,79.7128906 C115.457031,79.2070287 115.308921,78.809409 115.012695,78.5200195 C114.71647,78.2306301 114.276696,78.0859375 113.693359,78.0859375 L111.095703,78.0859375 L111.095703,81.4013672 Z M118.150391,87 L118.150391,76.9785156 L119.155273,76.9785156 L119.155273,80.5742188 C119.392254,80.2415348 119.659992,79.9920256 119.958496,79.8256836 C120.257,79.6593416 120.586261,79.5761719 120.946289,79.5761719 C121.579756,79.5761719 122.079914,79.77783 122.446777,80.1811523 C122.813641,80.5844747 122.99707,81.3238879 122.99707,82.3994141 L122.99707,87 L121.992188,87 L121.992188,82.3994141 C121.992188,81.7705047 121.880535,81.3193373 121.657227,81.0458984 C121.433918,80.7724596 121.126304,80.6357422 120.734375,80.6357422 C120.296873,80.6357422 119.924318,80.8111962 119.616699,81.1621094 C119.30908,81.5130226 119.155273,82.1350867 119.155273,83.0283203 L119.155273,87 L118.150391,87 Z M128.609375,84.6621094 L129.648438,84.8193359 C129.47526,85.5940794 129.161949,86.1785462 128.708496,86.5727539 C128.255043,86.9669616 127.693363,87.1640625 127.023438,87.1640625 C126.180334,87.1640625 125.497887,86.843916 124.976074,86.2036133 C124.454262,85.5633106 124.193359,84.639329 124.193359,83.4316406 C124.193359,82.1783792 124.45654,81.2224968 124.98291,80.5639648 C125.50928,79.9054329 126.175777,79.5761719 126.982422,79.5761719 C127.752608,79.5761719 128.39518,79.8997363 128.910156,80.546875 C129.425133,81.1940137 129.682617,82.1305277 129.682617,83.3564453 L129.675781,83.6845703 L125.232422,83.6845703 C125.273438,84.5003296 125.462563,85.1155578 125.799805,85.5302734 C126.137046,85.9449891 126.547198,86.1523438 127.030273,86.1523438 C127.786788,86.1523438 128.31315,85.6556039 128.609375,84.6621094 Z M125.293945,82.6728516 L128.616211,82.6728516 C128.570638,82.0439422 128.436199,81.5745458 128.212891,81.2646484 C127.889321,80.8134743 127.476891,80.5878906 126.975586,80.5878906 C126.524412,80.5878906 126.139325,80.775877 125.820312,81.1518555 C125.5013,81.5278339 125.325847,82.0348275 125.293945,82.6728516 Z M134.823242,87 L134.823242,85.9335938 C134.590819,86.3437521 134.317384,86.6513662 134.00293,86.8564453 C133.688475,87.0615245 133.33301,87.1640625 132.936523,87.1640625 C132.46712,87.1640625 132.066082,87.0375989 131.733398,86.784668 C131.400714,86.531737 131.178549,86.2115905 131.066895,85.8242188 C130.95524,85.436847 130.899414,84.9082065 130.899414,84.2382812 L130.899414,79.7402344 L131.904297,79.7402344 L131.904297,83.7666016 C131.904297,84.5140011 131.941894,85.0141589 132.01709,85.2670898 C132.092286,85.5200208 132.231282,85.7228182 132.434082,85.8754883 C132.636883,86.0281583 132.868163,86.1044922 133.12793,86.1044922 C133.611005,86.1044922 134.007485,85.906252 134.317383,85.5097656 C134.581707,85.167967 134.713867,84.5413457 134.713867,83.6298828 L134.713867,79.7402344 L135.725586,79.7402344 L135.725586,87 L134.823242,87 Z M137.318359,87 L137.318359,79.7402344 L138.220703,79.7402344 L138.220703,80.7587891 C138.421225,80.380532 138.678709,80.0888682 138.993164,79.8837891 C139.307619,79.6787099 139.651691,79.5761719 140.025391,79.5761719 C140.444664,79.5761719 140.798989,79.6844065 141.088379,79.9008789 C141.377768,80.1173513 141.583984,80.4329406 141.707031,80.8476562 C141.944012,80.423826 142.216307,80.1059581 142.523926,79.894043 C142.831545,79.6821278 143.172199,79.5761719 143.545898,79.5761719 C144.115563,79.5761719 144.564451,79.7698548 144.892578,80.1572266 C145.220705,80.5445983 145.384766,81.1643838 145.384766,82.0166016 L145.384766,87 L144.379883,87 L144.379883,82.4267578 C144.379883,81.907224 144.342286,81.5392263 144.26709,81.3227539 C144.191894,81.1062815 144.069988,80.9388027 143.901367,80.8203125 C143.732747,80.7018223 143.543621,80.6425781 143.333984,80.6425781 C142.90104,80.6425781 142.547853,80.8146142 142.274414,81.1586914 C142.000975,81.5027686 141.864258,82.0439416 141.864258,82.7822266 L141.864258,87 L140.852539,87 L140.852539,82.2832031 C140.852539,81.6816376 140.760255,81.2578137 140.575684,81.0117188 C140.391112,80.7656238 140.137046,80.6425781 139.813477,80.6425781 C139.353188,80.6425781 138.989747,80.8282859 138.723145,81.199707 C138.456542,81.5711282 138.323242,82.2490185 138.323242,83.2333984 L138.323242,87 L137.318359,87 Z M150.750977,86.1044922 C150.413735,86.4554054 150.062827,86.7197257 149.698242,86.8974609 C149.333657,87.0751962 148.955406,87.1640625 148.563477,87.1640625 C147.943682,87.1640625 147.449221,86.9772154 147.080078,86.6035156 C146.710936,86.2298158 146.526367,85.7262401 146.526367,85.0927734 C146.526367,84.6735005 146.612955,84.302085 146.786133,83.9785156 C146.959311,83.6549463 147.196288,83.4020191 147.49707,83.2197266 C147.797853,83.037434 148.253578,82.9029952 148.864258,82.8164062 C149.684574,82.6979161 150.286131,82.5566414 150.668945,82.3925781 L150.675781,82.078125 C150.675781,81.5813777 150.586915,81.2327484 150.40918,81.0322266 C150.158527,80.7405584 149.77344,80.5947266 149.253906,80.5947266 C148.784503,80.5947266 148.433595,80.691568 148.201172,80.8852539 C147.968749,81.0789398 147.797852,81.4423801 147.688477,81.9755859 L146.697266,81.8115234 C146.838542,81.0322227 147.12451,80.4648455 147.555176,80.109375 C147.985842,79.7539045 148.60221,79.5761719 149.404297,79.5761719 C150.028649,79.5761719 150.518553,79.693521 150.874023,79.9282227 C151.229494,80.1629244 151.453938,80.4534488 151.547363,80.7998047 C151.640788,81.1461606 151.6875,81.6520149 151.6875,82.3173828 L151.6875,83.9580078 C151.6875,85.1064511 151.709147,85.8299139 151.752441,86.128418 C151.795736,86.4269221 151.881184,86.7174465 152.008789,87 L150.956055,87 C150.851236,86.7493477 150.782878,86.4508481 150.750977,86.1044922 Z M150.668945,83.3564453 C150.299803,83.5387379 149.750655,83.6936843 149.021484,83.8212891 C148.597654,83.8942061 148.301433,83.9773758 148.132812,84.0708008 C147.964192,84.1642257 147.833171,84.2963859 147.739746,84.4672852 C147.646321,84.6381844 147.599609,84.8352853 147.599609,85.0585938 C147.599609,85.4049496 147.706705,85.6818023 147.920898,85.8891602 C148.135092,86.096518 148.431313,86.2001953 148.80957,86.2001953 C149.169598,86.2001953 149.496581,86.1067718 149.790527,85.9199219 C150.084474,85.733072 150.304361,85.4835628 150.450195,85.1713867 C150.596029,84.8592107 150.668945,84.4046254 150.668945,83.8076172 L150.668945,83.3564453 Z M155.501953,85.8994141 L155.638672,86.9863281 C155.360676,87.0592452 155.110027,87.0957031 154.886719,87.0957031 C154.535806,87.0957031 154.253256,87.0262051 154.039062,86.887207 C153.824869,86.7482089 153.677898,86.5579439 153.598145,86.3164062 C153.518392,86.0748686 153.478516,85.5940791 153.478516,84.8740234 L153.478516,80.6972656 L152.740234,80.6972656 L152.740234,79.7402344 L153.478516,79.7402344 L153.478516,77.9423828 L154.483398,77.2041016 L154.483398,79.7402344 L155.501953,79.7402344 L155.501953,80.6972656 L154.483398,80.6972656 L154.483398,84.9423828 C154.483398,85.3343119 154.513021,85.587239 154.572266,85.7011719 C154.658855,85.8652352 154.820637,85.9472656 155.057617,85.9472656 C155.17155,85.9472656 155.319661,85.9313153 155.501953,85.8994141 Z M156.445312,78.3935547 L156.445312,76.9785156 L157.450195,76.9785156 L157.450195,78.3935547 L156.445312,78.3935547 Z M156.445312,87 L156.445312,79.7402344 L157.450195,79.7402344 L157.450195,87 L156.445312,87 Z M162.898438,84.3408203 L163.889648,84.4980469 C163.775716,85.3639366 163.489748,86.0247373 163.031738,86.4804688 C162.573728,86.9362002 162.023441,87.1640625 161.380859,87.1640625 C160.601559,87.1640625 159.960126,86.843916 159.456543,86.2036133 C158.95296,85.5633106 158.701172,84.6165427 158.701172,83.3632812 C158.701172,82.1009051 158.955238,81.1541373 159.463379,80.5229492 C159.971519,79.8917612 160.624345,79.5761719 161.421875,79.5761719 C162.037112,79.5761719 162.555499,79.7675762 162.977051,80.1503906 C163.398602,80.533205 163.668619,81.107418 163.787109,81.8730469 L162.80957,82.0576172 C162.713867,81.5654272 162.547527,81.1974296 162.310547,80.9536133 C162.073567,80.709797 161.788739,80.5878906 161.456055,80.5878906 C160.959307,80.5878906 160.548016,80.8077777 160.222168,81.2475586 C159.89632,81.6873394 159.733398,82.3857374 159.733398,83.3427734 C159.733398,84.3317107 159.889484,85.0471983 160.20166,85.4892578 C160.513836,85.9313173 160.913735,86.1523438 161.401367,86.1523438 C161.784182,86.1523438 162.111164,86.0053726 162.382324,85.7114258 C162.653484,85.417479 162.82552,84.9606151 162.898438,84.3408203 Z M168.052734,87 L168.052734,76.9785156 L170.889648,76.9785156 C171.591475,76.9785156 172.124673,77.0400384 172.489258,77.1630859 C172.967776,77.3225919 173.382485,77.6142557 173.733398,78.0380859 C174.084312,78.4619162 174.357746,78.9962533 174.553711,79.6411133 C174.749675,80.2859733 174.847656,81.0504513 174.847656,81.9345703 C174.847656,83.0693416 174.681317,84.0320598 174.348633,84.8227539 C174.015949,85.613448 173.588707,86.1739892 173.066895,86.5043945 C172.545082,86.8347998 171.862634,87 171.019531,87 L168.052734,87 Z M169.139648,85.8173828 L170.889648,85.8173828 C171.596032,85.8173828 172.131509,85.7023123 172.496094,85.472168 C172.860679,85.2420236 173.14095,84.8717473 173.336914,84.3613281 C173.596681,83.6822883 173.726562,82.8688198 173.726562,81.9208984 C173.726562,80.9046173 173.588706,80.1059599 173.312988,79.5249023 C173.037271,78.9438448 172.682945,78.5553395 172.25,78.359375 C171.958332,78.2272129 171.495771,78.1611328 170.862305,78.1611328 L169.139648,78.1611328 L169.139648,85.8173828 Z M176.214844,78.3935547 L176.214844,76.9785156 L177.219727,76.9785156 L177.219727,78.3935547 L176.214844,78.3935547 Z M176.214844,87 L176.214844,79.7402344 L177.219727,79.7402344 L177.219727,87 L176.214844,87 Z M178.381836,84.8330078 L179.379883,84.6416016 C179.439128,85.1520208 179.60091,85.5314115 179.865234,85.7797852 C180.129559,86.0281588 180.480467,86.1523438 180.917969,86.1523438 C181.355471,86.1523438 181.693846,86.0441092 181.933105,85.8276367 C182.172364,85.6111643 182.291992,85.3365902 182.291992,85.0039062 C182.291992,84.7167954 182.189454,84.4934904 181.984375,84.3339844 C181.843098,84.2246088 181.501305,84.0878914 180.958984,83.9238281 C180.175126,83.6822905 179.651043,83.4772144 179.386719,83.3085938 C179.122395,83.1399731 178.917318,82.9143894 178.771484,82.6318359 C178.62565,82.3492824 178.552734,82.0279966 178.552734,81.6679688 C178.552734,81.048174 178.750975,80.5445983 179.147461,80.1572266 C179.543947,79.7698548 180.093095,79.5761719 180.794922,79.5761719 C181.236981,79.5761719 181.625487,79.6559237 181.960449,79.8154297 C182.295412,79.9749357 182.551757,80.1891263 182.729492,80.4580078 C182.907227,80.7268894 183.030273,81.1119767 183.098633,81.6132812 L182.114258,81.7773438 C182.023112,80.984371 181.592452,80.5878906 180.822266,80.5878906 C180.384763,80.5878906 180.05892,80.6756176 179.844727,80.8510742 C179.630533,81.0265308 179.523438,81.2509752 179.523438,81.5244141 C179.523438,81.7932956 179.625976,82.0052076 179.831055,82.1601562 C179.954102,82.2513025 180.318682,82.3971344 180.924805,82.5976562 C181.758793,82.8665378 182.298827,83.0795891 182.544922,83.2368164 C182.791017,83.3940438 182.982421,83.6082343 183.119141,83.8793945 C183.25586,84.1505547 183.324219,84.4729799 183.324219,84.8466797 C183.324219,85.5393915 183.104332,86.0999328 182.664551,86.5283203 C182.22477,86.9567079 181.624353,87.1708984 180.863281,87.1708984 C179.436842,87.1708984 178.609702,86.3916094 178.381836,84.8330078 Z M188.581055,84.6621094 L189.620117,84.8193359 C189.446939,85.5940794 189.133629,86.1785462 188.680176,86.5727539 C188.226723,86.9669616 187.665042,87.1640625 186.995117,87.1640625 C186.152014,87.1640625 185.469566,86.843916 184.947754,86.2036133 C184.425941,85.5633106 184.165039,84.639329 184.165039,83.4316406 C184.165039,82.1783792 184.42822,81.2224968 184.95459,80.5639648 C185.48096,79.9054329 186.147457,79.5761719 186.954102,79.5761719 C187.724288,79.5761719 188.366859,79.8997363 188.881836,80.546875 C189.396812,81.1940137 189.654297,82.1305277 189.654297,83.3564453 L189.647461,83.6845703 L185.204102,83.6845703 C185.245117,84.5003296 185.434243,85.1155578 185.771484,85.5302734 C186.108726,85.9449891 186.518878,86.1523438 187.001953,86.1523438 C187.758467,86.1523438 188.284829,85.6556039 188.581055,84.6621094 Z M185.265625,82.6728516 L188.587891,82.6728516 C188.542317,82.0439422 188.407879,81.5745458 188.18457,81.2646484 C187.861001,80.8134743 187.44857,80.5878906 186.947266,80.5878906 C186.496091,80.5878906 186.111004,80.775877 185.791992,81.1518555 C185.47298,81.5278339 185.297526,82.0348275 185.265625,82.6728516 Z M194.774414,86.1044922 C194.437173,86.4554054 194.086265,86.7197257 193.72168,86.8974609 C193.357095,87.0751962 192.978843,87.1640625 192.586914,87.1640625 C191.967119,87.1640625 191.472658,86.9772154 191.103516,86.6035156 C190.734373,86.2298158 190.549805,85.7262401 190.549805,85.0927734 C190.549805,84.6735005 190.636392,84.302085 190.80957,83.9785156 C190.982748,83.6549463 191.219725,83.4020191 191.520508,83.2197266 C191.821291,83.037434 192.277015,82.9029952 192.887695,82.8164062 C193.708012,82.6979161 194.309568,82.5566414 194.692383,82.3925781 L194.699219,82.078125 C194.699219,81.5813777 194.610352,81.2327484 194.432617,81.0322266 C194.181965,80.7405584 193.796878,80.5947266 193.277344,80.5947266 C192.80794,80.5947266 192.457032,80.691568 192.224609,80.8852539 C191.992186,81.0789398 191.82129,81.4423801 191.711914,81.9755859 L190.720703,81.8115234 C190.86198,81.0322227 191.147947,80.4648455 191.578613,80.109375 C192.009279,79.7539045 192.625647,79.5761719 193.427734,79.5761719 C194.052086,79.5761719 194.54199,79.693521 194.897461,79.9282227 C195.252931,80.1629244 195.477376,80.4534488 195.570801,80.7998047 C195.664226,81.1461606 195.710938,81.6520149 195.710938,82.3173828 L195.710938,83.9580078 C195.710938,85.1064511 195.732584,85.8299139 195.775879,86.128418 C195.819173,86.4269221 195.904622,86.7174465 196.032227,87 L194.979492,87 C194.874674,86.7493477 194.806315,86.4508481 194.774414,86.1044922 Z M194.692383,83.3564453 C194.32324,83.5387379 193.774092,83.6936843 193.044922,83.8212891 C192.621092,83.8942061 192.324871,83.9773758 192.15625,84.0708008 C191.987629,84.1642257 191.856609,84.2963859 191.763184,84.4672852 C191.669759,84.6381844 191.623047,84.8352853 191.623047,85.0585938 C191.623047,85.4049496 191.730142,85.6818023 191.944336,85.8891602 C192.15853,86.096518 192.454751,86.2001953 192.833008,86.2001953 C193.193036,86.2001953 193.520018,86.1067718 193.813965,85.9199219 C194.107912,85.733072 194.327799,85.4835628 194.473633,85.1713867 C194.619467,84.8592107 194.692383,84.4046254 194.692383,83.8076172 L194.692383,83.3564453 Z M196.893555,84.8330078 L197.891602,84.6416016 C197.950847,85.1520208 198.112629,85.5314115 198.376953,85.7797852 C198.641277,86.0281588 198.992185,86.1523438 199.429688,86.1523438 C199.86719,86.1523438 200.205565,86.0441092 200.444824,85.8276367 C200.684083,85.6111643 200.803711,85.3365902 200.803711,85.0039062 C200.803711,84.7167954 200.701173,84.4934904 200.496094,84.3339844 C200.354817,84.2246088 200.013024,84.0878914 199.470703,83.9238281 C198.686845,83.6822905 198.162762,83.4772144 197.898438,83.3085938 C197.634113,83.1399731 197.429037,82.9143894 197.283203,82.6318359 C197.137369,82.3492824 197.064453,82.0279966 197.064453,81.6679688 C197.064453,81.048174 197.262693,80.5445983 197.65918,80.1572266 C198.055666,79.7698548 198.604814,79.5761719 199.306641,79.5761719 C199.7487,79.5761719 200.137205,79.6559237 200.472168,79.8154297 C200.807131,79.9749357 201.063476,80.1891263 201.241211,80.4580078 C201.418946,80.7268894 201.541992,81.1119767 201.610352,81.6132812 L200.625977,81.7773438 C200.53483,80.984371 200.104171,80.5878906 199.333984,80.5878906 C198.896482,80.5878906 198.570639,80.6756176 198.356445,80.8510742 C198.142252,81.0265308 198.035156,81.2509752 198.035156,81.5244141 C198.035156,81.7932956 198.137694,82.0052076 198.342773,82.1601562 C198.465821,82.2513025 198.830401,82.3971344 199.436523,82.5976562 C200.270512,82.8665378 200.810546,83.0795891 201.056641,83.2368164 C201.302736,83.3940438 201.49414,83.6082343 201.630859,83.8793945 C201.767579,84.1505547 201.835938,84.4729799 201.835938,84.8466797 C201.835938,85.5393915 201.61605,86.0999328 201.17627,86.5283203 C200.736489,86.9567079 200.136072,87.1708984 199.375,87.1708984 C197.948561,87.1708984 197.12142,86.3916094 196.893555,84.8330078 Z M207.092773,84.6621094 L208.131836,84.8193359 C207.958658,85.5940794 207.645347,86.1785462 207.191895,86.5727539 C206.738442,86.9669616 206.176761,87.1640625 205.506836,87.1640625 C204.663733,87.1640625 203.981285,86.843916 203.459473,86.2036133 C202.93766,85.5633106 202.676758,84.639329 202.676758,83.4316406 C202.676758,82.1783792 202.939939,81.2224968 203.466309,80.5639648 C203.992678,79.9054329 204.659176,79.5761719 205.46582,79.5761719 C206.236006,79.5761719 206.878578,79.8997363 207.393555,80.546875 C207.908531,81.1940137 208.166016,82.1305277 208.166016,83.3564453 L208.15918,83.6845703 L203.71582,83.6845703 C203.756836,84.5003296 203.945962,85.1155578 204.283203,85.5302734 C204.620444,85.9449891 205.030597,86.1523438 205.513672,86.1523438 C206.270186,86.1523438 206.796548,85.6556039 207.092773,84.6621094 Z M203.777344,82.6728516 L207.099609,82.6728516 C207.054036,82.0439422 206.919597,81.5745458 206.696289,81.2646484 C206.37272,80.8134743 205.960289,80.5878906 205.458984,80.5878906 C205.00781,80.5878906 204.622723,80.775877 204.303711,81.1518555 C203.984699,81.5278339 203.809245,82.0348275 203.777344,82.6728516 Z M209.020508,84.8330078 L210.018555,84.6416016 C210.0778,85.1520208 210.239582,85.5314115 210.503906,85.7797852 C210.76823,86.0281588 211.119138,86.1523438 211.556641,86.1523438 C211.994143,86.1523438 212.332518,86.0441092 212.571777,85.8276367 C212.811036,85.6111643 212.930664,85.3365902 212.930664,85.0039062 C212.930664,84.7167954 212.828126,84.4934904 212.623047,84.3339844 C212.48177,84.2246088 212.139977,84.0878914 211.597656,83.9238281 C210.813798,83.6822905 210.289715,83.4772144 210.025391,83.3085938 C209.761066,83.1399731 209.55599,82.9143894 209.410156,82.6318359 C209.264322,82.3492824 209.191406,82.0279966 209.191406,81.6679688 C209.191406,81.048174 209.389646,80.5445983 209.786133,80.1572266 C210.182619,79.7698548 210.731767,79.5761719 211.433594,79.5761719 C211.875653,79.5761719 212.264158,79.6559237 212.599121,79.8154297 C212.934084,79.9749357 213.190429,80.1891263 213.368164,80.4580078 C213.545899,80.7268894 213.668945,81.1119767 213.737305,81.6132812 L212.75293,81.7773438 C212.661783,80.984371 212.231124,80.5878906 211.460938,80.5878906 C211.023435,80.5878906 210.697592,80.6756176 210.483398,80.8510742 C210.269205,81.0265308 210.162109,81.2509752 210.162109,81.5244141 C210.162109,81.7932956 210.264647,82.0052076 210.469727,82.1601562 C210.592774,82.2513025 210.957354,82.3971344 211.563477,82.5976562 C212.397465,82.8665378 212.937499,83.0795891 213.183594,83.2368164 C213.429689,83.3940438 213.621093,83.6082343 213.757812,83.8793945 C213.894532,84.1505547 213.962891,84.4729799 213.962891,84.8466797 C213.962891,85.5393915 213.743004,86.0999328 213.303223,86.5283203 C212.863442,86.9567079 212.263025,87.1708984 211.501953,87.1708984 C210.075514,87.1708984 209.248374,86.3916094 209.020508,84.8330078 Z" id="Swiss-Clinical-Quali" fill="#0F2B53"></path>
    </g>
</svg>