<?xml version="1.0" encoding="UTF-8"?>
<svg width="2081px" height="777px" viewBox="0 0 2081 777" version="1.1" xmlns="http://www.w3.org/2000/svg" xmlns:xlink="http://www.w3.org/1999/xlink">
    <!-- Generator: Sketch 43.2 (39069) - http://www.bohemiancoding.com/sketch -->
    <title>Artboard</title>
    <desc>Created with Sketch.</desc>
    <defs></defs>
    <g id="Page-1" stroke="none" stroke-width="1" fill="none" fill-rule="evenodd">
        <g id="Artboard">
            <g id="canton-sg" transform="translate(1484.000000, 41.000000)" stroke="#000000" fill-rule="nonzero">
                <path d="M0.69,0.689908131 L482.31,0.689908131 L482.31,240.363993 C482.31,402.354422 438.84,542.267791 241.5,608.981907 C44.16,542.267791 0.69,402.354422 0.69,240.363993 L0.69,0.689908131 Z" id="Shape" stroke-width="5" fill="#009933"></path>
                <path d="M229.908,46.499808 C230.554311,41.2507325 235.550047,37.2753011 241.5,37.2753011 C247.449953,37.2753011 252.445689,41.2507325 253.092,46.499808 L253.092,565.034759 C252.445689,570.283835 247.449953,574.259266 241.5,574.259266 C235.550047,574.259266 230.554311,570.283835 229.908,565.034759 L229.908,46.499808 Z" id="Shape" stroke-width="4.5" fill="#FFFFFF"></path>
                <path d="M196.995,506.806513 C196.995,512.293284 192.39204,516.74119 186.714,516.74119 C181.03596,516.74119 176.433,512.293284 176.433,506.806513 L176.433,155.367311 C176.433,150.490182 181.03596,146.536487 186.714,146.536487 C192.39204,146.536487 196.995,150.490182 196.995,155.367311 L196.995,504.87477 C196.995,511.657028 202.787316,517.155135 209.9325,517.155135 C217.077684,517.155135 222.87,511.657028 222.87,504.87477 L222.87,157.575017 C222.87,151.173785 217.077684,145.984561 209.9325,145.984561 C202.787316,145.984561 196.995,151.173785 196.995,157.575017 L196.995,506.806513 Z M286.005,506.806513 C286.005,512.293284 290.60796,516.74119 296.286,516.74119 C301.96404,516.74119 306.567,512.293284 306.567,506.806513 L306.567,155.367311 C306.567,150.490182 301.96404,146.536487 296.286,146.536487 C290.60796,146.536487 286.005,150.490182 286.005,155.367311 L286.005,504.87477 C286.005,511.657028 280.212684,517.155135 273.0675,517.155135 C265.922316,517.155135 260.13,511.657028 260.13,504.87477 L260.13,157.575017 C260.13,151.173785 265.922316,145.984561 273.0675,145.984561 C280.212684,145.984561 286.005,151.173785 286.005,157.575017 L286.005,506.806513 Z M222.87,161.438503 C222.87,152.674911 231.210935,145.570616 241.5,145.570616 C251.789065,145.570616 260.13,152.674911 260.13,161.438503 L260.13,502.253119 C260.13,510.635686 251.789065,517.431098 241.5,517.431098 C231.210935,517.431098 222.87,510.635686 222.87,502.253119 L222.87,161.438503 Z M270.48,104.314109 L270.48,65.9552173 L235.98,65.9552173 C201.48,65.6792541 182.85,48.0176059 167.808,28.424215 C158.286,47.1897162 155.526,58.7801728 155.112,76.4418209 C155.664,97.1390649 158.148,109.695393 170.292,131.634471 C189.474,112.04108 207.138,104.728054 234.186,104.314109 L270.48,104.314109 Z" id="Shape" stroke-width="4.5" fill="#FFFFFF"></path>
                <path d="M170.43,177.996298 L312.57,177.996298 L312.57,208.352256 L170.43,208.352256 L170.43,177.996298 Z M170.43,454.925422 L312.57,454.925422 L312.57,485.281379 L170.43,485.281379 L170.43,454.925422 Z M170.43,438.091663 L172.5,438.091663 L312.57,271.823804 L312.57,225.323996 L310.5,225.323996 L170.43,391.591855 L170.43,438.091663 Z" id="Shape" stroke-width="4.5" fill="#009933" stroke-linejoin="round"></path>
                <polygon id="Shape" stroke-width="4.5" fill="#009933" stroke-linejoin="round" points="170.43 225.323996 172.5 225.323996 312.57 391.591855 312.57 438.091663 310.5 438.091663 170.43 271.823804"></polygon>
            </g>
            <path d="M62,90.7578125 L93.8515625,90.7578125 L93.8515625,129.710938 L127.25,90.7578125 L169.578125,90.7578125 L132.03125,129.640625 L171.265625,193.835938 L132.03125,193.835938 L110.304688,151.4375 L93.8515625,168.664062 L93.8515625,193.835938 L62,193.835938 L62,90.7578125 Z M206,143.351562 L178.648438,140.46875 C179.679693,135.687476 181.167959,131.925795 183.113281,129.183594 C185.058603,126.441393 187.859357,124.06251 191.515625,122.046875 C194.140638,120.593743 197.749977,119.468754 202.34375,118.671875 C206.937523,117.874996 211.906223,117.476562 217.25,117.476562 C225.828168,117.476562 232.718724,117.957026 237.921875,118.917969 C243.125026,119.878911 247.46092,121.882797 250.929688,124.929688 C253.3672,127.039073 255.289055,130.027324 256.695312,133.894531 C258.10157,137.761738 258.804688,141.453107 258.804688,144.96875 L258.804688,177.945312 C258.804688,181.460955 259.027342,184.214834 259.472656,186.207031 C259.917971,188.199229 260.890618,190.742172 262.390625,193.835938 L235.53125,193.835938 C234.45312,191.914053 233.750002,190.449224 233.421875,189.441406 C233.093748,188.433589 232.765627,186.851573 232.4375,184.695312 C228.687481,188.304706 224.960956,190.882805 221.257812,192.429688 C216.195287,194.492198 210.312534,195.523438 203.609375,195.523438 C194.70308,195.523438 187.941429,193.460958 183.324219,189.335938 C178.707008,185.210917 176.398438,180.12503 176.398438,174.078125 C176.398438,168.406222 178.062483,163.742206 181.390625,160.085938 C184.718767,156.429669 190.85933,153.710946 199.8125,151.929688 C210.546929,149.773427 217.507797,148.261723 220.695312,147.394531 C223.882828,146.527339 227.257795,145.390632 230.820312,143.984375 C230.820312,140.468732 230.093757,138.00782 228.640625,136.601562 C227.187493,135.195305 224.632831,134.492188 220.976562,134.492188 C216.289039,134.492188 212.773449,135.24218 210.429688,136.742188 C208.601553,137.914068 207.125006,140.117171 206,143.351562 Z M230.820312,158.398438 C226.882793,159.804695 222.781271,161.04687 218.515625,162.125 C212.703096,163.671883 209.023445,165.195305 207.476562,166.695312 C205.882805,168.242195 205.085938,169.99999 205.085938,171.96875 C205.085938,174.218761 205.871086,176.058587 207.441406,177.488281 C209.011727,178.917976 211.320297,179.632812 214.367188,179.632812 C217.554703,179.632812 220.519518,178.859383 223.261719,177.3125 C226.00392,175.765617 227.949213,173.878917 229.097656,171.652344 C230.246099,169.42577 230.820312,166.531268 230.820312,162.96875 L230.820312,158.398438 Z M275.960938,119.164062 L302.609375,119.164062 L302.609375,131.328125 C306.59377,126.35935 310.62498,122.808604 314.703125,120.675781 C318.78127,118.542958 323.749971,117.476562 329.609375,117.476562 C337.53129,117.476562 343.730446,119.832008 348.207031,124.542969 C352.683616,129.25393 354.921875,136.531201 354.921875,146.375 L354.921875,193.835938 L326.164062,193.835938 L326.164062,152.773438 C326.164062,148.085914 325.296884,144.769541 323.5625,142.824219 C321.828116,140.878897 319.390641,139.90625 316.25,139.90625 C312.781233,139.90625 309.968761,141.218737 307.8125,143.84375 C305.656239,146.468763 304.578125,151.179654 304.578125,157.976562 L304.578125,193.835938 L275.960938,193.835938 L275.960938,119.164062 Z M406.53125,90.7578125 L406.53125,119.164062 L422.28125,119.164062 L422.28125,140.046875 L406.53125,140.046875 L406.53125,166.554688 C406.53125,169.742203 406.835934,171.851557 407.445312,172.882812 C408.382817,174.47657 410.023426,175.273438 412.367188,175.273438 C414.476573,175.273438 417.429669,174.664069 421.226562,173.445312 L423.335938,193.203125 C416.257777,194.750008 409.648468,195.523438 403.507812,195.523438 C396.382777,195.523438 391.132829,194.609384 387.757812,192.78125 C384.382796,190.953116 381.886727,188.1758 380.269531,184.449219 C378.652336,180.722638 377.84375,174.687542 377.84375,166.34375 L377.84375,140.046875 L367.296875,140.046875 L367.296875,119.164062 L377.84375,119.164062 L377.84375,105.453125 L406.53125,90.7578125 Z M432.40625,156.710938 C432.40625,145.320256 436.249962,135.933631 443.9375,128.550781 C451.625038,121.167932 462.007747,117.476562 475.085938,117.476562 C490.039137,117.476562 501.335899,121.812457 508.976562,130.484375 C515.117218,137.468785 518.1875,146.070261 518.1875,156.289062 C518.1875,167.773495 514.378944,177.183557 506.761719,184.519531 C499.144493,191.855505 488.609442,195.523438 475.15625,195.523438 C463.15619,195.523438 453.453162,192.476593 446.046875,186.382812 C436.95308,178.8359 432.40625,168.945374 432.40625,156.710938 Z M461.09375,156.640625 C461.09375,163.296908 462.441393,168.218734 465.136719,171.40625 C467.832045,174.593766 471.21873,176.1875 475.296875,176.1875 C479.421896,176.1875 482.808581,174.617203 485.457031,171.476562 C488.105482,168.335922 489.429688,163.29691 489.429688,156.359375 C489.429688,149.890593 488.093763,145.074235 485.421875,141.910156 C482.749987,138.746078 479.445332,137.164062 475.507812,137.164062 C471.335917,137.164062 467.890639,138.769515 465.171875,141.980469 C462.453111,145.191422 461.09375,150.078092 461.09375,156.640625 Z M531.96875,119.164062 L558.617188,119.164062 L558.617188,131.328125 C562.601582,126.35935 566.632792,122.808604 570.710938,120.675781 C574.789083,118.542958 579.757783,117.476562 585.617188,117.476562 C593.539102,117.476562 599.738259,119.832008 604.214844,124.542969 C608.691429,129.25393 610.929688,136.531201 610.929688,146.375 L610.929688,193.835938 L582.171875,193.835938 L582.171875,152.773438 C582.171875,148.085914 581.304696,144.769541 579.570312,142.824219 C577.835929,140.878897 575.398453,139.90625 572.257812,139.90625 C568.789045,139.90625 565.976573,141.218737 563.820312,143.84375 C561.664052,146.468763 560.585938,151.179654 560.585938,157.976562 L560.585938,193.835938 L531.96875,193.835938 L531.96875,119.164062 Z M672.382812,159.734375 L702.6875,157.835938 C703.343753,162.757837 704.679677,166.5078 706.695312,169.085938 C709.976579,173.257833 714.664032,175.34375 720.757812,175.34375 C725.30471,175.34375 728.808581,174.277354 731.269531,172.144531 C733.730481,170.011708 734.960938,167.539077 734.960938,164.726562 C734.960938,162.054674 733.789074,159.664073 731.445312,157.554688 C729.101551,155.445302 723.664105,153.453134 715.132812,151.578125 C701.163993,148.437484 691.203155,144.265651 685.25,139.0625 C679.24997,133.859349 676.25,127.226603 676.25,119.164062 C676.25,113.867161 677.785141,108.863305 680.855469,104.152344 C683.925797,99.4413827 688.542938,95.7382947 694.707031,93.0429688 C700.871125,90.3476428 709.320259,89 720.054688,89 C733.226628,89 743.269497,91.4491943 750.183594,96.3476562 C757.097691,101.246118 761.210931,109.039009 762.523438,119.726562 L732.5,121.484375 C731.703121,116.843727 730.027357,113.468761 727.472656,111.359375 C724.917956,109.249989 721.390648,108.195312 716.890625,108.195312 C713.187481,108.195312 710.398447,108.980461 708.523438,110.550781 C706.648428,112.121102 705.710938,114.031239 705.710938,116.28125 C705.710938,117.921883 706.484367,119.398431 708.03125,120.710938 C709.531258,122.070319 713.093722,123.335932 718.71875,124.507812 C732.640695,127.507827 742.613251,130.542953 748.636719,133.613281 C754.660186,136.683609 759.042955,140.492165 761.785156,145.039062 C764.527357,149.58596 765.898438,154.671847 765.898438,160.296875 C765.898438,166.906283 764.070331,172.999972 760.414062,178.578125 C756.757794,184.156278 751.64847,188.386704 745.085938,191.269531 C738.523405,194.152358 730.25005,195.59375 720.265625,195.59375 C702.734287,195.59375 690.593784,192.218784 683.84375,185.46875 C677.093716,178.718716 673.273442,170.140677 672.382812,159.734375 Z M814.554688,90.7578125 L814.554688,119.164062 L830.304688,119.164062 L830.304688,140.046875 L814.554688,140.046875 L814.554688,166.554688 C814.554688,169.742203 814.859372,171.851557 815.46875,172.882812 C816.406255,174.47657 818.046863,175.273438 820.390625,175.273438 C822.500011,175.273438 825.453106,174.664069 829.25,173.445312 L831.359375,193.203125 C824.281215,194.750008 817.671906,195.523438 811.53125,195.523438 C804.406214,195.523438 799.156267,194.609384 795.78125,192.78125 C792.406233,190.953116 789.910164,188.1758 788.292969,184.449219 C786.675773,180.722638 785.867188,174.687542 785.867188,166.34375 L785.867188,140.046875 L775.320312,140.046875 L775.320312,119.164062 L785.867188,119.164062 L785.867188,105.453125 L814.554688,90.7578125 Z M844.015625,165.148438 L874.601562,165.148438 L874.601562,193.835938 L844.015625,193.835938 L844.015625,165.148438 Z M945.617188,156.5 L945.617188,135.054688 L994.835938,135.054688 L994.835938,179 C985.414015,185.421907 977.082067,189.792957 969.839844,192.113281 C962.59762,194.433605 954.007862,195.59375 944.070312,195.59375 C931.835876,195.59375 921.86332,193.507833 914.152344,189.335938 C906.441368,185.164042 900.464865,178.953166 896.222656,170.703125 C891.980448,162.453084 889.859375,152.984428 889.859375,142.296875 C889.859375,131.046819 892.179664,121.26176 896.820312,112.941406 C901.460961,104.621052 908.257768,98.3047091 917.210938,93.9921875 C924.195347,90.6640459 933.593691,89 945.40625,89 C956.796932,89 965.316378,90.0312397 970.964844,92.09375 C976.613309,94.1562603 981.300763,97.3554471 985.027344,101.691406 C988.753925,106.027365 991.554678,111.523404 993.429688,118.179688 L962.703125,123.664062 C961.437494,119.773418 959.292984,116.796885 956.269531,114.734375 C953.246079,112.671865 949.390648,111.640625 944.703125,111.640625 C937.718715,111.640625 932.152364,114.066382 928.003906,118.917969 C923.855448,123.769556 921.78125,131.44526 921.78125,141.945312 C921.78125,153.101618 923.878885,161.070289 928.074219,165.851562 C932.269552,170.632836 938.11715,173.023438 945.617188,173.023438 C949.179705,173.023438 952.578109,172.507818 955.8125,171.476562 C959.046891,170.445307 962.749979,168.687512 966.921875,166.203125 L966.921875,156.5 L945.617188,156.5 Z M1037.9375,143.351562 L1010.58594,140.46875 C1011.61719,135.687476 1013.10546,131.925795 1015.05078,129.183594 C1016.9961,126.441393 1019.79686,124.06251 1023.45312,122.046875 C1026.07814,120.593743 1029.68748,119.468754 1034.28125,118.671875 C1038.87502,117.874996 1043.84372,117.476562 1049.1875,117.476562 C1057.76567,117.476562 1064.65622,117.957026 1069.85938,118.917969 C1075.06253,119.878911 1079.39842,121.882797 1082.86719,124.929688 C1085.3047,127.039073 1087.22656,130.027324 1088.63281,133.894531 C1090.03907,137.761738 1090.74219,141.453107 1090.74219,144.96875 L1090.74219,177.945312 C1090.74219,181.460955 1090.96484,184.214834 1091.41016,186.207031 C1091.85547,188.199229 1092.82812,190.742172 1094.32812,193.835938 L1067.46875,193.835938 C1066.39062,191.914053 1065.6875,190.449224 1065.35938,189.441406 C1065.03125,188.433589 1064.70313,186.851573 1064.375,184.695312 C1060.62498,188.304706 1056.89846,190.882805 1053.19531,192.429688 C1048.13279,194.492198 1042.25003,195.523438 1035.54688,195.523438 C1026.64058,195.523438 1019.87893,193.460958 1015.26172,189.335938 C1010.64451,185.210917 1008.33594,180.12503 1008.33594,174.078125 C1008.33594,168.406222 1009.99998,163.742206 1013.32812,160.085938 C1016.65627,156.429669 1022.79683,153.710946 1031.75,151.929688 C1042.48443,149.773427 1049.4453,148.261723 1052.63281,147.394531 C1055.82033,146.527339 1059.19529,145.390632 1062.75781,143.984375 C1062.75781,140.468732 1062.03126,138.00782 1060.57812,136.601562 C1059.12499,135.195305 1056.57033,134.492188 1052.91406,134.492188 C1048.22654,134.492188 1044.71095,135.24218 1042.36719,136.742188 C1040.53905,137.914068 1039.06251,140.117171 1037.9375,143.351562 Z M1062.75781,158.398438 C1058.82029,159.804695 1054.71877,161.04687 1050.45312,162.125 C1044.6406,163.671883 1040.96095,165.195305 1039.41406,166.695312 C1037.8203,168.242195 1037.02344,169.99999 1037.02344,171.96875 C1037.02344,174.218761 1037.80859,176.058587 1039.37891,177.488281 C1040.94923,178.917976 1043.2578,179.632812 1046.30469,179.632812 C1049.4922,179.632812 1052.45702,178.859383 1055.19922,177.3125 C1057.94142,175.765617 1059.88671,173.878917 1061.03516,171.652344 C1062.1836,169.42577 1062.75781,166.531268 1062.75781,162.96875 L1062.75781,158.398438 Z M1108.88281,90.7578125 L1137.57031,90.7578125 L1137.57031,193.835938 L1108.88281,193.835938 L1108.88281,90.7578125 Z M1156.83594,90.7578125 L1185.52344,90.7578125 L1185.52344,193.835938 L1156.83594,193.835938 L1156.83594,90.7578125 Z M1286.70312,163.601562 L1229.32812,163.601562 C1229.84375,168.195335 1231.08593,171.617176 1233.05469,173.867188 C1235.82033,177.101579 1239.42967,178.71875 1243.88281,178.71875 C1246.69533,178.71875 1249.36717,178.015632 1251.89844,176.609375 C1253.44532,175.718746 1255.10937,174.148449 1256.89062,171.898438 L1285.08594,174.5 C1280.77342,182.000038 1275.57034,187.37889 1269.47656,190.636719 C1263.38278,193.894548 1254.64068,195.523438 1243.25,195.523438 C1233.35933,195.523438 1225.57815,194.12892 1219.90625,191.339844 C1214.23435,188.550767 1209.53517,184.121124 1205.80859,178.050781 C1202.08201,171.980438 1200.21875,164.843791 1200.21875,156.640625 C1200.21875,144.968692 1203.95699,135.523474 1211.43359,128.304688 C1218.91019,121.085901 1229.23431,117.476562 1242.40625,117.476562 C1253.0938,117.476562 1261.53122,119.093734 1267.71875,122.328125 C1273.90628,125.562516 1278.61717,130.249969 1281.85156,136.390625 C1285.08595,142.531281 1286.70312,150.523388 1286.70312,160.367188 L1286.70312,163.601562 Z M1257.59375,149.890625 C1257.03125,144.359347 1255.54298,140.398449 1253.12891,138.007812 C1250.71483,135.617176 1247.53908,134.421875 1243.60156,134.421875 C1239.05466,134.421875 1235.42189,136.226544 1232.70312,139.835938 C1230.96874,142.085949 1229.86719,145.437478 1229.39844,149.890625 L1257.59375,149.890625 Z M1299.85156,119.164062 L1326.5,119.164062 L1326.5,131.328125 C1330.48439,126.35935 1334.5156,122.808604 1338.59375,120.675781 C1342.6719,118.542958 1347.6406,117.476562 1353.5,117.476562 C1361.42191,117.476562 1367.62107,119.832008 1372.09766,124.542969 C1376.57424,129.25393 1378.8125,136.531201 1378.8125,146.375 L1378.8125,193.835938 L1350.05469,193.835938 L1350.05469,152.773438 C1350.05469,148.085914 1349.18751,144.769541 1347.45312,142.824219 C1345.71874,140.878897 1343.28127,139.90625 1340.14062,139.90625 C1336.67186,139.90625 1333.85939,141.218737 1331.70312,143.84375 C1329.54686,146.468763 1328.46875,151.179654 1328.46875,157.976562 L1328.46875,193.835938 L1299.85156,193.835938 L1299.85156,119.164062 Z" id="Kanton-St.Gallen" fill="#000000"></path>
        </g>
    </g>
</svg>