<?xml version="1.0" encoding="UTF-8"?>
<svg width="360px" height="180px" viewBox="0 0 360 180" version="1.1" xmlns="http://www.w3.org/2000/svg" xmlns:xlink="http://www.w3.org/1999/xlink">
    <!-- Generator: Sketch 51.1 (57501) - http://www.bohemiancoding.com/sketch -->
    <title>Artboard</title>
    <desc>Created with Sketch.</desc>
    <defs></defs>
    <g id="Artboard" stroke="none" stroke-width="1" fill="none" fill-rule="evenodd">
        <rect fill="#FFFFFF" x="0" y="0" width="360" height="180"></rect>
        <g id="universitaet-bern" transform="translate(80.000000, -19.000000)">
            <g id="g4" fill="#FFFFFF" fill-rule="nonzero">
                <path d="M0,0 C0,0 200,0 200,0 C200,0 200,200 200,200 C200,200 0,200 0,200 C0,200 0,0 0,0 Z" id="path6"></path>
            </g>
            <g id="g8" transform="translate(8.957030, 53.896500)" fill="#161413" fill-rule="nonzero">
                <path d="M23.378,27.8262 C19.628,32.539 15.1748,36.2021 9.07227,36.2021 C4.96777,36.2021 1.30567,34.8076 1.30567,29.917 C1.30567,28.6992 1.83107,25.9053 2.43947,23.1123 C2.43947,23.1123 6.88677,2.5273 6.88677,2.5273 C6.88677,2.5273 0,2.5273 0,2.5273 C0,2.5273 0.6084,0.3496 0.6084,0.3496 C0.6084,0.3496 8.63577,0.3496 8.63577,0.3496 C11.3409,0.3496 13.9571,0 16.6563,0 C16.6563,0 11.3409,22.5928 11.3409,22.5928 C10.6377,25.7344 10.0293,28.6992 10.0293,29.834 C10.0293,32.1015 12.0381,32.6221 13.7793,32.6221 C15.2627,32.6221 17.0948,31.4883 18.3164,30.7021 C22.2442,28.1728 24.0743,23.3779 25.1201,19.0127 C25.1201,19.0127 29.5694,0.3496 29.5694,0.3496 C29.5694,0.3496 38.6407,0.3496 38.6407,0.3496 C38.6407,0.3496 32.7989,25.9053 32.7989,25.9053 C32.1856,28.5224 31.836,30.5303 31.9248,31.1387 C32.0147,32.0137 32.8887,32.539 33.666,32.539 C36.8106,32.539 40.6485,25.2969 41.7832,22.7637 C41.7832,22.7637 43.7032,23.8154 43.7032,23.8154 C41.4356,29.6562 36.6397,36.2021 29.9151,36.2021 C24.6836,36.2021 23.2901,32.8887 23.378,27.8262" id="path10"></path>
            </g>
            <g id="g12" transform="translate(55.415000, 29.434600)" fill="#161413" fill-rule="nonzero">
                <path d="M0,23.0049 C0,23.0049 3.1133,0 3.1133,0 C3.1133,0 6.0137,0 6.0137,0 C6.0137,0 4.7461,8.914 4.7461,8.914 C4.7461,8.914 4.8086,8.9765 4.8086,8.9765 C6.045,7.7422 7.0459,7.3115 8.4532,7.3115 C11.5879,7.3115 13.7305,10.1172 13.7305,14.1533 C13.7305,18.164 11.5254,23.2383 3.9737,23.2383 C2.542,23.2383 0.8702,23.1377 0,23.0049 Z M4.3789,11.6836 C4.3789,11.6836 3.0743,20.9004 3.0743,20.9004 C3.0743,20.9004 4.6455,20.9004 4.6455,20.9004 C8.587,20.9004 10.8213,18.1328 10.8213,14.0908 C10.8213,11.3525 9.5879,9.7822 7.586,9.7822 C6.6475,9.7822 4.5752,10.416 4.3789,11.6836 Z" id="path14"></path>
            </g>
            <g id="g16" transform="translate(9.166020, 126.383000)" stroke="#161413" stroke-width="1.79931998">
                <path d="M0,0 C0,0 181.022,0 181.022,0" id="path18"></path>
            </g>
            <g id="g20" transform="translate(9.508790, 133.387000)" fill="#161413" fill-rule="nonzero">
                <path d="M0,7.76 C0,7.76 1.04591,0 1.04591,0 C1.04591,0 2.02641,0 2.02641,0 C2.02641,0 1.59671,3.008 1.59671,3.008 C1.59671,3.008 1.62211,3.033 1.62211,3.033 C2.03321,2.616 2.37501,2.469 2.84281,2.469 C3.90231,2.469 4.62501,3.413 4.62501,4.774 C4.62501,6.133 3.88281,7.842 1.33691,7.842 C0.85451,7.842 0.29004,7.802 0,7.76 Z M1.46781,3.947 C1.46781,3.947 1.03121,7.051 1.03121,7.051 C1.03121,7.051 1.56441,7.051 1.56441,7.051 C2.88961,7.051 3.64941,6.119 3.64941,4.756 C3.64941,3.833 3.22951,3.301 2.55171,3.301 C2.23631,3.301 1.53911,3.512 1.46781,3.947 Z" id="path22"></path>
            </g>
            <g id="g24" transform="translate(9.787110, 147.286000)" fill="#E3003A" fill-rule="nonzero">
                <path d="M0,4.877 C0,4.877 0,0 0,0 C0,0 2.09669,0 2.09669,0 C2.09669,0 2.09669,4.529 2.09669,4.529 C2.09669,5.568 2.37699,6.443 3.44629,6.443 C4.51859,6.443 4.79489,5.568 4.79489,4.529 C4.79489,4.529 4.79489,0 4.79489,0 C4.79489,0 6.89359,0 6.89359,0 C6.89359,0 6.89359,4.877 6.89359,4.877 C6.89359,7.031 5.49999,8.002 3.44629,8.002 C1.39359,8.002 0,7.031 0,4.877" id="path26"></path>
            </g>
            <g id="g28" transform="translate(19.486300, 147.286000)" fill="#E3003A" fill-rule="nonzero">
                <path d="M4.6319,7.862 C4.6319,7.862 1.8819,2.49 1.8819,2.49 C1.8819,2.49 1.8643,2.49 1.8643,2.49 C1.8643,2.49 1.9278,7.862 1.9278,7.862 C1.9278,7.862 0,7.862 0,7.862 C0,7.862 0,0 0,0 C0,0 2.6739,0 2.6739,0 C2.6739,0 5.3282,5.342 5.3282,5.342 C5.3282,5.342 5.3545,5.342 5.3545,5.342 C5.3545,5.342 5.3223,0 5.3223,0 C5.3223,0 7.2354,0 7.2354,0 C7.2354,0 7.2354,7.862 7.2354,7.862 C7.2354,7.862 4.6319,7.862 4.6319,7.862" id="path30"></path>
            </g>
            <g id="g32" transform="translate(29.844700, 147.286000)" fill="#E3003A" fill-rule="nonzero">
                <path d="M0,7.862 C0,7.862 0,0 0,0 C0,0 2.0918,0 2.0918,0 C2.0918,0 2.0918,7.862 2.0918,7.862 C2.0918,7.862 0,7.862 0,7.862" id="path34"></path>
            </g>
            <g id="g36" transform="translate(34.103500, 147.286000)" fill="#E3003A" fill-rule="nonzero">
                <path d="M2.6358,7.862 C2.6358,7.862 0,0 0,0 C0,0 2.2305,0 2.2305,0 C2.2305,0 3.9717,6.169 3.9717,6.169 C3.9717,6.169 3.9971,6.169 3.9971,6.169 C3.9971,6.169 5.7529,0 5.7529,0 C5.7529,0 7.9063,0 7.9063,0 C7.9063,0 5.2266,7.862 5.2266,7.862 C5.2266,7.862 2.6358,7.862 2.6358,7.862" id="path38"></path>
            </g>
            <g id="g40" transform="translate(44.127000, 147.286000)" fill="#E3003A" fill-rule="nonzero">
                <path d="M0,7.862 C0,7.862 0,0 0,0 C0,0 5.5429,0 5.5429,0 C5.5429,0 5.5429,1.488 5.5429,1.488 C5.5429,1.488 2.0957,1.488 2.0957,1.488 C2.0957,1.488 2.0957,3.111 2.0957,3.111 C2.0957,3.111 5.3535,3.111 5.3535,3.111 C5.3535,3.111 5.3535,4.598 5.3535,4.598 C5.3535,4.598 2.0957,4.598 2.0957,4.598 C2.0957,4.598 2.0957,6.371 2.0957,6.371 C2.0957,6.371 5.6709,6.371 5.6709,6.371 C5.6709,6.371 5.6709,7.862 5.6709,7.862 C5.6709,7.862 0,7.862 0,7.862" id="path42"></path>
            </g>
            <g id="g44" transform="translate(52.386700, 147.286000)" fill="#E3003A" fill-rule="nonzero">
                <path d="M4.461,7.862 C4.461,7.862 4.0059,6.443 4.0059,6.443 C3.5821,5.093 3.3086,4.751 2.5303,4.751 C2.5303,4.751 2.0918,4.751 2.0918,4.751 C2.0918,4.751 2.0918,7.862 2.0918,7.862 C2.0918,7.862 0,7.862 0,7.862 C0,7.862 0,0 0,0 C0,0 3.7403,0 3.7403,0 C5.1328,0 6.2735,0.633 6.2735,1.982 C6.2735,3.027 5.7725,3.731 4.7598,3.966 C4.7598,3.966 4.7598,3.989 4.7598,3.989 C5.4365,4.169 5.4815,4.763 5.874,5.72 C5.874,5.72 6.6406,7.862 6.6406,7.862 C6.6406,7.862 4.461,7.862 4.461,7.862 Z M2.0918,3.269 C2.0918,3.269 2.6436,3.269 2.6436,3.269 C3.3213,3.269 4.1768,3.242 4.1768,2.357 C4.1768,1.62 3.4473,1.488 2.6436,1.488 C2.6436,1.488 2.0918,1.488 2.0918,1.488 C2.0918,1.488 2.0918,3.269 2.0918,3.269 Z" id="path46"></path>
            </g>
            <g id="g48" transform="translate(61.144500, 147.151000)" fill="#E3003A" fill-rule="nonzero">
                <path d="M0.0752,7.792 C0.0752,7.792 0.2608,6.059 0.2608,6.059 C0.7979,6.356 1.5518,6.578 2.42,6.578 C3.085,6.578 3.711,6.445 3.711,5.813 C3.711,4.346 0,5.273 0,2.411 C0,0.522 1.8438,0 3.42,0 C4.1739,0 4.9151,0.117 5.4483,0.291 C5.4483,0.291 5.3155,1.914 5.3155,1.914 C4.7696,1.668 4.1621,1.553 3.5655,1.553 C3.0401,1.553 2.1602,1.599 2.1602,2.289 C2.1602,3.563 5.8721,2.706 5.8721,5.543 C5.8721,7.58 4.1621,8.137 2.42,8.137 C1.6846,8.137 0.7725,8.023 0.0752,7.792" id="path50"></path>
            </g>
            <g id="g52" transform="translate(69.684600, 147.286000)" fill="#E3003A" fill-rule="nonzero">
                <path d="M0,7.862 C0,7.862 0,0 0,0 C0,0 2.0967,0 2.0967,0 C2.0967,0 2.0967,7.862 2.0967,7.862 C2.0967,7.862 0,7.862 0,7.862" id="path54"></path>
            </g>
            <g id="g56" transform="translate(73.732400, 147.286000)" fill="#E3003A" fill-rule="nonzero">
                <path d="M1.9395,7.862 C1.9395,7.862 1.9395,1.56 1.9395,1.56 C1.9395,1.56 0,1.56 0,1.56 C0,1.56 0,0 0,0 C0,0 5.9688,0 5.9688,0 C5.9688,0 5.9688,1.56 5.9688,1.56 C5.9688,1.56 4.0293,1.56 4.0293,1.56 C4.0293,1.56 4.0293,7.862 4.0293,7.862 C4.0293,7.862 1.9395,7.862 1.9395,7.862" id="path58"></path>
            </g>
            <g id="g60" transform="translate(80.619100, 145.253000)" fill="#E3003A" fill-rule="nonzero">
                <path d="M6.2852,9.895 C6.2852,9.895 5.7032,8.218 5.7032,8.218 C5.7032,8.218 2.7491,8.218 2.7491,8.218 C2.7491,8.218 2.128,9.895 2.128,9.895 C2.128,9.895 0,9.895 0,9.895 C0,9.895 2.9854,2.033 2.9854,2.033 C2.9854,2.033 5.5498,2.033 5.5498,2.033 C5.5498,2.033 8.585,9.895 8.585,9.895 C8.585,9.895 6.2852,9.895 6.2852,9.895 Z M3.2325,6.733 C3.2325,6.733 5.2022,6.733 5.2022,6.733 C5.2022,6.733 4.2705,3.653 4.2705,3.653 C4.2705,3.653 4.2452,3.653 4.2452,3.653 C4.2452,3.653 3.2325,6.733 3.2325,6.733 Z M4.7774,1.622 C4.7774,1.622 4.7774,0 4.7774,0 C4.7774,0 6.3995,0 6.3995,0 C6.3995,0 6.3995,1.622 6.3995,1.622 C6.3995,1.622 4.7774,1.622 4.7774,1.622 Z M2.2061,1.622 C2.2061,1.622 2.2061,0 2.2061,0 C2.2061,0 3.8321,0 3.8321,0 C3.8321,0 3.8321,1.622 3.8321,1.622 C3.8321,1.622 2.2061,1.622 2.2061,1.622 Z" id="path62"></path>
            </g>
            <g id="g64" transform="translate(90.148400, 147.286000)" fill="#E3003A" fill-rule="nonzero">
                <path d="M1.9395,7.862 C1.9395,7.862 1.9395,1.56 1.9395,1.56 C1.9395,1.56 0,1.56 0,1.56 C0,1.56 0,0 0,0 C0,0 5.9737,0 5.9737,0 C5.9737,0 5.9737,1.56 5.9737,1.56 C5.9737,1.56 4.0352,1.56 4.0352,1.56 C4.0352,1.56 4.0352,7.862 4.0352,7.862 C4.0352,7.862 1.9395,7.862 1.9395,7.862" id="path66"></path>
            </g>
            <g id="g68" transform="translate(9.844730, 161.362000)" fill="#E3003A" fill-rule="nonzero">
                <path d="M0,7.864 C0,7.864 0,0 0,0 C0,0 3.61617,0 3.61617,0 C5.08007,0 6.16987,0.648 6.16987,1.998 C6.16987,2.992 5.66407,3.542 4.78317,3.833 C4.78317,3.833 4.78317,3.854 4.78317,3.854 C5.83597,4.07 6.37307,4.631 6.37307,5.588 C6.37307,7.472 4.72067,7.864 3.31347,7.864 C3.31347,7.864 0,7.864 0,7.864 Z M2.09567,6.379 C2.09567,6.379 2.71187,6.379 2.71187,6.379 C3.47757,6.379 4.27637,6.266 4.27637,5.467 C4.27637,4.613 3.45897,4.532 2.73537,4.532 C2.73537,4.532 2.09567,4.532 2.09567,4.532 C2.09567,4.532 2.09567,6.379 2.09567,6.379 Z M2.09567,3.113 C2.09567,3.113 2.67967,3.113 2.67967,3.113 C3.36427,3.113 4.07417,2.942 4.07417,2.282 C4.07417,1.56 3.40137,1.49 2.70407,1.49 C2.70407,1.49 2.09567,1.49 2.09567,1.49 C2.09567,1.49 2.09567,3.113 2.09567,3.113 Z" id="path70"></path>
            </g>
            <g id="g72" transform="translate(18.581100, 161.362000)" fill="#E3003A" fill-rule="nonzero">
                <path d="M0,7.864 C0,7.864 0,0 0,0 C0,0 5.5439,0 5.5439,0 C5.5439,0 5.5439,1.49 5.5439,1.49 C5.5439,1.49 2.0966,1.49 2.0966,1.49 C2.0966,1.49 2.0966,3.113 2.0966,3.113 C2.0966,3.113 5.3457,3.113 5.3457,3.113 C5.3457,3.113 5.3457,4.601 5.3457,4.601 C5.3457,4.601 2.0966,4.601 2.0966,4.601 C2.0966,4.601 2.0966,6.379 2.0966,6.379 C2.0966,6.379 5.664,6.379 5.664,6.379 C5.664,6.379 5.664,7.864 5.664,7.864 C5.664,7.864 0,7.864 0,7.864" id="path74"></path>
            </g>
            <g id="g76" transform="translate(26.988300, 161.362000)" fill="#E3003A" fill-rule="nonzero">
                <path d="M4.4599,7.864 C4.4599,7.864 4.0107,6.445 4.0107,6.445 C3.5791,5.095 3.3076,4.757 2.5342,4.757 C2.5342,4.757 2.0918,4.757 2.0918,4.757 C2.0918,4.757 2.0918,7.864 2.0918,7.864 C2.0918,7.864 0,7.864 0,7.864 C0,7.864 0,0 0,0 C0,0 3.7383,0 3.7383,0 C5.1308,0 6.2724,0.635 6.2724,1.985 C6.2724,3.036 5.7783,3.734 4.7637,3.965 C4.7637,3.965 4.7637,3.993 4.7637,3.993 C5.4365,4.169 5.4814,4.766 5.8799,5.729 C5.8799,5.729 6.6465,7.864 6.6465,7.864 C6.6465,7.864 4.4599,7.864 4.4599,7.864 Z M2.0918,3.272 C2.0918,3.272 2.6416,3.272 2.6416,3.272 C3.3203,3.272 4.1758,3.251 4.1758,2.357 C4.1758,1.623 3.4472,1.49 2.6416,1.49 C2.6416,1.49 2.0918,1.49 2.0918,1.49 C2.0918,1.49 2.0918,3.272 2.0918,3.272 Z" id="path78"></path>
            </g>
            <g id="g80" transform="translate(35.965800, 161.362000)" fill="#E3003A" fill-rule="nonzero">
                <path d="M4.625,7.864 C4.625,7.864 1.874,2.492 1.874,2.492 C1.874,2.492 1.8574,2.492 1.8574,2.492 C1.8574,2.492 1.9268,7.864 1.9268,7.864 C1.9268,7.864 0,7.864 0,7.864 C0,7.864 0,0 0,0 C0,0 2.666,0 2.666,0 C2.666,0 5.3223,5.342 5.3223,5.342 C5.3223,5.342 5.3487,5.342 5.3487,5.342 C5.3487,5.342 5.3145,0 5.3145,0 C5.3145,0 7.2285,0 7.2285,0 C7.2285,0 7.2285,7.864 7.2285,7.864 C7.2285,7.864 4.625,7.864 4.625,7.864" id="path82"></path>
            </g>
        </g>
    </g>
</svg>