<?xml version="1.0" encoding="UTF-8" standalone="no"?>
<svg width="162px" height="36px" viewBox="0 0 162 36" version="1.1" xmlns="http://www.w3.org/2000/svg" xmlns:xlink="http://www.w3.org/1999/xlink" xmlns:sketch="http://www.bohemiancoding.com/sketch/ns">
    <!-- Generator: Sketch 3.3.3 (12072) - http://www.bohemiancoding.com/sketch -->
    <title>Logo</title>
    <desc>Created with Sketch.</desc>
    <defs></defs>
    <g id="Page-1" stroke="none" stroke-width="1" fill="none" fill-rule="evenodd" sketch:type="MSPage">
        <g id="Logo" sketch:type="MSArtboardGroup">
            <g id="canton-zg" sketch:type="MSLayerGroup" transform="translate(1.000000, 1.000000)">
                <g id="Page-1" sketch:type="MSShapeGroup">
                    <g id="Artboard-1">
                        <g id="Logo">
                            <path d="M155.465239,33.2741 C153.732282,33.2741 152.037634,32.4989 151.814535,30.3875 L153.264676,30.3875 C153.497915,31.5605 154.279887,31.9991 155.465239,31.9991 C157.523831,31.9991 158.162704,30.6119 158.162704,28.1843 L158.162704,27.5111 C157.412282,28.6433 156.590873,29.1329 155.415662,29.1329 C153.062986,29.1329 151.479887,27.0623 151.479887,23.9717 C151.479887,20.7893 153.062986,18.6371 155.465239,18.6371 C156.742986,18.6371 157.574535,19.1675 158.182986,20.3609 C158.203268,19.6877 158.243831,19.2695 158.376789,18.9023 L159.816789,18.9023 C159.674817,19.5245 159.634254,20.0651 159.634254,21.8807 L159.634254,28.4801 C159.634254,31.6217 158.365521,33.2741 155.465239,33.2741 L155.465239,33.2741 L155.465239,33.2741 Z M155.577915,19.9223 C154.004958,19.9223 152.981859,21.5135 152.981859,23.9717 C152.981859,26.3279 153.964394,27.8375 155.485521,27.8375 C157.118197,27.8375 158.182986,26.2871 158.182986,23.8697 C158.182986,21.5135 157.118197,19.9223 155.577915,19.9223 L155.577915,19.9223 L155.577915,19.9223 Z M144.605521,29.1329 C143.307493,29.1329 142.201014,28.5413 141.683831,27.5315 C141.369465,26.9807 141.278197,26.3687 141.278197,25.0019 L141.278197,18.9023 L142.739606,18.9023 L142.739606,25.0019 C142.739606,26.1239 142.841014,26.6645 143.11369,27.0419 C143.449465,27.5315 144.046648,27.7967 144.767775,27.7967 C145.648901,27.7967 146.358761,27.3785 146.795944,26.6441 C147.088901,26.1443 147.19031,25.5527 147.19031,24.5633 L147.19031,18.9023 L148.650592,18.9023 L148.650592,25.8485 C148.650592,28.0211 148.650592,28.1435 148.883831,28.8779 L147.443831,28.8779 C147.302986,28.4291 147.261296,28.0721 147.242141,27.5519 C146.653972,28.6637 145.872,29.1329 144.605521,29.1329 L144.605521,29.1329 L144.605521,29.1329 Z M107.336789,29.1329 C104.772282,29.1329 103.016789,26.9807 103.016789,23.8187 C103.016789,20.7995 104.811718,18.6371 107.336789,18.6371 C109.882141,18.6371 111.668056,20.7893 111.668056,23.8901 C111.668056,26.9603 109.882141,29.1329 107.336789,29.1329 L107.336789,29.1329 L107.336789,29.1329 Z M107.336789,19.9019 C105.664676,19.9019 104.517634,21.4931 104.517634,23.8289 C104.517634,26.2667 105.622986,27.8681 107.336789,27.8681 C109.03031,27.8681 110.155944,26.2667 110.155944,23.8697 C110.155944,21.4931 109.03031,19.9019 107.336789,19.9019 L107.336789,19.9019 L107.336789,19.9019 Z M77.928338,29.1329 C75.9812958,29.1329 74.723831,28.0007 74.723831,26.2463 C74.723831,24.8591 75.5249577,23.8289 77.0258028,23.2577 C77.9790423,22.9109 78.9018592,22.6967 80.747493,22.3805 L80.747493,21.9623 C80.747493,20.4731 80.1796056,19.9019 78.7193239,19.9019 C77.4415775,19.9019 76.7317183,20.4017 76.5187606,21.5135 L75.0787606,21.5135 C75.2917183,19.6469 76.5897465,18.6371 78.780169,18.6371 C80.3925634,18.6371 81.5790423,19.2491 81.9643944,20.2793 C82.1469296,20.7893 82.187493,21.2687 82.187493,22.5029 L82.187493,26.2463 C82.187493,27.8681 82.2280563,28.1843 82.4612958,28.8779 L81.0629859,28.8779 C80.9210141,28.4087 80.8894648,28.1843 80.8286197,27.5315 C80.2505915,28.6025 79.2770704,29.1329 77.928338,29.1329 L77.928338,29.1329 L77.928338,29.1329 Z M80.747493,23.4719 C77.4010141,24.0635 76.2246761,24.7775 76.2246761,26.1443 C76.2246761,27.1643 77.0055211,27.8885 78.1514366,27.8885 C79.1148169,27.8885 79.9463662,27.4193 80.3734085,26.6441 C80.6258028,26.1647 80.747493,25.4915 80.747493,24.4613 L80.747493,23.4719 L80.747493,23.4719 Z M99.4877746,29.0819 C98.5041127,29.0819 97.7750986,28.7453 97.4393239,28.1435 C97.2567887,27.7967 97.1858028,27.4397 97.1858028,26.7359 C97.1858028,26.5319 97.1858028,26.2055 97.2162254,25.8893 L97.236507,25.1141 L97.3581972,20.1161 L95.8776338,20.1161 L95.8776338,18.9023 L97.3987606,18.9023 L97.4596056,16.0361 L98.8793239,16.0361 L98.8387606,18.9023 L101.182423,18.9023 L101.182423,20.1161 L98.8184789,20.1161 L98.7170704,25.1549 L98.7170704,26.1443 C98.7170704,26.8379 98.7373521,27.0827 98.8590423,27.3377 C98.9807324,27.6335 99.3367887,27.7967 99.8235493,27.7967 C100.258479,27.7967 100.806085,27.6743 101.242141,27.4397 L101.242141,28.7453 C100.573972,29.0003 100.096225,29.0819 99.4877746,29.0819 L99.4877746,29.0819 L99.4877746,29.0819 Z M139.544113,28.8779 L130.660732,28.8779 L130.660732,27.6539 L137.770592,16.1993 L131.10693,16.1993 L131.10693,14.8631 L139.665803,14.8631 L139.665803,15.9341 L132.506366,27.5111 L139.544113,27.5111 L139.544113,28.8779 L139.544113,28.8779 Z M122.091718,28.8779 L120.632563,28.8779 L120.632563,23.2373 C120.632563,21.7277 120.590873,21.3707 120.357634,20.8913 C120.033127,20.2793 119.456225,19.9427 118.63369,19.9427 C117.732282,19.9427 116.930028,20.4017 116.474817,21.1871 C116.170592,21.7073 116.02862,22.3601 116.02862,23.2985 L116.02862,28.8779 L114.568338,28.8779 L114.568338,22.2989 C114.568338,19.9223 114.568338,19.8407 114.333972,18.9023 L115.733408,18.9023 C115.87538,19.3307 115.947493,19.7387 115.947493,20.3609 C116.615662,19.1981 117.610592,18.6371 118.928901,18.6371 C120.287775,18.6371 121.331155,19.2491 121.768338,20.2487 C122.052282,20.9015 122.091718,21.1871 122.091718,23.1557 L122.091718,28.8779 L122.091718,28.8779 Z M93.2612958,28.8779 L91.8010141,28.8779 L91.8010141,23.2373 C91.8010141,21.7277 91.7705915,21.3707 91.528338,20.8913 C91.2128451,20.2793 90.6359437,19.9427 89.8134085,19.9427 C88.9210141,19.9427 88.1007324,20.4017 87.6432676,21.1871 C87.3503099,21.7073 87.208338,22.3601 87.208338,23.2985 L87.208338,28.8779 L85.7367887,28.8779 L85.7367887,22.2989 C85.7367887,19.9223 85.7367887,19.8407 85.5046761,18.9023 L86.9131268,18.9023 C87.0550986,19.3307 87.1260845,19.7387 87.1260845,20.3609 C87.7953803,19.1981 88.7903099,18.6371 90.1086197,18.6371 C91.467493,18.6371 92.5108732,19.2491 92.9469296,20.2487 C93.2207324,20.9015 93.2612958,21.1871 93.2612958,23.1557 L93.2612958,28.8779 L93.2612958,28.8779 Z M73.5779155,28.8779 L71.448338,28.8779 L65.4855211,21.5135 L71.1339718,14.8631 L73.0303099,14.8631 L67.3514366,21.4727 L73.5779155,28.8779 L73.5779155,28.8779 Z M65.4652394,28.8779 L63.9035493,28.8779 L63.9035493,14.8631 L65.4652394,14.8631 L65.4652394,28.8779 L65.4652394,28.8779 Z" id="Kanton-Zug" fill="#1A1918"></path>
                            <path d="M0.113802817,1.31693333 L42.5701408,1.31693333 L42.5701408,0.487333333 L0.113802817,0.487333333 L0.113802817,1.31693333 L0.113802817,1.31693333 Z M0.113802817,28.9521333 L42.5701408,28.9521333 L42.5701408,14.7197333 L0.113802817,14.7197333 L0.113802817,28.9521333 L0.113802817,28.9521333 Z" id="Wappen" fill="#006DAB"></path>
                        </g>
                    </g>
                </g>
            </g>
        </g>
    </g>
</svg>